<svg width="913" height="723" viewBox="0 0 913 723" fill="none" xmlns="http://www.w3.org/2000/svg">
<g clip-path="url(#clip0_14989_18365)">
<path d="M254.21 512.859C225.696 545.187 178.828 587.221 134.629 614.944" stroke="#002522" stroke-width="1.52375" stroke-miterlimit="10" stroke-linecap="round" stroke-linejoin="round"/>
<path d="M506.901 278.567L471.894 321.698L534.753 484.487L639.228 227.928L506.901 278.567Z" fill="#EFEBE7" stroke="#002522" stroke-width="1.52375" stroke-linecap="round" stroke-linejoin="round"/>
<path d="M740.838 49.1936L665.282 390.248L311.453 333.835L740.838 49.1936Z" fill="#EFEBE7" stroke="#002522" stroke-width="1.52375" stroke-linecap="round" stroke-linejoin="round"/>
<path d="M740.778 49.2489L532.882 369.193L534.75 484.482L443.917 355.06L740.778 49.2489Z" fill="#CFCABF" stroke="#002522" stroke-width="1.52375" stroke-linecap="round" stroke-linejoin="round"/>
<mask id="mask0_14989_18365" style="mask-type:luminance" maskUnits="userSpaceOnUse" x="417" y="48" width="324" height="436">
<path d="M740.454 48.3743L532.558 368.318L534.426 483.607L443.593 354.186L417.979 233.86L508.611 50.6958L740.454 48.3743Z" fill="white"/>
</mask>
<g mask="url(#mask0_14989_18365)">
<path d="M566.829 129.912L591.273 134.752L590.354 153.507C602.851 160.256 609.794 172.939 610.102 191.174L585.005 186.202C584.401 178.297 581.667 173.778 576.559 172.769C575.559 172.569 574.657 172.522 573.856 172.608C570.784 172.93 569.096 175.133 568.945 178.124C568.667 183.725 572.614 186.032 581.15 190.932L585.412 193.46C603.85 204.446 610.61 214.184 609.737 231.877C608.916 248.605 600.438 258.399 586.045 259.899C585.725 259.931 585.415 259.959 585.092 259.982L584.057 280.851L559.613 276.011L560.647 254.982C546.082 247.818 539.202 233.936 539.123 215.433L565.742 220.706C565.981 229.153 569.145 234.06 575.121 235.239C576.46 235.51 577.693 235.581 578.787 235.473C582.042 235.132 584.111 233.085 584.312 229.12C584.534 224.424 581.451 222.59 575.916 219.204L566.855 213.901C548.389 203.369 542.37 192.101 543.224 174.857C543.989 159.426 551.561 149.838 565.52 148.384C565.656 148.372 565.789 148.352 565.916 148.343L566.831 129.891L566.829 129.912Z" fill="#EFEBE7" stroke="#002522" stroke-width="1.52375" stroke-linecap="round" stroke-linejoin="round"/>
<path d="M581.273 85.1528C628.958 94.6 664.959 156.073 661.675 222.464C658.831 280.027 627.404 322.381 588.016 326.474C581.967 327.101 575.737 326.834 569.389 325.576C521.705 316.129 485.704 254.656 488.978 188.269C491.814 130.708 523.253 88.3602 562.638 84.2578C568.687 83.6308 574.917 83.8986 581.265 85.1561L581.273 85.1528ZM610.092 191.173C609.784 172.938 602.841 160.256 590.344 153.506L591.263 134.751L566.819 129.911L565.904 148.363C565.768 148.375 565.632 148.387 565.508 148.404C551.549 149.859 543.968 159.45 543.212 174.878C542.357 192.121 548.386 203.385 566.843 213.922L575.904 219.224C581.439 222.611 584.521 224.445 584.299 229.14C584.099 233.105 582.029 235.152 578.775 235.494C577.684 235.61 576.448 235.53 575.109 235.259C569.133 234.081 565.978 229.17 565.73 220.726L539.111 215.453C539.187 233.948 546.07 247.839 560.635 255.002L559.601 276.031L584.045 280.871L585.08 260.003C585.402 259.98 585.722 259.948 586.032 259.919C600.426 258.419 608.903 248.626 609.724 231.897C610.595 214.196 603.838 204.466 585.399 193.48L581.137 190.953C572.605 186.061 568.655 183.745 568.933 178.144C569.084 175.153 570.769 172.941 573.844 172.628C574.653 172.539 575.555 172.586 576.547 172.789C581.655 173.798 584.388 178.317 584.993 186.222L610.09 191.194" fill="#29F5FF"/>
<path d="M610.092 191.173C609.784 172.938 602.841 160.256 590.344 153.506L591.263 134.751L566.819 129.911L565.904 148.363C565.768 148.375 565.632 148.387 565.508 148.404C551.549 149.859 543.968 159.45 543.212 174.878C542.357 192.121 548.386 203.385 566.843 213.922L575.904 219.224C581.439 222.611 584.521 224.445 584.299 229.14C584.099 233.105 582.029 235.152 578.775 235.494C577.684 235.61 576.448 235.53 575.109 235.259C569.133 234.081 565.978 229.17 565.73 220.726L539.111 215.453C539.187 233.948 546.07 247.839 560.635 255.002L559.601 276.031L584.045 280.871L585.08 260.003C585.402 259.98 585.722 259.948 586.032 259.919C600.426 258.419 608.903 248.626 609.724 231.897C610.595 214.196 603.838 204.466 585.399 193.48L581.137 190.953C572.605 186.061 568.655 183.745 568.933 178.144C569.084 175.153 570.769 172.941 573.844 172.628C574.653 172.539 575.555 172.586 576.547 172.789C581.655 173.798 584.388 178.317 584.993 186.222L610.09 191.194M581.273 85.1528C628.958 94.6 664.959 156.073 661.675 222.464C658.831 280.027 627.404 322.381 588.016 326.474C581.967 327.101 575.737 326.834 569.389 325.576C521.705 316.129 485.704 254.656 488.978 188.269C491.814 130.708 523.253 88.3602 562.638 84.2578C568.687 83.6308 574.917 83.8986 581.265 85.1561L581.273 85.1528Z" stroke="#002522" stroke-width="1.52375" stroke-miterlimit="10" stroke-linejoin="round"/>
<path d="M588.017 326.475L571.516 328.189C565.467 328.816 559.237 328.548 552.889 327.291C505.205 317.844 469.204 256.371 472.478 189.983C475.314 132.423 506.753 90.075 546.138 85.9727L562.64 84.2586C523.255 88.361 491.819 130.718 488.98 188.269C485.706 254.657 521.707 316.13 569.391 325.577C575.739 326.834 581.969 327.102 588.017 326.475Z" fill="#16C6D3" stroke="#002522" stroke-width="1.52375" stroke-miterlimit="10" stroke-linejoin="round"/>
</g>
<path d="M830.141 110.207L829.083 127.077L873.41 156.312L853.983 74.2824L830.141 110.207Z" fill="#EFEBE7" stroke="#002522" stroke-width="1.52375" stroke-linecap="round" stroke-linejoin="round"/>
<path d="M847.593 12.0451L889.118 109.898L791.482 158.422L847.593 12.0451Z" fill="#EFEBE7" stroke="#002522" stroke-width="1.52375" stroke-linecap="round" stroke-linejoin="round"/>
<path d="M847.587 12.0683L852.589 128.067L873.413 156.311L828.051 140.28L847.587 12.0683Z" fill="#CFCABF" stroke="#002522" stroke-width="1.52375" stroke-linecap="round" stroke-linejoin="round"/>
<mask id="mask1_14989_18365" style="mask-type:luminance" maskUnits="userSpaceOnUse" x="726" y="11" width="148" height="169">
<path d="M847.347 11.9227L852.346 127.912L873.178 156.154L827.807 140.125L770.846 179.804L726.109 51.0352L847.347 11.9227Z" fill="white"/>
</mask>
<g mask="url(#mask1_14989_18365)">
<path d="M811.057 78.7553L813.737 71.6623L819.316 72.8821C821.971 69.4756 826.127 68.0256 831.615 68.8486L828.866 76.1287C826.463 75.9132 824.972 76.5041 824.413 77.9836C824.304 78.2765 824.244 78.5404 824.228 78.7876C824.165 79.7258 824.745 80.3478 825.641 80.5372C827.308 80.9038 828.206 79.837 830.1 77.515L831.074 76.3588C835.296 71.378 838.563 69.8363 843.829 70.9957C848.806 72.0845 851.323 75.1192 851.046 79.5145C851.042 79.6068 851.031 79.7112 851.026 79.8034L857.242 81.1617L854.562 88.2547L848.301 86.8835C845.415 90.8912 840.908 92.2644 835.356 91.3552L838.276 83.628C840.821 83.9799 842.451 83.2761 843.114 81.5454C843.258 81.159 843.349 80.7928 843.369 80.4533C843.43 79.4558 842.923 78.7356 841.739 78.4756C840.347 78.1742 839.633 79.0102 838.344 80.498L836.298 82.9485C832.208 87.9591 828.524 89.1983 823.394 88.0776C818.8 87.0729 816.301 84.3225 816.566 80.0524C816.57 80.0107 816.574 79.9689 816.578 79.9272L811.085 78.7243L811.057 78.7553Z" fill="#EFEBE7" stroke="#002522" stroke-width="1.52375" stroke-linecap="round" stroke-linejoin="round"/>
<path d="M814.399 49.1519C827.882 43.0679 847.662 51.9427 858.578 68.9711C868.044 83.7317 867.737 99.7813 858.702 107.749C857.312 108.974 855.727 110.003 853.927 110.812C840.444 116.896 820.663 108.021 809.747 90.9929C800.281 76.2323 800.589 60.1827 809.624 52.2147C811.014 50.9897 812.599 49.9612 814.399 49.1519Z" fill="#DCFF00" stroke="#002522" stroke-width="1.52375" stroke-miterlimit="10" stroke-linejoin="round"/>
<path d="M858.685 107.754L854.899 111.091C853.51 112.316 851.924 113.345 850.125 114.154C836.641 120.238 816.861 111.363 805.945 94.3348C796.479 79.5741 796.786 63.5246 805.822 55.5565L809.607 52.2193C800.575 60.1961 800.265 76.2369 809.731 90.9975C820.647 108.026 840.427 116.901 853.91 110.817C855.71 110.007 857.296 108.979 858.685 107.754Z" fill="#B9CC00" stroke="#002522" stroke-width="1.52375" stroke-miterlimit="10" stroke-linejoin="round"/>
</g>
<path d="M188.3 469.271L161.264 480.602L149.899 571.994L262.474 478.717L188.3 469.271Z" fill="#EFEBE7" stroke="#002522" stroke-width="1.52375" stroke-linecap="round" stroke-linejoin="round"/>
<path d="M354.298 420.926L234.116 560.711L83.6172 446.236L354.298 420.926Z" fill="#EFEBE7" stroke="#002522" stroke-width="1.52375" stroke-linecap="round" stroke-linejoin="round"/>
<path d="M354.255 420.941L177.787 517.905L149.896 571.994L139.93 489.146L354.255 420.941Z" fill="#CFCABF" stroke="#002522" stroke-width="1.52375" stroke-linecap="round" stroke-linejoin="round"/>
<mask id="mask2_14989_18365" style="mask-type:luminance" maskUnits="userSpaceOnUse" x="34" y="262" width="321" height="310">
<path d="M354.322 420.453L177.85 517.408L149.96 571.498L139.997 488.659L34.5134 430.601L200.303 262.051L354.322 420.453Z" fill="white"/>
</mask>
<g mask="url(#mask2_14989_18365)">
<path d="M222.533 415.434L235.623 414.151L238.016 423.763C245.36 425.262 250.803 430.613 253.737 439.776L240.297 441.092C238.784 437.191 236.716 435.33 233.984 435.592C233.452 435.645 232.985 435.764 232.594 435.923C231.086 436.551 230.576 437.921 230.955 439.464C231.671 442.334 234.019 442.902 239.077 444.071L241.616 444.696C252.608 447.431 257.503 451.324 259.768 460.392C261.904 468.967 259.118 475.206 252.073 478.163C251.915 478.224 251.758 478.284 251.6 478.345L254.26 489.05L241.17 490.332L238.483 479.557C230.032 478.16 224.435 472.195 221.576 462.862L235.829 461.466C237.238 465.699 239.588 467.692 242.781 467.375C243.497 467.302 244.135 467.158 244.671 466.933C246.263 466.263 246.991 464.91 246.495 462.879C245.897 460.476 244.054 460.017 240.74 459.155L235.353 457.861C224.419 455.355 219.661 450.586 217.459 441.735C215.486 433.821 217.851 427.823 224.681 424.958C224.751 424.931 224.812 424.908 224.882 424.881L222.529 415.425L222.533 415.434Z" fill="#EFEBE7" stroke="#002522" stroke-width="1.52375" stroke-linecap="round" stroke-linejoin="round"/>
<path d="M271.102 397.862C290.924 414.144 292.334 451.717 274.251 481.771C258.577 507.83 233.394 519.697 214.06 511.777C211.093 510.561 208.261 508.883 205.624 506.717C185.802 490.435 184.384 452.866 202.463 422.803C218.136 396.744 243.323 384.886 262.663 392.794C265.629 394.009 268.461 395.688 271.098 397.853L271.102 397.862Z" fill="#DCFF00" stroke="#002522" stroke-width="1.52375" stroke-miterlimit="10" stroke-linejoin="round"/>
<path d="M214.067 511.783L205.966 508.464C203 507.249 200.167 505.57 197.531 503.405C177.708 487.123 176.29 449.553 194.369 419.49C210.043 393.431 235.229 381.573 254.569 389.481L262.67 392.8C243.327 384.883 218.152 396.747 202.47 422.809C184.391 452.872 185.809 490.441 205.632 506.724C208.268 508.889 211.101 510.568 214.067 511.783Z" fill="#B9CC00" stroke="#002522" stroke-width="1.52375" stroke-miterlimit="10" stroke-linejoin="round"/>
</g>
<path d="M799.566 204.421C791.281 249.5 750.811 404.829 694.897 488.116" stroke="#002522" stroke-width="1.52375" stroke-miterlimit="10" stroke-linecap="round" stroke-linejoin="round"/>
<path d="M887.236 128.05C903.644 195.103 910.64 292.056 897.501 369.993" stroke="#002522" stroke-width="1.52375" stroke-miterlimit="10" stroke-linecap="round" stroke-linejoin="round"/>
<path d="M634.631 447.169C597.264 529.888 525.894 635.946 449.096 705.978" stroke="#002522" stroke-width="1.52375" stroke-miterlimit="10" stroke-linecap="round" stroke-linejoin="round"/>
<path d="M840.196 326.012C835.748 356.625 824.077 400.258 808.394 434.246" stroke="#002522" stroke-width="1.52375" stroke-miterlimit="10" stroke-linecap="round" stroke-linejoin="round"/>
<path d="M418.968 563.493C390.912 596.229 344.657 638.922 300.857 667.266" stroke="#002522" stroke-width="1.52375" stroke-miterlimit="10" stroke-linecap="round" stroke-linejoin="round"/>
<path d="M502.12 363.169C479.882 393.809 442.426 434.451 406.093 462.358" stroke="#002522" stroke-width="1.52375" stroke-miterlimit="10" stroke-linecap="round" stroke-linejoin="round"/>
<path d="M149.941 470.961C113.762 482.104 59.395 492.1 13.5859 492.594" stroke="#002522" stroke-width="1.52375" stroke-miterlimit="10" stroke-linecap="round" stroke-linejoin="round"/>
<path d="M841.081 131.65C840.867 144.53 839.038 168.967 836.42 184.334" stroke="#002522" stroke-width="1.52375" stroke-miterlimit="10" stroke-linecap="round" stroke-linejoin="round"/>
<path d="M132.078 542.42C120.204 547.406 97.0894 555.569 81.9766 559.363" stroke="#002522" stroke-width="1.52375" stroke-miterlimit="10" stroke-linecap="round" stroke-linejoin="round"/>
</g>
<defs>
<clipPath id="clip0_14989_18365">
<rect width="912.651" height="722.418" fill="white"/>
</clipPath>
</defs>
</svg>
