<svg width="435" height="557" viewBox="0 0 435 557" fill="none" xmlns="http://www.w3.org/2000/svg">
<g clip-path="url(#clip0_14902_11945)">
<path d="M302.327 2.37047C307.113 1.17893 312.64 3.20387 317.725 8.51603L420.023 115.274C425.087 120.562 428.823 128.159 430.784 136.161C432.745 144.161 432.94 152.603 430.884 159.591L321.705 531.392C319.667 538.319 315.772 542.58 311.035 543.763L311.035 543.763L290.278 548.906C290.272 548.908 290.267 548.91 290.261 548.912C290.073 548.958 289.883 548.843 289.837 548.655C289.791 548.468 289.906 548.278 290.094 548.232L290.505 548.121C294.734 546.897 298.34 542.94 300.279 536.35L409.434 164.563L409.434 164.562C411.449 157.712 411.267 149.399 409.33 141.489C407.393 133.579 403.709 126.108 398.76 120.931L398.76 120.93L296.447 14.1484L296.446 14.1482C291.47 8.94655 286.185 7.11147 281.735 8.21266L281.717 8.21767C281.529 8.26401 281.34 8.14944 281.293 7.962C281.246 7.7746 281.36 7.5847 281.548 7.53778C281.556 7.53581 281.564 7.53356 281.572 7.5316L302.327 2.37047Z" fill="#12C6C1" stroke="#082422" stroke-width="0.700244" stroke-miterlimit="10" stroke-linecap="round" stroke-linejoin="round"/>
<path d="M281.638 7.51468C286.416 6.37436 291.892 8.3938 296.947 13.6741L399.256 120.448C404.314 125.729 408.047 133.322 410.007 141.322C411.906 149.071 412.149 157.238 410.291 164.096L410.105 164.756L300.943 536.551C298.888 543.534 294.948 547.802 290.169 548.945C285.391 550.088 279.912 548.073 274.856 542.793L172.548 436.018C167.491 430.737 163.758 423.14 161.799 415.138C159.839 407.137 159.644 398.693 161.7 391.71L270.862 19.9144L271.06 19.2673C273.166 12.661 277.008 8.61983 281.638 7.51468Z" fill="#2BF2F1" stroke="#082422" stroke-width="0.700244" stroke-miterlimit="10" stroke-linecap="round" stroke-linejoin="round"/>
<path d="M310.398 170.346C311.506 170.06 312.473 170.238 313.074 170.875C313.672 171.51 313.808 172.495 313.489 173.608L304.613 204.751L304.612 204.752C304.285 205.884 303.55 206.994 302.639 207.887C301.728 208.779 300.615 209.481 299.508 209.768C298.404 210.055 297.434 209.889 296.83 209.256C296.228 208.624 296.094 207.635 296.418 206.507L305.293 175.364L305.293 175.362C305.616 174.246 306.353 173.137 307.264 172.241C308.176 171.345 309.291 170.634 310.398 170.346Z" fill="white" stroke="#082422" stroke-width="0.700244" stroke-miterlimit="10" stroke-linecap="round" stroke-linejoin="round"/>
<path d="M281.953 14.7273C285.11 13.9722 288.705 15.304 291.997 18.7413L391.901 123.046C391.906 123.051 391.909 123.057 391.914 123.063C396.994 128.374 400.748 136.021 402.721 144.075C404.696 152.136 404.897 160.642 402.831 167.665L297.561 525.366C295.496 532.387 291.524 536.681 286.71 537.832C281.896 538.983 276.378 536.959 271.292 531.648L177.894 434.135C172.807 428.823 169.05 421.169 167.075 413.109C165.101 405.048 164.9 396.543 166.967 389.519L274.876 22.8388L275.005 22.4175C276.376 18.1196 278.894 15.4592 281.953 14.7273Z" fill="white" stroke="#082422" stroke-width="0.700244" stroke-miterlimit="10" stroke-linecap="round" stroke-linejoin="round"/>
<path d="M317.657 74.5567C319.219 74.1832 320.963 74.8531 322.53 76.4901L348.979 104.106C350.549 105.745 351.697 108.089 352.299 110.545C352.9 113 352.964 115.604 352.327 117.772C351.69 119.938 350.447 121.322 348.884 121.696C347.322 122.069 345.578 121.4 344.011 119.764L317.562 92.1474C315.992 90.5083 314.844 88.1649 314.242 85.7097C313.64 83.2544 313.576 80.6507 314.215 78.4822C314.852 76.3154 316.094 74.9304 317.657 74.5567Z" fill="#082422" stroke="#082422" stroke-width="0.700244" stroke-miterlimit="10" stroke-linecap="round" stroke-linejoin="round"/>
<path d="M363.718 198.566C308.355 266.251 323.441 392.481 268.084 460.164C235.469 433.059 202.856 405.952 170.244 378.847C225.601 311.162 210.518 184.932 265.877 117.25C298.49 144.354 331.103 171.459 363.718 198.566Z" fill="black" fill-opacity="0.2"/>
<path d="M271.464 92.7596C272.027 92.6167 272.598 92.8683 273.057 93.3715L367.363 196.535C367.366 196.539 367.371 196.542 367.375 196.546C367.835 197.049 368.15 197.757 368.302 198.484C368.454 199.212 368.451 199.998 368.239 200.665C368.028 201.328 367.624 201.82 367.067 201.962C366.504 202.105 365.935 201.853 365.476 201.352L271.158 98.1744C270.698 97.6713 270.383 96.9632 270.231 96.2359C270.097 95.599 270.082 94.9188 270.222 94.3121L270.291 94.0568C270.5 93.3933 270.906 92.9011 271.464 92.7596Z" fill="#082422" stroke="#082422" stroke-width="0.700244" stroke-linecap="round" stroke-linejoin="round"/>
<path d="M282.568 194.945C284.333 195.313 285.898 196.227 287.212 197.692C287.213 197.694 287.214 197.696 287.215 197.697C289.836 200.625 291.223 205.471 291.625 211.768C292.007 217.687 291.537 224.945 290.409 233.245L290.175 234.918L290.175 234.92C287.529 252.859 282.217 275.791 274.314 298.854C266.415 321.915 256.842 340.139 247.346 350.515L247.346 350.516C242.631 355.734 237.98 359.092 233.839 360.422L233.838 360.423C231.763 361.086 229.811 361.25 228.04 360.87C226.266 360.489 224.695 359.569 223.381 358.102C220.759 355.175 219.396 350.353 219.03 344.101C218.663 337.834 219.281 330.055 220.63 321.114L220.63 321.113C223.387 303.297 228.804 280.484 236.704 257.417C244.605 234.358 254.075 216.016 263.458 205.518C268.12 200.239 272.712 196.823 276.813 195.448L276.813 195.447C278.867 194.76 280.806 194.578 282.568 194.945Z" fill="#60D06F" stroke="#082422" stroke-width="0.700244" stroke-miterlimit="10" stroke-linecap="round" stroke-linejoin="round"/>
<mask id="path-9-outside-1_14902_11945" maskUnits="userSpaceOnUse" x="166.854" y="132.776" width="176.477" height="289.734" fill="black">
<rect fill="white" x="166.854" y="132.776" width="176.477" height="289.734"/>
<path d="M324.005 218.667C292.33 273.994 279.029 349.713 246.506 404.096C245.854 405.186 244.741 405.33 244.048 404.559C237.731 397.547 227.962 399.837 221.215 408.549C220.384 409.622 219.034 409.897 218.246 409.023C207.495 397.087 196.743 385.153 185.994 373.217C185.205 372.34 185.361 370.739 186.192 369.666C192.939 360.954 192.495 347.326 186.216 340.357C185.606 339.679 185.522 338.364 186.096 337.41C218.765 282.934 232.05 206.941 263.866 151.52C264.425 150.547 265.388 150.398 265.998 151.075C272.315 158.087 281.961 155.661 288.52 146.742C289.412 145.524 290.89 145.181 291.763 146.151C302.417 157.978 313.072 169.808 323.728 181.638C324.601 182.608 324.44 184.408 323.545 185.626C316.988 194.548 317.553 208.309 323.831 215.28C324.525 216.051 324.644 217.563 324.008 218.67L324.005 218.667ZM247 350.451C256.519 340.103 266.146 321.887 274.1 298.789C282.055 275.689 287.404 252.727 290.066 234.766C291.368 225.754 291.933 217.924 291.525 211.632C291.118 205.34 289.729 200.577 287.165 197.73C284.606 194.889 281.11 194.228 277.063 195.575C273.017 196.925 268.44 200.297 263.764 205.564C254.355 216.037 244.833 234.367 236.877 257.464C228.925 280.565 223.471 303.413 220.697 321.251C219.339 330.202 218.719 337.973 219.087 344.221C219.452 350.466 220.819 355.203 223.383 358.05C225.947 360.898 229.463 361.579 233.549 360.278C237.635 358.974 242.269 355.66 246.999 350.453"/>
</mask>
<path d="M324.005 218.667C292.33 273.994 279.029 349.713 246.506 404.096C245.854 405.186 244.741 405.33 244.048 404.559C237.731 397.547 227.962 399.837 221.215 408.549C220.384 409.622 219.034 409.897 218.246 409.023C207.495 397.087 196.743 385.153 185.994 373.217C185.205 372.34 185.361 370.739 186.192 369.666C192.939 360.954 192.495 347.326 186.216 340.357C185.606 339.679 185.522 338.364 186.096 337.41C218.765 282.934 232.05 206.941 263.866 151.52C264.425 150.547 265.388 150.398 265.998 151.075C272.315 158.087 281.961 155.661 288.52 146.742C289.412 145.524 290.89 145.181 291.763 146.151C302.417 157.978 313.072 169.808 323.728 181.638C324.601 182.608 324.44 184.408 323.545 185.626C316.988 194.548 317.553 208.309 323.831 215.28C324.525 216.051 324.644 217.563 324.008 218.67L324.005 218.667ZM247 350.451C256.519 340.103 266.146 321.887 274.1 298.789C282.055 275.689 287.404 252.727 290.066 234.766C291.368 225.754 291.933 217.924 291.525 211.632C291.118 205.34 289.729 200.577 287.165 197.73C284.606 194.889 281.11 194.228 277.063 195.575C273.017 196.925 268.44 200.297 263.764 205.564C254.355 216.037 244.833 234.367 236.877 257.464C228.925 280.565 223.471 303.413 220.697 321.251C219.339 330.202 218.719 337.973 219.087 344.221C219.452 350.466 220.819 355.203 223.383 358.05C225.947 360.898 229.463 361.579 233.549 360.278C237.635 358.974 242.269 355.66 246.999 350.453" fill="#80E58A"/>
<path d="M324.005 218.667L324.506 218.166C324.351 218.016 324.131 217.948 323.913 217.981C323.694 218.015 323.502 218.147 323.392 218.338L324.005 218.667ZM246.506 404.096L245.9 403.756L245.9 403.756L246.506 404.096ZM244.048 404.559L244.581 404.092L244.581 404.091L244.048 404.559ZM221.215 408.549L220.658 408.137L220.658 408.137L221.215 408.549ZM218.246 409.023L217.713 409.491L217.713 409.491L218.246 409.023ZM185.994 373.217L185.461 373.685L185.461 373.685L185.994 373.217ZM186.192 369.666L185.635 369.254L185.635 369.255L186.192 369.666ZM186.216 340.357L185.683 340.824L185.683 340.824L186.216 340.357ZM186.096 337.41L186.701 337.753L186.701 337.752L186.096 337.41ZM263.866 151.52L263.254 151.19L263.254 151.191L263.866 151.52ZM265.998 151.075L265.465 151.543L265.465 151.543L265.998 151.075ZM288.52 146.742L289.087 147.14L289.088 147.139L288.52 146.742ZM291.763 146.151L291.23 146.619L291.231 146.619L291.763 146.151ZM323.728 181.638L324.261 181.171L324.261 181.171L323.728 181.638ZM323.545 185.626L324.113 186.023L324.113 186.023L323.545 185.626ZM323.831 215.28L324.364 214.813L324.364 214.813L323.831 215.28ZM324.008 218.67L323.507 219.17C323.662 219.321 323.881 219.389 324.1 219.356C324.318 219.322 324.511 219.19 324.62 219L324.008 218.67ZM246.482 349.992C246.218 350.28 246.235 350.718 246.521 350.971C246.806 351.225 247.252 351.197 247.517 350.909L247 350.451L246.482 349.992ZM274.1 298.789L274.768 298.997V298.997L274.1 298.789ZM290.066 234.766L290.764 234.849L290.764 234.847L290.066 234.766ZM291.525 211.632L290.821 211.693L290.821 211.693L291.525 211.632ZM287.165 197.73L287.698 197.262L287.698 197.262L287.165 197.73ZM277.063 195.575L276.852 194.918L276.851 194.919L277.063 195.575ZM263.764 205.564L264.287 206.016L264.29 206.013L263.764 205.564ZM236.877 257.464L236.21 257.256L236.21 257.257L236.877 257.464ZM220.697 321.251L220 321.163L219.999 321.165L220.697 321.251ZM219.087 344.221L219.791 344.164L219.791 344.164L219.087 344.221ZM233.549 360.278L233.751 360.937L233.752 360.937L233.549 360.278ZM247.519 350.908C247.782 350.619 247.762 350.181 247.475 349.929C247.187 349.678 246.741 349.709 246.479 349.998L246.999 350.453L247.519 350.908ZM324.005 218.667L323.392 218.338C307.516 246.07 296.251 278.899 284.907 311.526C273.552 344.183 262.118 376.637 245.9 403.756L246.506 404.096L247.111 404.437C263.417 377.172 274.895 344.575 286.24 311.945C297.596 279.284 308.819 246.59 324.617 218.995L324.005 218.667ZM246.506 404.096L245.9 403.756C245.658 404.161 245.383 404.309 245.19 404.342C245.007 404.373 244.787 404.321 244.581 404.092L244.048 404.559L243.515 405.026C244.002 405.568 244.686 405.829 245.395 405.709C246.095 405.59 246.702 405.122 247.111 404.437L246.506 404.096ZM244.048 404.559L244.581 404.091C241.264 400.41 236.997 399.144 232.674 399.977C228.382 400.804 224.11 403.681 220.658 408.137L221.215 408.549L221.772 408.961C225.068 404.705 229.053 402.081 232.911 401.338C236.739 400.601 240.515 401.696 243.515 405.026L244.048 404.559ZM221.215 408.549L220.658 408.137C220.336 408.553 219.944 408.775 219.609 408.833C219.292 408.888 219.004 408.805 218.779 408.556L218.246 409.023L217.713 409.491C218.276 410.115 219.057 410.332 219.82 410.199C220.565 410.07 221.263 409.618 221.772 408.961L221.215 408.549ZM218.246 409.023L218.779 408.556C208.028 396.62 197.276 384.686 186.527 372.75L185.994 373.217L185.461 373.685C196.21 385.62 206.962 397.555 217.713 409.491L218.246 409.023ZM185.994 373.217L186.527 372.75C186.285 372.481 186.153 372.058 186.189 371.545C186.224 371.034 186.422 370.5 186.749 370.078L186.192 369.666L185.635 369.255C185.131 369.906 184.835 370.708 184.782 371.486C184.728 372.26 184.914 373.076 185.461 373.685L185.994 373.217ZM186.192 369.666L186.749 370.078C190.236 365.575 191.848 359.829 191.794 354.334C191.74 348.843 190.023 343.523 186.749 339.889L186.216 340.357L185.683 340.824C188.688 344.16 190.332 349.138 190.384 354.382C190.435 359.621 188.895 365.045 185.635 369.254L186.192 369.666ZM186.216 340.357L186.749 339.89C186.572 339.693 186.436 339.356 186.416 338.937C186.397 338.524 186.494 338.096 186.701 337.753L186.096 337.41L185.492 337.068C185.125 337.678 184.977 338.385 185.008 339.037C185.039 339.683 185.25 340.343 185.683 340.824L186.216 340.357ZM186.096 337.41L186.701 337.752C203.08 310.44 214.59 277.751 225.967 245.029C237.355 212.276 248.609 179.491 264.477 151.85L263.866 151.52L263.254 151.191C247.306 178.97 236.01 211.892 224.634 244.61C213.248 277.359 201.781 309.905 185.491 337.069L186.096 337.41ZM263.866 151.52L264.477 151.85C264.679 151.499 264.899 151.385 265.031 151.36C265.147 151.337 265.302 151.362 265.465 151.543L265.998 151.075L266.531 150.608C266.083 150.111 265.452 149.872 264.794 149.998C264.152 150.121 263.611 150.568 263.254 151.19L263.866 151.52ZM265.998 151.075L265.465 151.543C268.782 155.225 273.023 156.46 277.299 155.561C281.541 154.67 285.734 151.7 289.087 147.14L288.52 146.742L287.952 146.345C284.747 150.703 280.838 153.406 277.038 154.205C273.272 154.996 269.53 153.938 266.53 150.608L265.998 151.075ZM288.52 146.742L289.088 147.139C289.446 146.65 289.889 146.382 290.271 146.306C290.632 146.235 290.966 146.325 291.23 146.619L291.763 146.151L292.296 145.684C291.688 145.008 290.846 144.784 290.027 144.946C289.228 145.104 288.486 145.616 287.951 146.346L288.52 146.742ZM291.763 146.151L291.231 146.619C301.884 158.446 312.539 170.276 323.195 182.106L323.728 181.638L324.261 181.171C313.605 169.341 302.95 157.511 292.296 145.684L291.763 146.151ZM323.728 181.638L323.195 182.105C323.478 182.42 323.631 182.917 323.595 183.516C323.56 184.11 323.341 184.734 322.977 185.229L323.545 185.626L324.113 186.023C324.644 185.3 324.953 184.415 325.003 183.562C325.054 182.714 324.85 181.826 324.261 181.171L323.728 181.638ZM323.545 185.626L322.977 185.229C319.591 189.836 318.061 195.664 318.17 201.215C318.278 206.762 320.025 212.114 323.298 215.748L323.831 215.28L324.364 214.813C321.358 211.476 319.684 206.462 319.58 201.154C319.476 195.851 320.942 190.338 324.113 186.023L323.545 185.626ZM323.831 215.28L323.298 215.748C323.518 215.992 323.684 216.405 323.714 216.908C323.744 217.404 323.637 217.921 323.396 218.341L324.008 218.67L324.62 219C325.015 218.312 325.166 217.52 325.122 216.791C325.078 216.068 324.837 215.339 324.364 214.813L323.831 215.28ZM324.008 218.67L324.509 218.17L324.506 218.166L324.005 218.667L323.503 219.167L323.507 219.17L324.008 218.67ZM247 350.451L247.517 350.909C257.135 340.455 266.801 322.13 274.768 298.997L274.1 298.789L273.433 298.582C265.492 321.643 255.903 339.752 246.482 349.992L247 350.451ZM274.1 298.789L274.768 298.997C282.736 275.857 288.095 252.853 290.764 234.849L290.066 234.766L289.368 234.683C286.712 252.601 281.374 275.522 273.433 298.582L274.1 298.789ZM290.066 234.766L290.764 234.847C292.069 225.814 292.641 217.93 292.228 211.57L291.525 211.632L290.821 211.693C291.225 217.917 290.666 225.694 289.368 234.686L290.066 234.766ZM291.525 211.632L292.228 211.57C291.819 205.235 290.417 200.282 287.698 197.262L287.165 197.73L286.632 198.197C289.041 200.873 290.417 205.446 290.821 211.693L291.525 211.632ZM287.165 197.73L287.698 197.262C286.33 195.743 284.689 194.787 282.834 194.403C280.985 194.02 278.968 194.214 276.852 194.918L277.063 195.575L277.273 196.232C279.204 195.589 280.959 195.44 282.51 195.761C284.055 196.081 285.442 196.876 286.632 198.197L287.165 197.73ZM277.063 195.575L276.851 194.919C272.634 196.326 267.955 199.802 263.238 205.115L263.764 205.564L264.29 206.013C268.925 200.792 273.4 197.524 277.274 196.232L277.063 195.575ZM263.764 205.564L263.241 205.112C253.737 215.69 244.177 234.126 236.21 257.256L236.877 257.464L237.545 257.672C245.489 234.608 254.973 216.383 264.287 206.016L263.764 205.564ZM236.877 257.464L236.21 257.257C228.245 280.395 222.78 303.284 220 321.163L220.697 321.251L221.393 321.339C224.161 303.543 229.605 280.735 237.545 257.672L236.877 257.464ZM220.697 321.251L219.999 321.165C218.638 330.137 218.011 337.962 218.383 344.279L219.087 344.221L219.791 344.164C219.427 337.984 220.039 330.267 221.394 321.336L220.697 321.251ZM219.087 344.221L218.383 344.278C218.751 350.569 220.13 355.498 222.85 358.518L223.383 358.05L223.916 357.583C221.508 354.909 220.153 350.363 219.791 344.164L219.087 344.221ZM223.383 358.05L222.85 358.518C224.221 360.04 225.866 361.002 227.73 361.398C229.587 361.793 231.616 361.617 233.751 360.937L233.549 360.278L233.348 359.618C231.396 360.24 229.624 360.374 228.06 360.042C226.503 359.711 225.109 358.908 223.916 357.583L223.383 358.05ZM233.549 360.278L233.752 360.937C238.008 359.579 242.746 356.162 247.519 350.908L246.999 350.453L246.479 349.998C241.791 355.157 237.261 358.369 233.347 359.618L233.549 360.278Z" fill="#082422" mask="url(#path-9-outside-1_14902_11945)"/>
<path d="M280.719 104.523C280.816 104.524 280.909 104.564 280.973 104.635C308.084 134.611 335.194 164.588 362.306 194.568C362.428 194.702 362.42 194.908 362.289 195.04C331.071 226.48 314.448 274.09 297.795 321.81C281.157 369.483 264.489 417.267 233.136 448.845C233.067 448.915 232.972 448.954 232.874 448.953C232.776 448.952 232.684 448.912 232.62 448.841C205.507 418.864 178.397 388.885 151.286 358.908C151.165 358.774 151.173 358.568 151.304 358.436C182.52 326.995 199.142 279.385 215.796 231.666C232.434 183.992 249.102 136.209 280.457 104.631C280.526 104.561 280.621 104.522 280.719 104.523ZM291.76 146.108C291.406 145.716 290.942 145.593 290.463 145.687C289.973 145.784 289.452 146.115 289.048 146.665L289.048 146.666C285.709 151.188 281.56 154.099 277.402 154.969C273.357 155.816 269.344 154.722 266.135 151.378L265.827 151.047C265.591 150.787 265.314 150.708 265.059 150.757C264.797 150.808 264.494 151.006 264.253 151.425C248.261 179.171 236.922 212.073 225.463 244.9C214.009 277.71 202.434 310.446 185.97 337.79C185.722 338.201 185.612 338.701 185.634 339.176C185.654 339.594 185.776 339.966 185.967 340.232L186.055 340.338L186.353 340.678C189.387 344.235 190.993 349.326 191.045 354.598C191.099 360.042 189.495 365.721 186.042 370.161C185.669 370.642 185.445 371.246 185.405 371.825C185.365 372.405 185.511 372.929 185.831 373.282L218.297 409.179L218.419 409.297C218.713 409.55 219.078 409.631 219.456 409.566C219.897 409.489 220.37 409.209 220.741 408.732C224.176 404.316 228.404 401.495 232.614 400.687C236.839 399.876 241.01 401.102 244.268 404.705C244.546 405.014 244.885 405.119 245.204 405.065C245.527 405.01 245.887 404.78 246.173 404.304C262.52 377.08 274.041 344.507 285.467 311.774C296.889 279.056 308.217 246.178 324.177 218.411L324.275 218.224C324.486 217.777 324.573 217.266 324.543 216.78C324.509 216.221 324.324 215.728 324.038 215.412C320.812 211.844 319.071 206.562 318.962 201.062C318.854 195.558 320.378 189.794 323.733 185.249C324.141 184.696 324.385 184.005 324.424 183.345C324.464 182.682 324.297 182.085 323.934 181.684C313.208 169.823 302.486 157.968 291.76 146.108Z" fill="#60D06F" stroke="#082422" stroke-width="0.700244" stroke-miterlimit="10" stroke-linecap="round" stroke-linejoin="round"/>
<path d="M362.293 194.646C275.436 246.286 286.637 361.96 215.857 435.278C167.043 402.299 166.115 389.025 132.84 364.619C203.621 291.299 229.597 202.091 300.38 128.775C332.355 162.646 330.383 158.975 362.293 194.646Z" fill="black" fill-opacity="0.2"/>
<mask id="path-13-outside-2_14902_11945" maskUnits="userSpaceOnUse" x="68.5032" y="71.5705" width="314.03" height="391.14" fill="black">
<rect fill="white" x="68.5032" y="71.5705" width="314.03" height="391.14"/>
<path d="M361.618 193.481C253.603 223.655 281.412 403.118 173.397 433.294C145.448 402.575 117.503 371.86 89.5544 341.141C197.572 310.965 169.761 131.501 277.776 101.327C305.724 132.046 333.669 162.762 361.618 193.481ZM199.19 398.621C199.91 399.411 201.331 399.416 202.341 398.48C252.804 351.771 258.391 255.741 306.873 206.855C307.844 205.875 307.969 204.454 307.249 203.663C300.759 196.531 302.362 183.462 313.114 176.984C314.579 176.099 315.251 174.602 314.346 173.605C303.292 161.454 292.233 149.302 281.18 137.151C280.274 136.156 278.238 136.155 276.773 137.04C266.021 143.516 253.823 144.938 247.241 137.705C246.61 137.012 245.388 137.047 244.533 137.904C195.795 186.791 190.316 283.228 139.587 329.93C138.696 330.748 138.55 331.967 139.181 332.66C145.671 339.793 143.783 352.549 132.591 358.54C131.213 359.28 130.574 360.584 131.394 361.482C142.548 373.744 153.704 386.004 164.859 398.265C165.677 399.166 167.555 399.227 168.935 398.485C180.126 392.494 192.612 391.386 199.192 398.616"/>
</mask>
<path d="M361.618 193.481C253.603 223.655 281.412 403.118 173.397 433.294C145.448 402.575 117.503 371.86 89.5544 341.141C197.572 310.965 169.761 131.501 277.776 101.327C305.724 132.046 333.669 162.762 361.618 193.481ZM199.19 398.621C199.91 399.411 201.331 399.416 202.341 398.48C252.804 351.771 258.391 255.741 306.873 206.855C307.844 205.875 307.969 204.454 307.249 203.663C300.759 196.531 302.362 183.462 313.114 176.984C314.579 176.099 315.251 174.602 314.346 173.605C303.292 161.454 292.233 149.302 281.18 137.151C280.274 136.156 278.238 136.155 276.773 137.04C266.021 143.516 253.823 144.938 247.241 137.705C246.61 137.012 245.388 137.047 244.533 137.904C195.795 186.791 190.316 283.228 139.587 329.93C138.696 330.748 138.55 331.967 139.181 332.66C145.671 339.793 143.783 352.549 132.591 358.54C131.213 359.28 130.574 360.584 131.394 361.482C142.548 373.744 153.704 386.004 164.859 398.265C165.677 399.166 167.555 399.227 168.935 398.485C180.126 392.494 192.612 391.386 199.192 398.616" fill="#60D06F"/>
<path d="M361.618 193.481L361.793 194.147C362.03 194.081 362.219 193.899 362.292 193.668C362.365 193.436 362.312 193.188 362.151 193.011L361.618 193.481ZM173.397 433.294L172.864 433.764C173.039 433.957 173.313 434.033 173.571 433.96L173.397 433.294ZM89.5544 341.141L89.3799 340.475C89.1424 340.541 88.9533 340.722 88.8802 340.954C88.8071 341.185 88.8605 341.434 89.0212 341.611L89.5544 341.141ZM277.776 101.327L278.309 100.857C278.134 100.665 277.86 100.589 277.601 100.661L277.776 101.327ZM199.723 398.151C199.467 397.87 199.021 397.852 198.727 398.112C198.432 398.372 198.401 398.81 198.657 399.091L199.19 398.621L199.723 398.151ZM202.341 398.48L201.864 397.983L201.864 397.983L202.341 398.48ZM306.873 206.855L306.374 206.379L306.374 206.379L306.873 206.855ZM307.249 203.663L306.715 204.133L306.716 204.133L307.249 203.663ZM313.114 176.984L313.47 177.571L313.471 177.571L313.114 176.984ZM314.346 173.605L314.879 173.136L314.879 173.135L314.346 173.605ZM281.18 137.151L281.713 136.681L281.713 136.681L281.18 137.151ZM276.773 137.04L277.129 137.628L277.13 137.627L276.773 137.04ZM247.241 137.705L247.774 137.236L247.774 137.235L247.241 137.705ZM244.533 137.904L244.035 137.427L244.035 137.427L244.533 137.904ZM139.587 329.93L140.061 330.429L140.062 330.429L139.587 329.93ZM139.181 332.66L139.715 332.19L139.714 332.19L139.181 332.66ZM132.591 358.54L132.268 357.934L132.267 357.935L132.591 358.54ZM131.394 361.482L131.927 361.013L131.926 361.012L131.394 361.482ZM164.859 398.265L165.392 397.796L165.392 397.795L164.859 398.265ZM168.935 398.485L168.611 397.879L168.609 397.879L168.935 398.485ZM198.658 399.086C198.914 399.367 199.36 399.385 199.655 399.125C199.949 398.866 199.981 398.427 199.725 398.146L199.192 398.616L198.658 399.086ZM361.618 193.481L361.444 192.815C334.224 200.419 315.578 217.432 301.241 239.073C286.919 260.69 276.866 286.973 266.847 313.16C256.815 339.383 246.816 365.509 232.597 386.971C218.394 408.409 200.011 425.144 173.222 432.628L173.397 433.294L173.571 433.96C200.791 426.356 219.437 409.342 233.775 387.701C248.097 366.083 258.149 339.8 268.168 313.613C278.201 287.391 288.2 261.264 302.418 239.803C316.621 218.365 335.004 201.63 361.793 194.147L361.618 193.481ZM173.397 433.294L173.93 432.824C159.956 417.465 145.982 402.106 132.009 386.748C118.035 371.389 104.062 356.03 90.0876 340.671L89.5544 341.141L89.0212 341.611C102.996 356.97 116.969 372.329 130.942 387.687C144.916 403.046 158.889 418.405 172.864 433.764L173.397 433.294ZM89.5544 341.141L89.7289 341.807C116.949 334.202 135.596 317.189 149.933 295.548C164.255 273.93 174.307 247.647 184.326 221.46C194.359 195.237 204.358 169.111 218.576 147.65C232.779 126.212 251.162 109.477 277.95 101.993L277.776 101.327L277.601 100.661C250.382 108.265 231.736 125.278 217.398 146.919C203.077 168.537 193.025 194.82 183.006 221.007C172.973 247.229 162.974 273.356 148.755 294.817C134.552 316.256 116.169 332.991 89.3799 340.475L89.5544 341.141ZM277.776 101.327L277.242 101.797C291.217 117.157 305.19 132.515 319.164 147.874C333.137 163.233 347.11 178.591 361.085 193.951L361.618 193.481L362.151 193.011C348.177 177.652 334.203 162.293 320.23 146.934C306.257 131.576 292.283 116.217 278.309 100.857L277.776 101.327ZM199.19 398.621L198.657 399.091C199.687 400.222 201.573 400.13 202.818 398.977L202.341 398.48L201.864 397.983C201.088 398.702 200.133 398.601 199.723 398.151L199.19 398.621ZM202.341 398.48L202.818 398.977C228.196 375.486 242.26 339.629 256.01 303.71C269.792 267.707 283.261 231.642 307.372 207.33L306.873 206.855L306.374 206.379C282.003 230.953 268.437 267.346 254.689 303.257C240.91 339.252 226.949 374.764 201.864 397.983L202.341 398.48ZM306.873 206.855L307.372 207.33C308.539 206.154 308.803 204.315 307.781 203.193L307.249 203.663L306.716 204.133C307.134 204.593 307.15 205.597 306.374 206.379L306.873 206.855ZM307.249 203.663L307.782 203.193C301.602 196.401 303.074 183.835 313.47 177.571L313.114 176.984L312.758 176.397C301.649 183.089 299.917 196.661 306.715 204.133L307.249 203.663ZM313.114 176.984L313.471 177.571C314.308 177.065 314.969 176.356 315.277 175.567C315.595 174.754 315.528 173.851 314.879 173.136L314.346 173.605L313.812 174.075C314.068 174.357 314.118 174.701 313.96 175.106C313.792 175.536 313.384 176.018 312.757 176.397L313.114 176.984ZM314.346 173.605L314.879 173.135C309.352 167.06 303.824 160.984 298.296 154.908C292.768 148.832 287.24 142.756 281.713 136.681L281.18 137.151L280.646 137.62C286.173 143.696 291.701 149.772 297.229 155.848C302.757 161.924 308.285 167.999 313.812 174.075L314.346 173.605ZM281.18 137.151L281.713 136.681C281.093 136 280.146 135.714 279.219 135.698C278.283 135.681 277.271 135.936 276.416 136.453L276.773 137.04L277.13 137.627C277.74 137.259 278.478 137.071 279.152 137.083C279.836 137.095 280.36 137.306 280.647 137.621L281.18 137.151ZM276.773 137.04L276.417 136.453C271.118 139.644 265.497 141.568 260.428 141.822C255.369 142.075 250.896 140.667 247.774 137.236L247.241 137.705L246.708 138.175C250.168 141.977 255.085 143.474 260.458 143.206C265.822 142.937 271.676 140.912 277.129 137.628L276.773 137.04ZM247.241 137.705L247.774 137.235C246.816 136.183 245.113 136.347 244.035 137.427L244.533 137.904L245.03 138.381C245.664 137.746 246.404 137.841 246.708 138.176L247.241 137.705ZM244.533 137.904L244.035 137.427C219.535 162.002 205.932 198.498 192.146 234.51C178.328 270.606 164.328 306.217 139.112 329.432L139.587 329.93L140.062 330.429C165.575 306.941 179.678 270.982 193.467 234.963C207.288 198.859 220.793 162.693 245.031 138.381L244.533 137.904ZM139.587 329.93L139.113 329.431C138.016 330.438 137.7 332.089 138.648 333.13L139.181 332.66L139.714 332.19C139.399 331.844 139.377 331.058 140.061 330.429L139.587 329.93ZM139.181 332.66L138.648 333.13C144.814 339.907 143.085 352.144 132.268 357.934L132.591 358.54L132.915 359.146C144.482 352.955 146.528 339.678 139.715 332.19L139.181 332.66ZM132.591 358.54L132.267 357.935C131.472 358.361 130.829 358.981 130.519 359.698C130.196 360.446 130.252 361.286 130.861 361.953L131.394 361.482L131.926 361.012C131.715 360.781 131.682 360.519 131.817 360.206C131.966 359.861 132.332 359.459 132.916 359.146L132.591 358.54ZM131.394 361.482L130.86 361.952C136.438 368.083 142.015 374.213 147.593 380.344C153.171 386.474 158.748 392.604 164.326 398.735L164.859 398.265L165.392 397.795C159.814 391.665 154.237 385.534 148.659 379.404C143.082 373.274 137.504 367.143 131.927 361.013L131.394 361.482ZM164.859 398.265L164.325 398.735C164.897 399.364 165.775 399.643 166.631 399.683C167.5 399.724 168.447 399.527 169.26 399.09L168.935 398.485L168.609 397.879C168.043 398.184 167.361 398.328 166.741 398.299C166.11 398.269 165.639 398.068 165.392 397.796L164.859 398.265ZM168.935 398.485L169.258 399.091C174.778 396.136 180.585 394.404 185.788 394.285C190.985 394.167 195.535 395.654 198.658 399.086L199.192 398.616L199.725 398.146C196.268 394.348 191.286 392.775 185.797 392.9C180.315 393.025 174.283 394.842 168.611 397.879L168.935 398.485Z" fill="#082422" mask="url(#path-13-outside-2_14902_11945)"/>
<path d="M253.574 181.78C258.252 180.746 262.213 181.629 264.826 184.532C264.829 184.536 264.834 184.539 264.837 184.543C267.526 187.544 268.483 192.327 268.193 198.56C267.906 204.804 266.396 212.609 264.165 221.818L264.164 221.821C259.57 240.091 252.681 264.734 243.321 290.013C233.965 315.294 222.587 335.005 210.847 345.431C205.046 350.718 199.3 353.865 194.334 354.96L194.333 354.96C189.361 356.054 185.173 355.141 182.478 352.136L182.477 352.136C179.786 349.133 178.886 344.407 179.27 338.278L179.27 338.277C179.65 332.133 181.284 324.467 183.638 315.4L183.639 315.397C188.485 297.411 195.616 273.039 204.969 247.758L205.852 245.404C215.025 221.241 225.825 202.166 236.951 191.797C242.625 186.374 248.244 183.084 253.118 181.887L253.574 181.78Z" fill="#60D06F" stroke="#082422" stroke-width="0.700244" stroke-miterlimit="10" stroke-linecap="round" stroke-linejoin="round"/>
<mask id="path-16-outside-3_14902_11945" maskUnits="userSpaceOnUse" x="121.281" y="115.721" width="204.342" height="303.988" fill="black">
<rect fill="white" x="121.281" y="115.721" width="204.342" height="303.988"/>
<path d="M305.996 207.09C258 255.729 252.469 351.274 202.509 397.747C201.509 398.678 200.103 398.674 199.39 397.887C192.874 390.691 180.516 391.794 169.437 397.754C168.073 398.493 166.212 398.432 165.402 397.536C154.358 385.336 143.315 373.138 132.272 360.939C131.461 360.043 132.095 358.748 133.46 358.009C144.54 352.049 146.408 339.359 139.984 332.263C139.358 331.573 139.504 330.36 140.385 329.546C190.608 283.081 196.032 187.13 244.282 138.491C245.129 137.638 246.339 137.601 246.962 138.29C253.478 145.486 265.554 144.071 276.198 137.628C277.648 136.747 279.664 136.748 280.56 137.74C291.505 149.83 302.45 161.921 313.394 174.011C314.29 175 313.626 176.492 312.177 177.373C301.533 183.816 299.944 196.818 306.368 203.917C307.081 204.703 306.957 206.118 305.996 207.092L305.996 207.09ZM210.364 345.535C222.207 335.121 233.726 315.375 243.212 289.986C252.702 264.598 259.688 239.848 264.347 221.495C266.61 212.243 268.132 204.427 268.421 198.187C268.716 191.951 267.742 187.257 265.104 184.342C262.465 181.427 258.433 180.593 253.564 181.775C248.701 182.959 243.054 186.223 237.326 191.647C225.739 202.345 214.463 222.357 204.973 247.745C195.486 273.137 188.257 297.62 183.343 315.687C180.954 324.8 179.305 332.474 178.922 338.613C178.535 344.745 179.452 349.379 182.089 352.291C184.714 355.19 188.816 356.103 193.777 355.023C198.733 353.943 204.508 350.819 210.362 345.535"/>
</mask>
<path d="M305.996 207.09C258 255.729 252.469 351.274 202.509 397.747C201.509 398.678 200.103 398.674 199.39 397.887C192.874 390.691 180.516 391.794 169.437 397.754C168.073 398.493 166.212 398.432 165.402 397.536C154.358 385.336 143.315 373.138 132.272 360.939C131.461 360.043 132.095 358.748 133.46 358.009C144.54 352.049 146.408 339.359 139.984 332.263C139.358 331.573 139.504 330.36 140.385 329.546C190.608 283.081 196.032 187.13 244.282 138.491C245.129 137.638 246.339 137.601 246.962 138.29C253.478 145.486 265.554 144.071 276.198 137.628C277.648 136.747 279.664 136.748 280.56 137.74C291.505 149.83 302.45 161.921 313.394 174.011C314.29 175 313.626 176.492 312.177 177.373C301.533 183.816 299.944 196.818 306.368 203.917C307.081 204.703 306.957 206.118 305.996 207.092L305.996 207.09ZM210.364 345.535C222.207 335.121 233.726 315.375 243.212 289.986C252.702 264.598 259.688 239.848 264.347 221.495C266.61 212.243 268.132 204.427 268.421 198.187C268.716 191.951 267.742 187.257 265.104 184.342C262.465 181.427 258.433 180.593 253.564 181.775C248.701 182.959 243.054 186.223 237.326 191.647C225.739 202.345 214.463 222.357 204.973 247.745C195.486 273.137 188.257 297.62 183.343 315.687C180.954 324.8 179.305 332.474 178.922 338.613C178.535 344.745 179.452 349.379 182.089 352.291C184.714 355.19 188.816 356.103 193.777 355.023C198.733 353.943 204.508 350.819 210.362 345.535" fill="#80E58A"/>
<path d="M305.996 207.09L306.671 207.275C306.766 206.968 306.638 206.642 306.359 206.486C306.081 206.329 305.725 206.383 305.496 206.615L305.996 207.09ZM202.509 397.747L202.032 397.25L202.031 397.25L202.509 397.747ZM199.39 397.887L198.857 398.356L198.857 398.356L199.39 397.887ZM169.437 397.754L169.111 397.148L169.109 397.149L169.437 397.754ZM165.402 397.536L165.935 397.067L165.935 397.067L165.402 397.536ZM132.272 360.939L131.738 361.407L131.739 361.407L132.272 360.939ZM133.46 358.009L133.135 357.404L133.133 357.404L133.46 358.009ZM139.984 332.263L140.517 331.794L140.516 331.794L139.984 332.263ZM140.385 329.546L140.861 330.045L140.861 330.045L140.385 329.546ZM244.282 138.491L243.784 138.014L243.784 138.014L244.282 138.491ZM246.962 138.29L246.429 138.758L246.429 138.759L246.962 138.29ZM276.198 137.628L276.556 138.215L276.557 138.215L276.198 137.628ZM280.56 137.74L280.026 138.208L280.027 138.209L280.56 137.74ZM313.394 174.011L312.861 174.479L312.861 174.48L313.394 174.011ZM312.177 177.373L312.535 177.96L312.536 177.96L312.177 177.373ZM306.368 203.917L305.835 204.385L305.835 204.386L306.368 203.917ZM305.996 207.092L305.321 206.907C305.226 207.215 305.354 207.54 305.632 207.696C305.911 207.853 306.267 207.8 306.496 207.568L305.996 207.092ZM209.901 345.024C209.607 345.283 209.576 345.722 209.831 346.004C210.086 346.286 210.532 346.305 210.827 346.046L210.364 345.535L209.901 345.024ZM243.212 289.986L242.551 289.763L242.551 289.763L243.212 289.986ZM264.347 221.495L265.032 221.645L265.033 221.639L264.347 221.495ZM268.421 198.187L267.716 198.174L267.716 198.175L268.421 198.187ZM253.564 181.775L253.413 181.103L253.413 181.103L253.564 181.775ZM237.326 191.647L237.802 192.146L237.809 192.14L237.326 191.647ZM204.973 247.745L204.311 247.522L204.311 247.522L204.973 247.745ZM183.343 315.687L182.661 315.526L182.66 315.532L183.343 315.687ZM178.922 338.613L179.627 338.636L179.627 338.636L178.922 338.613ZM182.089 352.291L182.622 351.822L182.622 351.822L182.089 352.291ZM193.777 355.023L193.911 355.7L193.912 355.7L193.777 355.023ZM210.832 346.039C211.122 345.777 211.148 345.338 210.889 345.059C210.629 344.781 210.183 344.768 209.892 345.03L210.362 345.535L210.832 346.039ZM305.996 207.09L305.496 206.615C281.369 231.065 267.939 267.274 254.329 303.004C240.687 338.817 226.865 374.149 202.032 397.25L202.509 397.747L202.987 398.244C228.113 374.872 242.036 339.195 255.649 303.458C269.294 267.637 282.627 231.754 306.496 207.565L305.996 207.09ZM202.509 397.747L202.031 397.25C201.264 397.965 200.324 397.861 199.923 397.418L199.39 397.887L198.857 398.356C199.881 399.486 201.754 399.392 202.987 398.244L202.509 397.747ZM199.39 397.887L199.923 397.419C196.499 393.636 191.563 392.069 186.128 392.194C180.699 392.318 174.727 394.127 169.111 397.148L169.437 397.754L169.762 398.36C175.226 395.421 180.973 393.698 186.122 393.58C191.264 393.462 195.766 394.942 198.857 398.356L199.39 397.887ZM169.437 397.754L169.109 397.149C168.551 397.452 167.878 397.595 167.265 397.566C166.641 397.536 166.178 397.336 165.935 397.067L165.402 397.536L164.868 398.004C165.436 398.632 166.308 398.91 167.158 398.95C168.02 398.991 168.959 398.795 169.764 398.359L169.437 397.754ZM165.402 397.536L165.935 397.067C160.413 390.967 154.891 384.868 149.37 378.769C143.848 372.669 138.326 366.57 132.805 360.47L132.272 360.939L131.739 361.407C137.26 367.507 142.782 373.607 148.304 379.706C153.825 385.805 159.347 391.905 164.868 398.004L165.402 397.536ZM132.272 360.939L132.805 360.47C132.598 360.241 132.564 359.982 132.698 359.67C132.847 359.327 133.209 358.927 133.787 358.615L133.46 358.009L133.133 357.404C132.346 357.83 131.709 358.447 131.401 359.16C131.08 359.904 131.135 360.74 131.738 361.407L132.272 360.939ZM133.46 358.009L133.786 358.615C145.238 352.455 147.264 339.247 140.517 331.794L139.984 332.263L139.451 332.731C145.552 339.471 143.843 351.643 133.135 357.404L133.46 358.009ZM139.984 332.263L140.516 331.794C140.207 331.452 140.183 330.67 140.861 330.045L140.385 329.546L139.91 329.047C138.824 330.049 138.51 331.693 139.451 332.731L139.984 332.263ZM140.385 329.546L140.861 330.045C166.12 306.675 180.083 270.898 193.734 235.061C207.416 199.139 220.786 163.156 244.781 138.967L244.282 138.491L243.784 138.014C219.528 162.465 206.061 198.777 192.413 234.607C178.734 270.521 164.873 305.951 139.909 329.048L140.385 329.546ZM244.282 138.491L244.781 138.967C245.409 138.334 246.135 138.434 246.429 138.758L246.962 138.29L247.495 137.822C246.542 136.767 244.849 136.941 243.784 138.014L244.282 138.491ZM246.962 138.29L246.429 138.759C249.856 142.543 254.727 144.034 260.048 143.766C265.36 143.499 271.157 141.484 276.556 138.215L276.198 137.628L275.84 137.04C270.595 140.215 265.032 142.129 260.015 142.381C255.009 142.633 250.584 141.233 247.495 137.821L246.962 138.29ZM276.198 137.628L276.557 138.215C277.159 137.849 277.889 137.663 278.554 137.675C279.229 137.687 279.745 137.897 280.026 138.208L280.56 137.74L281.093 137.272C280.478 136.591 279.538 136.305 278.619 136.289C277.69 136.272 276.687 136.526 275.839 137.041L276.198 137.628ZM280.56 137.74L280.027 138.209C290.972 150.299 301.917 162.389 312.861 174.479L313.394 174.011L313.927 173.542C302.984 161.452 292.038 149.362 281.093 137.271L280.56 137.74ZM313.394 174.011L312.861 174.48C313.112 174.757 313.163 175.098 313.006 175.502C312.84 175.93 312.438 176.409 311.817 176.786L312.177 177.373L312.536 177.96C313.365 177.456 314.019 176.749 314.324 175.964C314.637 175.154 314.572 174.254 313.927 173.542L313.394 174.011ZM312.177 177.373L311.818 176.786C300.821 183.443 299.102 196.946 305.835 204.385L306.368 203.917L306.901 203.448C300.786 196.691 302.244 184.189 312.535 177.96L312.177 177.373ZM306.368 203.917L305.835 204.386C306.247 204.841 306.264 205.839 305.496 206.617L305.996 207.092L306.496 207.568C307.651 206.397 307.914 204.566 306.9 203.448L306.368 203.917ZM305.996 207.092L306.67 207.277L306.671 207.275L305.996 207.09L305.322 206.905L305.321 206.907L305.996 207.092ZM210.364 345.535L210.827 346.046C222.805 335.512 234.376 315.632 243.874 290.209L243.212 289.986L242.551 289.763C233.077 315.119 221.608 334.73 209.901 345.024L210.364 345.535ZM243.212 289.986L243.874 290.209C253.376 264.789 260.369 240.012 265.032 221.645L264.347 221.495L263.663 221.345C259.007 239.683 252.029 264.408 242.551 289.763L243.212 289.986ZM264.347 221.495L265.033 221.639C267.298 212.381 268.834 204.51 269.126 198.199L268.421 198.187L267.716 198.175C267.43 204.344 265.922 212.106 263.661 221.351L264.347 221.495ZM268.421 198.187L269.126 198.2C269.424 191.913 268.458 186.99 265.637 183.873L265.104 184.342L264.571 184.811C267.027 187.524 268.009 191.989 267.716 198.174L268.421 198.187ZM265.104 184.342L265.637 183.873C262.778 180.716 258.448 179.88 253.413 181.103L253.564 181.775L253.716 182.448C258.417 181.307 262.152 182.138 264.571 184.811L265.104 184.342ZM253.564 181.775L253.413 181.103C248.387 182.326 242.631 185.674 236.844 191.155L237.326 191.647L237.809 192.14C243.477 186.772 249.014 183.592 253.716 182.448L253.564 181.775ZM237.326 191.647L236.851 191.148C225.135 201.963 213.812 222.106 204.311 247.522L204.973 247.745L205.635 247.968C215.114 222.609 226.342 202.726 237.802 192.146L237.326 191.647ZM204.973 247.745L204.311 247.522C194.814 272.941 187.579 297.447 182.661 315.526L183.343 315.687L184.024 315.849C188.935 297.794 196.158 273.332 205.635 247.968L204.973 247.745ZM183.343 315.687L182.66 315.532C180.27 324.649 178.605 332.379 178.218 338.589L178.922 338.613L179.627 338.636C180.005 332.568 181.639 324.95 184.026 315.843L183.343 315.687ZM178.922 338.613L178.218 338.589C177.827 344.776 178.734 349.643 181.556 352.76L182.089 352.291L182.622 351.822C180.171 349.115 179.242 344.714 179.627 338.636L178.922 338.613ZM182.089 352.291L181.556 352.76C184.397 355.896 188.788 356.815 193.911 355.7L193.777 355.023L193.643 354.347C188.844 355.391 185.032 354.483 182.622 351.822L182.089 352.291ZM193.777 355.023L193.912 355.7C199.028 354.585 204.915 351.381 210.832 346.039L210.362 345.535L209.892 345.03C204.102 350.258 198.438 353.301 193.642 354.347L193.777 355.023Z" fill="#082422" mask="url(#path-16-outside-3_14902_11945)"/>
<path d="M360.808 193.824C250.892 223.272 223.754 340.039 138.264 394.897C98.3414 350.773 95.3841 349.172 68.6088 317.205C154.101 262.345 193.72 163.547 279.213 108.691C302.568 149.63 302.396 133.187 360.808 193.824Z" fill="black" fill-opacity="0.2"/>
<path d="M291.419 197.466C224.332 235.208 204.628 319.006 132.795 352.138C131.398 352.782 129.688 352.581 128.912 351.826C128.656 351.552 128.461 351.349 128.26 351.153C121.162 344.254 105.943 343.453 91.1435 346.99C89.3121 347.428 87.048 347.127 86.1636 346.267C74.7648 333.775 63.419 321.335 52.0613 308.887C51.2266 307.974 52.2635 306.885 54.0985 306.397C69.0207 302.465 73.5036 291.212 66.7679 283.84C66.1132 283.123 66.4933 282.035 67.7152 281.408C137.275 245.785 156.84 161.562 226.752 126.277C227.942 125.675 229.42 125.813 230.103 126.477C230.349 126.744 230.546 126.946 230.748 127.14C237.846 134.04 252.764 134.549 267.082 130.544C269.04 129.996 271.508 130.272 272.486 131.224C283.827 143.647 295.105 156.008 306.396 168.379C307.322 169.395 306.211 170.654 304.246 171.261C289.808 175.658 285.649 187.227 292.403 194.619C293.15 195.437 292.762 196.713 291.421 197.467L291.419 197.466ZM151.777 306.7C168.227 299.333 185.648 283.66 201.222 262.467C216.802 241.282 229.097 220.078 237.705 204.209C241.931 196.197 245.059 189.355 246.43 183.752C247.807 178.154 247.384 173.759 244.592 170.711C244.464 170.572 244.332 170.435 244.196 170.305C241.367 167.555 236.644 166.285 230.673 166.542C224.418 166.815 216.843 168.809 208.84 172.709C192.678 180.353 175.537 196.3 159.973 217.501C144.407 238.7 131.851 259.648 122.954 275.239C118.586 283.111 115.312 289.815 113.835 295.313C112.352 300.809 112.706 305.135 115.49 308.176C115.619 308.314 115.748 308.451 115.883 308.584C118.713 311.333 123.495 312.66 129.56 312.497C135.913 312.318 143.629 310.461 151.774 306.702" fill="#80E58A"/>
<mask id="path-20-outside-4_14902_11945" maskUnits="userSpaceOnUse" x="-17.6243" y="44.1126" width="400.603" height="389.815" fill="black">
<rect fill="white" x="-17.6243" y="44.1126" width="400.603" height="389.815"/>
<path d="M361.571 191.872C222.538 207.546 234.668 370.054 88.3475 378.651C60.255 347.816 32.074 316.896 3.81015 285.896C142.845 270.222 130.711 107.716 277.033 99.1188C305.125 129.954 333.307 160.871 361.571 191.872ZM128.635 352.389C129.483 353.216 131.205 353.419 132.607 352.771C204.819 319.487 224.624 235.305 292.066 197.388C293.416 196.629 293.804 195.349 293.055 194.526C286.265 187.102 290.444 175.479 304.961 171.06C306.936 170.453 308.053 169.188 307.121 168.168C295.771 155.739 284.431 143.323 273.103 130.916C272.049 129.887 269.569 129.608 267.599 130.161C253.204 134.183 238.207 133.671 231.071 126.74C230.868 126.543 230.671 126.339 230.481 126.133C229.736 125.407 228.251 125.266 227.055 125.871C156.773 161.318 137.107 245.93 67.1779 281.717C65.9496 282.346 65.5659 283.437 66.2234 284.159C72.9947 291.566 68.4881 302.87 53.487 306.82C51.6424 307.31 50.6023 308.405 51.4392 309.321C62.8568 321.827 74.2633 334.322 85.6543 346.805C86.6114 347.735 88.8867 348.041 90.7256 347.6C105.603 344.046 120.902 344.851 128.04 351.782C128.243 351.98 128.438 352.183 128.628 352.389"/>
</mask>
<path d="M361.571 191.872C222.538 207.546 234.668 370.054 88.3475 378.651C60.255 347.816 32.074 316.896 3.81015 285.896C142.845 270.222 130.711 107.716 277.033 99.1188C305.125 129.954 333.307 160.871 361.571 191.872ZM128.635 352.389C129.483 353.216 131.205 353.419 132.607 352.771C204.819 319.487 224.624 235.305 292.066 197.388C293.416 196.629 293.804 195.349 293.055 194.526C286.265 187.102 290.444 175.479 304.961 171.06C306.936 170.453 308.053 169.188 307.121 168.168C295.771 155.739 284.431 143.323 273.103 130.916C272.049 129.887 269.569 129.608 267.599 130.161C253.204 134.183 238.207 133.671 231.071 126.74C230.868 126.543 230.671 126.339 230.481 126.133C229.736 125.407 228.251 125.266 227.055 125.871C156.773 161.318 137.107 245.93 67.1779 281.717C65.9496 282.346 65.5659 283.437 66.2234 284.159C72.9947 291.566 68.4881 302.87 53.487 306.82C51.6424 307.31 50.6023 308.405 51.4392 309.321C62.8568 321.827 74.2633 334.322 85.6543 346.805C86.6114 347.735 88.8867 348.041 90.7256 347.6C105.603 344.046 120.902 344.851 128.04 351.782C128.243 351.98 128.438 352.183 128.628 352.389" fill="#60D06F"/>
<path d="M361.571 191.872L361.63 192.56C361.895 192.53 362.125 192.357 362.226 192.113C362.326 191.868 362.279 191.593 362.105 191.402L361.571 191.872ZM88.3475 378.651L87.8138 379.121C87.9526 379.274 88.1559 379.355 88.3676 379.343L88.3475 378.651ZM3.81015 285.896L3.75133 285.208C3.48607 285.238 3.25576 285.41 3.15549 285.655C3.05524 285.9 3.10204 286.174 3.27658 286.366L3.81015 285.896ZM277.033 99.1188L277.567 98.6487C277.428 98.4963 277.225 98.4151 277.013 98.4276L277.033 99.1188ZM129.142 351.891C128.87 351.625 128.422 351.633 128.143 351.908C127.863 352.183 127.857 352.621 128.129 352.887L128.635 352.389L129.142 351.891ZM132.607 352.771L132.323 352.146L132.322 352.146L132.607 352.771ZM292.066 197.388L291.729 196.79L291.729 196.79L292.066 197.388ZM293.055 194.526L293.59 194.057L293.588 194.055L293.055 194.526ZM304.961 171.06L305.151 171.721L305.153 171.72L304.961 171.06ZM307.121 168.168L307.655 167.697L307.654 167.697L307.121 168.168ZM273.103 130.916L273.636 130.445C273.627 130.435 273.618 130.426 273.609 130.417L273.103 130.916ZM267.599 130.161L267.773 130.826L267.774 130.826L267.599 130.161ZM231.071 126.74L230.565 127.239L230.565 127.24L231.071 126.74ZM230.481 126.133L231.013 125.66C231.004 125.651 230.996 125.643 230.987 125.634L230.481 126.133ZM227.055 125.871L227.362 126.484L227.363 126.484L227.055 125.871ZM67.1779 281.717L66.8665 281.105L66.8661 281.105L67.1779 281.717ZM66.2234 284.159L65.6894 284.629L65.6904 284.63L66.2234 284.159ZM53.487 306.82L53.3239 306.152L53.3223 306.152L53.487 306.82ZM51.4392 309.321L51.9724 308.85L51.9722 308.85L51.4392 309.321ZM85.6543 346.805L85.121 347.275C85.1299 347.285 85.1391 347.294 85.1486 347.304L85.6543 346.805ZM90.7256 347.6L90.5788 346.927L90.5782 346.927L90.7256 347.6ZM128.04 351.782L128.546 351.284L128.546 351.283L128.04 351.782ZM128.096 352.862C128.353 353.141 128.8 353.157 129.094 352.896C129.387 352.635 129.417 352.197 129.16 351.917L128.628 352.389L128.096 352.862ZM361.571 191.872L361.512 191.184C291.641 199.061 259.742 243.885 227.126 287.518C194.494 331.173 161.126 373.683 88.3275 377.96L88.3475 378.651L88.3676 379.343C161.889 375.023 195.616 331.98 228.257 288.313C260.915 244.624 292.468 200.357 361.63 192.56L361.571 191.872ZM88.3475 378.651L88.8813 378.181C60.7887 347.346 32.6076 316.426 4.34373 285.425L3.81015 285.896L3.27658 286.366C31.5403 317.367 59.7214 348.287 87.8138 379.121L88.3475 378.651ZM3.81015 285.896L3.86897 286.583C73.7411 278.707 105.639 233.883 138.254 190.251C170.886 146.597 204.253 104.087 277.053 99.8101L277.033 99.1188L277.013 98.4276C203.491 102.747 169.764 145.79 137.123 189.456C104.466 233.144 72.9143 277.411 3.75133 285.208L3.81015 285.896ZM277.033 99.1188L276.499 99.589C304.592 130.424 332.774 161.342 361.037 192.343L361.571 191.872L362.105 191.402C333.841 160.401 305.659 129.484 277.567 98.6487L277.033 99.1188ZM128.635 352.389L128.129 352.887C128.69 353.434 129.493 353.737 130.318 353.822C131.15 353.908 132.063 353.779 132.892 353.395L132.607 352.771L132.322 352.146C131.749 352.411 131.101 352.505 130.509 352.445C129.911 352.383 129.429 352.171 129.142 351.891L128.635 352.389ZM132.607 352.771L132.891 353.396C169.188 336.666 192.29 307.15 214.691 277.214C237.124 247.235 258.844 216.853 292.403 197.986L292.066 197.388L291.729 196.79C257.846 215.84 235.942 246.507 213.56 276.419C191.144 306.374 168.238 335.592 132.323 352.146L132.607 352.771ZM292.066 197.388L292.402 197.986C293.201 197.538 293.779 196.898 294.019 196.177C294.264 195.438 294.135 194.656 293.59 194.057L293.055 194.526L292.521 194.996C292.724 195.219 292.775 195.489 292.676 195.786C292.572 196.099 292.281 196.48 291.729 196.79L292.066 197.388ZM293.055 194.526L293.588 194.055C290.373 190.539 289.767 186.066 291.661 181.933C293.564 177.781 298.039 173.886 305.151 171.721L304.961 171.06L304.771 170.399C297.366 172.653 292.493 176.779 290.375 181.399C288.248 186.039 288.948 191.089 292.522 194.997L293.055 194.526ZM304.961 171.06L305.153 171.72C306.217 171.393 307.148 170.863 307.685 170.181C307.96 169.832 308.153 169.415 308.161 168.954C308.169 168.485 307.983 168.056 307.655 167.697L307.121 168.168L306.588 168.638C306.726 168.789 306.749 168.901 306.748 168.975C306.746 169.058 306.711 169.185 306.577 169.356C306.295 169.714 305.68 170.12 304.769 170.4L304.961 171.06ZM307.121 168.168L307.654 167.697C296.304 155.268 284.964 142.852 273.636 130.445L273.103 130.916L272.569 131.386C283.898 143.794 295.238 156.21 306.588 168.638L307.121 168.168ZM273.103 130.916L273.609 130.417C272.933 129.757 271.878 129.397 270.809 129.259C269.721 129.118 268.51 129.191 267.424 129.495L267.599 130.161L267.774 130.826C268.658 130.578 269.672 130.514 270.58 130.632C271.506 130.752 272.219 131.046 272.596 131.414L273.103 130.916ZM267.599 130.161L267.425 129.495C260.293 131.488 253.031 132.352 246.69 131.868C240.336 131.383 234.986 129.553 231.576 126.241L231.071 126.74L230.565 127.24C234.291 130.859 240.008 132.75 246.536 133.249C253.075 133.748 260.509 132.856 267.773 130.826L267.599 130.161ZM231.071 126.74L231.577 126.242C231.383 126.053 231.194 125.858 231.013 125.66L230.481 126.133L229.949 126.605C230.147 126.821 230.354 127.033 230.565 127.239L231.071 126.74ZM230.481 126.133L230.987 125.634C229.984 124.657 228.153 124.546 226.746 125.258L227.055 125.871L227.363 126.484C228.349 125.985 229.487 126.157 229.975 126.631L230.481 126.133ZM227.055 125.871L226.747 125.257C191.427 143.071 168.845 173.233 146.418 203.269C123.958 233.35 101.654 263.302 66.8665 281.105L67.1779 281.717L67.4894 282.328C102.631 264.344 125.124 234.098 147.55 204.064C170.009 173.985 192.401 144.118 227.362 126.484L227.055 125.871ZM67.1779 281.717L66.8661 281.105C66.1336 281.481 65.5775 282.032 65.3319 282.68C65.0771 283.353 65.1844 284.074 65.6894 284.629L66.2234 284.159L66.7573 283.689C66.6048 283.522 66.5753 283.336 66.6551 283.126C66.744 282.891 66.9938 282.582 67.4898 282.328L67.1779 281.717ZM66.2234 284.159L65.6904 284.63C68.8934 288.133 69.4108 292.511 67.3891 296.493C65.3536 300.503 60.6856 304.213 53.3239 306.152L53.487 306.82L53.6502 307.488C61.2895 305.477 66.3754 301.56 68.6506 297.078C70.9397 292.569 70.3247 287.591 66.7563 283.688L66.2234 284.159ZM53.487 306.82L53.3223 306.152C52.3271 306.417 51.4443 306.868 50.9228 307.475C50.6548 307.787 50.4562 308.173 50.4404 308.61C50.4243 309.056 50.6023 309.46 50.9061 309.792L51.4392 309.321L51.9722 308.85C51.8576 308.725 51.8518 308.647 51.8529 308.616C51.8544 308.574 51.8743 308.484 51.9923 308.347C52.2428 308.055 52.8023 307.714 53.6518 307.488L53.487 306.82ZM51.4392 309.321L50.9059 309.792C62.3235 322.297 73.73 334.792 85.121 347.275L85.6543 346.805L86.1877 346.334C74.7966 333.851 63.39 321.356 51.9724 308.85L51.4392 309.321ZM85.6543 346.805L85.1486 347.304C85.7727 347.911 86.7458 348.254 87.731 348.401C88.735 348.551 89.8573 348.516 90.873 348.272L90.7256 347.6L90.5782 346.927C89.7549 347.125 88.8202 347.157 87.9875 347.032C87.136 346.904 86.493 346.629 86.1601 346.305L85.6543 346.805ZM90.7256 347.6L90.8723 348.272C98.2492 346.51 105.712 345.834 112.195 346.448C118.692 347.064 124.122 348.967 127.535 352.282L128.04 351.782L128.546 351.283C124.821 347.666 119.032 345.701 112.375 345.07C105.705 344.437 98.0794 345.135 90.5788 346.927L90.7256 347.6ZM128.04 351.782L127.534 352.281C127.726 352.469 127.914 352.663 128.096 352.862L128.628 352.389L129.16 351.917C128.963 351.703 128.759 351.491 128.546 351.284L128.04 351.782Z" fill="#082422" mask="url(#path-20-outside-4_14902_11945)"/>
<path d="M230.224 166.662C236.157 166.405 240.932 167.661 243.834 170.463C243.85 170.473 243.865 170.486 243.879 170.5C244.015 170.634 244.151 170.772 244.283 170.918L244.545 171.218C247.182 174.35 247.512 178.75 246.18 184.186C244.811 189.799 241.695 196.633 237.508 204.598L237.506 204.601C229.242 219.889 217.548 240.159 202.783 260.566L201.345 262.541C185.901 283.632 168.601 299.263 152.229 306.62C144.381 310.255 136.92 312.115 130.689 312.39L130.09 312.412C124.039 312.575 119.189 311.251 116.292 308.425L116.291 308.424C116.154 308.29 116.019 308.151 115.887 308.005C113.017 304.859 112.691 300.417 114.173 294.909L114.317 294.388C115.853 288.979 119.044 282.458 123.236 274.878L123.238 274.875C132.054 259.375 144.499 238.539 159.923 217.457C175.357 196.363 192.376 180.46 208.46 172.826C216.419 168.934 223.97 166.936 230.224 166.662Z" fill="#60D06F" stroke="#082422" stroke-width="0.700244" stroke-miterlimit="10" stroke-linecap="round" stroke-linejoin="round"/>
<path fill-rule="evenodd" clip-rule="evenodd" d="M389.906 84.3577C386.584 86.3428 383.308 88.9129 380.192 92.0633C378.724 93.5457 377.342 95.1062 376.049 96.7297L399.008 120.692C407.174 129.234 411.891 143.907 411.131 156.542C413.47 154.891 415.77 152.945 417.99 150.705C422.913 145.731 426.878 139.878 429.754 133.713C427.681 126.706 424.242 120.193 419.765 115.519L389.906 84.3577ZM411.121 156.549C411.883 143.914 407.165 129.225 398.99 120.689L376.042 96.739C363.173 112.897 359.074 135.294 367.146 149.128C369.296 152.809 372.096 155.55 375.357 157.368C375.183 157.272 375.01 157.174 374.839 157.073L374.715 156.997C374.756 157.023 374.798 157.048 374.839 157.073L380.297 160.381C388.721 165.489 400.336 164.157 411.121 156.549ZM370.919 153.701C371.055 153.855 371.204 153.992 371.354 154.13L371.354 154.13C371.331 154.106 371.308 154.083 371.285 154.06C371.161 153.934 371.045 153.817 370.919 153.701ZM389.738 84.6584L389.738 84.6583L389.737 84.6433L389.318 84.9108C389.459 84.8366 389.599 84.7475 389.738 84.6584ZM387.802 85.9203C387.969 85.8133 388.122 85.7077 388.275 85.6021C388.198 85.6549 388.118 85.708 388.038 85.7612C387.958 85.8143 387.878 85.8675 387.802 85.9203ZM386.533 86.8C386.592 86.7602 386.651 86.7205 386.706 86.6773L386.719 86.6609C386.657 86.7048 386.598 86.7483 386.539 86.7918C386.52 86.8063 386.5 86.8209 386.48 86.8354C386.498 86.8236 386.515 86.8118 386.533 86.8ZM378.084 158.376C377.97 158.33 377.857 158.284 377.748 158.241C377.834 158.275 377.921 158.311 378.008 158.348C378.142 158.403 378.278 158.46 378.419 158.511C378.31 158.468 378.197 158.422 378.084 158.376ZM384.64 88.2552C384.737 88.1853 384.847 88.0989 384.942 88.0139L384.955 87.9975C384.9 88.0407 384.849 88.0835 384.797 88.1264C384.746 88.1692 384.695 88.212 384.64 88.2552ZM383.441 89.266C383.312 89.3687 383.191 89.4786 383.07 89.5886C383.144 89.5207 383.219 89.4567 383.294 89.3926C383.343 89.3508 383.393 89.3089 383.441 89.266ZM373.066 155.576L373.296 155.766C373.268 155.743 373.241 155.72 373.216 155.697C373.166 155.653 373.119 155.611 373.066 155.576ZM374.422 156.545C374.508 156.604 374.594 156.66 374.683 156.712C374.625 156.673 374.567 156.637 374.51 156.601C374.48 156.582 374.451 156.564 374.422 156.545ZM377.244 158.274C377.275 158.286 377.354 158.324 377.354 158.324L377.337 158.311L377.244 158.274Z" fill="black" fill-opacity="0.2"/>
<path d="M406.164 62.0689C406.263 61.9045 406.478 61.8536 406.645 61.9545L406.645 61.9555L412.704 65.6282L412.705 65.6281C415.99 67.6271 418.84 70.5188 421.044 74.298L421.489 75.0903C425.964 83.3552 426.655 94.1564 424.166 105.045C421.595 116.291 415.625 127.67 406.863 136.523L406.863 136.524C393.313 150.209 376.938 153.924 365.645 147.083L359.585 143.41C359.419 143.309 359.365 143.092 359.464 142.928C359.55 142.784 359.726 142.727 359.88 142.782L359.944 142.813L360.459 143.116C371.342 149.318 387.075 145.713 400.301 132.355C408.97 123.596 414.879 112.335 417.422 101.212C419.966 90.0844 419.134 79.1347 414.379 70.9693L413.969 70.2884C411.883 66.9389 409.265 64.3624 406.287 62.5496C406.12 62.4485 406.065 62.2333 406.164 62.0689Z" fill="#B3D000" stroke="#082422" stroke-width="0.700244" stroke-linecap="round" stroke-linejoin="round"/>
<path d="M365.366 72.5918C374.131 63.7376 384.058 59.0629 393.04 58.7039C402.036 58.3444 410.06 62.3194 414.946 70.7004C419.82 79.0632 420.64 90.2141 418.069 101.458C415.497 112.708 409.525 124.092 400.759 132.948C391.994 141.802 382.067 146.477 373.085 146.836C364.089 147.196 356.064 143.22 351.178 134.839C346.304 126.476 345.485 115.325 348.056 104.081C350.627 92.8312 356.6 81.4475 365.366 72.5918Z" fill="#DAFC35" stroke="#082422" stroke-width="0.700244" stroke-linecap="round" stroke-linejoin="round"/>
<path d="M384.569 80.7365C384.645 80.7141 384.729 80.7181 384.805 80.7503C384.906 80.7933 384.981 80.881 385.01 80.9868L386.129 85.19C388.631 84.4331 390.798 84.2928 392.562 84.882C394.431 85.5058 395.787 86.9263 396.602 89.1385C396.661 89.2983 396.597 89.4754 396.45 89.559L385.767 95.6332C385.674 95.6862 385.56 95.693 385.46 95.6517C385.36 95.6103 385.283 95.5252 385.253 95.4213C384.956 94.3966 384.524 94.0009 384.061 93.8959C383.552 93.7806 382.859 93.9715 381.964 94.4792L381.965 94.4801C380.338 95.4096 379.968 96.3568 380.125 96.9496L380.153 97.0382C380.221 97.2303 380.326 97.3298 380.458 97.3896C380.635 97.4693 380.911 97.4994 381.331 97.4496C382.174 97.3497 383.377 96.9617 385.005 96.4404L385.006 96.4403L386.712 95.8992C389.774 94.8974 392.793 94.6899 395.162 95.1117C397.498 95.528 399.337 96.59 399.78 98.2547C400.899 102.464 398.534 107.067 393.125 111.35L394.416 116.19C394.457 116.342 394.39 116.502 394.254 116.58L383.921 122.456C383.827 122.509 383.712 122.515 383.611 122.472C383.51 122.43 383.434 122.342 383.406 122.236L382.155 117.55C379.193 118.6 376.75 118.826 374.817 118.196C372.783 117.533 371.388 115.95 370.56 113.589C370.504 113.43 370.569 113.256 370.714 113.174L382.022 106.744L382.093 106.714C382.167 106.692 382.248 106.694 382.322 106.722C382.421 106.761 382.497 106.842 382.531 106.942C382.881 107.986 383.317 108.499 383.841 108.667C384.383 108.84 385.161 108.692 386.311 108.047C387.15 107.565 387.779 107.06 388.158 106.555C388.532 106.055 388.646 105.58 388.52 105.118L388.52 105.117C388.462 104.904 388.374 104.803 388.28 104.747C388.174 104.684 388.008 104.645 387.743 104.658C387.202 104.685 386.444 104.916 385.443 105.237L381.691 106.452L381.69 106.451C377.669 107.791 374.762 108.23 372.697 107.765C371.652 107.53 370.818 107.062 370.173 106.365C369.531 105.673 369.094 104.774 368.804 103.701L368.803 103.7L368.804 103.699C367.766 99.7771 369.992 95.3852 375.16 91.2757L374.062 87.1578C374.021 87.1049 373.996 87.0411 373.99 86.9724C373.978 86.838 374.045 86.7095 374.162 86.6431L384.494 80.7681L384.569 80.7365Z" fill="white" stroke="#082422" stroke-width="0.700244" stroke-linecap="round" stroke-linejoin="round"/>
</g>
<defs>
<clipPath id="clip0_14902_11945">
<rect width="434.151" height="556.694" fill="white"/>
</clipPath>
</defs>
</svg>
