<svg width="292" height="380" viewBox="0 0 292 380" fill="none" xmlns="http://www.w3.org/2000/svg">
<g clip-path="url(#clip0_14997_18492)">
<path d="M291.212 336.24L277.954 264.453H36.5307L23.2731 336.24C22.7545 337.648 22.4844 339.066 22.4844 340.517C22.4844 362.316 82.8187 380 157.243 380C231.666 380 292.001 362.327 292.001 340.517C292.001 339.077 291.731 337.648 291.212 336.24Z" fill="#082422" stroke="#082422" stroke-width="0.858832" stroke-miterlimit="10"/>
<path d="M157.243 285.972C223.91 285.972 277.955 271.015 277.955 252.564C277.955 234.114 223.91 219.156 157.243 219.156C90.5758 219.156 36.5312 234.114 36.5312 252.564C36.5312 271.015 90.5758 285.972 157.243 285.972Z" fill="#FF8F5F" stroke="#002522" stroke-width="0.858832" stroke-miterlimit="10"/>
<path d="M157.243 285.972C223.91 285.972 277.955 271.015 277.955 252.564C277.955 234.114 223.91 219.156 157.243 219.156C90.5758 219.156 36.5312 234.114 36.5312 252.564C36.5312 271.015 90.5758 285.972 157.243 285.972Z" stroke="#002522" stroke-width="0.858832" stroke-miterlimit="10"/>
<path d="M247.192 73.015C245.809 60.7023 237.586 50.1763 225.928 46.0612C225.766 46.0071 225.604 45.9529 225.442 45.888C216.668 42.8774 205.636 40.495 192.962 38.8057C172.422 36.0767 151.612 35.9468 130.986 37.9502C118.69 39.1414 104.849 40.9932 95.8049 43.7546C76.1833 49.7431 69.3654 59.9984 67.6583 67.6871C65.9511 75.3758 44.7952 240.575 46.9237 246.986C46.9237 254.425 55.3947 261.291 69.6355 266.771C78.1498 270.323 89.8514 273.571 106.048 275.856C106.491 275.921 106.934 275.976 107.377 276.03C122.352 278.271 139.305 279.538 157.252 279.538C214.377 279.538 261.368 266.717 267.008 250.3C267.246 249.866 267.451 249.401 267.591 248.903C269.72 241.636 247.213 73.0042 247.213 73.0042L247.192 73.015Z" fill="#EB4700" stroke="#002522" stroke-width="0.858832" stroke-miterlimit="10"/>
<path d="M157.243 285.963C90.5772 285.963 36.5312 271.008 36.5312 252.555V264.445C36.5312 282.898 90.5772 297.853 157.243 297.853C223.909 297.853 277.955 282.898 277.955 264.445V252.555C277.955 271.008 223.909 285.963 157.243 285.963Z" fill="#F26629" stroke="#002522" stroke-width="0.858832" stroke-miterlimit="10"/>
<path d="M134.195 75.1505C139.694 73.6236 137.361 70.8838 127.755 69.5951C109.862 66.8229 96.0427 61.5707 90.1541 55.1382C89.7435 55.0732 83.1958 54.1852 80.0299 58.4194C77.1342 62.2963 80.527 64.1589 83.6063 66.3139C93.925 70.6564 109.905 74.0134 128.879 75.692C130.467 75.8327 132.088 75.692 133.633 75.2913C133.817 75.248 134 75.1938 134.184 75.1397L134.195 75.1505Z" fill="white"/>
<path opacity="0.2" d="M157.245 232.691C194.952 232.691 225.521 202.054 225.521 164.262C225.521 126.469 194.952 95.832 157.245 95.832C119.537 95.832 88.9688 126.469 88.9688 164.262C88.9688 202.054 119.537 232.691 157.245 232.691Z" fill="white"/>
<path opacity="0.5" d="M208.72 186.444C220.941 157.948 207.8 124.919 179.369 112.67C150.937 100.422 117.982 113.593 105.761 142.088C93.5399 170.583 106.681 203.613 135.112 215.861C163.544 228.11 196.499 214.939 208.72 186.444Z" fill="white"/>
<path d="M73.3651 84.663L54.6498 243.133C54.5576 243.948 54.8443 244.773 55.4381 245.326C56.9431 246.747 59.39 245.828 59.646 243.76L79.1292 85.4879C79.293 84.193 78.4739 82.9921 77.2351 82.6788L76.4775 82.4804C75.0032 82.1045 73.5494 83.1279 73.3651 84.663Z" fill="white"/>
<path d="M65.0275 120.827C65.2319 120.909 65.3682 120.95 65.45 120.977L41.1802 111.974C41.1121 111.947 40.9622 111.892 40.7578 111.824L65.0275 120.827Z" fill="#E9E9E9" stroke="black" stroke-width="0.858832" stroke-miterlimit="10"/>
<path d="M120.213 11.0359L95.9429 2.0332C112.282 8.08955 122.434 27.0497 119.708 49.4883C116.383 76.81 95.207 98.9621 72.3954 98.9621H41.4075L41.2031 111.975L65.4729 120.978L65.6773 107.965H96.6651C119.477 107.965 140.653 85.8127 143.978 58.4909C146.717 36.0524 136.551 17.0922 120.213 11.0359Z" fill="#E9E9E9" stroke="black" stroke-width="0.858832" stroke-miterlimit="10"/>
<path d="M84.4476 0C107.246 0 123.026 22.1657 119.701 49.4875C116.376 76.8093 95.1993 98.9613 72.3877 98.9613H41.3998L41.1954 111.974C39.7782 111.47 12.8649 101.908 3.39407 75.3497C0.437011 67.8202 -0.707659 58.9676 0.437011 49.4875C3.77563 22.1657 24.952 0 47.75 0H84.4476Z" fill="white" stroke="black" stroke-width="0.858832" stroke-miterlimit="10"/>
<path d="M45.5746 47.4023C47.8776 47.4023 49.4856 49.6394 49.1449 52.422C48.8042 55.2047 46.6648 57.4417 44.3482 57.4417C42.0316 57.4417 40.4236 55.2047 40.7643 52.422C41.105 49.6394 43.2444 47.4023 45.5746 47.4023Z" fill="black"/>
<path d="M61.4887 47.4023C63.7916 47.4023 65.3996 49.6394 65.059 52.422C64.7183 55.2047 62.5788 57.4417 60.2623 57.4417C57.9457 57.4417 56.3377 55.2047 56.6783 52.422C57.019 49.6394 59.1585 47.4023 61.4887 47.4023Z" fill="#6E6E6E"/>
<path d="M77.3897 47.4023C79.7063 47.4023 81.3143 49.6394 80.9736 52.422C80.633 55.2047 78.4935 57.4417 76.1633 57.4417C73.8331 57.4417 72.2524 55.2047 72.593 52.422C72.9337 49.6394 75.0731 47.4023 77.3897 47.4023Z" fill="#BCBCBC"/>
</g>
<defs>
<clipPath id="clip0_14997_18492">
<rect width="292" height="380" fill="white"/>
</clipPath>
</defs>
</svg>
