<svg width="245" height="282" viewBox="0 0 245 282" fill="none" xmlns="http://www.w3.org/2000/svg">
<g clip-path="url(#clip0_15015_18726)">
<path d="M245.258 230.83C245.852 242.293 240.65 255.148 232.973 265.13C225.3 275.106 215.085 282.302 205.599 282.302H46.709C43.7408 282.302 41.1741 281.604 39.0566 280.312V280.311L6.7666 260.715L7.07715 260.201C9.1086 261.431 11.5463 262.104 14.418 262.104H173.307C182.505 262.104 192.565 255.089 200.198 245.167C207.824 235.255 212.958 222.531 212.367 211.249L202.229 17.8545C201.843 10.4381 199.07 5.52374 194.982 3.0293L194.971 3.02246V3.02148H194.97L195.281 2.50879L227.572 22.0879L227.973 22.3389C232.062 25.0169 234.738 30.0637 235.12 37.4014L245.257 230.796L245.258 230.804V230.83Z" fill="#C6B600" stroke="#082422" stroke-width="0.6"/>
<path d="M188.094 -0.299805C192.258 -0.299767 195.916 1.15662 198.605 4.08008C201.292 6.99983 202.986 11.3547 203.286 17.1084L213.42 211.261C214.02 222.772 208.813 235.683 201.133 245.709C193.461 255.724 183.25 262.948 173.776 262.948H14.9521C10.1955 262.948 6.51174 261.128 3.95801 258.023C1.41155 254.928 0.00763867 250.578 -0.254883 245.542C-0.779866 235.47 3.25312 222.558 12.0361 211.094L160.728 16.9414C169.496 5.49242 179.783 -0.299805 188.094 -0.299805Z" fill="#FFEA00" stroke="#082422" stroke-width="0.6"/>
<g opacity="0.15">
<path d="M155.227 88.2236L174.535 99.9658L174.536 99.9668C175.33 100.453 175.797 101.327 175.928 102.38C176.059 103.433 175.86 104.686 175.306 105.993L141.711 185.678C141.09 187.157 140.12 188.456 139.023 189.388C137.931 190.316 136.686 190.902 135.514 190.902H130.15C129.579 190.902 129.079 190.759 128.659 190.508L128.658 190.507L109.336 178.755L109.646 178.241C109.969 178.434 110.361 178.551 110.828 178.551H116.192C117.172 178.551 118.284 178.049 119.313 177.172C120.338 176.299 121.252 175.077 121.837 173.692L155.432 94.0078V94.0068C155.954 92.7744 156.126 91.6279 156.011 90.7021C155.896 89.7766 155.499 89.0927 154.901 88.7266L155.214 88.2148V88.2158C155.218 88.2184 155.222 88.2211 155.227 88.2236Z" fill="#082422" stroke="#082422" stroke-width="0.6"/>
<path d="M117.518 184.609L136.821 196.349L136.824 196.351C137.612 196.84 138.079 197.749 138.223 198.863C138.349 199.84 138.233 201 137.852 202.247L137.672 202.786L133.348 214.89C132.702 216.692 131.633 218.33 130.422 219.521C129.219 220.703 127.833 221.483 126.55 221.483H117.419C116.907 221.483 116.442 221.361 116.056 221.125V221.124L96.7344 209.373L96.8906 209.117L97.0469 208.86C97.3283 209.032 97.6812 209.132 98.0967 209.132H107.229C108.284 209.132 109.526 208.475 110.68 207.341C111.825 206.215 112.845 204.654 113.461 202.936L117.785 190.832H117.786C118.284 189.448 118.436 188.184 118.307 187.181C118.177 186.174 117.771 185.464 117.188 185.11V185.109L117.5 184.597C117.506 184.6 117.512 184.606 117.518 184.609Z" fill="#082422" stroke="#082422" stroke-width="0.6"/>
</g>
<path d="M144.68 82.2744L163.988 94.0166L163.989 94.0176C164.784 94.5041 165.25 95.3776 165.381 96.4307C165.512 97.4834 165.313 98.7373 164.759 100.044L131.164 179.729C130.543 181.208 129.573 182.506 128.477 183.438C127.385 184.367 126.139 184.953 124.967 184.953H119.604C119.032 184.953 118.532 184.81 118.112 184.559L118.111 184.558L98.7891 172.806L99.0996 172.292C99.4221 172.485 99.8136 172.601 100.281 172.602H105.646C106.625 172.602 107.738 172.1 108.767 171.223C109.791 170.35 110.705 169.128 111.29 167.743L144.885 88.0586V88.0576C145.407 86.8252 145.579 85.6787 145.464 84.7529C145.349 83.8273 144.952 83.1434 144.354 82.7773L144.667 82.2656V82.2666C144.671 82.2691 144.676 82.2719 144.68 82.2744Z" fill="#D6D6D6" stroke="#082422" stroke-width="0.6"/>
<path d="M106.971 178.66L126.274 190.399L126.277 190.401C127.066 190.891 127.532 191.8 127.676 192.914C127.802 193.891 127.686 195.051 127.305 196.298L127.125 196.837L122.801 208.94C122.155 210.743 121.086 212.381 119.875 213.571C118.672 214.754 117.286 215.534 116.003 215.534H106.872C106.36 215.534 105.895 215.412 105.509 215.176V215.175L86.1875 203.424L86.3438 203.168L86.5 202.911C86.7815 203.083 87.1343 203.183 87.5498 203.183H96.6816C97.7369 203.183 98.9787 202.526 100.133 201.392C101.279 200.265 102.298 198.705 102.914 196.986L107.238 184.883H107.239C107.738 183.498 107.889 182.235 107.76 181.231C107.63 180.225 107.224 179.515 106.642 179.161V179.16L106.953 178.647C106.959 178.651 106.965 178.656 106.971 178.66Z" fill="#D6D6D6" stroke="#082422" stroke-width="0.6"/>
<path d="M143.179 81.8857C143.846 81.8858 144.425 82.0772 144.89 82.4316C145.353 82.785 145.685 83.2881 145.883 83.8848C146.277 85.0727 146.146 86.6516 145.44 88.3086L111.847 167.993C111.225 169.463 110.255 170.762 109.159 171.696C108.068 172.626 106.822 173.218 105.649 173.218H100.285C99.0889 173.218 98.1911 172.601 97.7256 171.594C97.268 170.604 97.2372 169.263 97.6777 167.79L121.268 88.1064L121.365 87.7959C121.881 86.2492 122.821 84.8285 123.929 83.7715C125.104 82.6496 126.506 81.9043 127.829 81.9043H142.878V81.8857H143.179Z" fill="white" stroke="#082422" stroke-width="0.6"/>
<path d="M105.585 178.292C106.234 178.292 106.795 178.491 107.242 178.862C107.686 179.231 108 179.754 108.188 180.375C108.56 181.612 108.442 183.28 107.798 185.087V185.088L103.473 197.191C102.827 198.994 101.758 200.632 100.547 201.822C99.3439 203.005 97.9591 203.785 96.6758 203.785H87.5439C86.8943 203.785 86.3334 203.584 85.8867 203.212C85.4429 202.842 85.1284 202.318 84.9414 201.695C84.569 200.456 84.6866 198.788 85.3311 196.989L89.6562 184.886L89.7822 184.548C90.4364 182.871 91.4463 181.361 92.582 180.247C93.7855 179.067 95.1704 178.292 96.4531 178.292H105.585Z" fill="white" stroke="#082422" stroke-width="0.6"/>
</g>
<defs>
<clipPath id="clip0_15015_18726">
<rect width="245" height="282" fill="white"/>
</clipPath>
</defs>
</svg>
