<svg width="526" height="533" viewBox="0 0 526 533" fill="none" xmlns="http://www.w3.org/2000/svg">
<g clip-path="url(#clip0_14997_18407)">
<path d="M240.448 229.158L0 368.024L285.551 533L525.999 394.094L240.448 229.158Z" fill="#2BF2F1" stroke="#082422" stroke-width="0.870411"/>
<path d="M240.448 215.41L0 354.276L285.551 519.252L525.999 380.346L240.448 215.41Z" fill="#2BF2F1" stroke="#082422" stroke-width="0.870411"/>
<path d="M0 354.277V368.025L285.551 533.001V519.253L0 354.277Z" fill="#0A9D9C" stroke="#082422" stroke-width="0.870411"/>
<path d="M526.002 380.346V394.094L285.555 532.999V519.251L526.002 380.346Z" fill="#0A9D9C" stroke="#082422" stroke-width="0.870411"/>
<path d="M242.229 228.01L20.75 355.901L283.769 507.842L505.209 379.911L242.229 228.01Z" fill="#2BF2F1" stroke="#082422" stroke-width="0.870411"/>
<path d="M242.229 214.104L20.75 342.035L283.769 493.936L505.209 366.044L242.229 214.104Z" fill="#2BF2F1" stroke="#082422" stroke-width="0.870411"/>
<path d="M20.75 342.035V355.902L283.769 507.842V493.936L20.75 342.035Z" fill="#0A9D9C" stroke="#082422" stroke-width="0.870411"/>
<path d="M505.213 366.045V379.912L283.773 507.843V493.936L505.213 366.045Z" fill="#0A9D9C" stroke="#082422" stroke-width="0.870411"/>
<path d="M491.431 210.775V366.044L368.633 436.963V282.17L491.431 210.775Z" fill="#0A9D9C" stroke="#082422" stroke-width="0.870411"/>
<path d="M242.227 66.8379V222.067L119.43 293.025V138.232L242.227 66.8379Z" fill="#0A9D9C" stroke="#082422" stroke-width="0.870411"/>
<path d="M119.43 138.23L368.629 282.168V436.961L119.43 293.024V138.23Z" fill="#2BF2F1" stroke="#082422" stroke-width="0.870411"/>
<path d="M242.227 66.8379L491.426 210.775L368.629 282.17L119.43 138.232L242.227 66.8379Z" fill="#0A9D9C" stroke="#082422" stroke-width="0.870411"/>
<path d="M45.9141 339.894V333.674C45.9141 338.032 48.7256 342.39 54.3883 345.758C65.8722 352.612 84.7611 352.81 96.5617 346.194C102.581 342.826 105.59 338.349 105.59 333.832V340.053C105.59 344.569 102.541 349.046 96.5221 352.414C84.7214 359.03 65.8325 358.872 54.3487 351.978C48.686 348.61 45.9141 344.252 45.9141 339.894Z" fill="#0A9D9C" stroke="#082422" stroke-width="0.870411"/>
<path d="M71.9717 313.311C72.9346 313.231 76.33 312.99 80.3271 313.39L80.3262 313.391C80.9065 313.433 82.5012 313.594 84.4492 313.992H84.4521C85.5908 314.232 86.5694 314.482 87.2725 314.672C87.6238 314.766 87.9073 314.846 88.1055 314.902C88.2051 314.93 88.281 314.95 88.334 314.965C88.3476 314.968 88.3592 314.971 88.3682 314.973H88.3867L88.4482 314.992C96.2578 317.344 104.799 322.775 105.94 332.035L105.944 332.061V332.114C106.283 335.008 105.708 337.652 104.179 340.067C102.649 342.483 100.18 344.646 96.7764 346.609L96.7725 346.612C90.7907 349.966 83.0385 351.581 75.3496 351.502C67.661 351.422 59.9869 349.646 54.1631 346.171L54.1621 346.17C48.4598 342.754 45.5157 338.276 45.5156 333.713C45.5157 326.722 50.3742 321.094 56.1934 317.841C58.339 316.61 60.3915 315.78 62.6631 315.084L63.6523 314.792C67.3766 313.71 70.6187 313.43 71.9697 313.311H71.9717ZM76.0703 316.635C70.8607 316.586 65.6437 317.695 61.6465 319.947C57.6452 322.201 55.6952 325.116 55.626 327.959C55.5572 330.797 57.3606 333.743 61.2598 336.072L61.2607 336.073C65.1382 338.4 70.2948 339.607 75.5049 339.656C80.7145 339.705 85.9316 338.596 89.9287 336.344C93.9296 334.09 95.8798 331.176 95.9492 328.334C96.0183 325.495 94.2148 322.549 90.3154 320.219L90.3145 320.218C86.437 317.891 81.2805 316.684 76.0703 316.635Z" fill="#0A9D9C"/>
<path d="M71.9717 313.311V313.746H71.9898L72.0078 313.745L71.9717 313.311ZM80.3271 313.39L80.6349 313.698L81.2842 313.049L80.3705 312.957L80.3271 313.39ZM80.3262 313.391L80.0184 313.084L79.3455 313.757L80.2947 313.825L80.3262 313.391ZM84.4492 313.992L84.3622 314.418L84.4052 314.427H84.4492V313.992ZM84.4521 313.992L84.5418 313.566L84.4975 313.557H84.4521V313.992ZM87.2725 314.672L87.3858 314.251V314.251L87.2725 314.672ZM88.1055 314.902L87.9879 315.321L87.9879 315.321L88.1055 314.902ZM88.334 314.965L88.222 315.385L88.222 315.385L88.334 314.965ZM88.3682 314.973L88.2611 315.395L88.3138 315.409H88.3682V314.973ZM88.3867 314.973L88.5124 314.557L88.4509 314.538H88.3867V314.973ZM88.4482 314.992L88.3226 315.409L88.3227 315.409L88.4482 314.992ZM105.94 332.035L105.508 332.088L105.51 332.099L105.94 332.035ZM105.944 332.061H106.38V332.029L106.375 331.997L105.944 332.061ZM105.944 332.114H105.509V332.139L105.512 332.165L105.944 332.114ZM104.179 340.067L104.546 340.3L104.546 340.3L104.179 340.067ZM96.7764 346.609L96.5589 346.232L96.5362 346.245L96.5152 346.261L96.7764 346.609ZM96.7725 346.612L96.9853 346.992L97.0105 346.977L97.0336 346.96L96.7725 346.612ZM75.3496 351.502L75.3451 351.937H75.3451L75.3496 351.502ZM54.1631 346.171L53.8553 346.478L53.8936 346.517L53.94 346.544L54.1631 346.171ZM54.1621 346.17L54.4698 345.862L54.4318 345.824L54.3857 345.796L54.1621 346.17ZM45.5156 333.713L45.0804 333.713V333.713L45.5156 333.713ZM56.1934 317.841L56.4057 318.221L56.41 318.219L56.1934 317.841ZM62.6631 315.084L62.5399 314.666L62.5355 314.668L62.6631 315.084ZM63.6523 314.792L63.531 314.374L63.5291 314.374L63.6523 314.792ZM71.9697 313.311V312.876H71.9506L71.9315 312.878L71.9697 313.311ZM76.0703 316.635L76.0744 316.2H76.0744L76.0703 316.635ZM61.6465 319.947L61.4329 319.568L61.4329 319.568L61.6465 319.947ZM55.626 327.959L55.1909 327.948L55.1909 327.948L55.626 327.959ZM61.2598 336.072L61.5675 335.764L61.5293 335.726L61.4829 335.698L61.2598 336.072ZM61.2607 336.073L60.953 336.381L60.9909 336.419L61.0368 336.446L61.2607 336.073ZM75.5049 339.656L75.5008 340.091H75.5008L75.5049 339.656ZM89.9287 336.344L90.1423 336.724L90.1423 336.724L89.9287 336.344ZM95.9492 328.334L96.3843 328.344L96.3843 328.344L95.9492 328.334ZM90.3154 320.219L90.0077 320.527L90.0459 320.565L90.0922 320.593L90.3154 320.219ZM90.3145 320.218L90.6222 319.911L90.5843 319.873L90.5384 319.845L90.3145 320.218ZM71.9717 313.311L72.0078 313.745C72.9586 313.666 76.3244 313.427 80.2838 313.823L80.3271 313.39L80.3705 312.957C76.3357 312.554 72.9106 312.796 71.9355 312.878L71.9717 313.311ZM80.3271 313.39L80.0194 313.083L80.0184 313.084L80.3262 313.391L80.6339 313.699L80.6349 313.698L80.3271 313.39ZM80.3262 313.391L80.2947 313.825C80.8591 313.866 82.4349 314.025 84.3622 314.418L84.4492 313.992L84.5363 313.565C82.5674 313.163 80.9539 313 80.3576 312.957L80.3262 313.391ZM84.4492 313.992V314.427H84.4521V313.992V313.557H84.4492V313.992ZM84.4521 313.992L84.3624 314.418C85.4908 314.655 86.4611 314.904 87.1592 315.092L87.2725 314.672L87.3858 314.251C86.6776 314.06 85.6908 313.808 84.5418 313.566L84.4521 313.992ZM87.2725 314.672L87.1592 315.092C87.5079 315.186 87.7891 315.265 87.9879 315.321L88.1055 314.902L88.223 314.483C88.0255 314.428 87.7397 314.347 87.3858 314.251L87.2725 314.672ZM88.1055 314.902L87.9879 315.321C88.0898 315.35 88.1677 315.371 88.222 315.385L88.334 314.965L88.446 314.544C88.3943 314.53 88.3203 314.51 88.223 314.483L88.1055 314.902ZM88.334 314.965L88.222 315.385C88.2388 315.39 88.2542 315.393 88.2611 315.395L88.3682 314.973L88.4752 314.551C88.4643 314.549 88.4564 314.547 88.446 314.544L88.334 314.965ZM88.3682 314.973V315.409H88.3867V314.973V314.538H88.3682V314.973ZM88.3867 314.973L88.2611 315.39L88.3226 315.409L88.4482 314.992L88.5739 314.575L88.5124 314.557L88.3867 314.973ZM88.4482 314.992L88.3227 315.409C96.0843 317.746 104.4 323.095 105.508 332.088L105.94 332.035L106.372 331.982C105.198 322.456 96.4313 316.942 88.5737 314.575L88.4482 314.992ZM105.94 332.035L105.51 332.099L105.514 332.125L105.944 332.061L106.375 331.997L106.371 331.971L105.94 332.035ZM105.944 332.061H105.509V332.114H105.944H106.38V332.061H105.944ZM105.944 332.114L105.512 332.165C105.84 334.963 105.285 337.507 103.811 339.834L104.179 340.067L104.546 340.3C106.131 337.797 106.726 335.052 106.377 332.063L105.944 332.114ZM104.179 340.067L103.811 339.834C102.331 342.172 99.9247 344.291 96.5589 346.232L96.7764 346.609L96.9938 346.986C100.434 345.002 102.966 342.795 104.546 340.3L104.179 340.067ZM96.7764 346.609L96.5152 346.261L96.5113 346.264L96.7725 346.612L97.0336 346.96L97.0375 346.957L96.7764 346.609ZM96.7725 346.612L96.5596 346.232C90.6594 349.54 82.9866 351.146 75.3541 351.066L75.3496 351.502L75.3451 351.937C83.0904 352.017 90.9219 350.391 96.9853 346.992L96.7725 346.612ZM75.3496 351.502L75.3541 351.066C67.7216 350.987 60.1279 349.224 54.3861 345.797L54.1631 346.171L53.94 346.544C59.8459 350.069 67.6004 351.856 75.3451 351.937L75.3496 351.502ZM54.1631 346.171L54.4708 345.863L54.4698 345.862L54.1621 346.17L53.8544 346.477L53.8553 346.478L54.1631 346.171ZM54.1621 346.17L54.3857 345.796C48.7627 342.429 45.9509 338.07 45.9508 333.713L45.5156 333.713L45.0804 333.713C45.0805 338.481 48.1569 343.08 53.9385 346.543L54.1621 346.17ZM45.5156 333.713L45.9508 333.713C45.9509 326.938 50.6637 321.431 56.4057 318.221L56.1934 317.841L55.981 317.462C50.0846 320.757 45.0805 326.505 45.0804 333.713L45.5156 333.713ZM56.1934 317.841L56.41 318.219C58.5222 317.007 60.5438 316.189 62.7907 315.5L62.6631 315.084L62.5355 314.668C60.2392 315.372 58.1557 316.214 55.9768 317.464L56.1934 317.841ZM62.6631 315.084L62.7863 315.501L63.7755 315.209L63.6523 314.792L63.5291 314.374L62.5399 314.666L62.6631 315.084ZM63.6523 314.792L63.7737 315.21C67.455 314.141 70.6618 313.864 72.008 313.745L71.9697 313.311L71.9315 312.878C70.5757 312.997 67.2981 313.28 63.531 314.374L63.6523 314.792ZM71.9697 313.311V313.746H71.9717V313.311V312.876H71.9697V313.311ZM76.0703 316.635L76.0744 316.2C70.8079 316.151 65.5115 317.27 61.4329 319.568L61.6465 319.947L61.8601 320.326C65.7758 318.12 70.9135 317.022 76.0662 317.071L76.0703 316.635ZM61.6465 319.947L61.4329 319.568C57.3538 321.866 55.2651 324.898 55.1909 327.948L55.626 327.959L56.0611 327.969C56.1252 325.335 57.9366 322.537 61.8601 320.326L61.6465 319.947ZM55.626 327.959L55.1909 327.948C55.117 330.998 57.0572 334.068 61.0366 336.446L61.2598 336.072L61.4829 335.698C57.664 333.417 55.9974 330.596 56.0611 327.969L55.626 327.959ZM61.2598 336.072L60.952 336.38L60.953 336.381L61.2607 336.073L61.5685 335.765L61.5675 335.764L61.2598 336.072ZM61.2607 336.073L61.0368 336.446C64.9966 338.823 70.2342 340.042 75.5008 340.091L75.5049 339.656L75.509 339.221C70.3554 339.172 65.2798 337.978 61.4847 335.7L61.2607 336.073ZM75.5049 339.656L75.5008 340.091C80.7673 340.141 86.0638 339.021 90.1423 336.724L89.9287 336.344L89.7151 335.965C85.7994 338.171 80.6617 339.269 75.509 339.221L75.5049 339.656ZM89.9287 336.344L90.1423 336.724C94.2209 334.426 96.3097 331.395 96.3843 328.344L95.9492 328.334L95.5141 328.323C95.4498 330.957 93.6383 333.755 89.7151 335.965L89.9287 336.344ZM95.9492 328.334L96.3843 328.344C96.4585 325.294 94.5182 322.223 90.5386 319.846L90.3154 320.219L90.0922 320.593C93.9113 322.874 95.5781 325.696 95.5141 328.323L95.9492 328.334ZM90.3154 320.219L90.6232 319.912L90.6222 319.911L90.3145 320.218L90.0067 320.526L90.0077 320.527L90.3154 320.219ZM90.3145 320.218L90.5384 319.845C86.5786 317.468 81.341 316.25 76.0744 316.2L76.0703 316.635L76.0662 317.071C81.2199 317.119 86.2955 318.313 90.0905 320.592L90.3145 320.218Z" fill="#082422"/>
<path d="M96.3564 328.01C96.2772 325.078 94.3368 322.146 90.5352 319.888C82.6154 315.134 69.5872 315.015 61.4297 319.611L61.5485 314.579C69.6268 310.023 82.5758 310.181 90.4165 314.856C94.1784 317.115 96.1188 320.007 96.198 322.939C96.2376 324.642 96.2772 326.346 96.3564 328.05V328.01Z" fill="#0A9D9C" stroke="#082422" stroke-width="0.870411"/>
<path d="M55.3693 322.78C55.4881 319.769 57.5473 316.797 61.5468 314.539L61.428 319.571C57.3889 321.829 55.2901 324.84 55.2109 327.891C55.2505 326.187 55.3297 324.484 55.3693 322.78Z" fill="#0A9D9C" stroke="#082422" stroke-width="0.870411"/>
<path d="M55.1776 327.892C55.2172 326.189 55.2964 324.485 55.3359 322.781C55.2172 325.832 57.1576 328.922 61.1175 331.26C68.9978 335.975 81.9071 336.093 89.9854 331.537C94.183 329.16 96.2818 326.03 96.163 322.86C96.163 323.098 96.163 323.376 96.163 323.613C96.163 323.692 96.163 323.811 96.163 323.851C96.163 324.366 96.163 324.881 96.2026 325.396C96.2026 326.228 96.2421 327.1 96.2817 327.932C96.3609 331.101 94.3018 334.31 90.0646 336.688C81.9072 341.284 68.879 341.125 60.9591 336.41C56.9596 334.033 55.0192 330.903 55.138 327.853L55.1776 327.892Z" fill="#2BF2F1" stroke="#082422" stroke-width="0.870411"/>
<path d="M58.5087 331.536C51.262 327.337 47.5396 319.254 52.5687 311.766C53.8359 309.944 55.5387 308.359 57.3603 307.091C57.8355 306.774 58.5483 306.338 59.0631 306.061C59.6966 305.704 60.5679 305.784 61.5182 306.338C53.3608 310.895 53.2024 318.462 61.1223 323.177C69.0421 327.891 82.0307 328.05 90.1882 323.454C98.3456 318.898 98.504 311.33 90.5842 306.616C82.6643 301.901 69.6757 301.742 61.5182 306.338C60.5679 305.784 59.6966 305.704 59.0631 306.061C68.5669 300.831 81.9515 300.831 91.4554 305.506C98.8209 309.072 103.771 316.441 100.167 324.286C97.9101 328.803 94.3461 331.259 89.713 333.28C81.3179 336.925 67.4977 337.004 58.5087 331.497V331.536Z" fill="#0A9D9C"/>
<path d="M59.0631 306.061C58.5483 306.338 57.8355 306.774 57.3603 307.091C55.5387 308.359 53.8359 309.944 52.5687 311.766C47.5396 319.254 51.262 327.337 58.5087 331.536V331.497C67.4977 337.004 81.3179 336.925 89.713 333.28C94.3461 331.259 97.9101 328.803 100.167 324.286C103.771 316.441 98.8209 309.072 91.4554 305.506C81.9515 300.831 68.5669 300.831 59.0631 306.061ZM59.0631 306.061C59.6966 305.704 60.5679 305.784 61.5182 306.338M61.5182 306.338C53.3608 310.895 53.2024 318.462 61.1223 323.177C69.0421 327.891 82.0307 328.05 90.1882 323.454C98.3456 318.898 98.504 311.33 90.5842 306.616C82.6643 301.901 69.6757 301.742 61.5182 306.338Z" stroke="#082422" stroke-width="0.870411"/>
<path d="M96.324 314.261C96.0468 311.487 94.1065 308.793 90.5425 306.654C82.6226 301.939 69.634 301.781 61.4766 306.376L61.8726 301.305C69.7924 296.868 82.4642 296.987 90.1861 301.582C93.6709 303.682 95.5321 306.297 95.8093 308.991C95.9677 310.735 96.1656 312.517 96.324 314.261Z" fill="#0A9D9C" stroke="#082422" stroke-width="0.870411"/>
<path d="M55.8513 308.871C56.1285 306.097 58.148 303.364 61.8704 301.264L61.4744 306.335C57.6728 308.474 55.5741 311.287 55.2969 314.14C55.4949 312.397 55.6533 310.614 55.8513 308.871Z" fill="#0A9D9C" stroke="#082422" stroke-width="0.870411"/>
<path d="M55.2993 314.14C55.4973 312.397 55.6557 310.614 55.8537 308.871C55.5369 312.001 57.3981 315.25 61.4768 317.667C69.1987 322.262 81.8705 322.421 89.7904 317.944C94.1463 315.527 96.1263 312.199 95.8095 308.95C95.9679 310.694 96.1659 312.476 96.3243 314.22C96.6411 317.548 94.5819 320.955 90.1468 323.451C81.9893 328.007 69.0007 327.888 61.0808 323.174C56.8833 320.678 54.9429 317.35 55.2993 314.14Z" fill="#2BF2F1" stroke="#082422" stroke-width="0.870411"/>
<path d="M89.6256 309.745C81.7849 314.143 69.2715 314.024 61.6684 309.468C54.0653 304.912 54.2237 297.661 62.0644 293.263C69.9051 288.866 82.4185 288.985 90.0216 293.541C97.6247 298.097 97.4663 305.347 89.6256 309.745ZM90.576 293.224C82.6561 288.509 69.6675 288.351 61.51 292.946C53.3526 297.503 53.1942 305.07 61.1141 309.785C69.0339 314.499 82.0225 314.658 90.18 310.062C98.3374 305.506 98.4958 297.939 90.576 293.224Z" fill="#0A9D9C" stroke="#082422" stroke-width="0.870411"/>
<path d="M58.5386 318.144C51.9651 314.34 48.2427 307.248 51.4899 300.275C52.5194 297.898 55.0934 295.164 57.3902 293.699C57.8654 293.382 58.5781 292.946 59.0929 292.668C59.7265 292.312 60.5977 292.391 61.5481 292.946C53.3906 297.502 53.2322 305.069 61.1521 309.784C69.072 314.499 82.0606 314.657 90.2181 310.061C98.3756 305.505 98.534 297.938 90.6141 293.223C82.6942 288.508 69.7056 288.35 61.5481 292.946C60.5977 292.391 59.7265 292.312 59.0929 292.668C68.5968 287.439 81.9814 287.439 91.4852 292.114C98.8507 295.679 103.801 303.049 100.197 310.893C97.9399 315.41 94.376 317.866 89.7429 319.927C81.3082 323.572 67.5672 323.651 58.5386 318.183V318.144Z" fill="#0A9D9C"/>
<path d="M59.0929 292.668C58.5781 292.946 57.8654 293.382 57.3902 293.699C55.0934 295.164 52.5194 297.898 51.4899 300.275C48.2427 307.248 51.9651 314.34 58.5386 318.144V318.183C67.5672 323.651 81.3082 323.572 89.7429 319.927C94.376 317.866 97.9399 315.41 100.197 310.893C103.801 303.049 98.8507 295.679 91.4852 292.114C81.9814 287.439 68.5968 287.439 59.0929 292.668ZM59.0929 292.668C59.7265 292.312 60.5977 292.391 61.5481 292.946M61.5481 292.946C53.3906 297.502 53.2322 305.069 61.1521 309.784C69.072 314.499 82.0606 314.657 90.2181 310.061C98.3756 305.505 98.534 297.938 90.6141 293.223C82.6942 288.508 69.7056 288.35 61.5481 292.946Z" stroke="#082422" stroke-width="0.870411"/>
<path d="M56.0835 301.227C57.1527 269.452 58.2218 219.848 59.291 188.113C59.2118 190.609 60.7958 193.145 64.0429 195.126C70.5372 199.009 81.1895 199.088 87.8422 195.364C91.2874 193.422 93.0297 190.807 92.9505 188.232C93.8217 220.007 94.7325 269.61 95.6037 301.385C95.6829 304.436 93.7029 307.487 89.6242 309.785C81.7835 314.182 69.2701 314.063 61.667 309.507C57.8258 307.209 55.9647 304.238 56.0835 301.306V301.227Z" fill="#2BF2F1" stroke="#082422" stroke-width="0.870411"/>
<path d="M61.3013 172.198C69.6545 167.566 82.0261 167.378 90.8091 172.131L91.2252 172.361L91.2281 172.363C96.846 175.618 99.3993 180.389 99.0425 185.075C98.6864 189.752 95.442 194.219 89.731 196.904C81.2566 200.922 69.3035 200.888 60.814 195.936V195.936C57.5525 194.07 54.9994 191.231 53.856 187.953C52.7078 184.661 52.9922 180.952 55.3658 177.41L55.3677 177.407C56.5135 175.729 58.1009 174.266 59.7584 173.134L59.7701 173.125C60.0672 172.936 60.4103 172.7 60.7017 172.521C60.8936 172.404 61.0931 172.293 61.3013 172.198Z" fill="#0A9D9C"/>
<path d="M61.3013 172.198L61.481 172.595L61.497 172.587L61.5124 172.579L61.3013 172.198ZM90.8091 172.131L91.0201 171.75L91.0163 171.748L90.8091 172.131ZM91.2252 172.361L91.4666 171.999L91.4517 171.989L91.4361 171.981L91.2252 172.361ZM91.2281 172.363L90.9867 172.725L90.9981 172.733L91.0099 172.74L91.2281 172.363ZM99.0425 185.075L99.4765 185.108V185.108L99.0425 185.075ZM89.731 196.904L89.5458 196.51L89.5446 196.511L89.731 196.904ZM60.814 195.936H60.3788V196.186L60.5948 196.312L60.814 195.936ZM60.814 195.936H61.2492V195.683L61.0301 195.558L60.814 195.936ZM53.856 187.953L53.4451 188.096L53.4451 188.096L53.856 187.953ZM55.3658 177.41L55.7273 177.652L55.7279 177.652L55.3658 177.41ZM55.3677 177.407L55.0083 177.162L55.0056 177.166L55.3677 177.407ZM59.7584 173.134L60.0039 173.493L60.0118 173.488L60.0195 173.482L59.7584 173.134ZM59.7701 173.125L59.5363 172.758L59.5223 172.767L59.509 172.777L59.7701 173.125ZM60.7017 172.521L60.474 172.151L60.474 172.151L60.7017 172.521ZM61.3013 172.198L61.5124 172.579C69.7362 168.018 81.9502 167.832 90.602 172.514L90.8091 172.131L91.0163 171.748C82.1021 166.924 69.5728 167.114 61.0903 171.818L61.3013 172.198ZM90.8091 172.131L90.5982 172.512L91.0143 172.742L91.2252 172.361L91.4361 171.981L91.02 171.75L90.8091 172.131ZM91.2252 172.361L90.9838 172.723L90.9867 172.725L91.2281 172.363L91.4695 172.001L91.4666 171.999L91.2252 172.361ZM91.2281 172.363L91.0099 172.74C96.5144 175.929 98.9501 180.555 98.6086 185.042L99.0425 185.075L99.4765 185.108C99.8484 180.222 97.1777 175.308 91.4463 171.987L91.2281 172.363ZM99.0425 185.075L98.6086 185.042C98.2669 189.528 95.1485 193.876 89.5458 196.51L89.731 196.904L89.9162 197.298C95.7354 194.562 99.1058 189.975 99.4765 185.108L99.0425 185.075ZM89.731 196.904L89.5446 196.511C81.1891 200.473 69.3886 200.434 61.0333 195.561L60.814 195.936L60.5948 196.312C69.2184 201.342 81.3242 201.372 89.9175 197.297L89.731 196.904ZM60.814 195.936H61.2492V195.936H60.814H60.3788V195.936H60.814ZM60.814 195.936L61.0301 195.558C57.8442 193.735 55.3703 190.973 54.2669 187.81L53.856 187.953L53.4451 188.096C54.6284 191.489 57.2607 194.404 60.5979 196.313L60.814 195.936ZM53.856 187.953L54.267 187.81C53.1633 184.645 53.4307 181.079 55.7273 177.652L55.3658 177.41L55.0043 177.168C52.5538 180.824 52.2523 184.676 53.4451 188.096L53.856 187.953ZM55.3658 177.41L55.7279 177.652L55.7299 177.649L55.3677 177.407L55.0056 177.166L55.0037 177.169L55.3658 177.41ZM55.3677 177.407L55.7272 177.653C56.8358 176.028 58.3804 174.602 60.0039 173.493L59.7584 173.134L59.5128 172.774C57.8214 173.93 56.1912 175.429 55.0083 177.162L55.3677 177.407ZM59.7584 173.134L60.0195 173.482L60.0312 173.473L59.7701 173.125L59.509 172.777L59.4972 172.786L59.7584 173.134ZM59.7701 173.125L60.0038 173.492C60.3265 173.287 60.6351 173.073 60.9295 172.892L60.7017 172.521L60.474 172.151C60.1854 172.328 59.8079 172.585 59.5363 172.758L59.7701 173.125ZM60.7017 172.521L60.9295 172.892C61.111 172.781 61.294 172.679 61.481 172.595L61.3013 172.198L61.1216 171.802C60.8922 171.906 60.6762 172.026 60.474 172.151L60.7017 172.521Z" fill="#082422"/>
<path d="M115.977 380.349V374.129C115.977 378.487 118.788 382.845 124.451 386.213C135.935 393.067 154.824 393.265 166.624 386.649C172.643 383.281 175.653 378.804 175.653 374.287V380.508C175.653 385.024 172.604 389.501 166.585 392.869C154.784 399.485 135.895 399.327 124.411 392.433C118.748 389.065 115.977 384.707 115.977 380.349Z" fill="#0A9D9C" stroke="#082422" stroke-width="0.870411"/>
<path d="M142.034 353.766C142.997 353.686 146.393 353.446 150.39 353.845L150.389 353.846C150.969 353.888 152.564 354.049 154.512 354.447H154.515C155.653 354.687 156.632 354.937 157.335 355.127C157.686 355.221 157.97 355.302 158.168 355.357C158.268 355.385 158.344 355.406 158.396 355.42C158.41 355.423 158.422 355.426 158.431 355.428H158.449L158.511 355.447C166.32 357.799 174.861 363.23 176.003 372.49L176.007 372.516V372.569C176.345 375.463 175.77 378.107 174.241 380.522C172.711 382.938 170.242 385.101 166.839 387.064L166.835 387.067C160.853 390.421 153.101 392.036 145.412 391.957C137.723 391.877 130.049 390.102 124.226 386.626L124.225 386.625C118.522 383.21 115.578 378.731 115.578 374.168C115.578 367.177 120.437 361.549 126.256 358.297C128.401 357.065 130.454 356.236 132.726 355.539L133.715 355.247C137.439 354.165 140.681 353.886 142.032 353.766H142.034ZM146.133 357.091C140.923 357.042 135.706 358.15 131.709 360.402C127.708 362.656 125.758 365.571 125.688 368.414C125.62 371.252 127.423 374.198 131.322 376.527L131.323 376.528C135.201 378.856 140.357 380.062 145.567 380.111C150.777 380.16 155.994 379.051 159.991 376.799C163.992 374.545 165.942 371.631 166.012 368.789C166.081 365.95 164.277 363.004 160.378 360.674L160.377 360.674C156.5 358.346 151.343 357.14 146.133 357.091Z" fill="#0A9D9C"/>
<path d="M142.034 353.766V354.201H142.052L142.07 354.2L142.034 353.766ZM150.39 353.845L150.697 354.153L151.347 353.504L150.433 353.412L150.39 353.845ZM150.389 353.846L150.081 353.539L149.408 354.212L150.357 354.28L150.389 353.846ZM154.512 354.447L154.425 354.873L154.468 354.882H154.512V354.447ZM154.515 354.447L154.604 354.021L154.56 354.012H154.515V354.447ZM157.335 355.127L157.448 354.706V354.706L157.335 355.127ZM158.168 355.357L158.05 355.776L158.05 355.776L158.168 355.357ZM158.396 355.42L158.284 355.84L158.285 355.84L158.396 355.42ZM158.431 355.428L158.324 355.85L158.376 355.864H158.431V355.428ZM158.449 355.428L158.575 355.012L158.513 354.993H158.449V355.428ZM158.511 355.447L158.385 355.864L158.385 355.864L158.511 355.447ZM176.003 372.49L175.571 372.543L175.572 372.554L176.003 372.49ZM176.007 372.516H176.442V372.484L176.437 372.453L176.007 372.516ZM176.007 372.569H175.572V372.594L175.575 372.62L176.007 372.569ZM174.241 380.522L174.609 380.755L174.609 380.755L174.241 380.522ZM166.839 387.064L166.621 386.687L166.599 386.7L166.578 386.716L166.839 387.064ZM166.835 387.067L167.048 387.447L167.073 387.433L167.096 387.415L166.835 387.067ZM145.412 391.957L145.408 392.392H145.408L145.412 391.957ZM124.226 386.626L123.918 386.933L123.956 386.972L124.003 386.999L124.226 386.626ZM124.225 386.625L124.532 386.317L124.494 386.279L124.448 386.251L124.225 386.625ZM115.578 374.168L115.143 374.168V374.168L115.578 374.168ZM126.256 358.297L126.468 358.676L126.472 358.674L126.256 358.297ZM132.726 355.539L132.602 355.121L132.598 355.123L132.726 355.539ZM133.715 355.247L133.593 354.829L133.592 354.829L133.715 355.247ZM142.032 353.766V353.331H142.013L141.994 353.333L142.032 353.766ZM146.133 357.091L146.137 356.655H146.137L146.133 357.091ZM131.709 360.402L131.495 360.023L131.495 360.023L131.709 360.402ZM125.688 368.414L125.253 368.403L125.253 368.403L125.688 368.414ZM131.322 376.527L131.63 376.219L131.592 376.181L131.545 376.153L131.322 376.527ZM131.323 376.528L131.016 376.836L131.053 376.874L131.099 376.901L131.323 376.528ZM145.567 380.111L145.563 380.546H145.563L145.567 380.111ZM159.991 376.799L160.205 377.179L160.205 377.179L159.991 376.799ZM166.012 368.789L166.447 368.799L166.447 368.799L166.012 368.789ZM160.378 360.674L160.07 360.982L160.108 361.02L160.155 361.048L160.378 360.674ZM160.377 360.674L160.685 360.366L160.647 360.328L160.601 360.3L160.377 360.674ZM142.034 353.766L142.07 354.2C143.021 354.121 146.387 353.882 150.346 354.278L150.39 353.845L150.433 353.412C146.398 353.009 142.973 353.251 141.998 353.333L142.034 353.766ZM150.39 353.845L150.082 353.538L150.081 353.539L150.389 353.846L150.696 354.154L150.697 354.153L150.39 353.845ZM150.389 353.846L150.357 354.28C150.922 354.321 152.497 354.48 154.425 354.873L154.512 354.447L154.599 354.021C152.63 353.619 151.016 353.456 150.42 353.412L150.389 353.846ZM154.512 354.447V354.882H154.515V354.447V354.012H154.512V354.447ZM154.515 354.447L154.425 354.873C155.553 355.11 156.524 355.359 157.222 355.547L157.335 355.127L157.448 354.706C156.74 354.516 155.753 354.263 154.604 354.021L154.515 354.447ZM157.335 355.127L157.222 355.547C157.57 355.641 157.852 355.72 158.05 355.776L158.168 355.357L158.286 354.938C158.088 354.883 157.802 354.802 157.448 354.706L157.335 355.127ZM158.168 355.357L158.05 355.776C158.152 355.805 158.23 355.826 158.284 355.84L158.396 355.42L158.508 354.999C158.457 354.985 158.383 354.965 158.286 354.938L158.168 355.357ZM158.396 355.42L158.285 355.84C158.301 355.845 158.317 355.848 158.324 355.85L158.431 355.428L158.538 355.007C158.527 355.004 158.519 355.002 158.508 354.999L158.396 355.42ZM158.431 355.428V355.864H158.449V355.428V354.993H158.431V355.428ZM158.449 355.428L158.324 355.845L158.385 355.864L158.511 355.447L158.636 355.03L158.575 355.012L158.449 355.428ZM158.511 355.447L158.385 355.864C166.147 358.201 174.462 363.55 175.571 372.543L176.003 372.49L176.435 372.437C175.26 362.911 166.494 357.397 158.636 355.03L158.511 355.447ZM176.003 372.49L175.572 372.554L175.576 372.58L176.007 372.516L176.437 372.453L176.433 372.426L176.003 372.49ZM176.007 372.516H175.572V372.569H176.007H176.442V372.516H176.007ZM176.007 372.569L175.575 372.62C175.902 375.418 175.347 377.962 173.874 380.289L174.241 380.522L174.609 380.755C176.194 378.252 176.789 375.507 176.439 372.518L176.007 372.569ZM174.241 380.522L173.874 380.289C172.394 382.627 169.987 384.746 166.621 386.687L166.839 387.064L167.056 387.441C170.497 385.457 173.029 383.25 174.609 380.755L174.241 380.522ZM166.839 387.064L166.578 386.716L166.574 386.719L166.835 387.067L167.096 387.415L167.1 387.412L166.839 387.064ZM166.835 387.067L166.622 386.687C160.722 389.996 153.049 391.601 145.417 391.522L145.412 391.957L145.408 392.392C153.153 392.472 160.984 390.846 167.048 387.447L166.835 387.067ZM145.412 391.957L145.417 391.522C137.784 391.442 130.19 389.679 124.449 386.252L124.226 386.626L124.003 386.999C129.908 390.524 137.663 392.311 145.408 392.392L145.412 391.957ZM124.226 386.626L124.533 386.318L124.532 386.317L124.225 386.625L123.917 386.932L123.918 386.933L124.226 386.626ZM124.225 386.625L124.448 386.251C118.825 382.884 116.013 378.525 116.013 374.168L115.578 374.168L115.143 374.168C115.143 378.936 118.219 383.535 124.001 386.998L124.225 386.625ZM115.578 374.168L116.013 374.168C116.013 367.393 120.726 361.886 126.468 358.676L126.256 358.297L126.044 357.917C120.147 361.212 115.143 366.96 115.143 374.168L115.578 374.168ZM126.256 358.297L126.472 358.674C128.585 357.462 130.606 356.644 132.853 355.955L132.726 355.539L132.598 355.123C130.302 355.827 128.218 356.669 126.039 357.919L126.256 358.297ZM132.726 355.539L132.849 355.956L133.838 355.664L133.715 355.247L133.592 354.829L132.602 355.121L132.726 355.539ZM133.715 355.247L133.836 355.665C137.517 354.596 140.724 354.319 142.07 354.2L142.032 353.766L141.994 353.333C140.638 353.452 137.361 353.735 133.593 354.829L133.715 355.247ZM142.032 353.766V354.201H142.034V353.766V353.331H142.032V353.766ZM146.133 357.091L146.137 356.655C140.87 356.606 135.574 357.725 131.495 360.023L131.709 360.402L131.923 360.781C135.838 358.575 140.976 357.477 146.129 357.526L146.133 357.091ZM131.709 360.402L131.495 360.023C127.416 362.321 125.328 365.353 125.253 368.403L125.688 368.414L126.124 368.424C126.188 365.79 127.999 362.992 131.923 360.781L131.709 360.402ZM125.688 368.414L125.253 368.403C125.179 371.453 127.12 374.524 131.099 376.901L131.322 376.527L131.545 376.153C127.726 373.872 126.06 371.052 126.124 368.424L125.688 368.414ZM131.322 376.527L131.015 376.835L131.016 376.836L131.323 376.528L131.631 376.22L131.63 376.219L131.322 376.527ZM131.323 376.528L131.099 376.901C135.059 379.278 140.297 380.497 145.563 380.546L145.567 380.111L145.571 379.676C140.418 379.627 135.342 378.433 131.547 376.155L131.323 376.528ZM145.567 380.111L145.563 380.546C150.83 380.596 156.126 379.476 160.205 377.179L159.991 376.799L159.778 376.42C155.862 378.626 150.724 379.724 145.571 379.676L145.567 380.111ZM159.991 376.799L160.205 377.179C164.283 374.881 166.372 371.85 166.447 368.799L166.012 368.789L165.577 368.778C165.512 371.412 163.701 374.21 159.778 376.42L159.991 376.799ZM166.012 368.789L166.447 368.799C166.521 365.749 164.581 362.678 160.601 360.301L160.378 360.674L160.155 361.048C163.974 363.33 165.641 366.151 165.577 368.778L166.012 368.789ZM160.378 360.674L160.686 360.367L160.685 360.366L160.377 360.674L160.069 360.981L160.07 360.982L160.378 360.674ZM160.377 360.674L160.601 360.3C156.641 357.923 151.404 356.705 146.137 356.655L146.133 357.091L146.129 357.526C151.282 357.574 156.358 358.769 160.153 361.047L160.377 360.674Z" fill="#082422"/>
<path d="M166.427 368.461C166.347 365.529 164.407 362.597 160.606 360.339C152.686 355.585 139.657 355.466 131.5 360.062L131.619 355.03C139.697 350.474 152.646 350.632 160.487 355.307C164.249 357.566 166.189 360.458 166.268 363.39C166.308 365.093 166.347 366.797 166.427 368.501V368.461Z" fill="#0A9D9C" stroke="#082422" stroke-width="0.870411"/>
<path d="M125.44 363.231C125.558 360.22 127.618 357.249 131.617 354.99L131.498 360.022C127.459 362.28 125.36 365.291 125.281 368.342C125.321 366.638 125.4 364.935 125.44 363.231Z" fill="#0A9D9C" stroke="#082422" stroke-width="0.870411"/>
<path d="M125.24 368.341C125.28 366.638 125.359 364.934 125.398 363.23C125.28 366.281 127.22 369.371 131.18 371.709C139.06 376.424 151.97 376.543 160.048 371.986C164.245 369.609 166.344 366.479 166.225 363.31C166.225 363.547 166.225 363.825 166.225 364.062C166.225 364.142 166.225 364.261 166.225 364.3C166.225 364.815 166.225 365.33 166.265 365.845C166.265 366.677 166.305 367.549 166.344 368.381C166.423 371.551 164.364 374.76 160.127 377.137C151.97 381.733 138.941 381.574 131.022 376.86C127.022 374.482 125.082 371.352 125.2 368.302L125.24 368.341Z" fill="#2BF2F1" stroke="#082422" stroke-width="0.870411"/>
<path d="M128.563 371.987C121.317 367.788 117.594 359.705 122.623 352.217C123.891 350.395 125.593 348.81 127.415 347.542C127.89 347.225 128.603 346.789 129.118 346.512C129.751 346.156 130.623 346.235 131.573 346.789C123.415 351.346 123.257 358.913 131.177 363.628C139.097 368.342 152.085 368.501 160.243 363.905C168.4 359.349 168.559 351.782 160.639 347.067C152.719 342.352 139.73 342.194 131.573 346.789C130.623 346.235 129.751 346.156 129.118 346.512C138.622 341.282 152.006 341.282 161.51 345.957C168.876 349.523 173.825 356.892 170.222 364.737C167.965 369.254 164.401 371.71 159.768 373.731C151.373 377.376 137.552 377.455 128.563 371.948V371.987Z" fill="#0A9D9C"/>
<path d="M129.118 346.512C128.603 346.789 127.89 347.225 127.415 347.542C125.593 348.81 123.891 350.395 122.623 352.217C117.594 359.705 121.317 367.788 128.563 371.987V371.948C137.552 377.455 151.373 377.376 159.768 373.731C164.401 371.71 167.965 369.254 170.222 364.737C173.825 356.892 168.876 349.523 161.51 345.957C152.006 341.282 138.622 341.282 129.118 346.512ZM129.118 346.512C129.751 346.156 130.623 346.235 131.573 346.789M131.573 346.789C123.415 351.346 123.257 358.913 131.177 363.628C139.097 368.342 152.085 368.501 160.243 363.905C168.4 359.349 168.559 351.782 160.639 347.067C152.719 342.352 139.73 342.194 131.573 346.789Z" stroke="#082422" stroke-width="0.870411"/>
<path d="M166.387 354.714C166.109 351.94 164.169 349.246 160.605 347.107C152.685 342.392 139.697 342.234 131.539 346.83L131.935 341.758C139.855 337.321 152.527 337.44 160.249 342.036C163.733 344.135 165.595 346.75 165.872 349.444C166.03 351.188 166.228 352.971 166.387 354.714Z" fill="#0A9D9C" stroke="#082422" stroke-width="0.870411"/>
<path d="M125.914 349.326C126.191 346.552 128.211 343.819 131.933 341.719L131.537 346.79C127.735 348.93 125.637 351.742 125.359 354.595C125.557 352.852 125.716 351.069 125.914 349.326Z" fill="#0A9D9C" stroke="#082422" stroke-width="0.870411"/>
<path d="M125.354 354.596C125.552 352.852 125.71 351.069 125.908 349.326C125.592 352.456 127.453 355.705 131.531 358.122C139.253 362.718 151.925 362.876 159.845 358.399C164.201 355.982 166.181 352.654 165.864 349.405C166.023 351.149 166.221 352.932 166.379 354.675C166.696 358.003 164.637 361.41 160.201 363.906C152.044 368.462 139.055 368.343 131.135 363.629C126.938 361.133 124.998 357.805 125.354 354.596Z" fill="#2BF2F1" stroke="#082422" stroke-width="0.870411"/>
<path d="M159.68 350.196C151.84 354.594 139.326 354.475 131.723 349.919C124.12 345.363 124.278 338.112 132.119 333.715C139.96 329.317 152.473 329.436 160.076 333.992C167.679 338.548 167.521 345.799 159.68 350.196ZM160.631 333.675C152.711 328.96 139.722 328.802 131.565 333.398C123.407 337.954 123.249 345.521 131.169 350.236C139.089 354.951 152.077 355.109 160.235 350.513C168.392 345.957 168.551 338.39 160.631 333.675Z" fill="#0A9D9C" stroke="#082422" stroke-width="0.870411"/>
<path d="M128.601 358.597C122.028 354.793 118.305 347.701 121.552 340.728C122.582 338.351 125.156 335.618 127.453 334.152C127.928 333.835 128.641 333.399 129.155 333.122C129.789 332.765 130.66 332.844 131.611 333.399C123.453 337.955 123.295 345.522 131.215 350.237C139.134 354.952 152.123 355.11 160.281 350.514C168.438 345.958 168.596 338.391 160.677 333.676C152.757 328.961 139.768 328.803 131.611 333.399C130.66 332.844 129.789 332.765 129.155 333.122C138.659 327.892 152.044 327.892 161.548 332.567C168.913 336.133 173.863 343.502 170.26 351.346C168.002 355.863 164.438 358.319 159.805 360.38C151.371 364.025 137.63 364.104 128.601 358.636V358.597Z" fill="#0A9D9C"/>
<path d="M129.155 333.122C128.641 333.399 127.928 333.835 127.453 334.152C125.156 335.618 122.582 338.351 121.552 340.728C118.305 347.701 122.028 354.793 128.601 358.597V358.636C137.63 364.104 151.371 364.025 159.805 360.38C164.438 358.319 168.002 355.863 170.26 351.346C173.863 343.502 168.913 336.133 161.548 332.567C152.044 327.892 138.659 327.892 129.155 333.122ZM129.155 333.122C129.789 332.765 130.66 332.844 131.611 333.399M131.611 333.399C123.453 337.955 123.295 345.522 131.215 350.237C139.134 354.952 152.123 355.11 160.281 350.514C168.438 345.958 168.596 338.391 160.677 333.676C152.757 328.961 139.768 328.803 131.611 333.399Z" stroke="#082422" stroke-width="0.870411"/>
<path d="M126.146 341.678C127.215 309.903 128.284 260.3 129.354 228.564C129.274 231.06 130.858 233.596 134.105 235.577C140.6 239.46 151.252 239.539 157.905 235.815C161.35 233.873 163.092 231.259 163.013 228.683C163.884 260.458 164.795 310.062 165.666 341.836C165.745 344.887 163.765 347.938 159.687 350.236C151.846 354.633 139.333 354.515 131.729 349.958C127.888 347.66 126.027 344.689 126.146 341.757V341.678Z" fill="#2BF2F1" stroke="#082422" stroke-width="0.870411"/>
<path d="M131.372 212.651C139.725 208.019 152.096 207.831 160.879 212.584L161.295 212.814L161.298 212.816C166.916 216.072 169.47 220.842 169.113 225.528C168.757 230.205 165.512 234.672 159.801 237.357C151.327 241.375 139.374 241.341 130.884 236.39V236.389C127.623 234.523 125.07 231.684 123.926 228.406C122.778 225.114 123.063 221.405 125.436 217.863L125.438 217.86C126.584 216.182 128.171 214.719 129.829 213.587L129.84 213.578C130.138 213.389 130.481 213.154 130.772 212.975C130.964 212.857 131.163 212.746 131.372 212.651Z" fill="#0A9D9C"/>
<path d="M131.372 212.651L131.551 213.048L131.567 213.04L131.583 213.032L131.372 212.651ZM160.879 212.584L161.09 212.203L161.087 212.201L160.879 212.584ZM161.295 212.814L161.537 212.452L161.522 212.442L161.506 212.434L161.295 212.814ZM161.298 212.816L161.057 213.178L161.068 213.186L161.08 213.193L161.298 212.816ZM169.113 225.528L169.547 225.561V225.561L169.113 225.528ZM159.801 237.357L159.616 236.964L159.615 236.964L159.801 237.357ZM130.884 236.39H130.449V236.64L130.665 236.766L130.884 236.39ZM130.884 236.389H131.32V236.136L131.1 236.011L130.884 236.389ZM123.926 228.406L123.515 228.549L123.515 228.55L123.926 228.406ZM125.436 217.863L125.798 218.105L125.798 218.105L125.436 217.863ZM125.438 217.86L125.079 217.615L125.076 217.619L125.438 217.86ZM129.829 213.587L130.074 213.946L130.082 213.941L130.09 213.935L129.829 213.587ZM129.84 213.578L129.607 213.211L129.593 213.22L129.579 213.23L129.84 213.578ZM130.772 212.975L130.544 212.604L130.544 212.604L130.772 212.975ZM131.372 212.651L131.583 213.032C139.807 208.472 152.02 208.285 160.672 212.967L160.879 212.584L161.087 212.201C152.172 207.377 139.643 207.567 131.161 212.271L131.372 212.651ZM160.879 212.584L160.669 212.965L161.085 213.195L161.295 212.814L161.506 212.434L161.09 212.203L160.879 212.584ZM161.295 212.814L161.054 213.176L161.057 213.178L161.298 212.816L161.54 212.454L161.537 212.452L161.295 212.814ZM161.298 212.816L161.08 213.193C166.585 216.382 169.02 221.008 168.679 225.495L169.113 225.528L169.547 225.561C169.919 220.675 167.248 215.761 161.517 212.44L161.298 212.816ZM169.113 225.528L168.679 225.495C168.337 229.982 165.219 234.329 159.616 236.964L159.801 237.357L159.987 237.751C165.806 235.015 169.176 230.428 169.547 225.561L169.113 225.528ZM159.801 237.357L159.615 236.964C151.259 240.926 139.459 240.887 131.104 236.014L130.884 236.39L130.665 236.766C139.289 241.795 151.395 241.825 159.988 237.751L159.801 237.357ZM130.884 236.39H131.32V236.389H130.884H130.449V236.39H130.884ZM130.884 236.389L131.1 236.011C127.915 234.188 125.441 231.426 124.337 228.263L123.926 228.406L123.515 228.55C124.699 231.942 127.331 234.857 130.668 236.766L130.884 236.389ZM123.926 228.406L124.337 228.263C123.234 225.098 123.501 221.532 125.798 218.105L125.436 217.863L125.075 217.621C122.624 221.277 122.323 225.129 123.515 228.549L123.926 228.406ZM125.436 217.863L125.798 218.105L125.8 218.102L125.438 217.86L125.076 217.619L125.074 217.622L125.436 217.863ZM125.438 217.86L125.797 218.106C126.906 216.481 128.451 215.056 130.074 213.946L129.829 213.587L129.583 213.228C127.892 214.383 126.261 215.882 125.079 217.615L125.438 217.86ZM129.829 213.587L130.09 213.935L130.101 213.926L129.84 213.578L129.579 213.23L129.568 213.239L129.829 213.587ZM129.84 213.578L130.074 213.945C130.397 213.74 130.705 213.526 131 213.345L130.772 212.975L130.544 212.604C130.256 212.781 129.878 213.038 129.607 213.211L129.84 213.578ZM130.772 212.975L131 213.345C131.181 213.234 131.364 213.132 131.551 213.048L131.372 212.651L131.192 212.255C130.962 212.359 130.747 212.479 130.544 212.604L130.772 212.975Z" fill="#082422"/>
<path d="M186.023 420.796V414.576C186.023 418.934 188.835 423.292 194.498 426.66C205.982 433.514 224.87 433.712 236.671 427.096C242.69 423.728 245.7 419.251 245.7 414.735V420.955C245.7 425.472 242.651 429.948 236.631 433.316C224.831 439.933 205.942 439.774 194.458 432.88C188.795 429.513 186.023 425.155 186.023 420.796Z" fill="#0A9D9C" stroke="#082422" stroke-width="0.870411"/>
<path d="M212.081 394.214C213.044 394.133 216.439 393.893 220.437 394.293L220.436 394.294C221.016 394.336 222.611 394.496 224.559 394.894H224.562C225.7 395.134 226.679 395.384 227.382 395.574C227.733 395.669 228.017 395.749 228.215 395.804C228.314 395.832 228.39 395.853 228.443 395.867C228.457 395.871 228.469 395.873 228.478 395.876H228.496L228.558 395.894C236.367 398.246 244.908 403.678 246.05 412.937L246.054 412.964V413.016C246.392 415.91 245.817 418.554 244.288 420.969C242.758 423.386 240.289 425.549 236.886 427.511L236.882 427.514C230.9 430.868 223.148 432.484 215.459 432.404C207.77 432.324 200.096 430.549 194.272 427.073L194.271 427.072C188.569 423.657 185.625 419.178 185.625 414.615C185.625 407.624 190.484 401.996 196.303 398.744C198.448 397.513 200.501 396.683 202.772 395.986L203.762 395.694C207.486 394.613 210.728 394.333 212.079 394.214H212.081ZM216.18 397.538C210.97 397.489 205.753 398.598 201.756 400.849C197.755 403.104 195.805 406.019 195.735 408.861C195.666 411.7 197.47 414.645 201.369 416.974L201.37 416.975C205.248 419.303 210.404 420.509 215.614 420.558C220.824 420.607 226.041 419.499 230.038 417.247C234.039 414.993 235.989 412.078 236.059 409.236C236.128 406.397 234.324 403.451 230.425 401.122L230.424 401.121C226.546 398.793 221.39 397.587 216.18 397.538Z" fill="#0A9D9C"/>
<path d="M212.081 394.214V394.649H212.099L212.117 394.647L212.081 394.214ZM220.437 394.293L220.744 394.6L221.394 393.951L220.48 393.86L220.437 394.293ZM220.436 394.294L220.128 393.986L219.455 394.659L220.404 394.728L220.436 394.294ZM224.559 394.894L224.472 395.321L224.515 395.329H224.559V394.894ZM224.562 394.894L224.651 394.468L224.607 394.459H224.562V394.894ZM227.382 395.574L227.495 395.154V395.154L227.382 395.574ZM228.215 395.804L228.097 396.223L228.097 396.223L228.215 395.804ZM228.443 395.867L228.331 396.287L228.331 396.287L228.443 395.867ZM228.478 395.876L228.37 396.298L228.423 396.311H228.478V395.876ZM228.496 395.876L228.622 395.459L228.56 395.44H228.496V395.876ZM228.558 395.894L228.432 396.311L228.432 396.311L228.558 395.894ZM246.05 412.937L245.618 412.99L245.619 413.001L246.05 412.937ZM246.054 412.964H246.489V412.932L246.484 412.9L246.054 412.964ZM246.054 413.016H245.619V413.042L245.621 413.067L246.054 413.016ZM244.288 420.969L244.656 421.202L244.656 421.202L244.288 420.969ZM236.886 427.511L236.668 427.134L236.646 427.148L236.625 427.163L236.886 427.511ZM236.882 427.514L237.095 427.894L237.12 427.88L237.143 427.863L236.882 427.514ZM215.459 432.404L215.454 432.839H215.454L215.459 432.404ZM194.272 427.073L193.965 427.381L194.003 427.419L194.049 427.447L194.272 427.073ZM194.271 427.072L194.579 426.764L194.541 426.726L194.495 426.699L194.271 427.072ZM185.625 414.615L185.19 414.615V414.615H185.625ZM196.303 398.744L196.515 399.124L196.519 399.121L196.303 398.744ZM202.772 395.986L202.649 395.569L202.645 395.57L202.772 395.986ZM203.762 395.694L203.64 395.276L203.639 395.277L203.762 395.694ZM212.079 394.214V393.778H212.06L212.041 393.78L212.079 394.214ZM216.18 397.538L216.184 397.103H216.184L216.18 397.538ZM201.756 400.849L201.542 400.47L201.542 400.47L201.756 400.849ZM195.735 408.861L195.3 408.85L195.3 408.85L195.735 408.861ZM201.369 416.974L201.677 416.667L201.639 416.628L201.592 416.601L201.369 416.974ZM201.37 416.975L201.062 417.283L201.1 417.321L201.146 417.348L201.37 416.975ZM215.614 420.558L215.61 420.993H215.61L215.614 420.558ZM230.038 417.247L230.252 417.626L230.252 417.626L230.038 417.247ZM236.059 409.236L236.494 409.247V409.247L236.059 409.236ZM230.425 401.122L230.117 401.43L230.155 401.468L230.202 401.495L230.425 401.122ZM230.424 401.121L230.732 400.813L230.694 400.775L230.648 400.748L230.424 401.121ZM212.081 394.214L212.117 394.647C213.068 394.568 216.434 394.33 220.393 394.726L220.437 394.293L220.48 393.86C216.445 393.456 213.02 393.699 212.045 393.78L212.081 394.214ZM220.437 394.293L220.129 393.985L220.128 393.986L220.436 394.294L220.743 394.601L220.744 394.6L220.437 394.293ZM220.436 394.294L220.404 394.728C220.968 394.769 222.544 394.927 224.472 395.321L224.559 394.894L224.646 394.468C222.677 394.066 221.063 393.903 220.467 393.86L220.436 394.294ZM224.559 394.894V395.329H224.562V394.894V394.459H224.559V394.894ZM224.562 394.894L224.472 395.32C225.6 395.558 226.57 395.806 227.269 395.994L227.382 395.574L227.495 395.154C226.787 394.963 225.8 394.71 224.651 394.468L224.562 394.894ZM227.382 395.574L227.269 395.994C227.617 396.088 227.898 396.168 228.097 396.223L228.215 395.804L228.332 395.385C228.135 395.33 227.849 395.249 227.495 395.154L227.382 395.574ZM228.215 395.804L228.097 396.223C228.199 396.252 228.277 396.273 228.331 396.287L228.443 395.867L228.555 395.446C228.504 395.433 228.43 395.413 228.332 395.385L228.215 395.804ZM228.443 395.867L228.331 396.287C228.348 396.292 228.364 396.296 228.37 396.298L228.478 395.876L228.585 395.454C228.574 395.451 228.566 395.449 228.555 395.446L228.443 395.867ZM228.478 395.876V396.311H228.496V395.876V395.44H228.478V395.876ZM228.496 395.876L228.37 396.292L228.432 396.311L228.558 395.894L228.683 395.478L228.622 395.459L228.496 395.876ZM228.558 395.894L228.432 396.311C236.194 398.649 244.509 403.997 245.618 412.99L246.05 412.937L246.482 412.884C245.307 403.358 236.541 397.844 228.683 395.478L228.558 395.894ZM246.05 412.937L245.619 413.001L245.623 413.027L246.054 412.964L246.484 412.9L246.48 412.873L246.05 412.937ZM246.054 412.964H245.619V413.016H246.054H246.489V412.964H246.054ZM246.054 413.016L245.621 413.067C245.949 415.865 245.394 418.409 243.92 420.737L244.288 420.969L244.656 421.202C246.24 418.7 246.836 415.954 246.486 412.966L246.054 413.016ZM244.288 420.969L243.92 420.737C242.44 423.074 240.034 425.193 236.668 427.134L236.886 427.511L237.103 427.888C240.544 425.904 243.076 423.698 244.656 421.202L244.288 420.969ZM236.886 427.511L236.625 427.163L236.621 427.166L236.882 427.514L237.143 427.863L237.147 427.86L236.886 427.511ZM236.882 427.514L236.669 427.135C230.769 430.443 223.096 432.048 215.463 431.969L215.459 432.404L215.454 432.839C223.2 432.92 231.031 431.294 237.095 427.894L236.882 427.514ZM215.459 432.404L215.464 431.969C207.831 431.89 200.237 430.126 194.496 426.699L194.272 427.073L194.049 427.447C199.955 430.971 207.71 432.759 215.454 432.839L215.459 432.404ZM194.272 427.073L194.58 426.765L194.579 426.764L194.271 427.072L193.964 427.38L193.965 427.381L194.272 427.073ZM194.271 427.072L194.495 426.699C188.872 423.331 186.06 418.973 186.06 414.615H185.625H185.19C185.19 419.383 188.266 423.983 194.048 427.445L194.271 427.072ZM185.625 414.615L186.06 414.615C186.06 407.84 190.773 402.333 196.515 399.124L196.303 398.744L196.09 398.364C190.194 401.66 185.19 407.408 185.19 414.615L185.625 414.615ZM196.303 398.744L196.519 399.121C198.632 397.909 200.653 397.091 202.9 396.402L202.772 395.986L202.645 395.57C200.349 396.274 198.265 397.116 196.086 398.366L196.303 398.744ZM202.772 395.986L202.896 396.403L203.885 396.111L203.762 395.694L203.639 395.277L202.649 395.569L202.772 395.986ZM203.762 395.694L203.883 396.112C207.565 395.043 210.771 394.766 212.117 394.647L212.079 394.214L212.041 393.78C210.685 393.9 207.408 394.182 203.64 395.276L203.762 395.694ZM212.079 394.214V394.649H212.081V394.214V393.778H212.079V394.214ZM216.18 397.538L216.184 397.103C210.917 397.053 205.621 398.173 201.542 400.47L201.756 400.849L201.969 401.228C205.885 399.023 211.023 397.925 216.176 397.973L216.18 397.538ZM201.756 400.849L201.542 400.47C197.463 402.768 195.375 405.8 195.3 408.85L195.735 408.861L196.17 408.872C196.235 406.237 198.046 403.439 201.969 401.228L201.756 400.849ZM195.735 408.861L195.3 408.85C195.226 411.901 197.166 414.971 201.146 417.348L201.369 416.974L201.592 416.601C197.773 414.319 196.107 411.499 196.17 408.872L195.735 408.861ZM201.369 416.974L201.061 417.282L201.062 417.283L201.37 416.975L201.678 416.668L201.677 416.667L201.369 416.974ZM201.37 416.975L201.146 417.348C205.106 419.726 210.344 420.944 215.61 420.993L215.614 420.558L215.618 420.123C210.465 420.075 205.389 418.88 201.594 416.602L201.37 416.975ZM215.614 420.558L215.61 420.993C220.877 421.043 226.173 419.924 230.252 417.626L230.038 417.247L229.824 416.868C225.909 419.074 220.771 420.171 215.618 420.123L215.614 420.558ZM230.038 417.247L230.252 417.626C234.33 415.328 236.419 412.297 236.494 409.247L236.059 409.236L235.624 409.225C235.559 411.859 233.748 414.657 229.824 416.868L230.038 417.247ZM236.059 409.236L236.494 409.247C236.568 406.196 234.628 403.125 230.648 400.748L230.425 401.122L230.202 401.495C234.021 403.777 235.687 406.598 235.624 409.225L236.059 409.236ZM230.425 401.122L230.733 400.814L230.732 400.813L230.424 401.121L230.116 401.429L230.117 401.43L230.425 401.122ZM230.424 401.121L230.648 400.748C226.688 398.371 221.45 397.152 216.184 397.103L216.18 397.538L216.176 397.973C221.329 398.021 226.405 399.216 230.2 401.494L230.424 401.121Z" fill="#082422"/>
<path d="M236.466 408.91C236.387 405.978 234.446 403.047 230.645 400.788C222.725 396.034 209.697 395.915 201.539 400.511L201.658 395.479C209.736 390.923 222.685 391.082 230.526 395.757C234.288 398.015 236.228 400.907 236.307 403.839C236.347 405.543 236.387 407.246 236.466 408.95V408.91Z" fill="#0A9D9C" stroke="#082422" stroke-width="0.870411"/>
<path d="M195.479 403.68C195.598 400.669 197.657 397.698 201.656 395.439L201.537 400.471C197.498 402.729 195.4 405.741 195.32 408.791C195.36 407.088 195.439 405.384 195.479 403.68Z" fill="#0A9D9C" stroke="#082422" stroke-width="0.870411"/>
<path d="M195.287 408.791C195.327 407.087 195.406 405.383 195.445 403.68C195.327 406.73 197.267 409.821 201.227 412.158C209.107 416.873 222.017 416.992 230.095 412.436C234.292 410.058 236.391 406.928 236.272 403.759C236.272 403.997 236.272 404.274 236.272 404.512C236.272 404.591 236.272 404.71 236.272 404.749C236.272 405.264 236.272 405.78 236.312 406.295C236.312 407.127 236.352 407.998 236.391 408.83C236.47 412 234.411 415.209 230.174 417.586C222.017 422.182 208.988 422.023 201.068 417.309C197.069 414.932 195.129 411.802 195.247 408.751L195.287 408.791Z" fill="#2BF2F1" stroke="#082422" stroke-width="0.870411"/>
<path d="M198.618 412.439C191.371 408.239 187.649 400.157 192.678 392.669C193.945 390.846 195.648 389.261 197.47 387.993C197.945 387.676 198.658 387.241 199.172 386.963C199.806 386.607 200.677 386.686 201.628 387.241C193.47 391.797 193.312 399.364 201.232 404.079C209.152 408.794 222.14 408.952 230.298 404.356C238.455 399.8 238.613 392.233 230.694 387.518C222.774 382.803 209.785 382.645 201.628 387.241C200.677 386.686 199.806 386.607 199.172 386.963C208.676 381.734 222.061 381.734 231.565 386.409C238.93 389.974 243.88 397.344 240.277 405.188C238.019 409.705 234.456 412.161 229.822 414.182C221.427 417.827 207.607 417.906 198.618 412.399V412.439Z" fill="#0A9D9C"/>
<path d="M199.172 386.963C198.658 387.241 197.945 387.676 197.47 387.993C195.648 389.261 193.945 390.846 192.678 392.669C187.649 400.157 191.371 408.239 198.618 412.439V412.399C207.607 417.906 221.427 417.827 229.822 414.182C234.456 412.161 238.019 409.705 240.277 405.188C243.88 397.344 238.93 389.974 231.565 386.409C222.061 381.734 208.676 381.734 199.172 386.963ZM199.172 386.963C199.806 386.607 200.677 386.686 201.628 387.241M201.628 387.241C193.47 391.797 193.312 399.364 201.232 404.079C209.152 408.794 222.14 408.952 230.298 404.356C238.455 399.8 238.613 392.233 230.694 387.518C222.774 382.803 209.785 382.645 201.628 387.241Z" stroke="#082422" stroke-width="0.870411"/>
<path d="M236.433 395.163C236.156 392.39 234.216 389.696 230.652 387.556C222.732 382.841 209.743 382.683 201.586 387.279L201.982 382.207C209.902 377.77 222.574 377.889 230.295 382.485C233.78 384.585 235.641 387.199 235.919 389.894C236.077 391.637 236.275 393.42 236.433 395.163Z" fill="#0A9D9C" stroke="#082422" stroke-width="0.870411"/>
<path d="M195.961 389.775C196.238 387.002 198.257 384.268 201.98 382.168L201.584 387.239C197.782 389.379 195.683 392.192 195.406 395.044C195.604 393.301 195.763 391.518 195.961 389.775Z" fill="#0A9D9C" stroke="#082422" stroke-width="0.870411"/>
<path d="M195.401 395.045C195.599 393.301 195.757 391.519 195.955 389.775C195.638 392.905 197.5 396.154 201.578 398.571C209.3 403.167 221.972 403.325 229.892 398.848C234.248 396.431 236.228 393.103 235.911 389.855C236.069 391.598 236.267 393.381 236.426 395.124C236.743 398.452 234.683 401.859 230.248 404.355C222.091 408.912 209.102 408.793 201.182 404.078C196.985 401.582 195.044 398.254 195.401 395.045Z" fill="#2BF2F1" stroke="#082422" stroke-width="0.870411"/>
<path d="M229.743 390.647C221.902 395.045 209.389 394.926 201.786 390.37C194.183 385.814 194.341 378.564 202.182 374.166C210.022 369.768 222.536 369.887 230.139 374.443C237.742 378.999 237.583 386.25 229.743 390.647ZM230.693 374.126C222.773 369.411 209.785 369.253 201.627 373.849C193.47 378.405 193.311 385.972 201.231 390.687C209.151 395.402 222.14 395.56 230.297 390.964C238.455 386.408 238.613 378.841 230.693 374.126Z" fill="#0A9D9C" stroke="#082422" stroke-width="0.870411"/>
<path d="M198.656 399.046C192.082 395.243 188.36 388.151 191.607 381.178C192.637 378.8 195.211 376.067 197.507 374.601C197.983 374.284 198.695 373.848 199.21 373.571C199.844 373.214 200.715 373.293 201.665 373.848C193.508 378.404 193.349 385.972 201.269 390.686C209.189 395.401 222.178 395.56 230.335 390.964C238.493 386.407 238.651 378.84 230.731 374.125C222.811 369.411 209.823 369.252 201.665 373.848C200.715 373.293 199.844 373.214 199.21 373.571C208.714 368.341 222.099 368.341 231.602 373.016C238.968 376.582 243.918 383.951 240.314 391.796C238.057 396.312 234.493 398.769 229.86 400.829C221.425 404.474 207.684 404.553 198.656 399.086V399.046Z" fill="#0A9D9C"/>
<path d="M199.21 373.571C198.695 373.848 197.983 374.284 197.507 374.601C195.211 376.067 192.637 378.8 191.607 381.178C188.36 388.151 192.082 395.243 198.656 399.046V399.086C207.684 404.553 221.425 404.474 229.86 400.829C234.493 398.769 238.057 396.312 240.314 391.796C243.918 383.951 238.968 376.582 231.602 373.016C222.099 368.341 208.714 368.341 199.21 373.571ZM199.21 373.571C199.844 373.214 200.715 373.293 201.665 373.848M201.665 373.848C193.508 378.404 193.349 385.972 201.269 390.686C209.189 395.401 222.178 395.56 230.335 390.964C238.493 386.407 238.651 378.84 230.731 374.125C222.811 369.411 209.823 369.252 201.665 373.848Z" stroke="#082422" stroke-width="0.870411"/>
<path d="M196.201 382.129C197.27 350.354 198.339 300.751 199.408 269.016C199.329 271.512 200.913 274.047 204.16 276.028C210.654 279.911 221.307 279.99 227.959 276.266C231.405 274.325 233.147 271.71 233.068 269.135C233.939 300.909 234.85 350.513 235.721 382.288C235.8 385.338 233.82 388.389 229.741 390.687C221.901 395.085 209.387 394.966 201.784 390.41C197.943 388.112 196.082 385.14 196.201 382.208V382.129Z" fill="#2BF2F1" stroke="#082422" stroke-width="0.870411"/>
<path d="M201.418 253.101C209.772 248.468 222.143 248.28 230.926 253.033L231.342 253.264L231.345 253.266C236.963 256.521 239.516 261.291 239.16 265.977C238.803 270.654 235.559 275.121 229.848 277.807C221.374 281.825 209.421 281.79 200.931 276.839V276.838C197.67 274.972 195.117 272.133 193.973 268.855C192.825 265.563 193.11 261.854 195.483 258.312L195.485 258.31C196.631 256.631 198.218 255.169 199.875 254.036L199.887 254.027C200.184 253.838 200.527 253.603 200.819 253.424C201.011 253.306 201.21 253.195 201.418 253.101Z" fill="#0A9D9C"/>
<path d="M201.418 253.101L201.598 253.497L201.614 253.49L201.63 253.481L201.418 253.101ZM230.926 253.033L231.137 252.652L231.133 252.65L230.926 253.033ZM231.342 253.264L231.584 252.902L231.569 252.892L231.553 252.883L231.342 253.264ZM231.345 253.266L231.104 253.628L231.115 253.635L231.127 253.642L231.345 253.266ZM239.16 265.977L239.594 266.011L239.594 266.011L239.16 265.977ZM229.848 277.807L229.663 277.413L229.662 277.413L229.848 277.807ZM200.931 276.839H200.496V277.089L200.712 277.215L200.931 276.839ZM200.931 276.838H201.366V276.585L201.147 276.46L200.931 276.838ZM193.973 268.855L193.562 268.999L193.562 268.999L193.973 268.855ZM195.483 258.312L195.844 258.555L195.845 258.554L195.483 258.312ZM195.485 258.31L195.125 258.064L195.123 258.068L195.485 258.31ZM199.875 254.036L200.121 254.395L200.129 254.39L200.137 254.384L199.875 254.036ZM199.887 254.027L199.653 253.66L199.639 253.669L199.626 253.679L199.887 254.027ZM200.819 253.424L200.591 253.053L200.591 253.053L200.819 253.424ZM201.418 253.101L201.63 253.481C209.853 248.921 222.067 248.734 230.719 253.416L230.926 253.033L231.133 252.65C222.219 247.827 209.69 248.016 201.207 252.72L201.418 253.101ZM230.926 253.033L230.715 253.414L231.131 253.644L231.342 253.264L231.553 252.883L231.137 252.652L230.926 253.033ZM231.342 253.264L231.101 253.626L231.104 253.628L231.345 253.266L231.587 252.903L231.584 252.902L231.342 253.264ZM231.345 253.266L231.127 253.642C236.631 256.832 239.067 261.458 238.726 265.944L239.16 265.977L239.594 266.011C239.966 261.124 237.295 256.21 231.563 252.889L231.345 253.266ZM239.16 265.977L238.726 265.944C238.384 270.431 235.265 274.778 229.663 277.413L229.848 277.807L230.033 278.2C235.852 275.464 239.223 270.877 239.594 266.011L239.16 265.977ZM229.848 277.807L229.662 277.413C221.306 281.375 209.506 281.336 201.15 276.463L200.931 276.839L200.712 277.215C209.335 282.244 221.441 282.274 230.035 278.2L229.848 277.807ZM200.931 276.839H201.366V276.838H200.931H200.496V276.839H200.931ZM200.931 276.838L201.147 276.46C197.961 274.638 195.487 271.875 194.384 268.712L193.973 268.855L193.562 268.999C194.746 272.391 197.378 275.307 200.715 277.216L200.931 276.838ZM193.973 268.855L194.384 268.712C193.28 265.548 193.548 261.982 195.844 258.555L195.483 258.312L195.121 258.07C192.671 261.727 192.369 265.579 193.562 268.999L193.973 268.855ZM195.483 258.312L195.845 258.554L195.847 258.551L195.485 258.31L195.123 258.068L195.121 258.071L195.483 258.312ZM195.485 258.31L195.844 258.555C196.953 256.931 198.498 255.505 200.121 254.395L199.875 254.036L199.63 253.677C197.939 254.832 196.308 256.331 195.125 258.064L195.485 258.31ZM199.875 254.036L200.137 254.384L200.148 254.375L199.887 254.027L199.626 253.679L199.614 253.688L199.875 254.036ZM199.887 254.027L200.121 254.394C200.444 254.189 200.752 253.975 201.047 253.795L200.819 253.424L200.591 253.053C200.303 253.23 199.925 253.487 199.653 253.66L199.887 254.027ZM200.819 253.424L201.047 253.795C201.228 253.683 201.411 253.582 201.598 253.497L201.418 253.101L201.239 252.704C201.009 252.808 200.793 252.929 200.591 253.053L200.819 253.424Z" fill="#082422"/>
<path d="M256.094 461.05V454.83C256.094 459.188 258.905 463.546 264.568 466.914C276.052 473.768 294.941 473.966 306.741 467.35C312.76 463.982 315.77 459.505 315.77 454.989V461.209C315.77 465.725 312.721 470.202 306.702 473.57C294.901 480.186 276.012 480.028 264.528 473.134C258.866 469.767 256.094 465.408 256.094 461.05Z" fill="#0A9D9C" stroke="#082422" stroke-width="0.870411"/>
<path d="M282.151 434.467C283.115 434.387 286.51 434.147 290.507 434.547L290.506 434.548C291.087 434.59 292.681 434.75 294.629 435.148H294.632C295.77 435.388 296.749 435.638 297.452 435.828C297.803 435.923 298.087 436.003 298.285 436.058C298.385 436.086 298.461 436.107 298.514 436.121C298.527 436.124 298.539 436.127 298.548 436.13H298.566L298.628 436.148C306.437 438.5 314.978 443.932 316.12 453.191L316.124 453.217V453.27C316.463 456.164 315.887 458.808 314.358 461.223C312.828 463.64 310.359 465.802 306.956 467.765L306.952 467.768C300.97 471.122 293.218 472.738 285.529 472.658C277.841 472.578 270.167 470.803 264.343 467.327L264.342 467.326C258.64 463.911 255.695 459.432 255.695 454.869C255.695 447.878 260.554 442.25 266.373 438.998C268.519 437.767 270.571 436.937 272.843 436.24L273.832 435.948C277.556 434.866 280.799 434.587 282.149 434.467H282.151ZM286.249 437.792C281.039 437.743 275.822 438.851 271.825 441.103C267.824 443.357 265.874 446.273 265.805 449.115C265.736 451.954 267.539 454.899 271.438 457.228L271.439 457.229C275.317 459.557 280.473 460.763 285.684 460.812C290.893 460.861 296.11 459.753 300.107 457.501C304.108 455.247 306.058 452.332 306.128 449.49C306.197 446.651 304.394 443.705 300.494 441.376L300.493 441.375C296.616 439.047 291.459 437.841 286.249 437.792Z" fill="#0A9D9C"/>
<path d="M282.151 434.467V434.903H282.169L282.188 434.901L282.151 434.467ZM290.507 434.547L290.815 434.854L291.464 434.205L290.55 434.114L290.507 434.547ZM290.506 434.548L290.198 434.24L289.525 434.913L290.474 434.982L290.506 434.548ZM294.629 435.148L294.542 435.575L294.585 435.583H294.629V435.148ZM294.632 435.148L294.722 434.722L294.677 434.713H294.632V435.148ZM297.452 435.828L297.565 435.408L297.565 435.408L297.452 435.828ZM298.285 436.058L298.168 436.477L298.168 436.477L298.285 436.058ZM298.514 436.121L298.402 436.541L298.402 436.541L298.514 436.121ZM298.548 436.13L298.441 436.551L298.493 436.565H298.548V436.13ZM298.566 436.13L298.692 435.713L298.631 435.694H298.566V436.13ZM298.628 436.148L298.502 436.565L298.502 436.565L298.628 436.148ZM316.12 453.191L315.688 453.244L315.69 453.255L316.12 453.191ZM316.124 453.217H316.559V453.185L316.555 453.154L316.124 453.217ZM316.124 453.27H315.689V453.296L315.692 453.321L316.124 453.27ZM314.358 461.223L314.726 461.456L314.726 461.456L314.358 461.223ZM306.956 467.765L306.739 467.388L306.716 467.401L306.695 467.417L306.956 467.765ZM306.952 467.768L307.165 468.148L307.19 468.134L307.213 468.116L306.952 467.768ZM285.529 472.658L285.525 473.093H285.525L285.529 472.658ZM264.343 467.327L264.035 467.635L264.073 467.673L264.12 467.701L264.343 467.327ZM264.342 467.326L264.65 467.018L264.612 466.98L264.565 466.953L264.342 467.326ZM255.695 454.869L255.26 454.869V454.869L255.695 454.869ZM266.373 438.998L266.585 439.378L266.59 439.375L266.373 438.998ZM272.843 436.24L272.72 435.823L272.715 435.824L272.843 436.24ZM273.832 435.948L273.711 435.53L273.709 435.531L273.832 435.948ZM282.149 434.467V434.032H282.13L282.111 434.034L282.149 434.467ZM286.249 437.792L286.253 437.357H286.253L286.249 437.792ZM271.825 441.103L271.612 440.724L271.612 440.724L271.825 441.103ZM265.805 449.115L265.37 449.104L265.37 449.104L265.805 449.115ZM271.438 457.228L271.746 456.92L271.708 456.882L271.662 456.855L271.438 457.228ZM271.439 457.229L271.132 457.537L271.17 457.575L271.215 457.602L271.439 457.229ZM285.684 460.812L285.68 461.247H285.68L285.684 460.812ZM300.107 457.501L300.321 457.88L300.321 457.88L300.107 457.501ZM306.128 449.49L306.563 449.501L306.563 449.501L306.128 449.49ZM300.494 441.376L300.186 441.683L300.225 441.722L300.271 441.749L300.494 441.376ZM300.493 441.375L300.801 441.067L300.763 441.029L300.717 441.002L300.493 441.375ZM282.151 434.467L282.188 434.901C283.139 434.822 286.504 434.584 290.464 434.98L290.507 434.547L290.55 434.114C286.516 433.71 283.091 433.952 282.115 434.034L282.151 434.467ZM290.507 434.547L290.199 434.239L290.198 434.24L290.506 434.548L290.814 434.855L290.815 434.854L290.507 434.547ZM290.506 434.548L290.474 434.982C291.039 435.023 292.615 435.181 294.542 435.575L294.629 435.148L294.716 434.722C292.747 434.32 291.134 434.157 290.537 434.113L290.506 434.548ZM294.629 435.148V435.583H294.632V435.148V434.713H294.629V435.148ZM294.632 435.148L294.542 435.574C295.67 435.812 296.641 436.06 297.339 436.248L297.452 435.828L297.565 435.408C296.857 435.217 295.87 434.964 294.722 434.722L294.632 435.148ZM297.452 435.828L297.339 436.248C297.688 436.342 297.969 436.422 298.168 436.477L298.285 436.058L298.403 435.639C298.205 435.584 297.919 435.503 297.565 435.408L297.452 435.828ZM298.285 436.058L298.168 436.477C298.269 436.506 298.347 436.527 298.402 436.541L298.514 436.121L298.626 435.7C298.574 435.687 298.5 435.667 298.403 435.639L298.285 436.058ZM298.514 436.121L298.402 436.541C298.418 436.546 298.434 436.55 298.441 436.551L298.548 436.13L298.655 435.708C298.644 435.705 298.636 435.703 298.626 435.7L298.514 436.121ZM298.548 436.13V436.565H298.566V436.13V435.694H298.548V436.13ZM298.566 436.13L298.441 436.546L298.502 436.565L298.628 436.148L298.754 435.731L298.692 435.713L298.566 436.13ZM298.628 436.148L298.502 436.565C306.264 438.903 314.579 444.251 315.688 453.244L316.12 453.191L316.552 453.138C315.378 443.612 306.611 438.098 298.753 435.731L298.628 436.148ZM316.12 453.191L315.69 453.255L315.694 453.281L316.124 453.217L316.555 453.154L316.551 453.127L316.12 453.191ZM316.124 453.217H315.689V453.27H316.124H316.559V453.217H316.124ZM316.124 453.27L315.692 453.321C316.019 456.119 315.464 458.663 313.991 460.991L314.358 461.223L314.726 461.456C316.311 458.953 316.906 456.208 316.556 453.22L316.124 453.27ZM314.358 461.223L313.991 460.991C312.511 463.328 310.104 465.447 306.739 467.388L306.956 467.765L307.173 468.142C310.614 466.158 313.146 463.951 314.726 461.456L314.358 461.223ZM306.956 467.765L306.695 467.417L306.691 467.42L306.952 467.768L307.213 468.116L307.217 468.113L306.956 467.765ZM306.952 467.768L306.739 467.389C300.839 470.697 293.166 472.302 285.534 472.223L285.529 472.658L285.525 473.093C293.27 473.173 301.102 471.547 307.165 468.148L306.952 467.768ZM285.529 472.658L285.534 472.223C277.901 472.143 270.308 470.38 264.566 466.953L264.343 467.327L264.12 467.701C270.026 471.225 277.78 473.013 285.525 473.093L285.529 472.658ZM264.343 467.327L264.651 467.019L264.65 467.018L264.342 467.326L264.034 467.634L264.035 467.635L264.343 467.327ZM264.342 467.326L264.565 466.953C258.942 463.585 256.131 459.227 256.131 454.869L255.695 454.869L255.26 454.869C255.26 459.637 258.337 464.237 264.118 467.699L264.342 467.326ZM255.695 454.869L256.131 454.869C256.131 448.094 260.843 442.587 266.585 439.378L266.373 438.998L266.161 438.618C260.264 441.913 255.26 447.661 255.26 454.869L255.695 454.869ZM266.373 438.998L266.59 439.375C268.702 438.163 270.723 437.345 272.97 436.656L272.843 436.24L272.715 435.824C270.419 436.528 268.335 437.37 266.156 438.62L266.373 438.998ZM272.843 436.24L272.966 436.657L273.955 436.365L273.832 435.948L273.709 435.531L272.72 435.823L272.843 436.24ZM273.832 435.948L273.953 436.366C277.635 435.297 280.842 435.02 282.188 434.901L282.149 434.467L282.111 434.034C280.756 434.154 277.478 434.436 273.711 435.53L273.832 435.948ZM282.149 434.467V434.903H282.151V434.467V434.032H282.149V434.467ZM286.249 437.792L286.253 437.357C280.987 437.307 275.69 438.426 271.612 440.724L271.825 441.103L272.039 441.482C275.955 439.276 281.092 438.178 286.245 438.227L286.249 437.792ZM271.825 441.103L271.612 440.724C267.533 443.022 265.444 446.054 265.37 449.104L265.805 449.115L266.24 449.126C266.304 446.491 268.115 443.693 272.039 441.482L271.825 441.103ZM265.805 449.115L265.37 449.104C265.296 452.154 267.236 455.225 271.215 457.602L271.438 457.228L271.662 456.855C267.843 454.573 266.176 451.753 266.24 449.125L265.805 449.115ZM271.438 457.228L271.131 457.536L271.132 457.537L271.439 457.229L271.747 456.921L271.746 456.92L271.438 457.228ZM271.439 457.229L271.215 457.602C275.175 459.979 280.413 461.198 285.68 461.247L285.684 460.812L285.688 460.377C280.534 460.329 275.458 459.134 271.663 456.856L271.439 457.229ZM285.684 460.812L285.68 461.247C290.946 461.297 296.242 460.178 300.321 457.88L300.107 457.501L299.894 457.121C295.978 459.327 290.84 460.425 285.688 460.377L285.684 460.812ZM300.107 457.501L300.321 457.88C304.4 455.582 306.488 452.551 306.563 449.501L306.128 449.49L305.693 449.479C305.628 452.113 303.817 454.911 299.894 457.122L300.107 457.501ZM306.128 449.49L306.563 449.501C306.637 446.45 304.697 443.379 300.717 441.002L300.494 441.376L300.271 441.749C304.09 444.031 305.757 446.852 305.693 449.479L306.128 449.49ZM300.494 441.376L300.802 441.068L300.801 441.067L300.493 441.375L300.185 441.682L300.186 441.683L300.494 441.376ZM300.493 441.375L300.717 441.002C296.757 438.624 291.52 437.406 286.253 437.357L286.249 437.792L286.245 438.227C291.399 438.275 296.474 439.47 300.269 441.748L300.493 441.375Z" fill="#082422"/>
<path d="M306.536 449.166C306.457 446.234 304.516 443.302 300.715 441.044C292.795 436.29 279.767 436.171 271.609 440.767L271.728 435.735C279.806 431.179 292.755 431.337 300.596 436.013C304.358 438.271 306.298 441.163 306.378 444.095C306.417 445.799 306.457 447.502 306.536 449.206V449.166Z" fill="#0A9D9C" stroke="#082422" stroke-width="0.870411"/>
<path d="M265.549 443.936C265.668 440.925 267.727 437.954 271.727 435.695L271.608 440.727C267.569 442.985 265.47 445.996 265.391 449.047C265.43 447.343 265.509 445.64 265.549 443.936Z" fill="#0A9D9C" stroke="#082422" stroke-width="0.870411"/>
<path d="M265.357 449.046C265.397 447.343 265.476 445.639 265.516 443.936C265.397 446.986 267.337 450.077 271.297 452.414C279.177 457.129 292.087 457.248 300.165 452.691C304.363 450.314 306.461 447.184 306.343 444.015C306.343 444.252 306.343 444.53 306.343 444.768C306.343 444.847 306.343 444.966 306.343 445.005C306.343 445.52 306.343 446.035 306.382 446.55C306.382 447.382 306.422 448.254 306.461 449.086C306.541 452.256 304.481 455.465 300.244 457.842C292.087 462.438 279.059 462.279 271.139 457.565C267.139 455.187 265.199 452.058 265.318 449.007L265.357 449.046Z" fill="#2BF2F1" stroke="#082422" stroke-width="0.870411"/>
<path d="M268.688 452.693C261.442 448.493 257.719 440.41 262.748 432.922C264.016 431.1 265.718 429.515 267.54 428.247C268.015 427.93 268.728 427.495 269.243 427.217C269.876 426.861 270.748 426.94 271.698 427.495C263.54 432.051 263.382 439.618 271.302 444.333C279.222 449.048 292.21 449.206 300.368 444.61C308.525 440.054 308.684 432.487 300.764 427.772C292.844 423.057 279.855 422.899 271.698 427.495C270.748 426.94 269.876 426.861 269.243 427.217C278.747 421.987 292.131 421.987 301.635 426.663C309.001 430.228 313.95 437.597 310.347 445.442C308.09 449.959 304.526 452.415 299.893 454.436C291.498 458.081 277.677 458.16 268.688 452.653V452.693Z" fill="#0A9D9C"/>
<path d="M269.243 427.217C268.728 427.495 268.015 427.93 267.54 428.247C265.718 429.515 264.016 431.1 262.748 432.922C257.719 440.41 261.442 448.493 268.688 452.693V452.653C277.677 458.16 291.498 458.081 299.893 454.436C304.526 452.415 308.09 449.959 310.347 445.442C313.95 437.597 309.001 430.228 301.635 426.663C292.131 421.987 278.747 421.987 269.243 427.217ZM269.243 427.217C269.876 426.861 270.748 426.94 271.698 427.495M271.698 427.495C263.54 432.051 263.382 439.618 271.302 444.333C279.222 449.048 292.21 449.206 300.368 444.61C308.525 440.054 308.684 432.487 300.764 427.772C292.844 423.057 279.855 422.899 271.698 427.495Z" stroke="#082422" stroke-width="0.870411"/>
<path d="M306.504 435.419C306.227 432.646 304.286 429.951 300.722 427.812C292.802 423.097 279.814 422.939 271.656 427.535L272.052 422.463C279.972 418.026 292.644 418.145 300.366 422.741C303.851 424.84 305.712 427.455 305.989 430.149C306.147 431.893 306.345 433.676 306.504 435.419Z" fill="#0A9D9C" stroke="#082422" stroke-width="0.870411"/>
<path d="M266.031 430.033C266.308 427.259 268.328 424.526 272.05 422.426L271.654 427.497C267.853 429.637 265.754 432.449 265.477 435.302C265.675 433.559 265.833 431.776 266.031 430.033Z" fill="#0A9D9C" stroke="#082422" stroke-width="0.870411"/>
<path d="M265.479 435.303C265.677 433.559 265.835 431.776 266.033 430.033C265.717 433.163 267.578 436.412 271.656 438.829C279.378 443.425 292.05 443.583 299.97 439.106C304.326 436.689 306.306 433.361 305.989 430.112C306.148 431.856 306.346 433.639 306.504 435.382C306.821 438.71 304.762 442.117 300.326 444.613C292.169 449.169 279.18 449.051 271.26 444.336C267.063 441.84 265.123 438.512 265.479 435.303Z" fill="#2BF2F1" stroke="#082422" stroke-width="0.870411"/>
<path d="M299.805 430.901C291.965 435.299 279.451 435.18 271.848 430.624C264.245 426.068 264.403 418.817 272.244 414.42C280.085 410.022 292.598 410.141 300.201 414.697C307.804 419.253 307.646 426.504 299.805 430.901ZM300.756 414.38C292.836 409.665 279.847 409.507 271.69 414.103C263.532 418.659 263.374 426.226 271.294 430.941C279.214 435.656 292.202 435.814 300.36 431.218C308.517 426.662 308.676 419.095 300.756 414.38Z" fill="#0A9D9C" stroke="#082422" stroke-width="0.870411"/>
<path d="M268.718 439.302C262.145 435.498 258.422 428.407 261.67 421.434C262.699 419.056 265.273 416.323 267.57 414.857C268.045 414.54 268.758 414.104 269.273 413.827C269.906 413.47 270.777 413.549 271.728 414.104C263.57 418.66 263.412 426.227 271.332 430.942C279.252 435.657 292.24 435.815 300.398 431.22C308.555 426.663 308.714 419.096 300.794 414.381C292.874 409.667 279.885 409.508 271.728 414.104C270.777 413.549 269.906 413.47 269.273 413.827C278.776 408.597 292.161 408.597 301.665 413.272C309.03 416.838 313.98 424.207 310.377 432.052C308.12 436.568 304.556 439.025 299.923 441.085C291.488 444.73 277.747 444.809 268.718 439.342V439.302Z" fill="#0A9D9C"/>
<path d="M269.273 413.827C268.758 414.104 268.045 414.54 267.57 414.857C265.273 416.323 262.699 419.056 261.67 421.434C258.422 428.407 262.145 435.498 268.718 439.302V439.342C277.747 444.809 291.488 444.73 299.923 441.085C304.556 439.025 308.12 436.568 310.377 432.052C313.98 424.207 309.03 416.838 301.665 413.272C292.161 408.597 278.776 408.597 269.273 413.827ZM269.273 413.827C269.906 413.47 270.777 413.549 271.728 414.104M271.728 414.104C263.57 418.66 263.412 426.227 271.332 430.942C279.252 435.657 292.24 435.815 300.398 431.22C308.555 426.663 308.714 419.096 300.794 414.381C292.874 409.667 279.885 409.508 271.728 414.104Z" stroke="#082422" stroke-width="0.870411"/>
<path d="M266.263 422.383C267.332 390.608 268.402 341.005 269.471 309.27C269.392 311.766 270.975 314.301 274.223 316.282C280.717 320.165 291.369 320.244 298.022 316.52C301.467 314.579 303.209 311.964 303.13 309.388C304.001 341.163 304.912 390.767 305.783 422.541C305.863 425.592 303.883 428.643 299.804 430.941C291.963 435.339 279.45 435.22 271.847 430.663C268.006 428.366 266.144 425.394 266.263 422.462V422.383Z" fill="#2BF2F1" stroke="#082422" stroke-width="0.870411"/>
<path d="M271.489 293.356C279.842 288.724 292.214 288.536 300.997 293.289L301.413 293.519L301.416 293.521C307.033 296.777 309.587 301.547 309.23 306.233C308.874 310.91 305.629 315.377 299.919 318.062C291.444 322.081 279.491 322.046 271.002 317.095V317.094C267.74 315.228 265.187 312.389 264.044 309.111C262.895 305.819 263.18 302.11 265.553 298.568L265.555 298.565C266.701 296.887 268.288 295.424 269.946 294.292L269.958 294.283C270.255 294.094 270.598 293.859 270.889 293.68C271.081 293.562 271.281 293.451 271.489 293.356Z" fill="#0A9D9C"/>
<path d="M271.489 293.356L271.669 293.753L271.685 293.745L271.7 293.737L271.489 293.356ZM300.997 293.289L301.208 292.908L301.204 292.906L300.997 293.289ZM301.413 293.519L301.654 293.157L301.639 293.147L301.624 293.139L301.413 293.519ZM301.416 293.521L301.174 293.884L301.186 293.891L301.197 293.898L301.416 293.521ZM309.23 306.233L309.664 306.266V306.266L309.23 306.233ZM299.919 318.062L299.733 317.669L299.732 317.669L299.919 318.062ZM271.002 317.095H270.566V317.345L270.782 317.471L271.002 317.095ZM271.002 317.094H271.437V316.841L271.218 316.716L271.002 317.094ZM264.044 309.111L263.633 309.255L263.633 309.255L264.044 309.111ZM265.553 298.568L265.915 298.811L265.915 298.81L265.553 298.568ZM265.555 298.565L265.196 298.32L265.193 298.324L265.555 298.565ZM269.946 294.292L270.191 294.651L270.199 294.646L270.207 294.64L269.946 294.292ZM269.958 294.283L269.724 293.916L269.71 293.925L269.696 293.935L269.958 294.283ZM270.889 293.68L270.662 293.309L270.662 293.309L270.889 293.68ZM271.489 293.356L271.7 293.737C279.924 289.177 292.138 288.99 300.79 293.672L300.997 293.289L301.204 292.906C292.29 288.082 279.76 288.272 271.278 292.976L271.489 293.356ZM300.997 293.289L300.786 293.67L301.202 293.9L301.413 293.519L301.624 293.139L301.208 292.908L300.997 293.289ZM301.413 293.519L301.171 293.882L301.174 293.884L301.416 293.521L301.657 293.159L301.654 293.157L301.413 293.519ZM301.416 293.521L301.197 293.898C306.702 297.087 309.138 301.714 308.796 306.2L309.23 306.233L309.664 306.266C310.036 301.38 307.365 296.466 301.634 293.145L301.416 293.521ZM309.23 306.233L308.796 306.2C308.454 310.686 305.336 315.034 299.733 317.669L299.919 318.062L300.104 318.456C305.923 315.72 309.293 311.133 309.664 306.266L309.23 306.233ZM299.919 318.062L299.732 317.669C291.377 321.631 279.576 321.592 271.221 316.719L271.002 317.095L270.782 317.471C279.406 322.5 291.512 322.53 300.105 318.456L299.919 318.062ZM271.002 317.095H271.437V317.094H271.002H270.566V317.095H271.002ZM271.002 317.094L271.218 316.716C268.032 314.893 265.558 312.131 264.454 308.968L264.044 309.111L263.633 309.255C264.816 312.647 267.448 315.562 270.785 317.471L271.002 317.094ZM264.044 309.111L264.454 308.968C263.351 305.803 263.618 302.238 265.915 298.811L265.553 298.568L265.192 298.326C262.741 301.983 262.44 305.834 263.633 309.255L264.044 309.111ZM265.553 298.568L265.915 298.81L265.917 298.807L265.555 298.565L265.193 298.324L265.191 298.327L265.553 298.568ZM265.555 298.565L265.915 298.811C267.023 297.186 268.568 295.761 270.191 294.651L269.946 294.292L269.7 293.933C268.009 295.088 266.379 296.587 265.196 298.32L265.555 298.565ZM269.946 294.292L270.207 294.64L270.219 294.631L269.958 294.283L269.696 293.935L269.685 293.944L269.946 294.292ZM269.958 294.283L270.191 294.65C270.514 294.445 270.823 294.231 271.117 294.05L270.889 293.68L270.662 293.309C270.373 293.486 269.995 293.743 269.724 293.916L269.958 294.283ZM270.889 293.68L271.117 294.05C271.299 293.939 271.482 293.838 271.669 293.753L271.489 293.356L271.309 292.96C271.08 293.064 270.864 293.185 270.662 293.309L270.889 293.68Z" fill="#082422"/>
<path d="M367.202 0L242.345 21.6718L242.227 66.838L366.806 138.826L491.425 210.775L491.544 165.609L367.202 0Z" fill="#2BF2F1" stroke="#082422" stroke-width="0.870411"/>
<path d="M491.429 210.775L242.23 66.8379L51.2422 177.772L300.441 321.749L491.429 210.775Z" fill="#2BF2F1" stroke="#082422" stroke-width="0.870411"/>
<path d="M61.9698 146.156L252.918 35.1816L252.839 59.8249L61.8906 170.759L61.9698 146.156Z" fill="#0A9D9C" stroke="#082422" stroke-width="0.870411"/>
<path d="M366.846 125.674L252.839 59.8262L61.8906 170.761L175.897 236.608L289.864 302.456L480.852 191.521L366.846 125.674Z" fill="#0A9D9C" stroke="#082422" stroke-width="0.870411"/>
<path d="M180.409 123.85L294.139 275.394L294.06 300.037L180.093 234.19L66.0859 168.342L66.1651 143.699L180.409 123.85Z" fill="#0A9D9C" stroke="#082422" stroke-width="0.870411"/>
<path d="M289.946 277.851L480.895 166.877L480.855 191.52L289.867 302.455L289.946 277.851Z" fill="#082422" stroke="#082422" stroke-width="0.870411"/>
<path d="M51.3516 132.606L242.339 21.6718L367.196 0L176.248 110.934L51.3516 132.606Z" fill="#2BF2F1" stroke="#082422" stroke-width="0.870411"/>
<path d="M176.25 110.934L367.198 0L491.54 165.609L300.552 276.583L176.25 110.934Z" fill="#2BF2F1" stroke="#082422" stroke-width="0.870411"/>
<path d="M176.257 110.934L300.6 276.582L300.481 321.749L175.862 249.76L51.2422 177.772L51.361 132.605L176.218 110.934H176.257ZM289.868 302.454L289.947 277.811L176.218 126.266L61.9736 146.116L61.8944 170.759L175.901 236.606L289.908 302.454H289.868Z" fill="#2BF2F1" stroke="#082422" stroke-width="0.870411"/>
<path d="M300.556 276.583L491.544 165.609L491.425 210.776L300.438 321.75L300.556 276.583Z" fill="#0A9D9C" stroke="#082422" stroke-width="0.870411"/>
<mask id="mask0_14997_18407" style="mask-type:luminance" maskUnits="userSpaceOnUse" x="148" y="144" width="55" height="75">
<path d="M189.124 218.62L194.113 215.727C199.221 212.756 202.35 206.457 202.389 197.503C202.429 179.476 189.757 157.527 174.076 148.454C166.196 143.897 159.028 143.462 153.88 146.473L148.891 149.365C154.039 146.354 161.206 146.79 169.086 151.346C184.768 160.419 197.439 182.368 197.4 200.395C197.4 209.349 194.232 215.648 189.124 218.62Z" fill="white" stroke="white" stroke-width="0.870411"/>
</mask>
<g mask="url(#mask0_14997_18407)">
<path d="M189.124 218.62L194.113 215.727C199.221 212.756 202.35 206.457 202.389 197.503C202.429 179.476 189.757 157.527 174.076 148.454C166.196 143.897 159.028 143.462 153.88 146.473L148.891 149.365C154.039 146.354 161.206 146.79 169.086 151.346C184.768 160.419 197.439 182.368 197.4 200.395C197.4 209.349 194.232 215.648 189.124 218.62Z" fill="#B3D000" stroke="#082422" stroke-width="0.870411"/>
</g>
<path d="M197.403 200.394C197.442 182.367 184.77 160.418 169.089 151.345C157.685 144.768 147.864 146.789 143.31 155.307C141.607 158.516 140.617 162.637 140.617 167.589C140.617 173.136 141.805 179.039 143.904 184.824C148.656 197.898 158.081 210.339 168.931 216.598C184.612 225.671 197.363 218.381 197.403 200.354V200.394Z" fill="#DCFF00" stroke="#082422" stroke-width="0.870411"/>
<path d="M172.489 163.35V166.916C177.598 171.076 180.884 176.781 181.122 182.883L172.41 177.851C172.291 175.315 170.787 173.017 168.609 171.71C168.569 171.71 168.529 171.67 168.49 171.631C166.629 170.561 165.243 170.878 165.243 173.216C165.243 179.832 181.558 186.25 181.518 198.968C181.518 204.475 178.271 207.328 172.37 205.109V208.556L165.639 204.673V201.108C160.451 196.868 156.768 190.886 156.57 184.547L165.124 189.499C165.361 192.55 166.945 194.887 169.203 196.195C171.539 197.542 173.044 197.066 173.083 194.848C173.083 187.835 156.57 182.051 156.729 168.659C156.729 162.558 160.451 160.894 165.757 162.954V159.547L172.489 163.43V163.35Z" fill="#002522"/>
</g>
<defs>
<clipPath id="clip0_14997_18407">
<rect width="526" height="533" fill="white"/>
</clipPath>
</defs>
</svg>
