<svg width="96" height="97" viewBox="0 0 96 97" fill="none" xmlns="http://www.w3.org/2000/svg">
<path d="M43.9698 41.5869L1.00001 66.3908L52.0302 95.8583L95 71.0473L43.9698 41.5869Z" fill="#EFEBE7" stroke="#082422"/>
<path d="M43.9698 39.1314L1.00001 63.9353L52.0302 93.4027L95 68.5918L43.9698 39.1314Z" fill="#EFEBE7" stroke="#082422"/>
<path d="M1.00001 63.9353V66.3909L52.0302 95.8584V93.4027L1.00001 63.9353Z" fill="#CFCABF" stroke="#082422"/>
<path d="M95.0002 68.5917V71.0474L52.0304 95.8583V93.4027L95.0002 68.5917Z" fill="#CFCABF" stroke="#082422"/>
<path d="M44.2883 41.3818L4.70828 64.2254L51.7118 91.3646L91.2848 68.5139L44.2883 41.3818Z" fill="#EFEBE7" stroke="#082422"/>
<path d="M44.2885 38.8979L4.70839 61.7486L51.7119 88.8808L91.2849 66.0371L44.2885 38.8979Z" fill="#EFEBE7" stroke="#082422"/>
<path d="M4.70828 61.7487V64.2256L51.7118 91.3648V88.8808L4.70828 61.7487Z" fill="#CFCABF" stroke="#082422"/>
<path d="M91.2847 66.0371V68.5139L51.7118 91.3646V88.8807L91.2847 66.0371Z" fill="#CFCABF" stroke="#082422"/>
<path d="M88.822 38.3035V66.0372L66.8771 78.7045V51.0558L88.822 38.3035Z" fill="#CFCABF" stroke="#082422"/>
<path d="M44.2883 12.5938V40.3204L22.3434 52.9948V25.3461L44.2883 12.5938Z" fill="#CFCABF" stroke="#082422"/>
<path d="M22.3434 25.3461L66.8772 51.0558V78.7045L22.3434 52.9948V25.3461Z" fill="#EFEBE7" stroke="#082422"/>
<path d="M44.2883 12.5938L88.822 38.3035L66.8771 51.0558L22.3434 25.3461L44.2883 12.5938Z" fill="#CFCABF" stroke="#082422"/>
<path d="M9.20453 61.3665V60.2554C9.20453 61.0339 9.70697 61.8123 10.7189 62.4138C12.7712 63.6381 16.1468 63.6735 18.2556 62.4917C19.3313 61.8902 19.8691 61.0905 19.8691 60.2837V61.3948C19.8691 62.2015 19.3242 63.0012 18.2486 63.6027C16.1397 64.7845 12.7641 64.7562 10.7119 63.5249C9.69989 62.9233 9.20453 62.1449 9.20453 61.3665Z" fill="#CFCABF" stroke="#082422"/>
<path d="M13.7847 55.6995C13.9802 55.6832 14.6362 55.6378 15.4175 55.7132C15.4242 55.7136 15.4322 55.7145 15.4399 55.7151C15.442 55.7153 15.4447 55.7149 15.4468 55.7151L15.4458 55.7161C15.5556 55.7249 15.7519 55.7442 15.9946 55.7845L16.2759 55.8362L16.2817 55.8372C16.5066 55.8845 16.6988 55.9342 16.8354 55.971C16.8657 55.9791 16.894 55.9867 16.9184 55.9934H16.9311L17.0718 56.0354C18.5693 56.4862 20.5735 57.6318 20.8472 59.8499L20.855 59.9104V59.9456C20.9205 60.6364 20.7732 61.2955 20.396 61.8909C20.0167 62.4896 19.4428 62.9692 18.7554 63.3655L18.7446 63.3714C17.5027 64.0673 15.9491 64.3771 14.4556 64.3616C12.9628 64.3461 11.4211 64.0041 10.2065 63.2796L10.2056 63.2786C9.01819 62.5678 8.21141 61.5116 8.21141 60.262C8.21166 58.5601 9.38154 57.3031 10.5815 56.6292V56.6282C11.1021 56.3295 11.5939 56.1456 12.1235 55.9954C12.8772 55.7773 13.5286 55.7217 13.7798 55.6995H13.7847ZM14.5854 58.135C13.775 58.1275 13.011 58.3027 12.4692 58.6077C11.9188 58.9177 11.8645 59.1907 11.8628 59.2571C11.8615 59.308 11.8855 59.5148 12.2446 59.7766L12.4204 59.8919L12.4224 59.8929C12.9405 60.2037 13.6901 60.394 14.5015 60.4016C15.312 60.4093 16.0769 60.234 16.6186 59.929C17.1686 59.6192 17.2233 59.3461 17.2251 59.2796C17.2265 59.2213 17.1947 58.9586 16.6675 58.6438L16.6655 58.6429C16.1473 58.3319 15.3969 58.1427 14.5854 58.135Z" fill="#CFCABF"/>
<path d="M13.7847 55.6995V56.1995H13.8055L13.8262 56.1978L13.7847 55.6995ZM15.4175 55.7132L15.3694 56.211L15.3818 56.2119L15.4175 55.7132ZM15.4399 55.7151L15.4893 55.2175L15.4792 55.2167L15.4399 55.7151ZM15.4468 55.7151L15.8003 56.0687L16.5581 55.3109L15.4906 55.217L15.4468 55.7151ZM15.4458 55.7161L15.0922 55.3625L14.3268 56.128L15.4058 56.2145L15.4458 55.7161ZM15.9946 55.7845L16.0851 55.2926L16.0763 55.2912L15.9946 55.7845ZM16.2759 55.8362L16.1854 56.328L16.1937 56.3294L16.2759 55.8362ZM16.2817 55.8372L16.3847 55.3479L16.3744 55.3457L16.3639 55.344L16.2817 55.8372ZM16.8354 55.971L16.9655 55.4882L16.9655 55.4882L16.8354 55.971ZM16.9184 55.9934L16.785 56.4753L16.8505 56.4934H16.9184V55.9934ZM16.9311 55.9934L17.0742 55.5143L17.0042 55.4934H16.9311V55.9934ZM17.0718 56.0354L17.2159 55.5567L17.2148 55.5563L17.0718 56.0354ZM20.8472 59.8499L20.3509 59.9111L20.3513 59.9139L20.8472 59.8499ZM20.855 59.9104H21.355V59.8783L21.3509 59.8464L20.855 59.9104ZM20.855 59.9456H20.355V59.9692L20.3572 59.9928L20.855 59.9456ZM20.396 61.8909L20.8184 62.1585L20.8184 62.1585L20.396 61.8909ZM18.7554 63.3655L18.9949 63.8046L19.0051 63.7987L18.7554 63.3655ZM18.7446 63.3714L18.5052 62.9324L18.5002 62.9352L18.7446 63.3714ZM14.4556 64.3616L14.4504 64.8616H14.4504L14.4556 64.3616ZM10.2065 63.2796L9.85298 63.6331L9.89696 63.6771L9.95038 63.709L10.2065 63.2796ZM10.2056 63.2786L10.5591 62.925L10.5154 62.8813L10.4624 62.8496L10.2056 63.2786ZM8.21141 60.262L7.71141 60.2619V60.262H8.21141ZM10.5815 56.6292L10.8264 57.0651L11.0815 56.9218V56.6292H10.5815ZM10.5815 56.6282L10.3327 56.1945L10.0815 56.3386V56.6282H10.5815ZM12.1235 55.9954L12.2599 56.4764L12.2625 56.4757L12.1235 55.9954ZM13.7798 55.6995V55.1995H13.7578L13.7358 55.2014L13.7798 55.6995ZM14.5854 58.135L14.5901 57.6351L14.5901 57.6351L14.5854 58.135ZM12.4692 58.6077L12.2239 58.172L12.2239 58.172L12.4692 58.6077ZM11.8628 59.2571L11.3629 59.2443L11.3629 59.2449L11.8628 59.2571ZM12.2446 59.7766L11.9501 60.1807L11.9601 60.188L11.9705 60.1948L12.2446 59.7766ZM12.4204 59.8919L12.1463 60.31L12.1707 60.326L12.1968 60.3391L12.4204 59.8919ZM12.4224 59.8929L12.6796 59.4641L12.6631 59.4542L12.646 59.4456L12.4224 59.8929ZM14.5015 60.4016L14.4967 60.9016L14.4968 60.9016L14.5015 60.4016ZM16.6186 59.929L16.864 60.3647L16.864 60.3646L16.6186 59.929ZM17.2251 59.2796L17.7249 59.2927L17.7249 59.2915L17.2251 59.2796ZM16.6675 58.6438L16.9238 58.2145L16.9078 58.205L16.8911 58.1966L16.6675 58.6438ZM16.6655 58.6429L16.4083 59.0716L16.4248 59.0815L16.4419 59.0901L16.6655 58.6429ZM13.7847 55.6995L13.8262 56.1978C14.0071 56.1827 14.63 56.1395 15.3694 56.2109L15.4175 55.7132L15.4655 55.2155C14.6424 55.136 13.9533 55.1837 13.7431 55.2012L13.7847 55.6995ZM15.4175 55.7132L15.3818 56.2119C15.3801 56.2118 15.3792 56.2117 15.3795 56.2117C15.3798 56.2117 15.3804 56.2118 15.3823 56.212C15.3838 56.2121 15.3866 56.2124 15.3895 56.2126C15.3924 56.2129 15.3963 56.2132 15.4006 56.2136L15.4399 55.7151L15.4792 55.2167C15.4795 55.2167 15.4794 55.2167 15.4744 55.2162C15.4724 55.216 15.4694 55.2158 15.4661 55.2155C15.4627 55.2152 15.4582 55.2148 15.4531 55.2144L15.4175 55.7132ZM15.4399 55.7151L15.3906 56.2127C15.4035 56.214 15.4147 56.2146 15.4236 56.2149C15.4325 56.2152 15.4401 56.2152 15.4457 56.2152C15.4514 56.2151 15.456 56.215 15.4589 56.2149C15.4616 56.2148 15.4639 56.2147 15.4641 56.2147C15.465 56.2147 15.4635 56.2147 15.4618 56.2148C15.4599 56.2148 15.4563 56.215 15.4516 56.215C15.447 56.2151 15.4405 56.2151 15.4326 56.2149C15.4248 56.2147 15.4147 56.2142 15.403 56.2132L15.4468 55.7151L15.4906 55.217C15.4783 55.216 15.4677 55.2155 15.4593 55.2153C15.4509 55.215 15.4438 55.215 15.4386 55.2151C15.4334 55.2152 15.4291 55.2153 15.4267 55.2154C15.4254 55.2154 15.4243 55.2155 15.4237 55.2155C15.4233 55.2155 15.4231 55.2155 15.4229 55.2155C15.4228 55.2155 15.4227 55.2156 15.4227 55.2156C15.4226 55.2156 15.4226 55.2156 15.4226 55.2156C15.4222 55.2156 15.4239 55.2155 15.426 55.2154C15.4283 55.2154 15.4324 55.2152 15.4374 55.2152C15.4425 55.2152 15.4495 55.2152 15.4579 55.2155C15.4662 55.2158 15.4769 55.2163 15.4893 55.2176L15.4399 55.7151ZM15.4468 55.7151L15.0932 55.3616L15.0922 55.3625L15.4458 55.7161L15.7993 56.0696L15.8003 56.0687L15.4468 55.7151ZM15.4458 55.7161L15.4058 56.2145C15.5052 56.2225 15.6871 56.2403 15.9129 56.2777L15.9946 55.7845L16.0763 55.2912C15.8168 55.2482 15.6061 55.2273 15.4858 55.2177L15.4458 55.7161ZM15.9946 55.7845L15.9041 56.2762L16.1854 56.328L16.2759 55.8362L16.3664 55.3445L16.0851 55.2927L15.9946 55.7845ZM16.2759 55.8362L16.1937 56.3294L16.1995 56.3304L16.2817 55.8372L16.3639 55.344L16.3581 55.343L16.2759 55.8362ZM16.2817 55.8372L16.1787 56.3265C16.3911 56.3712 16.5736 56.4183 16.7053 56.4538L16.8354 55.971L16.9655 55.4882C16.824 55.4501 16.622 55.3979 16.3847 55.3479L16.2817 55.8372ZM16.8354 55.971L16.7053 56.4538C16.7379 56.4625 16.7627 56.4691 16.785 56.4753L16.9184 55.9934L17.0519 55.5116C17.0252 55.5042 16.9935 55.4957 16.9655 55.4882L16.8354 55.971ZM16.9184 55.9934V56.4934H16.9311V55.9934V55.4934H16.9184V55.9934ZM16.9311 55.9934L16.7881 56.4725L16.9287 56.5145L17.0718 56.0354L17.2148 55.5563L17.0742 55.5143L16.9311 55.9934ZM17.0718 56.0354L16.9276 56.5142C18.3727 56.9492 20.1152 58.0006 20.3509 59.9111L20.8472 59.8499L21.3434 59.7887C21.0318 57.2629 18.7659 56.0232 17.2159 55.5567L17.0718 56.0354ZM20.8472 59.8499L20.3513 59.9139L20.3591 59.9744L20.855 59.9104L21.3509 59.8464L21.343 59.7859L20.8472 59.8499ZM20.855 59.9104H20.355V59.9456H20.855H21.355V59.9104H20.855ZM20.855 59.9456L20.3572 59.9928C20.4126 60.5777 20.2891 61.1253 19.9736 61.6233L20.396 61.8909L20.8184 62.1585C21.2573 61.4656 21.4283 60.695 21.3527 59.8984L20.855 59.9456ZM20.396 61.8909L19.9736 61.6233C19.6516 62.1316 19.1498 62.561 18.5056 62.9323L18.7554 63.3655L19.0051 63.7987C19.7359 63.3774 20.3818 62.8476 20.8184 62.1585L20.396 61.8909ZM18.7554 63.3655L18.5159 62.9266L18.5052 62.9324L18.7446 63.3714L18.984 63.8103L18.9948 63.8045L18.7554 63.3655ZM18.7446 63.3714L18.5002 62.9352C17.3522 63.5785 15.8897 63.8764 14.4607 63.8616L14.4556 64.3616L14.4504 64.8616C16.0084 64.8777 17.6532 64.5561 18.989 63.8075L18.7446 63.3714ZM14.4556 64.3616L14.4607 63.8616C13.0322 63.8468 11.5829 63.5184 10.4627 62.8502L10.2065 63.2796L9.95038 63.709C11.2592 64.4898 12.8934 64.8454 14.4504 64.8616L14.4556 64.3616ZM10.2065 63.2796L10.5601 62.926L10.5591 62.925L10.2056 63.2786L9.852 63.6321L9.85298 63.6331L10.2065 63.2796ZM10.2056 63.2786L10.4624 62.8496C9.36453 62.1924 8.71141 61.2745 8.71141 60.262H8.21141H7.71141C7.71141 61.7488 8.67185 62.9432 9.94874 63.7076L10.2056 63.2786ZM8.21141 60.262L8.71141 60.2621C8.71162 58.8095 9.71331 57.6903 10.8264 57.0651L10.5815 56.6292L10.3367 56.1932C9.04977 56.916 7.7117 58.3107 7.71141 60.2619L8.21141 60.262ZM10.5815 56.6292H11.0815V56.6282H10.5815H10.0815V56.6292H10.5815ZM10.5815 56.6282L10.8304 57.0619C11.3065 56.7887 11.7581 56.6188 12.2599 56.4764L12.1235 55.9954L11.9871 55.5144C11.4298 55.6724 10.8978 55.8703 10.3327 56.1945L10.5815 56.6282ZM12.1235 55.9954L12.2625 56.4757C12.9673 56.2718 13.5784 56.2192 13.8237 56.1976L13.7798 55.6995L13.7358 55.2014C13.4788 55.2241 12.7872 55.2829 11.9846 55.5151L12.1235 55.9954ZM13.7798 55.6995V56.1995H13.7847V55.6995V55.1995H13.7798V55.6995ZM14.5854 58.135L14.5901 57.6351C13.7144 57.6269 12.8592 57.8143 12.2239 58.172L12.4692 58.6077L12.7145 59.0434C13.1627 58.791 13.8356 58.628 14.5808 58.635L14.5854 58.135ZM12.4692 58.6077L12.2239 58.172C11.5771 58.5363 11.3706 58.9452 11.3629 59.2443L11.8628 59.2571L12.3626 59.2699C12.3584 59.4362 12.2605 59.2991 12.7146 59.0434L12.4692 58.6077ZM11.8628 59.2571L11.3629 59.2449C11.3568 59.4964 11.491 59.846 11.9501 60.1807L12.2446 59.7766L12.5392 59.3726C12.4056 59.2752 12.3638 59.2096 12.3551 59.1939C12.347 59.1794 12.3642 59.2032 12.3626 59.2693L11.8628 59.2571ZM12.2446 59.7766L11.9705 60.1948L12.1463 60.31L12.4204 59.8919L12.6945 59.4737L12.5187 59.3585L12.2446 59.7766ZM12.4204 59.8919L12.1968 60.3391L12.1987 60.3401L12.4224 59.8929L12.646 59.4456L12.644 59.4447L12.4204 59.8919ZM12.4224 59.8929L12.1651 60.3216C12.7778 60.6892 13.6203 60.8933 14.4967 60.9016L14.5015 60.4016L14.5062 59.9017C13.7599 59.8946 13.1032 59.7183 12.6796 59.4641L12.4224 59.8929ZM14.5015 60.4016L14.4968 60.9016C15.3725 60.9098 16.2286 60.7224 16.864 60.3647L16.6186 59.929L16.3733 59.4933C15.9252 59.7456 15.2515 59.9087 14.5062 59.9017L14.5015 60.4016ZM16.6186 59.929L16.864 60.3646C17.5103 60.0006 17.717 59.5918 17.7249 59.2927L17.2251 59.2796L16.7253 59.2664C16.7296 59.1004 16.827 59.2378 16.3733 59.4933L16.6186 59.929ZM17.2251 59.2796L17.7249 59.2915C17.7319 58.998 17.552 58.5896 16.9238 58.2145L16.6675 58.6438L16.4111 59.0731C16.6276 59.2023 16.7043 59.2984 16.7265 59.3322C16.7466 59.3629 16.7234 59.3439 16.7252 59.2677L17.2251 59.2796ZM16.6675 58.6438L16.8911 58.1966L16.8891 58.1956L16.6655 58.6429L16.4419 59.0901L16.4439 59.091L16.6675 58.6438ZM16.6655 58.6429L16.9227 58.2141C16.3096 57.8463 15.4661 57.6433 14.5901 57.6351L14.5854 58.135L14.5807 58.635C15.3277 58.642 15.9849 58.8176 16.4083 59.0716L16.6655 58.6429Z" fill="#082422"/>
<path d="M18.2199 59.2435C18.2058 58.7198 17.859 58.1961 17.1796 57.7928C15.7643 56.9436 13.4361 56.9223 11.9782 57.7432L11.9995 56.8445C13.4431 56.0307 15.7572 56.059 17.1584 56.894C17.8307 57.2974 18.1775 57.814 18.1916 58.3377C18.1987 58.642 18.2058 58.9463 18.2199 59.2506V59.2435Z" fill="#CFCABF" stroke="#082422"/>
<path d="M10.8956 58.3093C10.9168 57.7715 11.2848 57.2407 11.9996 56.8373L11.9783 57.7361C11.2565 58.1395 10.8815 58.6773 10.8673 59.2222C10.8744 58.9179 10.8885 58.6136 10.8956 58.3093Z" fill="#CFCABF" stroke="#082422"/>
<path d="M10.8603 59.2223C10.8674 58.918 10.8816 58.6137 10.8886 58.3094C10.8674 58.8543 11.2142 59.4063 11.9219 59.8238C13.3301 60.666 15.6371 60.6872 17.0808 59.8734C17.8309 59.4488 18.206 58.8897 18.1847 58.3236C18.1847 58.366 18.1847 58.4156 18.1847 58.458C18.1847 58.4722 18.1847 58.4934 18.1847 58.5005C18.1847 58.5925 18.1847 58.6845 18.1918 58.7765C18.1918 58.9251 18.1989 59.0808 18.206 59.2294C18.2201 59.7955 17.8521 60.3687 17.0949 60.7933C15.6371 61.6142 13.3089 61.5859 11.8935 60.7438C11.1788 60.3192 10.832 59.7601 10.8533 59.2152L10.8603 59.2223Z" fill="#EFEBE7" stroke="#082422"/>
<path d="M11.4546 59.8734C10.1596 59.1233 9.49439 57.6796 10.3931 56.3421C10.6196 56.0166 10.9239 55.7335 11.2494 55.5071C11.3343 55.4505 11.4617 55.3726 11.5537 55.3231C11.6669 55.2594 11.8226 55.2736 11.9925 55.3726C10.5347 56.1864 10.5064 57.5381 11.9217 58.3802C13.3371 59.2224 15.6582 59.2507 17.116 58.4298C18.5738 57.6159 18.6021 56.2643 17.1868 55.4222C15.7714 54.58 13.4503 54.5517 11.9925 55.3726C11.8226 55.2736 11.6669 55.2594 11.5537 55.3231C13.2521 54.389 15.6441 54.389 17.3425 55.224C18.6587 55.8609 19.5433 57.1772 18.8994 58.5784C18.496 59.3851 17.8591 59.8239 17.0311 60.1848C15.5308 60.8359 13.0611 60.85 11.4546 59.8663V59.8734Z" fill="#CFCABF"/>
<path d="M11.5537 55.3231C11.4617 55.3726 11.3343 55.4505 11.2494 55.5071C10.9239 55.7335 10.6196 56.0166 10.3931 56.3421C9.49439 57.6796 10.1596 59.1233 11.4546 59.8734V59.8663C13.0611 60.85 15.5308 60.8359 17.0311 60.1848C17.8591 59.8239 18.496 59.3851 18.8994 58.5784C19.5433 57.1772 18.6587 55.8609 17.3425 55.224C15.6441 54.389 13.2521 54.389 11.5537 55.3231ZM11.5537 55.3231C11.6669 55.2594 11.8226 55.2736 11.9925 55.3726M11.9925 55.3726C10.5347 56.1864 10.5064 57.5381 11.9217 58.3802C13.3371 59.2224 15.6582 59.2507 17.116 58.4298C18.5738 57.6159 18.6021 56.2643 17.1868 55.4222C15.7714 54.58 13.4503 54.5517 11.9925 55.3726Z" stroke="#082422"/>
<path d="M18.2129 56.7878C18.1633 56.2924 17.8166 55.8112 17.1797 55.4291C15.7643 54.5869 13.4432 54.5586 11.9854 55.3795L12.0561 54.4737C13.4715 53.6811 15.736 53.7023 17.116 54.5232C17.7387 54.8983 18.0714 55.3654 18.1209 55.8466C18.1492 56.158 18.1846 56.4764 18.2129 56.7878Z" fill="#CFCABF" stroke="#082422"/>
<path d="M10.9805 55.8254C11.03 55.33 11.3909 54.8417 12.0561 54.4667L11.9853 55.3725C11.306 55.7546 10.9309 56.2571 10.8814 56.7666C10.9168 56.4552 10.9451 56.1368 10.9805 55.8254Z" fill="#CFCABF" stroke="#082422"/>
<path d="M10.8811 56.7665C10.9165 56.4552 10.9448 56.1367 10.9802 55.8253C10.9236 56.3844 11.2562 56.9647 11.9851 57.3964C13.3651 58.2173 15.6296 58.2456 17.045 57.4459C17.8234 57.0142 18.1772 56.4198 18.1206 55.8395C18.1489 56.1509 18.1843 56.4693 18.2126 56.7807C18.2692 57.3751 17.9012 57.9837 17.1087 58.4296C15.6509 59.2434 13.3297 59.2222 11.9143 58.38C11.1642 57.9342 10.8175 57.3398 10.8811 56.7665Z" fill="#EFEBE7" stroke="#082422"/>
<path d="M17.017 55.9812C15.6158 56.7667 13.3795 56.7455 12.0208 55.9316C10.6621 55.1178 10.6904 53.8228 12.0916 53.0373C13.4928 52.2517 15.729 52.273 17.0877 53.0868C18.4465 53.9006 18.4182 55.1957 17.017 55.9812ZM17.1868 53.0302C15.7715 52.1881 13.4503 52.1597 11.9925 52.9806C10.5347 53.7945 10.5064 55.1461 11.9217 55.9882C13.3371 56.8304 15.6582 56.8587 17.116 56.0378C18.5738 55.224 18.6021 53.8723 17.1868 53.0302Z" fill="#CFCABF" stroke="#082422"/>
<path d="M11.4617 57.4813C10.287 56.802 9.62175 55.5352 10.202 54.2897C10.386 53.8651 10.846 53.3768 11.2565 53.115C11.3414 53.0584 11.4688 52.9805 11.5608 52.931C11.674 52.8673 11.8297 52.8815 11.9995 52.9805C10.5417 53.7944 10.5134 55.146 11.9288 55.9881C13.3441 56.8303 15.6653 56.8586 17.1231 56.0377C18.5809 55.2239 18.6092 53.8722 17.1938 53.0301C15.7785 52.1879 13.4573 52.1596 11.9995 52.9805C11.8297 52.8815 11.674 52.8673 11.5608 52.931C13.2592 51.9969 15.6511 51.9969 17.3495 52.8319C18.6658 53.4688 19.5504 54.7851 18.9064 56.1863C18.503 56.993 17.8661 57.4318 17.0381 57.7998C15.5308 58.4508 13.0752 58.465 11.4617 57.4884V57.4813Z" fill="#CFCABF"/>
<path d="M11.5608 52.931C11.4688 52.9805 11.3414 53.0584 11.2565 53.115C10.846 53.3768 10.386 53.8651 10.202 54.2897C9.62175 55.5352 10.287 56.802 11.4617 57.4813V57.4884C13.0752 58.465 15.5308 58.4508 17.0381 57.7998C17.8661 57.4318 18.503 56.993 18.9064 56.1863C19.5504 54.7851 18.6658 53.4688 17.3495 52.8319C15.6511 51.9969 13.2592 51.9969 11.5608 52.931ZM11.5608 52.931C11.674 52.8673 11.8297 52.8815 11.9995 52.9805M11.9995 52.9805C10.5417 53.7944 10.5134 55.146 11.9288 55.9881C13.3441 56.8303 15.6653 56.8586 17.1231 56.0377C18.5809 55.2239 18.6092 53.8722 17.1938 53.0301C15.7785 52.1879 13.4573 52.1596 11.9995 52.9805Z" stroke="#082422"/>
<path d="M11.0229 54.4596C11.2139 48.784 11.405 39.924 11.5961 34.2556C11.5819 34.7014 11.865 35.1543 12.4453 35.5081C13.6059 36.2016 15.5095 36.2158 16.6984 35.5506C17.3141 35.2038 17.6254 34.7368 17.6113 34.2768C17.767 39.9523 17.9297 48.8124 18.0854 54.4879C18.0996 55.0328 17.7458 55.5777 17.0168 55.9881C15.6157 56.7737 13.3794 56.7524 12.0207 55.9386C11.3342 55.5282 11.0016 54.9974 11.0229 54.4737V54.4596Z" fill="#EFEBE7" stroke="#082422"/>
<path d="M11.6048 30.5584C13.2796 29.6755 15.6125 29.6111 17.4007 30.4549L17.7581 30.6394L17.7659 30.6443C19.0103 31.3652 19.7153 32.5229 19.6194 33.783C19.5251 35.0203 18.679 36.0711 17.43 36.659L17.4309 36.66C15.667 37.4957 13.2119 37.4996 11.4114 36.4539C10.6679 36.0289 10.0434 35.3595 9.75418 34.531C9.45449 33.672 9.54194 32.7067 10.1292 31.8309L10.1341 31.823C10.4174 31.4083 10.7913 31.0696 11.1594 30.8182L11.1868 30.8006C11.2068 30.7879 11.226 30.7752 11.2571 30.7547C11.2846 30.7365 11.3245 30.7111 11.3665 30.6853C11.4158 30.6551 11.4846 30.6155 11.5686 30.5769C11.5808 30.5709 11.5926 30.5639 11.6048 30.5584Z" fill="#CFCABF"/>
<path d="M11.6048 30.5584L11.8122 31.0133L11.8252 31.0074L11.8379 31.0007L11.6048 30.5584ZM17.4007 30.4549L17.6301 30.0106L17.6221 30.0065L17.614 30.0027L17.4007 30.4549ZM17.7581 30.6394L18.0231 30.2154L18.0057 30.2046L17.9875 30.1952L17.7581 30.6394ZM17.7659 30.6443L17.5009 31.0683L17.508 31.0728L17.5153 31.077L17.7659 30.6443ZM19.6194 33.783L20.118 33.821L20.118 33.8209L19.6194 33.783ZM17.43 36.659L17.217 36.2066L16.5734 36.5095L17.0764 37.0125L17.43 36.659ZM17.4309 36.66L17.645 37.1118L18.2861 36.808L17.7845 36.3064L17.4309 36.66ZM11.4114 36.4539L11.6625 36.0215L11.6595 36.0198L11.4114 36.4539ZM9.75418 34.531L9.28208 34.6958L9.28211 34.6958L9.75418 34.531ZM10.1292 31.8309L10.5445 32.1093L10.5489 32.1026L10.5532 32.0959L10.1292 31.8309ZM10.1341 31.823L9.72122 31.541L9.71547 31.5494L9.71006 31.558L10.1341 31.823ZM11.1594 30.8182L10.889 30.3974L10.8775 30.4053L11.1594 30.8182ZM11.1868 30.8006L10.9183 30.3788L10.9164 30.38L11.1868 30.8006ZM11.2571 30.7547L10.9816 30.3375L10.9815 30.3375L11.2571 30.7547ZM11.3665 30.6853L11.105 30.2592L11.1049 30.2592L11.3665 30.6853ZM11.5686 30.5769L11.7769 31.0315L11.7837 31.0284L11.7904 31.0251L11.5686 30.5769ZM11.6048 30.5584L11.8379 31.0007C13.3728 30.1916 15.5402 30.1299 17.1873 30.9071L17.4007 30.4549L17.614 30.0027C15.6847 29.0923 13.1864 29.1594 11.3716 30.1161L11.6048 30.5584ZM17.4007 30.4549L17.1712 30.8991L17.5287 31.0837L17.7581 30.6394L17.9875 30.1952L17.6301 30.0106L17.4007 30.4549ZM17.7581 30.6394L17.4931 31.0634L17.5009 31.0683L17.7659 30.6443L18.0309 30.2203L18.0231 30.2154L17.7581 30.6394ZM17.7659 30.6443L17.5153 31.077C18.6306 31.723 19.1992 32.7157 19.1209 33.7451L19.6194 33.783L20.118 33.8209C20.2314 32.3301 19.3901 31.0073 18.0165 30.2117L17.7659 30.6443ZM19.6194 33.783L19.1209 33.745C19.0433 34.7628 18.3431 35.6766 17.217 36.2066L17.43 36.659L17.6429 37.1114C19.0149 36.4657 20.007 35.2778 20.118 33.821L19.6194 33.783ZM17.43 36.659L17.0764 37.0125L17.0774 37.0135L17.4309 36.66L17.7845 36.3064L17.7835 36.3054L17.43 36.659ZM17.4309 36.66L17.2168 36.2081C15.5893 36.9793 13.3091 36.9778 11.6625 36.0215L11.4114 36.4539L11.1603 36.8863C13.1147 38.0213 15.7448 38.0122 17.645 37.1118L17.4309 36.66ZM11.4114 36.4539L11.6595 36.0198C11.0027 35.6444 10.4694 35.0627 10.2262 34.3663L9.75418 34.531L9.28211 34.6958C9.61738 35.6563 10.3332 36.4135 11.1633 36.888L11.4114 36.4539ZM9.75418 34.531L10.2263 34.3663C9.97788 33.6544 10.0456 32.8534 10.5445 32.1093L10.1292 31.8309L9.71388 31.5524C9.03828 32.5601 8.93109 33.6897 9.28208 34.6958L9.75418 34.531ZM10.1292 31.8309L10.5532 32.0959L10.5581 32.088L10.1341 31.823L9.71006 31.558L9.70518 31.5659L10.1292 31.8309ZM10.1341 31.823L10.5469 32.1051C10.7878 31.7525 11.1128 31.4555 11.4414 31.2311L11.1594 30.8182L10.8775 30.4053C10.4699 30.6836 10.047 31.0642 9.72122 31.541L10.1341 31.823ZM11.1594 30.8182L11.4298 31.2387L11.4572 31.2212L11.1868 30.8006L10.9164 30.38L10.8891 30.3976L11.1594 30.8182ZM11.1868 30.8006L11.4553 31.2224C11.4792 31.2071 11.5017 31.1924 11.5327 31.1719L11.2571 30.7547L10.9815 30.3375C10.9503 30.3581 10.9343 30.3686 10.9183 30.3788L11.1868 30.8006ZM11.2571 30.7547L11.5326 31.1719C11.5547 31.1573 11.5898 31.1349 11.628 31.1115L11.3665 30.6853L11.1049 30.2592C11.0591 30.2873 11.0145 30.3157 10.9816 30.3375L11.2571 30.7547ZM11.3665 30.6853L11.628 31.1115C11.6663 31.088 11.7168 31.0591 11.7769 31.0315L11.5686 30.5769L11.3604 30.1224C11.2524 30.1718 11.1653 30.2222 11.105 30.2592L11.3665 30.6853ZM11.5686 30.5769L11.7904 31.0251C11.7989 31.0209 11.8062 31.0171 11.8112 31.0144C11.8137 31.0131 11.816 31.0119 11.8177 31.0109C11.8198 31.0098 11.8206 31.0094 11.8218 31.0088C11.8239 31.0076 11.8236 31.0078 11.8223 31.0085C11.8209 31.0092 11.8173 31.011 11.8122 31.0133L11.6048 30.5584L11.3973 30.1035C11.3761 30.1131 11.3584 30.1226 11.3516 30.1262C11.3462 30.1291 11.3463 30.1291 11.3442 30.1302C11.3432 30.1307 11.3444 30.13 11.3469 30.1288L11.5686 30.5769Z" fill="#082422"/>
<path d="M21.7244 68.5917V67.4807C21.7244 68.2591 22.2269 69.0375 23.2388 69.639C25.2911 70.8633 28.6667 70.8987 30.7755 69.7169C31.8512 69.1154 32.389 68.3157 32.389 67.509V68.62C32.389 69.4267 31.8441 70.2264 30.7684 70.8279C28.6596 72.0097 25.284 71.9814 23.2317 70.7501C22.2198 70.1486 21.7244 69.3701 21.7244 68.5917Z" fill="#CFCABF" stroke="#082422"/>
<path d="M26.3045 62.9249C26.5001 62.9086 27.1561 62.8632 27.9373 62.9386C27.9441 62.939 27.9521 62.9399 27.9598 62.9405C27.9619 62.9407 27.9645 62.9403 27.9666 62.9405L27.9657 62.9415C28.0755 62.9503 28.2719 62.9697 28.5145 63.0099L28.7957 63.0616L28.8016 63.0626C29.0264 63.1099 29.2187 63.1596 29.3553 63.1964C29.3856 63.2045 29.4139 63.2121 29.4383 63.2188H29.451L29.5916 63.2608C31.0891 63.7116 33.0934 64.8572 33.367 67.0753L33.3748 67.1358V67.171C33.4403 67.8618 33.2931 68.5209 32.9159 69.1163C32.5366 69.715 31.9627 70.1946 31.2752 70.5909L31.2645 70.5968C30.0226 71.2927 28.4689 71.6025 26.9754 71.587C25.4827 71.5715 23.9409 71.2295 22.7264 70.505L22.7254 70.504C21.5381 69.7932 20.7313 68.737 20.7313 67.4874C20.7315 65.7855 21.9014 64.5286 23.1014 63.8546V63.8536C23.622 63.5549 24.1138 63.371 24.6434 63.2208C25.397 63.0027 26.0484 62.9471 26.2996 62.9249H26.3045ZM27.1063 65.3604C26.2959 65.3528 25.5318 65.5282 24.9901 65.8331C24.4393 66.1432 24.3853 66.4163 24.3836 66.4825C24.3824 66.5335 24.4064 66.7403 24.7655 67.002L24.9413 67.1173L24.9432 67.1183C25.4614 67.429 26.2111 67.6194 27.0223 67.627C27.8327 67.6346 28.5978 67.4594 29.1395 67.1544C29.689 66.8448 29.7441 66.5716 29.7459 66.505C29.7474 66.4468 29.7155 66.1841 29.1883 65.8692L29.1864 65.8683C28.6682 65.5573 27.9177 65.3681 27.1063 65.3604Z" fill="#CFCABF"/>
<path d="M26.3045 62.9249V63.4249H26.3253L26.3461 63.4232L26.3045 62.9249ZM27.9373 62.9386L27.8893 63.4364L27.9017 63.4373L27.9373 62.9386ZM27.9598 62.9405L28.0092 62.4429L27.9992 62.4421L27.9598 62.9405ZM27.9666 62.9405L28.3202 63.2941L29.084 62.5303L28.0074 62.4422L27.9666 62.9405ZM27.9657 62.9415L27.6121 62.5879L26.8467 63.3534L27.9257 63.4399L27.9657 62.9415ZM28.5145 63.0099L28.605 62.518L28.5962 62.5166L28.5145 63.0099ZM28.7957 63.0616L28.7052 63.5534L28.7135 63.5548L28.7957 63.0616ZM28.8016 63.0626L28.9046 62.5733L28.8942 62.5711L28.8838 62.5694L28.8016 63.0626ZM29.3553 63.1964L29.4854 62.7136L29.4854 62.7136L29.3553 63.1964ZM29.4383 63.2188L29.3049 63.7007L29.3704 63.7188H29.4383V63.2188ZM29.451 63.2188L29.5941 62.7397L29.5241 62.7188H29.451V63.2188ZM29.5916 63.2608L29.7358 62.782L29.7347 62.7817L29.5916 63.2608ZM33.367 67.0753L32.8708 67.1365L32.8711 67.1393L33.367 67.0753ZM33.3748 67.1358H33.8748V67.1037L33.8707 67.0718L33.3748 67.1358ZM33.3748 67.171H32.8748V67.1946L32.8771 67.2182L33.3748 67.171ZM32.9159 69.1163L33.3382 69.3839L33.3382 69.3839L32.9159 69.1163ZM31.2752 70.5909L31.5147 71.03L31.525 71.0241L31.2752 70.5909ZM31.2645 70.5968L31.0251 70.1578L31.0201 70.1606L31.2645 70.5968ZM26.9754 71.587L26.9702 72.087H26.9702L26.9754 71.587ZM22.7264 70.505L22.3729 70.8585L22.4168 70.9025L22.4703 70.9344L22.7264 70.505ZM22.7254 70.504L23.079 70.1504L23.0353 70.1067L22.9822 70.075L22.7254 70.504ZM20.7313 67.4874L20.2313 67.4873V67.4874H20.7313ZM23.1014 63.8546L23.3463 64.2905L23.6014 64.1472V63.8546H23.1014ZM23.1014 63.8536L22.8526 63.4199L22.6014 63.564V63.8536H23.1014ZM24.6434 63.2208L24.7798 63.7018L24.7824 63.7011L24.6434 63.2208ZM26.2996 62.9249V62.4249H26.2776L26.2557 62.4268L26.2996 62.9249ZM27.1063 65.3604L27.111 64.8605L27.111 64.8605L27.1063 65.3604ZM24.9901 65.8331L24.7448 65.3974L24.7447 65.3974L24.9901 65.8331ZM24.3836 66.4825L23.8838 66.47L23.8838 66.4706L24.3836 66.4825ZM24.7655 67.002L24.471 67.4061L24.481 67.4134L24.4913 67.4202L24.7655 67.002ZM24.9413 67.1173L24.6671 67.5354L24.6915 67.5514L24.7176 67.5645L24.9413 67.1173ZM24.9432 67.1183L25.2004 66.6895L25.1839 66.6796L25.1668 66.671L24.9432 67.1183ZM27.0223 67.627L27.0176 68.127L27.0176 68.127L27.0223 67.627ZM29.1395 67.1544L29.3848 67.5901L29.3849 67.59L29.1395 67.1544ZM29.7459 66.505L30.2458 66.5184L30.2458 66.5171L29.7459 66.505ZM29.1883 65.8692L29.4447 65.44L29.4287 65.4304L29.4119 65.422L29.1883 65.8692ZM29.1864 65.8683L28.9291 66.297L28.9456 66.3069L28.9628 66.3155L29.1864 65.8683ZM26.3045 62.9249L26.3461 63.4232C26.5269 63.4081 27.1499 63.3649 27.8893 63.4363L27.9373 62.9386L27.9854 62.4409C27.1623 62.3614 26.4732 62.4091 26.263 62.4266L26.3045 62.9249ZM27.9373 62.9386L27.9017 63.4373C27.9 63.4372 27.899 63.4371 27.8993 63.4371C27.8997 63.4371 27.9004 63.4372 27.9022 63.4374C27.9037 63.4375 27.9065 63.4378 27.9093 63.438C27.9123 63.4383 27.9161 63.4386 27.9204 63.439L27.9598 62.9405L27.9992 62.4421C27.9994 62.4421 27.9993 62.4421 27.9942 62.4416C27.9923 62.4414 27.9892 62.4412 27.9859 62.4409C27.9826 62.4406 27.9781 62.4402 27.973 62.4398L27.9373 62.9386ZM27.9598 62.9405L27.9104 63.4381C27.9232 63.4393 27.9343 63.44 27.943 63.4403C27.9518 63.4406 27.9592 63.4406 27.9647 63.4406C27.9703 63.4405 27.9748 63.4404 27.9777 63.4403C27.9805 63.4402 27.9827 63.4401 27.9831 63.4401C27.984 63.4401 27.9826 63.4402 27.9812 63.4402C27.9796 63.4403 27.9762 63.4404 27.9719 63.4404C27.9676 63.4405 27.9615 63.4405 27.9541 63.4403C27.9467 63.4402 27.9371 63.4398 27.9259 63.4389L27.9666 62.9405L28.0074 62.4422C27.9956 62.4412 27.9855 62.4408 27.9776 62.4406C27.9696 62.4404 27.9629 62.4405 27.958 62.4405C27.9532 62.4406 27.9492 62.4407 27.947 62.4408C27.9458 62.4408 27.9448 62.4409 27.9443 62.4409C27.944 62.4409 27.9437 62.4409 27.9436 62.4409C27.9435 62.4409 27.9435 62.4409 27.9434 62.4409C27.9434 62.4409 27.9434 62.4409 27.9434 62.4409C27.9431 62.4409 27.9448 62.4409 27.947 62.4408C27.9492 62.4407 27.9532 62.4406 27.9582 62.4406C27.9631 62.4406 27.97 62.4406 27.9782 62.4409C27.9864 62.4412 27.9969 62.4417 28.0092 62.443L27.9598 62.9405ZM27.9666 62.9405L27.6131 62.587L27.6121 62.5879L27.9657 62.9415L28.3192 63.295L28.3202 63.2941L27.9666 62.9405ZM27.9657 62.9415L27.9257 63.4399C28.025 63.4479 28.207 63.4657 28.4328 63.5031L28.5145 63.0099L28.5962 62.5166C28.3367 62.4736 28.126 62.4527 28.0056 62.4431L27.9657 62.9415ZM28.5145 63.0099L28.424 63.5016L28.7052 63.5534L28.7957 63.0616L28.8862 62.5699L28.605 62.5181L28.5145 63.0099ZM28.7957 63.0616L28.7135 63.5548L28.7194 63.5558L28.8016 63.0626L28.8838 62.5694L28.8779 62.5684L28.7957 63.0616ZM28.8016 63.0626L28.6986 63.5519C28.9109 63.5966 29.0935 63.6437 29.2252 63.6792L29.3553 63.1964L29.4854 62.7136C29.3439 62.6755 29.1419 62.6233 28.9046 62.5733L28.8016 63.0626ZM29.3553 63.1964L29.2252 63.6792C29.2577 63.6879 29.2826 63.6945 29.3049 63.7007L29.4383 63.2188L29.5718 62.737C29.5451 62.7296 29.5134 62.7211 29.4854 62.7136L29.3553 63.1964ZM29.4383 63.2188V63.7188H29.451V63.2188V62.7188H29.4383V63.2188ZM29.451 63.2188L29.308 63.6979L29.4486 63.7399L29.5916 63.2608L29.7347 62.7817L29.5941 62.7397L29.451 63.2188ZM29.5916 63.2608L29.4475 63.7396C30.8925 64.1746 32.6351 65.226 32.8708 67.1365L33.367 67.0753L33.8633 67.0141C33.5516 64.4884 31.2857 63.2486 29.7358 62.7821L29.5916 63.2608ZM33.367 67.0753L32.8711 67.1393L32.879 67.1998L33.3748 67.1358L33.8707 67.0718L33.8629 67.0113L33.367 67.0753ZM33.3748 67.1358H32.8748V67.171H33.3748H33.8748V67.1358H33.3748ZM33.3748 67.171L32.8771 67.2182C32.9325 67.8031 32.809 68.3507 32.4935 68.8487L32.9159 69.1163L33.3382 69.3839C33.7771 68.691 33.9481 67.9204 33.8726 67.1238L33.3748 67.171ZM32.9159 69.1163L32.4935 68.8487C32.1715 69.357 31.6696 69.7864 31.0255 70.1577L31.2752 70.5909L31.525 71.0241C32.2558 70.6028 32.9017 70.073 33.3382 69.3839L32.9159 69.1163ZM31.2752 70.5909L31.0358 70.152L31.0251 70.1578L31.2645 70.5968L31.5039 71.0357L31.5147 71.0299L31.2752 70.5909ZM31.2645 70.5968L31.0201 70.1606C29.8721 70.8039 28.4096 71.1018 26.9806 71.087L26.9754 71.587L26.9702 72.087C28.5283 72.1031 30.1731 71.7815 31.5089 71.0329L31.2645 70.5968ZM26.9754 71.587L26.9806 71.087C25.5521 71.0722 24.1028 70.7438 22.9826 70.0756L22.7264 70.505L22.4703 70.9344C23.7791 71.7151 25.4132 72.0708 26.9702 72.087L26.9754 71.587ZM22.7264 70.505L23.08 70.1514L23.079 70.1504L22.7254 70.504L22.3719 70.8575L22.3729 70.8585L22.7264 70.505ZM22.7254 70.504L22.9822 70.075C21.8844 69.4178 21.2313 68.4999 21.2313 67.4874H20.7313H20.2313C20.2313 68.9741 21.1918 70.1686 22.4686 70.933L22.7254 70.504ZM20.7313 67.4874L21.2313 67.4875C21.2315 66.0349 22.2332 64.9157 23.3463 64.2905L23.1014 63.8546L22.8566 63.4186C21.5697 64.1414 20.2316 65.5361 20.2313 67.4873L20.7313 67.4874ZM23.1014 63.8546H23.6014V63.8536H23.1014H22.6014V63.8546H23.1014ZM23.1014 63.8536L23.3502 64.2873C23.8263 64.0141 24.2779 63.8441 24.7798 63.7018L24.6434 63.2208L24.507 62.7398C23.9497 62.8978 23.4176 63.0957 22.8526 63.4199L23.1014 63.8536ZM24.6434 63.2208L24.7824 63.7011C25.4871 63.4972 26.0982 63.4446 26.3436 63.423L26.2996 62.9249L26.2557 62.4268C25.9986 62.4495 25.307 62.5083 24.5044 62.7405L24.6434 63.2208ZM26.2996 62.9249V63.4249H26.3045V62.9249V62.4249H26.2996V62.9249ZM27.1063 65.3604L27.111 64.8605C26.2352 64.8522 25.38 65.0398 24.7448 65.3974L24.9901 65.8331L25.2353 66.2688C25.6836 66.0165 26.3566 65.8534 27.1016 65.8604L27.1063 65.3604ZM24.9901 65.8331L24.7447 65.3974C24.0976 65.7618 23.8913 66.1709 23.8838 66.47L24.3836 66.4825L24.8835 66.4951C24.8793 66.6617 24.781 66.5246 25.2354 66.2688L24.9901 65.8331ZM24.3836 66.4825L23.8838 66.4706C23.8778 66.722 24.0118 67.0714 24.471 67.4061L24.7655 67.002L25.06 66.598C24.9264 66.5006 24.8847 66.4351 24.8759 66.4194C24.8679 66.405 24.8851 66.4286 24.8835 66.4944L24.3836 66.4825ZM24.7655 67.002L24.4913 67.4202L24.6671 67.5354L24.9413 67.1173L25.2154 66.6991L25.0396 66.5839L24.7655 67.002ZM24.9413 67.1173L24.7176 67.5645L24.7196 67.5655L24.9432 67.1183L25.1668 66.671L25.1649 66.6701L24.9413 67.1173ZM24.9432 67.1183L24.686 67.547C25.2987 67.9145 26.1412 68.1187 27.0176 68.127L27.0223 67.627L27.027 67.1271C26.2809 67.12 25.6241 66.9436 25.2004 66.6895L24.9432 67.1183ZM27.0223 67.627L27.0176 68.127C27.8932 68.1352 28.7495 67.9478 29.3848 67.5901L29.1395 67.1544L28.8942 66.7187C28.4461 66.971 27.7723 67.134 27.027 67.1271L27.0223 67.627ZM29.1395 67.1544L29.3849 67.59C30.0306 67.2262 30.2377 66.8175 30.2458 66.5184L29.7459 66.505L29.2461 66.4915C29.2506 66.3258 29.3475 66.4633 28.8941 66.7188L29.1395 67.1544ZM29.7459 66.505L30.2458 66.5171C30.2529 66.2235 30.0726 65.815 29.4447 65.44L29.1883 65.8692L28.9319 66.2985C29.1483 66.4277 29.2251 66.5238 29.2473 66.5576C29.2676 66.5887 29.2442 66.5696 29.2461 66.4928L29.7459 66.505ZM29.1883 65.8692L29.4119 65.422L29.41 65.421L29.1864 65.8683L28.9628 66.3155L28.9647 66.3164L29.1883 65.8692ZM29.1864 65.8683L29.4436 65.4395C28.8305 65.0716 27.9868 64.8688 27.111 64.8605L27.1063 65.3604L27.1016 65.8604C27.8485 65.8675 28.5059 66.0431 28.9291 66.297L29.1864 65.8683Z" fill="#082422"/>
<path d="M30.7401 66.4687C30.726 65.945 30.3792 65.4213 29.6999 65.018C28.2845 64.1687 25.9563 64.1475 24.4985 64.9684L24.5197 64.0697C25.9634 63.2558 28.2775 63.2842 29.6786 64.1192C30.3509 64.5226 30.6977 65.0392 30.7118 65.5629C30.7189 65.8672 30.726 66.1715 30.7401 66.4758V66.4687Z" fill="#CFCABF" stroke="#082422"/>
<path d="M23.4158 65.5345C23.4371 64.9967 23.8051 64.4659 24.5198 64.0625L24.4986 64.9613C23.7767 65.3647 23.4017 65.9025 23.3875 66.4474C23.3946 66.1431 23.4088 65.8388 23.4158 65.5345Z" fill="#CFCABF" stroke="#082422"/>
<path d="M23.3806 66.4475C23.3877 66.1432 23.4018 65.8389 23.4089 65.5346C23.3877 66.0795 23.7344 66.6315 24.4421 67.049C25.8504 67.8911 28.1574 67.9124 29.601 67.0985C30.3511 66.6739 30.7262 66.1149 30.705 65.5487C30.705 65.5912 30.705 65.6407 30.705 65.6832C30.705 65.6973 30.705 65.7186 30.705 65.7256C30.705 65.8176 30.705 65.9096 30.7121 66.0016C30.7121 66.1502 30.7191 66.3059 30.7262 66.4545C30.7404 67.0207 30.3724 67.5939 29.6152 68.0185C28.1574 68.8394 25.8291 68.8111 24.4138 67.969C23.699 67.5444 23.3523 66.9853 23.3735 66.4404L23.3806 66.4475Z" fill="#EFEBE7" stroke="#082422"/>
<path d="M23.975 67.0985C22.6799 66.3484 22.0147 64.9047 22.9134 63.5672C23.1399 63.2417 23.4442 62.9586 23.7697 62.7322C23.8547 62.6756 23.982 62.5977 24.074 62.5482C24.1873 62.4845 24.3429 62.4987 24.5128 62.5977C23.055 63.4115 23.0267 64.7632 24.442 65.6053C25.8574 66.4475 28.1785 66.4758 29.6363 65.6549C31.0941 64.841 31.1224 63.4894 29.7071 62.6473C28.2917 61.8051 25.9706 61.7768 24.5128 62.5977C24.3429 62.4987 24.1873 62.4845 24.074 62.5482C25.7724 61.6141 28.1644 61.6141 29.8628 62.4491C31.1791 63.086 32.0636 64.4023 31.4197 65.8035C31.0163 66.6102 30.3794 67.049 29.5514 67.4099C28.0511 68.0609 25.5814 68.0751 23.975 67.0914V67.0985Z" fill="#CFCABF"/>
<path d="M24.074 62.5482C23.982 62.5977 23.8547 62.6756 23.7697 62.7322C23.4442 62.9586 23.1399 63.2417 22.9134 63.5672C22.0147 64.9047 22.6799 66.3484 23.975 67.0985V67.0914C25.5814 68.0751 28.0511 68.0609 29.5514 67.4099C30.3794 67.049 31.0163 66.6102 31.4197 65.8035C32.0636 64.4023 31.1791 63.086 29.8628 62.4491C28.1644 61.6141 25.7724 61.6141 24.074 62.5482ZM24.074 62.5482C24.1873 62.4845 24.3429 62.4987 24.5128 62.5977M24.5128 62.5977C23.055 63.4115 23.0267 64.7632 24.442 65.6053C25.8574 66.4475 28.1785 66.4758 29.6363 65.6549C31.0941 64.841 31.1224 63.4894 29.7071 62.6473C28.2917 61.8051 25.9706 61.7768 24.5128 62.5977Z" stroke="#082422"/>
<path d="M30.7331 64.013C30.6835 63.5176 30.3368 63.0364 29.6999 62.6543C28.2845 61.8122 25.9633 61.7839 24.5055 62.6047L24.5763 61.6989C25.9917 60.9063 28.2562 60.9276 29.6362 61.7485C30.2589 62.1235 30.5915 62.5906 30.6411 63.0718C30.6694 63.3832 30.7047 63.7016 30.7331 64.013Z" fill="#CFCABF" stroke="#082422"/>
<path d="M23.501 63.0504C23.5505 62.5551 23.9114 62.0668 24.5766 61.6917L24.5059 62.5975C23.8265 62.9797 23.4514 63.4821 23.4019 63.9916C23.4373 63.6803 23.4656 63.3618 23.501 63.0504Z" fill="#CFCABF" stroke="#082422"/>
<path d="M23.4016 63.9919C23.437 63.6805 23.4653 63.362 23.5007 63.0507C23.4441 63.6097 23.7767 64.19 24.5056 64.6217C25.8856 65.4426 28.1501 65.4709 29.5654 64.6712C30.3439 64.2395 30.6977 63.6451 30.6411 63.0648C30.6694 63.3762 30.7048 63.6946 30.7331 64.006C30.7897 64.6005 30.4217 65.2091 29.6291 65.6549C28.1713 66.4687 25.8502 66.4475 24.4348 65.6054C23.6847 65.1595 23.3379 64.5651 23.4016 63.9919Z" fill="#EFEBE7" stroke="#082422"/>
<path d="M29.5372 63.2063C28.136 63.9918 25.8998 63.9706 24.541 63.1567C23.1823 62.3429 23.2106 61.0479 24.6118 60.2624C26.013 59.4768 28.2492 59.4981 29.608 60.3119C30.9667 61.1257 30.9384 62.4208 29.5372 63.2063ZM29.707 60.2553C28.2917 59.4132 25.9705 59.3848 24.5127 60.2057C23.0549 61.0196 23.0266 62.3712 24.442 63.2133C25.8573 64.0555 28.1785 64.0838 29.6363 63.2629C31.0941 62.4491 31.1224 61.0974 29.707 60.2553Z" fill="#CFCABF" stroke="#082422"/>
<path d="M23.982 64.7066C22.8073 64.0272 22.1421 62.7605 22.7224 61.515C22.9063 61.0904 23.3663 60.6021 23.7768 60.3402C23.8617 60.2836 23.9891 60.2058 24.0811 60.1562C24.1943 60.0926 24.35 60.1067 24.5198 60.2058C23.062 61.0196 23.0337 62.3713 24.4491 63.2134C25.8644 64.0555 28.1856 64.0838 29.6434 63.2629C31.1012 62.4491 31.1295 61.0975 29.7141 60.2553C28.2988 59.4132 25.9776 59.3849 24.5198 60.2058C24.35 60.1067 24.1943 60.0926 24.0811 60.1562C25.7795 59.2221 28.1714 59.2221 29.8698 60.0572C31.1861 60.6941 32.0707 62.0103 31.4267 63.4115C31.0233 64.2183 30.3864 64.657 29.5585 65.025C28.0511 65.6761 25.5955 65.6902 23.982 64.7137V64.7066Z" fill="#CFCABF"/>
<path d="M24.0811 60.1562C23.9891 60.2058 23.8617 60.2836 23.7768 60.3402C23.3663 60.6021 22.9063 61.0904 22.7224 61.515C22.1421 62.7605 22.8073 64.0272 23.982 64.7066V64.7137C25.5955 65.6902 28.0511 65.6761 29.5585 65.025C30.3864 64.657 31.0233 64.2183 31.4267 63.4115C32.0707 62.0103 31.1861 60.6941 29.8698 60.0572C28.1714 59.2221 25.7795 59.2221 24.0811 60.1562ZM24.0811 60.1562C24.1943 60.0926 24.35 60.1067 24.5198 60.2058M24.5198 60.2058C23.062 61.0196 23.0337 62.3713 24.4491 63.2134C25.8644 64.0555 28.1856 64.0838 29.6434 63.2629C31.1012 62.4491 31.1295 61.0975 29.7141 60.2553C28.2988 59.4132 25.9776 59.3849 24.5198 60.2058Z" stroke="#082422"/>
<path d="M23.5432 61.6848C23.7342 56.0093 23.9253 47.1493 24.1164 41.4808C24.1022 41.9266 24.3853 42.3795 24.9656 42.7334C26.1262 43.4269 28.0298 43.4411 29.2187 42.7758C29.8344 42.4291 30.1457 41.962 30.1316 41.502C30.2873 47.1776 30.4501 56.0376 30.6057 61.7131C30.6199 62.258 30.2661 62.8029 29.5372 63.2134C28.136 63.9989 25.8997 63.9777 24.541 63.1639C23.8545 62.7534 23.5219 62.2227 23.5432 61.699V61.6848Z" fill="#EFEBE7" stroke="#082422"/>
<path d="M24.1247 37.7837C25.7996 36.9007 28.1324 36.8364 29.9206 37.6801L30.278 37.8647L30.2859 37.8696C31.5303 38.5904 32.2353 39.7482 32.1394 41.0083C32.0451 42.2456 31.199 43.2964 29.9499 43.8842L29.9509 43.8852C28.187 44.721 25.7319 44.7249 23.9314 43.6792C23.1879 43.2542 22.5633 42.5848 22.2741 41.7563C21.9745 40.8973 22.0619 39.932 22.6491 39.0561L22.654 39.0483C22.9374 38.6336 23.3113 38.2948 23.6794 38.0434L23.7068 38.0258C23.7267 38.0131 23.746 38.0005 23.7771 37.9799C23.8046 37.9618 23.8444 37.9364 23.8864 37.9106C23.9358 37.8803 24.0045 37.8407 24.0886 37.8022C24.1007 37.7962 24.1126 37.7892 24.1247 37.7837Z" fill="#CFCABF"/>
<path d="M24.1247 37.7837L24.3322 38.2386L24.3452 38.2326L24.3579 38.226L24.1247 37.7837ZM29.9206 37.6801L30.15 37.2359L30.1421 37.2318L30.134 37.2279L29.9206 37.6801ZM30.278 37.8647L30.543 37.4407L30.5257 37.4298L30.5075 37.4204L30.278 37.8647ZM30.2859 37.8696L30.0209 38.2936L30.028 38.298L30.0353 38.3022L30.2859 37.8696ZM32.1394 41.0083L32.6379 41.0462L32.6379 41.0462L32.1394 41.0083ZM29.9499 43.8842L29.737 43.4318L29.0933 43.7348L29.5964 44.2378L29.9499 43.8842ZM29.9509 43.8852L30.165 44.3371L30.8061 44.0333L30.3045 43.5317L29.9509 43.8852ZM23.9314 43.6792L24.1825 43.2468L24.1795 43.2451L23.9314 43.6792ZM22.2741 41.7563L21.802 41.921L21.8021 41.9211L22.2741 41.7563ZM22.6491 39.0561L23.0644 39.3346L23.0689 39.3279L23.0731 39.3211L22.6491 39.0561ZM22.654 39.0483L22.2412 38.7662L22.2354 38.7747L22.23 38.7833L22.654 39.0483ZM23.6794 38.0434L23.4089 37.6227L23.3974 37.6305L23.6794 38.0434ZM23.7068 38.0258L23.4383 37.604L23.4364 37.6052L23.7068 38.0258ZM23.7771 37.9799L23.5015 37.5627L23.5015 37.5628L23.7771 37.9799ZM23.8864 37.9106L23.625 37.4844L23.6249 37.4845L23.8864 37.9106ZM24.0886 37.8022L24.2969 38.2568L24.3036 38.2537L24.3103 38.2504L24.0886 37.8022ZM24.1247 37.7837L24.3579 38.226C25.8927 37.4168 28.0602 37.3551 29.7073 38.1323L29.9206 37.6801L30.134 37.2279C28.2046 36.3176 25.7064 36.3846 23.8916 37.3413L24.1247 37.7837ZM29.9206 37.6801L29.6912 38.1244L30.0486 38.309L30.278 37.8647L30.5075 37.4204L30.15 37.2359L29.9206 37.6801ZM30.278 37.8647L30.0131 38.2887L30.0209 38.2936L30.2859 37.8696L30.5509 37.4456L30.543 37.4407L30.278 37.8647ZM30.2859 37.8696L30.0353 38.3022C31.1505 38.9483 31.7192 39.9409 31.6408 40.9703L32.1394 41.0083L32.6379 41.0462C32.7514 39.5554 31.9101 38.2326 30.5365 37.4369L30.2859 37.8696ZM32.1394 41.0083L31.6408 40.9703C31.5633 41.9881 30.8631 42.9019 29.737 43.4318L29.9499 43.8842L30.1628 44.3366C31.5349 43.6909 32.527 42.503 32.6379 41.0462L32.1394 41.0083ZM29.9499 43.8842L29.5964 44.2378L29.5973 44.2388L29.9509 43.8852L30.3045 43.5317L30.3035 43.5307L29.9499 43.8842ZM29.9509 43.8852L29.7368 43.4334C28.1093 44.2045 25.8291 44.2031 24.1825 43.2468L23.9314 43.6792L23.6803 44.1115C25.6347 45.2466 28.2647 45.2375 30.165 44.3371L29.9509 43.8852ZM23.9314 43.6792L24.1795 43.2451C23.5227 42.8696 22.9893 42.288 22.7462 41.5915L22.2741 41.7563L21.8021 41.9211C22.1373 42.8816 22.8531 43.6388 23.6832 44.1133L23.9314 43.6792ZM22.2741 41.7563L22.7462 41.5916C22.4978 40.8796 22.5656 40.0786 23.0644 39.3346L22.6491 39.0561L22.2338 38.7777C21.5582 39.7853 21.4511 40.915 21.802 41.921L22.2741 41.7563ZM22.6491 39.0561L23.0731 39.3211L23.078 39.3133L22.654 39.0483L22.23 38.7833L22.2251 38.7911L22.6491 39.0561ZM22.654 39.0483L23.0669 39.3304C23.3078 38.9777 23.6327 38.6808 23.9614 38.4563L23.6794 38.0434L23.3974 37.6305C22.9898 37.9089 22.567 38.2894 22.2412 38.7662L22.654 39.0483ZM23.6794 38.0434L23.9498 38.464L23.9771 38.4464L23.7068 38.0258L23.4364 37.6052L23.409 37.6228L23.6794 38.0434ZM23.7068 38.0258L23.9752 38.4476C23.9992 38.4324 24.0217 38.4176 24.0527 38.3971L23.7771 37.9799L23.5015 37.5628C23.4703 37.5834 23.4543 37.5939 23.4383 37.604L23.7068 38.0258ZM23.7771 37.9799L24.0526 38.3972C24.0747 38.3826 24.1098 38.3602 24.148 38.3367L23.8864 37.9106L23.6249 37.4845C23.5791 37.5126 23.5345 37.541 23.5015 37.5627L23.7771 37.9799ZM23.8864 37.9106L24.1479 38.3368C24.1863 38.3132 24.2367 38.2843 24.2969 38.2568L24.0886 37.8022L23.8803 37.3477C23.7724 37.3971 23.6852 37.4475 23.625 37.4844L23.8864 37.9106ZM24.0886 37.8022L24.3103 38.2504C24.3188 38.2462 24.3261 38.2423 24.3311 38.2397C24.3337 38.2383 24.336 38.2371 24.3377 38.2362C24.3398 38.2351 24.3406 38.2347 24.3418 38.234C24.3439 38.2329 24.3436 38.2331 24.3423 38.2337C24.3409 38.2344 24.3373 38.2362 24.3322 38.2386L24.1247 37.7837L23.9173 37.3287C23.8961 37.3384 23.8784 37.3479 23.8715 37.3515C23.8661 37.3544 23.8662 37.3543 23.8642 37.3554C23.8632 37.3559 23.8645 37.3552 23.8669 37.354L24.0886 37.8022Z" fill="#082422"/>
<path d="M34.2434 75.8172V74.7062C34.2434 75.4846 34.7458 76.2631 35.7578 76.8646C37.8101 78.0889 41.1857 78.1243 43.2945 76.9424C44.3702 76.3409 44.908 75.5413 44.908 74.7345V75.8456C44.908 76.6523 44.3631 77.452 43.2874 78.0535C41.1786 79.2353 37.803 79.207 35.7507 77.9756C34.7388 77.3741 34.2434 76.5957 34.2434 75.8172Z" fill="#CFCABF" stroke="#082422"/>
<path d="M38.8235 70.1503C39.0191 70.134 39.6751 70.0886 40.4563 70.164C40.4631 70.1644 40.4711 70.1653 40.4788 70.1659C40.4809 70.1661 40.4835 70.1658 40.4856 70.1659L40.4847 70.1669C40.5945 70.1757 40.7909 70.1951 41.0335 70.2353L41.3147 70.287L41.3206 70.288C41.5454 70.3353 41.7377 70.385 41.8743 70.4218C41.9045 70.4299 41.9329 70.4375 41.9573 70.4442H41.97L42.1106 70.4862C43.6081 70.937 45.6122 72.0827 45.886 74.3007L45.8938 74.3612V74.3964C45.9593 75.0871 45.812 75.7463 45.4349 76.3417C45.0556 76.9404 44.4817 77.42 43.7942 77.8163L43.7835 77.8222C42.5416 78.5181 40.988 78.8279 39.4944 78.8124C38.0017 78.7969 36.4599 78.4549 35.2454 77.7304L35.2444 77.7294C34.0571 77.0186 33.2503 75.9624 33.2503 74.7128C33.2506 73.011 34.4204 71.7539 35.6204 71.08V71.079C36.141 70.7803 36.6328 70.5964 37.1624 70.4462C37.916 70.2281 38.5674 70.1725 38.8186 70.1503H38.8235ZM39.6243 72.5858C38.8139 72.5783 38.0498 72.7535 37.5081 73.0585C36.9578 73.3684 36.9034 73.6414 36.9017 73.7079C36.9004 73.7588 36.9244 73.9656 37.2835 74.2274L37.4593 74.3427L37.4612 74.3437C37.9794 74.6545 38.729 74.8447 39.5403 74.8524C40.3509 74.8601 41.1157 74.6848 41.6575 74.3798C42.2075 74.07 42.2622 73.7969 42.264 73.7304C42.2653 73.6719 42.2334 73.4093 41.7063 73.0946L41.7044 73.0937C41.1861 72.7828 40.4357 72.5935 39.6243 72.5858Z" fill="#CFCABF"/>
<path d="M38.8235 70.1503V70.6503H38.8443L38.865 70.6486L38.8235 70.1503ZM40.4563 70.164L40.4083 70.6618L40.4207 70.6627L40.4563 70.164ZM40.4788 70.1659L40.5282 69.6683L40.5182 69.6675L40.4788 70.1659ZM40.4856 70.1659L40.8392 70.5195L41.6046 69.754L40.5256 69.6675L40.4856 70.1659ZM40.4847 70.1669L40.1311 69.8133L39.3657 70.5788L40.4447 70.6653L40.4847 70.1669ZM41.0335 70.2353L41.124 69.7434L41.1152 69.742L41.0335 70.2353ZM41.3147 70.287L41.2242 70.7788L41.2325 70.7802L41.3147 70.287ZM41.3206 70.288L41.4236 69.7987L41.4132 69.7965L41.4028 69.7948L41.3206 70.288ZM41.8743 70.4218L42.0044 69.939L42.0044 69.939L41.8743 70.4218ZM41.9573 70.4442L41.8239 70.9261L41.8894 70.9442H41.9573V70.4442ZM41.97 70.4442L42.1131 69.9651L42.0431 69.9442H41.97V70.4442ZM42.1106 70.4862L42.2548 70.0075L42.2537 70.0071L42.1106 70.4862ZM45.886 74.3007L45.3898 74.3619L45.3901 74.3647L45.886 74.3007ZM45.8938 74.3612H46.3938V74.3291L46.3897 74.2972L45.8938 74.3612ZM45.8938 74.3964H45.3938V74.42L45.3961 74.4436L45.8938 74.3964ZM45.4349 76.3417L45.8572 76.6093L45.8573 76.6092L45.4349 76.3417ZM43.7942 77.8163L44.0337 78.2554L44.044 78.2495L43.7942 77.8163ZM43.7835 77.8222L43.544 77.3832L43.5391 77.386L43.7835 77.8222ZM39.4944 78.8124L39.4892 79.3124H39.4892L39.4944 78.8124ZM35.2454 77.7304L34.8918 78.0839L34.9358 78.1279L34.9892 78.1598L35.2454 77.7304ZM35.2444 77.7294L35.598 77.3758L35.5543 77.3321L35.5013 77.3004L35.2444 77.7294ZM33.2503 74.7128L32.7503 74.7127V74.7128H33.2503ZM35.6204 71.08L35.8652 71.5159L36.1204 71.3726V71.08H35.6204ZM35.6204 71.079L35.3716 70.6453L35.1204 70.7894V71.079H35.6204ZM37.1624 70.4462L37.2988 70.9272L37.3014 70.9265L37.1624 70.4462ZM38.8186 70.1503V69.6503H38.7966L38.7747 69.6522L38.8186 70.1503ZM39.6243 72.5858L39.629 72.0859L39.629 72.0859L39.6243 72.5858ZM37.5081 73.0585L37.2628 72.6228L37.2627 72.6228L37.5081 73.0585ZM36.9017 73.7079L36.4018 73.6949L36.4018 73.6957L36.9017 73.7079ZM37.2835 74.2274L36.9889 74.6315L36.999 74.6388L37.0094 74.6456L37.2835 74.2274ZM37.4593 74.3427L37.1851 74.7608L37.2096 74.7768L37.2357 74.7899L37.4593 74.3427ZM37.4612 74.3437L37.7185 73.9149L37.702 73.905L37.6848 73.8964L37.4612 74.3437ZM39.5403 74.8524L39.5356 75.3524L39.5356 75.3524L39.5403 74.8524ZM41.6575 74.3798L41.9028 74.8155L41.9029 74.8154L41.6575 74.3798ZM42.264 73.7304L42.7638 73.7435L42.7638 73.742L42.264 73.7304ZM41.7063 73.0946L41.9627 72.6653L41.9466 72.6558L41.9299 72.6474L41.7063 73.0946ZM41.7044 73.0937L41.4472 73.5224L41.4636 73.5323L41.4808 73.5409L41.7044 73.0937ZM38.8235 70.1503L38.865 70.6486C39.0459 70.6335 39.6689 70.5903 40.4083 70.6617L40.4563 70.164L40.5044 69.6663C39.6813 69.5868 38.9922 69.6345 38.782 69.652L38.8235 70.1503ZM40.4563 70.164L40.4207 70.6627C40.419 70.6626 40.418 70.6625 40.4183 70.6625C40.4187 70.6625 40.4194 70.6626 40.4212 70.6628C40.4227 70.6629 40.4255 70.6632 40.4283 70.6634C40.4313 70.6637 40.4351 70.664 40.4394 70.6644L40.4788 70.1659L40.5182 69.6675C40.5184 69.6675 40.5183 69.6675 40.5132 69.667C40.5113 69.6668 40.5082 69.6666 40.5049 69.6663C40.5015 69.666 40.4971 69.6656 40.492 69.6652L40.4563 70.164ZM40.4788 70.1659L40.4294 70.6635C40.4422 70.6647 40.4532 70.6653 40.4619 70.6657C40.4706 70.666 40.478 70.666 40.4835 70.666C40.489 70.6659 40.4935 70.6658 40.4964 70.6657C40.4992 70.6657 40.5014 70.6656 40.5018 70.6655C40.5028 70.6655 40.5014 70.6656 40.5001 70.6656C40.4985 70.6657 40.4952 70.6658 40.491 70.6658C40.4868 70.6659 40.4808 70.6659 40.4735 70.6658C40.4663 70.6656 40.4568 70.6652 40.4457 70.6643L40.4856 70.1659L40.5256 69.6675C40.5139 69.6666 40.5039 69.6662 40.4961 69.666C40.4883 69.6658 40.4817 69.6659 40.4769 69.6659C40.4721 69.666 40.4683 69.6661 40.4661 69.6662C40.4642 69.6663 40.4622 69.6663 40.4626 69.6663C40.4626 69.6663 40.4626 69.6663 40.4627 69.6663C40.4627 69.6663 40.4628 69.6663 40.4628 69.6663C40.463 69.6663 40.4632 69.6663 40.4635 69.6663C40.4641 69.6663 40.465 69.6662 40.4662 69.6662C40.4685 69.6661 40.4724 69.666 40.4774 69.666C40.4823 69.666 40.4892 69.666 40.4973 69.6663C40.5054 69.6666 40.5159 69.6671 40.5282 69.6684L40.4788 70.1659ZM40.4856 70.1659L40.1321 69.8124L40.1311 69.8133L40.4847 70.1669L40.8382 70.5204L40.8392 70.5195L40.4856 70.1659ZM40.4847 70.1669L40.4447 70.6653C40.544 70.6733 40.726 70.6911 40.9518 70.7285L41.0335 70.2353L41.1152 69.742C40.8557 69.699 40.645 69.6781 40.5246 69.6685L40.4847 70.1669ZM41.0335 70.2353L40.943 70.727L41.2242 70.7788L41.3147 70.287L41.4052 69.7953L41.124 69.7435L41.0335 70.2353ZM41.3147 70.287L41.2325 70.7802L41.2384 70.7812L41.3206 70.288L41.4028 69.7948L41.3969 69.7938L41.3147 70.287ZM41.3206 70.288L41.2176 70.7773C41.4299 70.822 41.6125 70.8691 41.7442 70.9046L41.8743 70.4218L42.0044 69.939C41.8629 69.9009 41.6608 69.8487 41.4236 69.7987L41.3206 70.288ZM41.8743 70.4218L41.7442 70.9046C41.7767 70.9133 41.8016 70.9199 41.8239 70.9261L41.9573 70.4442L42.0908 69.9624C42.0641 69.955 42.0324 69.9465 42.0044 69.939L41.8743 70.4218ZM41.9573 70.4442V70.9442H41.97V70.4442V69.9442H41.9573V70.4442ZM41.97 70.4442L41.8269 70.9233L41.9676 70.9653L42.1106 70.4862L42.2537 70.0071L42.1131 69.9651L41.97 70.4442ZM42.1106 70.4862L41.9665 70.965C43.4114 71.4 45.154 72.4516 45.3898 74.3619L45.886 74.3007L46.3823 74.2394C46.0705 71.7139 43.8047 70.474 42.2548 70.0075L42.1106 70.4862ZM45.886 74.3007L45.3901 74.3647L45.398 74.4252L45.8938 74.3612L46.3897 74.2972L46.3819 74.2367L45.886 74.3007ZM45.8938 74.3612H45.3938V74.3964H45.8938H46.3938V74.3612H45.8938ZM45.8938 74.3964L45.3961 74.4436C45.4515 75.0284 45.3279 75.5761 45.0125 76.0742L45.4349 76.3417L45.8573 76.6092C46.2961 75.9165 46.4671 75.1458 46.3916 74.3492L45.8938 74.3964ZM45.4349 76.3417L45.0125 76.0741C44.6905 76.5824 44.1886 77.0118 43.5445 77.3831L43.7942 77.8163L44.044 78.2495C44.7748 77.8282 45.4207 77.2984 45.8572 76.6093L45.4349 76.3417ZM43.7942 77.8163L43.5548 77.3774L43.5441 77.3832L43.7835 77.8222L44.0229 78.2611L44.0337 78.2553L43.7942 77.8163ZM43.7835 77.8222L43.5391 77.386C42.391 78.0293 40.9286 78.3272 39.4996 78.3124L39.4944 78.8124L39.4892 79.3124C41.0473 79.3285 42.6921 79.007 44.0279 78.2583L43.7835 77.8222ZM39.4944 78.8124L39.4996 78.3124C38.0711 78.2976 36.6218 77.9692 35.5016 77.301L35.2454 77.7304L34.9892 78.1598C36.2981 78.9405 37.9322 79.2962 39.4892 79.3124L39.4944 78.8124ZM35.2454 77.7304L35.599 77.3768L35.598 77.3758L35.2444 77.7294L34.8909 78.0829L34.8918 78.0839L35.2454 77.7304ZM35.2444 77.7294L35.5013 77.3004C34.4035 76.6432 33.7503 75.7253 33.7503 74.7128H33.2503H32.7503C32.7503 76.1995 33.7108 77.394 34.9876 78.1584L35.2444 77.7294ZM33.2503 74.7128L33.7503 74.7129C33.7506 73.2604 34.7523 72.141 35.8652 71.5159L35.6204 71.08L35.3756 70.644C34.0886 71.3668 32.7507 72.7616 32.7503 74.7127L33.2503 74.7128ZM35.6204 71.08H36.1204V71.079H35.6204H35.1204V71.08H35.6204ZM35.6204 71.079L35.8692 71.5127C36.3453 71.2395 36.7969 71.0696 37.2988 70.9272L37.1624 70.4462L37.026 69.9652C36.4687 70.1232 35.9367 70.3211 35.3716 70.6453L35.6204 71.079ZM37.1624 70.4462L37.3014 70.9265C38.0061 70.7226 38.6172 70.67 38.8626 70.6484L38.8186 70.1503L38.7747 69.6522C38.5176 69.6749 37.826 69.7337 37.0234 69.9659L37.1624 70.4462ZM38.8186 70.1503V70.6503H38.8235V70.1503V69.6503H38.8186V70.1503ZM39.6243 72.5858L39.629 72.0859C38.7533 72.0777 37.898 72.2651 37.2628 72.6228L37.5081 73.0585L37.7534 73.4942C38.2016 73.2418 38.8745 73.0789 39.6196 73.0858L39.6243 72.5858ZM37.5081 73.0585L37.2627 72.6228C36.6161 72.987 36.4096 73.3959 36.4018 73.6949L36.9017 73.7079L37.4015 73.721C37.3971 73.887 37.2995 73.7498 37.7534 73.4942L37.5081 73.0585ZM36.9017 73.7079L36.4018 73.6957C36.3957 73.9473 36.5299 74.2968 36.9889 74.6315L37.2835 74.2274L37.578 73.8234C37.4445 73.7261 37.4027 73.6604 37.3939 73.6447C37.3858 73.6301 37.4031 73.6539 37.4015 73.7201L36.9017 73.7079ZM37.2835 74.2274L37.0094 74.6456L37.1851 74.7608L37.4593 74.3427L37.7334 73.9245L37.5576 73.8093L37.2835 74.2274ZM37.4593 74.3427L37.2357 74.7899L37.2376 74.7909L37.4612 74.3437L37.6848 73.8964L37.6829 73.8955L37.4593 74.3427ZM37.4612 74.3437L37.204 74.7724C37.8167 75.14 38.6592 75.3441 39.5356 75.3524L39.5403 74.8524L39.5451 74.3525C38.7988 74.3454 38.1421 74.1691 37.7185 73.9149L37.4612 74.3437ZM39.5403 74.8524L39.5356 75.3524C40.4114 75.3606 41.2674 75.1732 41.9028 74.8155L41.6575 74.3798L41.4122 73.9441C40.964 74.1964 40.2903 74.3595 39.545 74.3525L39.5403 74.8524ZM41.6575 74.3798L41.9029 74.8154C42.5491 74.4514 42.7559 74.0426 42.7638 73.7435L42.264 73.7304L41.7641 73.7172C41.7685 73.5512 41.8659 73.6886 41.4121 73.9441L41.6575 74.3798ZM42.264 73.7304L42.7638 73.742C42.7707 73.4486 42.5907 73.0403 41.9627 72.6653L41.7063 73.0946L41.45 73.5239C41.6663 73.6531 41.7431 73.7491 41.7653 73.7829C41.7855 73.8137 41.7623 73.7949 41.7641 73.7187L42.264 73.7304ZM41.7063 73.0946L41.9299 72.6474L41.928 72.6464L41.7044 73.0937L41.4808 73.5409L41.4827 73.5418L41.7063 73.0946ZM41.7044 73.0937L41.9616 72.6649C41.3484 72.2971 40.5049 72.0941 39.629 72.0859L39.6243 72.5858L39.6196 73.0858C40.3665 73.0928 41.0238 73.2685 41.4472 73.5224L41.7044 73.0937Z" fill="#082422"/>
<path d="M43.2588 73.6941C43.2447 73.1704 42.8979 72.6468 42.2186 72.2434C40.8032 71.3942 38.475 71.373 37.0172 72.1939L37.0384 71.2951C38.4821 70.4813 40.7961 70.5096 42.1973 71.3446C42.8696 71.748 43.2164 72.2646 43.2305 72.7883C43.2376 73.0926 43.2447 73.3969 43.2588 73.7012V73.6941Z" fill="#CFCABF" stroke="#082422"/>
<path d="M35.9345 72.7601C35.9558 72.2223 36.3238 71.6916 37.0385 71.2882L37.0173 72.1869C36.2954 72.5903 35.9204 73.1281 35.9062 73.673C35.9133 73.3687 35.9275 73.0644 35.9345 72.7601Z" fill="#CFCABF" stroke="#082422"/>
<path d="M35.8989 73.6729C35.906 73.3686 35.9202 73.0643 35.9272 72.76C35.906 73.3049 36.2528 73.8569 36.9604 74.2745C38.3687 75.1166 40.6757 75.1378 42.1194 74.324C42.8695 73.8994 43.2446 73.3403 43.2233 72.7742C43.2233 72.8167 43.2233 72.8662 43.2233 72.9086C43.2233 72.9228 43.2233 72.944 43.2233 72.9511C43.2233 73.0431 43.2233 73.1351 43.2304 73.2271C43.2304 73.3757 43.2375 73.5314 43.2446 73.68C43.2587 74.2462 42.8907 74.8194 42.1335 75.244C40.6757 76.0649 38.3475 76.0366 36.9321 75.1944C36.2174 74.7698 35.8706 74.2108 35.8918 73.6659L35.8989 73.6729Z" fill="#EFEBE7" stroke="#082422"/>
<path d="M36.4934 74.324C35.1984 73.5739 34.5332 72.1303 35.4319 70.7928C35.6584 70.4672 35.9627 70.1842 36.2882 69.9577C36.3731 69.9011 36.5005 69.8232 36.5925 69.7737C36.7057 69.71 36.8614 69.7242 37.0312 69.8232C35.5734 70.6371 35.5451 71.9887 36.9605 72.8309C38.3758 73.673 40.697 73.7013 42.1548 72.8804C43.6126 72.0666 43.6409 70.7149 42.2255 69.8728C40.8102 69.0307 38.489 69.0024 37.0312 69.8232C36.8614 69.7242 36.7057 69.71 36.5925 69.7737C38.2909 68.8396 40.6828 68.8396 42.3812 69.6746C43.6975 70.3115 44.5821 71.6278 43.9381 73.029C43.5347 73.8357 42.8978 74.2745 42.0699 74.6354C40.5696 75.2865 38.0998 75.3006 36.4934 74.317V74.324Z" fill="#CFCABF"/>
<path d="M36.5925 69.7737C36.5005 69.8232 36.3731 69.9011 36.2882 69.9577C35.9627 70.1842 35.6584 70.4672 35.4319 70.7928C34.5332 72.1303 35.1984 73.5739 36.4934 74.324V74.317C38.0998 75.3006 40.5696 75.2865 42.0699 74.6354C42.8978 74.2745 43.5347 73.8357 43.9381 73.029C44.5821 71.6278 43.6975 70.3115 42.3812 69.6746C40.6828 68.8396 38.2909 68.8396 36.5925 69.7737ZM36.5925 69.7737C36.7057 69.71 36.8614 69.7242 37.0312 69.8232M37.0312 69.8232C35.5734 70.6371 35.5451 71.9887 36.9605 72.8309C38.3758 73.673 40.697 73.7013 42.1548 72.8804C43.6126 72.0666 43.6409 70.7149 42.2255 69.8728C40.8102 69.0307 38.489 69.0024 37.0312 69.8232Z" stroke="#082422"/>
<path d="M43.2518 71.2387C43.2023 70.7433 42.8555 70.2621 42.2186 69.8799C40.8033 69.0378 38.4821 69.0095 37.0243 69.8304L37.0951 68.9246C38.5104 68.132 40.775 68.1532 42.1549 68.9741C42.7777 69.3492 43.1103 69.8162 43.1598 70.2975C43.1882 70.6088 43.2235 70.9273 43.2518 71.2387Z" fill="#CFCABF" stroke="#082422"/>
<path d="M36.0198 70.2762C36.0693 69.7809 36.4302 69.2926 37.0954 68.9175L37.0246 69.8233C36.3453 70.2055 35.9702 70.7079 35.9207 71.2174C35.9561 70.9061 35.9844 70.5876 36.0198 70.2762Z" fill="#CFCABF" stroke="#082422"/>
<path d="M35.9204 71.2174C35.9558 70.906 35.9841 70.5876 36.0195 70.2762C35.9629 70.8353 36.2955 71.4156 37.0244 71.8472C38.4044 72.6681 40.6689 72.6964 42.0842 71.8968C42.8627 71.4651 43.2165 70.8707 43.1599 70.2904C43.1882 70.6017 43.2236 70.9202 43.2519 71.2316C43.3085 71.826 42.9405 72.4346 42.1479 72.8804C40.6901 73.6943 38.369 73.673 36.9536 72.8309C36.2035 72.3851 35.8567 71.7906 35.9204 71.2174Z" fill="#EFEBE7" stroke="#082422"/>
<path d="M42.0557 70.4318C40.6545 71.2173 38.4182 71.1961 37.0595 70.3822C35.7008 69.5684 35.7291 68.2734 37.1303 67.4879C38.5314 66.7023 40.7677 66.7236 42.1264 67.5374C43.4852 68.3512 43.4568 69.6463 42.0557 70.4318ZM42.2255 67.4808C40.8101 66.6387 38.489 66.6103 37.0312 67.4312C35.5734 68.2451 35.5451 69.5967 36.9604 70.4388C38.3758 71.281 40.6969 71.3093 42.1547 70.4884C43.6125 69.6746 43.6408 68.3229 42.2255 67.4808Z" fill="#CFCABF" stroke="#082422"/>
<path d="M36.5008 71.9321C35.3261 71.2528 34.6609 69.986 35.2412 68.7405C35.4251 68.3159 35.8851 67.8276 36.2956 67.5658C36.3805 67.5092 36.5079 67.4313 36.5999 67.3818C36.7131 67.3181 36.8688 67.3323 37.0386 67.4313C35.5808 68.2452 35.5525 69.5968 36.9679 70.4389C38.3832 71.2811 40.7044 71.3094 42.1622 70.4885C43.62 69.6747 43.6483 68.323 42.2329 67.4809C40.8176 66.6388 38.4964 66.6104 37.0386 67.4313C36.8688 67.3323 36.7131 67.3181 36.5999 67.3818C38.2983 66.4477 40.6902 66.4477 42.3886 67.2827C43.7049 67.9196 44.5895 69.2359 43.9455 70.6371C43.5421 71.4438 42.9052 71.8826 42.0773 72.2506C40.5699 72.9016 38.1143 72.9158 36.5008 71.9392V71.9321Z" fill="#CFCABF"/>
<path d="M36.5999 67.3818C36.5079 67.4313 36.3805 67.5092 36.2956 67.5658C35.8851 67.8276 35.4251 68.3159 35.2412 68.7405C34.6609 69.986 35.3261 71.2528 36.5008 71.9321V71.9392C38.1143 72.9158 40.5699 72.9016 42.0773 72.2506C42.9052 71.8826 43.5421 71.4438 43.9455 70.6371C44.5895 69.2359 43.7049 67.9196 42.3886 67.2827C40.6902 66.4477 38.2983 66.4477 36.5999 67.3818ZM36.5999 67.3818C36.7131 67.3181 36.8688 67.3323 37.0386 67.4313M37.0386 67.4313C35.5808 68.2452 35.5525 69.5968 36.9679 70.4389C38.3832 71.2811 40.7044 71.3094 42.1622 70.4885C43.62 69.6747 43.6483 68.323 42.2329 67.4809C40.8176 66.6388 38.4964 66.6104 37.0386 67.4313Z" stroke="#082422"/>
<path d="M36.062 68.9104C36.253 63.2349 36.4441 54.3748 36.6352 48.7064C36.621 49.1522 36.9041 49.6051 37.4844 49.9589C38.645 50.6525 40.5486 50.6666 41.7375 50.0014C42.3532 49.6546 42.6645 49.1876 42.6504 48.7276C42.8061 54.4031 42.9689 63.2632 43.1245 68.9387C43.1387 69.4836 42.7849 70.0285 42.056 70.4389C40.6548 71.2245 38.4185 71.2032 37.0598 70.3894C36.3733 69.979 36.0407 69.4482 36.062 68.9245V68.9104Z" fill="#EFEBE7" stroke="#082422"/>
<path d="M36.6439 45.0092C38.3187 44.1262 40.6515 44.0619 42.4398 44.9057L42.7972 45.0902L42.805 45.0951C44.0495 45.8159 44.7544 46.9736 44.6585 48.2338C44.5642 49.4711 43.7182 50.5219 42.4691 51.1098L42.47 51.1107C40.7061 51.9465 38.251 51.9504 36.4505 50.9047C35.707 50.4797 35.0825 49.8103 34.7933 48.9818C34.4936 48.1228 34.581 47.1575 35.1683 46.2816L35.1732 46.2738C35.4565 45.8591 35.8304 45.5204 36.1986 45.2689L36.2259 45.2514C36.2459 45.2386 36.265 45.226 36.2962 45.2055C36.3237 45.1873 36.3635 45.1619 36.4056 45.1361C36.4549 45.1059 36.5236 45.0663 36.6077 45.0277C36.6199 45.0217 36.6317 45.0147 36.6439 45.0092Z" fill="#CFCABF"/>
<path d="M36.6439 45.0092L36.8513 45.4641L36.8644 45.4582L36.877 45.4515L36.6439 45.0092ZM42.4398 44.9057L42.6692 44.4614L42.6612 44.4573L42.6531 44.4535L42.4398 44.9057ZM42.7972 45.0902L43.0622 44.6662L43.0448 44.6554L43.0266 44.646L42.7972 45.0902ZM42.805 45.0951L42.54 45.5191L42.5471 45.5236L42.5544 45.5278L42.805 45.0951ZM44.6585 48.2338L45.1571 48.2718L45.1571 48.2717L44.6585 48.2338ZM42.4691 51.1098L42.2562 50.6573L41.6125 50.9603L42.1155 51.4633L42.4691 51.1098ZM42.47 51.1107L42.6841 51.5626L43.3252 51.2588L42.8236 50.7572L42.47 51.1107ZM36.4505 50.9047L36.7016 50.4723L36.6986 50.4706L36.4505 50.9047ZM34.7933 48.9818L34.3212 49.1465L34.3212 49.1466L34.7933 48.9818ZM35.1683 46.2816L35.5836 46.5601L35.588 46.5534L35.5923 46.5466L35.1683 46.2816ZM35.1732 46.2738L34.7603 45.9918L34.7546 46.0002L34.7492 46.0088L35.1732 46.2738ZM36.1986 45.2689L35.9281 44.8482L35.9166 44.856L36.1986 45.2689ZM36.2259 45.2514L35.9574 44.8295L35.9555 44.8308L36.2259 45.2514ZM36.2962 45.2055L36.0206 44.7883L36.0206 44.7883L36.2962 45.2055ZM36.4056 45.1361L36.1441 44.71L36.144 44.71L36.4056 45.1361ZM36.6077 45.0277L36.816 45.4823L36.8227 45.4792L36.8292 45.476L36.6077 45.0277ZM36.6439 45.0092L36.877 45.4515C38.4119 44.6423 40.5793 44.5806 42.2264 45.3578L42.4398 44.9057L42.6531 44.4535C40.7238 43.5431 38.2255 43.6101 36.4107 44.5669L36.6439 45.0092ZM42.4398 44.9057L42.2104 45.3499L42.5678 45.5345L42.7972 45.0902L43.0266 44.646L42.6692 44.4614L42.4398 44.9057ZM42.7972 45.0902L42.5322 45.5142L42.54 45.5191L42.805 45.0951L43.07 44.6711L43.0622 44.6662L42.7972 45.0902ZM42.805 45.0951L42.5544 45.5278C43.6697 46.1738 44.2383 47.1664 44.16 48.1958L44.6585 48.2338L45.1571 48.2717C45.2705 46.7809 44.4292 45.4581 43.0556 44.6624L42.805 45.0951ZM44.6585 48.2338L44.16 48.1958C44.0824 49.2136 43.3823 50.1274 42.2562 50.6573L42.4691 51.1098L42.682 51.5622C44.0541 50.9165 45.0461 49.7286 45.1571 48.2718L44.6585 48.2338ZM42.4691 51.1098L42.1155 51.4633L42.1165 51.4643L42.47 51.1107L42.8236 50.7572L42.8226 50.7562L42.4691 51.1098ZM42.47 51.1107L42.2559 50.6589C40.6284 51.4301 38.3482 51.4287 36.7016 50.4723L36.4505 50.9047L36.1994 51.337C38.1538 52.4722 40.7838 52.463 42.6841 51.5626L42.47 51.1107ZM36.4505 50.9047L36.6986 50.4706C36.0418 50.0952 35.5085 49.5135 35.2654 48.8171L34.7933 48.9818L34.3212 49.1466C34.6565 50.1071 35.3723 50.8643 36.2024 51.3388L36.4505 50.9047ZM34.7933 48.9818L35.2654 48.8171C35.017 48.1052 35.0847 47.3041 35.5836 46.5601L35.1683 46.2816L34.753 46.0032C34.0774 47.0108 33.9702 48.1405 34.3212 49.1465L34.7933 48.9818ZM35.1683 46.2816L35.5923 46.5466L35.5972 46.5388L35.1732 46.2738L34.7492 46.0088L34.7443 46.0166L35.1683 46.2816ZM35.1732 46.2738L35.586 46.5559C35.827 46.2032 36.1518 45.9063 36.4805 45.6818L36.1986 45.2689L35.9166 44.856C35.509 45.1344 35.0861 45.5149 34.7603 45.9918L35.1732 46.2738ZM36.1986 45.2689L36.4689 45.6895L36.4963 45.6719L36.2259 45.2514L35.9555 44.8308L35.9282 44.8483L36.1986 45.2689ZM36.2259 45.2514L36.4944 45.6732C36.5184 45.6579 36.5408 45.6432 36.5718 45.6226L36.2962 45.2055L36.0206 44.7883C35.9893 44.8089 35.9734 44.8194 35.9574 44.8295L36.2259 45.2514ZM36.2962 45.2055L36.5718 45.6227C36.5939 45.6081 36.6289 45.5857 36.6671 45.5623L36.4056 45.1361L36.144 44.71C36.0982 44.7381 36.0536 44.7665 36.0206 44.7883L36.2962 45.2055ZM36.4056 45.1361L36.6671 45.5623C36.7054 45.5388 36.7558 45.5099 36.816 45.4823L36.6077 45.0277L36.3995 44.5732C36.2915 44.6227 36.2044 44.673 36.1441 44.71L36.4056 45.1361ZM36.6077 45.0277L36.8292 45.476C36.8378 45.4717 36.8452 45.4679 36.8503 45.4652C36.8529 45.4639 36.8552 45.4626 36.8569 45.4617C36.859 45.4605 36.8597 45.4602 36.861 45.4595C36.8632 45.4583 36.8628 45.4585 36.8615 45.4592C36.8601 45.4599 36.8565 45.4618 36.8513 45.4641L36.6439 45.0092L36.4364 44.5542C36.4151 44.5639 36.3974 44.5734 36.3906 44.5771C36.3853 44.5799 36.3853 44.5799 36.3833 44.5809C36.3824 44.5814 36.3837 44.5807 36.3863 44.5795L36.6077 45.0277Z" fill="#082422"/>
<path d="M46.7651 83.0071V81.896C46.7651 82.6745 47.2676 83.4529 48.2795 84.0544C50.3318 85.2787 53.7074 85.3141 55.8162 84.1323C56.8919 83.5307 57.4297 82.7311 57.4297 81.9243V83.0354C57.4297 83.8421 56.8848 84.6418 55.8092 85.2433C53.7003 86.4251 50.3247 86.3968 48.2725 85.1655C47.2605 84.5639 46.7651 83.7855 46.7651 83.0071Z" fill="#CFCABF" stroke="#082422"/>
<path d="M51.3452 77.3401C51.5408 77.3238 52.1968 77.2783 52.9781 77.3537C52.9849 77.3542 52.9928 77.3551 53.0005 77.3557C53.0027 77.3559 53.0052 77.3555 53.0074 77.3557L53.0064 77.3567C53.1162 77.3655 53.3125 77.3848 53.5552 77.425L53.8365 77.4768L53.8423 77.4778C54.0672 77.5251 54.2594 77.5747 54.396 77.6115C54.4263 77.6197 54.4545 77.6272 54.479 77.634H54.4917L54.6324 77.676C56.1298 78.1268 58.134 79.2724 58.4077 81.4905L58.4156 81.551V81.5862C58.481 82.2769 58.3337 82.9361 57.9566 83.5315C57.5773 84.1302 57.0034 84.6098 56.316 85.0061L56.3052 85.0119C55.0633 85.7079 53.5097 86.0177 52.0161 86.0022C50.5233 85.9867 48.9817 85.6447 47.7671 84.9201L47.7661 84.9192C46.5788 84.2084 45.772 83.1522 45.772 81.9026C45.7723 80.2007 46.9421 78.9437 48.1421 78.2698V78.2688C48.6627 77.9701 49.1545 77.7861 49.6841 77.636C50.4379 77.4179 51.0893 77.3622 51.3404 77.3401H51.3452ZM52.146 79.7756C51.3356 79.768 50.5716 79.9433 50.0298 80.2483C49.4795 80.5581 49.4251 80.8311 49.4234 80.8977C49.4221 80.9486 49.446 81.1554 49.8052 81.4172L49.981 81.5324L49.9829 81.5334C50.5011 81.8443 51.2507 82.0345 52.062 82.0422C52.8726 82.0498 53.6374 81.8746 54.1792 81.5696C54.7292 81.2598 54.7839 80.9867 54.7857 80.9201C54.787 80.8616 54.755 80.599 54.2281 80.2844L54.2261 80.2834C53.7078 79.9725 52.9575 79.7832 52.146 79.7756Z" fill="#CFCABF"/>
<path d="M51.3452 77.3401V77.8401H51.366L51.3868 77.8383L51.3452 77.3401ZM52.9781 77.3537L52.93 77.8516L52.9424 77.8525L52.9781 77.3537ZM53.0005 77.3557L53.0499 76.858L53.0397 76.8572L53.0005 77.3557ZM53.0074 77.3557L53.3609 77.7092L54.1087 76.9615L53.0562 76.8581L53.0074 77.3557ZM53.0064 77.3567L52.6528 77.0031L51.8874 77.7686L52.9664 77.8551L53.0064 77.3567ZM53.5552 77.425L53.6457 76.9332L53.6369 76.9317L53.5552 77.425ZM53.8365 77.4768L53.746 77.9686L53.7543 77.97L53.8365 77.4768ZM53.8423 77.4778L53.9453 76.9885L53.935 76.9863L53.9245 76.9846L53.8423 77.4778ZM54.396 77.6115L54.5261 77.1288L54.5261 77.1288L54.396 77.6115ZM54.479 77.634L54.3456 78.1159L54.4111 78.134H54.479V77.634ZM54.4917 77.634L54.6348 77.1549L54.5648 77.134H54.4917V77.634ZM54.6324 77.676L54.7765 77.1972L54.7754 77.1969L54.6324 77.676ZM58.4077 81.4905L57.9115 81.5517L57.9119 81.5544L58.4077 81.4905ZM58.4156 81.551H58.9156V81.5189L58.9114 81.487L58.4156 81.551ZM58.4156 81.5862H57.9156V81.6098L57.9178 81.6333L58.4156 81.5862ZM57.9566 83.5315L58.379 83.799L58.379 83.799L57.9566 83.5315ZM56.316 85.0061L56.5554 85.4451L56.5657 85.4392L56.316 85.0061ZM56.3052 85.0119L56.0658 84.573L56.0608 84.5758L56.3052 85.0119ZM52.0161 86.0022L52.011 86.5021H52.011L52.0161 86.0022ZM47.7671 84.9201L47.4136 85.2737L47.4576 85.3177L47.511 85.3495L47.7671 84.9201ZM47.7661 84.9192L48.1197 84.5656L48.076 84.5219L48.023 84.4902L47.7661 84.9192ZM45.772 81.9026L45.272 81.9025V81.9026H45.772ZM48.1421 78.2698L48.387 78.7057L48.6421 78.5624V78.2698H48.1421ZM48.1421 78.2688L47.8933 77.8351L47.6421 77.9792V78.2688H48.1421ZM49.6841 77.636L49.8205 78.117L49.8231 78.1163L49.6841 77.636ZM51.3404 77.3401V76.8401H51.3183L51.2964 76.842L51.3404 77.3401ZM52.146 79.7756L52.1507 79.2756L52.1507 79.2756L52.146 79.7756ZM50.0298 80.2483L49.7845 79.8126L49.7845 79.8126L50.0298 80.2483ZM49.4234 80.8977L48.9235 80.8845L48.9235 80.8855L49.4234 80.8977ZM49.8052 81.4172L49.5107 81.8213L49.5207 81.8286L49.5311 81.8354L49.8052 81.4172ZM49.981 81.5324L49.7069 81.9506L49.7313 81.9666L49.7574 81.9797L49.981 81.5324ZM49.9829 81.5334L50.2402 81.1047L50.2237 81.0948L50.2065 81.0862L49.9829 81.5334ZM52.062 82.0422L52.0573 82.5422L52.0573 82.5422L52.062 82.0422ZM54.1792 81.5696L54.4246 82.0052L54.4246 82.0052L54.1792 81.5696ZM54.7857 80.9201L55.2855 80.9333L55.2855 80.9317L54.7857 80.9201ZM54.2281 80.2844L54.4844 79.8551L54.4684 79.8455L54.4517 79.8372L54.2281 80.2844ZM54.2261 80.2834L53.9689 80.7122L53.9853 80.7221L54.0025 80.7306L54.2261 80.2834ZM51.3452 77.3401L51.3868 77.8383C51.5677 77.8233 52.1906 77.78 52.93 77.8514L52.9781 77.3537L53.0261 76.856C52.203 76.7766 51.5139 76.8243 51.3037 76.8418L51.3452 77.3401ZM52.9781 77.3537L52.9424 77.8525C52.9407 77.8523 52.9397 77.8523 52.94 77.8523C52.9403 77.8523 52.941 77.8524 52.9428 77.8525C52.9443 77.8527 52.9472 77.8529 52.9501 77.8532C52.9531 77.8535 52.957 77.8538 52.9614 77.8542L53.0005 77.3557L53.0397 76.8572C53.04 76.8573 53.04 76.8573 53.035 76.8568C53.0331 76.8566 53.03 76.8563 53.0267 76.856C53.0233 76.8557 53.0188 76.8554 53.0137 76.855L52.9781 77.3537ZM53.0005 77.3557L52.9511 77.8532C52.9643 77.8545 52.9758 77.8552 52.985 77.8555C52.9942 77.8558 53.002 77.8558 53.0078 77.8557C53.0137 77.8556 53.0184 77.8555 53.0213 77.8554C53.0228 77.8553 53.024 77.8553 53.0248 77.8553C53.0256 77.8552 53.0262 77.8552 53.0263 77.8552C53.027 77.8552 53.0252 77.8552 53.0231 77.8553C53.0209 77.8554 53.0167 77.8555 53.0115 77.8556C53.0063 77.8557 52.9991 77.8557 52.9905 77.8554C52.9819 77.8551 52.971 77.8545 52.9585 77.8533L53.0074 77.3557L53.0562 76.8581C53.0432 76.8568 53.0318 76.8562 53.0226 76.8559C53.0135 76.8556 53.0057 76.8556 52.9999 76.8557C52.9941 76.8557 52.9894 76.8559 52.9865 76.856C52.985 76.856 52.9838 76.8561 52.983 76.8561C52.9823 76.8562 52.9816 76.8562 52.9816 76.8562C52.981 76.8562 52.9827 76.8561 52.9848 76.8561C52.9871 76.856 52.9913 76.8558 52.9965 76.8558C53.0018 76.8557 53.0091 76.8557 53.0177 76.856C53.0264 76.8563 53.0373 76.8569 53.0499 76.8581L53.0005 77.3557ZM53.0074 77.3557L52.6538 77.0021L52.6528 77.0031L53.0064 77.3567L53.3599 77.7102L53.3609 77.7092L53.0074 77.3557ZM53.0064 77.3567L52.9664 77.8551C53.0658 77.863 53.2477 77.8809 53.4735 77.9183L53.5552 77.425L53.6369 76.9317C53.3773 76.8887 53.1667 76.8679 53.0463 76.8583L53.0064 77.3567ZM53.5552 77.425L53.4647 77.9168L53.746 77.9685L53.8365 77.4768L53.927 76.985L53.6457 76.9333L53.5552 77.425ZM53.8365 77.4768L53.7543 77.97L53.7601 77.971L53.8423 77.4778L53.9245 76.9846L53.9187 76.9836L53.8365 77.4768ZM53.8423 77.4778L53.7393 77.967C53.9517 78.0118 54.1342 78.0588 54.2659 78.0943L54.396 77.6115L54.5261 77.1288C54.3846 77.0906 54.1827 77.0385 53.9453 76.9885L53.8423 77.4778ZM54.396 77.6115L54.2659 78.0943C54.2985 78.1031 54.3233 78.1097 54.3456 78.1159L54.479 77.634L54.6125 77.1522C54.5858 77.1447 54.5542 77.1363 54.5261 77.1288L54.396 77.6115ZM54.479 77.634V78.134H54.4917V77.634V77.134H54.479V77.634ZM54.4917 77.634L54.3487 78.1131L54.4893 78.1551L54.6324 77.676L54.7754 77.1969L54.6348 77.1549L54.4917 77.634ZM54.6324 77.676L54.4882 78.1548C55.9332 78.5898 57.6758 79.6412 57.9115 81.5517L58.4077 81.4905L58.904 81.4292C58.5923 78.9036 56.3264 77.6638 54.7765 77.1972L54.6324 77.676ZM58.4077 81.4905L57.9119 81.5544L57.9197 81.615L58.4156 81.551L58.9114 81.487L58.9036 81.4265L58.4077 81.4905ZM58.4156 81.551H57.9156V81.5862H58.4156H58.9156V81.551H58.4156ZM58.4156 81.5862L57.9178 81.6333C57.9732 82.2182 57.8496 82.7659 57.5342 83.2639L57.9566 83.5315L58.379 83.799C58.8178 83.1062 58.9888 82.3356 58.9133 81.539L58.4156 81.5862ZM57.9566 83.5315L57.5342 83.2639C57.2122 83.7722 56.7103 84.2016 56.0662 84.5729L56.316 85.0061L56.5657 85.4392C57.2965 85.0179 57.9424 84.4881 58.379 83.799L57.9566 83.5315ZM56.316 85.0061L56.0765 84.5671L56.0658 84.573L56.3052 85.0119L56.5446 85.4509L56.5554 85.445L56.316 85.0061ZM56.3052 85.0119L56.0608 84.5758C54.9128 85.2191 53.4504 85.517 52.0213 85.5022L52.0161 86.0022L52.011 86.5021C53.569 86.5183 55.2138 86.1967 56.5496 85.4481L56.3052 85.0119ZM52.0161 86.0022L52.0213 85.5022C50.5928 85.4874 49.1435 85.159 48.0233 84.4907L47.7671 84.9201L47.511 85.3495C48.8198 86.1303 50.4539 86.486 52.011 86.5021L52.0161 86.0022ZM47.7671 84.9201L48.1207 84.5666L48.1197 84.5656L47.7661 84.9192L47.4126 85.2727L47.4136 85.2737L47.7671 84.9201ZM47.7661 84.9192L48.023 84.4902C46.9251 83.833 46.272 82.9151 46.272 81.9026H45.772H45.272C45.272 83.3893 46.2324 84.5838 47.5093 85.3482L47.7661 84.9192ZM45.772 81.9026L46.272 81.9026C46.2723 80.4501 47.2739 79.3308 48.387 78.7057L48.1421 78.2698L47.8973 77.8338C46.6104 78.5566 45.2723 79.9513 45.272 81.9025L45.772 81.9026ZM48.1421 78.2698H48.6421V78.2688H48.1421H47.6421V78.2698H48.1421ZM48.1421 78.2688L48.391 78.7025C48.8671 78.4293 49.3186 78.2593 49.8205 78.117L49.6841 77.636L49.5477 77.1549C48.9904 77.313 48.4584 77.5109 47.8933 77.8351L48.1421 78.2688ZM49.6841 77.636L49.8231 78.1163C50.5279 77.9123 51.1391 77.8598 51.3843 77.8381L51.3404 77.3401L51.2964 76.842C51.0395 76.8647 50.3479 76.9234 49.5452 77.1557L49.6841 77.636ZM51.3404 77.3401V77.8401H51.3452V77.3401V76.8401H51.3404V77.3401ZM52.146 79.7756L52.1507 79.2756C51.2749 79.2674 50.4198 79.4549 49.7845 79.8126L50.0298 80.2483L50.2751 80.684C50.7233 80.4316 51.3962 80.2686 52.1413 80.2756L52.146 79.7756ZM50.0298 80.2483L49.7845 79.8126C49.1378 80.1768 48.9314 80.5856 48.9235 80.8845L49.4234 80.8977L49.9232 80.9108C49.9188 81.0767 49.8213 80.9395 50.2751 80.6839L50.0298 80.2483ZM49.4234 80.8977L48.9235 80.8855C48.9174 81.137 49.0515 81.4865 49.5107 81.8213L49.8052 81.4172L50.0997 81.0132C49.9661 80.9158 49.9244 80.8502 49.9156 80.8345C49.9076 80.82 49.9248 80.8438 49.9232 80.9099L49.4234 80.8977ZM49.8052 81.4172L49.5311 81.8354L49.7069 81.9506L49.981 81.5324L50.2551 81.1143L50.0793 80.9991L49.8052 81.4172ZM49.981 81.5324L49.7574 81.9797L49.7593 81.9806L49.9829 81.5334L50.2065 81.0862L50.2046 81.0852L49.981 81.5324ZM49.9829 81.5334L49.7257 81.9622C50.3384 82.3298 51.1808 82.5339 52.0573 82.5422L52.062 82.0422L52.0668 81.5422C51.3205 81.5352 50.6639 81.3589 50.2402 81.1047L49.9829 81.5334ZM52.062 82.0422L52.0573 82.5422C52.9331 82.5504 53.7892 82.363 54.4246 82.0052L54.1792 81.5696L53.9339 81.1339C53.4857 81.3862 52.8121 81.5492 52.0667 81.5422L52.062 82.0422ZM54.1792 81.5696L54.4246 82.0052C55.0708 81.6412 55.2776 81.2324 55.2855 80.9333L54.7857 80.9201L54.2858 80.907C54.2902 80.741 54.3876 80.8783 53.9338 81.1339L54.1792 81.5696ZM54.7857 80.9201L55.2855 80.9317C55.2923 80.6382 55.1123 80.23 54.4844 79.8551L54.2281 80.2844L53.9717 80.7137C54.188 80.8428 54.2648 80.9388 54.287 80.9727C54.3072 81.0035 54.2841 80.9847 54.2858 80.9086L54.7857 80.9201ZM54.2281 80.2844L54.4517 79.8372L54.4497 79.8362L54.2261 80.2834L54.0025 80.7306L54.0045 80.7316L54.2281 80.2844ZM54.2261 80.2834L54.4833 79.8547C53.8702 79.4868 53.0267 79.2839 52.1507 79.2756L52.146 79.7756L52.1413 80.2756C52.8883 80.2826 53.5455 80.4582 53.9689 80.7122L54.2261 80.2834Z" fill="#082422"/>
<path d="M55.7806 80.8841C55.7665 80.3604 55.4197 79.8367 54.7404 79.4333C53.325 78.5841 50.9968 78.5629 49.539 79.3838L49.5602 78.485C51.0039 77.6712 53.318 77.6995 54.7191 78.5346C55.3914 78.938 55.7382 79.4546 55.7523 79.9782C55.7594 80.2825 55.7665 80.5868 55.7806 80.8911V80.8841Z" fill="#CFCABF" stroke="#082422"/>
<path d="M48.4563 79.9499C48.4776 79.4121 48.8456 78.8813 49.5603 78.4779L49.5391 79.3767C48.8172 79.7801 48.4422 80.3179 48.428 80.8628C48.4351 80.5585 48.4493 80.2542 48.4563 79.9499Z" fill="#CFCABF" stroke="#082422"/>
<path d="M48.4211 80.8629C48.4282 80.5586 48.4423 80.2543 48.4494 79.95C48.4281 80.4949 48.7749 81.0469 49.4826 81.4644C50.8909 82.3065 53.1979 82.3278 54.6415 81.5139C55.3916 81.0893 55.7667 80.5303 55.7455 79.9641C55.7455 80.0066 55.7455 80.0561 55.7455 80.0986C55.7455 80.1127 55.7455 80.134 55.7455 80.141C55.7455 80.233 55.7455 80.325 55.7526 80.417C55.7526 80.5657 55.7596 80.7213 55.7667 80.87C55.7809 81.4361 55.4129 82.0093 54.6557 82.4339C53.1979 83.2548 50.8696 83.2265 49.4543 82.3844C48.7395 81.9598 48.3928 81.4007 48.414 80.8558L48.4211 80.8629Z" fill="#EFEBE7" stroke="#082422"/>
<path d="M49.0155 81.5137C47.7205 80.7636 47.0552 79.32 47.954 77.9825C48.1804 77.6569 48.4847 77.3739 48.8103 77.1474C48.8952 77.0908 49.0226 77.0129 49.1146 76.9634C49.2278 76.8997 49.3835 76.9139 49.5533 77.0129C48.0955 77.8268 48.0672 79.1784 49.4826 80.0205C50.8979 80.8627 53.2191 80.891 54.6769 80.0701C56.1347 79.2563 56.163 77.9046 54.7476 77.0625C53.3323 76.2204 51.0111 76.192 49.5533 77.0129C49.3835 76.9139 49.2278 76.8997 49.1146 76.9634C50.813 76.0293 53.2049 76.0293 54.9033 76.8643C56.2196 77.5012 57.1042 78.8175 56.4602 80.2187C56.0568 81.0254 55.4199 81.4642 54.592 81.8251C53.0917 82.4762 50.6219 82.4903 49.0155 81.5067V81.5137Z" fill="#CFCABF"/>
<path d="M49.1146 76.9634C49.0226 77.0129 48.8952 77.0908 48.8103 77.1474C48.4847 77.3739 48.1804 77.6569 47.954 77.9825C47.0552 79.32 47.7205 80.7636 49.0155 81.5137V81.5067C50.6219 82.4903 53.0917 82.4762 54.592 81.8251C55.4199 81.4642 56.0568 81.0254 56.4602 80.2187C57.1042 78.8175 56.2196 77.5012 54.9033 76.8643C53.2049 76.0293 50.813 76.0293 49.1146 76.9634ZM49.1146 76.9634C49.2278 76.8997 49.3835 76.9139 49.5533 77.0129M49.5533 77.0129C48.0955 77.8268 48.0672 79.1784 49.4826 80.0205C50.8979 80.8627 53.2191 80.891 54.6769 80.0701C56.1347 79.2563 56.163 77.9046 54.7476 77.0625C53.3323 76.2204 51.0111 76.192 49.5533 77.0129Z" stroke="#082422"/>
<path d="M55.7738 78.4282C55.7242 77.9328 55.3775 77.4516 54.7406 77.0695C53.3252 76.2273 51.0041 76.199 49.5463 77.0199L49.617 76.1141C51.0324 75.3215 53.2969 75.3428 54.6769 76.1637C55.2996 76.5387 55.6322 77.0058 55.6818 77.487C55.7101 77.7984 55.7455 78.1168 55.7738 78.4282Z" fill="#CFCABF" stroke="#082422"/>
<path d="M48.5413 77.4658C48.5909 76.9705 48.9518 76.4822 49.617 76.1071L49.5462 77.0129C48.8669 77.3951 48.4918 77.8975 48.4423 78.407C48.4777 78.0956 48.506 77.7772 48.5413 77.4658Z" fill="#CFCABF" stroke="#082422"/>
<path d="M48.4423 78.407C48.4777 78.0956 48.506 77.7772 48.5414 77.4658C48.4848 78.0249 48.8174 78.6051 49.5463 79.0368C50.9263 79.8577 53.1908 79.886 54.6062 79.0864C55.3846 78.6547 55.7384 78.0602 55.6818 77.4799C55.7101 77.7913 55.7455 78.1098 55.7738 78.4211C55.8304 79.0156 55.4624 79.6242 54.6698 80.07C53.212 80.8838 50.8909 80.8626 49.4755 80.0205C48.7254 79.5746 48.3786 78.9802 48.4423 78.407Z" fill="#EFEBE7" stroke="#082422"/>
<path d="M54.5777 77.6216C53.1765 78.4071 50.9403 78.3858 49.5815 77.572C48.2228 76.7582 48.2511 75.4632 49.6523 74.6776C51.0535 73.8921 53.2897 73.9134 54.6485 74.7272C56.0072 75.541 55.9789 76.836 54.5777 77.6216ZM54.7475 74.6706C53.3322 73.8284 51.011 73.8001 49.5532 74.621C48.0954 75.4348 48.0671 76.7865 49.4825 77.6286C50.8978 78.4708 53.219 78.4991 54.6768 77.6782C56.1346 76.8644 56.1629 75.5127 54.7475 74.6706Z" fill="#CFCABF" stroke="#082422"/>
<path d="M49.0226 79.1218C47.8478 78.4424 47.1826 77.1757 47.7629 75.9302C47.9469 75.5056 48.4069 75.0173 48.8173 74.7554C48.9022 74.6988 49.0296 74.621 49.1216 74.5714C49.2348 74.5078 49.3905 74.5219 49.5604 74.621C48.1026 75.4348 48.0743 76.7864 49.4896 77.6286C50.905 78.4707 53.2261 78.499 54.6839 77.6781C56.1417 76.8643 56.17 75.5126 54.7547 74.6705C53.3394 73.8284 51.0182 73.8001 49.5604 74.621C49.3905 74.5219 49.2348 74.5078 49.1216 74.5714C50.82 73.6373 53.212 73.6373 54.9104 74.4724C56.2266 75.1093 57.1112 76.4255 56.4673 77.8267C56.0639 78.6335 55.427 79.0722 54.599 79.4402C53.0917 80.0913 50.636 80.1054 49.0226 79.1288V79.1218Z" fill="#CFCABF"/>
<path d="M49.1216 74.5714C49.0296 74.621 48.9022 74.6988 48.8173 74.7554C48.4069 75.0173 47.9469 75.5056 47.7629 75.9302C47.1826 77.1757 47.8478 78.4424 49.0226 79.1218V79.1288C50.636 80.1054 53.0917 80.0913 54.599 79.4402C55.427 79.0722 56.0639 78.6335 56.4673 77.8267C57.1112 76.4255 56.2266 75.1093 54.9104 74.4724C53.212 73.6373 50.82 73.6373 49.1216 74.5714ZM49.1216 74.5714C49.2348 74.5078 49.3905 74.5219 49.5604 74.621M49.5604 74.621C48.1026 75.4348 48.0743 76.7864 49.4896 77.6286C50.905 78.4707 53.2261 78.499 54.6839 77.6781C56.1417 76.8643 56.17 75.5126 54.7547 74.6705C53.3394 73.8284 51.0182 73.8001 49.5604 74.621Z" stroke="#082422"/>
<path d="M48.5837 76.1C48.7748 70.4245 48.9659 61.5645 49.1569 55.896C49.1428 56.3419 49.4258 56.7948 50.0061 57.1486C51.1667 57.8421 53.0704 57.8563 54.2592 57.1911C54.8749 56.8443 55.1863 56.3772 55.1721 55.9173C55.3278 61.5928 55.4906 70.4528 55.6463 76.1284C55.6604 76.6733 55.3066 77.2182 54.5777 77.6286C53.1765 78.4141 50.9403 78.3929 49.5815 77.5791C48.8951 77.1686 48.5625 76.6379 48.5837 76.1142V76.1Z" fill="#EFEBE7" stroke="#082422"/>
<path d="M49.1657 52.1989C50.8405 51.3159 53.1733 51.2516 54.9616 52.0954L55.319 52.28L55.3268 52.2848C56.5715 53.0057 57.2763 54.1633 57.1804 55.4235C57.0861 56.6609 56.2401 57.7117 54.9909 58.2995L54.9919 58.3005C53.2279 59.1363 50.7729 59.1403 48.9723 58.0944C48.2288 57.6694 47.6043 57.0001 47.3151 56.1716C47.0154 55.3126 47.1029 54.3472 47.6901 53.4714L47.695 53.4636C47.9784 53.0488 48.3522 52.7101 48.7204 52.4587L48.7477 52.4411C48.7678 52.4283 48.7869 52.4158 48.8181 52.3952C48.8456 52.377 48.8853 52.3517 48.9274 52.3259C48.9767 52.2956 49.0454 52.256 49.1296 52.2175C49.1418 52.2114 49.1535 52.2045 49.1657 52.1989Z" fill="#CFCABF"/>
<path d="M49.1657 52.1989L49.3733 52.6538L49.3863 52.6478L49.3989 52.6412L49.1657 52.1989ZM54.9616 52.0954L55.191 51.6511L55.1831 51.647L55.175 51.6432L54.9616 52.0954ZM55.319 52.28L55.584 51.856L55.5667 51.8451L55.5484 51.8357L55.319 52.28ZM55.3268 52.2848L55.0618 52.7088L55.069 52.7133L55.0763 52.7175L55.3268 52.2848ZM57.1804 55.4235L57.6789 55.4615L57.6789 55.4615L57.1804 55.4235ZM54.9909 58.2995L54.778 57.8471L54.1343 58.15L54.6373 58.653L54.9909 58.2995ZM54.9919 58.3005L55.206 58.7523L55.8471 58.4486L55.3454 57.9469L54.9919 58.3005ZM48.9723 58.0944L49.2235 57.662L49.2205 57.6603L48.9723 58.0944ZM47.3151 56.1716L46.843 56.3363L46.843 56.3363L47.3151 56.1716ZM47.6901 53.4714L48.1054 53.7498L48.1099 53.7431L48.1141 53.7364L47.6901 53.4714ZM47.695 53.4636L47.2822 53.1815L47.2764 53.1899L47.271 53.1986L47.695 53.4636ZM48.7204 52.4587L48.4499 52.0379L48.4384 52.0458L48.7204 52.4587ZM48.7477 52.4411L48.4793 52.0193L48.4774 52.0205L48.7477 52.4411ZM48.8181 52.3952L48.5425 51.978L48.5425 51.978L48.8181 52.3952ZM48.9274 52.3259L48.6659 51.8997L48.6659 51.8997L48.9274 52.3259ZM49.1296 52.2175L49.3379 52.672L49.3444 52.669L49.3508 52.6659L49.1296 52.2175ZM49.1657 52.1989L49.3989 52.6412C50.9337 51.832 53.101 51.7703 54.7482 52.5476L54.9616 52.0954L55.175 51.6432C53.2456 50.7328 50.7474 50.7997 48.9325 51.7566L49.1657 52.1989ZM54.9616 52.0954L54.7322 52.5396L55.0896 52.7242L55.319 52.28L55.5484 51.8357L55.191 51.6511L54.9616 52.0954ZM55.319 52.28L55.054 52.704L55.0618 52.7088L55.3268 52.2848L55.5918 51.8608L55.584 51.856L55.319 52.28ZM55.3268 52.2848L55.0763 52.7175C56.1917 53.3635 56.7601 54.356 56.6818 55.3856L57.1804 55.4235L57.6789 55.4615C57.7924 53.9706 56.9512 52.6478 55.5774 51.8522L55.3268 52.2848ZM57.1804 55.4235L56.6818 55.3855C56.6042 56.4034 55.9042 57.3172 54.778 57.8471L54.9909 58.2995L55.2038 58.7519C56.576 58.1062 57.5679 56.9183 57.6789 55.4615L57.1804 55.4235ZM54.9909 58.2995L54.6373 58.653L54.6383 58.654L54.9919 58.3005L55.3454 57.9469L55.3445 57.9459L54.9909 58.2995ZM54.9919 58.3005L54.7778 57.8486C53.1501 58.6198 50.8701 58.6185 49.2235 57.6621L48.9723 58.0944L48.7212 58.5268C50.6757 59.662 53.3056 59.6527 55.206 58.7523L54.9919 58.3005ZM48.9723 58.0944L49.2205 57.6603C48.5636 57.2849 48.0303 56.7033 47.7872 56.0068L47.3151 56.1716L46.843 56.3363C47.1783 57.2969 47.8941 58.054 48.7242 58.5285L48.9723 58.0944ZM47.3151 56.1716L47.7872 56.0069C47.5388 55.2949 47.6066 54.4939 48.1054 53.7498L47.6901 53.4714L47.2748 53.1929C46.5993 54.2006 46.492 55.3302 46.843 56.3363L47.3151 56.1716ZM47.6901 53.4714L48.1141 53.7364L48.119 53.7286L47.695 53.4636L47.271 53.1986L47.2661 53.2064L47.6901 53.4714ZM47.695 53.4636L48.1079 53.7456C48.3488 53.393 48.6737 53.0961 49.0024 52.8716L48.7204 52.4587L48.4384 52.0458C48.0308 52.3242 47.6079 52.7046 47.2822 53.1815L47.695 53.4636ZM48.7204 52.4587L48.9908 52.8793L49.0181 52.8617L48.7477 52.4411L48.4774 52.0205L48.45 52.0381L48.7204 52.4587ZM48.7477 52.4411L49.0162 52.8629C49.0403 52.8476 49.0626 52.8329 49.0937 52.8124L48.8181 52.3952L48.5425 51.978C48.5111 51.9987 48.4953 52.0091 48.4793 52.0193L48.7477 52.4411ZM48.8181 52.3952L49.0937 52.8124C49.1157 52.7978 49.1507 52.7755 49.189 52.752L48.9274 52.3259L48.6659 51.8997C48.62 51.9279 48.5755 51.9562 48.5425 51.978L48.8181 52.3952ZM48.9274 52.3259L49.189 52.752C49.2273 52.7285 49.2776 52.6996 49.3379 52.672L49.1296 52.2175L48.9213 51.7629C48.8133 51.8124 48.7262 51.8627 48.6659 51.8997L48.9274 52.3259ZM49.1296 52.2175L49.3508 52.6659C49.3595 52.6616 49.3669 52.6577 49.372 52.655C49.3746 52.6536 49.377 52.6524 49.3788 52.6514C49.381 52.6502 49.3815 52.6499 49.3829 52.6492C49.3851 52.648 49.3848 52.6482 49.3835 52.6489C49.382 52.6496 49.3784 52.6514 49.3733 52.6538L49.1657 52.1989L48.9581 51.744C48.9368 51.7538 48.9191 51.7632 48.9124 51.7668C48.9072 51.7696 48.9071 51.7696 48.9053 51.7706C48.9044 51.7711 48.9058 51.7703 48.9084 51.769L49.1296 52.2175Z" fill="#082422"/>
<path d="M66.6226 0.655365L44.3097 4.52633L44.2885 12.5938L66.5518 25.4522L88.8222 38.3035L88.8434 30.236L66.6226 0.655365Z" fill="#EFEBE7" stroke="#082422"/>
<path d="M88.8222 38.3035L44.2884 12.5938L10.1574 32.4086L54.6912 58.1254L88.8222 38.3035Z" fill="#EFEBE7" stroke="#082422"/>
<path d="M12.0753 26.7615L46.1992 6.93961L46.1851 11.3413L12.0611 31.1561L12.0753 26.7615Z" fill="#CFCABF" stroke="#082422"/>
<path d="M66.5589 23.1028L46.1851 11.3413L12.0611 31.1561L32.435 42.9176L52.8018 54.6791L86.9328 34.8643L66.5589 23.1028Z" fill="#CFCABF" stroke="#082422"/>
<path d="M33.2416 22.7772L53.566 49.8456L53.5518 54.2473L33.185 42.4858L12.8112 30.7243L12.8253 26.3226L33.2416 22.7772Z" fill="#CFCABF" stroke="#082422"/>
<path d="M52.8157 50.2844L86.9396 30.4626L86.9326 34.8643L52.8016 54.6791L52.8157 50.2844Z" fill="#082422" stroke="#082422"/>
<path d="M10.179 24.3411L44.31 4.52627L66.6229 0.655304L32.499 20.4701L10.179 24.3411Z" fill="#EFEBE7" stroke="#082422"/>
<path d="M32.4985 20.4702L66.6224 0.655426L88.8433 30.2361L54.7123 50.058L32.4985 20.4702Z" fill="#EFEBE7" stroke="#082422"/>
<path d="M32.4986 20.4703L54.7195 50.058L54.6982 58.1255L32.4278 45.2671L10.1574 32.4087L10.1786 24.3412L32.4915 20.4703H32.4986ZM52.8017 54.6791L52.8158 50.2774L32.4915 23.209L12.0752 26.7544L12.061 31.1561L32.4349 42.9176L52.8088 54.6791H52.8017Z" fill="#EFEBE7" stroke="#082422"/>
<path d="M54.7123 50.0579L88.8433 30.236L88.822 38.3035L54.6911 58.1254L54.7123 50.0579Z" fill="#CFCABF" stroke="#082422"/>
<mask id="mask0_4026_3312" style="mask-type:luminance" maskUnits="userSpaceOnUse" x="27" y="25" width="11" height="16">
<path d="M34.7985 39.7046L35.6902 39.188C36.6031 38.6573 37.1621 37.5321 37.1692 35.9328C37.1763 32.7129 34.9118 28.7923 32.1094 27.1718C30.7011 26.358 29.4202 26.2801 28.5002 26.8179L27.6086 27.3345C28.5286 26.7967 29.8094 26.8746 31.2177 27.6884C34.0201 29.309 36.2846 33.2295 36.2776 36.4494C36.2776 38.0487 35.7114 39.1739 34.7985 39.7046Z" fill="white" stroke="white"/>
</mask>
<g mask="url(#mask0_4026_3312)">
<path d="M34.7985 39.7046L35.6902 39.188C36.6031 38.6573 37.1621 37.5321 37.1692 35.9328C37.1763 32.7129 34.9118 28.7923 32.1094 27.1718C30.7011 26.358 29.4202 26.2801 28.5002 26.8179L27.6086 27.3345C28.5286 26.7967 29.8094 26.8746 31.2177 27.6884C34.0201 29.309 36.2846 33.2295 36.2776 36.4494C36.2776 38.0487 35.7114 39.1739 34.7985 39.7046Z" fill="#0DC7C6" stroke="#082422"/>
</g>
<path d="M36.2774 36.4493C36.2845 33.2294 34.0199 29.3089 31.2176 27.6883C29.1795 26.5136 27.4244 26.8745 26.6106 28.396C26.3063 28.9692 26.1294 29.7052 26.1294 30.5898C26.1294 31.5805 26.3417 32.6349 26.7168 33.6681C27.566 36.0035 29.2502 38.2255 31.1893 39.3437C33.9916 40.9642 36.2703 39.6621 36.2774 36.4422V36.4493Z" fill="#2BF2F1" stroke="#082422"/>
<path d="M31.8262 29.8327V30.4696C32.7391 31.2126 33.3265 32.2317 33.3689 33.3215L31.812 32.4227C31.7908 31.9698 31.5219 31.5594 31.1327 31.3258C31.1256 31.3258 31.1185 31.3188 31.1115 31.3117C30.7788 31.1206 30.5312 31.1772 30.5312 31.5948C30.5312 32.7766 33.4468 33.923 33.4397 36.1946C33.4397 37.1783 32.8594 37.6878 31.805 37.2915V37.9072L30.6019 37.2137V36.5768C29.6749 35.8196 29.0167 34.751 28.9814 33.6187L30.5099 34.5033C30.5524 35.0482 30.8355 35.4657 31.2388 35.6993C31.6564 35.9399 31.9253 35.8549 31.9324 35.4586C31.9324 34.2061 28.9814 33.1729 29.0097 30.7809C29.0097 29.6911 29.6749 29.3939 30.6232 29.7619V29.1533L31.8262 29.8468V29.8327Z" fill="#002522"/>
</svg>
