<svg width="376" height="368" viewBox="0 0 376 368" fill="none" xmlns="http://www.w3.org/2000/svg">
<g clip-path="url(#clip0_15015_18824)">
<path d="M26.3574 141.903H349.643C363.995 141.903 375.636 153.657 375.636 168.164V217.896C375.636 232.403 363.995 244.157 349.643 244.157H26.3574C12.0048 244.157 0.364438 232.403 0.364258 217.896V168.164C0.364488 153.657 12.0048 141.903 26.3574 141.903Z" fill="#DCFF00" stroke="#082422" stroke-width="0.727568"/>
<path d="M188.004 8.66113C191.732 8.66119 194.729 11.5602 194.729 15.1055V118.135C194.729 121.68 191.732 124.58 188.004 124.58C184.276 124.58 181.278 121.68 181.278 118.135V15.1055C181.279 11.5602 184.276 8.66113 188.004 8.66113Z" fill="#DCFF00" stroke="#082422" stroke-width="0.727568"/>
<path d="M94.0059 85.2881H281.996C316.703 85.2881 344.834 113.244 344.834 147.726V223.204C344.834 257.686 316.702 285.643 281.997 285.643H94.0059C59.299 285.642 31.1689 257.686 31.1689 223.204V147.726C31.169 113.244 59.2991 85.2882 94.0059 85.2881Z" fill="#E0EBFC" stroke="#082422" stroke-width="0.727568"/>
<path d="M93.2412 121.405H281.289C295.565 121.405 307.183 133.051 307.183 147.369V223.562C307.183 237.88 295.565 249.526 281.289 249.526H93.2412C78.965 249.526 67.3486 237.88 67.3486 223.562V147.369C67.3487 133.051 78.9651 121.405 93.2412 121.405Z" fill="#2BF2F1" stroke="#082422" stroke-width="0.727568"/>
<path d="M188.001 0.364258C198.463 0.364299 206.95 8.93773 206.95 19.5225C206.95 30.1072 198.463 38.6816 188.001 38.6816C177.539 38.6816 169.052 30.1073 169.052 19.5225C169.052 8.9377 177.539 0.364258 188.001 0.364258Z" fill="#2BF2F1" stroke="#082422" stroke-width="0.727568"/>
<path d="M117.101 206.94C128.577 206.94 137.881 197.325 137.881 185.465C137.881 173.605 128.577 163.99 117.101 163.99C105.624 163.99 96.3203 173.605 96.3203 185.465C96.3203 197.325 105.624 206.94 117.101 206.94Z" fill="#082422"/>
<path d="M258.162 206.94C270.044 206.94 279.676 197.325 279.676 185.465C279.676 173.605 270.044 163.99 258.162 163.99C246.28 163.99 236.648 173.605 236.648 185.465C236.648 197.325 246.28 206.94 258.162 206.94Z" fill="#082422"/>
<path d="M212.813 203.399C212.616 216.774 201.588 227.562 188.001 227.562C174.414 227.562 163.387 216.774 163.189 203.399H212.813Z" fill="#082422" stroke="#082422" stroke-width="0.727568"/>
<path d="M250.535 286.37C280.89 300.641 299.63 333.079 295.968 367.637H80.5146C76.8525 333.08 95.5931 300.641 125.947 286.37H250.535Z" fill="#E0EBFC" stroke="#082422" stroke-width="0.727568"/>
<path d="M117.389 161.425C130.416 161.425 141.023 172.202 141.023 185.464C141.023 198.726 130.414 209.503 117.389 209.503C104.363 209.503 93.7549 198.725 93.7549 185.464C93.7549 172.202 104.362 161.425 117.389 161.425ZM258.614 161.425C271.641 161.425 282.249 172.202 282.249 185.464C282.249 198.726 271.64 209.503 258.614 209.503C245.589 209.503 234.98 198.725 234.979 185.464C234.979 172.202 245.587 161.425 258.614 161.425ZM117.389 166.824C107.272 166.824 99.0527 175.191 99.0527 185.464C99.0528 195.737 107.272 204.103 117.389 204.104C127.506 204.104 135.726 195.737 135.726 185.464C135.726 175.191 127.506 166.824 117.389 166.824ZM258.614 166.824C248.497 166.824 240.277 175.191 240.277 185.464C240.277 195.737 248.497 204.103 258.614 204.104C268.731 204.104 276.951 195.737 276.951 185.464C276.951 175.191 268.732 166.824 258.614 166.824Z" fill="#082422" stroke="#082422" stroke-width="0.727568"/>
<path d="M187.761 230.919C172.273 230.919 159.672 218.341 159.672 202.88C159.672 201.221 161.02 199.875 162.682 199.875H212.839C214.501 199.875 215.849 201.221 215.849 202.88C215.851 218.341 203.25 230.919 187.761 230.919ZM165.897 205.886C167.37 216.616 176.615 224.911 187.761 224.911C198.908 224.911 208.152 216.616 209.626 205.886H165.897Z" fill="#082422"/>
</g>
<defs>
<clipPath id="clip0_15015_18824">
<rect width="376" height="368" fill="white"/>
</clipPath>
</defs>
</svg>
