<svg width="682" height="457" viewBox="0 0 682 457" fill="none" xmlns="http://www.w3.org/2000/svg">
<g clip-path="url(#clip0_14997_18401)">
<path opacity="0.2" d="M182.663 59.1737C243.187 66.0119 271.951 104.179 246.91 144.435C221.874 184.683 152.511 211.762 91.9869 204.924C31.4606 198.08 2.69634 159.913 27.7328 119.665C52.7693 79.4173 122.13 52.332 182.663 59.1737Z" fill="black"/>
<path d="M177.471 150.586L174.907 163.708C173.207 172.393 168.465 180.613 160.488 187.611C133.731 211.08 80.6846 211.913 42.0068 189.477C14.858 173.732 2.00613 150.703 6.00518 130.261L8.56945 117.139C4.5704 137.581 17.4223 160.605 44.5711 176.355C83.2489 198.791 136.295 197.953 163.052 174.489C171.03 167.491 175.771 159.271 177.471 150.586Z" fill="#9CAD00" stroke="#082422" stroke-width="0.438018" stroke-miterlimit="10"/>
<path d="M141.447 91.4017C180.125 113.838 189.787 151.047 163.025 174.521C136.268 197.99 83.2217 198.823 44.5438 176.387C5.86599 153.946 -3.79584 116.736 22.9612 93.2676C49.7182 69.7989 102.764 68.9605 141.447 91.4017Z" fill="#9CAD00" stroke="#082422" stroke-width="0.438018" stroke-miterlimit="10"/>
<path d="M132.5 113.817L124.939 120.447C133.538 127.92 135.11 135.409 128.826 142.331L108.475 130.522C110.79 127.338 109.996 124.562 105.855 122.159C101.978 119.91 98.7318 119.803 97.2054 121.142C94.9515 123.12 97.6023 125.543 103.367 130.757L106.221 133.39C118.539 144.8 121.006 151.113 113.873 157.37C106.984 163.412 95.6536 163.591 82.0233 158.081L73.613 165.457L53.7857 153.955L62.262 146.523C51.9846 138.073 50.9009 130.164 57.4896 123.233L79.0774 135.757C76.2536 139.003 77.2763 142.085 82.125 144.897C86.4395 147.402 90.2961 148.128 92.433 146.257C94.3206 144.6 92.2549 142.689 88.5866 139.228L82.4964 133.651C69.9956 122.4 68.7287 115.805 75.6838 109.712C81.9622 104.206 92.2295 103.675 105.239 108.827L112.678 102.305L132.505 113.806L132.5 113.817Z" fill="white" stroke="#082422" stroke-width="0.438018" stroke-miterlimit="10"/>
<path d="M179.244 125.877L176.68 138.999C174.981 147.684 170.239 155.904 162.261 162.902C135.504 186.371 82.4581 187.204 43.7802 164.768C16.6315 149.023 3.77956 125.994 7.77861 105.552L10.3429 92.4297C6.34384 112.872 19.1957 135.896 46.3445 151.646C85.0224 174.082 138.068 173.244 164.825 149.78C172.803 142.782 177.545 134.562 179.244 125.877Z" fill="#9CAD00" stroke="#082422" stroke-width="0.438018" stroke-miterlimit="10"/>
<path d="M143.22 66.6908C181.898 89.1269 191.56 126.336 164.798 149.81C138.041 173.279 84.9951 174.112 46.3173 151.676C7.63943 129.235 -2.0224 92.0253 24.7346 68.5566C51.4916 45.0879 104.538 44.2496 143.22 66.6908Z" fill="#9CAD00" stroke="#082422" stroke-width="0.438018" stroke-miterlimit="10"/>
<path d="M134.273 89.1077L126.713 95.7378C135.311 103.211 136.883 110.7 130.6 117.622L110.248 105.813C112.563 102.629 111.77 99.8529 107.628 97.4503C103.751 95.201 100.505 95.0937 98.9788 96.433C96.7249 98.4113 99.3757 100.834 105.14 106.048L107.995 108.681C120.312 120.091 122.78 126.404 115.647 132.661C108.758 138.703 97.427 138.882 83.7967 133.372L75.3865 140.748L55.5591 129.246L64.0355 121.814C53.758 113.364 52.6743 105.455 59.2631 98.5238L80.8508 111.048C78.0271 114.294 79.0497 117.376 83.8984 120.188C88.2129 122.693 92.0695 123.419 94.2064 121.548C96.094 119.891 94.0284 117.98 90.36 114.519L84.2699 108.942C71.769 97.6905 70.5021 91.0962 77.4572 85.0028C83.7356 79.4973 94.0029 78.9657 107.013 84.1185L114.451 77.5957L134.278 89.0975L134.273 89.1077Z" fill="white" stroke="#082422" stroke-width="0.438018" stroke-miterlimit="10"/>
<path d="M172.182 108.232L169.617 121.354C167.918 130.04 163.176 138.259 155.199 145.258C128.442 168.726 75.3956 169.56 36.7177 147.123C9.56897 131.379 -3.28294 108.35 0.716113 87.9074L3.28039 74.7852C-0.71866 95.2276 12.1332 118.252 39.282 134.001C77.9599 156.437 131.006 155.599 157.763 132.135C165.741 125.137 170.482 116.917 172.182 108.232Z" fill="#9CAD00" stroke="#082422" stroke-width="0.438018" stroke-miterlimit="10"/>
<path d="M136.158 49.0463C174.836 71.4823 184.498 108.692 157.736 132.166C130.979 155.634 77.9326 156.467 39.2548 134.031C0.57693 111.59 -9.0849 74.3808 17.6721 50.9121C44.4291 27.4434 97.475 26.6051 136.158 49.0463Z" fill="#DCFF00" stroke="#082422" stroke-width="0.438018" stroke-miterlimit="10"/>
<path d="M127.211 71.4631L119.65 78.0933C128.249 85.5668 129.821 93.0558 123.537 99.9773L103.186 88.1688C105.501 84.9841 104.707 82.2083 100.566 79.8057C96.6887 77.5565 93.4427 77.4492 91.9163 78.7885C89.6624 80.7668 92.3132 83.1898 98.0777 88.4039L100.932 91.0366C113.25 102.446 115.717 108.759 108.584 115.016C101.695 121.059 90.3645 121.238 76.7342 115.727L68.324 123.103L48.4966 111.602L56.973 104.169C46.6955 95.7191 45.6118 87.811 52.2006 80.8792L73.7883 93.4034C70.9646 96.6494 71.9872 99.7319 76.8359 102.543C81.1504 105.048 85.007 105.774 87.1439 103.903C89.0315 102.247 86.9659 100.335 83.2975 96.8743L77.2074 91.2973C64.7065 80.046 63.4396 73.4517 70.3947 67.3583C76.6731 61.8528 86.9404 61.3212 99.9501 66.4739L107.388 59.9512L127.216 71.4529L127.211 71.4631Z" fill="white" stroke="#082422" stroke-width="0.438018" stroke-miterlimit="10"/>
<path d="M188.057 94.1131L185.492 107.235C183.793 115.92 179.051 124.14 171.074 131.138C144.317 154.607 91.2706 155.44 52.5927 133.004C25.444 117.26 12.5921 94.2307 16.5911 73.7882L19.1554 60.666C15.1563 81.1085 28.0082 104.132 55.157 119.882C93.8349 142.318 146.881 141.48 173.638 118.016C181.616 111.018 186.357 102.798 188.057 94.1131Z" fill="#9CAD00" stroke="#082422" stroke-width="0.438018" stroke-miterlimit="10"/>
<path d="M152.041 34.9271C190.719 57.3632 200.38 94.5726 173.618 118.046C146.861 141.515 93.8154 142.348 55.1376 119.912C16.4597 97.4711 6.79791 60.2616 33.5549 36.793C60.3119 13.3243 113.358 12.4859 152.041 34.9271Z" fill="#DCFF00" stroke="#082422" stroke-width="0.438018" stroke-miterlimit="10"/>
<path d="M143.086 57.3421L135.525 63.9722C144.124 71.4457 145.696 78.9347 139.412 85.8562L119.061 74.0477C121.376 70.863 120.582 68.0872 116.441 65.6847C112.564 63.4354 109.318 63.3281 107.791 64.6674C105.537 66.6457 108.188 69.0687 113.953 74.2828L116.807 76.9155C129.125 88.3252 131.592 94.6384 124.459 100.895C117.57 106.938 106.24 107.117 92.6092 101.606L84.199 108.982L64.3716 97.4806L72.848 90.0479C62.5705 81.598 61.4868 73.6899 68.0756 66.7581L89.6633 79.2823C86.8396 82.5283 87.8622 85.6108 92.7109 88.4223C97.0254 90.9272 100.882 91.653 103.019 89.7821C104.907 88.1258 102.841 86.214 99.1725 82.7532L93.0824 77.1762C80.5815 65.9249 79.3146 59.3306 86.2697 53.2372C92.5481 47.7317 102.815 47.2001 115.825 52.3528L123.263 45.8301L143.091 57.3318L143.086 57.3421Z" fill="white" stroke="#082422" stroke-width="0.438018" stroke-miterlimit="10"/>
<path d="M84.586 252.568L343.162 136.605L419.995 33.6875L681.989 164.761V198.444L605.157 301.361L345.806 451.456C332.562 459.121 316.161 458.819 303.203 450.672L84.0964 312.88C74.1823 306.651 74.4516 258.421 84.586 252.56V252.568Z" fill="#00B1B0" stroke="#00201D" stroke-width="0.876035" stroke-miterlimit="10"/>
<path d="M84.586 252.571L343.162 102.918L419.995 0L681.989 164.764L605.157 267.682L345.806 417.776C332.562 425.442 316.161 425.14 303.203 416.993L84.0964 279.201C74.1823 272.972 74.4516 258.424 84.586 252.563V252.571Z" fill="#2BF2F1" stroke="#00201D" stroke-width="0.876035" stroke-miterlimit="10"/>
<path d="M343.172 102.918L605.175 267.682L682.008 164.764L420.013 0L343.172 102.918Z" fill="#9CFFFF" stroke="#00201D" stroke-width="0.876035" stroke-miterlimit="10"/>
<path d="M395.739 87.6426L424.167 49.568C426.452 46.5067 430.711 45.7148 433.951 47.7475L627.461 169.433C631.084 171.711 631.997 176.601 629.435 180.037L601.007 218.112C598.722 221.173 594.462 221.965 591.223 219.933L397.713 98.247C394.09 95.9694 393.176 91.0795 395.739 87.6426Z" fill="#FEFCF9" stroke="#00201D" stroke-width="0.876035" stroke-miterlimit="10"/>
<path d="M154.417 247.631C155.363 247.06 156.522 247.044 157.444 247.591L186.827 259.934C187.766 260.489 186.966 266.489 186.011 267.061L158.872 283.469C157.787 284.131 156.448 284.147 155.379 283.518L127.171 266.775C126.159 266.179 125.539 259.673 126.567 259.06L154.425 247.623L154.417 247.631Z" fill="#BFBBB8" stroke="#00201D" stroke-width="0.876035" stroke-miterlimit="10"/>
<path d="M127.272 261.131L155.48 277.875C156.549 278.503 157.887 278.487 158.981 277.826L186.12 261.409C187.075 260.837 187.091 259.458 186.153 258.911L157.553 241.93C156.623 241.384 155.464 241.4 154.526 241.971L127.313 258.429C126.285 259.049 126.268 260.527 127.28 261.123L127.272 261.131Z" fill="#FEFCF9" stroke="#00201D" stroke-width="0.876035" stroke-miterlimit="10"/>
<path d="M199.677 221.181C200.616 220.61 201.775 220.601 202.697 221.14L232.015 233.459C232.945 234.014 232.145 239.998 231.199 240.569L204.125 256.937C203.039 257.59 201.701 257.607 200.64 256.986L172.497 240.284C171.494 239.696 170.865 233.206 171.893 232.586L199.677 221.181Z" fill="#BFBBB8" stroke="#00201D" stroke-width="0.876035" stroke-miterlimit="10"/>
<path d="M172.629 234.644L200.772 251.347C201.841 251.975 203.179 251.959 204.264 251.298L231.338 234.922C232.285 234.35 232.309 232.979 231.371 232.432L202.836 215.501C201.914 214.954 200.755 214.97 199.809 215.542L172.661 231.958C171.641 232.579 171.617 234.057 172.629 234.644Z" fill="#FEFCF9" stroke="#00201D" stroke-width="0.876035" stroke-miterlimit="10"/>
<path d="M244.443 195.003C245.381 194.432 246.54 194.424 247.462 194.963L276.78 207.281C277.711 207.836 276.911 213.82 275.964 214.392L248.89 230.76C247.805 231.413 246.467 231.429 245.406 230.809L217.263 214.106C216.259 213.518 215.631 207.028 216.659 206.408L244.443 195.003Z" fill="#BFBBB8" stroke="#00201D" stroke-width="0.876035" stroke-miterlimit="10"/>
<path d="M217.386 208.472L245.53 225.175C246.598 225.804 247.937 225.787 249.022 225.126L276.096 208.75C277.043 208.178 277.067 206.807 276.129 206.26L247.594 189.329C246.672 188.782 245.513 188.798 244.567 189.37L217.419 205.787C216.399 206.407 216.375 207.885 217.386 208.472Z" fill="#FEFCF9" stroke="#00201D" stroke-width="0.876035" stroke-miterlimit="10"/>
<path d="M289.216 168.826C290.155 168.254 291.313 168.246 292.243 168.785L321.562 181.104C322.492 181.659 321.692 187.643 320.746 188.214L293.671 204.582C292.586 205.235 291.248 205.251 290.187 204.631L262.044 187.928C261.04 187.34 260.412 180.85 261.44 180.23L289.224 168.826H289.216Z" fill="#BFBBB8" stroke="#00201D" stroke-width="0.876035" stroke-miterlimit="10"/>
<path d="M262.144 182.299L290.287 199.001C291.356 199.63 292.694 199.613 293.78 198.952L320.854 182.576C321.8 182.005 321.825 180.633 320.887 180.086L292.352 163.155C291.43 162.608 290.271 162.625 289.324 163.196L262.177 179.613C261.157 180.233 261.132 181.711 262.144 182.299Z" fill="#FEFCF9" stroke="#00201D" stroke-width="0.876035" stroke-miterlimit="10"/>
<path d="M333.967 142.656C334.905 142.084 336.064 142.076 336.986 142.615L366.304 154.934C367.234 155.489 366.434 161.473 365.488 162.044L338.414 178.412C337.328 179.065 335.99 179.081 334.929 178.461L306.786 161.758C305.783 161.171 305.154 154.681 306.182 154.06L333.967 142.656Z" fill="#AF2E2E" stroke="#00201D" stroke-width="0.876035" stroke-miterlimit="10"/>
<path d="M306.902 156.119L335.045 172.821C336.114 173.45 337.452 173.434 338.538 172.772L365.612 156.396C366.558 155.825 366.583 154.454 365.644 153.907L337.11 136.975C336.188 136.429 335.029 136.445 334.082 137.016L306.935 153.433C305.915 154.053 305.89 155.531 306.902 156.119Z" fill="#F26629" stroke="#00201D" stroke-width="0.876035" stroke-miterlimit="10"/>
<path d="M198.323 275.196C199.269 274.624 200.428 274.608 201.35 275.155L230.734 287.498C231.672 288.054 230.872 294.054 229.918 294.625L202.778 311.034C201.693 311.695 200.355 311.711 199.286 311.083L171.077 294.339C170.066 293.743 169.445 287.237 170.473 286.625L198.331 275.188L198.323 275.196Z" fill="#BFBBB8" stroke="#00201D" stroke-width="0.876035" stroke-miterlimit="10"/>
<path d="M171.186 288.701L199.394 305.445C200.463 306.073 201.801 306.057 202.895 305.396L230.034 288.979C230.989 288.408 231.005 287.028 230.067 286.481L201.467 269.501C200.537 268.954 199.378 268.97 198.44 269.542L171.227 285.999C170.199 286.62 170.182 288.097 171.194 288.693L171.186 288.701Z" fill="#FEFCF9" stroke="#00201D" stroke-width="0.876035" stroke-miterlimit="10"/>
<path d="M243.599 248.751C244.537 248.18 245.696 248.172 246.626 248.711L275.944 261.029C276.875 261.584 276.075 267.568 275.128 268.14L248.054 284.508C246.969 285.161 245.631 285.177 244.57 284.557L216.427 267.854C215.423 267.266 214.795 260.776 215.823 260.156L243.607 248.751H243.599Z" fill="#BFBBB8" stroke="#00201D" stroke-width="0.876035" stroke-miterlimit="10"/>
<path d="M216.543 262.22L244.686 278.923C245.755 279.552 247.093 279.535 248.178 278.874L275.252 262.498C276.199 261.927 276.223 260.555 275.285 260.008L246.75 243.077C245.828 242.53 244.669 242.546 243.723 243.118L216.575 259.535C215.555 260.155 215.531 261.633 216.543 262.22Z" fill="#FEFCF9" stroke="#00201D" stroke-width="0.876035" stroke-miterlimit="10"/>
<path d="M288.357 222.576C289.295 222.004 290.454 221.996 291.384 222.535L320.702 234.854C321.632 235.409 320.833 241.393 319.886 241.964L292.812 258.332C291.727 258.985 290.389 259.001 289.328 258.381L261.185 241.678C260.181 241.091 259.553 234.6 260.581 233.98L288.365 222.576H288.357Z" fill="#BFBBB8" stroke="#00201D" stroke-width="0.876035" stroke-miterlimit="10"/>
<path d="M261.3 236.039L289.444 252.741C290.513 253.37 291.851 253.354 292.936 252.692L320.01 236.316C320.957 235.745 320.981 234.373 320.043 233.827L291.508 216.895C290.586 216.348 289.427 216.365 288.481 216.936L261.333 233.353C260.313 233.973 260.289 235.451 261.3 236.039Z" fill="#FEFCF9" stroke="#00201D" stroke-width="0.876035" stroke-miterlimit="10"/>
<path d="M333.13 196.4C334.069 195.828 335.227 195.82 336.158 196.359L365.476 208.678C366.406 209.233 365.606 215.217 364.66 215.788L337.585 232.156C336.5 232.809 335.162 232.826 334.101 232.205L305.958 215.502C304.954 214.915 304.326 208.425 305.354 207.804L333.138 196.4H333.13Z" fill="#BFBBB8" stroke="#00201D" stroke-width="0.876035" stroke-miterlimit="10"/>
<path d="M306.066 209.871L334.209 226.573C335.278 227.202 336.616 227.186 337.702 226.524L364.776 210.148C365.722 209.577 365.747 208.205 364.808 207.659L336.274 190.727C335.352 190.18 334.193 190.197 333.246 190.768L306.099 207.185C305.079 207.805 305.054 209.283 306.066 209.871Z" fill="#FEFCF9" stroke="#00201D" stroke-width="0.876035" stroke-miterlimit="10"/>
<path d="M377.888 170.226C378.826 169.655 379.985 169.646 380.915 170.185L410.234 182.504C411.164 183.059 410.364 189.043 409.418 189.614L382.343 205.982C381.258 206.635 379.92 206.652 378.859 206.031L350.716 189.329C349.712 188.741 349.084 182.251 350.112 181.63L377.896 170.226H377.888Z" fill="#AF2E2E" stroke="#00201D" stroke-width="0.876035" stroke-miterlimit="10"/>
<path d="M350.816 183.693L378.959 200.396C380.028 201.024 381.366 201.008 382.452 200.347L409.526 183.971C410.472 183.399 410.497 182.028 409.558 181.481L381.024 164.55C380.102 164.003 378.943 164.019 377.996 164.59L350.849 181.007C349.829 181.628 349.804 183.105 350.816 183.693Z" fill="#F26629" stroke="#00201D" stroke-width="0.876035" stroke-miterlimit="10"/>
<path d="M242.237 302.778C243.183 302.207 244.342 302.19 245.264 302.737L274.648 315.08C275.586 315.635 274.786 321.636 273.832 322.207L246.692 338.616C245.607 339.277 244.269 339.293 243.2 338.665L214.991 321.921C213.98 321.325 213.359 314.819 214.388 314.207L242.245 302.77L242.237 302.778Z" fill="#BFBBB8" stroke="#00201D" stroke-width="0.876035" stroke-miterlimit="10"/>
<path d="M215.108 316.27L243.317 333.013C244.386 333.642 245.724 333.625 246.817 332.964L273.957 316.547C274.911 315.976 274.928 314.596 273.989 314.049L245.381 297.069C244.451 296.522 243.292 296.539 242.354 297.11L215.141 313.568C214.113 314.188 214.096 315.666 215.108 316.262V316.27Z" fill="#FEFCF9" stroke="#00201D" stroke-width="0.876035" stroke-miterlimit="10"/>
<path d="M287.521 276.328C288.459 275.756 289.618 275.748 290.548 276.287L319.866 288.606C320.796 289.161 319.997 295.144 319.05 295.716L291.976 312.084C290.891 312.737 289.553 312.753 288.492 312.133L260.349 295.43C259.345 294.842 258.717 288.352 259.745 287.732L287.529 276.328H287.521Z" fill="#BFBBB8" stroke="#00201D" stroke-width="0.876035" stroke-miterlimit="10"/>
<path d="M260.457 289.791L288.6 306.493C289.669 307.122 291.007 307.106 292.092 306.444L319.166 290.068C320.113 289.497 320.137 288.125 319.199 287.578L290.664 270.647C289.742 270.1 288.584 270.117 287.637 270.688L260.489 287.105C259.469 287.725 259.445 289.203 260.457 289.791Z" fill="#FEFCF9" stroke="#00201D" stroke-width="0.876035" stroke-miterlimit="10"/>
<path d="M332.279 250.148C333.217 249.576 334.376 249.568 335.298 250.107L364.616 262.426C365.546 262.981 364.747 268.965 363.8 269.536L336.726 285.904C335.641 286.557 334.303 286.574 333.242 285.953L305.099 269.251C304.095 268.663 303.467 262.173 304.495 261.552L332.279 250.148Z" fill="#BFBBB8" stroke="#00201D" stroke-width="0.876035" stroke-miterlimit="10"/>
<path d="M305.222 263.615L333.365 280.318C334.434 280.946 335.773 280.93 336.858 280.269L363.932 263.893C364.879 263.321 364.903 261.95 363.965 261.403L335.43 244.472C334.508 243.925 333.349 243.941 332.403 244.512L305.255 260.929C304.235 261.55 304.21 263.027 305.222 263.615Z" fill="#FEFCF9" stroke="#00201D" stroke-width="0.876035" stroke-miterlimit="10"/>
<path d="M377.044 223.97C377.983 223.399 379.141 223.391 380.072 223.929L409.39 236.248C410.32 236.803 409.52 242.787 408.574 243.358L381.5 259.726C380.414 260.379 379.076 260.396 378.015 259.775L349.872 243.073C348.868 242.485 348.24 235.995 349.268 235.375L377.052 223.97H377.044Z" fill="#BFBBB8" stroke="#00201D" stroke-width="0.876035" stroke-miterlimit="10"/>
<path d="M349.98 237.447L378.123 254.15C379.192 254.778 380.53 254.762 381.616 254.101L408.69 237.725C409.636 237.153 409.661 235.782 408.723 235.235L380.188 218.304C379.266 217.757 378.107 217.773 377.16 218.344L350.013 234.761C348.993 235.382 348.968 236.859 349.98 237.447Z" fill="#FEFCF9" stroke="#00201D" stroke-width="0.876035" stroke-miterlimit="10"/>
<path d="M421.787 197.804C422.725 197.233 423.884 197.225 424.806 197.763L454.124 210.082C455.054 210.637 454.255 216.621 453.308 217.193L426.234 233.56C425.149 234.213 423.81 234.23 422.75 233.609L394.607 216.907C393.603 216.319 392.975 209.829 394.003 209.209L421.787 197.804Z" fill="#BFBBB8" stroke="#00201D" stroke-width="0.876035" stroke-miterlimit="10"/>
<path d="M394.738 211.265L422.881 227.968C423.95 228.597 425.288 228.58 426.373 227.919L453.448 211.543C454.394 210.972 454.419 209.6 453.48 209.053L424.946 192.122C424.023 191.575 422.865 191.591 421.918 192.163L394.771 208.58C393.751 209.2 393.726 210.678 394.738 211.265Z" fill="#FEFCF9" stroke="#00201D" stroke-width="0.876035" stroke-miterlimit="10"/>
<path d="M286.159 330.348C287.105 329.777 288.264 329.76 289.186 330.307L318.57 342.651C319.508 343.206 318.708 349.206 317.754 349.777L290.614 366.186C289.529 366.847 288.191 366.864 287.122 366.235L258.913 349.492C257.901 348.896 257.281 342.389 258.309 341.777L286.167 330.34L286.159 330.348Z" fill="#BFBBB8" stroke="#00201D" stroke-width="0.876035" stroke-miterlimit="10"/>
<path d="M259.022 343.846L287.231 360.589C288.3 361.218 289.638 361.202 290.731 360.54L317.871 344.124C318.825 343.552 318.842 342.172 317.903 341.625L289.295 324.645C288.365 324.098 287.206 324.115 286.268 324.686L259.055 341.144C258.027 341.764 258.01 343.242 259.022 343.838V343.846Z" fill="#FEFCF9" stroke="#00201D" stroke-width="0.876035" stroke-miterlimit="10"/>
<path d="M331.427 303.896C332.366 303.325 333.524 303.316 334.447 303.855L363.765 316.174C364.695 316.729 363.895 322.713 362.949 323.284L335.874 339.652C334.789 340.305 333.451 340.322 332.39 339.701L304.247 322.999C303.243 322.411 302.615 315.921 303.643 315.3L331.427 303.896Z" fill="#BFBBB8" stroke="#00201D" stroke-width="0.876035" stroke-miterlimit="10"/>
<path d="M304.379 317.365L332.522 334.068C333.591 334.696 334.929 334.68 336.014 334.019L363.088 317.643C364.035 317.071 364.059 315.7 363.121 315.153L334.586 298.222C333.664 297.675 332.505 297.691 331.559 298.262L304.411 314.679C303.391 315.3 303.367 316.777 304.379 317.365Z" fill="#FEFCF9" stroke="#00201D" stroke-width="0.876035" stroke-miterlimit="10"/>
<path d="M376.193 277.728C377.131 277.156 378.29 277.148 379.212 277.687L408.53 290.006C409.461 290.561 408.661 296.545 407.714 297.116L380.64 313.484C379.555 314.137 378.217 314.154 377.156 313.533L349.013 296.831C348.009 296.243 347.381 289.753 348.409 289.132L376.193 277.728Z" fill="#BFBBB8" stroke="#00201D" stroke-width="0.876035" stroke-miterlimit="10"/>
<path d="M349.129 291.195L377.272 307.898C378.341 308.526 379.679 308.51 380.764 307.849L407.838 291.473C408.785 290.901 408.809 289.53 407.871 288.983L379.336 272.052C378.414 271.505 377.255 271.521 376.309 272.092L349.161 288.509C348.141 289.13 348.117 290.607 349.129 291.195Z" fill="#FEFCF9" stroke="#00201D" stroke-width="0.876035" stroke-miterlimit="10"/>
<path d="M420.951 251.548C421.889 250.977 423.048 250.969 423.97 251.507L453.288 263.826C454.218 264.381 453.419 270.365 452.472 270.937L425.398 287.305C424.313 287.958 422.974 287.974 421.914 287.353L393.771 270.651C392.767 270.063 392.139 263.573 393.167 262.953L420.951 251.548Z" fill="#BFBBB8" stroke="#00201D" stroke-width="0.876035" stroke-miterlimit="10"/>
<path d="M393.902 265.013L422.045 281.716C423.114 282.345 424.452 282.328 425.538 281.667L452.612 265.291C453.558 264.72 453.583 263.348 452.644 262.801L424.11 245.87C423.187 245.323 422.029 245.339 421.082 245.911L393.935 262.328C392.915 262.948 392.89 264.426 393.902 265.013Z" fill="#FEFCF9" stroke="#00201D" stroke-width="0.876035" stroke-miterlimit="10"/>
<path d="M465.716 225.369C466.655 224.797 467.813 224.789 468.743 225.328L498.062 237.646C498.992 238.202 498.192 244.186 497.246 244.757L470.171 261.125C469.086 261.778 467.748 261.794 466.687 261.174L438.544 244.471C437.54 243.883 436.912 237.393 437.94 236.773L465.724 225.369H465.716Z" fill="#BFBBB8" stroke="#00201D" stroke-width="0.876035" stroke-miterlimit="10"/>
<path d="M438.644 238.842L466.787 255.544C467.856 256.173 469.195 256.156 470.28 255.495L497.354 239.119C498.301 238.548 498.325 237.176 497.387 236.629L468.852 219.698C467.93 219.151 466.771 219.167 465.824 219.739L438.677 236.156C437.657 236.776 437.632 238.254 438.644 238.842Z" fill="#FEFCF9" stroke="#00201D" stroke-width="0.876035" stroke-miterlimit="10"/>
<path fill-rule="evenodd" clip-rule="evenodd" d="M378.363 331.431C377.441 330.892 376.283 330.901 375.344 331.472L347.56 342.877C347.012 343.207 346.935 345.205 347.134 347.089L302.223 369.352C301.195 369.964 301.815 376.47 302.827 377.066L331.036 393.81C332.105 394.438 333.443 394.422 334.528 393.76L378.976 367.588C379.258 367.504 379.532 367.385 379.791 367.228L387.46 362.592L391.785 360.045C391.848 360.008 391.911 359.946 391.972 359.865L406.866 350.86C407.812 350.289 408.612 344.305 407.682 343.75L378.363 331.431Z" fill="#BFBBB8"/>
<path d="M375.344 331.472L375.511 331.877L375.543 331.864L375.572 331.846L375.344 331.472ZM378.363 331.431L378.142 331.809L378.167 331.824L378.194 331.835L378.363 331.431ZM347.56 342.877L347.394 342.471L347.363 342.484L347.334 342.502L347.56 342.877ZM347.134 347.089L347.328 347.481L347.602 347.346L347.569 347.042L347.134 347.089ZM302.223 369.352L302.029 368.959L302.014 368.967L301.999 368.975L302.223 369.352ZM302.827 377.066L303.051 376.689L303.05 376.689L302.827 377.066ZM331.036 393.81L330.812 394.186L330.814 394.187L331.036 393.81ZM334.528 393.76L334.306 393.383L334.3 393.386L334.528 393.76ZM378.976 367.588L378.852 367.168L378.8 367.183L378.754 367.21L378.976 367.588ZM379.791 367.228L380.017 367.604L380.018 367.603L379.791 367.228ZM387.46 362.592L387.238 362.215L387.233 362.217L387.46 362.592ZM391.785 360.045L392.008 360.423L392.01 360.421L391.785 360.045ZM391.972 359.865L391.745 359.49L391.672 359.534L391.621 359.602L391.972 359.865ZM406.866 350.86L406.639 350.486L406.639 350.486L406.866 350.86ZM407.682 343.75L407.906 343.374L407.88 343.358L407.851 343.346L407.682 343.75ZM375.344 331.472L375.572 331.846C376.374 331.358 377.361 331.353 378.142 331.809L378.363 331.431L378.584 331.053C377.522 330.432 376.191 330.444 375.116 331.098L375.344 331.472ZM347.56 342.877L347.726 343.282L375.511 331.877L375.344 331.472L375.178 331.067L347.394 342.471L347.56 342.877ZM347.134 347.089L347.569 347.042C347.472 346.119 347.443 345.177 347.503 344.436C347.534 344.063 347.585 343.759 347.653 343.538C347.728 343.294 347.796 343.246 347.786 343.252L347.56 342.877L347.334 342.502C347.05 342.673 346.903 342.998 346.816 343.28C346.721 343.586 346.663 343.961 346.63 344.365C346.564 345.176 346.597 346.175 346.698 347.135L347.134 347.089ZM302.223 369.352L302.418 369.744L347.328 347.481L347.134 347.089L346.939 346.696L302.029 368.959L302.223 369.352ZM302.827 377.066L303.05 376.689C303.054 376.691 303.033 376.679 302.994 376.627C302.956 376.576 302.912 376.502 302.865 376.401C302.769 376.199 302.674 375.922 302.585 375.584C302.409 374.911 302.272 374.049 302.197 373.177C302.122 372.305 302.111 371.445 302.178 370.775C302.211 370.439 302.263 370.168 302.328 369.973C302.4 369.759 302.46 369.72 302.448 369.728L302.223 369.352L301.999 368.975C301.73 369.136 301.584 369.435 301.497 369.696C301.403 369.976 301.343 370.319 301.306 370.688C301.232 371.429 301.246 372.347 301.324 373.253C301.402 374.159 301.546 375.073 301.738 375.806C301.834 376.172 301.945 376.506 302.073 376.776C302.191 377.027 302.359 377.298 302.605 377.444L302.827 377.066ZM331.036 393.81L331.259 393.433L303.051 376.689L302.827 377.066L302.604 377.443L330.812 394.186L331.036 393.81ZM334.528 393.76L334.3 393.386C333.349 393.966 332.184 393.977 331.258 393.432L331.036 393.81L330.814 394.187C332.025 394.899 333.536 394.878 334.756 394.135L334.528 393.76ZM378.976 367.588L378.754 367.21L334.306 393.383L334.528 393.76L334.75 394.138L379.199 367.965L378.976 367.588ZM379.791 367.228L379.565 366.853C379.338 366.99 379.098 367.095 378.852 367.168L378.976 367.588L379.101 368.008C379.417 367.914 379.726 367.779 380.017 367.604L379.791 367.228ZM387.46 362.592L387.233 362.217L379.565 366.853L379.791 367.228L380.018 367.603L387.687 362.967L387.46 362.592ZM391.785 360.045L391.563 359.668L387.238 362.215L387.46 362.592L387.682 362.97L392.008 360.423L391.785 360.045ZM391.972 359.865L391.621 359.602C391.601 359.628 391.585 359.646 391.574 359.658C391.562 359.669 391.557 359.671 391.56 359.669L391.785 360.045L392.01 360.421C392.14 360.344 392.242 360.235 392.322 360.127L391.972 359.865ZM406.866 350.86L406.639 350.486L391.745 359.49L391.972 359.865L392.198 360.239L407.092 351.235L406.866 350.86ZM407.682 343.75L407.457 344.126C407.425 344.107 407.474 344.123 407.533 344.317C407.585 344.49 407.623 344.735 407.642 345.043C407.681 345.654 407.642 346.443 407.543 347.245C407.444 348.047 407.288 348.841 407.103 349.461C407.011 349.773 406.914 350.029 406.819 350.216C406.772 350.31 406.729 350.379 406.693 350.426C406.655 350.476 406.635 350.488 406.639 350.486L406.866 350.86L407.092 351.235C407.322 351.097 407.484 350.844 407.602 350.611C407.728 350.36 407.842 350.05 407.943 349.711C408.145 349.032 408.309 348.188 408.412 347.353C408.515 346.518 408.56 345.671 408.517 344.987C408.495 344.647 408.451 344.328 408.372 344.066C408.3 343.825 408.17 343.531 407.906 343.374L407.682 343.75ZM378.363 331.431L378.194 331.835L407.512 344.154L407.682 343.75L407.851 343.346L378.533 331.027L378.363 331.431Z" fill="#00201D"/>
<path d="M407.03 342.728L378.496 325.797C377.574 325.258 376.415 325.266 375.477 325.837L360.438 334.932C360.438 334.932 360.348 334.948 360.307 334.964L302.977 368.72C301.949 369.341 301.932 370.818 302.944 371.414L331.153 388.158C332.221 388.786 333.56 388.77 334.653 388.109L379.475 361.716C379.622 361.651 379.785 361.667 379.924 361.585L388.475 356.41L391.91 354.385C391.91 354.385 391.927 354.32 391.959 354.304L406.998 345.209C407.944 344.638 407.961 343.267 407.03 342.72V342.728Z" fill="#FEFCF9" stroke="#00201D" stroke-width="0.876035" stroke-miterlimit="10"/>
<path d="M420.115 305.298C421.053 304.727 422.212 304.719 423.134 305.257L452.452 317.576C453.382 318.131 452.583 324.115 451.636 324.687L424.562 341.055C423.477 341.708 422.139 341.724 421.078 341.103L392.935 324.401C391.931 323.813 391.303 317.323 392.331 316.703L420.115 305.298Z" fill="#BFBBB8" stroke="#00201D" stroke-width="0.876035" stroke-miterlimit="10"/>
<path d="M393.043 318.763L421.186 335.466C422.255 336.095 423.593 336.078 424.678 335.417L451.752 319.041C452.699 318.47 452.723 317.098 451.785 316.551L423.25 299.62C422.328 299.073 421.169 299.089 420.223 299.661L393.075 316.078C392.055 316.698 392.031 318.176 393.043 318.763Z" fill="#FEFCF9" stroke="#00201D" stroke-width="0.876035" stroke-miterlimit="10"/>
<path d="M464.865 279.115C465.803 278.543 466.962 278.535 467.892 279.074L497.21 291.393C498.14 291.948 497.341 297.932 496.394 298.503L469.32 314.871C468.235 315.524 466.896 315.54 465.836 314.92L437.692 298.217C436.689 297.63 436.061 291.14 437.089 290.519L464.873 279.115H464.865Z" fill="#BFBBB8" stroke="#00201D" stroke-width="0.876035" stroke-miterlimit="10"/>
<path d="M437.808 292.59L465.951 309.292C467.02 309.921 468.359 309.904 469.444 309.243L496.518 292.867C497.465 292.296 497.489 290.924 496.551 290.377L468.016 273.446C467.094 272.899 465.935 272.916 464.989 273.487L437.841 289.904C436.821 290.524 436.796 292.002 437.808 292.59Z" fill="#FEFCF9" stroke="#00201D" stroke-width="0.876035" stroke-miterlimit="10"/>
<path d="M509.623 252.947C510.561 252.375 511.72 252.367 512.642 252.906L541.96 265.225C542.89 265.78 542.091 271.764 541.144 272.335L514.07 288.703C512.985 289.356 511.646 289.372 510.586 288.752L482.442 272.049C481.439 271.462 480.811 264.972 481.839 264.351L509.623 252.947Z" fill="#BFBBB8" stroke="#00201D" stroke-width="0.876035" stroke-miterlimit="10"/>
<path d="M482.566 266.41L510.709 283.112C511.778 283.741 513.116 283.725 514.202 283.063L541.276 266.687C542.222 266.116 542.247 264.745 541.308 264.198L512.774 247.266C511.852 246.719 510.693 246.736 509.746 247.307L482.599 263.724C481.579 264.345 481.554 265.822 482.566 266.41Z" fill="#FEFCF9" stroke="#00201D" stroke-width="0.876035" stroke-miterlimit="10"/>
</g>
<defs>
<clipPath id="clip0_14997_18401">
<rect width="682" height="457" fill="white"/>
</clipPath>
</defs>
</svg>
