<svg width="127" height="82" viewBox="0 0 127 82" fill="none" xmlns="http://www.w3.org/2000/svg">
<path d="M18.0622 86.8156L22.936 67.1248C23.0391 66.7075 24.4614 66.4942 26.113 66.649L68.5838 70.622C70.2575 70.7789 71.8851 71.5466 71.816 71.9701C72.1024 72.1291 69.7948 86.4725 68.1091 90.9915C67.9488 91.4203 66.6557 92.3469 64.923 92.1785L20.9568 87.9241C19.2471 87.7589 17.952 87.2621 18.0622 86.8166V86.8156Z" fill="#C6C6C6"/>
<path d="M15.9948 64.2445L0.418972 49.3206C0.0353597 48.9536 -0.111875 48.5823 0.0914492 48.4934L5.29275 46.2135C5.49707 46.1236 5.96282 46.3568 6.33141 46.7322L21.3093 61.9667C21.6018 62.2648 21.6909 62.5681 21.5086 62.6455L16.8732 64.6315C16.6919 64.7089 16.2993 64.5363 15.9958 64.2445H15.9948Z" fill="#C6C6C6"/>
<path d="M28.7463 58.1555L27.6473 41.5194C27.6253 41.1994 27.7064 40.9421 27.8296 40.9421H30.9727C31.0958 40.9421 31.2251 41.2005 31.2611 41.5226L32.9156 58.7282C32.9676 59.1978 31.6415 59.4196 31.4892 59.4154C31.339 59.4112 28.7463 59.759 28.7463 58.1555Z" fill="#C6C6C6"/>
<path d="M38.7477 57.5472L46.3061 42.5947C46.4323 42.3155 46.6727 42.0917 46.8449 42.0937L51.0095 42.0654C51.1938 42.0675 51.2539 42.3038 51.1427 42.5946L44.6932 58.3619C44.5309 58.7834 44.2254 59.1023 44.0111 59.072L38.7767 58.3232C38.5804 58.295 38.5684 57.9467 38.7477 57.5472Z" fill="#C6C6C6"/>
<path d="M104.035 85.9394L69.935 66.0677C69.0736 65.5657 69.1157 64.6945 70.0282 64.1288L91.3021 50.9388C92.0623 50.4672 93.2522 50.4944 93.9603 50.9932L122.355 70.9904C122.902 71.3753 122.88 72.0686 122.306 72.5413L106.427 85.6162C105.754 86.1705 104.682 86.3169 104.033 85.9394H104.035Z" fill="#C6C6C6"/>
<path d="M65.4567 90.9817L19.5585 86.8162C18.5459 86.7242 17.6534 85.2705 17.8628 84.5551L23.3245 67.435C23.5248 66.7479 24.4894 66.2658 25.4799 66.3589L70.9866 70.1008C71.9641 70.1928 71.9801 71.2847 71.8169 71.9707L67.5741 89.8522C67.4048 90.5665 66.4573 91.0727 65.4577 90.9817H65.4567Z" fill="#33605F" stroke="#060606" stroke-width="0.4" stroke-miterlimit="10"/>
<path d="M65.2554 89.9173L19.3572 85.7518C18.3446 85.6598 17.6925 85.004 17.9008 84.2887L23.1232 66.3706C23.3235 65.6835 24.288 65.2014 25.2786 65.2945L70.1412 69.4987C71.1188 69.5907 71.7788 70.2203 71.6156 70.9063L67.3728 88.7878C67.2035 89.5021 66.256 90.0083 65.2564 89.9173H65.2554Z" fill="#33605F" stroke="#060606" stroke-width="0.4" stroke-miterlimit="10"/>
<path d="M25.7675 70.3845L65.6591 74.0951" stroke="#060606" stroke-width="0.4" stroke-miterlimit="10"/>
<path d="M61.9593 86.0558L52.6815 85.2087C52.4581 85.1888 52.3099 85.0435 52.3499 84.8845L53.3656 80.8894C53.4056 80.7326 53.618 80.6217 53.8403 80.6416L63.0711 81.4898C63.2924 81.5096 63.4406 81.6539 63.4026 81.8108L62.431 85.8038C62.392 85.9627 62.1806 86.0746 61.9583 86.0537L61.9593 86.0558Z" fill="#407775" stroke="#060606" stroke-width="0.4" stroke-miterlimit="10"/>
<path d="M24.0636 81.4101L23.8513 81.1047C23.7631 80.9876 23.708 80.9112 23.658 80.8317H23.651C23.5658 80.8976 23.4817 80.9593 23.3314 81.0587L22.9769 81.3097L22.6373 81.2783L23.5197 80.7052L23.026 80.0223L23.3685 80.0537L23.5859 80.3758C23.6469 80.4657 23.693 80.5347 23.7351 80.6079H23.7451C23.8312 80.54 23.9054 80.4877 24.0135 80.4155L24.4102 80.1499L24.7497 80.1812L23.8793 80.7293L24.4082 81.4404L24.0646 81.409L24.0636 81.4101Z" fill="#060606"/>
<path d="M25.9516 81.5829L25.7382 81.2775C25.6501 81.1604 25.595 81.084 25.5439 81.0045H25.5369C25.4518 81.0704 25.3676 81.1321 25.2184 81.2315L24.8648 81.4825L24.5253 81.4511L25.4057 80.878L24.9109 80.1951L25.2535 80.2264L25.4718 80.5486C25.5329 80.6385 25.58 80.7075 25.6221 80.7807H25.6321C25.7182 80.7127 25.7923 80.6605 25.8995 80.5883L26.2951 80.3227L26.6347 80.354L25.7663 80.902L26.2961 81.6132L25.9536 81.5818L25.9516 81.5829Z" fill="#060606"/>
<path d="M27.8385 81.7548L27.6252 81.4494C27.536 81.3323 27.4809 81.256 27.4309 81.1765H27.4239C27.3387 81.2424 27.2556 81.3041 27.1053 81.4034L26.7518 81.6544L26.4122 81.623L27.2906 81.0499L26.7948 80.367L27.1374 80.3984L27.3557 80.7205C27.4178 80.8104 27.4639 80.8795 27.506 80.9527H27.516C27.6011 80.8847 27.6753 80.8324 27.7824 80.7602L28.1771 80.4946L28.5156 80.526L27.6482 81.074L28.1781 81.7851L27.8355 81.7538L27.8385 81.7548Z" fill="#060606"/>
<path d="M30.494 81.998L30.2797 81.6926C30.1905 81.5755 30.1354 81.4991 30.0844 81.4196H30.0773C29.9922 81.4855 29.9091 81.5472 29.7598 81.6466L29.4073 81.8976L29.0687 81.8662L29.9451 81.2931L29.4483 80.6102L29.7899 80.6415L30.0092 80.9637C30.0713 81.0536 30.1174 81.1226 30.1595 81.1958H30.1695C30.2546 81.1279 30.3287 81.0756 30.4359 81.0034L30.8295 80.7378L31.1681 80.7691L30.3037 81.3171L30.8356 82.0283L30.493 81.9969L30.494 81.998Z" fill="#060606"/>
<path d="M32.3786 82.1708L32.1643 81.8654C32.0751 81.7483 32.02 81.672 31.9689 81.5925H31.9619C31.8768 81.6584 31.7947 81.7201 31.6454 81.8194L31.2939 82.0704L30.9553 82.0391L31.8297 81.4659L31.3319 80.783L31.6735 80.8144L31.8928 81.1365C31.9549 81.2264 32.001 81.2955 32.0441 81.3687H32.0541C32.1392 81.3007 32.2123 81.2484 32.3195 81.1763L32.7121 80.9106L33.0507 80.942L32.1873 81.49L32.7201 82.2012L32.3776 82.1698L32.3786 82.1708Z" fill="#060606"/>
<path d="M34.2629 82.3426L34.0485 82.0372C33.9594 81.9201 33.9043 81.8437 33.8532 81.7653H33.8462C33.7621 81.8312 33.6789 81.8929 33.5297 81.9922L33.1791 82.2432L32.8406 82.2118L33.714 81.6387L33.2152 80.9568L33.5567 80.9882L33.7771 81.3103C33.8392 81.4003 33.8863 81.4693 33.9283 81.5425H33.9383C34.0235 81.4745 34.0966 81.4222 34.2038 81.3501L34.5954 81.0844L34.9339 81.1158L34.0725 81.6638L34.6064 82.375L34.2639 82.3436L34.2629 82.3426Z" fill="#060606"/>
<path d="M36.1447 82.5145L35.9294 82.2091C35.8402 82.092 35.7841 82.0156 35.7331 81.9372H35.7261C35.6419 82.0031 35.5588 82.0648 35.4105 82.1641L35.061 82.4151L34.7225 82.3838L35.5938 81.8107L35.094 81.1288L35.4356 81.1602L35.6559 81.4823C35.718 81.5722 35.7651 81.6412 35.8072 81.7144H35.8172C35.9023 81.6465 35.9754 81.5942 36.0816 81.522L36.4732 81.2564L36.8118 81.2877L35.9524 81.8358L36.4873 82.5469L36.1447 82.5155V82.5145Z" fill="#060606"/>
<path d="M38.7941 82.7566L38.5787 82.4512C38.4896 82.3341 38.4335 82.2578 38.3824 82.1793H38.3754C38.2913 82.2452 38.2091 82.3069 38.0609 82.4063L37.7123 82.6573L37.3738 82.6259L38.2432 82.0528L37.7424 81.3709L38.0839 81.4023L38.3053 81.7244C38.3674 81.8143 38.4144 81.8834 38.4575 81.9566H38.4675C38.5517 81.8886 38.6248 81.8363 38.731 81.7641L39.1216 81.4985L39.4591 81.5299L38.6017 82.0779L39.1376 82.789L38.7961 82.7577L38.7941 82.7566Z" fill="#060606"/>
<path d="M40.674 82.9282L40.4577 82.6239C40.3675 82.5068 40.3125 82.4304 40.2604 82.352H40.2534C40.1692 82.4179 40.0871 82.4796 39.9399 82.5789L39.5913 82.8299L39.2538 82.7986L40.1212 82.2255L39.6194 81.5436L39.9599 81.575L40.1813 81.8971C40.2434 81.987 40.2904 82.056 40.3335 82.1292H40.3435C40.4276 82.0613 40.5008 82.009 40.6069 81.9368L40.9966 81.6712L41.3341 81.7025L40.4787 82.2506L41.0156 82.9617L40.674 82.9303V82.9282Z" fill="#060606"/>
<path d="M42.554 83.1013L42.3376 82.797C42.2475 82.6799 42.1914 82.6035 42.1403 82.5251H42.1333C42.0492 82.591 41.9681 82.6527 41.8198 82.752L41.4723 83.003L41.1347 82.9717L42.0001 82.3986L41.4973 81.7167L41.8379 81.748L42.0602 82.0702C42.1233 82.1601 42.1704 82.2291 42.2134 82.3023H42.2235C42.3076 82.2344 42.3807 82.1821 42.4859 82.1099L42.8745 81.8443L43.212 81.8756L42.3577 82.4237L42.8955 83.1348L42.554 83.1034V83.1013Z" fill="#060606"/>
<path d="M44.4319 83.2732L44.2146 82.9688C44.1245 82.8517 44.0684 82.7753 44.0173 82.6969H44.0103C43.9271 82.7628 43.845 82.8245 43.6978 82.9238L43.3512 83.1748L43.0137 83.1435L43.8771 82.5704L43.3733 81.8885L43.7138 81.9199L43.9362 82.242C43.9993 82.3319 44.0463 82.4009 44.0894 82.4741H44.0994C44.1835 82.4062 44.2557 82.3539 44.3618 82.2817L44.7494 82.0161L45.087 82.0474L44.2346 82.5955L44.7735 83.3056L44.4319 83.2742V83.2732Z" fill="#060606"/>
<path d="M4.14391 45.0549L2.90493 7.80375C2.90493 7.80375 4.73085 6.92421 5.40192 7.20135L19.7178 21.435C20.2867 22.0008 20.7474 23.1271 20.7474 23.9513L20.7444 61.5329C20.7444 62.357 19.7408 62.9772 18.9976 63.3484L5.17556 47.5712C4.60565 47.0054 4.14391 45.879 4.14391 45.0549Z" fill="#87FCFA" stroke="#060606" stroke-width="0.4" stroke-miterlimit="10"/>
<path d="M2.64856 46.1441V8.53422C2.64856 7.70906 3.1103 7.4999 3.68021 8.06673L18.2224 22.5252C18.7913 23.091 19.2521 24.2174 19.2521 25.0415L19.249 62.6231C19.249 63.4472 18.7883 63.6574 18.2194 63.0927L3.68021 48.6603C3.1103 48.0946 2.64856 46.9682 2.64856 46.1441Z" fill="#87FCFA" stroke="#060606" stroke-width="0.4" stroke-miterlimit="10"/>
<path d="M15.1988 22.5956L15.1968 55.8287" stroke="#060606" stroke-width="0.4" stroke-miterlimit="10"/>
<path d="M5.4319 45.4903V37.8297C5.4319 37.6456 5.53506 37.5986 5.66227 37.7251L8.8784 40.9191C9.0056 41.0456 9.10877 41.2966 9.10877 41.4807V49.1392C9.10877 49.3233 9.0056 49.3704 8.8784 49.2438L5.66327 46.0509C5.53607 45.9244 5.4329 45.6734 5.4329 45.4893L5.4319 45.4903Z" fill="#C6FEFD" stroke="#060606" stroke-width="0.4" stroke-miterlimit="10"/>
<path d="M6.35851 14.9756L6.58187 14.9589C6.66701 14.9463 6.7231 14.9401 6.78119 14.9401V14.9348C6.7231 14.824 6.66901 14.7173 6.57987 14.5322L6.35751 14.0856V13.8074L6.86933 14.8888L7.36913 14.8344V15.1158L7.13175 15.1283C7.06564 15.1325 7.01456 15.1346 6.96048 15.1304V15.1388C7.02057 15.2517 7.06664 15.3448 7.13175 15.4787L7.36913 15.9702V16.2484L6.87734 15.189L6.35851 15.2569V14.9756Z" fill="#060606"/>
<path d="M6.35851 16.5215L6.58187 16.5048C6.66701 16.4922 6.7231 16.486 6.78119 16.486V16.4807C6.7231 16.3699 6.66901 16.2632 6.57987 16.0781L6.35751 15.6315V15.3533L6.86933 16.4347L7.36913 16.3803V16.6617L7.13175 16.6742C7.06564 16.6784 7.01456 16.6805 6.96048 16.6763V16.6847C7.02057 16.7976 7.06664 16.8907 7.13175 17.0246L7.36913 17.5161V17.7943L6.87734 16.7349L6.35851 16.8028V16.5215Z" fill="#060606"/>
<path d="M6.35851 18.0694L6.58187 18.0526C6.66701 18.0401 6.7231 18.0338 6.78119 18.0338V18.0286C6.7231 17.9177 6.66901 17.811 6.57987 17.6259L6.35751 17.1794V16.9012L6.86933 17.9826L7.36913 17.9282V18.2095L7.13175 18.2221C7.06564 18.2262 7.01456 18.2283 6.96048 18.2241V18.2325C7.02057 18.3455 7.06664 18.4385 7.13175 18.5724L7.36913 19.0639V19.3421L6.87734 18.2827L6.35851 18.3517V18.0704V18.0694Z" fill="#060606"/>
<path d="M6.35851 20.2481L6.58187 20.2313C6.66701 20.2188 6.7231 20.2125 6.78119 20.2125V20.2073C6.7231 20.0964 6.66901 19.9898 6.57987 19.8046L6.35751 19.3581V19.0799L6.86933 20.1613L7.36913 20.1069V20.3882L7.13175 20.4008C7.06564 20.405 7.01456 20.407 6.96048 20.4039V20.4123C7.02057 20.5252 7.06664 20.6183 7.13175 20.7522L7.36913 21.2437V21.5219L6.87734 20.4625L6.35851 20.5315V20.2502V20.2481Z" fill="#060606"/>
<path d="M6.35853 21.7941L6.58189 21.7774C6.66703 21.7648 6.72312 21.7585 6.78121 21.7585V21.7533C6.72312 21.6425 6.66903 21.5358 6.57989 21.3507L6.35753 20.9041V20.6259L6.86935 21.7073L7.36915 21.6529V21.9342L7.13177 21.9468C7.06566 21.951 7.01458 21.9531 6.96049 21.9499V21.9583C7.02059 22.0712 7.06666 22.1643 7.13177 22.2982L7.36915 22.7897V23.0679L6.87736 22.0085L6.35853 22.0775V21.7962V21.7941Z" fill="#060606"/>
<path d="M6.35853 23.3406L6.58189 23.3239C6.66703 23.3113 6.72312 23.305 6.78121 23.305V23.2998C6.72312 23.189 6.66903 23.0823 6.57989 22.8972L6.35753 22.4517V22.1735L6.86935 23.2548L7.36915 23.2005V23.4818L7.13177 23.4943C7.06566 23.4985 7.01458 23.5006 6.96049 23.4975V23.5058C7.02059 23.6188 7.06666 23.7119 7.13177 23.8457L7.36915 24.3373V24.6155L6.87736 23.556L6.35853 23.6251V23.3437V23.3406Z" fill="#060606"/>
<path d="M6.35853 24.8866L6.58189 24.8698C6.66703 24.8573 6.72312 24.851 6.78121 24.851V24.8458C6.72312 24.7349 6.66903 24.6282 6.57989 24.4431L6.35753 23.9976V23.7194L6.86935 24.8008L7.36915 24.7464V25.0277L7.13177 25.0403C7.06566 25.0445 7.01458 25.0466 6.96049 25.0434V25.0518C7.02059 25.1647 7.06666 25.2578 7.13177 25.3917L7.36915 25.8832V26.1614L6.87736 25.102L6.35853 25.171V24.8897V24.8866Z" fill="#060606"/>
<path d="M6.35853 27.0652L6.58189 27.0485C6.66703 27.0359 6.72312 27.0297 6.78121 27.0297V27.0244C6.72312 26.9136 6.66903 26.8069 6.57989 26.6218L6.35753 26.1763V25.8981L6.86935 26.9795L7.36915 26.9251V27.2064L7.13177 27.2189C7.06566 27.2231 7.01458 27.2252 6.96049 27.2221V27.2305C7.02059 27.3434 7.06666 27.4365 7.13177 27.5703L7.36915 28.0619V28.3401L6.87736 27.2806L6.35853 27.3497V27.0683V27.0652Z" fill="#060606"/>
<path d="M6.35851 28.6123L6.58187 28.5955C6.66701 28.583 6.7231 28.5767 6.78119 28.5767V28.5715C6.7231 28.4606 6.66901 28.354 6.57987 28.1688L6.35751 27.7233V27.4451L6.86933 28.5265L7.36913 28.4721V28.7535L7.13175 28.766C7.06564 28.7702 7.01456 28.7723 6.96048 28.7691V28.7775C7.02057 28.8905 7.06664 28.9835 7.13175 29.1174L7.36913 29.6089V29.8871L6.87734 28.8288L6.35851 28.8978V28.6165V28.6123Z" fill="#060606"/>
<path d="M6.35851 30.1591L6.58187 30.1424C6.66701 30.1299 6.7231 30.1236 6.78119 30.1236V30.1184C6.7231 30.0075 6.66901 29.9008 6.57987 29.7157L6.35751 29.2702V28.992L6.86933 30.0734L7.36913 30.019V30.3003L7.13175 30.3129C7.06564 30.3171 7.01456 30.3192 6.96048 30.316V30.3244C7.02057 30.4373 7.06664 30.5304 7.13175 30.6643L7.36913 31.1558V31.434L6.87734 30.3756L6.35851 30.4447V30.1633V30.1591Z" fill="#060606"/>
<path d="M6.35851 31.705L6.58187 31.6883C6.66701 31.6758 6.7231 31.6695 6.78119 31.6695V31.6643C6.7231 31.5534 6.66901 31.4467 6.57987 31.2616L6.35751 30.8161V30.5379L6.86933 31.6193L7.36913 31.5649V31.8462L7.13175 31.8588C7.06564 31.863 7.01456 31.865 6.96048 31.8619V31.8703C7.02057 31.9832 7.06664 32.0763 7.13175 32.2102L7.36913 32.7017V32.9799L6.87734 31.9215L6.35851 31.9905V31.7092V31.705Z" fill="#060606"/>
<path d="M6.35853 33.8828L6.58189 33.8651C6.66703 33.8525 6.72312 33.8462 6.78121 33.8462V33.841C6.72312 33.7302 6.66903 33.6235 6.57989 33.4384L6.35753 32.9928V32.7147L6.86935 33.795L7.36915 33.7406V34.0219L7.13177 34.0345C7.06566 34.0387 7.01458 34.0408 6.96049 34.0376V34.046C7.02059 34.1589 7.06666 34.252 7.13177 34.3859L7.36915 34.8774V35.1556L6.87736 34.0972L6.35853 34.1663V33.8849V33.8828Z" fill="#060606"/>
<path d="M6.35853 35.4296L6.58189 35.4118C6.66703 35.3993 6.72312 35.393 6.78121 35.393V35.3878C6.72312 35.2769 6.66903 35.1702 6.57989 34.9851L6.35753 34.5396V34.2614L6.86935 35.3418L7.36915 35.2874V35.5687L7.13177 35.5812C7.06566 35.5854 7.01458 35.5875 6.96049 35.5844V35.5927C7.02059 35.7057 7.06666 35.7988 7.13177 35.9326L7.36915 36.4242V36.7024L6.87736 35.644L6.35853 35.713V35.4317V35.4296Z" fill="#060606"/>
<path d="M42.3815 56.5702L42.3665 17.8873C42.3665 17.0872 42.5538 15.9828 42.7872 15.4181L48.7507 0.935521C48.9851 0.365547 50.1359 0.571574 50.7369 0.565299L49.6091 39.2336C49.6191 40.1152 49.4238 41.3168 49.1744 41.915L44.3317 58.2435C42.4747 57.5689 42.3805 57.4696 42.3805 56.5712L42.3815 56.5702Z" fill="#5BD16B" stroke="#060606" stroke-width="0.4" stroke-miterlimit="10"/>
<path d="M44.1984 57.3881L44.1834 18.1165C44.1834 17.3038 44.3707 16.1827 44.6031 15.6096L50.5666 0.905346C50.801 0.327006 50.9983 0.501658 51.0073 1.29753L51.426 39.7869C51.436 40.6822 51.2417 41.9016 50.9913 42.5092L44.6462 57.9529C44.3988 58.5542 44.1984 58.3001 44.1984 57.3871V57.3881Z" fill="#5BD16B" stroke="#060606" stroke-width="0.4" stroke-miterlimit="10"/>
<path d="M49.9236 45.1145L48.4663 48.6535L48.2089 6.71919L49.579 3.34955L49.9236 45.1145Z" fill="#060606"/>
<path d="M46.9349 49.1049L45.4916 52.6158L45.4245 16.4836L46.7937 13.1161L46.9349 49.1049Z" fill="#EDEDED"/>
<path d="M80.1292 29.1608L73.0424 25.1209C72.2194 24.6517 70.9764 24.6305 70.2603 25.0737L53.4809 35.4477C53.1285 35.6654 52.7603 35.9583 52.5923 36.5836C52.405 37.2793 52.4502 37.9981 52.4502 38.0636L52.4954 58.5794C52.4973 59.4533 53.1764 60.4938 54.0125 60.9062L61.0328 64.369C61.8762 64.7853 64.1065 64.4394 64.1212 63.5684L62.9364 42.9427C62.9392 42.7751 62.9189 42.6026 62.8792 42.4301C62.9457 42.3964 63.0112 42.3608 63.0721 42.3203L81.0917 30.6485C81.8114 30.1744 81.0012 29.657 80.1283 29.1599L80.1292 29.1608Z" fill="#F19D38" stroke="#060606" stroke-width="0.4" stroke-miterlimit="10"/>
<path d="M80.4134 53.9747L63.7595 64.1503C63.0702 64.5713 62.5258 64.1406 62.5424 63.1925L62.9087 42.2885C62.9244 41.3982 63.4762 40.3403 64.1415 39.924L80.2178 29.8632C80.8969 29.4383 81.4552 29.8092 81.4635 30.6947L81.6711 51.4851C81.6803 52.4293 81.1174 53.545 80.4134 53.9747Z" fill="#F19D38" stroke="#060606" stroke-width="0.4" stroke-miterlimit="10"/>
<path d="M52.5921 36.5839L63.0968 41.3474" stroke="#060606" stroke-width="0.4" stroke-miterlimit="10"/>
<path d="M71.5596 29.493C70.6239 29.0189 70.1782 27.6113 70.1782 26.5591V6.25626C70.1782 5.20412 71.0133 4.35046 72.0431 4.35046C73.0729 4.35046 73.908 5.20316 73.908 6.25626L74.2439 29.572C74.2439 30.6241 72.3716 29.9054 71.5587 29.493H71.5596Z" fill="#22C2C1" stroke="#060606" stroke-width="0.4" stroke-miterlimit="10"/>
<path d="M61.5363 37.2724C63.1905 37.2724 64.5316 36.4825 64.5316 35.5082C64.5316 34.5339 63.1905 33.744 61.5363 33.744C59.8821 33.744 58.541 34.5339 58.541 35.5082C58.541 36.4825 59.8821 37.2724 61.5363 37.2724Z" fill="#F29D28" stroke="#060606" stroke-width="0.4" stroke-miterlimit="10"/>
<path d="M61.5288 37.2723C62.5644 37.2723 63.4039 37.0777 63.4039 36.8377C63.4039 36.5977 62.5644 36.4032 61.5288 36.4032C60.4933 36.4032 59.6538 36.5977 59.6538 36.8377C59.6538 37.0777 60.4933 37.2723 61.5288 37.2723Z" fill="#060606"/>
<path d="M75.9343 5.59186C74.5067 -2.74048 66.9946 1.06919 66.9946 1.06919C66.9946 1.06919 63.2689 3.50226 61.9392 4.75289C58.298 8.17427 58.6108 11.6072 58.632 13.6932C58.6523 15.7368 58.6994 35.9007 58.6994 35.9354C58.6994 36.5694 59.9848 37.083 61.5692 37.083C63.1535 37.083 64.4389 36.5694 64.4389 35.9354V14.1586C64.4389 10.5763 66.2845 9.30927 66.2845 9.30927L69.1668 7.03807C69.6678 6.72783 70.1154 6.58041 70.514 6.55054C71.4506 6.48117 72.2414 7.27027 72.2414 8.25112V28.2042C72.2414 29.2795 73.0765 30.1515 74.1063 30.1515C75.1361 30.1515 75.9712 29.2795 75.9712 28.2042V5.98304C75.9712 5.84815 75.9582 5.71711 75.9333 5.59089L75.9343 5.59186Z" fill="#22C2C1" stroke="#060606" stroke-width="0.4" stroke-miterlimit="10"/>
<path d="M82.9498 71.818L70.1524 29.2196C69.8719 28.2856 70.2365 27.1666 70.9677 26.719L89.4442 15.4157C90.2254 14.9378 91.6056 14.7579 92.8266 15.3216L105.494 59.9667C105.784 60.9352 105.371 62.0594 104.571 62.4778L85.3316 73.3062C83.9664 73.0584 83.2313 72.7519 82.9508 71.818H82.9498Z" fill="#FFCD98" stroke="#060606" stroke-width="0.4" stroke-miterlimit="10"/>
<path d="M84.0878 72.1815L71.2904 29.5831C71.0099 28.6492 71.3745 27.5301 72.1057 27.0825L91.4205 15.2668C92.2017 14.7889 93.0731 15.1852 93.3636 16.1537L106.632 60.3303C106.922 61.2987 106.509 62.423 105.709 62.8413L85.9508 73.1646C85.2026 73.5557 84.3692 73.1155 84.0888 72.1815H84.0878Z" fill="#FFCD98" stroke="#060606" stroke-width="0.4" stroke-miterlimit="10"/>
<path d="M102.309 64.6235L97.7155 67.0143L83.6591 20.016L88.1492 17.2781L102.309 64.6235Z" fill="#060606"/>
<path d="M91.9795 66.0893L87.5284 68.4351L75.6875 28.8507L80.0535 26.2173L91.9795 66.0893Z" fill="white"/>
<path d="M30.8595 58.1963L29.5784 43.9658C29.4182 42.6825 29.288 41.0165 29.288 40.252V1.19684C29.288 0.43234 30.4949 1.09957 30.1914 2.89525L31.207 18.0492C31.3543 19.3659 31.4724 21.0162 31.4724 21.742L31.821 58.4724C31.821 59.1982 31.0057 59.377 30.8585 58.1973L30.8595 58.1963Z" fill="#C1A98A" stroke="#060606" stroke-width="0.4" stroke-miterlimit="10"/>
<path d="M31.4253 1.39851C31.3973 1.03038 31.0888 0.75428 30.7362 0.783563L29.5884 0.877687L30.9696 19.2612C30.9987 19.6492 31.0137 20.0382 31.0137 20.4273V58.6646C31.0137 58.9334 31.222 59.1509 31.4794 59.1509H32.3097C32.5842 59.1509 32.8065 58.9188 32.8065 58.6322V19.9064C32.8065 19.7611 32.8015 19.6157 32.7905 19.4714L31.4263 1.39851H31.4253Z" fill="#C1A98A" stroke="#060606" stroke-width="0.4" stroke-miterlimit="10"/>
<path d="M103.761 85.5295L76.6591 47.9249C76.0711 47.1091 76.4387 46.4586 76.8073 44.9474L96.4577 34.1002C97.2199 33.6494 98.3166 33.9422 98.9096 34.7538L126.99 72.0782C126.871 73.1041 125.97 74.608 125.202 75.065L106.85 85.8841C106.08 86.3421 104.363 86.362 103.762 85.5295H103.761Z" fill="#E2FA52" stroke="#060606" stroke-width="0.4" stroke-miterlimit="10" stroke-linecap="round"/>
<path d="M104.18 84.1449L77.0777 46.5402C76.4898 45.7245 76.632 44.6965 77.3952 44.2447L96.8753 32.7155C97.6375 32.2648 98.7343 32.5576 99.3272 33.3691L126.621 70.796C127.226 71.6253 127.093 72.668 126.323 73.1251L106.662 84.8226C105.892 85.2806 104.78 84.9774 104.18 84.1438V84.1449Z" fill="#E2FA52" stroke="#060606" stroke-width="0.4" stroke-miterlimit="10" stroke-linecap="round"/>
<path d="M95.0334 38.1484L119.115 71.2654" stroke="#060606" stroke-width="0.4" stroke-miterlimit="10" stroke-linecap="round"/>
<path d="M105.455 78.4625L99.8931 70.76C99.7599 70.5749 99.791 70.3428 99.9622 70.2413L104.299 67.6654C104.47 67.564 104.718 67.6309 104.851 67.815L110.422 75.5091C110.556 75.6942 110.525 75.9275 110.354 76.0289L106.009 78.6121C105.837 78.7146 105.589 78.6466 105.455 78.4615V78.4625Z" fill="#EAF990" stroke="#060606" stroke-width="0.4" stroke-miterlimit="10"/>
<path d="M84.0188 46.3196L84.147 45.9055C84.1921 45.7413 84.2221 45.6367 84.2592 45.5321L84.2552 45.5269C84.139 45.5206 84.0288 45.5112 83.8405 45.485L83.3818 45.438L83.1825 45.1629L84.2782 45.324L84.5537 44.3828L84.755 44.6609L84.6148 45.0939C84.5757 45.2152 84.5457 45.3083 84.5086 45.4003L84.5146 45.4087C84.6328 45.4139 84.729 45.4233 84.8652 45.4411L85.366 45.506L85.5653 45.781L84.4976 45.6074L84.2201 46.5978L84.0188 46.3196Z" fill="#060606"/>
<path d="M85.1266 47.8522L85.2548 47.437C85.2999 47.2728 85.33 47.1682 85.367 47.0636L85.363 47.0584C85.2468 47.0521 85.1367 47.0427 84.9484 47.0166L84.4896 46.9695L84.2903 46.6944L85.3861 46.8555L85.6615 45.9132L85.8628 46.1914L85.7226 46.6254C85.6835 46.7467 85.6535 46.8398 85.6164 46.9318L85.6224 46.9402C85.7406 46.9454 85.8368 46.9548 85.973 46.9726L86.4738 47.0375L86.6731 47.3136L85.6044 47.1389L85.327 48.1304L85.1256 47.8522H85.1266Z" fill="#060606"/>
<path d="M86.2344 49.3854L86.3626 48.9702C86.4076 48.8061 86.4377 48.7004 86.4747 48.5969L86.4707 48.5917C86.3545 48.5854 86.2444 48.576 86.0551 48.5498L85.5953 48.5028L85.396 48.2267L86.4928 48.3888L86.7682 47.4454L86.9695 47.7236L86.8293 48.1576C86.7902 48.279 86.7602 48.372 86.7231 48.4641L86.7291 48.4724C86.8473 48.4777 86.9435 48.4871 87.0807 48.5049L87.5825 48.5707L87.7818 48.8468L86.7131 48.6722L86.4357 49.6647L86.2344 49.3854Z" fill="#060606"/>
<path d="M87.7969 51.5487L87.9251 51.1335C87.9702 50.9693 88.0002 50.8636 88.0373 50.7591L88.0333 50.7538C87.9171 50.7476 87.8059 50.7381 87.6176 50.712L87.1579 50.6649L86.9586 50.3888L88.0563 50.5509L88.3318 49.6076L88.5331 49.8868L88.3929 50.3209C88.3538 50.4422 88.3238 50.5353 88.2867 50.6283L88.2927 50.6367C88.4109 50.6419 88.507 50.6513 88.6443 50.6691L89.1461 50.735L89.3454 51.0111L88.2757 50.8364L87.9982 51.83L87.7969 51.5507V51.5487Z" fill="#060606"/>
<path d="M88.9075 53.0846L89.0357 52.6694C89.0808 52.5042 89.1109 52.3996 89.1479 52.295L89.1439 52.2898C89.0277 52.2835 88.9166 52.2741 88.7283 52.248L88.2685 52.2009L88.0692 51.9248L89.167 52.0869L89.4424 51.1425L89.6437 51.4218L89.5035 51.8568C89.4644 51.9781 89.4344 52.0712 89.3983 52.1643L89.4043 52.1727C89.5225 52.1779 89.6197 52.1873 89.7559 52.2051L90.2577 52.271L90.458 52.5471L89.3873 52.3724L89.1099 53.3659L88.9075 53.0867V53.0846Z" fill="#060606"/>
<path d="M90.0185 54.623L90.1467 54.2067C90.1917 54.0415 90.2218 53.9369 90.2588 53.8323L90.2548 53.8271C90.1387 53.8208 90.0275 53.8114 89.8392 53.7853L89.3784 53.7382L89.1791 53.4621L90.2779 53.6242L90.5533 52.6788L90.7556 52.958L90.6154 53.3931C90.5764 53.5144 90.5463 53.6075 90.5102 53.7005L90.5163 53.7089C90.6344 53.7141 90.7316 53.7235 90.8678 53.7413L91.3706 53.8072L91.5709 54.0844L90.5002 53.9087L90.2228 54.9032L90.0205 54.624L90.0185 54.623Z" fill="#060606"/>
<path d="M91.1312 56.1629L91.2594 55.7466C91.3045 55.5814 91.3346 55.4768 91.3716 55.3722L91.3676 55.367C91.2514 55.3607 91.1402 55.3513 90.9519 55.3252L90.4912 55.2781L90.2909 55.001L91.3906 55.1641L91.6651 54.2187L91.8674 54.4979L91.7272 54.933C91.6881 55.0553 91.6581 55.1484 91.622 55.2405L91.628 55.2488C91.7462 55.2541 91.8434 55.2635 91.9796 55.2812L92.4824 55.3471L92.6827 55.6243L91.611 55.4486L91.3335 56.4442L91.1312 56.1639V56.1629Z" fill="#060606"/>
<path d="M92.6997 58.3318L92.8279 57.9156C92.873 57.7504 92.9031 57.6447 92.9401 57.5402L92.9361 57.5349C92.8189 57.5287 92.7087 57.5192 92.5194 57.4931L92.0587 57.445L91.8584 57.1678L92.9581 57.331L93.2326 56.3845L93.4349 56.6648L93.2947 57.1009C93.2556 57.2233 93.2256 57.3163 93.1895 57.4094L93.1955 57.4178C93.3147 57.423 93.4109 57.4324 93.5481 57.4502L94.0509 57.5161L94.2512 57.7932L93.1785 57.6176L92.901 58.6142L92.6987 58.3339L92.6997 58.3318Z" fill="#060606"/>
<path d="M93.8134 59.874L93.9416 59.4568C93.9867 59.2915 94.0167 59.1859 94.0538 59.0813L94.0498 59.0761C93.9326 59.0698 93.8224 59.0604 93.6331 59.0342L93.1724 58.9861L92.972 58.709L94.0728 58.8721L94.3472 57.9246L94.5496 58.2049L94.4093 58.641C94.3703 58.7634 94.3402 58.8565 94.3042 58.9495L94.3102 58.9579C94.4294 58.9631 94.5255 58.9725 94.6627 58.9914L95.1655 59.0572L95.3659 59.3344L94.2932 59.1587L94.0167 60.1554L93.8144 59.8751L93.8134 59.874Z" fill="#060606"/>
<path d="M94.9295 61.4183L95.0577 61.001C95.1028 60.8358 95.1328 60.7301 95.1699 60.6256L95.1659 60.6203C95.0487 60.6141 94.9385 60.6046 94.7492 60.5785L94.2875 60.5304L94.0872 60.2532L95.1889 60.4164L95.4634 59.4678L95.6657 59.7481L95.5255 60.1842C95.4874 60.3066 95.4564 60.3997 95.4203 60.4927L95.4263 60.5011C95.5455 60.5063 95.6417 60.5158 95.7789 60.5346L96.2827 60.6005L96.484 60.8787L95.4103 60.7019L95.1339 61.6996L94.9305 61.4193L94.9295 61.4183Z" fill="#060606"/>
<path d="M96.0461 62.9622L96.1743 62.5449C96.2193 62.3797 96.2494 62.274 96.2865 62.1695L96.2824 62.1642C96.1653 62.158 96.0551 62.1485 95.8658 62.1213L95.404 62.0732L95.2037 61.795L96.3055 61.9592L96.5799 61.0107L96.7832 61.291L96.643 61.7271C96.605 61.8494 96.5739 61.9425 96.5379 62.0356L96.5439 62.044C96.6631 62.0492 96.7592 62.0586 96.8964 62.0774L97.4002 62.1433L97.6016 62.4215L96.5278 62.2448L96.2514 63.2435L96.0481 62.9622H96.0461Z" fill="#060606"/>
<path d="M97.6195 65.1412L97.7477 64.7229C97.7928 64.5577 97.8228 64.452 97.8599 64.3464L97.8559 64.3412C97.7387 64.3349 97.6275 64.3255 97.4382 64.2983L96.9765 64.2502L96.7752 63.972L97.8779 64.1362L98.1524 63.1866L98.3557 63.4679L98.2155 63.9051C98.1774 64.0274 98.1464 64.1205 98.1103 64.2146L98.1163 64.223C98.2355 64.2282 98.3317 64.2376 98.4689 64.2565L98.9727 64.3234L99.174 64.6016L98.0993 64.4248L97.8228 65.4246L97.6195 65.1433V65.1412Z" fill="#060606"/>
<path d="M98.7382 66.689L98.8664 66.2707C98.9115 66.1044 98.9415 65.9988 98.9786 65.8942L98.9746 65.889C98.8574 65.8827 98.7462 65.8733 98.5569 65.8461L98.0952 65.798L97.8938 65.5198L98.9976 65.684L99.272 64.7333L99.4754 65.0147L99.3351 65.4518C99.2971 65.5742 99.266 65.6683 99.23 65.7614L99.236 65.7697C99.3552 65.775 99.4523 65.7844 99.5895 65.8032L100.094 65.8701L100.296 66.1483L99.22 65.9705L98.9435 66.9704L98.7402 66.689H98.7382Z" fill="#060606"/>
</svg>
