<svg width="460" height="365" viewBox="0 0 460 365" fill="none" xmlns="http://www.w3.org/2000/svg">
<g clip-path="url(#clip0_15015_18825)">
<path d="M430.694 77.4343C438.828 78.8645 444.265 86.6253 442.834 94.7601L403.556 317.975C402.126 326.109 394.365 331.546 386.23 330.115L29.6078 267.373C21.4737 265.943 16.037 258.182 17.4674 250.047L56.746 26.8325L56.7462 26.8315C58.1766 18.6976 65.9371 13.2617 74.0718 14.6921L430.694 77.4343Z" fill="#2BF2F1" stroke="#082422" stroke-width="1.74701" stroke-miterlimit="10" stroke-linecap="round" stroke-linejoin="round"/>
<path d="M35.3851 74.5336L395.262 34.4785C403.477 33.5642 410.877 39.4826 411.792 47.6969L436.863 272.949C437.777 281.163 431.859 288.564 423.644 289.478L63.7671 329.533C55.5526 330.447 48.1519 324.529 47.2376 316.315L22.1666 91.0631C21.2526 82.8487 27.1708 75.448 35.3851 74.5336Z" fill="#DCFF00" stroke="#082422" stroke-width="1.74701" stroke-miterlimit="10" stroke-linecap="round" stroke-linejoin="round"/>
<path d="M78.5754 250.996L229.235 234.227C232.131 233.905 234.74 235.992 235.063 238.888L235.073 238.986C235.396 241.882 233.309 244.49 230.413 244.812L79.7536 261.581C76.8577 261.903 74.2486 259.817 73.926 256.922L73.9151 256.824C73.593 253.928 75.6796 251.319 78.5754 250.996Z" fill="white" stroke="#082422" stroke-width="1.74701" stroke-miterlimit="10" stroke-linecap="round" stroke-linejoin="round"/>
<path d="M81.6457 278.641L332.481 250.722C335.376 250.4 337.985 252.487 338.307 255.383L338.318 255.481C338.64 258.376 336.554 260.985 333.659 261.307L82.8239 289.226C79.9281 289.548 77.3189 287.462 76.9963 284.566L76.9854 284.468C76.6633 281.572 78.7499 278.963 81.6457 278.641Z" fill="white" stroke="#082422" stroke-width="1.74701" stroke-miterlimit="10" stroke-linecap="round" stroke-linejoin="round"/>
<path d="M121.505 162.296C125.865 161.805 129.833 165.009 130.341 169.486L130.34 169.487L133.519 198.11L133.519 198.111C134.011 202.584 130.846 206.578 126.482 207.069L78.3529 212.429L78.3518 212.43C73.9907 212.92 70.0225 209.714 69.516 205.235L66.3381 176.614C65.8466 172.142 69.0097 168.146 73.3729 167.655L73.3736 167.656L121.504 162.295L121.505 162.296Z" fill="#FFCE9B" stroke="#082422" stroke-width="1.74701" stroke-miterlimit="10" stroke-linecap="round" stroke-linejoin="round"/>
<path d="M121.281 160.229L73.1513 165.589C67.64 166.215 63.6698 171.244 64.289 176.854L67.4676 205.479C68.0905 211.073 73.0655 215.131 78.589 214.525L126.719 209.165C132.23 208.539 136.2 203.51 135.581 197.9L132.403 169.275C131.78 163.681 126.805 159.623 121.277 160.245L121.281 160.229ZM104.529 177.861C104.529 177.861 104.553 177.9 104.546 177.932C104.583 178.058 104.64 178.172 104.713 178.29C104.725 178.309 104.737 178.329 104.765 178.352C104.842 178.454 104.938 178.544 105.038 178.618C105.038 178.618 105.05 178.637 105.066 178.641C109.828 181.542 111.397 187.813 108.544 192.654C108.072 193.447 107.516 194.171 106.847 194.801C106.843 194.816 106.84 194.832 106.816 194.86C106.637 195.052 106.529 195.295 106.501 195.557C106.49 195.604 106.478 195.652 106.483 195.703C106.476 195.735 106.464 195.783 106.473 195.818L107.928 208.817L96.8065 210.062L95.3548 197.047C95.3548 197.047 95.3343 196.992 95.3259 196.957C95.3213 196.905 95.3008 196.85 95.2765 196.811C95.2514 196.705 95.1908 196.606 95.1301 196.508C95.118 196.489 95.09 196.465 95.0779 196.446C95.0014 196.344 94.9052 196.254 94.7895 196.176C94.7895 196.176 94.7895 196.176 94.7577 196.169C89.9957 193.267 88.4262 186.997 91.2595 182.168C91.7319 181.375 92.2882 180.651 92.9603 180.006C92.9603 180.006 92.9641 179.99 92.9678 179.974C93.0576 179.878 93.1314 179.778 93.1932 179.658C93.2007 179.627 93.2203 179.615 93.2278 179.583C93.2541 179.472 93.2803 179.361 93.3028 179.265C93.3141 179.218 93.3253 179.17 93.3207 179.119C93.3282 179.087 93.3357 179.055 93.3432 179.023L91.8914 166.009L103.013 164.764L104.465 177.778C104.465 177.778 104.494 177.869 104.502 177.905L104.529 177.861ZM132.177 188.966L111.778 191.239C112.831 187.917 112.467 184.278 110.757 181.226L131.069 178.967L132.177 188.966ZM67.7082 186.009L88.0198 183.75C87.0269 187.102 87.4619 190.725 89.2303 193.74L68.8318 196.012L67.7241 186.013L67.7082 186.009ZM73.4201 167.999L89.5478 166.21L90.9327 178.655C90.2148 179.424 89.5966 180.267 89.0784 181.184L67.4394 183.599L66.6635 176.594C66.1964 172.327 69.2166 168.481 73.4164 168.015L73.4201 167.999ZM69.8459 205.202L69.0848 198.419L90.8779 195.99C91.5321 196.698 92.2564 197.321 93.0545 197.845L94.4394 210.29L78.3118 212.079C74.1119 212.546 70.3168 209.454 69.8337 205.183L69.8459 205.202ZM126.454 206.739L110.326 208.528L108.941 196.083C109.593 195.382 110.176 194.615 110.656 193.789L132.449 191.361L133.21 198.144C133.678 202.411 130.657 206.257 126.457 206.723L126.454 206.739ZM130.804 176.541L109.165 178.956C108.462 178.169 107.67 177.479 106.804 176.889L105.419 164.444L121.546 162.655C125.746 162.189 129.541 165.281 130.024 169.552L130.8 176.557L130.804 176.541Z" fill="#082422"/>
</g>
<defs>
<clipPath id="clip0_15015_18825">
<rect width="459.682" height="364.62" fill="white"/>
</clipPath>
</defs>
</svg>
