<svg width="173" height="120" viewBox="0 0 173 120" fill="none" xmlns="http://www.w3.org/2000/svg">
<path d="M172.472 22.7231L0.25 67.5849L41.54 80.8537L51.5165 119L79.0655 96.6083L102.229 109.877L172.472 22.7231Z" fill="white" stroke="#082422" stroke-width="0.5" stroke-linecap="round" stroke-linejoin="round"/>
<path d="M54.9982 83.7185L51.6777 119L79.1855 96.4977L54.9982 83.7185Z" fill="white" stroke="#082422" stroke-width="0.5" stroke-linecap="round" stroke-linejoin="round"/>
<path d="M41.5117 80.6889L172.472 22.7231L54.8165 83.7185" fill="white"/>
<path d="M41.5117 80.6889L172.472 22.7231L54.8165 83.7185" stroke="#082422" stroke-width="0.5" stroke-linecap="round" stroke-linejoin="round"/>
<path d="M44.205 60.7512C44.205 60.7512 57.0249 71.6423 66.0565 85.0637C66.0565 85.0637 78.2789 70.2546 93.6349 64.9501C108.991 59.6456 122.403 53.2197 123.38 52.8581C123.38 52.8581 120.857 38.6151 111.979 24.0586C111.979 24.0586 78.2774 38.7022 65.4626 46.5626C53.412 53.9564 44.2091 60.7465 44.2091 60.7465L44.205 60.7512Z" fill="#60D06F" stroke="#002522" stroke-width="0.5" stroke-miterlimit="10"/>
<path d="M55.3777 60.8155C54.9016 64.4314 51.3195 62.1237 53.9446 64.4861C56.8155 67.069 60.6722 70.8147 64.2239 75.1781C65.2993 76.5016 64.5642 72.4507 67.7902 72.6307C71.3747 72.8333 68.7927 77.6853 71.2956 75.3832C75.7579 71.2738 83.5366 64.9786 92.2471 61.7655C101.045 58.5238 109.155 54.9423 114.019 52.7254C116.669 51.5184 113.349 51.3944 114.415 48.7742C115.536 46.0185 118.431 48.8716 117.736 46.0977C116.88 42.6867 115.322 37.684 112.618 32.353C111.878 30.8912 110.743 33.6056 108.654 33.1147C105.115 32.2822 107.961 28.8846 104.574 30.4356C95.3528 34.6583 77.0626 43.1974 68.6471 48.2818C62.6873 51.8836 57.4851 55.296 54.015 57.6358C51.1845 59.5428 55.7109 58.2648 55.3733 60.8159L55.3777 60.8155Z" fill="#60D06F" stroke="#002522" stroke-width="0.5" stroke-miterlimit="10"/>
<path d="M84.4361 60.386C75.1702 64.2375 67.5706 64.5907 66.3253 61.5829C65.0799 58.5751 70.6162 52.4715 79.9208 47.5313C90.8096 41.7524 102.077 39.8744 103.257 44.1846C104.406 48.3812 95.208 55.9067 84.4361 60.386Z" fill="#60D06F" stroke="#002522" stroke-width="0.5" stroke-miterlimit="10"/>
<path d="M51.7919 61.3266C51.7919 61.3266 64.6118 72.2177 73.6434 85.6391C73.6434 85.6391 85.8659 70.83 101.222 65.5255C116.578 60.221 129.99 53.7951 130.967 53.4335C130.967 53.4335 128.444 39.1905 119.566 24.634C119.566 24.634 85.8643 39.2777 73.0495 47.138C60.9989 54.5319 51.796 61.3219 51.796 61.3219L51.7919 61.3266Z" fill="#60D06F" stroke="#002522" stroke-width="0.5" stroke-miterlimit="10"/>
<path d="M62.9646 61.3907C62.4885 65.0066 58.9064 62.6989 61.5315 65.0613C64.4025 67.6442 68.2591 71.3899 71.8108 75.7533C72.8863 77.0768 72.1511 73.0259 75.3771 73.2059C78.9616 73.4085 76.3796 78.2605 78.8825 75.9584C83.3448 71.849 91.1235 65.5538 99.834 62.3407C108.632 59.099 116.742 55.5175 121.606 53.3006C124.256 52.0936 120.936 51.9696 122.002 49.3494C123.123 46.5937 126.018 49.4468 125.322 46.6729C124.467 43.2619 122.909 38.2592 120.205 32.9282C119.465 31.4664 118.33 34.1808 116.24 33.6899C112.701 32.8574 115.548 29.4598 112.161 31.0108C102.94 35.2335 84.6496 43.7726 76.234 48.857C70.2742 52.4588 65.072 55.8712 61.6019 58.2109C58.7714 60.1179 63.2978 58.84 62.9602 61.3911L62.9646 61.3907Z" fill="#60D06F" stroke="#002522" stroke-width="0.5" stroke-miterlimit="10"/>
<path d="M92.0207 60.9595C82.7548 64.8109 75.1552 65.1641 73.9099 62.1564C72.6423 59.0878 78.2008 53.0449 87.5054 48.1048C98.3942 42.3258 109.662 40.4478 110.841 44.7581C111.991 48.9546 102.793 56.4801 92.0207 60.9595Z" fill="#60D06F" stroke="#002522" stroke-width="0.5" stroke-miterlimit="10"/>
<path d="M59.8351 63.4143C59.8351 63.4143 72.6551 74.3053 81.6866 87.7268C81.6866 87.7268 93.9091 72.9176 109.265 67.6132C124.621 62.3087 138.033 55.8828 139.01 55.5212C139.01 55.5212 136.487 41.2782 127.609 26.7217C127.609 26.7217 93.9075 41.3653 81.0927 49.2256C69.0421 56.6195 59.8392 63.4095 59.8392 63.4095L59.8351 63.4143Z" fill="#60D06F" stroke="#002522" stroke-width="0.5" stroke-miterlimit="10"/>
<path d="M71.0079 63.4786C70.5317 67.0945 66.9496 64.7868 69.5748 67.1492C72.4457 69.7321 76.3023 73.4778 79.854 77.8412C80.9295 79.1647 80.1943 75.1138 83.4204 75.2937C87.0048 75.4964 84.4228 80.3484 86.9257 78.0463C91.388 73.9369 99.1667 67.6417 107.877 64.4286C116.675 61.1869 124.786 57.6054 129.649 55.3885C132.299 54.1815 128.979 54.0575 130.045 51.4373C131.166 48.6816 134.061 51.5347 133.366 48.7607C132.51 45.3497 130.952 40.3471 128.248 35.0161C127.508 33.5543 126.373 36.2687 124.284 35.7778C120.745 34.9453 123.591 31.5477 120.204 33.0987C110.983 37.3214 92.6928 45.8605 84.2772 50.9449C78.3174 54.5467 73.1152 57.9591 69.6452 60.2988C66.8146 62.2058 71.341 60.9279 71.0034 63.4789L71.0079 63.4786Z" fill="#60D06F" stroke="#002522" stroke-width="0.5" stroke-miterlimit="10"/>
<path d="M100.066 63.0493C90.8002 66.9007 83.2007 67.254 81.9553 64.2462C80.6877 61.1776 86.2462 55.1348 95.5508 50.1946C106.44 44.4157 117.707 42.5376 118.887 46.8479C120.036 51.0445 110.838 58.5699 100.066 63.0493Z" fill="#60D06F" stroke="#002522" stroke-width="0.5" stroke-miterlimit="10"/>
<path d="M159.316 29.8992L56.1621 83.4196L111.178 95.3795L159.316 29.8992Z" fill="white"/>
<path d="M55.2654 83.6582L150.645 34.085" stroke="black" stroke-width="0.5"/>
</svg>
