<svg width="90" height="62" viewBox="0 0 90 62" fill="none" xmlns="http://www.w3.org/2000/svg">
<path d="M3.7775 34.4763C3.7775 34.4763 29.118 17.729 33.7905 17.8238C33.7905 17.8238 77.1465 37.6118 82.5378 40.9548C84.1181 41.9328 88.6004 44.3303 88.6004 44.3303C88.6004 44.3303 61.3677 58.7928 60.1588 60.7814C60.1588 60.7814 5.01022 34.0111 3.77453 34.4763H3.7775Z" fill="#60D06F" stroke="#060606" stroke-width="0.6" stroke-miterlimit="10"/>
<path d="M3.80449 32.1295C3.80449 32.1295 29.145 15.3821 33.8175 15.477C33.8175 15.477 77.1735 35.265 82.5648 38.608C84.145 39.586 88.6274 41.9835 88.6274 41.9835C88.6274 41.9835 61.3947 56.4459 60.1857 58.4345C60.1857 58.4345 5.03721 31.6642 3.80152 32.1295H3.80449Z" fill="#60D06F" stroke="#060606" stroke-width="0.6" stroke-miterlimit="10"/>
<path d="M3.82523 29.5545C3.82523 29.5545 29.1658 12.8071 33.8382 12.902C33.8382 12.902 77.1942 32.69 82.5855 36.0329C84.1658 37.0109 88.6481 39.4085 88.6481 39.4085C88.6481 39.4085 61.4154 53.8709 60.2065 55.8595C60.2065 55.8595 5.05795 29.0892 3.82226 29.5545H3.82523Z" fill="#60D06F" stroke="#060606" stroke-width="0.6" stroke-miterlimit="10"/>
<path d="M3.47774 26.6913C3.47774 26.6913 28.8183 9.94396 33.4907 10.0388C33.4907 10.0388 76.8467 29.8268 82.238 33.1698C83.8183 34.1478 88.3006 36.5453 88.3006 36.5453C88.3006 36.5453 61.068 51.0077 59.859 52.9963C59.859 52.9963 4.71047 26.226 3.47478 26.6913H3.47774Z" fill="#60D06F" stroke="#060606" stroke-width="0.6" stroke-miterlimit="10"/>
<path d="M3.10966 23.6648C3.10966 23.6648 28.4502 6.91747 33.1226 7.0123C33.1226 7.0123 76.4787 26.8003 81.8699 30.1433C83.4502 31.1213 87.9326 33.5188 87.9326 33.5188C87.9326 33.5188 60.6999 47.9813 59.4909 49.9699C59.4909 49.9699 4.34237 23.1995 3.10668 23.6648H3.10966Z" fill="#60D06F" stroke="#060606" stroke-width="0.6" stroke-miterlimit="10"/>
<path d="M2.7409 20.6368C2.7409 20.6368 28.0814 3.88939 32.7539 3.98423C32.7539 3.98423 76.1099 23.7723 81.5012 27.1152C83.0814 28.0932 87.5638 30.4908 87.5638 30.4908C87.5638 30.4908 60.3311 44.9532 59.1222 46.9418C59.1222 46.9418 3.97361 20.1715 2.73793 20.6368H2.7409Z" fill="#60D06F" stroke="#060606" stroke-width="0.6" stroke-miterlimit="10"/>
<path d="M1.65104 16.9529C1.65104 16.9529 26.9916 0.205554 31.664 0.300389C31.664 0.300389 75.02 20.0884 80.4113 23.4314C81.9916 24.4094 86.4739 26.8069 86.4739 26.8069C86.4739 26.8069 59.2412 41.2693 58.0323 43.2579C58.0323 43.2579 2.88375 16.4876 1.64806 16.9529H1.65104Z" fill="#60D06F" stroke="#060606" stroke-width="0.6" stroke-miterlimit="10"/>
<path d="M16.0665 15.7027C15.814 13.48 10.2385 15.0952 11.9584 14.0105C15.5585 11.7433 23.941 6.5333 28.2273 4.44099C30.0838 3.53413 27.4372 6.99266 30.868 6.88597C33.8503 6.7941 32.071 4.5299 34.4117 5.60569C43.0348 9.57396 72.3497 23.3844 75.2993 25.2455C76.3984 25.939 70.6803 24.9551 70.8051 26.6918C70.9209 28.2951 77.4588 27.3497 74.5686 28.8938C71.1586 30.7134 63.3553 34.9425 60.2037 36.7858C58.065 38.0365 59.3066 35.4878 56.556 35.5826C53.9985 35.6685 56.1016 38.5996 52.944 37.0703C43.9467 32.7138 21.0152 21.2891 13.4911 17.9521C11.5277 17.0808 16.31 17.8039 16.0724 15.7057L16.0665 15.7027Z" fill="#60D06F" stroke="#060606" stroke-width="0.6" stroke-miterlimit="10"/>
<path d="M61.272 28.2118C62.4869 25.4281 55.5816 19.7436 45.8486 15.5152C36.1155 11.2868 27.2405 10.1156 26.0255 12.8994C24.8106 15.6831 31.716 21.3676 41.449 25.596C51.182 29.8244 60.0571 30.9955 61.272 28.2118Z" fill="#51B55E" stroke="#060606" stroke-width="0.6" stroke-miterlimit="10"/>
</svg>
