<svg width="799" height="745" viewBox="0 0 799 745" fill="none" xmlns="http://www.w3.org/2000/svg">
<g clip-path="url(#clip0_14997_18378)">
<path d="M505.222 208.449L382.312 280.242" stroke="#082422" stroke-width="0.583536" stroke-linecap="round"/>
<path opacity="0.25" d="M642.516 485.659V485.544C642.096 479.188 638.232 473.307 632.214 469.845L604.79 453.563L471.162 374.125C463.103 369.403 453.485 366.801 444.078 366.801C434.67 366.801 425.398 369.247 417.413 373.875L364.077 404.738L16.93 605.323C10.6604 608.854 6.83765 615.345 6.69531 622.737C6.69531 629.973 10.4096 636.518 16.6318 640.245L179.967 737.259C187.403 741.717 195.943 744.075 204.68 744.075C213.417 744.075 221.354 741.886 228.945 737.57L309.176 691.191L578.43 535.616L632.668 504.245C639.398 500.471 643.072 493.532 642.503 485.666L642.516 485.659Z" fill="#082422"/>
<path d="M226.366 731.39L619.291 504.413C627.472 499.711 631.742 491.573 632.061 483.313C632.454 474.424 635.104 451.936 626.367 446.718L462.239 366.779C444.135 356.033 421.68 355.911 403.46 366.427L5.76992 579.209C-2.17386 583.796 0.252657 605.458 0.686447 611.976C1.38458 622.553 4.12288 631.144 13.3748 636.633L172.399 731.038C188.999 740.876 209.638 741.038 226.359 731.356V731.397L226.366 731.39Z" fill="#04A8A7" stroke="#082422" stroke-width="0.583536" stroke-miterlimit="10"/>
<path d="M226.36 709.223L619.285 482.246C636.244 472.449 636.399 448.022 619.563 438.028L462.273 344.646C444.17 333.9 421.714 333.778 403.495 344.294L13.6533 569.496C-3.6237 579.456 -3.73893 604.309 13.3754 614.507L172.4 708.911C188.999 718.75 209.638 718.912 226.36 709.23V709.223Z" fill="#2BF2F1" stroke="#082422" stroke-width="0.583536" stroke-miterlimit="10"/>
<path d="M432.541 343.169C441.646 343.169 450.955 345.682 458.751 350.255V350.256L588.779 427.559H588.78L615.465 443.407L615.468 443.409C621.249 446.74 624.947 452.376 625.347 458.454V458.568L625.348 458.578C625.895 466.125 622.378 472.764 615.925 476.38L615.922 476.382L563.142 506.906L301.14 658.294L223.072 703.419C215.72 707.596 208.049 709.709 199.603 709.709C191.155 709.709 182.891 707.426 175.704 703.117H175.703L16.7656 608.719C10.7965 605.147 7.23923 598.882 7.2373 591.941C7.3777 584.846 11.0445 578.627 17.0518 575.244L17.0547 575.242L354.842 380.043L406.741 350.014C414.463 345.534 423.434 343.169 432.541 343.169Z" fill="white" stroke="#082422" stroke-width="0.583536"/>
<path d="M537.738 414.429C541.832 416.766 541.832 420.608 537.738 422.946C533.563 425.365 526.961 425.365 522.867 423.027L473.165 394.387C468.989 391.968 468.901 388.126 473.165 385.7C477.177 383.363 483.772 383.363 488.035 385.782L537.738 414.422V414.429Z" fill="#082422"/>
<path d="M535.083 535.441L491.853 560.016C488.606 561.859 485.977 565.985 485.977 569.231C485.977 572.476 488.606 573.608 491.853 571.765L535.083 547.189C538.33 545.347 540.959 541.22 540.959 537.975C540.959 534.729 538.33 533.598 535.083 535.441Z" fill="#007473" stroke="#082422" stroke-width="0.583536" stroke-miterlimit="10"/>
<path d="M118.26 692.73L117.82 692.473C117.501 692.283 117.305 691.944 117.305 691.572V682.899C117.305 682.086 118.186 681.584 118.884 681.998L119.325 682.255C119.643 682.445 119.84 682.784 119.84 683.156V691.829C119.84 692.642 118.959 693.143 118.26 692.73Z" fill="#082422"/>
<path d="M123.036 695.59L122.595 695.326C122.284 695.136 122.094 694.797 122.094 694.431V685.779C122.094 684.966 122.988 684.464 123.687 684.884L124.127 685.149C124.439 685.338 124.629 685.677 124.629 686.043V694.695C124.629 695.508 123.734 696.01 123.036 695.59Z" fill="#082422"/>
<path d="M127.866 698.449L127.391 698.165C127.079 697.975 126.883 697.636 126.883 697.27V688.618C126.883 687.811 127.757 687.31 128.455 687.716L128.93 687.994C129.248 688.184 129.445 688.523 129.445 688.895V697.555C129.445 698.368 128.557 698.869 127.859 698.449H127.866Z" fill="#082422"/>
<path d="M132.661 701.328L132.187 701.05C131.868 700.86 131.672 700.521 131.672 700.149V691.469C131.672 690.663 132.546 690.161 133.244 690.568L133.719 690.846C134.037 691.036 134.234 691.374 134.234 691.747V700.427C134.234 701.233 133.36 701.734 132.661 701.328Z" fill="#082422"/>
<path d="M137.427 704.164L136.986 703.9C136.674 703.71 136.484 703.371 136.484 703.005V694.353C136.484 693.54 137.379 693.038 138.077 693.458L138.518 693.723C138.83 693.912 139.019 694.251 139.019 694.617V703.27C139.019 704.083 138.125 704.584 137.427 704.164Z" fill="#082422"/>
<path d="M142.229 707.039L141.789 706.781C141.47 706.592 141.273 706.253 141.273 705.88V697.207C141.273 696.394 142.155 695.893 142.853 696.306L143.293 696.564C143.612 696.753 143.808 697.092 143.808 697.465V706.138C143.808 706.951 142.927 707.452 142.229 707.039Z" fill="#082422"/>
<path d="M147.03 709.911L146.555 709.626C146.243 709.436 146.047 709.098 146.047 708.732V700.066C146.047 699.253 146.935 698.751 147.633 699.171L148.107 699.456C148.419 699.646 148.616 699.984 148.616 700.35V709.016C148.616 709.829 147.728 710.331 147.03 709.911Z" fill="#082422"/>
<path d="M151.823 712.765L151.382 712.508C151.064 712.318 150.867 711.979 150.867 711.607V702.934C150.867 702.121 151.748 701.619 152.446 702.033L152.887 702.29C153.206 702.48 153.402 702.819 153.402 703.191V711.864C153.402 712.677 152.521 713.179 151.823 712.765Z" fill="#082422"/>
<path d="M156.598 715.617L156.158 715.353C155.846 715.163 155.656 714.824 155.656 714.458V705.806C155.656 704.993 156.551 704.491 157.249 704.912L157.69 705.176C158.001 705.366 158.191 705.704 158.191 706.07V714.723C158.191 715.536 157.297 716.037 156.598 715.617Z" fill="#082422"/>
<path d="M74.9933 666.598C72.5058 665.135 70.4453 661.896 70.4453 659.409C70.4453 656.923 72.499 656.049 74.9933 657.512L101.163 672.845C103.651 674.309 105.711 677.548 105.711 680.034C105.711 682.521 103.657 683.395 101.163 681.931" fill="#082422"/>
<path d="M22.1156 635.682L21.6412 635.398C21.3294 635.208 21.1328 634.869 21.1328 634.503V625.837C21.1328 625.024 22.0207 624.523 22.7189 624.943L23.1933 625.227C23.5051 625.417 23.7017 625.756 23.7017 626.122V634.788C23.7017 635.601 22.8137 636.102 22.1156 635.682Z" fill="#082422"/>
<path d="M26.901 638.535L26.4604 638.277C26.1419 638.088 25.9453 637.749 25.9453 637.376V628.703C25.9453 627.89 26.8264 627.389 27.5246 627.802L27.9651 628.06C28.2837 628.249 28.4803 628.588 28.4803 628.961V637.634C28.4803 638.447 27.5991 638.948 26.901 638.535Z" fill="#082422"/>
<path d="M31.6687 641.394L31.2281 641.13C30.9163 640.94 30.7266 640.602 30.7266 640.236V631.583C30.7266 630.77 31.6213 630.269 32.3194 630.689L32.76 630.953C33.0717 631.143 33.2615 631.482 33.2615 631.848V640.5C33.2615 641.313 32.3668 641.815 31.6687 641.394Z" fill="#082422"/>
<path d="M36.513 644.289L36.0386 644.011C35.72 643.821 35.5234 643.482 35.5234 643.11V634.43C35.5234 633.624 36.3978 633.122 37.0959 633.529L37.5704 633.807C37.8889 633.996 38.0855 634.335 38.0855 634.708V643.387C38.0855 644.194 37.2112 644.695 36.513 644.289Z" fill="#082422"/>
<path d="M41.2797 647.141L40.8052 646.857C40.4934 646.667 40.2969 646.328 40.2969 645.962V637.296C40.2969 636.483 41.1848 635.982 41.8829 636.402L42.3574 636.686C42.6692 636.876 42.8657 637.215 42.8657 637.581V646.247C42.8657 647.06 41.9778 647.561 41.2797 647.141Z" fill="#082422"/>
<path d="M46.0729 650L45.6323 649.742C45.3138 649.552 45.1172 649.214 45.1172 648.841V640.168C45.1172 639.355 45.9983 638.854 46.6965 639.267L47.137 639.525C47.4556 639.714 47.6521 640.053 47.6521 640.426V649.099C47.6521 649.912 46.771 650.413 46.0729 650Z" fill="#082422"/>
<path d="M50.8541 652.845L50.4136 652.587C50.095 652.398 49.8984 652.059 49.8984 651.686V643.04C49.8984 642.227 50.7931 641.726 51.4913 642.146L51.9318 642.41C52.2436 642.6 52.4334 642.939 52.4334 643.305V651.944C52.4334 652.757 51.5523 653.258 50.8541 652.845Z" fill="#082422"/>
<path d="M55.6781 655.717L55.2037 655.433C54.8919 655.243 54.6953 654.904 54.6953 654.538V645.872C54.6953 645.059 55.5832 644.558 56.2814 644.978L56.7558 645.263C57.0676 645.452 57.2642 645.791 57.2642 646.157V654.823C57.2642 655.636 56.3763 656.137 55.6781 655.717Z" fill="#082422"/>
<path d="M60.4557 658.57L60.0151 658.313C59.6966 658.123 59.5 657.784 59.5 657.411V648.739C59.5 647.925 60.3811 647.424 61.0793 647.837L61.5198 648.095C61.8384 648.285 62.035 648.623 62.035 648.996V657.669C62.035 658.482 61.1538 658.983 60.4557 658.57Z" fill="#082422"/>
<path fill-rule="evenodd" clip-rule="evenodd" d="M410.683 569.461C385.024 554.504 343.502 554.541 317.948 569.537C309.075 574.738 303.299 581.067 300.604 587.734C290.084 610.599 312.635 634.222 313.906 635.553L313.913 635.561L324.535 627.511L345.984 640.015V661.536L457.45 597.147C455.779 595.894 453.956 594.687 451.981 593.537H451.974L410.683 569.461ZM629.984 451.083C607.696 468.749 585.187 486.289 558.779 501.554C538.306 513.39 515.484 523.855 488.601 531.958C466.217 518.935 443.832 505.912 421.448 492.888L405.907 483.846C379.929 498.019 350.729 510.312 321.527 522.606L321.477 522.627L321.41 522.656C289.086 536.264 256.76 549.874 228.811 566.031C208.338 577.867 190.211 591.062 176.149 606.627C138.27 584.591 100.393 562.554 62.5156 540.515L353.253 372.563C371.373 383.105 389.491 393.647 407.61 404.189L415.05 408.518C421.999 404.262 428.689 399.855 435.194 395.34C415.037 383.614 394.881 371.887 374.725 360.16L402.839 343.919C421.058 333.403 443.513 333.525 461.617 344.271L618.907 437.653C624.417 440.924 628.107 445.74 629.984 451.083Z" fill="black" fill-opacity="0.2"/>
<path d="M513.465 404.34L390.555 476.133" stroke="#082422" stroke-width="0.583536" stroke-linecap="round"/>
<path d="M488.612 373.146L488.626 378.422C474.564 393.988 456.436 407.187 435.963 419.023C407.995 435.191 375.649 448.804 343.303 462.422C310.956 476.04 278.606 489.658 250.637 505.827C230.165 517.663 212.037 530.857 197.975 546.422L197.961 541.146C212.023 525.581 230.146 512.387 250.624 500.551C278.592 484.387 310.943 470.764 343.289 457.146C375.64 443.529 407.981 429.915 435.95 413.747C456.422 401.915 474.55 388.712 488.612 373.146Z" fill="#38A543" stroke="#082422" stroke-width="0.583536" stroke-miterlimit="10"/>
<path d="M197.962 541.147L197.976 546.423C147.401 517.001 96.8308 487.578 46.256 458.151L46.2422 452.875C96.817 482.298 147.387 511.72 197.962 541.147Z" fill="#38A543" stroke="#082422" stroke-width="0.583536" stroke-miterlimit="10"/>
<path d="M98.9048 412.28C126.873 396.112 159.219 382.499 191.566 368.881C223.912 355.263 256.263 341.645 284.231 325.481C304.704 313.645 322.831 300.446 336.893 284.881C387.468 314.303 438.039 343.726 488.613 373.153C474.551 388.718 456.424 401.917 435.951 413.754C407.982 429.922 375.636 443.535 343.29 457.153C310.944 470.771 278.593 484.389 250.625 500.557C230.152 512.394 212.024 525.588 197.962 541.153C147.387 511.731 96.817 482.308 46.2422 452.881C60.3046 437.32 78.432 424.117 98.9048 412.285V412.28Z" fill="#60D06F" stroke="#082422" stroke-width="0.583536" stroke-miterlimit="10"/>
<path d="M128.289 419.677C152.643 405.599 180.266 393.422 207.89 381.245C235.509 369.068 263.127 356.896 287.481 342.817C296.407 337.656 304.901 332.238 312.792 326.474C314.066 325.724 315.68 325.756 316.751 326.377C326.951 332.312 341.965 332.675 351.617 327.095C353.126 326.225 354.501 325.208 355.71 324.043C355.912 323.845 356.147 323.675 356.404 323.528C357.678 322.791 359.499 322.68 360.865 323.477C380.873 335.115 400.877 346.758 420.885 358.396C422.527 359.349 422.697 361.136 421.474 362.31C412.539 370.919 413.482 382.658 425.341 389.555C426.643 390.31 426.905 391.64 425.728 392.501C417.905 398.2 409.504 403.555 400.665 408.665C376.312 422.743 348.693 434.915 321.074 447.092C293.45 459.269 265.831 471.446 241.477 485.52C232.542 490.685 224.044 496.108 216.149 501.877C214.7 502.733 212.856 502.682 211.642 501.978C201.456 496.053 186.474 495.685 176.84 501.255C175.323 502.135 173.934 503.157 172.725 504.331C172.541 504.506 172.334 504.662 172.104 504.796C170.954 505.459 169.308 505.551 168.071 504.837C147.883 493.093 127.7 481.349 107.513 469.605C106.032 468.744 105.862 467.132 106.961 466.069C115.873 457.446 114.916 445.702 103.057 438.801C101.912 438.133 101.695 436.969 102.725 436.214C110.69 430.376 119.266 424.897 128.293 419.677H128.289Z" fill="#80E58A" stroke="#082422" stroke-width="0.583536" stroke-miterlimit="10"/>
<path d="M208.138 404.624C214.562 400.908 221.727 397.299 229.54 393.842C256.097 382.084 283.017 373.116 303.558 367.246C313.937 364.373 322.964 362.421 330.611 361.892C338.254 361.362 344.573 362.292 349.387 365.1C354.188 367.89 357.049 372.296 357.766 377.692C358.479 383.083 356.993 389.422 352.947 395.982C347.387 405.323 336.245 414.816 320.835 423.72C314.411 427.435 307.246 431.045 299.433 434.502C272.877 446.26 245.961 455.228 225.415 461.098C215.036 463.971 206.009 465.923 198.362 466.452C190.719 466.981 184.405 466.051 179.581 463.248C174.785 460.458 171.92 456.048 171.203 450.652C170.49 445.261 171.98 438.922 176.022 432.366C181.582 423.02 192.724 413.532 208.134 404.624H208.138Z" fill="#60D06F" stroke="#082422" stroke-width="0.583536" stroke-miterlimit="10"/>
<path d="M798.264 298.834L798.273 302.789C771.39 310.891 748.563 321.36 728.09 333.196C700.117 349.365 676.536 368.074 652.945 386.789C629.359 405.503 605.769 424.217 577.805 440.381C557.332 452.217 534.51 462.681 507.626 470.784L507.617 466.829C534.505 458.727 557.323 448.258 577.796 436.426C605.764 420.262 629.35 401.548 652.936 382.834C676.526 364.12 700.108 345.405 728.081 329.242C748.554 317.41 771.381 306.937 798.264 298.834Z" fill="#38A543" stroke="#082422" stroke-width="0.583536" stroke-miterlimit="10"/>
<path d="M507.623 466.829L507.632 470.784C457.057 441.361 406.482 411.934 355.908 382.511L355.898 378.557C406.473 407.979 457.048 437.406 507.623 466.829Z" fill="#38A543" stroke="#082422" stroke-width="0.583536" stroke-miterlimit="10"/>
<path d="M576.367 240.97C596.839 229.133 619.657 218.669 646.545 210.566C697.12 239.989 747.695 269.416 798.27 298.839C771.387 306.941 748.559 317.41 728.087 329.246C700.114 345.415 676.532 364.124 652.942 382.839C629.356 401.553 605.765 420.267 577.801 436.431C557.329 448.267 534.506 458.731 507.623 466.834C457.048 437.412 406.473 407.984 355.898 378.562C382.782 370.459 405.609 359.99 426.081 348.154C454.05 331.986 477.636 313.276 501.226 294.562C524.812 275.848 548.407 257.133 576.371 240.965L576.367 240.97Z" fill="#60D06F" stroke="#082422" stroke-width="0.583536" stroke-miterlimit="10"/>
<path d="M584.081 260.239C593.007 255.078 602.374 250.175 612.339 245.622C613.645 245.023 615.655 245.152 616.8 245.82C628.659 252.721 648.902 253.306 663.774 248.154C665.802 247.45 668.883 247.555 670.52 248.508C690.528 260.147 710.532 271.79 730.54 283.428C731.906 284.224 731.708 285.279 730.434 286.015C730.177 286.163 729.878 286.301 729.538 286.416C727.528 287.111 725.776 287.907 724.268 288.777C714.616 294.357 715.195 303.068 725.39 308.997C726.604 309.701 726.687 310.774 725.486 311.469C715.356 316.128 706.094 320.985 697.261 326.091C672.907 340.169 651.818 356.149 630.733 372.124C609.644 388.099 588.56 404.078 564.206 418.152C555.267 423.317 545.89 428.23 535.911 432.787C534.426 433.469 532.131 433.308 530.83 432.553C518.97 425.652 498.714 425.058 483.819 430.2C481.984 430.835 479.207 430.729 477.721 429.869C457.538 418.124 437.351 406.38 417.163 394.636C415.926 393.918 416.091 392.965 417.241 392.297C417.471 392.164 417.742 392.044 418.046 391.938C420.074 391.238 421.844 390.437 423.362 389.563C432.996 383.992 432.421 375.305 422.235 369.38C421.173 368.763 421.108 367.824 422.162 367.221C432.517 362.488 441.99 357.53 451.027 352.309C475.376 338.236 496.47 322.256 517.554 306.276C538.643 290.297 559.727 274.322 584.086 260.243L584.081 260.239Z" fill="#80E58A" stroke="#082422" stroke-width="0.583536" stroke-miterlimit="10"/>
<path d="M557.861 306.489C573.27 297.581 589.669 291.154 605.801 287.959C617.122 285.634 628.057 284.792 637.351 285.224C646.654 285.662 654.242 287.333 659.042 290.127C663.862 292.931 665.448 296.596 664.51 301.024C663.577 305.458 660.178 310.688 655.189 316.696C644.999 328.592 629.451 344.171 609.088 359.534C603.101 364.05 596.847 368.193 590.428 371.908C575.013 380.817 558.615 387.248 542.483 390.438C531.161 392.763 520.221 393.606 510.928 393.173C501.63 392.736 494.037 391.065 489.241 388.275C484.445 385.485 482.835 381.806 483.769 377.373C484.702 372.94 488.101 367.71 493.09 361.702C503.276 349.81 518.828 334.227 539.19 318.869C545.182 314.348 551.432 310.204 557.856 306.494L557.861 306.489Z" fill="#60D06F" stroke="#082422" stroke-width="0.583536" stroke-miterlimit="10"/>
<path fill-rule="evenodd" clip-rule="evenodd" d="M717.611 251.905C694.561 263.666 669.463 274.233 644.361 284.801L644.26 284.843L644.217 284.861C611.885 298.473 579.551 312.086 551.595 328.247C531.122 340.084 512.994 353.278 498.932 368.843C480.683 358.227 462.435 347.611 444.188 336.994C464.574 323.646 482.905 309.106 501.238 294.562C524.824 275.848 548.419 257.133 576.383 240.965L576.379 240.97C596.851 229.133 619.669 218.669 646.557 210.566C670.242 224.345 693.926 238.125 717.611 251.905Z" fill="black" fill-opacity="0.2"/>
<path d="M324.882 565.98L324.793 598.283L314.141 606.391L314.23 574.088L324.882 565.98Z" fill="#BBCE00" stroke="#082422" stroke-width="0.583536" stroke-linecap="round" stroke-linejoin="round"/>
<path d="M297.984 571.056L298.074 538.754C298.022 557.097 313.242 573.07 314.22 574.092L314.13 606.394C313.16 605.372 297.94 589.407 297.984 571.056Z" fill="#85A309"/>
<mask id="mask0_14997_18378" style="mask-type:luminance" maskUnits="userSpaceOnUse" x="297" y="538" width="18" height="69">
<path d="M297.984 571.052L298.074 538.75C298.022 557.093 313.242 573.066 314.22 574.088L314.13 606.39C313.16 605.368 297.94 589.403 297.984 571.052Z" fill="white"/>
</mask>
<g mask="url(#mask0_14997_18378)">
<path d="M314.22 574.088L314.13 606.39C313.16 605.368 297.94 589.403 297.984 571.052L298.074 538.75C298.022 557.093 313.242 573.066 314.22 574.088Z" fill="#85A309" stroke="#082422" stroke-width="0.583536" stroke-linecap="round" stroke-linejoin="round"/>
</g>
<path d="M297.984 571.056L298.074 538.754C298.022 557.097 313.242 573.07 314.22 574.092L314.13 606.394C313.16 605.372 297.94 589.407 297.984 571.056Z" stroke="#082422" stroke-width="0.583536" stroke-linecap="round" stroke-linejoin="round"/>
<path d="M471.976 560.363C471.961 560.696 471.939 561.029 471.901 561.37C471.872 561.665 471.834 561.96 471.79 562.248C471.745 562.581 471.692 562.914 471.633 563.247C471.58 563.543 471.513 563.838 471.454 564.133C471.379 564.459 471.304 564.784 471.222 565.11C471.14 565.405 471.058 565.7 470.968 565.995C470.871 566.321 470.767 566.639 470.655 566.964C470.55 567.252 470.446 567.54 470.334 567.827C470.2 568.168 470.065 568.501 469.916 568.842C469.789 569.122 469.662 569.41 469.528 569.69C469.364 570.023 469.192 570.356 469.02 570.689C468.826 571.045 468.639 571.408 468.43 571.764C468.386 571.847 468.341 571.923 468.289 572.006C467.983 572.513 467.654 573.021 467.311 573.528C467.244 573.626 467.176 573.717 467.117 573.815C466.766 574.315 466.4 574.815 466.012 575.307C465.937 575.405 465.855 575.496 465.781 575.594C465.437 576.018 465.079 576.45 464.713 576.866C464.609 576.98 464.512 577.093 464.407 577.215C463.967 577.699 463.511 578.184 463.034 578.668C462.944 578.759 462.847 578.85 462.757 578.933C462.399 579.289 462.018 579.637 461.638 579.985C461.324 580.265 461.011 580.553 460.682 580.826C460.384 581.083 460.085 581.34 459.772 581.59C459.436 581.87 459.085 582.143 458.734 582.415C458.413 582.665 458.085 582.915 457.756 583.157C457.39 583.422 457.017 583.687 456.636 583.952C456.293 584.194 455.942 584.437 455.584 584.671C455.196 584.929 454.785 585.186 454.382 585.443C453.875 585.761 453.382 586.079 452.852 586.39C451.867 586.973 450.844 587.525 449.814 588.063C449.515 588.214 449.217 588.366 448.918 588.517C448.112 588.926 447.291 589.312 446.455 589.69C446.179 589.811 445.91 589.94 445.634 590.061C444.551 590.538 443.462 590.992 442.342 591.424C442.133 591.507 441.924 591.575 441.715 591.651C440.782 592.007 439.834 592.34 438.878 592.658C438.483 592.787 438.095 592.923 437.699 593.044C437.161 593.218 436.631 593.377 436.087 593.544C435.639 593.68 435.183 593.809 434.728 593.937C434.183 594.089 433.631 594.24 433.078 594.384C432.623 594.505 432.16 594.626 431.705 594.74C431.145 594.876 430.578 595.005 430.018 595.133C429.555 595.239 429.092 595.345 428.629 595.444C428.055 595.565 427.472 595.678 426.898 595.792C426.457 595.875 426.017 595.966 425.576 596.042C424.345 596.261 423.098 596.466 421.852 596.647C421.643 596.678 421.426 596.7 421.217 596.731C420.157 596.875 419.097 597.003 418.03 597.117C417.612 597.162 417.194 597.2 416.776 597.245C416.074 597.314 415.365 597.374 414.656 597.427C414.215 597.457 413.775 597.495 413.335 597.518C412.588 597.563 411.834 597.601 411.088 597.632C410.685 597.647 410.282 597.669 409.886 597.685C409.229 597.707 408.572 597.715 407.915 597.722C407.482 597.722 407.057 597.738 406.624 597.745C405.9 597.745 405.176 597.738 404.452 597.722C404.086 597.722 403.72 597.722 403.355 597.707C402.683 597.692 402.011 597.654 401.347 597.624C400.951 597.609 400.555 597.594 400.16 597.579C399.346 597.533 398.532 597.473 397.719 597.412C397.472 597.389 397.219 597.382 396.972 597.359C395.912 597.268 394.86 597.17 393.807 597.049C393.539 597.018 393.277 596.981 393.009 596.95C392.225 596.859 391.449 596.761 390.672 596.647C390.374 596.602 390.083 596.557 389.791 596.511C389.023 596.398 388.261 596.276 387.5 596.148C387.097 596.08 386.701 595.996 386.305 595.921C385.656 595.8 385.007 595.678 384.365 595.55C383.991 595.474 383.626 595.383 383.26 595.307C382.536 595.149 381.819 594.99 381.103 594.815C380.692 594.717 380.282 594.611 379.871 594.505C379.207 594.331 378.55 594.157 377.893 593.975C377.512 593.869 377.139 593.756 376.766 593.65C375.713 593.339 374.668 593.014 373.638 592.665C373.466 592.605 373.295 592.559 373.131 592.499C371.959 592.098 370.802 591.666 369.667 591.212C369.204 591.03 368.749 590.841 368.294 590.652C367.928 590.5 367.562 590.349 367.204 590.19C366.689 589.963 366.181 589.728 365.673 589.501C365.345 589.35 365.009 589.198 364.681 589.039C364.128 588.774 363.583 588.494 363.046 588.214C362.777 588.078 362.501 587.942 362.24 587.805C361.441 587.381 360.65 586.942 359.874 586.488L324.902 566.011L324.812 598.313L359.784 618.79C360.56 619.245 361.344 619.684 362.15 620.108C362.419 620.252 362.688 620.38 362.956 620.517C363.501 620.797 364.039 621.077 364.591 621.342C364.92 621.501 365.255 621.652 365.584 621.803C366.091 622.038 366.599 622.273 367.114 622.492C367.472 622.651 367.838 622.795 368.204 622.954C368.547 623.098 368.891 623.249 369.234 623.386C369.346 623.431 369.465 623.469 369.577 623.514C370.72 623.961 371.869 624.392 373.041 624.801C373.213 624.862 373.384 624.907 373.549 624.968C374.579 625.316 375.624 625.642 376.676 625.952C376.848 626.005 377.012 626.066 377.184 626.111C377.393 626.172 377.602 626.217 377.803 626.277C378.46 626.459 379.117 626.641 379.781 626.807C380.192 626.913 380.603 627.019 381.013 627.118C381.73 627.292 382.454 627.451 383.178 627.61C383.461 627.67 383.738 627.746 384.021 627.807C384.103 627.822 384.193 627.837 384.275 627.86C384.925 627.996 385.574 628.117 386.223 628.238C386.619 628.314 387.007 628.39 387.41 628.458C388.172 628.594 388.94 628.708 389.709 628.829C389.978 628.867 390.247 628.92 390.523 628.957C390.545 628.957 390.568 628.957 390.59 628.965C391.366 629.078 392.15 629.169 392.927 629.268C393.195 629.298 393.457 629.336 393.725 629.366C394.778 629.487 395.83 629.586 396.89 629.677C396.89 629.677 396.905 629.677 396.913 629.677C397.151 629.699 397.398 629.707 397.637 629.73C398.45 629.79 399.264 629.851 400.078 629.896C400.473 629.919 400.869 629.926 401.264 629.942C401.936 629.972 402.608 630.002 403.272 630.025C403.31 630.025 403.347 630.025 403.384 630.025C403.713 630.032 404.041 630.025 404.37 630.032C405.094 630.047 405.818 630.055 406.542 630.055C406.975 630.055 407.4 630.04 407.833 630.032C408.49 630.025 409.147 630.017 409.804 629.994C409.908 629.994 410.013 629.994 410.117 629.994C410.416 629.987 410.715 629.964 411.013 629.949C411.767 629.919 412.513 629.881 413.26 629.836C413.7 629.805 414.141 629.775 414.581 629.745C415.29 629.692 415.999 629.631 416.701 629.563C416.94 629.54 417.171 629.525 417.41 629.502C417.589 629.487 417.769 629.457 417.948 629.434C419.015 629.321 420.075 629.192 421.135 629.048C421.344 629.018 421.561 628.995 421.77 628.965C423.016 628.783 424.263 628.586 425.494 628.359C425.599 628.337 425.711 628.329 425.815 628.306C426.151 628.246 426.48 628.17 426.816 628.109C427.398 627.996 427.973 627.882 428.547 627.761C429.01 627.663 429.473 627.557 429.936 627.451C430.503 627.322 431.063 627.193 431.623 627.057C432.086 626.944 432.541 626.823 432.996 626.701C433.549 626.558 434.101 626.406 434.646 626.255C435.101 626.126 435.549 625.997 436.004 625.861C436.542 625.702 437.079 625.536 437.617 625.361C437.841 625.293 438.072 625.225 438.296 625.15C438.468 625.097 438.632 625.028 438.796 624.968C439.752 624.642 440.7 624.309 441.633 623.953C441.842 623.878 442.051 623.802 442.26 623.726C443.379 623.295 444.469 622.841 445.552 622.364C445.828 622.243 446.097 622.114 446.373 621.993C447.209 621.614 448.03 621.221 448.836 620.819C449.135 620.668 449.433 620.524 449.732 620.365C450.762 619.828 451.785 619.275 452.77 618.692C453.039 618.533 453.315 618.367 453.576 618.208C453.822 618.056 454.054 617.897 454.293 617.746C454.696 617.488 455.099 617.231 455.494 616.974C455.853 616.739 456.204 616.497 456.547 616.254C456.928 615.989 457.301 615.725 457.667 615.46C458.003 615.21 458.323 614.968 458.644 614.718C458.995 614.445 459.346 614.173 459.682 613.893C459.988 613.635 460.294 613.385 460.593 613.128C460.914 612.848 461.235 612.568 461.548 612.288C461.675 612.166 461.817 612.053 461.944 611.939C462.19 611.705 462.429 611.47 462.668 611.235C462.757 611.145 462.854 611.061 462.944 610.97C463.422 610.493 463.877 610.009 464.317 609.517C464.422 609.403 464.519 609.29 464.624 609.169C464.997 608.745 465.355 608.321 465.691 607.897C465.766 607.798 465.848 607.708 465.922 607.609C465.96 607.564 465.997 607.518 466.034 607.473C466.385 607.026 466.714 606.572 467.027 606.118C467.094 606.019 467.161 605.929 467.221 605.83C467.565 605.323 467.893 604.823 468.199 604.309C468.244 604.225 468.296 604.15 468.341 604.066C468.46 603.869 468.572 603.673 468.684 603.476C468.774 603.317 468.841 603.158 468.931 602.991C469.11 602.658 469.281 602.325 469.438 601.992C469.573 601.712 469.699 601.432 469.826 601.144C469.976 600.811 470.117 600.47 470.244 600.13C470.304 599.978 470.379 599.827 470.431 599.676C470.483 599.539 470.513 599.403 470.565 599.274C470.677 598.949 470.782 598.631 470.879 598.305C470.968 598.01 471.058 597.715 471.133 597.42C471.222 597.094 471.297 596.769 471.364 596.443C471.401 596.269 471.454 596.087 471.491 595.913C471.513 595.792 471.521 595.678 471.543 595.557C471.603 595.224 471.655 594.891 471.7 594.558C471.737 594.263 471.782 593.975 471.812 593.68C471.842 593.347 471.864 593.014 471.879 592.673C471.887 592.476 471.916 592.279 471.924 592.083C471.924 591.886 471.931 591.689 471.931 591.5L472.021 559.197C472.021 559.591 471.991 559.985 471.969 560.378L471.976 560.363Z" fill="#85A309" stroke="#082422" stroke-width="0.583536" stroke-linecap="round" stroke-linejoin="round"/>
<path d="M452.681 531.757C478.403 546.814 478.478 571.274 452.845 586.377C427.212 601.487 385.582 601.517 359.852 586.452L324.88 565.975L314.228 574.082C313.034 572.826 290.312 548.987 300.882 525.913C303.584 519.198 309.376 512.824 318.274 507.585C343.9 492.482 385.537 492.445 411.267 507.509L452.673 531.757H452.681Z" fill="#DCFF00" stroke="#082422" stroke-width="0.583536" stroke-linecap="round" stroke-linejoin="round"/>
<path d="M370.983 536.392C373.596 537.921 373.603 540.404 371.006 541.933C368.408 543.462 364.183 543.47 361.563 541.933C358.95 540.404 358.95 537.921 361.548 536.392C364.153 534.855 368.371 534.855 370.983 536.384V536.392Z" fill="#082422"/>
<path d="M388.96 546.903C391.572 548.432 391.58 550.908 388.975 552.444C386.377 553.974 382.152 553.981 379.539 552.452C376.927 550.923 376.927 548.44 379.525 546.91C382.122 545.381 386.347 545.374 388.96 546.903Z" fill="#4C6B11"/>
<path d="M406.913 557.422C409.525 558.952 409.533 561.435 406.928 562.964C404.323 564.493 400.105 564.501 397.493 562.971C394.88 561.442 394.88 558.959 397.478 557.43C400.075 555.901 404.3 555.893 406.913 557.422Z" fill="#85A309"/>
<path d="M763.151 88.2676L763.165 93.5435C749.103 109.109 730.975 122.308 710.502 134.144C682.534 150.312 650.188 163.926 617.842 177.543C585.496 191.161 553.145 204.779 525.176 220.948C504.704 232.784 486.576 245.978 472.514 261.543L472.5 256.268C486.562 240.702 504.685 227.508 525.163 215.672C553.131 199.508 585.482 185.885 617.828 172.268C650.179 158.65 682.52 145.036 710.489 128.868C730.961 117.036 749.089 103.833 763.151 88.2676Z" fill="#38A543" stroke="#082422" stroke-width="0.583536" stroke-miterlimit="10"/>
<path d="M472.501 256.266L472.515 261.542C421.94 232.12 371.37 202.697 320.795 173.27L320.781 167.994C371.356 197.417 421.926 226.839 472.501 256.266Z" fill="#38A543" stroke="#082422" stroke-width="0.583536" stroke-miterlimit="10"/>
<path d="M373.444 127.4C401.412 111.231 433.758 97.6179 466.105 84C498.451 70.3821 530.802 56.7642 558.77 40.6005C579.243 28.7642 597.37 15.5653 611.433 0C662.007 29.4226 712.578 58.8451 763.152 88.2723C749.09 103.838 730.963 117.036 710.49 128.873C682.521 145.041 650.175 158.654 617.829 172.272C585.483 185.89 553.132 199.508 525.164 215.676C504.691 227.513 486.564 240.707 472.501 256.272C421.926 226.85 371.356 197.427 320.781 168C334.844 152.439 352.971 139.236 373.444 127.404V127.4Z" fill="#60D06F" stroke="#082422" stroke-width="0.583536" stroke-miterlimit="10"/>
<path d="M402.836 134.798C427.19 120.72 454.813 108.543 482.437 96.3659C510.055 84.1889 537.674 72.0166 562.028 57.9384C570.954 52.7776 579.448 47.359 587.339 41.5951C588.612 40.8447 590.227 40.8769 591.298 41.4984C601.498 47.4326 616.512 47.7963 626.164 42.2166C627.673 41.3465 629.047 40.329 630.257 39.1643C630.459 38.9663 630.694 38.796 630.951 38.6487C632.225 37.9121 634.046 37.8016 635.412 38.598C655.42 50.2363 675.424 61.8792 695.432 73.5175C697.074 74.4704 697.244 76.2567 696.021 77.4306C687.086 86.0397 688.029 97.7792 699.888 104.676C701.19 105.431 701.452 106.761 700.274 107.622C692.452 113.321 684.051 118.676 675.212 123.786C650.858 137.864 623.24 150.036 595.621 162.213C567.997 174.39 540.378 186.567 516.024 200.641C507.089 205.806 498.591 211.229 490.696 216.998C489.247 217.854 487.403 217.804 486.189 217.099C476.003 211.174 461.021 210.806 451.387 216.376C449.87 217.256 448.481 218.278 447.271 219.452C447.087 219.627 446.881 219.783 446.651 219.917C445.501 220.58 443.855 220.672 442.618 219.958C422.43 208.214 402.247 196.47 382.059 184.726C380.579 183.865 380.409 182.253 381.508 181.19C390.42 172.567 389.463 160.823 377.603 153.922C376.458 153.254 376.242 152.09 377.272 151.335C385.237 145.497 393.813 140.019 402.84 134.798H402.836Z" fill="#80E58A" stroke="#082422" stroke-width="0.583536" stroke-miterlimit="10"/>
<path d="M482.67 119.739C489.094 116.024 496.258 112.414 504.071 108.957C530.628 97.1989 557.548 88.2308 578.09 82.361C588.468 79.4883 597.495 77.5363 605.143 77.0069C612.786 76.4774 619.104 77.4074 623.919 80.2157C628.719 83.0056 631.58 87.4113 632.297 92.8069C633.01 98.1979 631.525 104.537 627.478 111.098C621.918 120.439 610.776 129.932 595.366 138.835C588.942 142.55 581.778 146.16 573.965 149.617C547.408 161.375 520.493 170.343 499.946 176.213C489.567 179.086 480.54 181.038 472.893 181.567C465.25 182.097 458.936 181.167 454.113 178.363C449.316 175.573 446.451 171.163 445.734 165.767C445.021 160.376 446.511 154.037 450.553 147.481C456.113 138.135 467.255 128.647 482.665 119.739H482.67Z" fill="#60D06F" stroke="#082422" stroke-width="0.583536" stroke-miterlimit="10"/>
<path d="M356.097 167.709L233.188 239.502" stroke="#082422" stroke-width="0.583536" stroke-linecap="round"/>
<path d="M366.435 220.551L309 255.012" stroke="#082422" stroke-width="0.583536" stroke-linecap="round"/>
<path d="M480.153 461.773L422.719 496.234" stroke="#082422" stroke-width="0.583536" stroke-linecap="round"/>
<path d="M85.0049 461.773L27.5703 496.234" stroke="#082422" stroke-width="0.583536" stroke-linecap="round"/>
<path d="M282.584 250.416L253.867 267.646" stroke="#082422" stroke-width="0.583536" stroke-linecap="round"/>
<path d="M451.387 267.338L431.859 278.825" stroke="#082422" stroke-width="0.583536" stroke-linecap="round"/>
<path d="M390.559 392.854L371.031 404.34" stroke="#082422" stroke-width="0.583536" stroke-linecap="round"/>
<path d="M384.809 459.477L365.281 470.963" stroke="#082422" stroke-width="0.583536" stroke-linecap="round"/>
<path d="M74.6595 491.643L59.7266 500.832" stroke="#082422" stroke-width="0.583536" stroke-linecap="round"/>
<path d="M42.5043 531.844L22.9766 543.331" stroke="#082422" stroke-width="0.583536" stroke-linecap="round"/>
<path d="M153.926 541.035L134.398 552.522" stroke="#082422" stroke-width="0.583536" stroke-linecap="round"/>
<path d="M387.11 256.16L346.906 280.283" stroke="#082422" stroke-width="0.583536" stroke-linecap="round"/>
<path d="M167.704 564.01L127.5 588.132" stroke="#082422" stroke-width="0.583536" stroke-linecap="round"/>
<path d="M257.22 324.248L254.954 334.281C253.454 340.922 249.622 347.136 243.329 352.34C222.222 369.789 181.396 369.247 152.142 351.132C131.608 338.42 122.234 320.425 125.766 304.796L128.031 294.763C124.499 310.392 133.873 328.383 154.407 341.099C183.661 359.214 224.488 359.752 245.594 342.307C251.888 337.103 255.719 330.889 257.22 324.248Z" fill="#0096A1" stroke="#082422" stroke-width="0.583536" stroke-miterlimit="10"/>
<path d="M230.827 277.934C260.081 296.049 266.684 324.876 245.573 342.329C224.466 359.778 183.64 359.236 154.386 341.121C125.131 323.003 118.528 294.176 139.635 276.726C160.742 259.277 201.569 259.816 230.827 277.934Z" fill="#29F5FF" stroke="#082422" stroke-width="0.583536" stroke-miterlimit="10"/>
<path d="M223.43 294.971L217.466 299.9C223.914 305.839 224.956 311.632 219.968 316.814L204.575 307.28C206.427 304.883 205.879 302.731 202.746 300.791C199.814 298.975 197.319 298.82 196.115 299.816C194.337 301.287 196.322 303.209 200.641 307.347L202.778 309.435C211.999 318.483 213.757 323.393 208.13 328.045C202.695 332.537 193.975 332.422 183.612 327.881L176.978 333.365L161.981 324.079L168.668 318.553C160.95 311.826 160.292 305.721 165.516 300.538L181.844 310.65C179.599 313.083 180.317 315.476 183.984 317.746C187.248 319.768 190.198 320.412 191.884 319.021C193.373 317.79 191.826 316.274 189.081 313.531L184.521 309.107C175.155 300.176 174.327 295.077 179.813 290.547C184.766 286.454 192.676 286.274 202.57 290.526L208.437 285.676L223.434 294.963L223.43 294.971Z" fill="white" stroke="#082422" stroke-width="0.583536" stroke-miterlimit="10"/>
<path d="M105.373 352.285L33.6641 395.311" stroke="#082422" stroke-width="0.583536" stroke-linecap="round"/>
<path d="M106.023 321.941L69.8438 344.116" stroke="#082422" stroke-width="0.583536" stroke-linecap="round"/>
</g>
<defs>
<clipPath id="clip0_14997_18378">
<rect width="798.278" height="744.075" fill="white"/>
</clipPath>
</defs>
</svg>
