<svg width="944" height="695" viewBox="0 0 944 695" fill="none" xmlns="http://www.w3.org/2000/svg">
<g clip-path="url(#clip0_14997_18377)">
<path opacity="0.25" d="M7.76837 398.754V398.626C8.23529 391.564 12.5278 385.03 19.2151 381.183L49.6844 363.093L198.153 274.833C207.107 269.586 217.793 266.695 228.245 266.695C238.698 266.695 249 269.413 257.871 274.555L317.131 308.845L702.832 531.708C709.798 535.63 714.045 542.842 714.203 551.055C714.203 559.095 710.076 566.368 703.163 570.508L521.688 678.296C513.426 683.249 503.938 685.869 494.231 685.869C484.524 685.869 475.705 683.438 467.271 678.642L378.129 627.112L78.9714 454.259L18.7106 419.403C11.2325 415.21 7.15088 407.501 7.78345 398.761L7.76837 398.754Z" fill="#082422"/>
<path d="M470.127 671.775L33.5635 419.59C24.4739 414.365 19.7296 405.324 19.3757 396.147C18.9389 386.27 15.9943 361.284 25.7014 355.488L208.058 266.671C228.173 254.731 253.122 254.596 273.364 266.279L715.222 502.693C724.048 507.789 721.352 531.857 720.87 539.099C720.094 550.85 717.052 560.396 706.773 566.494L530.087 671.383C511.644 682.314 488.713 682.495 470.135 671.737V671.782L470.127 671.775Z" fill="#04A8A7" stroke="#082422" stroke-width="0.588169" stroke-miterlimit="10" stroke-linejoin="round"/>
<path d="M589.904 628.644L590.38 628.365C590.725 628.16 590.938 627.794 590.938 627.391V618.01C590.938 617.13 589.984 616.588 589.229 617.035L588.753 617.314C588.408 617.519 588.196 617.885 588.196 618.288V627.669C588.196 628.549 589.149 629.091 589.904 628.644Z" fill="#082422"/>
<path d="M584.739 631.74L585.215 631.454C585.553 631.249 585.758 630.882 585.758 630.487V621.128C585.758 620.248 584.79 619.706 584.035 620.16L583.558 620.446C583.221 620.651 583.016 621.018 583.016 621.414V630.773C583.016 631.652 583.984 632.194 584.739 631.74Z" fill="#082422"/>
<path d="M579.523 634.833L580.036 634.525C580.373 634.32 580.586 633.954 580.586 633.558V624.199C580.586 623.327 579.64 622.785 578.885 623.224L578.372 623.525C578.027 623.73 577.815 624.096 577.815 624.5V633.866C577.815 634.745 578.775 635.288 579.53 634.833H579.523Z" fill="#082422"/>
<path d="M574.344 637.947L574.857 637.646C575.201 637.441 575.414 637.074 575.414 636.671V627.283C575.414 626.411 574.468 625.869 573.713 626.308L573.2 626.609C572.855 626.814 572.643 627.18 572.643 627.584V636.972C572.643 637.844 573.589 638.386 574.344 637.947Z" fill="#082422"/>
<path d="M569.176 641.011L569.653 640.726C569.99 640.52 570.195 640.154 570.195 639.758V630.399C570.195 629.52 569.228 628.977 568.472 629.432L567.996 629.718C567.659 629.923 567.453 630.289 567.453 630.685V640.044C567.453 640.923 568.421 641.466 569.176 641.011Z" fill="#082422"/>
<path d="M563.99 644.124L564.466 643.846C564.811 643.641 565.023 643.274 565.023 642.871V633.49C565.023 632.611 564.07 632.068 563.315 632.515L562.839 632.794C562.494 632.999 562.281 633.366 562.281 633.769V643.15C562.281 644.029 563.235 644.571 563.99 644.124Z" fill="#082422"/>
<path d="M558.796 647.23L559.31 646.922C559.647 646.717 559.859 646.35 559.859 645.954V636.581C559.859 635.701 558.899 635.159 558.144 635.613L557.631 635.921C557.293 636.126 557.081 636.493 557.081 636.889V646.262C557.081 647.142 558.041 647.684 558.796 647.23Z" fill="#082422"/>
<path d="M553.607 650.32L554.083 650.041C554.428 649.836 554.641 649.47 554.641 649.066V639.686C554.641 638.806 553.688 638.264 552.932 638.711L552.456 638.989C552.111 639.195 551.899 639.561 551.899 639.964V649.345C551.899 650.224 552.852 650.767 553.607 650.32Z" fill="#082422"/>
<path d="M548.442 653.4L548.918 653.114C549.256 652.909 549.461 652.543 549.461 652.147V642.788C549.461 641.908 548.493 641.366 547.738 641.82L547.262 642.106C546.924 642.312 546.719 642.678 546.719 643.074V652.433C546.719 653.312 547.687 653.854 548.442 653.4Z" fill="#082422"/>
<path d="M636.713 600.381C639.404 598.797 641.633 595.294 641.633 592.605C641.633 589.915 639.411 588.97 636.713 590.553L608.407 607.138C605.716 608.721 603.488 612.224 603.488 614.914C603.488 617.603 605.709 618.549 608.407 616.966" fill="#082422"/>
<path d="M693.914 566.939L694.427 566.631C694.764 566.426 694.977 566.059 694.977 565.663V556.29C694.977 555.41 694.016 554.868 693.261 555.322L692.748 555.63C692.411 555.835 692.198 556.202 692.198 556.598V565.971C692.198 566.851 693.158 567.393 693.914 566.939Z" fill="#082422"/>
<path d="M688.732 570.023L689.208 569.744C689.553 569.539 689.766 569.173 689.766 568.77V559.389C689.766 558.509 688.813 557.967 688.057 558.414L687.581 558.692C687.236 558.898 687.024 559.264 687.024 559.667V569.048C687.024 569.928 687.977 570.47 688.732 570.023Z" fill="#082422"/>
<path d="M683.575 573.117L684.051 572.831C684.388 572.626 684.594 572.259 684.594 571.864V562.505C684.594 561.625 683.626 561.083 682.871 561.537L682.394 561.823C682.057 562.028 681.852 562.395 681.852 562.79V572.149C681.852 573.029 682.82 573.571 683.575 573.117Z" fill="#082422"/>
<path d="M678.328 576.249L678.841 575.949C679.186 575.744 679.398 575.377 679.398 574.974V565.586C679.398 564.714 678.453 564.171 677.698 564.611L677.184 564.912C676.84 565.117 676.627 565.483 676.627 565.886V575.275C676.627 576.147 677.573 576.689 678.328 576.249Z" fill="#082422"/>
<path d="M673.171 579.333L673.685 579.025C674.022 578.82 674.234 578.454 674.234 578.058V568.684C674.234 567.805 673.274 567.263 672.519 567.717L672.006 568.025C671.668 568.23 671.456 568.596 671.456 568.992V578.366C671.456 579.245 672.416 579.788 673.171 579.333Z" fill="#082422"/>
<path d="M667.998 582.425L668.474 582.147C668.819 581.941 669.031 581.575 669.031 581.172V571.791C669.031 570.912 668.078 570.369 667.323 570.816L666.846 571.095C666.502 571.3 666.289 571.666 666.289 572.069V581.45C666.289 582.33 667.242 582.872 667.998 582.425Z" fill="#082422"/>
<path d="M662.818 585.504L663.294 585.226C663.639 585.02 663.852 584.654 663.852 584.251V574.899C663.852 574.02 662.884 573.477 662.129 573.932L661.652 574.218C661.315 574.423 661.11 574.789 661.11 575.185V584.529C661.11 585.409 662.063 585.951 662.818 585.504Z" fill="#082422"/>
<path d="M657.601 588.612L658.114 588.305C658.451 588.099 658.664 587.733 658.664 587.337V577.964C658.664 577.084 657.704 576.542 656.949 576.996L656.435 577.304C656.098 577.509 655.885 577.876 655.885 578.271V587.645C655.885 588.525 656.846 589.067 657.601 588.612Z" fill="#082422"/>
<path d="M652.427 591.697L652.904 591.418C653.248 591.213 653.461 590.847 653.461 590.443V581.063C653.461 580.183 652.508 579.641 651.753 580.088L651.276 580.366C650.932 580.571 650.719 580.938 650.719 581.341V590.722C650.719 591.601 651.672 592.144 652.427 591.697Z" fill="#082422"/>
<path d="M470.124 647.143L33.5607 394.958C14.7188 384.073 14.5456 356.934 33.2519 345.83L208.01 242.077C228.124 230.137 253.074 230.002 273.316 241.686L706.454 491.898C725.649 502.964 725.777 530.578 706.762 541.908L530.076 646.797C511.634 657.728 488.703 657.909 470.124 647.151V647.143Z" fill="#2BF2F1" stroke="#082422" stroke-width="0.588169" stroke-miterlimit="10" stroke-linejoin="round"/>
<path d="M241.068 240.405C230.947 240.405 220.599 243.199 211.932 248.283V248.284L67.4619 334.172L37.8135 351.78L37.8096 351.782C31.3826 355.485 27.2682 361.751 26.8193 368.511V368.639C26.8193 368.646 26.8189 368.653 26.8184 368.66C26.2088 377.056 30.1228 384.445 37.3027 388.468L37.3057 388.47L95.9473 422.384L387.048 590.585L473.784 640.721C481.958 645.364 490.486 647.714 499.876 647.714C509.267 647.714 518.455 645.176 526.444 640.386L526.445 640.385L703.033 535.503H703.034C709.675 531.529 713.634 524.559 713.636 516.836C713.484 509.189 709.65 502.457 703.334 498.621L702.715 498.259L702.712 498.257L327.411 281.379L269.748 248.015C261.164 243.035 251.192 240.405 241.068 240.405Z" fill="white" stroke="#082422" stroke-width="0.588169" stroke-linejoin="round"/>
<path d="M124.176 319.606C119.628 322.203 119.628 326.472 124.176 329.069C128.815 331.756 136.15 331.756 140.699 329.159L195.921 297.338C200.56 294.65 200.658 290.382 195.921 287.687C191.463 285.09 184.136 285.09 179.399 287.777L124.176 319.599V319.606Z" fill="#082422"/>
<path d="M127.127 454.06L175.158 481.365C178.766 483.412 181.688 487.997 181.688 491.603C181.688 495.209 178.766 496.466 175.158 494.419L127.127 467.114C123.52 465.066 120.598 460.482 120.598 456.876C120.598 453.27 123.52 452.013 127.127 454.06Z" fill="#007473" stroke="#082422" stroke-width="0.588169" stroke-miterlimit="10" stroke-linejoin="round"/>
<path d="M889.736 95.2731L890.419 100.309C878.97 116.957 863.339 131.862 845.295 145.764C820.646 164.754 791.492 181.861 762.338 198.972C733.184 216.084 704.026 233.196 679.377 252.186C661.333 266.088 645.702 280.988 634.253 297.636L633.569 292.601C645.018 275.953 660.646 261.053 678.693 247.15C703.344 228.164 732.501 211.048 761.655 193.937C790.813 176.825 819.962 159.718 844.612 140.728C862.656 126.83 878.286 111.921 889.736 95.2731Z" fill="#38A543" stroke="#082422" stroke-width="0.588169" stroke-miterlimit="10" stroke-linejoin="round"/>
<path d="M633.581 292.596L634.265 297.632C582.239 275.965 530.218 254.297 478.191 232.625L477.508 227.59C529.534 249.257 581.555 270.925 633.581 292.596Z" fill="#38A543" stroke="#082422" stroke-width="0.588169" stroke-miterlimit="10" stroke-linejoin="round"/>
<path d="M522.63 182.144C547.28 163.154 576.434 146.047 605.588 128.935C634.741 111.824 663.899 94.7119 688.55 75.726C706.593 61.8241 722.224 46.919 733.673 30.2711C785.699 51.9383 837.72 73.606 889.747 95.2776C878.298 111.925 862.667 126.831 844.623 140.732C819.974 159.723 790.819 176.83 761.666 193.941C732.512 211.053 703.354 228.165 678.705 247.155C660.661 261.057 645.03 275.957 633.58 292.605C581.555 270.938 529.533 249.27 477.507 227.599C488.956 210.955 504.587 196.046 522.631 182.148L522.63 182.144Z" fill="#60D06F" stroke="#082422" stroke-width="0.588169" stroke-miterlimit="10" stroke-linejoin="round"/>
<path d="M551.628 185.474C573.093 168.939 597.92 153.803 622.748 138.667C647.571 123.532 672.394 108.402 693.859 91.8662C701.725 85.8049 709.146 79.5523 715.948 73.0465C717.069 72.1682 718.614 71.9939 719.716 72.4512C730.209 76.8214 744.59 75.2612 753.097 68.7075C754.427 67.6851 755.61 66.539 756.617 65.2733C756.785 65.0586 756.988 64.8662 757.215 64.6928C758.337 63.8277 760.062 63.4909 761.467 64.0778C782.049 72.648 802.628 81.2231 823.21 89.7933C824.898 90.4946 825.288 92.1785 824.269 93.4548C816.832 102.81 819.223 113.899 831.422 118.977C832.761 119.532 833.18 120.769 832.166 121.741C825.421 128.176 818.08 134.355 810.29 140.357C788.826 156.893 764.002 172.024 739.179 187.159C714.352 202.294 689.529 217.429 668.064 233.96C660.189 240.027 652.764 246.285 645.958 252.796C644.684 253.797 642.917 253.983 641.668 253.465C631.19 249.102 616.839 250.653 608.348 257.196C607.011 258.228 605.815 259.381 604.809 260.655C604.656 260.845 604.478 261.021 604.276 261.178C603.262 261.957 601.702 262.254 600.43 261.73C579.664 253.081 558.901 244.432 538.134 235.784C536.611 235.15 536.244 233.633 537.158 232.478C544.572 223.113 542.167 212.021 529.967 206.939C528.789 206.447 528.434 205.362 529.322 204.511C536.185 197.925 543.677 191.605 551.633 185.474L551.628 185.474Z" fill="#80E58A" stroke="#082422" stroke-width="0.588169" stroke-miterlimit="10" stroke-linejoin="round"/>
<path d="M625.954 160.951C631.616 156.588 637.998 152.232 645.018 147.938C668.88 133.338 693.444 121.356 712.311 113.142C721.856 109.08 730.226 106.07 737.461 104.593C744.691 103.116 750.841 103.201 755.795 105.271C760.733 107.325 764.024 111.168 765.394 116.229C766.76 121.285 766.147 127.527 763.117 134.305C758.995 143.929 749.563 154.409 735.981 164.867C730.319 169.231 723.937 173.587 716.917 177.881C693.055 192.481 668.496 204.463 649.624 212.677C640.079 216.739 631.709 219.749 624.474 221.226C617.244 222.702 611.098 222.617 606.136 220.553C601.202 218.498 597.906 214.651 596.536 209.591C595.171 204.534 595.788 198.292 598.814 191.519C602.935 181.89 612.368 171.415 625.95 160.952L625.954 160.951Z" fill="#60D06F" stroke="#082422" stroke-width="0.588169" stroke-miterlimit="10" stroke-linejoin="round"/>
<path d="M643.588 57.515L649.382 60.9791C653.217 63.2728 656.31 66.9331 658.268 71.9224C664.835 88.6557 656.148 114.011 638.868 128.556C626.741 138.766 613.601 140.934 604.575 135.536L598.78 132.072C607.806 137.47 620.944 135.301 633.074 125.092C650.354 110.547 659.038 85.1908 652.474 68.4583C650.516 63.469 647.423 59.8087 643.588 57.515Z" fill="#90A700" stroke="#082422" stroke-width="0.588169" stroke-miterlimit="10" stroke-linejoin="round"/>
<path d="M609.3 64.5056C626.58 49.9607 645.91 51.7351 652.478 68.4717C659.045 85.205 650.358 110.561 633.078 125.105C615.796 139.649 596.466 137.875 589.899 121.142C583.332 104.408 592.017 79.052 609.3 64.5056Z" fill="#DCFF00" stroke="#082422" stroke-width="0.588169" stroke-miterlimit="10" stroke-linejoin="round"/>
<path d="M618.425 72.602L620.28 77.33C625.303 74.5218 629.129 75.056 631.341 79.2269L622.247 86.8795C621.131 85.2343 619.676 85.1366 617.826 86.694C616.094 88.1518 615.487 89.6763 615.862 90.631C616.416 92.0408 618.021 91.1954 621.484 89.3477L623.224 88.4415C630.753 84.5391 634.174 84.4464 635.925 88.9074C637.616 93.2156 635.76 98.6318 630.809 104.167L632.873 109.427L624.014 116.883L621.935 111.582C616.161 115.022 612.219 114.184 610.055 109.866L619.7 101.748C620.759 103.646 622.398 103.687 624.564 101.863C626.492 100.241 627.498 98.5324 626.975 97.1965C626.511 96.016 625.249 96.6707 622.977 97.8221L619.285 99.7625C611.8 103.779 608.451 103.253 606.747 98.9045C605.207 94.9784 606.712 90.0073 611.388 84.7054L609.563 80.0538L618.421 72.5978L618.425 72.602Z" fill="white" stroke="#082422" stroke-width="0.588169" stroke-miterlimit="10" stroke-linejoin="round"/>
<path d="M767.082 12.5436L773.407 12.2323C777.594 12.0272 781.934 13.3689 786.106 16.4423C800.097 26.751 806.888 52.6483 801.277 74.2847C797.34 89.4714 788.337 98.5218 778.483 99.0048L772.158 99.3162C782.012 98.8332 791.013 89.7833 794.952 74.5961C800.563 52.9597 793.77 27.063 779.781 16.7537C775.61 13.6802 771.269 12.3386 767.082 12.5436Z" fill="#0096A1" stroke="#082422" stroke-width="0.588169" stroke-miterlimit="10" stroke-linejoin="round"/>
<path d="M744.295 37.2692C749.906 15.6328 765.795 6.45124 779.788 16.7618C793.779 27.0705 800.57 52.9678 794.959 74.6042C789.346 96.2412 773.457 105.423 759.466 95.1141C745.476 84.8055 738.682 58.9088 744.295 37.2692Z" fill="#29F5FF" stroke="#082422" stroke-width="0.588169" stroke-miterlimit="10" stroke-linejoin="round"/>
<path d="M755.66 38.9816L759.613 41.8946C762 36.7875 765.242 35.1221 769.174 37.3744L766.22 48.7594C764.481 48.0054 763.304 48.7261 762.704 51.0429C762.141 53.2117 762.484 54.8154 763.282 55.4034C764.461 56.2716 765.252 54.6829 766.945 51.2347L767.807 49.5213C771.549 42.1212 774.145 40.1574 777.875 42.9056C781.477 45.5597 782.928 51.0913 782.049 58.4298L786.446 61.67L783.57 72.7615L779.138 69.4956C776.507 75.5421 773.013 77.0182 769.039 74.6175L772.172 62.5411C774.001 63.5371 775.29 62.6676 775.993 59.9553C776.62 57.5415 776.487 55.5647 775.371 54.7411C774.384 54.0139 773.757 55.2547 772.614 57.4661L770.793 61.1172C767.146 68.5882 764.277 69.997 760.643 67.3166C757.361 64.8976 755.877 59.9293 756.667 52.9378L752.778 50.0718L755.655 38.9803L755.66 38.9816Z" fill="white" stroke="#082422" stroke-width="0.588169" stroke-miterlimit="10" stroke-linejoin="round"/>
<path d="M273.555 355.181C273.633 355.157 273.719 355.166 273.791 355.208L456.167 460.546C456.255 460.597 456.31 460.69 456.313 460.791C456.316 460.893 456.267 460.989 456.182 461.045L433.967 475.783C433.874 475.844 433.754 475.848 433.657 475.793L251.282 370.455C251.194 370.404 251.138 370.311 251.135 370.209C251.132 370.107 251.181 370.011 251.266 369.955L273.482 355.217L273.555 355.181Z" fill="#0D4440" stroke="#082422" stroke-width="0.588169" stroke-linejoin="round"/>
<mask id="mask0_14997_18377" style="mask-type:alpha" maskUnits="userSpaceOnUse" x="251" y="82" width="693" height="394">
<path d="M943.436 126.811L433.798 475.537L251.423 370.199L288.919 82.4126L943.436 126.811Z" fill="#0D2F20"/>
</mask>
<g mask="url(#mask0_14997_18377)">
<path d="M572.242 233.121L578.971 233.672C583.425 234.037 587.817 235.956 591.777 239.568C605.057 251.683 608.455 278.264 599.367 298.938C592.99 313.45 582.154 321.194 571.67 320.334L564.941 319.783C575.425 320.643 586.258 312.9 592.637 298.388C601.725 277.713 598.325 251.132 585.047 239.017C581.087 235.405 576.696 233.486 572.242 233.121Z" fill="#90A700" stroke="#082422" stroke-width="0.588169" stroke-miterlimit="10" stroke-linejoin="round"/>
<path d="M544.559 254.529C553.646 233.854 571.778 226.916 585.061 239.033C598.342 251.147 601.739 277.728 592.651 298.403C583.561 319.078 565.429 326.016 552.149 313.902C538.868 301.787 535.469 275.206 544.559 254.529Z" fill="#DCFF00" stroke="#082422" stroke-width="0.588169" stroke-miterlimit="10" stroke-linejoin="round"/>
<path d="M556.317 257.762L560.069 261.185C563.337 256.449 567.007 255.24 570.834 258.006L566.051 268.884C564.322 267.901 562.974 268.455 562.001 270.669C561.09 272.741 561.218 274.377 561.976 275.068C563.095 276.088 564.162 274.622 566.455 271.435L567.616 269.855C572.651 263.031 575.68 261.438 579.221 264.668C582.64 267.787 583.366 273.464 581.366 280.616L585.541 284.424L580.882 295.022L576.676 291.184C573.012 296.818 569.104 297.805 565.255 294.887L570.328 283.347C572.116 284.583 573.606 283.896 574.744 281.305C575.759 278.998 575.907 277.022 574.848 276.054C573.911 275.199 573.067 276.344 571.536 278.379L569.079 281.749C564.135 288.656 560.897 289.662 557.448 286.513C554.332 283.67 553.489 278.546 555.344 271.726L551.653 268.358L556.312 257.76L556.317 257.762Z" fill="white" stroke="#082422" stroke-width="0.588169" stroke-miterlimit="10" stroke-linejoin="round"/>
<path d="M426.974 171.032L431.599 173.139C439.579 191.701 443.856 212.872 445.997 235.549C448.921 266.527 447.85 300.313 446.783 334.101C445.716 367.888 444.648 401.68 447.572 432.658C449.713 455.335 453.985 476.504 461.966 495.066L457.341 492.96C449.361 474.398 445.087 453.233 442.947 430.552C440.027 399.575 441.092 365.781 442.159 331.994C443.227 298.203 444.296 264.421 441.372 233.442C439.235 210.767 434.955 189.594 426.974 171.032Z" fill="#38A543" stroke="#082422" stroke-width="0.588169" stroke-miterlimit="10" stroke-linejoin="round"/>
<path d="M457.349 492.957L461.973 495.064C415.905 527.527 369.838 559.985 323.765 592.446L319.141 590.34C365.209 557.877 411.276 525.418 457.349 492.957Z" fill="#38A543" stroke="#082422" stroke-width="0.588169" stroke-miterlimit="10" stroke-linejoin="round"/>
<path d="M304.748 527.933C301.824 496.954 302.895 463.168 303.962 429.381C305.028 395.593 306.097 361.802 303.177 330.825C301.036 308.148 296.759 286.977 288.779 268.415C334.848 235.952 380.915 203.493 426.987 171.032C434.968 189.594 439.244 210.765 441.385 233.442C444.309 264.421 443.238 298.207 442.171 331.994C441.105 365.782 440.036 399.573 442.96 430.552C445.101 453.229 449.373 474.398 457.354 492.96C411.285 525.423 365.218 557.882 319.146 590.343C311.169 571.782 306.889 550.61 304.752 527.935L304.748 527.933Z" fill="#60D06F" stroke="#082422" stroke-width="0.588169" stroke-miterlimit="10" stroke-linejoin="round"/>
<path d="M323.018 505.176C320.472 478.201 320.904 449.127 321.336 420.053C321.766 390.983 322.2 361.915 319.655 334.94C318.721 325.053 317.388 315.441 315.51 306.218C315.365 304.801 316.041 303.401 317.015 302.712C326.307 296.166 332.654 283.167 331.645 272.476C331.489 270.806 331.151 269.193 330.617 267.667C330.525 267.41 330.47 267.136 330.444 266.852C330.311 265.441 330.945 263.802 332.191 262.926C350.415 250.083 368.641 237.245 386.865 224.401C388.359 223.347 389.991 223.915 390.527 225.457C394.477 236.737 405.133 240.626 415.933 233.012C417.117 232.176 418.387 232.481 418.668 233.857C420.517 242.994 421.83 252.5 422.755 262.29C425.301 289.265 424.867 318.333 424.437 347.403C424.005 376.477 423.575 405.547 426.116 432.521C427.051 442.418 428.386 452.035 430.266 461.265C430.434 462.877 429.649 464.471 428.545 465.251C419.267 471.789 412.928 484.758 413.936 495.429C414.097 497.111 414.434 498.737 414.976 500.267C415.055 500.499 415.109 500.743 415.134 500.998C415.253 502.27 414.672 503.749 413.551 504.545C395.162 517.503 376.775 530.457 358.386 543.415C357.038 544.366 355.559 543.868 355.069 542.479C351.099 531.214 340.433 527.335 329.629 534.947C328.584 535.681 327.478 535.403 327.23 534.198C325.318 524.88 323.966 515.172 323.02 505.172L323.018 505.176Z" fill="#80E58A" stroke="#082422" stroke-width="0.588169" stroke-miterlimit="10" stroke-linejoin="round"/>
<path d="M341.905 429.226C341.233 422.11 340.95 414.388 341.06 406.159C341.43 378.187 344.389 351.018 347.499 330.676C349.152 320.436 351.068 311.749 353.675 304.841C356.281 297.937 359.632 292.779 364.024 289.692C368.395 286.609 373.401 285.874 378.413 287.412C383.419 288.953 388.372 292.799 392.491 298.977C398.436 307.595 402.273 321.162 403.88 338.229C404.553 345.345 404.836 353.067 404.725 361.296C404.355 389.267 401.398 416.433 398.286 436.778C396.633 447.019 394.717 455.706 392.11 462.613C389.504 469.517 386.155 474.672 381.763 477.769C377.394 480.848 372.383 481.585 367.371 480.046C362.365 478.505 357.413 474.655 353.297 468.484C347.347 459.863 343.515 446.298 341.904 429.23L341.905 429.226Z" fill="#60D06F" stroke="#082422" stroke-width="0.588169" stroke-miterlimit="10" stroke-linejoin="round"/>
<path d="M601.279 160.805L603.854 165.186C599.723 184.964 591.061 204.749 579.787 224.541C564.384 251.578 544.099 278.617 523.816 305.66C503.533 332.703 483.246 359.749 467.843 386.786C456.569 406.577 447.905 426.359 443.774 446.137L441.199 441.756C445.33 421.978 453.99 402.199 465.268 382.405C480.673 355.372 500.958 328.322 521.241 301.279C541.528 274.234 561.809 247.197 577.212 220.16C588.488 200.372 597.148 180.583 601.279 160.805Z" fill="#38A543" stroke="#082422" stroke-width="0.588169" stroke-miterlimit="10" stroke-linejoin="round"/>
<path d="M441.211 441.756L443.786 446.136C387.429 446.243 331.075 446.348 274.716 446.451L272.141 442.07C328.498 441.963 384.851 441.859 441.211 441.756Z" fill="#38A543" stroke="#082422" stroke-width="0.588169" stroke-miterlimit="10" stroke-linejoin="round"/>
<path d="M296.204 382.723C311.606 355.686 331.892 328.647 352.175 301.604C372.458 274.561 392.744 247.515 408.149 220.482C419.424 200.69 428.085 180.905 432.217 161.127C488.574 161.02 544.927 160.915 601.287 160.812C597.156 180.59 588.494 200.376 577.22 220.167C561.817 247.204 541.532 274.244 521.249 301.287C500.966 328.33 480.679 355.375 465.276 382.412C454.002 402.204 445.338 421.986 441.207 441.764C384.849 441.871 328.496 441.975 272.136 442.078C276.27 422.304 284.929 402.515 296.206 382.727L296.204 382.723Z" fill="#60D06F" stroke="#082422" stroke-width="0.588169" stroke-miterlimit="10" stroke-linejoin="round"/>
<path d="M324.239 374.595C337.652 351.052 354.707 327.502 371.763 303.953C388.815 280.405 405.869 256.861 419.281 233.319C424.196 224.69 428.627 216.056 432.389 207.428C433.083 206.185 434.441 205.427 435.634 205.424C447 205.402 459.664 198.409 464.979 189.078C465.811 187.622 466.46 186.107 466.9 184.551C466.972 184.288 467.084 184.033 467.227 183.785C467.928 182.553 469.389 181.577 470.912 181.575C493.207 181.531 515.5 181.494 537.795 181.45C539.624 181.445 540.633 182.848 540.186 184.418C536.939 195.92 543.428 205.225 556.642 205.197C558.091 205.192 558.956 206.172 558.395 207.46C554.659 216 550.274 224.536 545.407 233.08C531.994 256.623 514.94 280.167 497.888 303.714C480.833 327.264 463.781 350.812 450.366 374.35C445.446 382.988 441.013 391.627 437.25 400.261C436.462 401.677 434.903 402.531 433.552 402.536C422.202 402.558 409.563 409.532 404.258 418.846C403.423 420.314 402.765 421.839 402.329 423.403C402.261 423.638 402.165 423.869 402.039 424.092C401.405 425.202 400.081 426.078 398.705 426.086C376.21 426.129 353.718 426.169 331.222 426.212C329.572 426.216 328.648 424.958 329.045 423.54C332.267 412.038 325.764 402.736 312.548 402.76C311.271 402.761 310.526 401.898 311.015 400.769C314.802 392.044 319.273 383.321 324.243 374.592L324.239 374.595Z" fill="#80E58A" stroke="#082422" stroke-width="0.588169" stroke-miterlimit="10" stroke-linejoin="round"/>
<path d="M383.303 323.274C386.84 317.063 391.044 310.58 395.862 303.908C412.234 281.225 430.263 260.685 444.494 245.822C451.73 238.389 458.289 232.38 464.391 228.223C470.49 224.069 476.196 221.772 481.565 221.768C486.913 221.755 491.433 224.029 494.652 228.168C497.864 232.305 499.709 238.299 499.532 245.721C499.447 256.191 494.794 269.5 486.305 284.393C482.768 290.604 478.563 297.087 473.746 303.759C457.374 326.442 439.348 346.979 425.113 361.845C417.878 369.278 411.319 375.287 405.216 379.444C399.118 383.598 393.415 385.893 388.041 385.905C382.696 385.916 378.171 383.64 374.952 379.501C371.74 375.364 369.898 369.368 370.074 361.952C370.157 351.478 374.812 338.173 383.299 323.276L383.303 323.274Z" fill="#60D06F" stroke="#082422" stroke-width="0.588169" stroke-miterlimit="10" stroke-linejoin="round"/>
<path d="M476.287 327.384L480.873 332.339C483.907 335.62 485.845 340.002 486.321 345.341C487.915 363.246 472.446 385.131 451.772 394.222C437.262 400.605 424.042 398.987 416.899 391.266L412.314 386.31C419.456 394.032 432.674 395.649 447.186 389.267C467.86 380.175 483.327 358.29 481.735 340.386C481.259 335.047 479.321 330.664 476.287 327.384Z" fill="#90A700" stroke="#082422" stroke-width="0.588169" stroke-miterlimit="10" stroke-linejoin="round"/>
<path d="M441.427 324.447C462.102 315.355 480.152 322.5 481.746 340.408C483.341 358.313 467.871 380.198 447.197 389.29C426.521 398.38 408.471 391.236 406.877 373.331C405.282 355.426 420.749 333.54 441.427 324.447Z" fill="#DCFF00" stroke="#082422" stroke-width="0.588169" stroke-miterlimit="10" stroke-linejoin="round"/>
<path d="M447.896 334.779L448.346 339.838C453.956 338.557 457.478 340.147 458.427 344.772L447.547 349.555C446.939 347.662 445.571 347.159 443.357 348.132C441.284 349.043 440.273 350.335 440.364 351.357C440.499 352.866 442.277 352.506 446.121 351.708L448.045 351.329C456.368 349.704 459.677 350.578 460.102 355.351C460.513 359.961 457.209 364.636 450.9 368.554L451.401 374.182L440.803 378.842L440.298 373.171C433.79 374.845 430.243 372.931 429.381 368.179L440.921 363.105C441.402 365.224 442.964 365.725 445.555 364.585C447.862 363.571 449.308 362.214 449.182 360.785C449.069 359.522 447.674 359.795 445.17 360.26L441.081 361.083C432.768 362.83 429.702 361.382 429.29 356.73C428.917 352.529 431.76 348.183 437.738 344.412L437.295 339.434L447.894 334.774L447.896 334.779Z" fill="white" stroke="#082422" stroke-width="0.588169" stroke-miterlimit="10" stroke-linejoin="round"/>
<path d="M476.831 171.584L475.628 178.227C474.831 182.624 472.493 186.808 468.513 190.397C455.163 202.434 428.377 203.227 408.685 192.171C394.862 184.412 388.21 172.876 390.086 162.526L391.29 155.883C389.413 166.232 396.066 177.767 409.888 185.528C429.58 196.584 456.366 195.788 469.716 183.754C473.696 180.165 476.034 175.981 476.831 171.584Z" fill="#0096A1" stroke="#082422" stroke-width="0.588169" stroke-miterlimit="10" stroke-linejoin="round"/>
<path d="M458.218 141.959C477.911 153.015 483.051 171.733 469.699 183.773C456.349 195.809 429.563 196.603 409.871 185.546C390.179 174.488 385.038 155.769 398.388 143.732C411.737 131.696 438.523 130.9 458.218 141.959Z" fill="#29F5FF" stroke="#082422" stroke-width="0.588169" stroke-miterlimit="10" stroke-linejoin="round"/>
<path d="M453.857 153.337L450.085 156.737C454.48 160.45 455.326 164.22 452.201 167.759L441.84 161.94C442.987 160.316 442.566 158.92 440.458 157.736C438.484 156.627 436.844 156.596 436.082 157.283C434.958 158.298 436.313 159.502 439.261 162.094L440.721 163.403C447.023 169.078 448.313 172.248 444.754 175.457C441.317 178.556 435.596 178.726 428.673 176.039L424.477 179.822L414.382 174.155L418.611 170.342C413.361 166.148 412.758 162.163 416.037 158.617L427.029 164.789C425.625 166.448 426.163 167.997 428.632 169.382C430.829 170.617 432.782 170.956 433.848 169.996C434.789 169.147 433.733 168.196 431.856 166.475L428.741 163.702C422.348 158.109 421.662 154.788 425.132 151.663C428.264 148.839 433.446 148.499 440.053 151.009L443.765 147.664L453.859 153.331L453.857 153.337Z" fill="white" stroke="#082422" stroke-width="0.588169" stroke-miterlimit="10" stroke-linejoin="round"/>
<path d="M307.097 331.603L313.422 331.292C317.608 331.087 321.949 332.428 326.121 335.502C340.111 345.811 346.902 371.71 341.291 393.347C337.355 408.534 328.352 417.584 318.499 418.067L312.174 418.379C322.027 417.896 331.028 408.846 334.967 393.658C340.577 372.021 333.784 346.123 319.796 335.813C315.624 332.74 311.284 331.398 307.097 331.603Z" fill="#0096A1" stroke="#082422" stroke-width="0.588169" stroke-miterlimit="10" stroke-linejoin="round"/>
<path d="M284.334 356.333C289.944 334.696 305.833 325.514 319.826 335.825C333.816 346.135 340.607 372.033 334.997 393.67C329.384 415.308 313.495 424.489 299.505 414.18C285.515 403.871 278.721 377.973 284.334 356.333Z" fill="#29F5FF" stroke="#082422" stroke-width="0.588169" stroke-miterlimit="10" stroke-linejoin="round"/>
<path d="M295.683 358.043L299.636 360.956C302.022 355.849 305.265 354.183 309.197 356.436L306.243 367.821C304.504 367.067 303.327 367.788 302.727 370.104C302.164 372.273 302.507 373.877 303.305 374.465C304.485 375.333 305.275 373.745 306.968 370.296L307.83 368.583C311.572 361.183 314.167 359.219 317.897 361.967C321.499 364.621 322.95 370.153 322.071 377.492L326.468 380.732L323.592 391.824L319.161 388.558C316.53 394.605 313.036 396.081 309.062 393.68L312.195 381.603C314.024 382.599 315.313 381.73 316.016 379.017C316.643 376.603 316.51 374.627 315.394 373.803C314.407 373.076 313.78 374.317 312.637 376.528L310.816 380.179C307.169 387.65 304.3 389.059 300.667 386.379C297.384 383.96 295.9 378.991 296.69 371.999L292.802 369.133L295.678 358.041L295.683 358.043Z" fill="white" stroke="#082422" stroke-width="0.588169" stroke-miterlimit="10" stroke-linejoin="round"/>
</g>
</g>
<defs>
<clipPath id="clip0_14997_18377">
<rect width="943.031" height="694.04" fill="white"/>
</clipPath>
</defs>
</svg>
