<svg width="286" height="318" viewBox="0 0 286 318" fill="none" xmlns="http://www.w3.org/2000/svg">
<g clip-path="url(#clip0_14902_18458)">
<path d="M199.171 22.4215L203.833 45.7063C204.049 46.7668 204.532 47.5937 205.222 48.1795L223.637 63.6846C222.948 63.0987 222.453 62.258 222.249 61.2113L217.587 37.9266C217.374 36.8411 216.878 36.0128 216.189 35.4269L197.773 19.9219C198.464 20.4953 198.959 21.336 199.171 22.4215Z" fill="#17AB2B" stroke="#082422" stroke-width="0.6" stroke-miterlimit="10"/>
<path d="M52.2506 234.554L33.8294 219.041C33.4957 218.762 33.1173 218.541 32.6815 218.376L12.4448 210.823C11.9966 210.657 11.6056 210.434 11.2734 210.143L29.6946 225.655C30.0283 225.934 30.4178 226.169 30.866 226.335L51.1027 233.888C51.5384 234.053 51.9169 234.274 52.2506 234.554Z" fill="#17AB2B" stroke="#082422" stroke-width="0.6" stroke-miterlimit="10"/>
<path d="M78.5656 268.91C79.4262 269.011 80.1854 269.327 80.7838 269.827L62.3626 254.315C61.7642 253.815 61.0174 253.5 60.1443 253.398C59.4085 253.311 58.591 253.38 57.728 253.619L31.7221 260.711C30.8341 260.948 30.0167 261.016 29.2808 260.93C28.4077 260.827 27.6485 260.511 27.064 260L45.4852 275.512C46.0836 276.012 46.8289 276.34 47.702 276.442C48.4379 276.528 49.2553 276.46 50.1433 276.223L76.1492 269.132C77.0122 268.892 77.8297 268.824 78.5656 268.91Z" fill="#17AB2B" stroke="#082422" stroke-width="0.6" stroke-miterlimit="10"/>
<path d="M233.756 83.4769L252.167 98.9802C250.673 97.7193 250.234 95.345 251.1 92.619L260.039 64.431C260.945 61.5834 260.426 59.2501 258.954 58.017L240.543 42.5137C242.015 43.7467 242.534 46.08 241.628 48.9276L232.689 77.1156C231.823 79.8417 232.262 82.216 233.756 83.4769Z" fill="#17AB2B" stroke="#082422" stroke-width="0.6" stroke-miterlimit="10"/>
<path d="M273.604 118.304C276.713 114.363 277.091 109.787 274.747 107.807L256.331 92.302C258.675 94.2815 258.297 98.8581 255.188 102.799L235.031 128.336C232.639 131.351 231.782 134.95 232.841 137.321L241.906 157.487C243.507 161.046 240.78 166.887 236.211 169.697L210.236 185.765C207.179 187.666 204.778 191.071 204.243 194.303L199.698 221.672C198.898 226.502 194.16 231.275 189.79 231.671L164.969 233.936C162.042 234.211 158.758 236.528 156.759 239.74L139.825 266.994C137.42 270.865 133.401 273.197 130.359 272.84C129.623 272.754 128.956 272.511 128.373 272.102L111.353 259.967C110.781 259.559 110.115 259.317 109.379 259.231C107.509 259.011 105.229 259.792 103.133 261.478L78.3566 281.297C76.1768 283.049 73.8906 283.778 72.0576 283.563C71.1972 283.462 70.4257 283.144 69.8165 282.631L88.2326 298.136C88.8418 298.65 89.6133 298.967 90.4737 299.068C92.3066 299.283 94.5804 298.553 96.7726 296.802L121.549 276.983C123.645 275.297 125.937 274.518 127.795 274.736C128.531 274.822 129.197 275.065 129.769 275.473L146.789 287.607C147.373 288.017 148.052 288.261 148.775 288.345C151.817 288.702 155.836 286.371 158.241 282.499L175.175 255.245C177.174 252.033 180.445 249.715 183.386 249.441L208.206 247.176C212.576 246.78 217.302 242.006 218.114 237.178L222.659 209.809C223.194 206.576 225.595 203.171 228.652 201.27L254.627 185.202C259.197 182.38 261.925 176.539 260.322 172.992L251.258 152.827C250.187 150.441 251.055 146.856 253.447 143.842L273.604 118.304Z" fill="#17AB2B" stroke="#082422" stroke-width="0.6" stroke-miterlimit="10"/>
<path d="M195.524 18.956C197.358 19.1713 198.75 20.3322 199.166 22.3755L203.833 45.659C204.233 47.6247 205.582 48.831 207.453 49.0507C208.189 49.1371 209.006 49.069 209.869 48.8296L235.859 41.7453C236.747 41.5087 237.564 41.4406 238.3 41.5271C241.343 41.8845 242.874 44.8668 241.616 48.8722L232.678 77.059C231.615 80.3803 232.508 83.1993 234.894 84.0855L255.131 91.6381C258.69 92.9776 258.704 98.3065 255.162 102.801L235.007 128.332C232.614 131.346 231.759 134.944 232.818 137.316L241.888 157.481C243.49 161.039 240.763 166.879 236.195 169.688L210.218 185.749C207.16 187.65 204.759 191.054 204.225 194.286L199.684 221.651C198.885 226.48 194.148 231.251 189.776 231.647L164.952 233.907C162.024 234.181 158.74 236.497 156.741 239.709L139.809 266.956C137.404 270.827 133.385 273.157 130.342 272.8C129.606 272.714 128.939 272.471 128.356 272.062L111.33 259.925C110.759 259.517 110.092 259.275 109.356 259.188C107.485 258.969 105.205 259.749 103.109 261.434L78.3318 281.246C76.1519 282.997 73.8654 283.726 72.0321 283.511C70.1987 283.295 68.806 282.135 68.3918 280.079L63.7231 256.808C63.325 254.83 61.9756 253.623 60.1173 253.405C59.3814 253.319 58.5641 253.387 57.7012 253.626L31.6991 260.709C30.8112 260.946 29.9939 261.014 29.258 260.927C26.2149 260.57 24.6837 257.588 25.9542 253.584L34.8918 225.397C35.9551 222.075 35.0606 219.269 32.6759 218.37L12.4396 210.818C8.86655 209.489 8.86476 204.162 12.4202 199.656L32.5634 174.124C34.9559 171.11 35.8227 167.526 34.7519 165.14L25.6958 144.964C24.0923 141.418 26.8068 135.576 31.3893 132.757L57.3525 116.707C60.4224 114.808 62.8232 111.403 63.345 108.17L67.886 80.8049C68.6837 75.9879 73.4101 71.2033 77.7816 70.8078L102.606 68.5478C105.545 68.2871 108.818 65.9574 110.816 62.7458L127.748 35.4981C130.154 31.6274 134.173 29.297 137.203 29.6529C137.939 29.7394 138.606 29.9818 139.19 30.3912L156.228 42.5292C156.799 42.9372 157.466 43.1796 158.202 43.266C160.06 43.4843 162.34 42.7043 164.447 41.033L189.226 21.2081C191.404 19.4694 193.678 18.7392 195.524 18.956Z" fill="#60D06F" stroke="#082422" stroke-width="0.6" stroke-miterlimit="10"/>
<path d="M195.817 118.325C197.214 118.489 198.293 119.31 198.729 120.75L201.516 129.902C202.392 132.757 200.403 136.954 197.082 139.266L102.373 205.441C100.732 206.587 99.0703 207.061 97.7108 206.901C96.3513 206.741 95.2585 205.931 94.808 204.502L83.9862 170.282C83.0947 167.45 85.0463 163.248 88.358 160.91L98.9845 153.397C100.64 152.228 102.316 151.743 103.701 151.906C105.085 152.068 106.153 152.875 106.605 154.292L112.298 172.332C112.483 172.909 112.912 173.237 113.473 173.303C114.034 173.369 114.703 173.17 115.377 172.706L191.131 119.769C192.772 118.624 194.434 118.15 195.806 118.311L195.817 118.325Z" fill="#17AB2B"/>
<path d="M198.669 122.225L196.01 113.492C195.811 112.825 195.457 112.291 194.996 111.909L176.573 96.4009C177.034 96.7832 177.375 97.3157 177.587 97.9844L180.246 106.717C181.087 109.442 179.184 113.447 176.013 115.663L112.625 159.964L108.063 145.517C107.862 144.862 107.518 144.354 107.057 143.972L88.6339 128.464C89.082 128.845 89.4266 129.353 89.6398 130.009L95.0747 147.235C95.1575 147.498 95.2975 147.703 95.4808 147.864L111.11 161.011L85.6067 178.833C84.0361 179.923 82.4518 180.381 81.1547 180.229C80.4687 180.148 79.8657 179.901 79.3831 179.49L97.8063 194.998C98.2888 195.408 98.8918 195.656 99.5778 195.736C100.875 195.889 102.459 195.431 104.03 194.34L194.45 131.159C197.621 128.944 199.524 124.938 198.683 122.214L198.669 122.225Z" fill="#BFBFBF" stroke="#082422" stroke-width="0.6" stroke-miterlimit="10"/>
<path d="M174.78 95.6549C176.115 95.8117 177.147 96.602 177.566 97.9768L180.225 106.71C181.066 109.434 179.163 113.44 175.992 115.655L85.5702 178.837C83.9995 179.928 82.4152 180.386 81.1181 180.233C79.8209 180.081 78.775 179.302 78.3406 177.95L68.006 145.277C67.1496 142.575 69.0292 138.554 72.189 136.325L82.3318 129.159C83.9179 128.045 85.5162 127.576 86.8383 127.731C88.1604 127.887 89.1813 128.663 89.6158 130.014L95.0508 147.241C95.2259 147.792 95.6439 148.106 96.1802 148.169C96.7166 148.232 97.3587 148.042 97.9928 147.599L170.314 97.0619C171.885 95.9713 173.469 95.5136 174.779 95.6674L174.78 95.6549Z" fill="white" stroke="#082422" stroke-width="0.6" stroke-miterlimit="10"/>
</g>
<defs>
<clipPath id="clip0_14902_18458">
<rect width="286" height="318" fill="white"/>
</clipPath>
</defs>
</svg>
