<svg width="344" height="223" viewBox="0 0 344 223" fill="none" xmlns="http://www.w3.org/2000/svg">
<g clip-path="url(#clip0_14902_12160)">
<path d="M34.4219 138.928H55.6319C60.0297 138.928 64.2303 139.943 68.0956 141.776H46.8856C43.0203 139.943 38.8197 138.928 34.4219 138.928Z" fill="#E6E6E6" stroke="#002522" stroke-width="0.700244" stroke-miterlimit="10"/>
<path d="M108.383 66.1133H129.593C133.478 66.1133 137.274 66.5715 140.96 67.414H119.75C116.064 66.5715 112.268 66.1133 108.383 66.1133Z" fill="#E6E6E6" stroke="#002522" stroke-width="0.700244" stroke-miterlimit="10"/>
<path d="M191.055 0H212.265C249.128 0 279.662 33.0649 285.028 76.2104H263.818C258.452 33.0649 227.918 0 191.055 0Z" fill="#E6E6E6" stroke="#002522" stroke-width="0.700244" stroke-miterlimit="10"/>
<path d="M263.817 76.2109H285.027C317.571 77.1545 343.719 109.608 343.719 149.539C343.719 189.47 316.792 222.911 283.577 222.911H262.367C295.582 222.911 322.509 190.063 322.509 149.539C322.509 109.015 296.361 77.1545 263.817 76.2109Z" fill="#E6E6E6" stroke="#002522" stroke-width="0.700244" stroke-miterlimit="10"/>
<path d="M191.05 0C227.914 0 258.447 33.0649 263.814 76.2104C296.359 77.1539 322.506 109.608 322.506 149.538C322.506 189.469 295.58 222.911 262.364 222.911H34.4207C15.412 222.911 0 204.112 0 180.921C0 157.73 15.412 138.931 34.4207 138.931C38.8185 138.931 43.0191 139.946 46.8844 141.778C46.8721 99.7145 74.415 66.115 108.39 66.115C112.275 66.115 116.071 66.5732 119.756 67.4157C127.904 28.6503 156.733 0 191.05 0Z" fill="white" stroke="#002522" stroke-width="0.700244" stroke-miterlimit="10"/>
<path fill-rule="evenodd" clip-rule="evenodd" d="M271.887 37.1172C278.622 48.442 283.243 61.7605 285.04 76.21H285.036C296.178 76.5331 306.57 80.5504 315.42 87.2959C313.981 92.7245 311.876 98.0734 309.099 103.104C298.812 87.7024 283.473 77.6245 266.146 76.3301C283.431 77.6357 298.739 87.8412 309.025 103.236C308.897 103.468 308.769 103.7 308.638 103.93C295.663 126.656 273.639 133.877 259.466 120.074C245.292 106.272 244.317 76.6507 257.292 53.9248C257.548 53.4771 257.809 53.0363 258.071 52.6006C260.831 59.9887 262.794 67.9128 263.826 76.21H263.83C262.798 67.9117 260.833 59.9866 258.073 52.5977C262.051 45.9969 266.805 40.7883 271.887 37.1172Z" fill="black" fill-opacity="0.2"/>
<path d="M272.501 8.23515L279.628 10.1723C283.429 11.2126 287.038 13.2591 290.241 16.3763C304.415 30.1786 305.391 59.8003 292.416 82.5264C282.37 100.113 266.904 108.416 253.857 104.875L246.73 102.938C259.783 106.495 275.243 98.1761 285.289 80.5893C298.264 57.8632 297.294 28.2574 283.115 14.4392C279.911 11.322 276.302 9.27545 272.501 8.23515Z" fill="#0CBAB5" stroke="#082422" stroke-width="0.700244"/>
<path d="M233.938 30.5838C246.913 7.85766 268.936 0.636742 283.11 14.439C297.283 28.2413 298.259 57.863 285.284 80.5892C272.309 103.315 250.286 110.536 236.112 96.7339C221.938 82.9316 220.963 53.3099 233.938 30.5838Z" fill="#2BF2F1" stroke="#082422" stroke-width="0.700244"/>
<path d="M246.481 42.2252L255.399 33.3306L257.85 37.5626C262.718 34.3531 266.63 34.3643 269.362 38.1944L260.141 47.3895C258.927 45.3969 257.539 45.7726 255.973 47.3317C254.541 48.7657 254.258 50.0081 254.706 50.7833C255.43 52.0351 257.052 50.9474 260.047 48.9782L261.634 47.9406C267.23 44.2102 273.444 43.7088 275.005 46.4062C277.179 50.1616 276.069 55.3779 271.631 61.2869L274.352 65.9796L265.434 74.8742L262.713 70.1815C257.043 74.2872 252.919 74.0118 250.069 69.8804L259.829 60.1468C261.138 62.1024 262.512 62.2069 264.531 60.2159C266.014 58.7255 266.697 57.2909 266.05 56.1915C265.444 55.1494 264.268 55.881 262.436 57.0869L258.951 59.3929C251.517 64.4049 247.902 64.3144 245.66 60.4762C243.645 56.9877 244.67 52.0234 248.91 46.3559L246.519 42.2287L246.481 42.2252Z" fill="white" stroke="#082422" stroke-width="0.700244"/>
</g>
<defs>
<clipPath id="clip0_14902_12160">
<rect width="343.715" height="222.911" fill="white"/>
</clipPath>
</defs>
</svg>
