<svg width="328" height="433" viewBox="0 0 328 433" fill="none" xmlns="http://www.w3.org/2000/svg">
<g clip-path="url(#clip0_14997_18489)">
<path d="M326.073 348.33L326.232 359.953C326.346 367.935 324.331 376.064 320.066 384.005C301.097 419.232 244.087 437.543 192.727 424.95C153.003 415.188 128.277 389.753 127.941 362.413L127.782 350.789C128.118 378.13 152.791 403.558 192.568 413.327C243.899 425.943 300.938 407.608 319.907 372.382C324.201 364.417 326.164 356.282 326.073 348.33Z" fill="#0CBAB5" stroke="#082422" stroke-linejoin="round"/>
<path d="M261.325 285.77C312.655 298.387 338.885 337.156 319.915 372.382C300.946 407.609 243.937 425.92 192.577 413.327C141.247 400.711 115.017 361.942 133.987 326.715C152.956 291.489 209.965 273.177 261.325 285.77Z" fill="#2BF2F1" stroke="#082422" stroke-linejoin="round"/>
<path d="M231.234 319.568C232.48 319.877 233.772 320.245 235.058 320.666L220.473 337.35C219.579 337.003 218.755 336.744 217.977 336.544C213.643 335.466 210.854 336.658 208.776 339.057C206.544 341.625 207.226 343.525 209.446 344.404C209.726 344.518 210.036 344.608 210.293 344.692C213.54 345.48 216.682 343.342 222.177 339.638L225.319 337.5C238.125 328.759 247.17 325.987 256.464 328.271C257.892 328.628 259.359 329.098 260.814 329.672C271.445 333.961 274.715 341.703 269.494 351.83L282.83 357.19L268.707 373.367L255.37 368.007C245.802 375.155 235.469 377.079 224.226 374.321C222.723 373.928 221.197 373.506 219.66 372.948L235.086 355.268C236.033 355.622 236.91 355.887 237.77 356.069C242.338 357.202 245.616 356.39 248.279 353.338C250.6 350.7 250.795 348.397 247.635 347.112C247.354 346.998 247.097 346.914 246.81 346.853C244.19 346.193 241.927 347.688 238.59 349.884L231.639 354.59C219.057 363.25 209.829 365.546 200.557 363.291C198.972 362.915 197.406 362.381 195.822 361.764C185.956 357.78 182.748 350.419 187.701 340.743L175.971 336.029L190.094 319.851L202.105 324.679C210.794 318.843 220.489 316.897 231.263 319.545L231.234 319.568Z" fill="white" stroke="#082422" stroke-linejoin="round"/>
<mask id="mask0_14997_18489" style="mask-type:alpha" maskUnits="userSpaceOnUse" x="127" y="281" width="200" height="149">
<path fill-rule="evenodd" clip-rule="evenodd" d="M185.363 287.893C208.12 280.578 234.807 279.074 260.206 285.053L261.415 285.344L261.416 285.345C287.158 291.672 306.652 304.568 317.329 320.351C323.333 329.226 326.542 339.008 326.507 349.027L326.657 359.95C326.769 367.76 324.862 375.702 320.836 383.465L320.439 384.215C310.885 401.958 291.778 415.398 268.666 422.827C245.548 430.259 218.373 431.693 192.613 425.376C152.791 415.59 127.836 390.044 127.496 362.422L127.336 350.799H127.337V350.798C127.336 350.737 127.348 350.678 127.37 350.624C127.302 342.63 129.298 334.476 133.591 326.505C143.146 308.762 162.252 295.322 185.363 287.893Z" fill="white"/>
</mask>
<g mask="url(#mask0_14997_18489)">
<path opacity="0.25" fill-rule="evenodd" clip-rule="evenodd" d="M97.6004 53.715C128.738 41.3351 167.496 44.63 204.963 59.9045C242.389 75.1624 278.577 102.392 304.683 137.991C304.738 138.021 304.787 138.064 304.826 138.116C330.934 173.758 342.005 211.074 338.743 242.6C336.897 260.437 330.461 276.41 319.578 289.163L303.134 309.234C294.666 319.56 283.348 327.893 269.258 333.49C238.12 345.87 199.363 342.576 161.896 327.302C124.423 312.025 88.1908 284.745 62.077 249.079C21.9997 194.31 17.3511 135.579 45.6756 100.051L46.3504 99.216L62.4754 79.5363C71.0743 68.4604 82.8093 59.5846 97.6004 53.715Z" fill="#002522"/>
</g>
<path d="M294.428 243.42L277.018 264.668C268.599 274.935 257.343 283.225 243.318 288.797C181.315 313.449 88.7779 275.732 36.6478 204.534C-3.68562 149.415 -7.98479 90.4232 20.9076 55.2028L38.3179 33.9545C9.43492 69.2182 13.7341 128.21 54.0581 183.286C106.179 254.44 198.673 292.166 260.728 267.549C274.754 261.977 285.966 253.696 294.428 243.42Z" fill="#B9CC00" stroke="#082422" stroke-linejoin="round"/>
<path d="M278.687 94.0832C330.808 165.238 322.783 242.926 260.727 267.543C198.725 292.195 106.188 254.478 54.0576 183.28C1.92751 112.082 9.96227 34.4369 71.9742 9.82905C133.977 -14.8222 226.514 22.8945 278.644 94.0926L278.687 94.0832Z" fill="#DCFF00" stroke="#082422" stroke-linejoin="round"/>
<path d="M219.724 99.9057L211.676 112.728L212.5 113.595C215.361 116.52 217.811 119.444 219.877 122.269C228.46 133.999 230.431 144.794 225.96 155.027L191.911 130.441C193.862 126.431 193.542 122.639 190.889 118.987C189.598 117.221 187.767 115.482 185.352 113.777C178.292 108.669 174.112 109.525 172.521 112.049C171.008 114.511 171.922 117.267 174.513 120.841C176.775 123.942 180.344 127.623 184.738 132.172L189.644 137.2C196.241 143.953 201.379 149.839 205.233 155.049C214.519 167.718 215.918 176.501 210.858 184.635C203.763 195.979 188.974 196.128 168.042 185.111L166.917 184.536L157.969 198.869L124.994 175.051L133.943 160.718L132.979 159.836C128.963 155.978 125.654 152.24 122.948 148.554C114.116 136.515 112.225 125.248 117.263 114.484L153.534 140.725C151.323 145.427 151.675 149.576 154.639 153.615C156.055 155.535 158.063 157.464 160.708 159.392C163.943 161.737 166.841 163.156 169.263 163.632C172.026 164.217 174.132 163.444 175.349 161.501C176.803 159.188 175.936 156.649 173.818 153.79C172.331 151.749 170.16 149.492 167.813 147.046L157.096 135.958C151.039 129.816 146.266 124.35 142.66 119.45C133.187 106.549 131.787 97.1296 137.223 88.4151C143.729 77.9249 158.171 77.8509 177.757 88.1141L178.882 88.6891L186.673 76.1499L219.69 99.9585L219.724 99.9057Z" fill="white" stroke="#082422" stroke-linejoin="round"/>
</g>
<defs>
<clipPath id="clip0_14997_18489">
<rect width="327.714" height="432.165" fill="white"/>
</clipPath>
</defs>
</svg>
