<svg width="367" height="378" viewBox="0 0 367 378" fill="none" xmlns="http://www.w3.org/2000/svg">
<g clip-path="url(#clip0_14997_18490)">
<path d="M21.8755 127.746C22.0013 127.5 22.303 127.403 22.5487 127.529C22.7944 127.654 22.8923 127.956 22.767 128.202L22.7662 128.203L22.2279 129.272C-0.240662 174.667 18.4779 237.826 75.5634 288.592L77.3089 290.13C114.111 322.266 159.624 343.145 203.699 350.963C248.48 358.907 291.718 353.359 322.827 332.512L324.136 331.622C337.543 322.357 347.463 310.942 354.042 298.132C354.168 297.886 354.468 297.79 354.714 297.916C354.959 298.042 355.057 298.342 354.932 298.588L344.99 318.055C338.344 331.088 328.235 342.575 314.759 351.913L313.443 352.81C282.053 373.845 238.544 379.385 193.609 371.411C148.667 363.436 102.238 341.934 64.958 308.806C7.33167 257.543 -11.6597 193.257 11.9339 147.214L21.8434 127.809C21.8542 127.788 21.8647 127.767 21.8755 127.746Z" fill="#0CBAB5" stroke="#082422" stroke-linejoin="round"/>
<path d="M53.4938 92.9675C84.8847 71.9321 128.393 66.3932 173.328 74.3672C218.271 82.3426 264.7 103.844 301.979 136.972C339.222 170.105 360.292 208.634 364.192 244.175C368.095 279.736 354.801 312.279 323.385 333.331C291.995 354.367 248.487 359.905 203.552 351.932C158.609 343.956 112.18 322.456 74.8999 289.328L74.8998 289.327C37.6572 256.194 16.5875 217.665 12.6868 182.124C8.7841 146.563 22.0782 114.02 53.4938 92.9675Z" fill="#2BF2F1" stroke="#082422" stroke-linejoin="round"/>
<path d="M153.09 130.869C153.268 130.831 153.455 130.894 153.575 131.036L169.155 149.43C188.775 147.433 206.668 152.783 222.313 166.701C222.374 166.755 222.418 166.823 222.446 166.896C224.191 168.463 225.957 170.158 227.67 171.929C227.787 172.05 227.836 172.222 227.799 172.385C227.763 172.549 227.648 172.684 227.491 172.744L188.567 187.653C188.371 187.728 188.149 187.672 188.011 187.513C186.842 186.165 185.712 185.026 184.608 184.023L184.033 183.52C181.163 181.085 178.443 179.765 175.826 179.269C173.036 178.742 170.319 179.144 167.604 180.198L167.603 180.198C164.68 181.328 163.224 182.763 162.775 184.206C162.36 185.544 162.763 187.049 163.969 188.581L164.222 188.889L164.224 188.891C164.57 189.302 164.973 189.695 165.339 190.071C167.573 192.043 170.394 192.869 174.244 193.024C178.114 193.18 182.948 192.657 189.161 191.993L189.16 191.994L196.267 191.202L196.266 191.203C225.304 187.931 242.97 191.267 256.592 203.386L256.595 203.387C258.413 205.019 260.206 206.821 261.919 208.754L262.648 209.59L262.651 209.594C269.665 217.896 272.893 226.087 272.078 233.801C271.275 241.39 266.572 248.39 257.992 254.49L275.13 274.723C275.235 274.847 275.273 275.013 275.233 275.17C275.193 275.327 275.079 275.454 274.928 275.512L237.218 289.984C237.019 290.061 236.794 290.004 236.656 289.841L219.347 269.406C197.115 272.803 178.171 266.853 161.84 252.339L161.834 252.334C159.675 250.355 157.492 248.297 155.408 246.001C155.297 245.878 155.253 245.709 155.291 245.548C155.329 245.388 155.444 245.257 155.598 245.198L196.795 229.373L196.87 229.351C197.044 229.313 197.227 229.371 197.348 229.507C198.444 230.737 199.507 231.806 200.592 232.752L201.059 233.149L201.071 233.16C204.336 236.076 207.458 237.883 210.609 238.638C213.754 239.391 216.971 239.107 220.448 237.772L220.45 237.772C223.507 236.612 225.479 235.172 226.237 233.535C226.965 231.959 226.639 230.022 224.639 227.639L224.639 227.638C224.287 227.221 223.953 226.877 223.557 226.547C223.553 226.543 223.548 226.539 223.543 226.535C221.758 224.928 219.658 224.227 217.054 224.02C214.429 223.812 211.338 224.108 207.583 224.467L207.583 224.467L191.889 226.176L191.888 226.175C163.271 229.512 145.731 225.21 132.133 213.172L132.133 213.171C129.802 211.13 127.648 208.846 125.547 206.419L125.543 206.415C119.03 198.7 115.997 190.976 116.775 183.648C117.539 176.444 121.974 169.744 130.134 163.899L115.102 146.154C114.997 146.03 114.959 145.863 114.999 145.706C115.04 145.55 115.153 145.422 115.304 145.364L153.015 130.892L153.09 130.869Z" fill="white" stroke="#082422" stroke-linejoin="round"/>
<mask id="mask0_14997_18490" style="mask-type:alpha" maskUnits="userSpaceOnUse" x="2" y="71" width="363" height="304">
<path fill-rule="evenodd" clip-rule="evenodd" d="M53.6167 93.1733C84.9409 72.1825 128.381 66.6417 173.278 74.6089C218.178 82.5768 264.567 104.059 301.813 137.158C339.023 170.261 360.055 208.739 363.948 244.208C366.083 263.669 363.058 282.219 354.72 298.468C354.717 298.475 354.716 298.483 354.712 298.49L344.771 317.957C337.93 331.371 327.406 343.148 313.302 352.623C281.978 373.613 238.538 379.154 193.641 371.187C148.741 363.219 102.353 341.736 65.1069 308.638L65.1049 308.637C7.52013 257.411 -11.388 193.237 12.1362 147.33L22.0776 127.863V127.864L22.0786 127.863C22.1048 127.812 22.1453 127.773 22.1928 127.749C29.0571 114.413 39.5029 102.631 53.6167 93.1733Z" fill="white"/>
</mask>
<g mask="url(#mask0_14997_18490)">
<path opacity="0.25" fill-rule="evenodd" clip-rule="evenodd" d="M202.399 23.6241C225.235 18.2789 245.778 20.6159 260.52 28.754C268.852 33.3536 275.326 39.8052 279.307 47.7569L285.715 59.962L286.019 60.5538C289.116 66.6988 290.73 73.756 290.548 81.5489C290.139 99.3267 280.48 117.562 265.242 132.676C250 147.793 229.151 159.814 206.301 165.157C170.946 173.415 141.06 163.284 129.755 141.716L123.516 129.83C119.863 123.317 117.946 115.722 118.147 107.255V107.254C118.557 89.4766 128.216 71.2423 143.454 56.129C158.674 41.0332 179.486 29.0248 202.298 23.67C202.328 23.6494 202.362 23.6328 202.399 23.6241Z" fill="#002522"/>
</g>
<path d="M241.072 27.8541C241.316 27.7264 241.618 27.8204 241.746 28.0645L248.515 40.9614C251.826 47.2746 253.56 54.567 253.371 62.6427C252.96 80.4868 243.268 98.7673 228.007 113.904C212.74 129.046 191.858 141.085 168.973 146.437C133.574 154.705 103.574 144.575 92.21 122.896L85.4402 109.999C85.3122 109.755 85.4066 109.453 85.6508 109.325C85.8647 109.212 86.123 109.27 86.2701 109.45L86.3266 109.534L86.5893 110.027C97.8723 130.803 127.101 140.722 161.977 132.566C184.666 127.255 205.377 115.315 220.515 100.303C235.658 85.2857 245.184 67.238 245.601 49.7236C245.786 41.8299 244.093 34.7454 240.885 28.5769L240.86 28.5295L240.86 28.5285C240.732 28.2839 240.827 27.9821 241.072 27.8541Z" fill="#B9CC00" stroke="#082422" stroke-linejoin="round"/>
<path d="M164.975 4.51975C187.845 -0.833588 208.44 1.5019 223.235 9.66872C238.047 17.8454 247.019 31.8595 246.593 49.7429L246.568 50.5791C245.878 68.1571 236.253 86.104 221.23 101.004C205.963 116.146 185.082 128.185 162.196 133.537C139.314 138.888 118.719 136.552 103.927 128.389C89.1171 120.216 80.1494 106.209 80.5727 88.3375L80.5987 87.5004C81.288 69.9226 90.9132 51.9762 105.936 37.0762C121.173 21.9636 142.003 9.9414 164.837 4.57399C164.879 4.54953 164.926 4.53122 164.975 4.51975Z" fill="#DCFF00" stroke="#082422" stroke-linejoin="round"/>
<path d="M158.054 36.1487C158.28 35.9926 158.59 36.0481 158.748 36.2733L163.12 42.5391L163.352 42.4532C165.393 41.6577 167.35 41.0623 169.179 40.6356C176.804 38.855 182.689 40.1354 186.918 44.6045C187.022 44.7143 187.071 44.8648 187.051 45.0146C187.03 45.1645 186.943 45.2977 186.813 45.3759L167.745 56.8837C167.537 57.0092 167.268 56.967 167.109 56.784C166.381 55.9487 165.586 55.4035 164.72 55.1227C163.855 54.8421 162.886 54.8139 161.792 55.0653C160.728 55.3136 159.549 55.8212 158.25 56.6245L158.244 56.6274C156.306 57.7944 155.296 58.8817 154.861 59.774C154.438 60.6419 154.555 61.3256 154.893 61.8124C155.25 62.3115 155.729 62.5903 156.39 62.6939C157.077 62.8014 157.959 62.7181 159.078 62.4618C161.02 62.0113 163.519 61.0507 166.665 59.846L170.136 58.4968L171.858 57.8375C175.797 56.3582 179.201 55.2805 182.153 54.5748L182.155 54.5742C186.244 53.6155 189.503 53.4073 192.133 53.9972C194.621 54.5551 196.516 55.8203 198.003 57.7663L198.296 58.1643L198.492 58.4533C200.455 61.4411 200.664 64.7868 199.198 68.3405C197.698 71.9788 194.447 75.8341 189.557 79.8192L189.4 79.9493L194.283 86.9091C194.362 87.0225 194.392 87.1647 194.363 87.3003C194.334 87.4358 194.25 87.5534 194.132 87.6249L175.66 98.7676C175.435 98.9032 175.144 98.8413 174.993 98.6262L170.084 91.6295L169.832 91.7454L169.821 91.7503C167.082 92.9187 164.543 93.7667 162.149 94.3299C154.313 96.1698 148.21 94.7469 143.842 89.8856C143.742 89.7747 143.698 89.6249 143.72 89.4775C143.742 89.3302 143.828 89.1998 143.956 89.1229L164.294 76.8755L164.374 76.8361C164.565 76.7633 164.785 76.8138 164.925 76.9702C165.799 77.9464 166.713 78.5736 167.69 78.8934C168.666 79.2126 169.742 79.2372 170.964 78.9501C172.132 78.6727 173.443 78.118 174.902 77.2468C176.687 76.1742 177.912 75.0996 178.59 74.1018L178.594 74.0966C178.984 73.5398 179.17 73.0231 179.198 72.5615C179.225 72.1062 179.101 71.6704 178.814 71.2593L178.814 71.2583C178.179 70.3464 177.063 70.1733 175.257 70.6065L175.252 70.6077C173.988 70.9003 172.471 71.4746 170.779 72.1163L170.78 72.1174L163.146 75.0424C159.409 76.5172 156.122 77.6238 153.234 78.3794L152.02 78.6822C147.85 79.6634 144.474 79.848 141.72 79.191C138.947 78.5292 136.84 77.0221 135.21 74.701L135.027 74.4334C133.197 71.6584 133.056 68.467 134.467 65.0831C135.914 61.6149 138.992 57.9317 143.56 54.1946L143.716 54.0634L139.472 48.0407C139.392 47.9274 139.363 47.7861 139.391 47.6505C139.42 47.5148 139.504 47.3966 139.623 47.3249L157.948 36.2507C157.978 36.2129 158.012 36.1775 158.054 36.1487Z" fill="white" stroke="#082422" stroke-linejoin="round"/>
</g>
<defs>
<clipPath id="clip0_14997_18490">
<rect width="367" height="377.274" fill="white"/>
</clipPath>
</defs>
</svg>
