<svg width="308" height="329" viewBox="0 0 308 329" fill="none" xmlns="http://www.w3.org/2000/svg">
<g clip-path="url(#clip0_14997_18495)">
<path d="M188.707 303.289C254.268 291.288 295.878 218.53 281.646 140.78C267.414 63.0287 202.729 9.72755 137.169 21.7281C71.6083 33.7287 29.9982 106.487 44.2301 184.237C58.4621 261.988 123.147 315.289 188.707 303.289Z" fill="#DCFF00" stroke="#082422" stroke-miterlimit="10"/>
<path d="M170.34 307.207C235.901 295.206 277.511 222.448 263.279 144.698C249.047 66.9467 184.362 13.6455 118.802 25.6461C53.2411 37.6466 11.631 110.405 25.863 188.155C40.0949 265.906 104.779 319.207 170.34 307.207Z" fill="#DCFF00" stroke="#082422" stroke-miterlimit="10"/>
<path d="M160.761 94.2617V112.396C169.368 114.467 176.26 118.183 181.222 123.554C186.26 129.007 189.276 136.131 190.104 144.873L190.155 145.42H154.778L154.704 145.009C154.046 141.368 152.74 138.685 150.799 136.911C148.864 135.143 146.24 134.226 142.832 134.226C139.622 134.226 137.238 134.938 135.672 136.042C134.118 137.137 133.352 138.626 133.352 140.268C133.352 141.519 133.67 142.509 134.3 143.353C134.938 144.206 135.923 144.945 137.318 145.635C139.776 146.85 143.372 147.854 148.239 149.113L150.404 149.67L150.41 149.671L156.368 151.271H156.369C169.267 154.763 178.263 158.531 184.033 163.608C189.84 168.718 192.34 175.118 192.34 183.738C192.34 192.078 189.462 199.077 183.999 204.483C178.618 209.808 170.761 213.554 160.761 215.55V235.705H126.244V215.402C116.238 213.327 108.632 209.321 103.345 203.614C97.985 197.829 95.0455 190.337 94.3682 181.45L94.3271 180.912H131.81L131.859 181.356C132.297 185.27 133.637 188.156 135.808 190.068C137.98 191.981 141.05 192.979 145.066 192.979C148.672 192.979 151.585 192.366 153.58 191.178C155.545 190.007 156.632 188.273 156.632 185.919C156.632 184.878 156.384 184.061 155.922 183.378C155.455 182.688 154.744 182.1 153.763 181.56C151.779 180.468 148.834 179.648 144.938 178.551L132.282 175.208V175.209C119.368 171.93 110.589 167.869 105.039 162.489C99.4647 157.086 97.1974 150.401 97.1973 142.013C97.1973 134.407 99.6982 127.881 104.656 122.764C109.538 117.726 116.767 114.088 126.244 112.093V94.2617H160.761Z" fill="white" stroke="#082422"/>
</g>
<defs>
<clipPath id="clip0_14997_18495">
<rect width="307.518" height="328.937" fill="white"/>
</clipPath>
</defs>
</svg>
