<svg width="686" height="659" viewBox="0 0 686 659" fill="none" xmlns="http://www.w3.org/2000/svg">
<g clip-path="url(#clip0_14997_18403)">
<path opacity="0.15" fill-rule="evenodd" clip-rule="evenodd" d="M22.4692 236.033L0.0078125 249.467L162.259 345.989L183.716 333.156L22.4692 236.033Z" fill="black"/>
<path fill-rule="evenodd" clip-rule="evenodd" d="M448.203 630.798C446.239 631.768 443.919 631.689 442.026 630.586L177.821 476.737C173.324 474.119 173.549 467.548 178.215 465.243L408.427 351.496C410.391 350.525 412.711 350.605 414.604 351.707L613.165 467.331L619.091 463.714C621.618 462.317 624.557 461.592 627.798 461.598L632.723 458.589C638.387 455.458 646.238 455.902 654.907 460.662C672.132 470.118 686.057 493.048 685.998 511.879C685.975 521.231 682.498 527.805 676.905 530.902L672.578 533.54C670.936 536.561 668.674 538.869 665.932 540.387L647.151 551.834C647.21 551.794 647.27 551.754 647.328 551.713C638.288 557.206 630.825 561.724 630.825 561.724C627.197 563.941 623.465 565.982 619.74 568.018C618.878 568.49 618.017 568.961 617.157 569.434C594.63 581.892 574.88 612.046 565.133 628.862C562.278 637.49 557.186 643.825 550.493 647.532L536.57 655.216C538.89 653.933 541.016 652.336 542.924 650.438C532.174 661.127 514.486 662.252 494.522 651.292C482.787 644.85 471.868 635.117 462.699 623.635L448.203 630.798ZM646.161 552.437C646.5 552.25 646.83 552.048 647.151 551.834L646.161 552.437Z" fill="black" fill-opacity="0.15"/>
<path d="M383.308 253.167C380.28 253.167 377.906 250.791 377.906 247.758V74.3592C378.274 71.71 379.893 69.3574 382.237 68.0442L502.938 0.426865C503.446 0.143374 503.983 0 504.533 0C505.426 0 506.269 0.384504 506.852 1.0525C507.431 1.72049 507.682 2.59052 507.555 3.5029L507.783 177.351C507.79 181.613 505.442 185.575 501.655 187.697L386.138 252.408C385.242 252.909 384.292 253.163 383.312 253.163L383.308 253.167Z" fill="#FEFCF9" stroke="#082422" stroke-width="0.217603" stroke-linejoin="round"/>
<path d="M392.901 149.204L426.208 130.783C426.43 130.663 426.609 130.383 426.609 130.164V82.3945C426.609 82.1729 426.43 82.0914 426.208 82.212L392.901 100.632C392.679 100.753 392.5 101.033 392.5 101.251V149.021C392.5 149.243 392.679 149.324 392.901 149.204Z" fill="#2BF2F1" stroke="#082422" stroke-width="0.217603" stroke-linecap="round" stroke-linejoin="round"/>
<path d="M448.924 64.7839L485.533 44.6886C485.755 44.5681 485.934 44.2878 485.934 44.0695V41.5605C485.934 41.3389 485.755 41.2574 485.533 41.378L448.924 61.4732C448.703 61.5938 448.523 61.874 448.523 62.0924V64.6014C448.523 64.823 448.703 64.9044 448.924 64.7839Z" fill="#00B1B0" stroke="#082422" stroke-width="0.217603" stroke-linecap="round" stroke-linejoin="round"/>
<path d="M434.947 83.221L485.529 55.8039C485.751 55.6833 485.93 55.4031 485.93 55.1848V52.6757C485.93 52.4541 485.751 52.3727 485.529 52.4932L434.947 79.9103C434.726 80.0309 434.547 80.3111 434.547 80.5295V83.0385C434.547 83.2601 434.726 83.3416 434.947 83.221Z" fill="#00B1B0" stroke="#082422" stroke-width="0.217603" stroke-linecap="round" stroke-linejoin="round"/>
<path d="M434.947 94.3069L485.529 66.8898C485.751 66.7693 485.93 66.489 485.93 66.2707V63.7616C485.93 63.5401 485.751 63.4586 485.529 63.5792L434.947 90.9963C434.726 91.1168 434.547 91.3971 434.547 91.6154V94.1245C434.547 94.346 434.726 94.4275 434.947 94.3069Z" fill="#00B1B0" stroke="#082422" stroke-width="0.217603" stroke-linecap="round" stroke-linejoin="round"/>
<path d="M434.947 105.422L485.529 78.005C485.751 77.8845 485.93 77.6043 485.93 77.3859V74.8769C485.93 74.6553 485.751 74.5738 485.529 74.6944L434.947 102.112C434.726 102.232 434.547 102.512 434.547 102.731V105.24C434.547 105.461 434.726 105.543 434.947 105.422Z" fill="#00B1B0" stroke="#082422" stroke-width="0.217603" stroke-linecap="round" stroke-linejoin="round"/>
<path d="M434.947 116.539L485.529 89.1222C485.751 89.0017 485.93 88.7214 485.93 88.5031V85.9941C485.93 85.7725 485.751 85.691 485.529 85.8116L434.947 113.229C434.726 113.349 434.547 113.629 434.547 113.848V116.357C434.547 116.578 434.726 116.66 434.947 116.539Z" fill="#00B1B0" stroke="#082422" stroke-width="0.217603" stroke-linecap="round" stroke-linejoin="round"/>
<path d="M434.947 127.633L485.529 100.216C485.751 100.095 485.93 99.8152 485.93 99.5969V97.0878C485.93 96.8662 485.751 96.7848 485.529 96.9053L434.947 124.322C434.726 124.443 434.547 124.723 434.547 124.942V127.451C434.547 127.672 434.726 127.754 434.947 127.633Z" fill="#00B1B0" stroke="#082422" stroke-width="0.217603" stroke-linecap="round" stroke-linejoin="round"/>
<path d="M448.924 150.102L485.533 130.007C485.755 129.886 485.934 129.606 485.934 129.388V126.879C485.934 126.657 485.755 126.576 485.533 126.696L448.924 146.792C448.703 146.912 448.523 147.192 448.523 147.411V149.92C448.523 150.141 448.703 150.223 448.924 150.102Z" fill="#00B1B0" stroke="#082422" stroke-width="0.217603" stroke-linecap="round" stroke-linejoin="round"/>
<path d="M434.947 168.539L485.529 141.122C485.751 141.002 485.93 140.721 485.93 140.503V137.994C485.93 137.772 485.751 137.691 485.529 137.812L434.947 165.229C434.726 165.349 434.547 165.63 434.547 165.848V168.357C434.547 168.578 434.726 168.66 434.947 168.539Z" fill="#00B1B0" stroke="#082422" stroke-width="0.217603" stroke-linecap="round" stroke-linejoin="round"/>
<path d="M434.947 179.645L485.529 152.228C485.751 152.107 485.93 151.827 485.93 151.609V149.1C485.93 148.878 485.751 148.796 485.529 148.917L434.947 176.334C434.726 176.455 434.547 176.735 434.547 176.953V179.462C434.547 179.684 434.726 179.765 434.947 179.645Z" fill="#00B1B0" stroke="#082422" stroke-width="0.217603" stroke-linecap="round" stroke-linejoin="round"/>
<path d="M434.947 190.762L485.529 163.345C485.751 163.224 485.93 162.944 485.93 162.726V160.217C485.93 159.995 485.751 159.914 485.529 160.034L434.947 187.451C434.726 187.572 434.547 187.852 434.547 188.07V190.58C434.547 190.801 434.726 190.883 434.947 190.762Z" fill="#00B1B0" stroke="#082422" stroke-width="0.217603" stroke-linecap="round" stroke-linejoin="round"/>
<path d="M524.594 429.493L524.565 443.264C524.536 444.756 523.582 446.249 521.612 447.402L331.817 558.534C327.877 560.815 321.463 560.815 317.493 558.534L54.2327 406.436C52.2334 405.283 51.25 403.761 51.25 402.239L51.2793 388.469C51.2793 389.99 52.292 391.509 54.2913 392.666L317.523 544.763C321.518 547.044 327.907 547.044 331.847 544.763L521.641 433.632C523.611 432.478 524.594 430.986 524.594 429.493Z" fill="#082422" stroke="#082422" stroke-width="0.217603" stroke-linecap="round" stroke-linejoin="round"/>
<path d="M521.594 425.319C525.563 427.613 525.586 431.331 521.64 433.625L331.832 544.772C327.905 547.057 321.494 547.057 317.521 544.763L54.2672 392.665C50.2979 390.371 50.2751 386.653 54.2021 384.372L244.009 273.224C247.956 270.93 254.367 270.93 258.337 273.224L521.594 425.319Z" fill="#35605F" stroke="#082422" stroke-width="0.217603" stroke-linecap="round" stroke-linejoin="round"/>
<path d="M258.689 51.2917C254.7 48.9879 251.447 50.8453 251.434 55.4495L250.852 260.739C250.839 265.324 254.072 270.932 258.061 273.235L523.672 426.695C527.677 429.008 530.934 427.154 530.947 422.566L531.53 217.277C531.543 212.669 528.309 207.065 524.304 204.751L258.689 51.2917Z" fill="#35605F" stroke="#082422" stroke-width="0.217603" stroke-linecap="round" stroke-linejoin="round"/>
<path d="M517.33 220.431C517.337 218.619 516.057 216.4 514.491 215.494L274.079 76.5938C270.298 74.4106 265.574 77.1315 265.561 81.4979L265.063 257.588C265.056 259.4 266.336 261.619 267.902 262.524L508.317 401.425C512.097 403.608 516.822 400.887 516.835 396.521L517.33 220.431Z" fill="#2BF2F1" stroke="#082422" stroke-width="0.217603" stroke-linecap="round" stroke-linejoin="round"/>
<path d="M504.21 275.051C504.21 275.051 498.588 281.621 493.88 297.026C493.032 299.799 486.773 328.209 472.742 318.133C468.176 314.854 467.285 308.75 466.001 303.279C463.741 293.639 460.442 272.377 450.802 263.819C447.001 260.445 441.396 260.125 437.404 263.264C433.719 266.163 432.409 274.605 423.151 283.404C401.274 304.197 399.569 257.143 398.549 252.399C396.052 240.811 390.403 225.551 378.919 237.687C376.151 240.609 374.194 244.188 372.838 247.975C371.014 253.072 366.392 261.353 356.055 258.675C349.048 256.859 343.759 251.082 341.954 244.069C339.153 233.184 332.835 213.777 321.898 205.471V278.623L504.213 383.956V275.048L504.21 275.051Z" fill="#DCFF00" stroke="#082422" stroke-width="0.217603" stroke-linejoin="round"/>
<path d="M253.594 50.7939C254.899 50.0282 256.716 50.139 258.732 51.2762L524.331 204.752C528.333 207.053 531.569 212.651 531.569 217.281L530.973 422.551C530.973 424.825 530.179 426.442 528.873 427.181L540.882 420.221C542.158 419.455 542.982 417.862 542.982 415.561L543.549 210.292C543.578 205.687 540.341 200.063 536.336 197.763L270.708 44.3128C268.722 43.1495 266.905 43.0354 265.57 43.8012L253.594 50.7939Z" fill="#082422" stroke="#082422" stroke-width="0.217603" stroke-linecap="round" stroke-linejoin="round"/>
<path d="M253.929 50.6114C253.958 50.582 254.014 50.582 254.043 50.582C253.874 50.6374 253.734 50.7221 253.594 50.8069C253.704 50.7254 253.815 50.6668 253.929 50.6114Z" fill="white" stroke="#082422" stroke-width="0.217603" stroke-linecap="round" stroke-linejoin="round"/>
<path d="M253.929 50.6114C253.958 50.582 254.014 50.582 254.043 50.582C253.874 50.6374 253.734 50.7221 253.594 50.8069C253.704 50.7254 253.815 50.6668 253.929 50.6114Z" fill="#FEFCF9" stroke="#082422" stroke-width="0.217603" stroke-linecap="round" stroke-linejoin="round"/>
<path d="M503.64 427.894C505.812 429.148 505.822 431.182 503.666 432.436L403.649 490.6C401.493 491.855 397.983 491.855 395.811 490.6L145.679 346.086C143.508 344.831 143.504 342.801 145.66 341.546L245.677 283.382C247.833 282.127 251.337 282.124 253.509 283.379L503.64 427.894Z" fill="#082422" stroke="#082422" stroke-width="0.217603" stroke-linecap="round" stroke-linejoin="round"/>
<path d="M279.259 307.375C280.945 308.35 280.955 309.927 279.278 310.901C277.608 311.872 274.882 311.875 273.196 310.901L265.003 306.167C263.316 305.192 263.313 303.612 264.984 302.641C266.66 301.667 269.379 301.667 271.066 302.641L279.259 307.375Z" fill="#35605F" stroke="#082422" stroke-width="0.217603" stroke-linecap="round" stroke-linejoin="round"/>
<path d="M261.896 297.35C263.576 298.321 263.592 299.902 261.915 300.876C260.245 301.847 257.513 301.847 255.833 300.876L247.633 296.138C245.953 295.167 245.943 293.583 247.614 292.612C249.291 291.638 252.016 291.641 253.697 292.612L261.896 297.35Z" fill="#35605F" stroke="#082422" stroke-width="0.217603" stroke-linecap="round" stroke-linejoin="round"/>
<path d="M255.377 305.276C256.933 306.175 256.946 307.632 255.403 308.531L243.462 315.475C241.915 316.374 239.395 316.374 237.842 315.475L225.836 308.537C224.28 307.638 224.273 306.178 225.817 305.279L237.757 298.335C239.304 297.436 241.818 297.439 243.371 298.338L255.377 305.276Z" fill="#35605F" stroke="#082422" stroke-width="0.217603" stroke-linecap="round" stroke-linejoin="round"/>
<path d="M233.931 317.76C235.488 318.66 235.494 320.119 233.951 321.019L222.017 327.959C220.47 328.859 217.95 328.859 216.397 327.959L204.391 321.022C202.835 320.123 202.828 318.663 204.371 317.764L216.305 310.823C217.852 309.924 220.372 309.924 221.926 310.823L233.931 317.76Z" fill="#35605F" stroke="#082422" stroke-width="0.217603" stroke-linecap="round" stroke-linejoin="round"/>
<path d="M411.942 420.61C413.499 421.509 413.499 422.966 411.955 423.865L400.021 430.806C398.475 431.705 395.964 431.708 394.408 430.809L382.396 423.868C380.839 422.969 380.839 421.512 382.383 420.613L394.316 413.672C395.863 412.773 398.377 412.77 399.93 413.669L411.942 420.61Z" fill="#35605F" stroke="#082422" stroke-width="0.217603" stroke-linecap="round" stroke-linejoin="round"/>
<path d="M390.47 433.076C392.027 433.975 392.033 435.429 390.49 436.328L378.549 443.272C377.003 444.171 374.499 444.171 372.942 443.272L360.93 436.331C359.374 435.432 359.367 433.979 360.911 433.079L372.851 426.135C374.398 425.236 376.902 425.236 378.458 426.135L390.47 433.076Z" fill="#35605F" stroke="#082422" stroke-width="0.217603" stroke-linecap="round" stroke-linejoin="round"/>
<path d="M456.431 446.301C457.988 447.201 457.994 448.661 456.451 449.56L444.517 456.5C442.97 457.4 440.45 457.4 438.897 456.5L426.891 449.563C425.335 448.664 425.328 447.204 426.871 446.305L438.805 439.364C440.352 438.465 442.872 438.465 444.426 439.364L456.431 446.301Z" fill="#35605F" stroke="#082422" stroke-width="0.217603" stroke-linecap="round" stroke-linejoin="round"/>
<path d="M391.289 458.419C392.845 459.318 392.845 460.775 391.302 461.674L379.368 468.615C377.821 469.514 375.311 469.517 373.754 468.618L339.489 448.819C337.933 447.92 337.933 446.463 339.476 445.564L351.41 438.623C352.957 437.724 355.471 437.721 357.024 438.62L391.289 458.419Z" fill="#35605F" stroke="#082422" stroke-width="0.217603" stroke-linecap="round" stroke-linejoin="round"/>
<path d="M434.975 458.789C436.531 459.688 436.544 461.145 435.001 462.044L423.06 468.988C421.513 469.887 419 469.884 417.446 468.985L383.188 449.193C381.631 448.293 381.625 446.84 383.168 445.941L395.109 438.997C396.656 438.097 399.16 438.097 400.716 438.997L434.975 458.789Z" fill="#35605F" stroke="#082422" stroke-width="0.217603" stroke-linecap="round" stroke-linejoin="round"/>
<path d="M413.533 471.26C415.089 472.16 415.096 473.619 413.552 474.519L401.618 481.459C400.072 482.359 397.551 482.359 395.998 481.459L383.993 474.522C382.436 473.623 382.43 472.163 383.973 471.264L395.907 464.323C397.454 463.424 399.974 463.424 401.527 464.323L413.533 471.26Z" fill="#35605F" stroke="#082422" stroke-width="0.217603" stroke-linecap="round" stroke-linejoin="round"/>
<path d="M346.783 432.694C348.339 433.593 348.346 435.053 346.802 435.952L334.868 442.893C333.322 443.792 330.801 443.792 329.248 442.893L317.243 435.956C315.686 435.056 315.68 433.597 317.223 432.697L329.157 425.757C330.704 424.857 333.224 424.857 334.777 425.757L346.783 432.694Z" fill="#35605F" stroke="#082422" stroke-width="0.217603" stroke-linecap="round" stroke-linejoin="round"/>
<path d="M368.225 420.221C369.781 421.12 369.794 422.577 368.251 423.476L356.31 430.42C354.764 431.319 352.25 431.316 350.697 430.417L338.691 423.479C337.135 422.58 337.122 421.124 338.665 420.224L350.606 413.28C352.152 412.381 354.663 412.384 356.219 413.284L368.225 420.221Z" fill="#35605F" stroke="#082422" stroke-width="0.217603" stroke-linecap="round" stroke-linejoin="round"/>
<path d="M345.97 407.371C347.527 408.27 347.533 409.724 345.99 410.623L334.049 417.567C332.503 418.466 329.999 418.466 328.442 417.567L316.43 410.626C314.874 409.727 314.867 408.274 316.411 407.374L328.351 400.43C329.898 399.531 332.402 399.531 333.958 400.43L345.97 407.371Z" fill="#35605F" stroke="#082422" stroke-width="0.217603" stroke-linecap="round" stroke-linejoin="round"/>
<path d="M256.19 330.601C257.746 331.5 257.753 332.96 256.209 333.859L244.275 340.8C242.729 341.699 240.208 341.699 238.655 340.8L226.643 333.859C225.093 332.963 225.087 331.503 226.63 330.604L238.564 323.663C240.111 322.764 242.631 322.764 244.178 323.66L256.19 330.601Z" fill="#35605F" stroke="#082422" stroke-width="0.217603" stroke-linecap="round" stroke-linejoin="round"/>
<path d="M217.099 336.16C218.645 335.26 221.159 335.264 222.706 336.16L234.718 343.1C236.274 344 236.287 345.456 234.744 346.356L222.803 353.299C221.257 354.199 218.743 354.196 217.19 353.296L205.178 346.356C203.628 345.459 203.615 344.003 205.158 343.104L217.099 336.16Z" fill="#35605F" stroke="#082422" stroke-width="0.217603" stroke-linecap="round" stroke-linejoin="round"/>
<path d="M278.434 343.465C279.991 344.364 279.991 345.821 278.448 346.72L266.514 353.661C264.967 354.56 262.456 354.564 260.9 353.664L248.888 346.724C247.331 345.824 247.331 344.368 248.875 343.468L260.809 336.528C262.355 335.628 264.869 335.625 266.422 336.524L278.434 343.465Z" fill="#35605F" stroke="#082422" stroke-width="0.217603" stroke-linecap="round" stroke-linejoin="round"/>
<path d="M213.284 355.562C214.84 356.461 214.847 357.921 213.303 358.82L201.369 365.761C199.822 366.66 197.302 366.66 195.749 365.761L183.737 358.82C182.187 357.924 182.18 356.464 183.724 355.565L195.658 348.624C197.205 347.725 199.725 347.725 201.271 348.621L213.284 355.562Z" fill="#35605F" stroke="#082422" stroke-width="0.217603" stroke-linecap="round" stroke-linejoin="round"/>
<path d="M256.97 355.951C258.527 356.85 258.533 358.304 256.99 359.203L245.049 366.147C243.503 367.046 240.999 367.046 239.442 366.147L227.43 359.206C225.874 358.307 225.867 356.854 227.411 355.954L239.351 349.01C240.898 348.111 243.402 348.111 244.958 349.01L256.97 355.951Z" fill="#35605F" stroke="#082422" stroke-width="0.217603" stroke-linecap="round" stroke-linejoin="round"/>
<path d="M300.689 356.327C302.246 357.226 302.252 358.686 300.709 359.585L288.775 366.526C287.228 367.425 284.708 367.425 283.154 366.526L271.149 359.589C269.592 358.689 269.586 357.229 271.129 356.33L283.063 349.389C284.61 348.49 287.13 348.49 288.683 349.389L300.689 356.327Z" fill="#35605F" stroke="#082422" stroke-width="0.217603" stroke-linecap="round" stroke-linejoin="round"/>
<path d="M235.528 368.414C237.085 369.314 237.085 370.77 235.541 371.67L223.607 378.61C222.061 379.51 219.55 379.513 217.994 378.613L205.981 371.673C204.425 370.773 204.425 369.317 205.968 368.418L217.902 361.477C219.449 360.578 221.963 360.574 223.516 361.474L235.528 368.414Z" fill="#35605F" stroke="#082422" stroke-width="0.217603" stroke-linecap="round" stroke-linejoin="round"/>
<path d="M279.217 368.803C280.774 369.702 280.787 371.159 279.243 372.058L267.303 379.002C265.756 379.901 263.242 379.898 261.689 378.999L249.683 372.061C248.127 371.162 248.114 369.706 249.657 368.806L261.598 361.862C263.144 360.963 265.658 360.966 267.211 361.866L279.217 368.803Z" fill="#35605F" stroke="#082422" stroke-width="0.217603" stroke-linecap="round" stroke-linejoin="round"/>
<path d="M257.783 381.288C259.339 382.187 259.346 383.647 257.802 384.546L245.868 391.487C244.322 392.386 241.801 392.386 240.248 391.487L228.243 384.549C226.686 383.65 226.68 382.19 228.223 381.291L240.157 374.35C241.704 373.451 244.224 373.451 245.777 374.35L257.783 381.288Z" fill="#35605F" stroke="#082422" stroke-width="0.217603" stroke-linecap="round" stroke-linejoin="round"/>
<path d="M301.475 381.655C303.031 382.554 303.044 384.01 301.501 384.91L289.56 391.854C288.014 392.753 285.5 392.75 283.947 391.85L271.941 384.913C270.385 384.014 270.372 382.557 271.915 381.658L283.856 374.714C285.402 373.815 287.916 373.818 289.469 374.717L301.475 381.655Z" fill="#35605F" stroke="#082422" stroke-width="0.217603" stroke-linecap="round" stroke-linejoin="round"/>
<path d="M324.523 419.856C326.079 420.755 326.079 422.212 324.536 423.111L312.602 430.052C311.055 430.951 308.541 430.955 306.988 430.055L250.477 397.405C248.92 396.506 248.914 395.046 250.457 394.146L262.391 387.206C263.938 386.306 266.458 386.306 268.012 387.206L324.523 419.856Z" fill="#35605F" stroke="#082422" stroke-width="0.217603" stroke-linecap="round" stroke-linejoin="round"/>
<path d="M477.877 433.828C479.433 434.728 479.446 436.184 477.903 437.084L465.962 444.028C464.415 444.927 461.895 444.927 460.342 444.028L448.336 437.09C446.78 436.191 446.773 434.731 448.317 433.832L460.257 426.888C461.804 425.988 464.318 425.992 465.871 426.891L477.877 433.828Z" fill="#35605F" stroke="#082422" stroke-width="0.217603" stroke-linecap="round" stroke-linejoin="round"/>
<path d="M434.2 433.451C435.757 434.351 435.757 435.807 434.213 436.707L422.279 443.647C420.732 444.547 418.222 444.55 416.665 443.651L404.653 436.71C403.097 435.811 403.097 434.354 404.64 433.455L416.574 426.514C418.121 425.615 420.632 425.611 422.188 426.511L434.2 433.451Z" fill="#35605F" stroke="#082422" stroke-width="0.217603" stroke-linecap="round" stroke-linejoin="round"/>
<path d="M418.247 387.692C419.927 388.663 419.944 390.243 418.267 391.218C416.596 392.189 413.864 392.189 412.184 391.218L403.985 386.48C402.305 385.509 402.295 383.925 403.966 382.954C405.642 381.98 408.368 381.983 410.048 382.954L418.247 387.692Z" fill="#35605F" stroke="#082422" stroke-width="0.217603" stroke-linecap="round" stroke-linejoin="round"/>
<path d="M435.614 397.731C437.295 398.702 437.311 400.282 435.634 401.257C433.963 402.228 431.232 402.228 429.551 401.257L421.352 396.519C419.672 395.548 419.662 393.964 421.333 392.993C423.01 392.019 425.735 392.022 427.415 392.993L435.614 397.731Z" fill="#35605F" stroke="#082422" stroke-width="0.217603" stroke-linecap="round" stroke-linejoin="round"/>
<path d="M470.36 417.782C472.047 418.756 472.057 420.333 470.38 421.307C468.709 422.278 465.984 422.282 464.297 421.307L456.105 416.573C454.418 415.599 454.415 414.018 456.085 413.047C457.762 412.073 460.481 412.073 462.168 413.047L470.36 417.782Z" fill="#35605F" stroke="#082422" stroke-width="0.217603" stroke-linecap="round" stroke-linejoin="round"/>
<path d="M487.751 427.832C489.438 428.807 489.447 430.384 487.77 431.358C486.1 432.329 483.375 432.333 481.688 431.358L473.495 426.624C471.809 425.649 471.805 424.069 473.476 423.098C475.153 422.124 477.872 422.124 479.558 423.098L487.751 427.832Z" fill="#35605F" stroke="#082422" stroke-width="0.217603" stroke-linecap="round" stroke-linejoin="round"/>
<path d="M452.993 407.754C454.68 408.729 454.69 410.306 453.013 411.28C451.342 412.251 448.617 412.254 446.93 411.28L438.737 406.545C437.051 405.571 437.047 403.991 438.718 403.02C440.395 402.045 443.114 402.045 444.801 403.02L452.993 407.754Z" fill="#35605F" stroke="#082422" stroke-width="0.217603" stroke-linecap="round" stroke-linejoin="round"/>
<path d="M455.638 420.978C457.194 421.878 457.201 423.331 455.657 424.23L443.717 431.174C442.17 432.074 439.659 432.077 438.103 431.178L426.091 424.237C424.534 423.338 424.534 421.881 426.078 420.982L438.018 414.038C439.565 413.138 442.069 413.138 443.626 414.038L455.638 420.978Z" fill="#35605F" stroke="#082422" stroke-width="0.217603" stroke-linecap="round" stroke-linejoin="round"/>
<path d="M433.38 408.103C434.936 409.003 434.943 410.456 433.399 411.355L421.459 418.299C419.912 419.199 417.402 419.202 415.845 418.303L403.833 411.362C402.277 410.463 402.277 409.006 403.82 408.107L415.761 401.163C417.307 400.263 419.811 400.263 421.368 401.163L433.38 408.103Z" fill="#35605F" stroke="#082422" stroke-width="0.217603" stroke-linecap="round" stroke-linejoin="round"/>
<path d="M411.127 395.262C412.683 396.161 412.696 397.618 411.153 398.517L399.212 405.461C397.665 406.36 395.145 406.36 393.592 405.461L381.586 398.524C380.03 397.624 380.023 396.165 381.567 395.265L393.507 388.321C395.054 387.422 397.564 387.425 399.121 388.325L411.127 395.262Z" fill="#35605F" stroke="#082422" stroke-width="0.217603" stroke-linecap="round" stroke-linejoin="round"/>
<path d="M367.434 394.873C368.991 395.773 368.991 397.229 367.448 398.129L355.514 405.069C353.967 405.968 351.453 405.972 349.9 405.072L337.888 398.132C336.331 397.232 336.331 395.776 337.875 394.877L349.809 387.936C351.355 387.037 353.869 387.033 355.422 387.933L367.434 394.873Z" fill="#35605F" stroke="#082422" stroke-width="0.217603" stroke-linecap="round" stroke-linejoin="round"/>
<path d="M388.888 382.422C390.444 383.321 390.451 384.774 388.907 385.674L376.967 392.618C375.42 393.517 372.906 393.52 371.353 392.621L359.341 385.68C357.784 384.781 357.784 383.324 359.328 382.425L371.268 375.481C372.815 374.582 375.319 374.582 376.876 375.481L388.888 382.422Z" fill="#35605F" stroke="#082422" stroke-width="0.217603" stroke-linecap="round" stroke-linejoin="round"/>
<path d="M322.939 369.18C324.496 370.08 324.502 371.539 322.959 372.439L311.025 379.379C309.478 380.279 306.958 380.279 305.404 379.379L293.399 372.442C291.842 371.543 291.836 370.083 293.379 369.183L305.313 362.243C306.86 361.344 309.38 361.344 310.933 362.243L322.939 369.18Z" fill="#35605F" stroke="#082422" stroke-width="0.217603" stroke-linecap="round" stroke-linejoin="round"/>
<path d="M323.736 394.51C325.292 395.409 325.299 396.862 323.755 397.762L311.815 404.706C310.268 405.605 307.764 405.605 306.208 404.706L294.196 397.765C292.639 396.866 292.633 395.412 294.176 394.513L306.117 387.569C307.663 386.67 310.167 386.67 311.724 387.569L323.736 394.51Z" fill="#35605F" stroke="#082422" stroke-width="0.217603" stroke-linecap="round" stroke-linejoin="round"/>
<path d="M345.185 382.031C346.741 382.931 346.741 384.387 345.198 385.287L333.264 392.227C331.717 393.127 329.203 393.13 327.65 392.231L315.638 385.29C314.081 384.391 314.081 382.934 315.625 382.035L327.559 375.094C329.105 374.195 331.619 374.192 333.172 375.091L345.185 382.031Z" fill="#35605F" stroke="#082422" stroke-width="0.217603" stroke-linecap="round" stroke-linejoin="round"/>
<path d="M366.118 357.577C367.805 358.551 367.815 360.128 366.138 361.102C364.467 362.073 361.742 362.077 360.055 361.102L351.862 356.368C350.176 355.393 350.172 353.813 351.843 352.842C353.52 351.868 356.239 351.868 357.926 352.842L366.118 357.577Z" fill="#35605F" stroke="#082422" stroke-width="0.217603" stroke-linecap="round" stroke-linejoin="round"/>
<path d="M366.63 369.558C368.186 370.458 368.193 371.911 366.649 372.81L354.709 379.754C353.162 380.654 350.652 380.657 349.095 379.758L337.083 372.817C335.527 371.918 335.527 370.461 337.07 369.562L349.011 362.618C350.557 361.719 353.061 361.719 354.618 362.618L366.63 369.558Z" fill="#35605F" stroke="#082422" stroke-width="0.217603" stroke-linecap="round" stroke-linejoin="round"/>
<path d="M296.649 317.424C298.336 318.399 298.346 319.976 296.669 320.95C294.998 321.921 292.273 321.924 290.586 320.95L282.394 316.215C280.707 315.241 280.704 313.661 282.374 312.69C284.051 311.715 286.77 311.715 288.457 312.69L296.649 317.424Z" fill="#35605F" stroke="#082422" stroke-width="0.217603" stroke-linecap="round" stroke-linejoin="round"/>
<path d="M277.635 318.139C279.192 319.039 279.205 320.495 277.661 321.395L265.721 328.338C264.174 329.238 261.654 329.238 260.101 328.338L248.088 321.398C246.538 320.502 246.532 319.042 248.075 318.143L260.016 311.199C261.563 310.299 264.076 310.303 265.623 311.199L277.635 318.139Z" fill="#35605F" stroke="#082422" stroke-width="0.217603" stroke-linecap="round" stroke-linejoin="round"/>
<path d="M314.017 327.473C315.703 328.447 315.713 330.025 314.036 330.999C312.366 331.97 309.64 331.973 307.953 330.999L299.761 326.264C298.074 325.29 298.071 323.71 299.741 322.739C301.418 321.764 304.137 321.764 305.824 322.739L314.017 327.473Z" fill="#35605F" stroke="#082422" stroke-width="0.217603" stroke-linecap="round" stroke-linejoin="round"/>
<path d="M331.38 337.503C333.06 338.474 333.076 340.054 331.4 341.028C329.729 341.999 326.997 341.999 325.317 341.028L317.118 336.29C315.438 335.319 315.428 333.736 317.098 332.765C318.775 331.79 321.501 331.794 323.181 332.765L331.38 337.503Z" fill="#35605F" stroke="#082422" stroke-width="0.217603" stroke-linecap="round" stroke-linejoin="round"/>
<path d="M299.895 331.002C301.452 331.901 301.458 333.354 299.915 334.254L287.974 341.198C286.428 342.097 283.917 342.1 282.361 341.201L270.349 334.26C268.792 333.361 268.792 331.904 270.336 331.005L282.276 324.061C283.823 323.162 286.327 323.162 287.883 324.061L299.895 331.002Z" fill="#35605F" stroke="#082422" stroke-width="0.217603" stroke-linecap="round" stroke-linejoin="round"/>
<path d="M348.763 347.542C350.443 348.513 350.459 350.093 348.782 351.067C347.112 352.038 344.38 352.038 342.7 351.067L334.501 346.329C332.82 345.358 332.811 343.775 334.481 342.804C336.158 341.829 338.884 341.833 340.564 342.804L348.763 347.542Z" fill="#35605F" stroke="#082422" stroke-width="0.217603" stroke-linecap="round" stroke-linejoin="round"/>
<path d="M322.142 343.842C323.699 344.741 323.712 346.198 322.168 347.097L310.228 354.041C308.681 354.941 306.161 354.941 304.608 354.041L292.602 347.104C291.045 346.204 291.039 344.745 292.582 343.845L304.523 336.901C306.07 336.002 308.583 336.005 310.137 336.905L322.142 343.842Z" fill="#35605F" stroke="#082422" stroke-width="0.217603" stroke-linecap="round" stroke-linejoin="round"/>
<path d="M344.384 356.696C345.941 357.595 345.954 359.051 344.41 359.951L332.47 366.895C330.923 367.794 328.403 367.794 326.85 366.895L314.844 359.957C313.288 359.058 313.281 357.598 314.825 356.699L326.765 349.755C328.312 348.856 330.826 348.859 332.379 349.758L344.384 356.696Z" fill="#35605F" stroke="#082422" stroke-width="0.217603" stroke-linecap="round" stroke-linejoin="round"/>
<path d="M389.673 407.747C391.23 408.646 391.236 410.106 389.693 411.005L377.759 417.946C376.212 418.845 373.692 418.845 372.139 417.946L360.133 411.008C358.577 410.109 358.57 408.649 360.114 407.75L372.048 400.809C373.594 399.91 376.115 399.91 377.668 400.809L389.673 407.747Z" fill="#35605F" stroke="#082422" stroke-width="0.217603" stroke-linecap="round" stroke-linejoin="round"/>
<path d="M234.723 343.083C236.28 343.982 236.293 345.439 234.749 346.338L222.809 353.282C221.262 354.181 218.748 354.178 217.195 353.279L182.933 333.483C181.377 332.584 181.364 331.127 182.907 330.228L194.848 323.284C196.394 322.385 198.908 322.388 200.461 323.287L234.723 343.083Z" fill="#35605F" stroke="#082422" stroke-width="0.217603" stroke-linecap="round" stroke-linejoin="round"/>
<path d="M191.025 342.71C192.581 343.609 192.588 345.069 191.045 345.968L179.111 352.909C177.564 353.808 175.044 353.808 173.49 352.909L161.485 345.971C159.928 345.072 159.922 343.612 161.465 342.713L173.399 335.772C174.946 334.873 177.466 334.873 179.019 335.772L191.025 342.71Z" fill="#35605F" stroke="#082422" stroke-width="0.217603" stroke-linecap="round" stroke-linejoin="round"/>
<path d="M400.876 377.651C402.563 378.625 402.572 380.202 400.895 381.177C399.225 382.148 396.5 382.151 394.813 381.177L386.62 376.442C384.934 375.468 384.93 373.887 386.601 372.916C388.278 371.942 390.997 371.942 392.683 372.916L400.876 377.651Z" fill="#35605F" stroke="#082422" stroke-width="0.217603" stroke-linecap="round" stroke-linejoin="round"/>
<path d="M383.509 367.604C385.195 368.578 385.205 370.155 383.528 371.13C381.858 372.101 379.132 372.104 377.446 371.13L369.253 366.395C367.566 365.421 367.563 363.84 369.234 362.869C370.911 361.895 373.629 361.895 375.316 362.869L383.509 367.604Z" fill="#35605F" stroke="#082422" stroke-width="0.217603" stroke-linecap="round" stroke-linejoin="round"/>
<path d="M300.8 446.707C302.079 447.447 302.086 448.646 300.816 449.386L239.619 485.223C238.352 485.959 236.285 485.959 235.005 485.22L150.129 436.182C148.849 435.443 148.843 434.244 150.109 433.507L211.306 397.67C212.579 396.93 214.644 396.93 215.927 397.67L300.8 446.707Z" fill="#082422" stroke="#082422" stroke-width="0.217603" stroke-linecap="round" stroke-linejoin="round"/>
<path d="M385.241 143.891L493.892 290.049L493.643 455.875L275.43 329.799L275.679 163.973L385.241 143.891Z" fill="black" fill-opacity="0.15"/>
<path d="M347.702 113.514L456.353 259.672L456.104 425.498L237.891 299.422L238.14 133.596L347.702 113.514Z" fill="#FFB05A" stroke="#082422" stroke-width="0.217603" stroke-linecap="round" stroke-linejoin="round"/>
<path d="M223.767 307.815C223.735 307.815 223.708 307.808 223.68 307.791C223.625 307.759 223.594 307.701 223.594 307.642L224.06 141.688C224.06 141.626 224.095 141.57 224.147 141.539L238.041 133.444C238.068 133.427 238.096 133.42 238.127 133.42C238.158 133.42 238.186 133.427 238.213 133.444C238.269 133.475 238.3 133.531 238.3 133.593L238.047 299.415C238.047 299.477 238.016 299.533 237.961 299.564L223.853 307.787C223.825 307.804 223.798 307.811 223.767 307.811V307.815Z" fill="#FFB05A"/>
<path d="M238.117 133.594L237.864 299.416L223.756 307.639L224.223 141.686L238.117 133.591M238.12 133.248C238.054 133.248 237.992 133.265 237.94 133.296L224.054 141.388C223.946 141.45 223.881 141.565 223.881 141.686L223.414 307.639C223.414 307.764 223.48 307.878 223.587 307.94C223.639 307.971 223.701 307.985 223.76 307.985C223.819 307.985 223.881 307.968 223.933 307.937L238.041 299.714C238.148 299.651 238.214 299.537 238.214 299.416L238.466 133.618C238.466 133.618 238.466 133.601 238.466 133.594C238.466 133.404 238.31 133.248 238.12 133.248Z" fill="#082422"/>
<path d="M427.146 395.138C423.561 395.138 419.703 393.958 415.676 391.63L262.693 303.12C248.647 295.007 237.256 275.247 237.305 259.074L238.128 108.466C238.159 97.2336 243.628 90.2559 252.402 90.2559C255.983 90.2559 259.838 91.4321 263.855 93.7534L416.838 182.264C430.883 190.376 442.274 210.137 442.226 226.31L441.403 376.917C441.372 388.153 435.91 395.135 427.15 395.135L427.146 395.138Z" fill="white" stroke="#082422" stroke-width="0.217603" stroke-linejoin="round"/>
<path d="M377.434 199.231L374.104 226.574L336.859 205.098L334.946 225.695L334.373 225.337C317.655 215.044 307.246 194.589 309.275 173.289C309.761 168.182 311.253 161.484 311.332 161.131L377.434 199.231Z" fill="#00201D"/>
<path d="M356.738 239.423L353.232 267.985L332.689 256.007L329.564 289.344L303.203 274.146L304.323 257.252C305.945 227.979 324.99 221.117 346.399 233.461L356.738 239.423Z" fill="#00201D"/>
<path d="M442.453 267.779L441.979 433.733L223.766 307.653L224.232 141.699L333.121 287.723L442.453 267.779Z" fill="#FFCD9C" stroke="#082422" stroke-width="0.217603" stroke-linecap="round" stroke-linejoin="round"/>
<path d="M333.107 287.686L441.979 433.72L223.766 307.64L333.107 287.686Z" fill="#FFCD9C" stroke="#082422" stroke-width="0.217603" stroke-linecap="round" stroke-linejoin="round"/>
<path fill-rule="evenodd" clip-rule="evenodd" d="M224.073 200.811L224.116 185.307L226.187 186.503C246.571 198.279 262.468 229.512 261.69 256.261C261.237 271.941 255.154 282.6 246.096 286.363L233.187 291.727C230.338 292.985 227.185 293.55 223.812 293.364L224.073 200.819C238.776 215.66 249.023 240.187 248.394 261.79C248.141 270.554 246.129 277.75 242.821 283.05C246.131 277.75 248.145 270.552 248.398 261.784C249.026 240.18 238.778 215.651 224.073 200.811Z" fill="black" fill-opacity="0.15"/>
<path d="M456.314 259.674L442.427 267.772L441.953 433.726L456.065 425.5L456.314 259.674Z" fill="#FFB05A" stroke="#082422" stroke-width="0.217603" stroke-linecap="round" stroke-linejoin="round"/>
<path d="M508.018 208.262L491.32 217.907L491.503 278.515L557.193 208.262H508.018Z" fill="#EFEBE7" stroke="#082422" stroke-width="0.217603" stroke-linecap="round" stroke-linejoin="round"/>
<path d="M612.282 162.891L545.485 264.142L437.789 201.921L612.282 162.891Z" fill="white" stroke="#082422" stroke-width="0.217603" stroke-linecap="round" stroke-linejoin="round"/>
<path d="M612.264 162.9L505.187 240.877L491.491 278.506L478.102 225.249L612.264 162.9Z" fill="#EFEBE7" stroke="#082422" stroke-width="0.217603" stroke-linecap="round" stroke-linejoin="round"/>
<path d="M135.289 67.5898L174.673 109.709L174.784 73.3737L164.774 67.5898H135.289Z" fill="#EFEBE7" stroke="#082422" stroke-width="0.217603" stroke-linecap="round" stroke-linejoin="round"/>
<path d="M206.862 63.8076L142.295 101.111L102.25 40.4082L206.862 63.8076Z" fill="#FEFCF9" stroke="#082422" stroke-width="0.217603" stroke-linecap="round" stroke-linejoin="round"/>
<path d="M182.697 77.8016L174.671 109.728L166.462 87.1698L102.266 40.4199L182.697 77.8016Z" fill="#EFEBE7" stroke="#082422" stroke-width="0.217603" stroke-linecap="round" stroke-linejoin="round"/>
<path d="M19.5234 226.181L41.4372 213.191V248.194L19.5234 261.183V226.181Z" fill="#00B1B0" stroke="#082422" stroke-width="0.217603" stroke-linejoin="round"/>
<path d="M19.5185 226.33L0 214.484V249.487L19.5185 261.335V226.33Z" fill="#2BF2F1" stroke="#082422" stroke-width="0.217603" stroke-linejoin="round"/>
<path d="M19.5185 226.325L41.4322 213.177L21.9138 201.369L0 214.517L19.5185 226.325Z" fill="#2BF2F1" stroke="#082422" stroke-width="0.217603" stroke-linejoin="round"/>
<path d="M53.9844 219.244L75.8981 206.258V268.65L53.9844 281.64V219.244Z" fill="#00B1B0" stroke="#082422" stroke-width="0.217603" stroke-linejoin="round"/>
<path d="M53.9638 219.411L34.4453 207.562V269.958L53.9638 281.806V219.411Z" fill="#2BF2F1" stroke="#082422" stroke-width="0.217603" stroke-linejoin="round"/>
<path d="M53.9638 219.422L75.8776 206.274L56.3591 194.463L34.4453 207.611L53.9638 219.422Z" fill="#2BF2F1" stroke="#082422" stroke-width="0.217603" stroke-linejoin="round"/>
<path d="M88.4375 215.021L110.351 202.031V289.125L88.4375 302.115V215.021Z" fill="#00B1B0" stroke="#082422" stroke-width="0.217603" stroke-linejoin="round"/>
<path d="M88.4326 215.181L68.9141 203.336V290.43L88.4326 302.278V215.181Z" fill="#2BF2F1" stroke="#082422" stroke-width="0.217603" stroke-linejoin="round"/>
<path d="M88.4326 215.18L110.346 202.033L90.8278 190.225L68.9141 203.372L88.4326 215.18Z" fill="#2BF2F1" stroke="#082422" stroke-width="0.217603" stroke-linejoin="round"/>
<path d="M122.891 242.861L144.804 229.871V309.604L122.891 322.593V242.861Z" fill="#00B1B0" stroke="#082422" stroke-width="0.217603" stroke-linejoin="round"/>
<path d="M122.886 243.012L103.367 231.164V310.897L122.886 322.745V243.012Z" fill="#2BF2F1" stroke="#082422" stroke-width="0.217603" stroke-linejoin="round"/>
<path d="M122.886 243.014L144.799 229.863L125.281 218.055L103.367 231.202L122.886 243.014Z" fill="#2BF2F1" stroke="#082422" stroke-width="0.217603" stroke-linejoin="round"/>
<path d="M543.404 451.844L527.992 459.944C542.811 473.976 535.201 550.137 535.201 550.137L555.497 560.561C555.497 560.561 563.208 484.158 543.401 451.844H543.404Z" fill="#2BF2F1" stroke="#082422" stroke-width="0.217603" stroke-linejoin="round"/>
<path d="M567.668 439.109L543.422 451.853C563.226 484.168 555.512 560.57 555.512 560.57L580.276 541.489C580.409 541.384 580.503 541.238 580.533 541.075C591.223 488.655 567.664 439.113 567.664 439.113L567.668 439.109Z" fill="#00B1B0" stroke="#082422" stroke-width="0.217603" stroke-linejoin="round"/>
<path d="M534.945 374.057C541.464 370.453 549.839 370.456 559.816 375.931C579.64 386.814 595.667 413.211 595.608 434.877C595.569 445.64 592.114 453.773 585.664 457.338L601.411 447.739C607.848 444.174 611.85 436.607 611.876 425.845C611.945 404.172 595.918 377.782 576.094 366.898C566.117 361.421 557.081 360.909 550.562 364.513L534.945 374.054V374.057Z" fill="#DCFF00" stroke="#082422" stroke-width="0.217603" stroke-linejoin="round"/>
<path d="M523.023 377.621C504.841 388.948 486.831 399.121 469.019 407.759C454.917 414.566 439.863 419.099 424.315 421.037C402.856 423.719 378.383 425.166 378.383 425.166L465.356 574.096C465.356 574.096 495.772 512.481 532.655 492.083C537.92 489.186 543.244 486.351 548.386 483.21C548.386 483.21 563.28 474.194 577.6 465.471C587.503 420.366 571.42 389.893 523.023 377.624V377.621Z" fill="#DCFF00" stroke="#082422" stroke-width="0.217603" stroke-linejoin="round"/>
<path d="M343.57 433.166C355.918 426.343 373.039 427.297 391.941 437.669C429.498 458.289 459.859 508.298 459.745 549.342C459.667 569.727 452.113 584.061 439.898 590.816L455.922 581.972C468.117 575.218 475.694 560.883 475.749 540.498C475.883 499.441 445.519 449.446 407.965 428.826C389.063 418.454 371.945 417.48 359.594 424.306L343.57 433.163V433.166Z" fill="#2BF2F1" stroke="#082422" stroke-width="0.217603" stroke-linejoin="round"/>
<path d="M512.25 384.212C519.16 380.393 528.043 380.393 538.619 386.2C559.637 397.742 576.632 425.732 576.57 448.701C576.527 460.113 572.864 468.735 566.026 472.518L588.781 458.65C595.606 454.87 599.845 446.844 599.881 435.439C599.953 412.457 582.962 384.476 561.943 372.938C551.36 367.134 541.78 366.587 534.871 370.406L512.253 384.212H512.25Z" fill="#2BF2F1" stroke="#082422" stroke-width="0.217603" stroke-linejoin="round"/>
<path d="M332.266 479.367C332.168 515.253 358.667 558.937 391.532 576.976C424.371 595.002 451.088 580.531 451.199 544.661C451.306 508.766 424.758 465.046 391.919 447.017C359.055 428.978 332.373 443.475 332.266 479.367Z" fill="#B3D000" stroke="#082422" stroke-width="0.217603" stroke-linejoin="round"/>
<path d="M418.211 586.109C409.817 586.109 400.523 583.443 390.885 578.151C357.724 559.946 330.828 515.627 330.922 479.357C330.977 462.024 337.122 448.867 348.226 442.31C360.01 435.354 375.757 436.602 392.565 445.83C425.746 464.048 452.652 508.38 452.538 544.657C452.483 561.966 446.341 575.108 435.238 581.661C430.21 584.629 424.46 586.105 418.211 586.105V586.109ZM333.612 479.36C333.514 514.747 359.788 558.004 392.175 575.786C408.117 584.538 422.926 585.802 433.873 579.341C444.124 573.286 449.796 560.966 449.848 544.647C449.956 509.25 423.682 465.98 391.269 448.189C375.33 439.44 360.527 438.172 349.59 444.627C339.339 450.682 333.664 463.018 333.612 479.363V479.36Z" fill="#082422" stroke="#082422" stroke-width="0.217603" stroke-linejoin="round"/>
<path d="M341.555 484.255C341.467 514.536 363.844 551.403 391.567 566.617C405.52 574.275 418.157 574.998 427.274 569.951L442.253 561.684C433.116 566.718 420.495 566.011 406.545 558.35C378.822 543.133 356.446 506.269 356.533 475.972C356.569 460.924 362.163 450.337 371.173 445.352L356.195 453.618C347.185 458.601 341.61 469.188 341.555 484.255Z" fill="#00B1B0" stroke="#082422" stroke-width="0.217603" stroke-linejoin="round"/>
<path d="M459.746 549.335C459.623 590.37 429.063 606.916 391.506 586.296C353.923 565.667 323.611 515.704 323.735 474.666C323.858 433.616 354.366 417.03 391.952 437.663C429.506 458.283 459.867 508.284 459.746 549.335ZM409.995 470.606C404.394 465.122 398.289 460.456 391.903 456.966C364.177 441.723 341.66 453.946 341.582 484.24C341.462 514.534 363.864 551.408 391.591 566.615C419.275 581.858 441.834 569.636 441.912 539.341C441.951 531.426 440.424 523.036 437.686 514.691C432.355 498.545 422.368 482.594 409.998 470.606H409.995Z" fill="#2BF2F1" stroke="#082422" stroke-width="0.217603" stroke-linejoin="round"/>
<path d="M437.679 514.694L402.59 529.074L379.641 492.198L409.988 470.604C422.365 482.595 432.349 498.545 437.676 514.691L437.679 514.694Z" fill="#00B1B0" stroke="#082422" stroke-width="0.217603" stroke-linejoin="round"/>
<path d="M375.797 501.436C375.768 511.1 382.902 522.867 391.756 527.728C400.599 532.587 407.799 528.686 407.825 519.025C407.854 509.357 400.704 497.581 391.86 492.726C383.013 487.864 375.83 491.771 375.797 501.439V501.436Z" fill="#00B1B0" stroke="#082422" stroke-width="0.217603" stroke-linejoin="round"/>
<path d="M61.1591 168.36C54.79 168.36 49.6094 163.176 49.6094 156.802C49.6094 150.428 54.79 145.254 61.1591 145.254C67.5217 145.254 72.6991 150.435 72.6991 156.802C72.6991 163.169 67.5217 168.36 61.1591 168.36Z" fill="#006F6E"/>
<path d="M61.2267 163.576C57.176 163.576 53.3564 162.66 50.4747 160.995C47.5474 159.304 45.9388 157.046 45.9453 154.635L45.9649 147.309C45.9649 147.218 46.0365 147.146 46.1277 147.146C46.2189 147.146 46.2905 147.221 46.2905 147.309C46.284 149.6 47.8339 151.757 50.6571 153.387C53.49 155.022 57.2509 155.925 61.2462 155.925C65.2416 155.925 68.9927 155.026 71.8061 153.39C74.5739 151.78 76.1043 149.652 76.1108 147.397H76.4364L76.4169 154.726C76.4104 157.101 74.8246 159.327 71.9526 160.998C69.0904 162.664 65.2839 163.579 61.2299 163.579L61.2267 163.576Z" fill="#00B1B0"/>
<path d="M46.1167 147.306C46.1101 149.558 47.595 151.81 50.5646 153.527C53.518 155.234 57.3766 156.085 61.2352 156.085C65.0938 156.085 68.9426 155.231 71.8765 153.527C74.794 151.829 76.2561 149.613 76.2593 147.394L76.2398 154.719C76.2333 156.939 74.7745 159.154 71.8569 160.852C68.9231 162.559 65.071 163.41 61.2157 163.41C57.3603 163.41 53.4985 162.556 50.5451 160.852C47.5754 159.138 46.0939 156.883 46.0971 154.631L46.1167 147.306ZM46.1167 146.98C45.9701 146.98 45.8464 147.078 45.8073 147.209C45.8073 147.209 45.8008 147.241 45.8008 147.257C45.8008 147.264 45.8008 147.267 45.8008 147.274L45.7813 154.599C45.7748 157.072 47.4126 159.379 50.392 161.1C53.2966 162.778 57.1454 163.703 61.2254 163.703C65.3054 163.703 69.1445 162.778 72.0295 161.1C74.9568 159.399 76.5686 157.121 76.5752 154.687L76.5947 147.362H76.2691H75.9435C75.9369 149.555 74.4391 151.634 71.7202 153.214C68.9296 154.837 65.2078 155.73 61.2417 155.73C57.2757 155.73 53.5441 154.837 50.7339 153.214C47.9759 151.621 46.4553 149.522 46.4488 147.3C46.4488 147.293 46.4488 147.284 46.4488 147.277C46.4488 147.098 46.3023 146.951 46.1232 146.951L46.1167 146.98Z" fill="#082422"/>
<path d="M71.593 141.373C77.3955 144.726 77.4346 150.151 71.6614 153.508C65.8979 156.861 56.5298 156.861 50.7273 153.508C44.9345 150.161 44.8954 144.726 50.6589 141.373C56.4321 138.017 65.8002 138.026 71.593 141.373Z" fill="#FEFCF9" stroke="#082422" stroke-width="0.217603" stroke-linecap="round" stroke-linejoin="round"/>
<path d="M61.2267 157.324C57.176 157.324 53.3564 156.408 50.4747 154.743C47.5474 153.052 45.9388 150.794 45.9453 148.383L45.9649 141.057C45.9649 140.966 46.0365 140.895 46.1277 140.895C46.2189 140.895 46.2905 140.969 46.2905 141.057C46.284 143.348 47.8339 145.505 50.6571 147.135C53.49 148.77 57.2509 149.673 61.2462 149.673C65.2416 149.673 68.9927 148.774 71.8061 147.138C74.5739 145.528 76.1043 143.4 76.1108 141.145H76.4364L76.4169 148.474C76.4104 150.849 74.8246 153.075 71.9526 154.746C69.0904 156.412 65.2839 157.327 61.2299 157.327L61.2267 157.324Z" fill="#00B1B0"/>
<path d="M46.1167 141.054C46.1101 143.306 47.595 145.558 50.5646 147.275C53.518 148.982 57.3766 149.833 61.2352 149.833C65.0938 149.833 68.9426 148.979 71.8765 147.275C74.794 145.577 76.2561 143.361 76.2593 141.142L76.2398 148.468C76.2333 150.687 74.7745 152.902 71.8569 154.6C68.9231 156.307 65.071 157.158 61.2157 157.158C57.3603 157.158 53.4985 156.304 50.5451 154.6C47.5754 152.886 46.0939 150.631 46.0971 148.38L46.1167 141.054ZM46.1167 140.729C45.9701 140.729 45.8464 140.826 45.8073 140.957C45.8073 140.957 45.8008 140.989 45.8008 141.006C45.8008 141.012 45.8008 141.015 45.8008 141.022L45.7813 148.347C45.7748 150.82 47.4126 153.127 50.392 154.848C53.2966 156.526 57.1454 157.451 61.2254 157.451C65.3054 157.451 69.1445 156.526 72.0295 154.848C74.9568 153.147 76.5686 150.869 76.5752 148.435L76.5947 141.11H76.2691H75.9435C75.9369 143.303 74.4391 145.382 71.7202 146.962C68.9296 148.585 65.2078 149.478 61.2417 149.478C57.2757 149.478 53.5441 148.585 50.7339 146.962C47.9759 145.369 46.4553 143.27 46.4488 141.048C46.4488 141.041 46.4488 141.032 46.4488 141.025C46.4488 140.846 46.3023 140.699 46.1232 140.699L46.1167 140.729Z" fill="#082422"/>
<path d="M71.6086 135.322C77.4112 138.675 77.4502 144.101 71.677 147.457C65.9135 150.81 56.5454 150.81 50.7429 147.457C44.9501 144.11 44.911 138.675 50.6745 135.322C56.4477 131.966 65.8158 131.976 71.6086 135.322Z" fill="#FEFCF9" stroke="#FEFCF9" stroke-width="0.217603" stroke-linecap="round" stroke-linejoin="round"/>
<path d="M61.2098 150.603C57.3024 150.603 53.3949 149.743 50.4122 148.019C47.3937 146.276 45.7331 143.916 45.7266 141.378C45.7233 138.859 47.3612 136.513 50.3406 134.783C56.2701 131.335 65.9476 131.335 71.9097 134.783C74.9314 136.529 76.5986 138.885 76.6019 141.42C76.6019 143.939 74.964 146.282 71.9781 148.016C69.0149 149.743 65.114 150.606 61.2065 150.606L61.2098 150.603ZM61.1154 133.45C57.4391 133.45 53.7726 134.262 50.9821 135.884C48.4097 137.38 46.9965 139.332 46.9997 141.381C46.9997 143.444 48.439 145.412 51.0505 146.921C56.6641 150.166 65.7685 150.166 71.3496 146.921C73.9253 145.422 75.3417 143.47 75.3417 141.424C75.3385 139.361 73.896 137.396 71.2845 135.884C68.4776 134.262 64.7916 133.45 61.1186 133.45H61.1154Z" fill="#082422" stroke="#FEFCF9" stroke-width="0.217603" stroke-linecap="round" stroke-linejoin="round"/>
<path d="M61.2042 151.203C56.626 151.203 52.3115 150.163 49.0488 148.277C45.7796 146.39 43.9659 143.861 43.9398 141.163V133.017C43.9398 130.59 42.9239 128.237 41.1558 126.562C35.2881 121.01 32.0547 113.499 32.0547 105.408C32.0547 89.3433 45.1088 76.2734 61.1554 76.2734C77.2019 76.2734 90.256 89.3433 90.256 105.408C90.256 113.375 86.9347 121.084 81.1452 126.562C79.3738 128.237 78.3579 130.59 78.3579 133.02V141.167C78.3839 143.858 76.5963 146.384 73.3238 148.283C70.0871 150.17 65.7824 151.209 61.2075 151.209L61.2042 151.203Z" fill="#DCFF00"/>
<path d="M61.1541 76.4391C77.1355 76.4391 90.092 89.4308 90.092 105.411C90.092 113.694 86.6078 121.172 81.0332 126.444C79.226 128.155 78.1971 130.53 78.1971 133.02V141.166C78.2231 143.688 76.5722 146.21 73.2444 148.143C69.923 150.078 65.5695 151.046 61.2095 151.046C56.8494 151.046 52.4828 150.078 49.1355 148.143C45.7946 146.214 44.1307 143.692 44.1079 141.166V133.02C44.1079 130.53 43.0789 128.155 41.2717 126.447C35.6971 121.172 32.2228 113.694 32.2228 105.411C32.2228 89.4308 45.1662 76.4391 61.1606 76.4391M61.1541 76.1133C45.0196 76.1133 31.8906 89.2549 31.8906 105.411C31.8906 109.507 32.7177 113.469 34.3523 117.19C35.9316 120.784 38.1816 123.981 41.0405 126.685C42.7794 128.331 43.7758 130.638 43.7758 133.023V141.169C43.8051 143.933 45.6481 146.507 48.9661 148.426C52.2516 150.326 56.5954 151.375 61.2029 151.375C65.8105 151.375 70.1412 150.329 73.4039 148.426C76.7285 146.497 78.5455 143.92 78.5194 141.166V133.023C78.5194 130.638 79.5158 128.328 81.2546 126.685C84.1168 123.978 86.3701 120.784 87.9494 117.19C89.5872 113.469 90.4143 109.507 90.4143 105.414C90.4143 89.2614 77.2886 76.1165 61.1508 76.1165L61.1541 76.1133Z" fill="#082422"/>
<path d="M90.0973 105.393C90.0973 113.679 86.6262 121.155 81.045 126.42C79.2281 128.137 78.2121 130.506 78.2121 132.999V141.149C78.2382 143.664 76.5808 146.193 73.2562 148.122C66.6103 151.99 55.8388 151.99 49.1408 148.122C46.5912 146.649 45.0184 144.831 44.4062 142.931C50.7721 144.723 58.6 144.085 63.8588 141.015C67.1834 139.086 68.8375 136.561 68.8147 134.042V125.892C68.8147 123.413 69.8339 121.031 71.6476 119.326C77.2288 114.048 80.6999 106.573 80.6999 98.2895C80.6999 90.9742 77.9907 84.2845 73.5004 79.1914C83.3146 83.8315 90.0973 93.8352 90.0973 105.396V105.393Z" fill="#B3D000"/>
<path d="M161.164 255.579L162.027 269.03L175.319 263.51L174.456 250.059L161.164 255.579Z" fill="#DCFF00" stroke="#082422" stroke-width="0.217603" stroke-linejoin="round"/>
<path d="M204.977 169.197L172.174 150.245C163.738 145.37 155.854 144.592 149.456 147.25L136.164 152.774C142.562 150.115 150.446 150.893 158.883 155.768L191.686 174.72C212.069 186.496 227.966 217.729 227.188 244.478C226.735 260.158 220.653 270.816 211.594 274.58L224.886 269.057C233.945 265.293 240.027 254.635 240.48 238.955C241.258 212.206 225.361 180.973 204.977 169.197Z" fill="#B3D000" stroke="#082422" stroke-width="0.217603" stroke-linejoin="round"/>
<path d="M191.682 174.726C212.066 186.502 227.962 217.735 227.184 244.484C226.409 271.233 209.262 283.371 188.875 271.592L161.168 255.586L162.031 269.037C160.725 267.783 135.887 243.921 125.278 211.355C122.041 201.99 120.296 192.166 120.566 182.885C121.341 156.136 138.495 143.998 158.882 155.775L191.685 174.726H191.682Z" fill="#DCFF00" stroke="#082422" stroke-width="0.217603" stroke-linejoin="round"/>
<path d="M160.731 204.002C162.799 205.198 164.411 208.365 164.332 211.079C164.254 213.794 162.512 215.026 160.448 213.83C158.383 212.634 156.768 209.467 156.846 206.752C156.925 204.038 158.667 202.806 160.731 204.002Z" fill="#082422"/>
<path d="M174.953 212.22C177.024 213.416 178.639 216.586 178.558 219.298C178.476 222.009 176.738 223.244 174.667 222.045C172.596 220.845 170.987 217.681 171.065 214.967C171.143 212.253 172.885 211.021 174.95 212.217L174.953 212.22Z" fill="#517C3C"/>
<path d="M189.203 220.453C191.271 221.649 192.883 224.816 192.805 227.531C192.727 230.245 190.984 231.477 188.92 230.281C186.849 229.085 185.234 225.915 185.315 223.203C185.397 220.492 187.136 219.257 189.207 220.457L189.203 220.453Z" fill="#8DBD50"/>
</g>
<defs>
<clipPath id="clip0_14997_18403">
<rect width="686" height="659" fill="white"/>
</clipPath>
</defs>
</svg>
