<svg width="502" height="458" viewBox="0 0 502 458" fill="none" xmlns="http://www.w3.org/2000/svg">
<g clip-path="url(#clip0_14902_12136)">
<path d="M145.404 426.36L146.86 430.384L42.8462 256.803L41.3906 252.779L145.404 426.36Z" fill="#35963E" stroke="#082422" stroke-width="0.583536"/>
<path d="M459.052 200.344L460.502 204.353C445.2 204.985 430.946 207.849 417.138 213.087C415.133 213.847 413.145 214.654 411.174 215.507C401.332 219.766 391.818 225.215 382.387 231.984C378.4 234.846 374.421 237.969 370.43 241.341C345.561 262.347 324.251 290.348 303.649 317.414C279.79 348.749 255.469 380.698 225.009 402.597C214.221 410.353 202.671 416.856 190.099 421.625C176.895 426.633 162.587 429.729 146.842 430.37L145.392 426.362C161.137 425.72 175.445 422.625 188.649 417.616C201.854 412.607 212.771 406.345 223.559 398.588C254.019 376.69 278.355 344.735 302.199 313.406C322.801 286.339 344.111 258.338 368.98 237.333C372.961 233.981 376.935 230.843 380.937 227.975C390.363 221.191 399.882 215.757 409.724 211.498C411.71 210.639 413.698 209.833 415.688 209.078C429.496 203.84 443.75 200.976 459.052 200.344Z" fill="#35963E" stroke="#082422" stroke-width="0.583536"/>
<path d="M311.763 35.516C324.968 30.5074 339.291 27.4064 355.021 26.7704L459.049 200.345C443.747 200.977 429.492 203.841 415.685 209.079C413.68 209.839 411.692 210.646 409.721 211.499C399.879 215.758 390.365 221.208 380.934 227.976C376.947 230.839 372.968 233.961 368.976 237.334C344.107 258.339 322.798 286.34 302.195 313.407C278.337 344.742 254.015 376.691 223.556 398.589C212.768 406.346 201.218 412.848 188.646 417.617C175.441 422.626 161.133 425.721 145.389 426.363L41.3756 252.782C56.6777 252.15 70.9171 249.291 84.7247 244.054C86.7295 243.294 88.7176 242.487 90.689 241.634C100.531 237.375 110.045 231.925 119.476 225.157C123.463 222.294 127.442 219.172 131.433 215.799C156.302 194.794 177.612 166.793 198.214 139.726C222.072 108.391 246.409 76.4366 276.869 54.538C287.657 46.7815 299.207 40.2788 311.778 35.5103L311.763 35.516Z" fill="#60D06F" stroke="#082422" stroke-width="0.583536"/>
<path d="M401.171 155.369C401.008 155.817 400.69 156.218 400.267 156.519C399.929 156.77 399.519 156.961 399.065 157.08C396.115 157.883 393.616 159.077 391.444 160.655C388.119 163.073 385.589 166.365 384.09 170.37C381.428 177.464 382.36 185.965 386.586 193.146C387.032 193.906 387.153 194.667 386.971 195.35C386.826 195.896 386.501 196.37 386.068 196.692C379.891 200.087 374.129 203.728 368.398 207.883C356.975 216.161 345.623 226.481 334.034 239.082C318.468 255.998 303.935 275.344 289.881 294.071C266.144 325.693 241.724 358.223 211.375 380.237C205.699 384.354 199.808 388.114 193.668 391.425C192.418 392.092 190.713 391.546 189.928 390.231C185.868 383.46 179.523 378.573 171.522 375.979C163.989 373.541 155.425 373.371 147.391 375.471C145.576 375.949 143.378 375.135 142.534 373.701L100.548 303.169C100.188 302.552 100.102 301.935 100.317 301.345C100.467 300.955 100.736 300.608 101.104 300.346C101.402 300.127 101.768 299.953 102.176 299.851C105.156 299.036 107.676 297.853 109.863 296.269C113.179 293.872 115.678 290.592 117.188 286.617C119.856 279.539 118.93 271.053 114.704 263.872C114.306 263.199 114.22 262.582 114.364 261.984C114.486 261.517 114.759 261.133 115.136 260.85C121.53 257.39 127.517 253.611 133.482 249.297C144.804 241.075 156.073 230.857 167.566 218.414C183.241 201.422 197.851 181.959 211.988 163.131C235.726 131.509 260.146 98.9786 290.51 76.9584C296.171 72.8473 302.053 69.1085 308.177 65.8036C309.237 65.2263 310.706 65.686 311.367 66.8029C315.427 73.5737 321.772 78.4611 329.767 81.0392C337.279 83.4674 345.838 83.6225 353.87 81.47C355.917 80.9214 358.372 81.8313 359.334 83.4478L400.954 153.348C401.352 154.021 401.456 154.735 401.192 155.379L401.171 155.369Z" fill="#80E58A" stroke="#082422" stroke-width="0.700244"/>
<path d="M287.79 134.768C297.125 131.192 306.114 130.027 313.806 131.388C321.298 132.719 326.972 136.318 330.244 141.81C333.473 147.23 334.216 154.119 332.548 162.87C331.054 170.731 327.673 180.008 321.906 192.12C314.561 207.215 298.703 237.304 275.081 269.197C261.869 287.026 248.028 301.271 234.652 310.973C227.604 316.084 220.699 319.931 214.074 322.373C204.74 325.949 195.75 327.114 188.059 325.754C180.566 324.423 174.893 320.824 171.621 315.332C168.392 309.911 167.648 303.022 169.317 294.271C170.816 286.426 174.186 277.117 179.958 265.021C187.304 249.927 203.161 219.838 226.783 187.944C239.981 170.121 253.837 155.87 267.212 146.168C274.26 141.057 281.166 137.211 287.79 134.768Z" fill="#60D06F" stroke="#082422" stroke-width="0.700244"/>
<path fill-rule="evenodd" clip-rule="evenodd" d="M104.391 233.575C108.988 230.917 113.54 227.969 118.072 224.716C122.059 221.854 126.038 218.732 130.029 215.359C148.65 199.631 165.275 179.981 181.102 159.738C186.835 161.897 192.435 164.563 197.773 167.736L197.765 167.717C232.222 188.204 242.717 222.119 221.182 243.458C199.647 264.798 154.261 265.492 119.813 245.024C113.97 241.553 108.816 237.694 104.391 233.575Z" fill="black" fill-opacity="0.2"/>
<path d="M219.301 180.688L216.836 189.151C215.147 194.956 211.929 200.419 207.064 205.236C185.529 226.575 140.143 227.27 105.694 206.802C79.0168 190.944 66.7064 167.05 72.5052 147.146L74.9698 138.683C69.1899 158.58 81.4814 182.481 108.159 198.339C142.615 218.826 188.001 218.131 209.528 196.773C214.394 191.956 217.612 186.493 219.301 180.688Z" fill="#0CBAB5" stroke="#082422" stroke-width="0.700244"/>
<path d="M186.106 121.033C220.562 141.52 231.058 175.434 209.522 196.774C187.987 218.113 142.602 218.808 108.153 198.34C73.7043 177.872 63.2013 143.939 84.7363 122.599C106.271 101.259 151.657 100.565 186.113 121.052L186.106 121.033Z" fill="#2BF2F1" stroke="#082422" stroke-width="0.700244"/>
<path d="M156.837 138.901C157.685 139.399 158.529 139.943 159.358 140.559L145.104 149.444C144.534 148.99 143.975 148.619 143.457 148.297C140.559 146.567 138.273 146.802 136.238 148.075C134.047 149.451 134.135 150.966 135.536 152.1C135.723 152.245 135.903 152.371 136.102 152.49C138.265 153.786 141.028 152.929 145.821 151.456L148.566 150.605C159.784 147.09 166.96 147.089 173.207 150.809C174.168 151.372 175.102 152.034 176.028 152.786C182.798 158.244 183.453 164.577 177.446 170.776L185.932 177.616L172.134 186.216L163.647 179.375C155.136 182.448 147.202 181.567 139.648 177.068C138.627 176.462 137.629 175.804 136.647 175.073L151.744 165.663C152.359 166.122 152.944 166.505 153.515 166.85C156.586 168.687 159.129 168.831 161.745 167.202C163.992 165.804 164.665 164.168 162.653 162.53C162.465 162.385 162.312 162.27 162.113 162.151C160.356 161.112 158.395 161.678 155.476 162.531L149.396 164.396C138.371 167.902 131.157 167.525 124.936 163.817C123.881 163.18 122.861 162.465 121.849 161.659C115.555 156.583 114.863 150.548 120.607 144.626L113.166 138.622L126.965 130.023L134.593 136.172C142.184 133.872 149.64 134.591 156.856 138.893L156.837 138.901Z" fill="white" stroke="#082422" stroke-width="0.700244"/>
</g>
<defs>
<clipPath id="clip0_14902_12136">
<rect width="501.867" height="457.133" fill="white"/>
</clipPath>
</defs>
</svg>
