<svg width="506" height="226" viewBox="0 0 506 226" fill="none" xmlns="http://www.w3.org/2000/svg">
<g clip-path="url(#clip0_14989_18317)">
<path d="M2.3686 210.397L5.69727 215.747C29.8068 222.586 56.5357 224.453 84.7775 223.453C123.358 222.085 164.756 215.355 206.157 208.629C247.557 201.903 288.962 195.174 327.543 193.807C355.785 192.806 382.511 194.668 406.621 201.508L403.292 196.158C379.182 189.319 352.461 187.454 324.215 188.457C285.637 189.829 244.228 196.553 202.828 203.279C161.423 210.008 120.03 216.735 81.4488 218.103C53.21 219.108 26.4781 217.237 2.3686 210.397Z" fill="#60D06F" stroke="#082422" stroke-width="1.27731" stroke-miterlimit="10" stroke-linejoin="round"/>
<path d="M403.262 196.173L406.59 201.523C439.191 139.667 471.786 77.815 504.383 15.9551L501.055 10.6055C468.454 72.4607 435.859 134.313 403.262 196.173Z" fill="#60D06F" stroke="#082422" stroke-width="1.27731" stroke-miterlimit="10" stroke-linejoin="round"/>
<path d="M422.009 2.89369C383.428 4.26151 342.03 10.9919 300.629 17.7177C259.229 24.4434 217.824 31.1721 179.246 32.5446C151.004 33.5448 124.275 31.6783 100.165 24.8386C67.5652 86.6938 34.9697 148.546 2.37239 210.406C26.4819 217.246 53.2109 219.112 81.4526 218.112C120.034 216.744 161.431 210.014 202.832 203.288C244.232 196.562 285.637 189.834 324.218 188.466C352.46 187.466 379.186 189.328 403.296 196.167C435.896 134.312 468.491 72.4596 501.089 10.5997C476.982 3.76467 450.25 1.89352 422.011 2.89836L422.009 2.89369Z" fill="#60D06F" stroke="#082422" stroke-width="1.27731" stroke-miterlimit="10" stroke-linejoin="round"/>
<path d="M396.907 29.0182C363.312 30.2099 327.609 35.3996 291.907 40.5893C256.209 45.7761 220.514 50.9676 186.919 52.1592C174.606 52.5949 162.567 52.4955 150.92 51.6645C149.154 51.7126 147.539 52.7687 146.848 54.0773C140.273 66.5524 125.292 76.4413 111.977 76.9136C109.897 76.9893 107.86 76.8312 105.896 76.419C105.566 76.3469 105.22 76.3232 104.866 76.3374C103.109 76.3995 101.194 77.4424 100.315 79.1147C87.4162 103.584 74.5255 128.055 61.6271 152.524C60.5675 154.53 61.5269 156.446 63.51 156.859C78.0172 159.908 84.4999 172.39 76.8533 186.891C76.0131 188.481 76.5905 189.994 78.3287 190.119C89.865 190.929 101.77 191.021 113.962 190.589C147.557 189.398 183.252 184.206 218.95 179.02C254.652 173.83 290.35 168.643 323.942 167.447C336.267 167.01 348.314 167.111 359.968 167.944C361.978 167.892 363.815 166.672 364.598 165.189C371.164 152.732 386.111 142.858 399.401 142.388C401.496 142.316 403.55 142.47 405.519 142.892C405.817 142.952 406.125 142.979 406.443 142.969C408.028 142.911 409.754 141.96 410.555 140.453C423.568 115.763 436.577 91.0761 449.59 66.386C450.544 64.5756 449.696 62.8365 447.909 62.4569C433.416 59.3791 426.944 46.8838 434.588 32.3774C435.325 30.9756 434.806 29.6594 433.284 29.5483C421.516 28.6894 409.356 28.5819 396.902 29.0211L396.907 29.0182Z" fill="#80E58A" stroke="#082422" stroke-width="1.27731" stroke-miterlimit="10"/>
<path d="M306.474 64.3967C297.611 64.7094 288.065 65.5987 277.959 67.0531C243.602 71.9904 210.646 79.9823 186.114 87.0661C173.778 90.7395 163.396 94.4876 155.312 98.801C147.233 103.111 141.421 108.059 138.322 113.955C135.225 119.824 135.118 126.098 137.81 132.015C140.503 137.924 146.025 143.4 154.281 147.475C165.833 153.405 183.136 155.949 204.39 155.191C213.253 154.878 222.799 153.989 232.905 152.535C267.261 147.597 300.213 139.608 324.75 132.522C337.085 128.848 347.468 125.1 355.552 120.787C363.631 116.476 369.439 111.531 372.55 105.634C375.642 99.7685 375.75 93.4871 373.058 87.5701C370.365 81.6608 364.839 76.1882 356.59 72.1149C345.036 66.1797 327.735 63.6401 306.478 64.3938L306.474 64.3967Z" fill="#60D06F" stroke="#082422" stroke-width="1.27731" stroke-miterlimit="10"/>
</g>
<defs>
<clipPath id="clip0_14989_18317">
<rect width="505.342" height="225.245" fill="white"/>
</clipPath>
</defs>
</svg>
