<svg width="245" height="282" viewBox="0 0 245 282" fill="none" xmlns="http://www.w3.org/2000/svg">
<g clip-path="url(#clip0_15015_18741)">
<path d="M195.494 1.56152L227.714 21.2139H227.713C232.091 23.8727 234.943 29.0925 235.339 36.7314L245.454 230.656V230.657C246.056 242.217 240.839 255.16 233.156 265.2C225.487 275.223 215.242 282.5 205.683 282.5H47.1445C44.1492 282.5 41.5704 281.792 39.4053 280.475H39.4043L7.18457 260.821L7.18555 260.82H7.18359L7.70605 259.968L7.72266 259.978C9.69162 261.182 12.0988 261.847 14.9248 261.847H173.463C182.547 261.847 192.532 254.872 200.135 244.939C207.724 235.024 212.822 222.309 212.236 211.056L202.121 17.1309V17.1299C201.737 9.72833 198.985 4.86958 194.973 2.41504L195.494 1.56152Z" fill="#A52C1A" stroke="#082422"/>
<path d="M187.729 -0.5C191.935 -0.5 195.647 0.974125 198.379 3.94043C201.105 6.90028 202.812 11.2991 203.113 17.0791L213.229 211.005C213.83 222.565 208.612 235.509 200.93 245.549C193.26 255.572 183.015 262.848 173.456 262.848H14.9189C10.1186 262.848 6.38599 261.005 3.79785 257.855C1.22174 254.72 -0.189412 250.33 -0.454102 245.271C-0.983324 235.153 3.05821 222.21 11.8486 210.728L160.253 16.8018C169.026 5.33905 179.346 -0.499837 187.729 -0.5Z" fill="#F24E29" stroke="#082422"/>
<path d="M106.591 160.683L125.912 172.471L126.472 172.812L125.993 173.262L86.9258 209.963C85.5514 211.262 84.0619 211.959 82.7412 211.959C82.1509 211.959 81.599 211.805 81.1133 211.518L81.1074 211.515L61.7861 199.727L61.7871 199.726C61.786 199.725 61.7843 199.725 61.7832 199.725L62.3076 198.873L62.3105 198.875L62.4277 198.941C62.7085 199.088 63.0401 199.171 63.4199 199.171C64.3977 199.171 65.6548 198.625 66.9199 197.447L105.988 160.745L106.266 160.484L106.591 160.683Z" fill="#D6D6D6" stroke="#082422"/>
<path d="M163.255 87.8174L182.576 99.6055H182.575C183.194 99.9746 183.648 100.58 183.919 101.354L186.852 109.702L186.841 109.708C187.328 111.099 187.156 112.841 186.559 114.515C185.954 116.209 184.89 117.899 183.511 119.193L144.68 155.691L157.472 192.088H157.471C157.969 193.473 157.802 195.222 157.204 196.904C156.601 198.599 155.538 200.294 154.149 201.598L145.278 209.946C143.904 211.245 142.414 211.941 141.094 211.941C140.503 211.941 139.951 211.788 139.466 211.5L139.46 211.497L120.14 199.709V199.708C120.139 199.707 120.138 199.708 120.137 199.707L120.66 198.855L120.662 198.856H120.663C120.967 199.045 121.339 199.153 121.773 199.153C122.752 199.153 124.009 198.607 125.274 197.429L134.145 189.082C135.401 187.894 136.374 186.336 136.927 184.781C137.449 183.313 137.576 181.907 137.273 180.841L137.207 180.632L124.309 143.929L124.2 143.621L124.438 143.398L132.756 135.592L118.45 126.861L118.298 126.769L118.239 126.6L105.34 89.8975C105.132 89.304 104.813 88.909 104.438 88.6816L104.419 88.6709L104.935 87.8145C104.936 87.8155 104.938 87.8173 104.939 87.8184L104.94 87.8174L124.256 99.6025L124.48 99.752C124.988 100.126 125.366 100.675 125.604 101.354L136.43 132.144L163.524 106.696V106.695C164.78 105.517 165.755 103.964 166.308 102.409C166.864 100.844 166.971 99.3431 166.587 98.2451V98.2441L163.655 89.8975C163.445 89.2972 163.12 88.8999 162.739 88.6738H162.738L162.734 88.6709L163.25 87.8145C163.252 87.8154 163.253 87.8164 163.255 87.8174Z" fill="#D6D6D6" stroke="#082422"/>
<path d="M161.606 87.3887C162.273 87.3887 162.898 87.5674 163.423 87.9453C163.947 88.3227 164.341 88.8779 164.583 89.582H164.584L167.517 97.9307L167.601 98.1963C167.982 99.5431 167.797 101.182 167.235 102.761C166.633 104.455 165.574 106.146 164.194 107.44L164.195 107.441L125.363 143.938L138.155 180.335H138.154C138.643 181.72 138.472 183.468 137.874 185.151C137.272 186.846 136.213 188.541 134.834 189.845V189.846L125.962 198.193L125.96 198.195C124.59 199.471 123.101 200.188 121.777 200.188C121.111 200.188 120.486 200.01 119.96 199.633C119.434 199.256 119.034 198.702 118.782 197.998L118.781 197.995L106.137 162.016L67.6279 198.193L67.627 198.195C66.2572 199.471 64.7675 200.188 63.4443 200.188C62.7782 200.188 62.1529 200.01 61.6279 199.632C61.1036 199.254 60.7088 198.699 60.4668 197.994V197.995L57.5342 189.646C57.0463 188.253 57.2166 186.5 57.8154 184.816C58.418 183.122 59.4768 181.43 60.8564 180.136L99.6865 143.655L86.8955 107.242V107.241C86.4077 105.856 86.5784 104.108 87.1768 102.426C87.7792 100.732 88.8381 99.0358 90.2168 97.7324L99.0889 89.3838L99.0908 89.3818C100.461 88.1062 101.95 87.3887 103.273 87.3887C103.94 87.3887 104.564 87.5673 105.091 87.9443C105.551 88.2743 105.915 88.7405 106.167 89.3232L106.269 89.5801L106.27 89.582L118.913 125.561L157.423 89.3838L157.424 89.3818C158.794 88.1062 160.283 87.3888 161.606 87.3887Z" fill="white" stroke="#082422"/>
</g>
<defs>
<clipPath id="clip0_15015_18741">
<rect width="245" height="282" fill="white"/>
</clipPath>
</defs>
</svg>
