<svg width="498" height="434" viewBox="0 0 498 434" fill="none" xmlns="http://www.w3.org/2000/svg">
<g clip-path="url(#clip0_14902_17136)">
<path opacity="0.25" d="M497.958 233.78V233.691C497.633 228.767 494.639 224.21 489.975 221.527L468.726 208.912L365.184 147.364C358.939 143.705 351.487 141.689 344.197 141.689C336.907 141.689 329.723 143.585 323.536 147.17L282.208 171.083L13.2195 326.496C8.36145 329.231 5.39935 334.26 5.28906 339.987C5.28906 345.594 8.16713 350.665 12.9884 353.553L139.55 428.718C145.311 432.172 151.929 433.999 158.698 433.999C165.468 433.999 171.618 432.304 177.5 428.96L239.668 393.025L448.301 272.486L490.327 248.18C495.543 245.256 498.389 239.88 497.948 233.785L497.958 233.78Z" fill="black"/>
<path d="M175.502 424.172L479.963 248.312C486.302 244.669 489.611 238.364 489.857 231.964C490.162 225.077 492.216 207.653 485.446 203.611L358.27 141.674C344.242 133.348 326.842 133.254 312.725 141.401L4.57242 306.264C-1.58286 309.818 0.297335 326.601 0.63346 331.651C1.17441 339.846 3.2962 346.503 10.4651 350.755L133.686 423.899C146.548 431.522 162.54 431.648 175.497 424.146V424.178L175.502 424.172Z" fill="#50929D" stroke="black" stroke-width="0.174082" stroke-miterlimit="10"/>
<path d="M175.504 406.996L479.964 231.136C493.105 223.545 493.225 204.62 480.18 196.876L358.303 124.53C344.275 116.204 326.875 116.109 312.758 124.257L10.6871 298.737C-2.70014 306.454 -2.78942 325.71 10.4717 333.611L133.693 406.755C146.555 414.378 162.547 414.504 175.504 407.002V406.996Z" fill="#2BF2F1" stroke="black" stroke-width="0.174082" stroke-miterlimit="10"/>
<path d="M484.882 212.776V212.686C484.567 207.893 481.652 203.463 477.114 200.848L456.438 188.569L355.684 128.675C349.608 125.11 342.355 123.152 335.259 123.152C328.164 123.152 321.174 124.995 315.155 128.486L274.941 151.753L13.2047 302.992C8.47798 305.654 5.59467 310.546 5.48438 316.122C5.48438 321.581 8.28366 326.511 12.9789 329.32L136.132 402.459C141.736 405.819 148.18 407.598 154.766 407.598C161.352 407.598 167.334 405.95 173.063 402.695L233.555 367.732L436.569 250.437L477.466 226.787C482.545 223.942 485.313 218.713 484.882 212.781V212.776Z" fill="#6060BF"/>
<mask id="mask0_14902_17136" style="mask-type:luminance" maskUnits="userSpaceOnUse" x="5" y="123" width="480" height="285">
<path d="M484.882 212.776V212.686C484.567 207.893 481.652 203.463 477.114 200.848L456.438 188.569L355.684 128.675C349.608 125.11 342.355 123.152 335.259 123.152C328.164 123.152 321.174 124.995 315.155 128.486L274.941 151.753L13.2047 302.992C8.47798 305.654 5.59467 310.546 5.48438 316.122C5.48438 321.581 8.28366 326.511 12.9789 329.32L136.132 402.459C141.736 405.819 148.18 407.598 154.766 407.598C161.352 407.598 167.334 405.95 173.063 402.695L233.555 367.732L436.569 250.437L477.466 226.787C482.545 223.942 485.313 218.713 484.882 212.781V212.776Z" fill="white"/>
</mask>
<g mask="url(#mask0_14902_17136)">
<g opacity="0.25">
<path d="M448.815 141.039C452.733 143.301 451.488 147.7 446.037 150.866L337.505 213.91L387.189 242.579C389.6 243.97 390.146 246.248 388.638 248.626C387.152 251.005 383.828 253.173 379.805 254.38L145.421 324.779C140.715 326.191 135.878 326.06 133.068 324.443C129.15 322.18 130.39 317.776 135.841 314.615L244.373 251.571L194.689 222.898C193.676 222.315 192.977 221.569 192.631 220.714C191.286 217.359 195.514 213.054 202.074 211.096L436.457 140.697C441.158 139.285 446 139.416 448.81 141.033L448.815 141.039Z" fill="black"/>
</g>
</g>
<path d="M416.776 178.59C419.949 180.401 419.949 183.378 416.776 185.189C413.541 187.063 408.426 187.063 405.254 185.252L366.741 163.061C363.506 161.187 363.438 158.21 366.741 156.331C369.85 154.52 374.96 154.52 378.264 156.394L416.776 178.585V178.59Z" fill="#282525"/>
<path d="M414.714 272.349L381.217 291.39C378.702 292.818 376.664 296.015 376.664 298.529C376.664 301.044 378.702 301.921 381.217 300.493L414.714 281.452C417.23 280.024 419.268 276.827 419.268 274.312C419.268 271.798 417.23 270.921 414.714 272.349Z" fill="#418187" stroke="black" stroke-width="0.174082" stroke-miterlimit="10"/>
<path d="M126.223 0.287967C126.275 0.287967 126.328 0.298467 126.38 0.303717C126.454 0.314216 126.527 0.324715 126.596 0.335215C126.653 0.345714 126.706 0.356214 126.764 0.366713C126.827 0.382462 126.895 0.392962 126.958 0.408711C127.016 0.42446 127.074 0.43496 127.126 0.450709C127.184 0.466458 127.242 0.482207 127.299 0.503206C127.357 0.524205 127.42 0.539954 127.478 0.560953C127.531 0.576702 127.583 0.597701 127.63 0.6187C127.693 0.639699 127.751 0.665948 127.809 0.692196C127.856 0.713195 127.909 0.734194 127.956 0.760443C128.014 0.786691 128.077 0.81819 128.135 0.844438C128.182 0.865437 128.229 0.891686 128.276 0.917934C128.334 0.949433 128.397 0.980931 128.455 1.01768C128.502 1.04393 128.544 1.07018 128.591 1.09643C128.649 1.13317 128.707 1.16992 128.765 1.20667C128.807 1.23292 128.854 1.26442 128.896 1.29591C128.954 1.33791 129.012 1.37991 129.069 1.42191C129.111 1.45341 129.153 1.4849 129.195 1.5164C129.253 1.5584 129.311 1.60565 129.363 1.6529C129.405 1.68439 129.447 1.72114 129.484 1.75264C129.537 1.79464 129.584 1.84189 129.637 1.88913C129.684 1.93113 129.731 1.97313 129.773 2.01513C129.82 2.05712 129.862 2.10437 129.91 2.15162C129.957 2.20412 130.009 2.25136 130.057 2.30386C130.099 2.34586 130.136 2.39311 130.178 2.43511C130.23 2.4981 130.288 2.55585 130.34 2.61885C130.377 2.66084 130.409 2.70284 130.445 2.74484C130.508 2.81834 130.566 2.89708 130.624 2.97058C130.655 3.01257 130.692 3.05982 130.724 3.10707C130.787 3.19632 130.855 3.28556 130.918 3.38006C130.95 3.42205 130.976 3.46405 131.007 3.5113C131.107 3.66354 131.202 3.81578 131.291 3.97327C131.296 3.98902 131.307 3.99952 131.312 4.01527C131.422 4.20426 131.522 4.3985 131.622 4.59799C131.638 4.62949 131.653 4.66099 131.669 4.69249C131.737 4.83948 131.806 4.98647 131.874 5.13871C131.874 5.13871 131.874 5.14921 131.879 5.15446C131.947 5.31195 132.01 5.46945 132.068 5.63219C132.084 5.67419 132.1 5.71618 132.115 5.75818C132.168 5.90517 132.221 6.05217 132.268 6.20441C132.284 6.25691 132.299 6.3094 132.32 6.3619C132.378 6.55089 132.436 6.74513 132.483 6.93937C132.483 6.93937 132.483 6.94987 132.483 6.95512C132.53 7.14411 132.578 7.33835 132.62 7.53784C132.63 7.59559 132.641 7.64808 132.651 7.70583C132.683 7.86857 132.714 8.03656 132.74 8.1993C132.746 8.24655 132.756 8.28855 132.761 8.3358C132.777 8.45654 132.793 8.58253 132.809 8.70853C132.814 8.76102 132.825 8.81352 132.83 8.86602C132.851 9.04451 132.867 9.223 132.877 9.40149C132.877 9.41199 132.877 9.42249 132.877 9.43299C132.893 9.65348 132.903 9.87397 132.903 10.0945C132.903 10.2047 132.909 10.3149 132.909 10.4304V122.271H149.699V10.1942V10.1837C149.699 10.1522 149.699 10.126 149.699 10.0945C149.699 9.87397 149.683 9.65348 149.673 9.43299C149.673 9.42249 149.673 9.41199 149.673 9.40674C149.673 9.40674 149.673 9.40674 149.673 9.40149C149.662 9.223 149.641 9.04451 149.625 8.86602C149.62 8.81352 149.61 8.76102 149.604 8.70853C149.589 8.58253 149.573 8.45654 149.557 8.3358C149.557 8.32005 149.557 8.30955 149.552 8.2938C149.552 8.2623 149.541 8.2308 149.536 8.1993C149.51 8.03131 149.478 7.86857 149.447 7.70583C149.436 7.64808 149.426 7.59034 149.415 7.53784C149.373 7.3436 149.331 7.14936 149.279 6.95512C149.279 6.95512 149.279 6.94462 149.279 6.93937C149.226 6.74513 149.174 6.55089 149.116 6.3619C149.1 6.3094 149.085 6.25691 149.064 6.20441C149.016 6.05217 148.964 5.90517 148.911 5.75818C148.901 5.72668 148.89 5.70043 148.88 5.66894C148.88 5.65844 148.869 5.64269 148.864 5.63219C148.801 5.46945 148.738 5.31195 148.675 5.15446C148.675 5.15446 148.675 5.14396 148.67 5.13871C148.607 4.98647 148.538 4.83948 148.465 4.69249C148.46 4.68199 148.454 4.66624 148.449 4.65574C148.439 4.63474 148.428 4.61899 148.418 4.59799C148.318 4.3985 148.218 4.20426 148.108 4.01527C148.102 4.00477 148.097 3.99427 148.092 3.98377C148.092 3.98377 148.092 3.97852 148.087 3.97327C147.997 3.81578 147.898 3.66354 147.803 3.5113C147.793 3.49555 147.782 3.4798 147.772 3.46405C147.751 3.4378 147.735 3.41155 147.714 3.38006C147.651 3.28556 147.588 3.19632 147.519 3.10707C147.498 3.08082 147.483 3.05457 147.462 3.02832C147.446 3.00733 147.43 2.99158 147.414 2.97058C147.357 2.89183 147.294 2.81834 147.236 2.74484C147.21 2.71334 147.189 2.68184 147.162 2.65034C147.152 2.63984 147.141 2.62934 147.131 2.6136C147.078 2.5506 147.026 2.49285 146.968 2.42986C146.936 2.39311 146.905 2.35636 146.873 2.32486C146.863 2.31436 146.858 2.30911 146.847 2.29861C146.8 2.24612 146.747 2.19887 146.7 2.14637C146.663 2.10962 146.627 2.06762 146.585 2.03088C146.579 2.02563 146.569 2.01513 146.564 2.00988C146.516 1.96788 146.469 1.92588 146.427 1.88388C146.385 1.84714 146.343 1.80514 146.301 1.76839C146.29 1.76314 146.285 1.75264 146.275 1.74739C146.233 1.71064 146.191 1.67914 146.154 1.64765C146.112 1.6109 146.065 1.57415 146.023 1.5374C146.012 1.5269 145.996 1.52165 145.986 1.51115C145.944 1.47966 145.902 1.44816 145.86 1.41666C145.818 1.38516 145.776 1.35366 145.734 1.32216C145.718 1.31166 145.702 1.30116 145.687 1.29066C145.645 1.25917 145.602 1.23292 145.555 1.20142C145.518 1.17517 145.482 1.14892 145.445 1.12792C145.424 1.11217 145.403 1.10167 145.382 1.09118C145.335 1.06493 145.293 1.03868 145.245 1.01243C145.214 0.991431 145.182 0.970432 145.146 0.954683C145.119 0.938933 145.093 0.928434 145.067 0.912685C145.02 0.886436 144.972 0.865437 144.925 0.839189C144.899 0.823439 144.867 0.80769 144.841 0.797191C144.809 0.781442 144.778 0.770942 144.746 0.755193C144.699 0.734194 144.647 0.707945 144.599 0.686946C144.573 0.676447 144.552 0.665948 144.526 0.655448C144.489 0.639699 144.452 0.6292 144.416 0.61345C144.363 0.592451 144.311 0.576702 144.263 0.555703C144.242 0.550454 144.221 0.539954 144.2 0.529455C144.163 0.518955 144.127 0.508456 144.085 0.497956C144.027 0.482207 143.969 0.461208 143.911 0.445459C143.89 0.440209 143.869 0.43496 143.848 0.42446C143.812 0.413961 143.775 0.408711 143.738 0.398212C143.675 0.382462 143.607 0.366713 143.544 0.356214C143.523 0.356214 143.496 0.345714 143.475 0.340465C143.444 0.335215 143.412 0.329965 143.376 0.324715C143.302 0.314216 143.229 0.303717 143.16 0.293217C143.134 0.293217 143.108 0.282718 143.082 0.282718C143.055 0.282718 143.029 0.282718 143.008 0.282718C142.913 0.272218 142.819 0.266968 142.724 0.266968C142.693 0.266968 142.661 0.261719 142.63 0.261719C142.593 0.261719 142.562 0.261719 142.525 0.261719H125.734C125.803 0.261719 125.866 0.261719 125.934 0.266968C126.028 0.266968 126.123 0.277468 126.218 0.287967H126.223Z" fill="#CFCABF" stroke="black" stroke-width="0.174082" stroke-miterlimit="10"/>
<path d="M207.25 132.124C207.25 131.925 207.24 131.731 207.224 131.536C207.224 131.51 207.224 131.484 207.224 131.458C207.219 131.368 207.208 131.274 207.198 131.185C207.192 131.111 207.187 131.043 207.177 130.969C207.161 130.822 207.145 130.681 207.124 130.534C207.119 130.486 207.114 130.434 207.103 130.387C207.103 130.381 207.103 130.371 207.103 130.366C207.098 130.318 207.087 130.271 207.077 130.224C207.051 130.061 207.024 129.893 206.993 129.73C206.977 129.652 206.961 129.573 206.94 129.494C206.909 129.358 206.882 129.221 206.846 129.085C206.825 129.001 206.804 128.917 206.777 128.833C206.746 128.707 206.709 128.581 206.672 128.455C206.646 128.371 206.62 128.282 206.594 128.198C206.552 128.077 206.51 127.956 206.468 127.835C206.452 127.788 206.436 127.736 206.42 127.688C206.41 127.662 206.394 127.631 206.384 127.604C206.294 127.368 206.194 127.132 206.089 126.906C206.047 126.817 206.005 126.728 205.963 126.638C205.948 126.607 205.927 126.575 205.911 126.544C205.832 126.381 205.748 126.229 205.659 126.071C205.638 126.035 205.622 125.998 205.601 125.961C205.59 125.945 205.585 125.935 205.575 125.919C205.512 125.814 205.449 125.709 205.38 125.604C205.349 125.552 205.317 125.499 205.281 125.447C205.275 125.436 205.27 125.431 205.265 125.42C205.223 125.357 205.181 125.3 205.139 125.242C205.086 125.168 205.034 125.09 204.981 125.021C204.971 125.011 204.965 125 204.955 124.99C204.918 124.943 204.881 124.901 204.845 124.853C204.792 124.785 204.74 124.717 204.687 124.654C204.671 124.633 204.65 124.612 204.635 124.596C204.598 124.554 204.561 124.512 204.524 124.47C204.482 124.423 204.446 124.381 204.404 124.334C204.372 124.297 204.335 124.266 204.304 124.234C204.267 124.197 204.23 124.161 204.193 124.124C204.167 124.098 204.146 124.071 204.12 124.05C204.057 123.987 203.994 123.935 203.931 123.877C203.91 123.856 203.884 123.835 203.863 123.814C203.857 123.809 203.847 123.804 203.842 123.793C203.747 123.709 203.653 123.636 203.558 123.557C203.547 123.546 203.532 123.536 203.521 123.531C203.495 123.51 203.463 123.489 203.437 123.468C203.385 123.426 203.332 123.384 203.274 123.347C203.238 123.321 203.201 123.294 203.159 123.273C203.122 123.252 203.091 123.226 203.054 123.205C203.028 123.189 203.007 123.174 202.98 123.158C202.891 123.1 202.802 123.048 202.712 123C202.707 123 202.697 122.99 202.691 122.985C202.691 122.985 202.691 122.985 202.686 122.985C202.586 122.927 202.481 122.874 202.382 122.827C202.361 122.817 202.34 122.811 202.319 122.801C202.282 122.785 202.245 122.769 202.208 122.754C202.161 122.733 202.114 122.712 202.066 122.691C202.019 122.67 201.972 122.654 201.925 122.638C201.883 122.622 201.846 122.607 201.804 122.591C201.783 122.58 201.757 122.575 201.736 122.565C201.646 122.533 201.557 122.507 201.468 122.486C201.447 122.481 201.426 122.47 201.399 122.465C201.399 122.465 201.389 122.465 201.384 122.465C201.263 122.433 201.137 122.402 201.011 122.381C201 122.381 200.995 122.381 200.985 122.381C200.937 122.37 200.89 122.365 200.843 122.36C200.764 122.349 200.685 122.334 200.612 122.323C200.596 122.323 200.58 122.323 200.559 122.323C200.486 122.318 200.417 122.313 200.344 122.307C200.281 122.307 200.223 122.297 200.16 122.297C200.123 122.297 200.086 122.297 200.05 122.297H183.259C183.359 122.297 183.454 122.302 183.548 122.307C183.622 122.307 183.69 122.313 183.763 122.323C183.858 122.334 183.952 122.344 184.047 122.36C184.094 122.365 184.142 122.37 184.189 122.381C184.325 122.407 184.462 122.439 184.598 122.475C184.619 122.481 184.64 122.491 184.667 122.496C184.777 122.528 184.893 122.565 185.003 122.601C185.045 122.617 185.082 122.633 185.124 122.649C185.218 122.685 185.313 122.722 185.407 122.764C185.444 122.78 185.481 122.796 185.518 122.811C185.644 122.869 185.77 122.932 185.89 123C185.896 123 185.906 123.011 185.911 123.016C186.027 123.079 186.143 123.153 186.253 123.226C186.29 123.247 186.321 123.273 186.358 123.294C186.452 123.357 186.542 123.42 186.636 123.489C186.662 123.51 186.694 123.531 186.72 123.552C186.836 123.641 186.951 123.735 187.062 123.835C187.083 123.856 187.109 123.877 187.13 123.898C187.219 123.977 187.308 124.061 187.392 124.15C187.429 124.187 187.466 124.224 187.503 124.26C187.576 124.339 187.65 124.418 187.723 124.497C187.76 124.539 187.797 124.581 187.834 124.622C187.907 124.706 187.975 124.796 188.044 124.88C188.08 124.927 188.117 124.969 188.149 125.016C188.212 125.1 188.27 125.184 188.333 125.273C188.375 125.331 188.417 125.394 188.459 125.452C188.501 125.51 188.537 125.573 188.574 125.636C188.637 125.741 188.705 125.84 188.768 125.951C188.795 125.998 188.826 126.05 188.853 126.098C188.937 126.25 189.021 126.407 189.105 126.565C189.162 126.686 189.225 126.806 189.283 126.927C189.388 127.153 189.483 127.389 189.572 127.625C189.604 127.699 189.63 127.778 189.656 127.856C189.698 127.977 189.74 128.098 189.782 128.219C189.808 128.303 189.835 128.387 189.861 128.476C189.898 128.602 189.934 128.728 189.966 128.854C189.987 128.938 190.013 129.022 190.034 129.106C190.066 129.242 190.097 129.379 190.129 129.515C190.144 129.594 190.166 129.673 190.181 129.751C190.213 129.914 190.239 130.077 190.265 130.245C190.276 130.297 190.286 130.35 190.292 130.408C190.297 130.455 190.302 130.507 190.313 130.555C190.334 130.702 190.349 130.843 190.365 130.99C190.37 131.064 190.376 131.132 190.386 131.206C190.397 131.321 190.407 131.442 190.412 131.557C190.423 131.752 190.433 131.951 190.439 132.145C190.439 132.187 190.439 132.224 190.439 132.266C190.439 132.403 190.439 132.534 190.439 132.67C190.439 132.749 190.439 132.823 190.439 132.901C190.439 132.949 190.439 132.996 190.433 133.043C190.428 133.195 190.423 133.353 190.407 133.505C190.407 133.563 190.397 133.621 190.391 133.678C190.381 133.815 190.365 133.957 190.349 134.093C190.344 134.156 190.334 134.219 190.323 134.282C190.307 134.413 190.286 134.544 190.265 134.676C190.255 134.739 190.244 134.796 190.234 134.859C190.208 135.012 190.181 135.164 190.15 135.316C190.145 135.348 190.139 135.379 190.129 135.416C190.092 135.594 190.045 135.778 190.003 135.957C189.992 136.004 189.976 136.046 189.966 136.093C189.919 136.261 189.871 136.429 189.819 136.597L132.279 319.608C132.258 319.681 132.231 319.75 132.21 319.823C132.184 319.907 132.153 319.991 132.121 320.075C132.105 320.117 132.089 320.164 132.074 320.206C132.037 320.301 132.005 320.39 131.969 320.484C131.958 320.516 131.942 320.547 131.932 320.579C131.879 320.705 131.827 320.826 131.774 320.946C131.764 320.973 131.748 320.999 131.738 321.025C131.69 321.125 131.648 321.219 131.601 321.314C131.58 321.351 131.564 321.387 131.543 321.424C131.496 321.519 131.444 321.613 131.396 321.708C131.38 321.734 131.365 321.765 131.349 321.792C131.281 321.912 131.212 322.033 131.139 322.149C131.123 322.175 131.107 322.196 131.092 322.222C131.023 322.332 130.95 322.443 130.876 322.548C130.861 322.569 130.85 322.59 130.834 322.605C130.745 322.737 130.65 322.863 130.551 322.989C130.535 323.01 130.519 323.031 130.498 323.052C130.383 323.193 130.267 323.335 130.152 323.466C130.131 323.487 130.11 323.514 130.088 323.535C130.031 323.598 129.973 323.661 129.91 323.718C129.889 323.739 129.868 323.76 129.847 323.781C129.768 323.86 129.684 323.939 129.605 324.018C129.569 324.049 129.532 324.081 129.495 324.112C129.458 324.144 129.427 324.175 129.39 324.207C129.353 324.238 129.316 324.27 129.28 324.296C129.243 324.327 129.206 324.354 129.169 324.385C129.133 324.417 129.091 324.443 129.054 324.474C129.017 324.501 128.98 324.527 128.944 324.553C128.902 324.579 128.865 324.606 128.823 324.637C128.786 324.663 128.749 324.69 128.712 324.711C128.67 324.737 128.634 324.763 128.592 324.784C128.555 324.805 128.518 324.831 128.481 324.852C128.439 324.879 128.397 324.9 128.355 324.921C128.319 324.942 128.282 324.963 128.24 324.984C128.198 325.005 128.156 325.026 128.114 325.047C128.077 325.068 128.04 325.083 127.998 325.104C127.956 325.125 127.914 325.141 127.867 325.162C127.83 325.178 127.788 325.199 127.751 325.215C127.709 325.23 127.667 325.251 127.62 325.267C127.578 325.283 127.541 325.298 127.505 325.314C127.463 325.33 127.415 325.346 127.373 325.362C127.336 325.377 127.294 325.388 127.258 325.403C127.21 325.419 127.163 325.43 127.121 325.445C127.084 325.456 127.042 325.466 127.006 325.477C126.958 325.487 126.906 325.498 126.859 325.514C126.822 325.524 126.785 325.529 126.748 325.54C126.696 325.55 126.643 325.561 126.591 325.566C126.559 325.571 126.522 325.577 126.491 325.582C126.438 325.592 126.381 325.598 126.328 325.603C126.297 325.603 126.265 325.613 126.228 325.613C126.176 325.619 126.118 325.624 126.066 325.624C126.034 325.624 125.997 325.629 125.966 325.629C125.876 325.629 125.787 325.634 125.703 325.634H142.494C142.583 325.634 142.672 325.634 142.756 325.629C142.788 325.629 142.824 325.624 142.856 325.624C142.909 325.624 142.966 325.619 143.019 325.613C143.05 325.613 143.082 325.603 143.113 325.603C143.171 325.598 143.224 325.592 143.281 325.582C143.313 325.582 143.35 325.571 143.381 325.566C143.434 325.556 143.486 325.55 143.544 325.535C143.581 325.529 143.618 325.519 143.654 325.508C143.702 325.498 143.754 325.487 143.801 325.472C143.838 325.461 143.88 325.451 143.917 325.44C143.964 325.43 144.011 325.414 144.053 325.398C144.095 325.388 144.132 325.372 144.174 325.356C144.216 325.341 144.263 325.325 144.306 325.309C144.348 325.293 144.384 325.278 144.426 325.262C144.468 325.246 144.51 325.23 144.558 325.209C144.594 325.193 144.636 325.173 144.673 325.157C144.715 325.136 144.762 325.12 144.804 325.099C144.841 325.083 144.878 325.062 144.92 325.041C144.962 325.02 145.004 324.999 145.046 324.978C145.083 324.957 145.125 324.936 145.162 324.915C145.204 324.894 145.246 324.868 145.288 324.847C145.324 324.826 145.361 324.8 145.398 324.779C145.44 324.753 145.477 324.732 145.519 324.705C145.555 324.679 145.592 324.658 145.629 324.632C145.671 324.606 145.708 324.579 145.75 324.548C145.787 324.522 145.823 324.495 145.86 324.469C145.897 324.438 145.939 324.411 145.976 324.38C146.012 324.354 146.049 324.322 146.086 324.291C146.123 324.259 146.159 324.233 146.196 324.201C146.233 324.17 146.264 324.138 146.301 324.107C146.333 324.075 146.37 324.049 146.401 324.018C146.401 324.018 146.406 324.012 146.412 324.007C146.496 323.934 146.574 323.855 146.653 323.776C146.674 323.755 146.695 323.734 146.716 323.713C146.774 323.65 146.832 323.592 146.889 323.529C146.9 323.519 146.916 323.503 146.926 323.493C146.937 323.482 146.942 323.472 146.952 323.461C147.073 323.33 147.189 323.193 147.299 323.046C147.304 323.036 147.315 323.031 147.32 323.02C147.331 323.01 147.336 322.994 147.346 322.983C147.441 322.857 147.535 322.731 147.63 322.6C147.63 322.595 147.64 322.59 147.64 322.584C147.651 322.569 147.662 322.553 147.667 322.542C147.74 322.437 147.809 322.327 147.882 322.217C147.893 322.201 147.903 322.185 147.914 322.17C147.919 322.159 147.924 322.154 147.929 322.143C148.003 322.028 148.071 321.907 148.139 321.786C148.139 321.781 148.15 321.771 148.15 321.765C148.16 321.744 148.171 321.723 148.181 321.702C148.234 321.608 148.281 321.519 148.329 321.419C148.339 321.398 148.35 321.382 148.36 321.361C148.371 321.345 148.376 321.324 148.386 321.309C148.434 321.214 148.481 321.12 148.523 321.02C148.533 320.999 148.544 320.978 148.549 320.957C148.549 320.952 148.549 320.946 148.554 320.941C148.607 320.82 148.659 320.7 148.712 320.574C148.712 320.569 148.717 320.563 148.722 320.553C148.733 320.526 148.743 320.5 148.749 320.479C148.785 320.385 148.822 320.296 148.859 320.201C148.864 320.185 148.875 320.164 148.88 320.149C148.89 320.122 148.896 320.096 148.906 320.07C148.938 319.986 148.964 319.902 148.996 319.818C149.006 319.792 149.017 319.765 149.022 319.739C149.038 319.692 149.053 319.65 149.064 319.603L206.604 136.592C206.636 136.497 206.662 136.403 206.688 136.308C206.709 136.235 206.73 136.161 206.746 136.088C206.756 136.041 206.772 135.999 206.783 135.951C206.788 135.925 206.793 135.904 206.804 135.878C206.84 135.731 206.877 135.584 206.909 135.437C206.909 135.426 206.909 135.421 206.914 135.411C206.919 135.379 206.924 135.348 206.935 135.311C206.956 135.201 206.982 135.09 207.003 134.98C207.009 134.938 207.014 134.896 207.024 134.859C207.035 134.796 207.045 134.739 207.056 134.676C207.066 134.618 207.077 134.56 207.082 134.502C207.093 134.429 207.103 134.355 207.108 134.282C207.119 134.219 207.124 134.156 207.135 134.093C207.135 134.062 207.145 134.035 207.145 134.004C207.156 133.894 207.166 133.783 207.177 133.678C207.177 133.621 207.187 133.563 207.192 133.51C207.192 133.5 207.192 133.484 207.192 133.474C207.203 133.332 207.208 133.19 207.213 133.048C207.213 133.001 207.219 132.954 207.219 132.907C207.219 132.907 207.219 132.901 207.219 132.896C207.219 132.823 207.219 132.749 207.219 132.676C207.219 132.539 207.219 132.408 207.219 132.271C207.219 132.266 207.219 132.261 207.219 132.25C207.219 132.219 207.219 132.182 207.219 132.151L207.25 132.124Z" fill="#CFCABF" stroke="black" stroke-width="0.174082" stroke-miterlimit="10"/>
<path d="M125.733 0.261719C129.709 0.261719 132.923 4.81848 132.923 10.4357V122.276H183.268C185.716 122.276 187.979 124.024 189.298 126.911C190.626 129.793 190.831 133.431 189.844 136.571L132.303 319.581C131.148 323.256 128.575 325.624 125.728 325.624C121.752 325.624 118.538 321.067 118.538 315.45V203.61H68.1929C67.1583 203.61 66.1604 203.305 65.2361 202.723C61.6175 200.428 59.9999 194.428 61.6228 189.315L119.158 6.30415C120.313 2.62934 122.887 0.261719 125.733 0.261719Z" fill="#EFEBE7" stroke="black" stroke-width="0.174082" stroke-miterlimit="10"/>
<path d="M363.151 156.246L363.088 178.647L355.594 184.269L355.657 161.869L363.151 156.246Z" fill="#BBCE00" stroke="black" stroke-width="0.174082" stroke-linecap="round" stroke-linejoin="round"/>
<path d="M344.234 159.764L344.297 137.363C344.261 150.083 354.969 161.16 355.657 161.869L355.594 184.27C354.912 183.561 344.203 172.489 344.234 159.764Z" fill="#85A309"/>
<mask id="mask1_14902_17136" style="mask-type:luminance" maskUnits="userSpaceOnUse" x="344" y="137" width="12" height="48">
<path d="M344.234 159.764L344.297 137.363C344.261 150.083 354.969 161.16 355.657 161.869L355.594 184.27C354.912 183.561 344.203 172.489 344.234 159.764Z" fill="white"/>
</mask>
<g mask="url(#mask1_14902_17136)">
<path d="M355.657 161.869L355.594 184.27C354.912 183.561 344.203 172.489 344.234 159.764L344.297 137.363C344.261 150.083 354.969 161.16 355.657 161.869Z" fill="#85A309" stroke="black" stroke-width="0.174082" stroke-linecap="round" stroke-linejoin="round"/>
</g>
<path d="M344.234 159.764L344.297 137.363C344.261 150.083 354.969 161.16 355.657 161.869L355.594 184.27C354.912 183.561 344.203 172.489 344.234 159.764Z" stroke="black" stroke-width="0.174082" stroke-linecap="round" stroke-linejoin="round"/>
<path d="M466.644 152.351C466.633 152.582 466.617 152.813 466.591 153.05C466.57 153.254 466.544 153.459 466.512 153.659C466.481 153.89 466.444 154.121 466.402 154.352C466.365 154.556 466.318 154.761 466.276 154.966C466.224 155.192 466.171 155.417 466.113 155.643C466.055 155.848 465.998 156.052 465.935 156.257C465.866 156.483 465.793 156.703 465.714 156.929C465.641 157.129 465.567 157.328 465.488 157.528C465.394 157.764 465.299 157.995 465.194 158.231C465.105 158.425 465.016 158.625 464.921 158.819C464.806 159.05 464.685 159.281 464.564 159.512C464.427 159.759 464.296 160.011 464.149 160.257C464.118 160.315 464.086 160.368 464.049 160.425C463.834 160.777 463.603 161.129 463.361 161.481C463.314 161.549 463.267 161.612 463.225 161.68C462.978 162.027 462.721 162.373 462.447 162.714C462.395 162.783 462.337 162.846 462.285 162.914C462.043 163.208 461.791 163.507 461.534 163.796C461.46 163.875 461.392 163.953 461.318 164.037C461.008 164.373 460.688 164.709 460.352 165.045C460.289 165.108 460.221 165.171 460.158 165.229C459.905 165.476 459.638 165.717 459.37 165.959C459.149 166.153 458.929 166.352 458.698 166.541C458.487 166.72 458.277 166.898 458.057 167.072C457.82 167.266 457.574 167.455 457.327 167.644C457.101 167.817 456.87 167.99 456.639 168.158C456.381 168.342 456.119 168.526 455.851 168.71C455.609 168.878 455.363 169.046 455.11 169.208C454.837 169.387 454.548 169.565 454.265 169.744C453.908 169.964 453.561 170.185 453.188 170.4C452.495 170.804 451.775 171.187 451.051 171.56C450.841 171.665 450.631 171.77 450.42 171.875C449.853 172.159 449.276 172.426 448.687 172.689C448.493 172.773 448.304 172.862 448.11 172.946C447.348 173.277 446.581 173.592 445.793 173.891C445.646 173.949 445.499 173.996 445.352 174.049C444.696 174.295 444.029 174.526 443.357 174.747C443.078 174.836 442.805 174.93 442.527 175.014C442.149 175.135 441.776 175.245 441.392 175.361C441.077 175.455 440.757 175.545 440.436 175.634C440.053 175.739 439.664 175.844 439.276 175.944C438.955 176.028 438.63 176.112 438.309 176.19C437.916 176.285 437.516 176.374 437.123 176.463C436.797 176.537 436.471 176.61 436.146 176.679C435.741 176.763 435.332 176.841 434.927 176.92C434.617 176.978 434.307 177.041 433.998 177.093C433.131 177.246 432.254 177.387 431.377 177.513C431.23 177.534 431.078 177.55 430.93 177.571C430.185 177.671 429.439 177.76 428.688 177.839C428.394 177.87 428.1 177.897 427.806 177.928C427.312 177.975 426.813 178.017 426.314 178.054C426.004 178.075 425.694 178.101 425.384 178.117C424.859 178.149 424.329 178.175 423.804 178.196C423.52 178.206 423.236 178.222 422.958 178.233C422.496 178.248 422.034 178.254 421.571 178.259C421.267 178.259 420.968 178.269 420.663 178.275C420.153 178.275 419.644 178.269 419.135 178.259C418.877 178.259 418.62 178.259 418.363 178.248C417.89 178.238 417.417 178.212 416.95 178.191C416.671 178.18 416.393 178.17 416.115 178.159C415.542 178.128 414.97 178.086 414.397 178.044C414.224 178.028 414.045 178.023 413.872 178.007C413.126 177.944 412.386 177.876 411.645 177.792C411.456 177.771 411.272 177.744 411.083 177.723C410.532 177.66 409.986 177.592 409.44 177.513C409.229 177.482 409.025 177.45 408.82 177.419C408.279 177.34 407.743 177.256 407.207 177.167C406.924 177.12 406.645 177.062 406.367 177.009C405.91 176.925 405.453 176.841 405.002 176.752C404.739 176.7 404.482 176.637 404.224 176.584C403.715 176.474 403.211 176.364 402.707 176.243C402.418 176.175 402.129 176.101 401.84 176.028C401.373 175.907 400.91 175.786 400.448 175.66C400.18 175.587 399.918 175.508 399.655 175.434C398.915 175.219 398.179 174.993 397.455 174.752C397.334 174.71 397.213 174.679 397.097 174.637C396.273 174.358 395.459 174.059 394.661 173.744C394.335 173.618 394.015 173.487 393.694 173.356C393.437 173.251 393.179 173.146 392.927 173.035C392.565 172.878 392.208 172.715 391.851 172.558C391.62 172.453 391.383 172.348 391.152 172.237C390.764 172.054 390.38 171.859 390.002 171.665C389.813 171.571 389.619 171.476 389.435 171.382C388.873 171.088 388.316 170.783 387.77 170.468L363.165 156.268L363.102 178.668L387.707 192.869C388.253 193.184 388.805 193.488 389.372 193.782C389.561 193.882 389.75 193.971 389.939 194.066C390.322 194.26 390.701 194.454 391.089 194.638C391.32 194.748 391.557 194.853 391.788 194.958C392.145 195.121 392.502 195.284 392.864 195.436C393.116 195.546 393.374 195.646 393.631 195.756C393.873 195.856 394.114 195.961 394.356 196.055C394.435 196.087 394.519 196.113 394.598 196.145C395.401 196.454 396.21 196.754 397.034 197.037C397.155 197.079 397.276 197.111 397.392 197.153C398.116 197.394 398.852 197.62 399.592 197.835C399.713 197.872 399.828 197.914 399.949 197.945C400.096 197.987 400.243 198.019 400.385 198.061C400.847 198.187 401.309 198.313 401.777 198.428C402.066 198.502 402.355 198.575 402.643 198.644C403.148 198.764 403.657 198.874 404.167 198.985C404.366 199.027 404.56 199.079 404.76 199.121C404.818 199.132 404.881 199.142 404.939 199.158C405.396 199.252 405.852 199.336 406.309 199.42C406.588 199.473 406.861 199.525 407.144 199.573C407.68 199.667 408.221 199.746 408.762 199.83C408.951 199.856 409.14 199.893 409.334 199.919C409.35 199.919 409.366 199.919 409.382 199.924C409.928 200.003 410.479 200.066 411.026 200.134C411.215 200.155 411.398 200.182 411.588 200.203C412.328 200.287 413.069 200.355 413.814 200.418C413.814 200.418 413.825 200.418 413.83 200.418C413.998 200.434 414.171 200.439 414.34 200.455C414.912 200.497 415.484 200.539 416.057 200.57C416.335 200.586 416.614 200.591 416.892 200.602C417.365 200.623 417.837 200.644 418.305 200.659C418.331 200.659 418.357 200.659 418.384 200.659C418.615 200.665 418.846 200.659 419.077 200.665C419.586 200.675 420.096 200.68 420.605 200.68C420.91 200.68 421.209 200.67 421.514 200.665C421.976 200.659 422.438 200.654 422.9 200.638C422.974 200.638 423.047 200.638 423.121 200.638C423.331 200.633 423.541 200.617 423.751 200.607C424.282 200.586 424.807 200.56 425.332 200.528C425.642 200.507 425.952 200.486 426.261 200.465C426.76 200.428 427.259 200.386 427.753 200.339C427.921 200.323 428.084 200.313 428.252 200.297C428.378 200.287 428.504 200.266 428.63 200.25C429.381 200.171 430.127 200.082 430.873 199.982C431.02 199.961 431.172 199.945 431.319 199.924C432.196 199.798 433.073 199.662 433.94 199.504C434.013 199.489 434.092 199.483 434.166 199.468C434.402 199.426 434.633 199.373 434.869 199.331C435.279 199.252 435.683 199.174 436.088 199.09C436.414 199.021 436.739 198.948 437.065 198.874C437.464 198.785 437.858 198.696 438.252 198.601C438.577 198.523 438.898 198.439 439.218 198.355C439.607 198.255 439.995 198.15 440.379 198.045C440.699 197.956 441.014 197.867 441.335 197.772C441.713 197.662 442.091 197.546 442.469 197.426C442.627 197.378 442.789 197.331 442.947 197.279C443.068 197.242 443.183 197.195 443.299 197.153C443.971 196.927 444.638 196.696 445.295 196.449C445.442 196.397 445.589 196.344 445.736 196.292C446.524 195.992 447.29 195.677 448.052 195.347C448.246 195.263 448.435 195.173 448.63 195.089C449.218 194.827 449.795 194.554 450.363 194.276C450.573 194.171 450.783 194.071 450.993 193.961C451.718 193.588 452.437 193.205 453.13 192.801C453.32 192.69 453.514 192.575 453.698 192.465C453.871 192.36 454.034 192.249 454.202 192.144C454.485 191.966 454.769 191.787 455.047 191.609C455.299 191.446 455.546 191.278 455.788 191.11C456.056 190.926 456.318 190.743 456.576 190.559C456.812 190.386 457.038 190.218 457.264 190.044C457.511 189.855 457.757 189.666 457.994 189.472C458.209 189.294 458.424 189.12 458.634 188.942C458.86 188.748 459.086 188.554 459.307 188.359C459.396 188.275 459.496 188.197 459.585 188.118C459.758 187.955 459.926 187.792 460.095 187.63C460.158 187.567 460.226 187.509 460.289 187.446C460.625 187.115 460.945 186.779 461.255 186.438C461.329 186.359 461.397 186.28 461.471 186.196C461.733 185.902 461.985 185.608 462.222 185.314C462.274 185.246 462.332 185.183 462.384 185.115C462.411 185.083 462.437 185.052 462.463 185.02C462.71 184.711 462.941 184.396 463.162 184.081C463.209 184.013 463.256 183.95 463.298 183.881C463.54 183.53 463.771 183.183 463.986 182.826C464.018 182.768 464.055 182.716 464.086 182.658C464.17 182.522 464.249 182.385 464.328 182.249C464.391 182.138 464.438 182.028 464.501 181.913C464.627 181.682 464.748 181.451 464.858 181.22C464.953 181.025 465.042 180.831 465.131 180.632C465.236 180.401 465.336 180.164 465.425 179.928C465.467 179.823 465.52 179.718 465.557 179.613C465.593 179.519 465.614 179.424 465.651 179.335C465.73 179.109 465.803 178.889 465.872 178.663C465.935 178.458 465.998 178.254 466.05 178.049C466.113 177.823 466.166 177.597 466.213 177.372C466.239 177.251 466.276 177.125 466.302 177.004C466.318 176.92 466.323 176.841 466.339 176.757C466.381 176.526 466.418 176.295 466.449 176.064C466.476 175.86 466.507 175.66 466.528 175.455C466.549 175.224 466.565 174.993 466.575 174.757C466.581 174.621 466.602 174.484 466.607 174.348C466.607 174.211 466.612 174.075 466.612 173.944L466.675 151.543C466.675 151.816 466.654 152.089 466.638 152.362L466.644 152.351Z" fill="#85A309" stroke="black" stroke-width="0.174082" stroke-linecap="round" stroke-linejoin="round"/>
<mask id="mask2_14902_17136" style="mask-type:luminance" maskUnits="userSpaceOnUse" x="344" y="137" width="123" height="64">
<path d="M466.641 152.352C466.631 152.583 466.615 152.814 466.589 153.05C466.568 153.255 466.542 153.459 466.51 153.659C466.479 153.89 466.442 154.121 466.4 154.352C466.363 154.557 466.316 154.761 466.274 154.966C466.221 155.192 466.169 155.418 466.111 155.643C466.059 155.848 465.995 156.053 465.932 156.258C465.864 156.483 465.791 156.704 465.712 156.929C465.638 157.129 465.565 157.328 465.486 157.528C465.392 157.764 465.297 157.995 465.192 158.231C465.103 158.426 465.013 158.625 464.919 158.819C464.803 159.05 464.682 159.281 464.562 159.512C464.425 159.759 464.294 160.011 464.147 160.258C464.115 160.316 464.084 160.368 464.047 160.426C463.832 160.778 463.601 161.129 463.359 161.481C463.312 161.549 463.264 161.612 463.222 161.68C462.976 162.027 462.718 162.373 462.445 162.715C462.393 162.783 462.335 162.846 462.282 162.914C462.041 163.208 461.789 163.507 461.531 163.796C461.458 163.875 461.39 163.954 461.316 164.038C461.006 164.374 460.686 164.71 460.35 165.046C460.287 165.109 460.218 165.172 460.155 165.229C459.903 165.476 459.635 165.718 459.368 165.959C459.147 166.153 458.926 166.353 458.695 166.542C458.485 166.72 458.275 166.899 458.055 167.072C457.818 167.261 457.571 167.455 457.325 167.644C457.099 167.817 456.868 167.991 456.637 168.159C456.379 168.342 456.117 168.526 455.849 168.71C455.607 168.878 455.36 169.046 455.108 169.209C454.835 169.387 454.546 169.566 454.263 169.744C453.906 169.965 453.559 170.185 453.186 170.4C452.493 170.804 451.773 171.188 451.048 171.56C450.844 171.665 450.628 171.77 450.418 171.875C449.851 172.159 449.273 172.427 448.685 172.689C448.491 172.773 448.302 172.862 448.107 172.946C447.346 173.277 446.579 173.592 445.791 173.891C445.644 173.949 445.497 173.996 445.35 174.049C444.694 174.296 444.027 174.527 443.354 174.747C443.076 174.836 442.803 174.931 442.525 175.015C442.152 175.136 441.774 175.246 441.39 175.361C441.075 175.456 440.755 175.545 440.434 175.634C440.051 175.739 439.662 175.844 439.274 175.944C438.953 176.028 438.628 176.112 438.307 176.191C437.913 176.285 437.514 176.374 437.12 176.464C436.795 176.537 436.469 176.611 436.143 176.679C435.739 176.763 435.329 176.842 434.925 176.92C434.615 176.978 434.305 177.041 433.995 177.094C433.129 177.246 432.252 177.388 431.375 177.514C431.228 177.535 431.075 177.55 430.928 177.571C430.182 177.671 429.437 177.76 428.686 177.839C428.392 177.871 428.097 177.897 427.803 177.928C427.31 177.976 426.811 178.018 426.312 178.054C426.002 178.075 425.692 178.102 425.382 178.117C424.857 178.149 424.327 178.175 423.801 178.196C423.518 178.207 423.234 178.222 422.956 178.233C422.494 178.249 422.031 178.254 421.569 178.259C421.265 178.259 420.965 178.27 420.661 178.275C420.151 178.275 419.642 178.27 419.132 178.259C418.875 178.259 418.618 178.259 418.36 178.249C417.888 178.238 417.415 178.212 416.948 178.191C416.669 178.18 416.391 178.17 416.112 178.159C415.54 178.128 414.968 178.086 414.395 178.044C414.222 178.028 414.043 178.023 413.87 178.007C413.124 177.944 412.384 177.876 411.643 177.792C411.454 177.771 411.27 177.745 411.081 177.724C410.53 177.661 409.983 177.592 409.437 177.514C409.227 177.482 409.022 177.451 408.818 177.419C408.277 177.34 407.741 177.256 407.205 177.167C406.922 177.12 406.643 177.062 406.365 177.01C405.908 176.926 405.451 176.842 404.999 176.752C404.737 176.7 404.479 176.637 404.222 176.584C403.713 176.474 403.208 176.364 402.704 176.243C402.415 176.175 402.127 176.101 401.838 176.028C401.37 175.907 400.908 175.786 400.446 175.66C400.178 175.587 399.916 175.508 399.653 175.435C398.912 175.22 398.177 174.994 397.452 174.752C397.332 174.71 397.211 174.679 397.095 174.637C396.271 174.359 395.457 174.059 394.658 173.744C394.333 173.618 394.012 173.487 393.692 173.356C393.435 173.251 393.177 173.146 392.925 173.041C392.563 172.883 392.206 172.721 391.854 172.558C391.623 172.453 391.386 172.348 391.155 172.238C390.767 172.054 390.383 171.86 390.005 171.665C389.816 171.571 389.622 171.476 389.438 171.382C388.876 171.088 388.319 170.783 387.773 170.469L363.168 156.268L355.673 161.89C354.99 161.182 344.276 150.11 344.313 137.385L344.25 159.785C344.213 172.505 354.922 183.582 355.61 184.291L363.105 178.669L387.71 192.869C388.256 193.184 388.808 193.489 389.375 193.783C389.564 193.882 389.753 193.972 389.942 194.066C390.325 194.26 390.704 194.455 391.092 194.638C391.323 194.748 391.56 194.853 391.791 194.958C392.148 195.121 392.505 195.284 392.867 195.436C393.119 195.546 393.377 195.646 393.634 195.751C393.876 195.851 394.117 195.956 394.359 196.05C394.438 196.082 394.522 196.108 394.601 196.14C395.404 196.449 396.213 196.749 397.037 197.032C397.158 197.074 397.279 197.106 397.395 197.148C398.119 197.389 398.855 197.615 399.595 197.83C399.716 197.867 399.831 197.909 399.952 197.94C400.099 197.982 400.246 198.014 400.388 198.056C400.85 198.182 401.313 198.308 401.78 198.423C402.069 198.497 402.358 198.57 402.646 198.639C403.151 198.759 403.66 198.87 404.17 198.98C404.369 199.022 404.563 199.074 404.763 199.116C404.821 199.127 404.884 199.137 404.942 199.153C405.399 199.247 405.855 199.331 406.312 199.415C406.591 199.468 406.864 199.52 407.147 199.568C407.683 199.662 408.224 199.741 408.765 199.825C408.954 199.851 409.143 199.888 409.337 199.914C409.353 199.914 409.369 199.914 409.379 199.919C409.926 199.998 410.477 200.061 411.023 200.129C411.212 200.15 411.396 200.177 411.585 200.198C412.326 200.282 413.066 200.35 413.812 200.413C413.812 200.413 413.823 200.413 413.828 200.413C413.996 200.429 414.169 200.434 414.337 200.45C414.91 200.492 415.482 200.534 416.055 200.565C416.333 200.581 416.611 200.586 416.89 200.597C417.362 200.618 417.83 200.639 418.303 200.654C418.329 200.654 418.355 200.654 418.381 200.654C418.612 200.66 418.844 200.654 419.075 200.66C419.584 200.67 420.093 200.675 420.603 200.675C420.908 200.675 421.207 200.665 421.512 200.66C421.974 200.654 422.436 200.649 422.898 200.633C422.972 200.633 423.045 200.633 423.119 200.633C423.329 200.628 423.539 200.612 423.749 200.602C424.279 200.581 424.804 200.555 425.33 200.523C425.64 200.502 425.949 200.481 426.259 200.46C426.758 200.423 427.257 200.381 427.751 200.334C427.919 200.318 428.082 200.308 428.25 200.292C428.376 200.282 428.502 200.261 428.628 200.245C429.379 200.166 430.125 200.077 430.87 199.977C431.018 199.956 431.17 199.94 431.317 199.919C432.194 199.793 433.071 199.657 433.938 199.499C434.011 199.484 434.09 199.478 434.163 199.463C434.4 199.421 434.631 199.368 434.867 199.326C435.277 199.247 435.681 199.169 436.086 199.085C436.411 199.017 436.737 198.943 437.063 198.87C437.462 198.78 437.856 198.691 438.249 198.597C438.575 198.518 438.895 198.434 439.216 198.35C439.604 198.25 439.993 198.145 440.376 198.04C440.697 197.951 441.012 197.862 441.332 197.767C441.71 197.657 442.089 197.541 442.467 197.421C442.624 197.373 442.787 197.326 442.945 197.274C443.065 197.237 443.181 197.19 443.297 197.148C443.969 196.922 444.636 196.691 445.298 196.449C445.445 196.397 445.592 196.344 445.739 196.292C446.527 195.993 447.293 195.678 448.055 195.347C448.249 195.263 448.438 195.174 448.627 195.09C449.216 194.827 449.793 194.554 450.36 194.276C450.571 194.171 450.781 194.071 450.991 193.961C451.715 193.588 452.435 193.205 453.128 192.801C453.323 192.691 453.512 192.575 453.695 192.465C453.869 192.36 454.032 192.25 454.2 192.145C454.483 191.966 454.767 191.788 455.045 191.609C455.297 191.446 455.544 191.278 455.786 191.11C456.054 190.927 456.316 190.743 456.574 190.559C456.81 190.386 457.036 190.218 457.262 190.045C457.508 189.856 457.755 189.667 457.992 189.473C458.207 189.299 458.422 189.121 458.632 188.942C458.858 188.748 459.084 188.554 459.304 188.36C459.394 188.276 459.494 188.197 459.583 188.118C459.756 187.955 459.924 187.793 460.092 187.63C460.155 187.567 460.224 187.509 460.287 187.446C460.623 187.115 460.943 186.779 461.253 186.438C461.327 186.359 461.395 186.281 461.468 186.197C461.731 185.903 461.983 185.609 462.219 185.315C462.272 185.246 462.33 185.183 462.382 185.115C462.408 185.084 462.435 185.052 462.461 185.021C462.708 184.711 462.939 184.396 463.159 184.081C463.207 184.013 463.254 183.95 463.296 183.882C463.538 183.53 463.769 183.183 463.984 182.826C464.021 182.769 464.052 182.716 464.084 182.658C464.168 182.522 464.247 182.385 464.325 182.249C464.388 182.139 464.436 182.028 464.499 181.913C464.625 181.682 464.746 181.451 464.856 181.22C464.95 181.026 465.04 180.831 465.129 180.632C465.234 180.401 465.334 180.165 465.423 179.929C465.465 179.824 465.518 179.719 465.554 179.614C465.591 179.519 465.612 179.425 465.649 179.33C465.728 179.104 465.801 178.884 465.869 178.658C465.932 178.453 465.995 178.249 466.048 178.044C466.111 177.818 466.164 177.592 466.211 177.367C466.237 177.246 466.274 177.12 466.3 176.999C466.316 176.915 466.321 176.836 466.337 176.752C466.379 176.521 466.416 176.29 466.447 176.059C466.473 175.855 466.505 175.655 466.526 175.45C466.547 175.22 466.563 174.989 466.573 174.752C466.578 174.616 466.599 174.479 466.605 174.343C466.605 174.206 466.61 174.07 466.61 173.939L466.673 151.538C466.673 151.811 466.652 152.084 466.636 152.357L466.641 152.352Z" fill="white"/>
</mask>
<g mask="url(#mask2_14902_17136)">
<path opacity="0.25" d="M380.633 143.58H345.445V189.253H380.633V143.58Z" fill="black"/>
</g>
<path d="M453.067 132.513C471.166 142.954 471.218 159.916 453.183 170.389C435.148 180.868 405.858 180.889 387.754 170.442L363.149 156.241L355.654 161.864C354.814 160.992 338.827 144.461 346.264 128.46C348.165 123.803 352.241 119.383 358.501 115.75C376.531 105.277 405.826 105.251 423.93 115.698L453.062 132.513H453.067Z" fill="#DCFF00" stroke="black" stroke-width="0.174082" stroke-linecap="round" stroke-linejoin="round"/>
<path d="M395.586 135.726C397.424 136.786 397.429 138.508 395.602 139.568C393.774 140.629 390.801 140.634 388.958 139.568C387.12 138.508 387.12 136.786 388.948 135.726C390.781 134.66 393.748 134.66 395.586 135.72V135.726Z" fill="#00201D"/>
<path d="M408.227 143.017C410.065 144.078 410.07 145.794 408.237 146.86C406.409 147.921 403.437 147.926 401.599 146.865C399.761 145.805 399.761 144.083 401.588 143.023C403.416 141.962 406.388 141.957 408.227 143.017Z" fill="#4C6B11"/>
<path d="M420.859 150.308C422.698 151.369 422.703 153.091 420.87 154.151C419.037 155.212 416.07 155.217 414.232 154.156C412.393 153.096 412.393 151.374 414.221 150.314C416.049 149.253 419.021 149.248 420.859 150.308Z" fill="#85A309"/>
<g opacity="0.25">
<mask id="mask3_14902_17136" style="mask-type:luminance" maskUnits="userSpaceOnUse" x="344" y="107" width="123" height="72">
<path d="M453.067 132.513C471.166 142.954 471.218 159.916 453.183 170.389C435.148 180.868 405.858 180.889 387.754 170.442L363.149 156.241L355.654 161.864C354.814 160.992 338.827 144.461 346.264 128.46C348.165 123.803 352.241 119.383 358.501 115.75C376.531 105.277 405.826 105.251 423.93 115.698L453.062 132.513H453.067Z" fill="white"/>
</mask>
<g mask="url(#mask3_14902_17136)">
<path d="M447.923 118.14C451.898 120.439 450.638 124.901 445.108 128.109L337.558 191.877L385.398 221.16C387.846 222.572 388.397 224.882 386.869 227.297C385.362 229.712 381.99 231.906 377.909 233.135L140.117 304.557C135.343 305.991 130.432 305.859 127.585 304.216C123.61 301.917 124.87 297.455 130.401 294.247L240.513 230.284L190.105 201.196C189.075 200.602 188.372 199.852 188.014 198.98C186.649 195.578 190.94 191.211 197.594 189.221L435.386 117.798C440.155 116.365 445.071 116.496 447.917 118.14H447.923Z" fill="black"/>
</g>
</g>
<path d="M91.7405 394.217L91.3992 394.018C91.1523 393.871 91 393.608 91 393.32V386.6C91 385.97 91.6828 385.582 92.2237 385.902L92.5651 386.101C92.8119 386.248 92.9642 386.511 92.9642 386.799V393.519C92.9642 394.149 92.2815 394.538 91.7405 394.217Z" fill="#00201D"/>
<path d="M95.441 396.434L95.0996 396.229C94.858 396.082 94.7109 395.819 94.7109 395.536V388.832C94.7109 388.202 95.4042 387.814 95.9451 388.139L96.2865 388.344C96.5281 388.491 96.6752 388.753 96.6752 389.037V395.741C96.6752 396.371 95.9819 396.759 95.441 396.434Z" fill="#00201D"/>
<path d="M99.1834 398.648L98.8158 398.427C98.5742 398.28 98.4219 398.018 98.4219 397.735V391.031C98.4219 390.406 99.0994 390.017 99.6403 390.332L100.008 390.548C100.255 390.695 100.407 390.957 100.407 391.246V397.955C100.407 398.585 99.7191 398.973 99.1782 398.648H99.1834Z" fill="#00201D"/>
<path d="M102.9 400.88L102.532 400.665C102.285 400.518 102.133 400.255 102.133 399.966V393.242C102.133 392.617 102.81 392.228 103.351 392.543L103.719 392.759C103.966 392.906 104.118 393.168 104.118 393.457V400.182C104.118 400.806 103.441 401.195 102.9 400.88Z" fill="#00201D"/>
<path d="M106.589 403.074L106.248 402.87C106.006 402.723 105.859 402.46 105.859 402.177V395.473C105.859 394.843 106.553 394.454 107.094 394.78L107.435 394.984C107.677 395.131 107.824 395.394 107.824 395.677V402.381C107.824 403.011 107.13 403.4 106.589 403.074Z" fill="#00201D"/>
<path d="M110.311 405.305L109.969 405.106C109.723 404.959 109.57 404.696 109.57 404.407V397.688C109.57 397.058 110.253 396.669 110.794 396.99L111.135 397.189C111.382 397.336 111.535 397.599 111.535 397.887V404.607C111.535 405.237 110.852 405.625 110.311 405.305Z" fill="#00201D"/>
<path d="M114.035 407.53L113.667 407.31C113.426 407.163 113.273 406.9 113.273 406.617V399.902C113.273 399.272 113.961 398.884 114.502 399.209L114.87 399.43C115.112 399.577 115.264 399.839 115.264 400.123V406.837C115.264 407.467 114.576 407.856 114.035 407.53Z" fill="#00201D"/>
<path d="M117.748 409.741L117.407 409.541C117.16 409.394 117.008 409.132 117.008 408.843V402.123C117.008 401.493 117.691 401.105 118.232 401.425L118.573 401.625C118.82 401.772 118.972 402.034 118.972 402.323V409.043C118.972 409.672 118.289 410.061 117.748 409.741Z" fill="#00201D"/>
<path d="M121.449 411.951L121.107 411.747C120.866 411.6 120.719 411.337 120.719 411.054V404.35C120.719 403.72 121.412 403.331 121.953 403.657L122.294 403.861C122.536 404.008 122.683 404.271 122.683 404.554V411.258C122.683 411.888 121.99 412.277 121.449 411.951Z" fill="#00201D"/>
<path d="M58.2116 373.97C56.2841 372.836 54.6875 370.327 54.6875 368.4C54.6875 366.473 56.2788 365.796 58.2116 366.93L78.4893 378.81C80.4168 379.944 82.0134 382.453 82.0134 384.38C82.0134 386.307 80.422 386.984 78.4893 385.85" fill="#00201D"/>
<path d="M17.2381 350.015L16.8705 349.794C16.6289 349.647 16.4766 349.385 16.4766 349.101V342.387C16.4766 341.757 17.1646 341.368 17.7055 341.694L18.0732 341.914C18.3147 342.061 18.467 342.324 18.467 342.607V349.322C18.467 349.952 17.779 350.34 17.2381 350.015Z" fill="#00201D"/>
<path d="M20.9436 352.225L20.6023 352.026C20.3554 351.879 20.2031 351.616 20.2031 351.327V344.608C20.2031 343.978 20.8859 343.589 21.4268 343.91L21.7682 344.109C22.015 344.256 22.1674 344.519 22.1674 344.807V351.527C22.1674 352.157 21.4846 352.545 20.9436 352.225Z" fill="#00201D"/>
<path d="M24.6441 354.44L24.3027 354.235C24.0611 354.088 23.9141 353.825 23.9141 353.542V346.838C23.9141 346.208 24.6073 345.819 25.1483 346.145L25.4896 346.35C25.7312 346.497 25.8783 346.759 25.8783 347.043V353.747C25.8783 354.377 25.185 354.765 24.6441 354.44Z" fill="#00201D"/>
<path d="M28.3918 356.681L28.0241 356.465C27.7773 356.318 27.625 356.056 27.625 355.767V349.042C27.625 348.418 28.3025 348.029 28.8435 348.344L29.2111 348.559C29.4579 348.706 29.6102 348.969 29.6102 349.258V355.982C29.6102 356.607 28.9327 356.996 28.3918 356.681Z" fill="#00201D"/>
<path d="M32.0897 358.892L31.722 358.671C31.4804 358.524 31.3281 358.262 31.3281 357.978V351.264C31.3281 350.634 32.0161 350.245 32.5571 350.571L32.9247 350.791C33.1663 350.938 33.3186 351.201 33.3186 351.484V358.199C33.3186 358.829 32.6306 359.217 32.0897 358.892Z" fill="#00201D"/>
<path d="M35.803 361.108L35.4616 360.908C35.2148 360.761 35.0625 360.499 35.0625 360.21V353.491C35.0625 352.861 35.7453 352.472 36.2862 352.792L36.6276 352.992C36.8744 353.139 37.0267 353.401 37.0267 353.69V360.41C37.0267 361.04 36.344 361.428 35.803 361.108Z" fill="#00201D"/>
<path d="M39.5062 363.311L39.1648 363.112C38.9179 362.965 38.7656 362.702 38.7656 362.414V355.715C38.7656 355.085 39.4589 354.696 39.9998 355.022L40.3412 355.227C40.5828 355.374 40.7299 355.636 40.7299 355.92V362.613C40.7299 363.243 40.0471 363.631 39.5062 363.311Z" fill="#00201D"/>
<path d="M43.2381 365.538L42.8705 365.318C42.6289 365.171 42.4766 364.908 42.4766 364.625V357.91C42.4766 357.28 43.1646 356.892 43.7055 357.217L44.0732 357.438C44.3147 357.585 44.4671 357.847 44.4671 358.131V364.845C44.4671 365.475 43.779 365.864 43.2381 365.538Z" fill="#00201D"/>
<path d="M46.9515 367.749L46.6101 367.549C46.3632 367.402 46.2109 367.14 46.2109 366.851V360.131C46.2109 359.501 46.8937 359.113 47.4346 359.433L47.776 359.632C48.0229 359.779 48.1752 360.042 48.1752 360.331V367.05C48.1752 367.68 47.4924 368.069 46.9515 367.749Z" fill="#00201D"/>
</g>
<defs>
<clipPath id="clip0_14902_17136">
<rect width="498" height="434" fill="white"/>
</clipPath>
</defs>
</svg>
