<svg width="191" height="219" viewBox="0 0 191 219" fill="none" xmlns="http://www.w3.org/2000/svg">
<g clip-path="url(#clip0_14983_12110)">
<path d="M113.006 190.013C98.6695 200.229 81.5443 210.236 61.2539 219L49.8506 209.282C70.141 200.514 87.2662 190.512 101.603 180.295L113.006 190.013ZM24.0459 172.578C33.8309 179.271 46.2902 182.931 60.8555 182.63C61.1561 182.622 61.461 182.593 61.7744 182.589L73.1787 192.307C72.8651 192.315 72.5597 192.344 72.2588 192.348C57.6936 192.649 45.2342 188.989 35.4492 182.296L24.0459 172.578ZM178.633 117.686C176.794 121.61 159.347 156.981 113.02 190L101.615 180.282C147.94 147.269 165.388 111.896 167.229 107.969L178.633 117.686ZM19.6797 169.24C21.0696 170.424 22.5236 171.538 24.0449 172.578L35.4492 182.296C33.9279 181.256 32.4697 180.142 31.084 178.958L19.6797 169.24ZM171.291 23.0986C189.789 38.8325 196.442 66.9327 186.187 99.2871C184.182 105.576 181.643 111.736 178.639 117.687L167.235 107.969C170.24 102.019 172.778 95.8578 174.782 89.5693C185.038 57.2147 178.38 29.1146 159.887 13.3809L171.291 23.0986Z" fill="#FF003D"/>
<path d="M113.006 190.013L113.296 190.42C113.421 190.33 113.499 190.188 113.505 190.034C113.512 189.88 113.447 189.732 113.33 189.632L113.006 190.013ZM61.2539 219L60.9296 219.381C61.0746 219.504 61.2773 219.535 61.4522 219.459L61.2539 219ZM49.8506 209.282L49.6522 208.823C49.4937 208.892 49.3817 209.037 49.3561 209.208C49.3305 209.379 49.3948 209.551 49.5263 209.663L49.8506 209.282ZM101.603 180.295L101.927 179.914C101.752 179.766 101.499 179.755 101.312 179.888L101.603 180.295ZM24.0459 172.578L24.3282 172.165C24.1087 172.015 23.8102 172.063 23.6487 172.274C23.4872 172.486 23.5192 172.786 23.7216 172.959L24.0459 172.578ZM60.8555 182.63L60.8658 183.13L60.8692 183.13L60.8555 182.63ZM61.7744 182.589L62.0987 182.208C62.0065 182.13 61.8889 182.087 61.7678 182.089L61.7744 182.589ZM73.1787 192.307L73.1919 192.806C73.3989 192.801 73.5811 192.669 73.6501 192.473C73.7191 192.278 73.6606 192.06 73.503 191.926L73.1787 192.307ZM72.2588 192.348L72.2519 191.848L72.2485 191.848L72.2588 192.348ZM178.633 117.686L179.086 117.898C179.181 117.694 179.129 117.451 178.957 117.305L178.633 117.686ZM113.02 190L112.695 190.381C112.87 190.529 113.123 190.54 113.31 190.407L113.02 190ZM101.615 180.282L101.325 179.875C101.2 179.964 101.122 180.107 101.116 180.261C101.109 180.415 101.174 180.563 101.291 180.663L101.615 180.282ZM167.229 107.969L167.553 107.588C167.434 107.487 167.275 107.447 167.123 107.48C166.97 107.513 166.842 107.615 166.776 107.757L167.229 107.969ZM19.6797 169.24L20.004 168.86C19.7938 168.681 19.4782 168.706 19.2991 168.916C19.12 169.126 19.1452 169.442 19.3554 169.621L19.6797 169.24ZM24.0449 172.578L24.3692 172.198C24.3557 172.186 24.3417 172.175 24.3271 172.165L24.0449 172.578ZM31.084 178.958L31.4088 178.578L31.4083 178.577L31.084 178.958ZM171.291 23.0986L170.967 23.4792L170.967 23.4795L171.291 23.0986ZM186.187 99.2871L186.663 99.439L186.663 99.4382L186.187 99.2871ZM178.639 117.687L178.314 118.067C178.431 118.167 178.587 118.207 178.737 118.177C178.888 118.146 179.016 118.049 179.085 117.912L178.639 117.687ZM167.235 107.969L166.789 107.743C166.685 107.949 166.735 108.2 166.911 108.349L167.235 107.969ZM174.782 89.5693L175.259 89.7212L175.259 89.7204L174.782 89.5693ZM159.887 13.3809L160.211 13C160 12.8211 159.685 12.8465 159.506 13.0567C159.327 13.2669 159.352 13.5824 159.562 13.7614L159.887 13.3809ZM113.006 190.013L112.716 189.606C98.4071 199.802 81.3126 209.791 61.0556 218.541L61.2539 219L61.4522 219.459C81.776 210.68 98.9319 200.656 113.296 190.42L113.006 190.013ZM61.2539 219L61.5782 218.619L50.1749 208.902L49.8506 209.282L49.5263 209.663L60.9296 219.381L61.2539 219ZM49.8506 209.282L50.0489 209.741C70.3726 200.958 87.5285 190.939 101.893 180.702L101.603 180.295L101.312 179.888C87.0038 190.085 69.9093 200.069 49.6522 208.823L49.8506 209.282ZM101.603 180.295L101.278 180.675L112.682 190.393L113.006 190.013L113.33 189.632L101.927 179.914L101.603 180.295ZM24.0459 172.578L23.7636 172.991C33.6449 179.75 46.2094 183.433 60.8658 183.13L60.8555 182.63L60.8451 182.13C46.371 182.429 34.017 178.793 24.3282 172.165L24.0459 172.578ZM60.8555 182.63L60.8692 183.13C61.0287 183.125 61.189 183.116 61.3386 183.107C61.4914 183.098 61.6363 183.091 61.781 183.089L61.7744 182.589L61.7678 182.089C61.5992 182.091 61.435 182.1 61.2818 182.109C61.1254 182.118 60.9829 182.126 60.8417 182.13L60.8555 182.63ZM61.7744 182.589L61.4501 182.969L72.8544 192.687L73.1787 192.307L73.503 191.926L62.0987 182.208L61.7744 182.589ZM73.1787 192.307L73.1656 191.807C72.9995 191.811 72.8362 191.821 72.6856 191.829C72.5319 191.838 72.3903 191.846 72.2519 191.848L72.2588 192.348L72.2656 192.848C72.4282 192.845 72.5897 192.837 72.7424 192.828C72.8981 192.819 73.0443 192.81 73.1919 192.806L73.1787 192.307ZM72.2588 192.348L72.2485 191.848C57.7744 192.147 45.4203 188.51 35.7315 181.883L35.4492 182.296L35.1669 182.709C45.0482 189.467 57.6128 193.151 72.2691 192.848L72.2588 192.348ZM35.4492 182.296L35.7735 181.915L24.3702 172.198L24.0459 172.578L23.7216 172.959L35.1249 182.676L35.4492 182.296ZM178.633 117.686L178.18 117.473C176.365 121.345 158.967 156.638 112.729 189.593L113.02 190L113.31 190.407C159.727 157.324 177.222 121.874 179.086 117.898L178.633 117.686ZM113.02 190L113.344 189.619L101.94 179.902L101.615 180.282L101.291 180.663L112.695 190.381L113.02 190ZM101.615 180.282L101.905 180.689C148.32 147.612 165.816 112.16 167.681 108.181L167.229 107.969L166.776 107.757C164.96 111.631 147.56 146.926 101.325 179.875L101.615 180.282ZM167.229 107.969L166.904 108.349L178.309 118.066L178.633 117.686L178.957 117.305L167.553 107.588L167.229 107.969ZM19.6797 169.24L19.3554 169.621C20.7586 170.816 22.2266 171.941 23.7628 172.991L24.0449 172.578L24.3271 172.165C22.8206 171.136 21.3807 170.033 20.004 168.86L19.6797 169.24ZM24.0449 172.578L23.7206 172.959L35.1249 182.676L35.4492 182.296L35.7735 181.915L24.3692 172.198L24.0449 172.578ZM35.4492 182.296L35.7314 181.883C34.2245 180.853 32.7806 179.75 31.4088 178.578L31.084 178.958L30.7591 179.338C32.1588 180.534 33.6313 181.659 35.1671 182.709L35.4492 182.296ZM31.084 178.958L31.4083 178.577L20.004 168.86L19.6797 169.24L19.3554 169.621L30.7597 179.339L31.084 178.958ZM171.291 23.0986L170.967 23.4795C189.268 39.0459 195.924 66.9124 185.71 99.136L186.187 99.2871L186.663 99.4382C196.96 66.9529 190.309 38.619 171.615 22.7178L171.291 23.0986ZM186.187 99.2871L185.71 99.1353C183.714 105.398 181.185 111.534 178.192 117.461L178.639 117.687L179.085 117.912C182.101 111.939 184.65 105.754 186.663 99.439L186.187 99.2871ZM178.639 117.687L178.963 117.306L167.56 107.588L167.235 107.969L166.911 108.349L178.314 118.067L178.639 117.687ZM167.235 107.969L167.682 108.194C170.698 102.221 173.246 96.0359 175.259 89.7212L174.782 89.5693L174.306 89.4175C172.31 95.6797 169.782 101.816 166.789 107.743L167.235 107.969ZM174.782 89.5693L175.259 89.7204C185.556 57.2349 178.901 28.9012 160.211 13L159.887 13.3809L159.563 13.7617C177.86 29.328 184.519 57.1946 174.306 89.4183L174.782 89.5693ZM159.887 13.3809L159.562 13.7614L170.967 23.4792L171.291 23.0986L171.615 22.7181L160.211 13.0003L159.887 13.3809Z" fill="#082422"/>
<path d="M31.0758 178.96L19.6719 169.242C21.0619 170.426 22.5154 171.541 24.0368 172.58L35.4407 182.298C33.9193 181.258 32.4615 180.144 31.0758 178.96Z" fill="#009464"/>
<path d="M61.7681 182.591L73.172 192.308C72.8584 192.316 72.5533 192.345 72.2524 192.349C57.6871 192.651 45.228 188.991 35.443 182.298L24.0391 172.58C33.8241 179.273 46.2832 182.933 60.8485 182.632C61.1494 182.624 61.4545 182.595 61.7681 182.591Z" fill="#BFBBB8"/>
<path d="M101.588 180.295L112.992 190.012C98.6553 200.229 81.5304 210.236 61.2398 219L49.8359 209.283C70.1265 200.514 87.2514 190.512 101.588 180.295Z" fill="#BFBBB8"/>
<path d="M186.175 99.2873C184.17 105.576 181.632 111.737 178.627 117.687L167.223 107.969C170.228 102.019 172.766 95.8583 174.771 89.5698C185.026 57.2151 178.369 29.1146 159.875 13.3809L171.279 23.0984C189.777 38.8322 196.43 66.9326 186.175 99.2873Z" fill="#970024"/>
<path d="M167.223 107.969L178.627 117.686C176.788 121.61 159.341 156.982 113.013 190.001L101.609 180.283C147.937 147.268 165.384 111.893 167.223 107.969Z" fill="#970024"/>
<path fill-rule="evenodd" clip-rule="evenodd" d="M118.73 0.0172203C133.304 -0.283934 145.771 3.37666 155.56 10.0778H155.555C177.287 24.96 185.787 54.8053 174.771 89.568C172.767 95.8565 170.229 102.017 167.224 107.967C165.385 111.892 147.937 147.263 101.61 180.282L124.116 109.256L101.596 180.294C87.2598 190.51 70.1348 200.517 49.8443 209.281L61.7691 182.588C61.4557 182.596 61.1508 182.625 60.8502 182.63C46.74 182.921 34.6061 179.495 24.9654 173.196L24.0406 172.578L23.0318 171.87C2.04816 156.772 -6.03204 127.305 4.81404 93.0758C15.8366 58.3031 43.5089 27.6971 75.0211 11.7282C89.2007 4.54418 104.161 0.318444 118.73 0.0172203ZM112.28 66.0612C118.299 71.1072 120.481 80.1891 117.163 90.6539C112.018 106.883 95.6088 120.289 80.5054 120.598C72.0888 120.771 65.8569 116.841 62.8775 110.519C65.8554 116.845 72.0893 120.779 80.5093 120.606L81.2183 120.578C96.1228 119.869 112.101 106.632 117.166 90.6569C120.484 80.1881 118.301 71.1059 112.28 66.0612Z" fill="#532811"/>
<path d="M118.73 0.0172203L118.72 -0.482673V-0.482673L118.73 0.0172203ZM155.56 10.0778V10.5778C155.779 10.5778 155.973 10.435 156.038 10.2256C156.103 10.0162 156.023 9.789 155.843 9.66518L155.56 10.0778ZM155.555 10.0778V9.57777C155.336 9.57777 155.142 9.72052 155.078 9.9299C155.013 10.1393 155.092 10.3665 155.273 10.4903L155.555 10.0778ZM174.771 89.568L175.247 89.7198L175.248 89.719L174.771 89.568ZM167.224 107.967L166.778 107.742C166.776 107.746 166.774 107.751 166.771 107.755L167.224 107.967ZM101.61 180.282L101.133 180.131C101.068 180.336 101.142 180.56 101.316 180.686C101.49 180.813 101.725 180.814 101.9 180.689L101.61 180.282ZM124.116 109.256L124.592 109.407C124.676 109.143 124.53 108.862 124.267 108.779C124.004 108.695 123.723 108.841 123.639 109.104L124.116 109.256ZM101.596 180.294L101.886 180.701C101.975 180.638 102.04 180.548 102.073 180.445L101.596 180.294ZM49.8443 209.281L49.3878 209.077C49.3037 209.265 49.3437 209.486 49.4886 209.632C49.6334 209.779 49.8534 209.822 50.0426 209.74L49.8443 209.281ZM61.7691 182.588L62.2256 182.791C62.2957 182.635 62.2803 182.453 62.185 182.31C62.0896 182.167 61.9276 182.083 61.7559 182.088L61.7691 182.588ZM60.8502 182.63L60.8433 182.13L60.8398 182.13L60.8502 182.63ZM24.9654 173.196L24.6875 173.612L24.6919 173.615L24.9654 173.196ZM24.0406 172.578L23.7533 172.987L23.7627 172.993L24.0406 172.578ZM23.0318 171.87L22.7398 172.276L22.7446 172.279L23.0318 171.87ZM4.81404 93.0758L4.33741 92.9247L4.33739 92.9248L4.81404 93.0758ZM75.0211 11.7282L74.7951 11.2821L74.7951 11.2822L75.0211 11.7282ZM112.28 66.0612L112.601 65.6779C112.389 65.5006 112.074 65.5284 111.897 65.74C111.719 65.9516 111.747 66.2669 111.959 66.4443L112.28 66.0612ZM117.163 90.6539L116.686 90.5028L116.686 90.5028L117.163 90.6539ZM80.5054 120.598L80.5157 121.098V121.098L80.5054 120.598ZM62.8775 110.519L63.3298 110.306C63.2121 110.056 62.9142 109.949 62.6645 110.067C62.4147 110.184 62.3075 110.482 62.4251 110.732L62.8775 110.519ZM80.5093 120.606L80.5196 121.106L80.5293 121.106L80.5093 120.606ZM81.2183 120.578L81.2383 121.077L81.2421 121.077L81.2183 120.578ZM117.166 90.6569L117.642 90.808V90.808L117.166 90.6569ZM118.73 0.0172203L118.74 0.517114C133.223 0.217841 145.585 3.85523 155.278 10.4904L155.56 10.0778L155.843 9.66518C145.957 2.89809 133.384 -0.78571 118.72 -0.482673L118.73 0.0172203ZM155.56 10.0778V9.57777H155.555V10.0778V10.5778H155.56V10.0778ZM155.555 10.0778L155.273 10.4903C176.769 25.2111 185.266 54.7947 174.294 89.417L174.771 89.568L175.248 89.719C186.309 54.816 177.805 24.7089 155.838 9.66523L155.555 10.0778ZM174.771 89.568L174.295 89.4162C172.299 95.6784 169.771 101.815 166.778 107.742L167.224 107.967L167.671 108.193C170.687 102.22 173.235 96.0345 175.247 89.7198L174.771 89.568ZM167.224 107.967L166.771 107.755C164.957 111.627 147.557 146.92 101.32 179.875L101.61 180.282L101.9 180.689C148.317 147.606 165.813 112.157 167.677 108.18L167.224 107.967ZM101.61 180.282L102.087 180.433L124.592 109.407L124.116 109.256L123.639 109.104L101.133 180.131L101.61 180.282ZM124.116 109.256L123.639 109.104L101.12 180.143L101.596 180.294L102.073 180.445L124.592 109.407L124.116 109.256ZM101.596 180.294L101.306 179.886C86.9974 190.083 69.9032 200.072 49.646 208.822L49.8443 209.281L50.0426 209.74C70.3665 200.961 87.5222 190.937 101.886 180.701L101.596 180.294ZM49.8443 209.281L50.3008 209.485L62.2256 182.791L61.7691 182.588L61.3126 182.384L49.3878 209.077L49.8443 209.281ZM61.7691 182.588L61.7559 182.088C61.5895 182.092 61.426 182.102 61.2757 182.111C61.1221 182.12 60.9811 182.128 60.8433 182.13L60.8502 182.63L60.857 183.129C61.02 183.127 61.1817 183.118 61.3341 183.109C61.4897 183.1 61.6353 183.091 61.7823 183.087L61.7691 182.588ZM60.8502 182.63L60.8398 182.13C46.8178 182.42 34.7854 179.015 25.2389 172.777L24.9654 173.196L24.6919 173.615C34.4267 179.975 46.6621 183.423 60.8605 183.129L60.8502 182.63ZM24.9654 173.196L25.2433 172.78L24.3185 172.162L24.0406 172.578L23.7627 172.993L24.6875 173.612L24.9654 173.196ZM24.0406 172.578L24.3278 172.169L23.319 171.46L23.0318 171.87L22.7446 172.279L23.7534 172.987L24.0406 172.578ZM23.0318 171.87L23.3238 171.464C2.56714 156.53 -5.51159 127.318 5.29068 93.2268L4.81404 93.0758L4.33739 92.9248C-6.55249 127.292 1.52918 157.015 22.7398 172.276L23.0318 171.87ZM4.81404 93.0758L5.29066 93.2269C16.2696 58.5917 43.8454 28.0871 75.2471 12.1742L75.0211 11.7282L74.7951 11.2822C43.1724 27.3071 15.4035 58.0145 4.33741 92.9247L4.81404 93.0758ZM75.0211 11.7282L75.247 12.1742C89.3728 5.01752 104.259 0.81651 118.74 0.517113L118.73 0.0172203L118.72 -0.482673C104.062 -0.179623 89.0286 4.07085 74.7951 11.2821L75.0211 11.7282ZM112.28 66.0612L111.959 66.4443C117.778 71.3232 119.963 80.1695 116.686 90.5028L117.163 90.6539L117.639 90.8051C120.999 80.2087 118.819 70.8912 112.601 65.678L112.28 66.0612ZM117.163 90.6539L116.686 90.5028C114.147 98.5133 108.82 105.843 102.252 111.209C95.6819 116.576 87.9081 119.946 80.4952 120.098L80.5054 120.598L80.5157 121.098C88.2062 120.941 96.1886 117.453 102.885 111.983C109.584 106.511 115.034 99.0233 117.639 90.805L117.163 90.6539ZM80.5054 120.598L80.4952 120.098C72.2563 120.267 66.2171 116.432 63.3298 110.306L62.8775 110.519L62.4252 110.732C65.4967 117.249 71.9212 121.274 80.5157 121.098L80.5054 120.598ZM62.8775 110.519L62.4251 110.732C65.4951 117.254 71.9217 121.282 80.5196 121.106L80.5093 120.606L80.4991 120.106C72.257 120.275 66.2158 116.437 63.3299 110.306L62.8775 110.519ZM80.5093 120.606L80.5293 121.106L81.2383 121.077L81.2183 120.578L81.1984 120.078L80.4894 120.106L80.5093 120.606ZM81.2183 120.578L81.2421 121.077C88.828 120.716 96.6492 117.173 103.202 111.727C109.756 106.279 115.078 98.898 117.642 90.808L117.166 90.6569L116.689 90.5058C114.189 98.391 108.989 105.616 102.562 110.958C96.1335 116.301 88.5131 119.73 81.1946 120.078L81.2183 120.578ZM117.166 90.6569L117.642 90.808C121.003 80.2076 118.821 70.8899 112.601 65.6779L112.28 66.0612L111.959 66.4444C117.78 71.322 119.966 80.1685 116.689 90.5058L117.166 90.6569Z" fill="#082422"/>
<path d="M75.0215 11.7305L24.0409 172.58C2.3095 157.708 -6.20422 127.85 4.81403 93.0773C15.8365 58.3046 43.5093 27.6994 75.0215 11.7305Z" fill="#009464"/>
<path d="M155.555 10.0792L101.595 180.295C87.2584 190.512 70.1335 200.518 49.843 209.283L61.7681 182.589C61.4545 182.598 61.1494 182.627 60.8485 182.631C46.2832 182.932 33.8241 179.272 24.0391 172.579L75.0197 11.7298C89.1993 4.54579 104.159 0.320407 118.728 0.0191832C133.302 -0.28204 145.77 3.37803 155.559 10.0792H155.555ZM80.5076 120.603C95.6111 120.29 112.02 106.887 117.164 90.6586C122.309 74.4296 114.232 61.5307 99.1327 61.8443C84.0292 62.1579 67.6205 75.5603 62.4758 91.7892C57.3311 108.018 65.4041 120.917 80.5076 120.608" fill="white"/>
<path d="M155.544 10.0703C177.284 24.9499 185.789 54.7999 174.771 89.5686C172.766 95.8571 170.228 102.018 167.223 107.968C165.384 111.892 147.937 147.263 101.609 180.282L155.544 10.0703Z" fill="#FF003D"/>
<path d="M99.1296 61.8396C114.233 61.526 122.306 74.4291 117.161 90.6539C112.017 106.883 95.608 120.289 80.5045 120.599C65.4011 120.908 57.3281 108.009 62.4728 91.7804C67.6132 75.5556 84.0261 62.1491 99.1296 61.8355V61.8396Z" fill="#532811"/>
</g>
<defs>
<clipPath id="clip0_14983_12110">
<rect width="191" height="219" fill="white"/>
</clipPath>
</defs>
</svg>
