<svg width="186" height="205" viewBox="0 0 186 205" fill="none" xmlns="http://www.w3.org/2000/svg">
<g clip-path="url(#clip0_14983_12105)">
<mask id="mask0_14983_12105" style="mask-type:luminance" maskUnits="userSpaceOnUse" x="9" y="0" width="177" height="205">
<path d="M185.676 89.1158C185.676 39.9044 146.326 0.00390625 97.7817 0.00390625C49.2377 0.00390625 9.89844 39.9044 9.89844 89.1158C9.89844 138.327 49.2488 178.228 97.7817 178.228C98.0926 178.228 98.4035 178.205 98.7255 178.205L85.1328 204.19H95.1169C172.197 169.502 183.078 112.038 183.888 107.039C185.054 101.253 185.665 95.2517 185.665 89.1158H185.676Z" fill="white"/>
</mask>
<g mask="url(#mask0_14983_12105)">
<path d="M210.692 48.3477L-15.1172 48.3477L-15.1172 132.81L210.692 132.81L210.692 48.3477Z" fill="#EAEAEA"/>
<path d="M210.684 208.32L210.684 146.216L168.756 123.949L-15.125 123.857L-15.125 208.32L210.684 208.32Z" fill="#004687"/>
<path d="M210.684 -27.1699L-15.125 -27.1699L-15.125 57.2922L169.856 57.2922L210.684 79.6506L210.684 -27.1699Z" fill="#004687"/>
</g>
<path d="M185.676 89.1158C185.676 39.9044 146.326 0.00390625 97.7817 0.00390625C49.2377 0.00390625 9.89844 39.9044 9.89844 89.1158C9.89844 138.327 49.2488 178.228 97.7817 178.228C98.0926 178.228 98.4035 178.205 98.7255 178.205L85.683 204.19H95.1169C172.197 169.502 183.078 112.038 183.888 107.039C185.054 101.253 185.665 95.2517 185.665 89.1158H185.676Z" stroke="black" stroke-width="0.558962" stroke-miterlimit="10"/>
<mask id="mask1_14983_12105" style="mask-type:luminance" maskUnits="userSpaceOnUse" x="0" y="0" width="176" height="205">
<path d="M175.778 89.1119C175.778 39.9005 136.427 0 87.8832 0C39.3393 0 0 39.9005 0 89.1119C0 138.323 39.3504 178.224 87.8832 178.224C88.1941 178.224 88.505 178.201 88.827 178.201L85.2184 204.186C162.298 169.498 173.179 112.034 173.99 107.036C175.156 101.249 175.766 95.2478 175.766 89.1119H175.778Z" fill="white"/>
</mask>
<g mask="url(#mask1_14983_12105)">
<path d="M200.802 48.3398L-25.0078 48.3398L-25.0078 132.802L200.802 132.802L200.802 48.3398Z" fill="white"/>
<path d="M96.4427 79.2446C97.7257 81.169 98.5504 83.46 98.5504 85.9343C98.5504 92.2575 93.5102 97.3893 87.3703 97.3893C81.2305 97.3893 76.1902 92.2575 76.1902 85.9343C76.1902 83.46 77.015 81.169 78.298 79.2446L69.6838 70.3555C66.2015 74.5709 64.0938 79.9777 64.0938 85.9343C64.0938 99.1305 74.5407 109.852 87.462 109.852C100.383 109.852 110.83 99.1305 110.83 85.9343C110.83 79.9777 108.723 74.5709 105.24 70.3555L96.4427 79.2446Z" fill="#FFDA44"/>
<path d="M76.8281 90.0586C78.4776 94.3657 82.5098 97.3898 87.2751 97.3898C92.0404 97.3898 96.0726 94.3657 97.7221 90.0586L76.8281 90.0586Z" fill="#6DA544"/>
<path d="M87.2753 90.0576H79.2109L83.2431 82.9096L87.2753 75.7617L91.3074 82.9096L95.3396 90.0576H87.2753Z" fill="#FFDA44"/>
<path d="M200.794 123.852L-25.0156 123.852L-25.0156 208.314L200.794 208.314L200.794 123.852Z" fill="#0067C6"/>
<path d="M200.794 -27.1758L-25.0156 -27.1758L-25.0156 57.2863L200.794 57.2863L200.794 -27.1758Z" fill="#0067C6"/>
</g>
<path d="M175.778 89.1119C175.778 39.9005 136.427 0 87.8832 0C39.3393 0 0 39.9005 0 89.1119C0 138.323 39.3504 178.224 87.8832 178.224C88.1941 178.224 88.505 178.201 88.827 178.201L85.2184 204.186C162.298 169.498 173.179 112.034 173.99 107.036C175.156 101.249 175.766 95.2478 175.766 89.1119H175.778Z" stroke="black" stroke-width="0.558962" stroke-miterlimit="10"/>
</g>
<defs>
<clipPath id="clip0_14983_12105">
<rect width="185.676" height="204.19" fill="white"/>
</clipPath>
</defs>
</svg>
