<svg width="209" height="228" viewBox="0 0 209 228" fill="none" xmlns="http://www.w3.org/2000/svg">
<g clip-path="url(#clip0_14983_12107)">
<mask id="mask0_14983_12107" style="mask-type:luminance" maskUnits="userSpaceOnUse" x="15" y="5" width="189" height="219">
<path d="M203.614 100.777C203.614 48.1641 161.544 5.50586 109.645 5.50586C57.7458 5.50586 15.6875 48.1641 15.6875 100.777C15.6875 153.389 57.7576 196.048 109.645 196.048C109.977 196.048 110.31 196.024 110.654 196.024L96.1218 223.805H106.796C189.203 186.719 200.836 125.284 201.703 119.939C202.949 113.752 203.602 107.337 203.602 100.777H203.614Z" fill="white"/>
</mask>
<g mask="url(#mask0_14983_12107)">
<path d="M230.362 57.1914L-11.0547 57.1914L-11.0547 147.491L230.362 147.491L230.362 57.1914Z" fill="#EAEAEA"/>
<path d="M230.362 228.218L230.362 161.822L185.535 138.016L-11.0547 137.918L-11.0547 228.218L230.362 228.218Z" fill="#004687"/>
<path d="M230.362 -23.5488L-11.0547 -23.5488L-11.0547 66.7509L186.712 66.7509L230.362 90.6548L230.362 -23.5488Z" fill="#004687"/>
</g>
<path d="M203.614 100.777C203.614 48.1641 161.544 5.50586 109.645 5.50586C57.7458 5.50586 15.6875 48.1641 15.6875 100.777C15.6875 153.389 57.7576 196.048 109.645 196.048C109.977 196.048 110.31 196.024 110.654 196.024L96.71 223.804H106.796C189.203 186.719 200.836 125.284 201.703 119.939C202.949 113.752 203.602 107.337 203.602 100.777H203.614Z" stroke="#082422" stroke-miterlimit="10" stroke-linejoin="round"/>
<ellipse cx="109.662" cy="102.159" rx="29.4118" ry="29.8798" stroke="#FFDD3F" stroke-linejoin="round"/>
<path d="M95.142 106.002L105.653 89.1283C107.412 86.3036 111.517 86.2828 113.305 89.0895L124.054 105.963C125.972 108.974 123.81 112.915 120.24 112.915H98.9804C95.4317 112.915 93.2658 109.014 95.142 106.002Z" fill="#02B55B"/>
<mask id="mask1_14983_12107" style="mask-type:luminance" maskUnits="userSpaceOnUse" x="5" y="5" width="189" height="219">
<path d="M193.044 100.775C193.044 48.1622 150.974 5.50391 99.0746 5.50391C47.1754 5.50391 5.11719 48.1622 5.11719 100.775C5.11719 153.388 47.1873 196.046 99.0746 196.046C99.407 196.046 99.7394 196.022 100.084 196.022L96.2256 223.803C178.633 186.717 190.266 125.282 191.133 119.937C192.379 113.75 193.032 107.335 193.032 100.775L193.044 100.775Z" fill="white"/>
</mask>
<g mask="url(#mask1_14983_12107)">
<path d="M219.792 57.1934L-21.625 57.1934L-21.625 147.493L219.792 147.493L219.792 57.1934Z" fill="white"/>
<path d="M219.792 137.92L-21.625 137.92L-21.625 228.22L219.792 228.22L219.792 137.92Z" fill="#0067C6"/>
<path d="M219.792 -23.5449L-21.625 -23.5449L-21.625 66.7549L219.792 66.7549L219.792 -23.5449Z" fill="#0067C6"/>
</g>
<path d="M193.044 100.775C193.044 48.1622 150.974 5.50391 99.0746 5.50391C47.1754 5.50391 5.11719 48.1622 5.11719 100.775C5.11719 153.388 47.1873 196.046 99.0746 196.046C99.407 196.046 99.7393 196.022 100.084 196.022L96.2256 223.803C178.633 186.717 190.266 125.282 191.133 119.937C192.379 113.75 193.032 107.335 193.032 100.775L193.044 100.775Z" stroke="#082422" stroke-miterlimit="10" stroke-linejoin="round"/>
<path d="M120.487 102.159C120.487 89.9559 110.783 80.2795 99.0762 80.2793C87.3694 80.2793 77.6641 89.9558 77.6641 102.159C77.6641 114.363 87.3694 124.039 99.0762 124.039L99.0762 132.039L98.3164 132.029C82.6761 131.627 70.0703 118.82 69.6738 102.931L69.6641 102.159C69.6641 85.657 82.8325 72.2793 99.0762 72.2793L99.835 72.2891C115.728 72.6981 128.487 85.9149 128.487 102.159L128.478 102.931C128.075 119.076 115.066 132.039 99.0762 132.039L99.0762 124.039C110.783 124.039 120.487 114.362 120.487 102.159Z" fill="#FFDD3F"/>
<path d="M84.5561 106.002L95.0667 89.1283C96.8261 86.3036 100.931 86.2828 102.719 89.0895L113.468 105.963C115.386 108.974 113.224 112.915 109.654 112.915L88.3945 112.915C84.8457 112.915 82.6798 109.014 84.5561 106.002Z" fill="#02B55B"/>
</g>
<defs>
<clipPath id="clip0_14983_12107">
<rect width="209" height="228" fill="white"/>
</clipPath>
</defs>
</svg>
