<svg width="194" height="206" viewBox="0 0 194 206" fill="none" xmlns="http://www.w3.org/2000/svg">
<g clip-path="url(#clip0_14983_12108)">
<mask id="mask0_14983_12108" style="mask-type:alpha" maskUnits="userSpaceOnUse" x="14" y="0" width="180" height="206">
<path d="M193.387 89.3233C193.387 39.9839 153.419 0.015625 103.967 0.015625C54.6278 0.015625 14.5469 39.9839 14.5469 89.3233C14.5469 138.663 54.5149 178.631 103.967 178.631C104.306 178.631 104.644 178.631 104.87 178.631L86.7073 205.85H100.692C179.047 171.075 190.677 112.356 191.581 107.275C192.823 101.517 193.387 95.533 193.387 89.3233Z" fill="#CF3535"/>
</mask>
<g mask="url(#mask0_14983_12108)">
<path d="M109.641 -0.00195312L204.736 -0.00195312V70.4806L177.326 70.4806H109.641L109.641 -0.00195312Z" fill="#CE4747"/>
<path d="M176.77 70.4807L198.027 59.293V111.875H176.211L176.77 70.4807Z" fill="#E4E4E4"/>
<path d="M177.319 111.873L198.031 100.686V200.256L120.836 201.934L109.648 192.984L177.319 111.873Z" fill="#0049A9"/>
<path d="M86.1453 195.783L109.639 192.986L120.827 202.496L101.808 205.852L85.5859 206.412L86.1453 195.783Z" fill="#E4E4E4"/>
</g>
<path d="M193.387 89.3252C193.387 39.9858 153.419 0.0175781 103.967 0.0175781C54.6278 0.0175781 14.5469 39.9858 14.5469 89.3252C14.5469 138.665 54.5149 178.633 103.967 178.633C104.306 178.633 104.644 178.633 104.87 178.633L86.7073 205.852H100.692C179.047 171.077 190.677 112.358 191.581 107.277C192.823 101.519 193.387 95.535 193.387 89.3252Z" stroke="#082422" stroke-miterlimit="10"/>
<path d="M68.29 111.855L68.29 176.092C36.3993 168.327 11.2535 143.508 3.03125 111.855H68.29Z" fill="#FF5757"/>
<path d="M109.844 2.32422C143.39 10.0737 169.66 36.6449 176.96 70.3018H109.844L109.844 2.32422Z" fill="#FF5757"/>
<path d="M68.2783 70.3018H2.17969C9.42082 36.9962 35.2719 10.6287 68.2783 2.57227L68.2783 70.3018Z" fill="#0066ED"/>
<path d="M176.185 111.748C172.75 125.051 159.088 163.218 109.836 192.82L109.836 111.748H176.185Z" fill="#0066ED"/>
<path d="M176.801 70.3215L110.029 70.4826L110.029 2.23754C105.287 1.44721 98.8415 0 89.3319 0C83.9125 0 73.1561 1.3343 68.0754 2.23754L68.0754 70.4826L2.0567 69.925C1.37927 74.3283 0 81.6703 0 89.2779C0 95.036 1.06552 104.864 2.82486 111.852L68.2179 111.803L67.9701 176.13C75.5526 177.914 84.2195 178.522 89.526 178.522C89.8647 178.522 90.2034 178.522 90.4292 178.522L86.8163 204.603C93.6126 202.05 104.561 195.817 109.868 192.881L109.769 111.827L176.227 111.778C178.443 102.927 179.003 95.0956 178.833 89.2147C178.879 83.5042 178.04 75.2774 176.801 70.3215Z" fill="white"/>
<path d="M89.584 -0.480469C139.312 -0.480469 179.504 39.7112 179.504 89.3271C179.504 95.5604 178.937 101.574 177.689 107.365L177.69 107.366C176.77 112.542 165.639 170.307 87.0771 205.173L86.2559 205.537L86.3789 204.647L89.9131 179.135H89.584C39.8563 179.135 -0.335933 138.943 -0.335938 89.3271C-0.335938 39.7109 39.9696 -0.480378 89.584 -0.480469Z" stroke="#082422" stroke-miterlimit="10"/>
<path d="M89.5004 118.593C104.947 118.593 117.47 106.071 117.47 90.6236C117.47 75.1766 104.947 62.6543 89.5004 62.6543C74.0535 62.6543 61.5312 75.1766 61.5312 90.6236C61.5312 106.071 74.0535 118.593 89.5004 118.593Z" fill="#B6C4CF"/>
<path d="M90.0705 104.043C97.794 104.043 104.055 97.7824 104.055 90.0589C104.055 82.3354 97.794 76.0742 90.0705 76.0742C82.347 76.0742 76.0859 82.3354 76.0859 90.0589C76.0859 97.7824 82.347 104.043 90.0705 104.043Z" fill="#009B5E"/>
</g>
<defs>
<clipPath id="clip0_14983_12108">
<rect width="193.387" height="205.853" fill="white"/>
</clipPath>
</defs>
</svg>
