<svg width="216" height="245" viewBox="0 0 216 245" fill="none" xmlns="http://www.w3.org/2000/svg">
<mask id="mask0_15017_14740" style="mask-type:luminance" maskUnits="userSpaceOnUse" x="4" y="5" width="208" height="235">
<path d="M211.583 107.382C211.583 50.8421 165.112 5 107.785 5C50.4573 5 4 50.8421 4 107.382C4 163.921 50.4704 209.763 107.785 209.763C108.152 209.763 108.519 209.737 108.899 209.737L104.638 239.591C195.664 199.738 208.514 133.717 209.472 127.974C210.848 121.326 211.57 114.431 211.57 107.382H211.583Z" fill="white"/>
</mask>
<g mask="url(#mask0_15017_14740)">
<path d="M58.6194 -13.0586H-39.75V250.003H58.6194V-13.0586Z" fill="#009464"/>
<path d="M156.994 -13.0586H58.625V250.003H156.994V-13.0586Z" fill="white"/>
<path d="M255.369 -13.0586H157V250.003H255.369V-13.0586Z" fill="#FF003D"/>
</g>
<path d="M211.583 107.393C211.583 50.8538 165.112 5.01172 107.785 5.01172C50.4573 5.01172 4 50.8538 4 107.393C4 163.933 50.4704 209.775 107.785 209.775C108.152 209.775 108.519 209.749 108.899 209.749L104.638 239.603C195.664 199.75 208.514 133.729 209.472 127.986C210.848 121.337 211.57 114.443 211.57 107.393H211.583Z" stroke="#082422" stroke-width="1.83448" stroke-miterlimit="10"/>
<path d="M107.796 140.263C126.241 140.263 141.193 125.512 141.193 107.317C141.193 89.1214 126.241 74.3711 107.796 74.3711C89.3509 74.3711 74.3984 89.1214 74.3984 107.317C74.3984 125.512 89.3509 140.263 107.796 140.263Z" fill="#532811"/>
</svg>
