<svg width="211" height="244" viewBox="0 0 211 244" fill="none" xmlns="http://www.w3.org/2000/svg">
<path d="M3 106.516C3 124.764 7.79212 141.847 16.2107 156.73H195.332C203.362 141.07 205.564 129.423 205.953 127.093C207.248 120.493 208.025 113.505 208.025 106.516C208.025 89.563 203.88 73.6449 196.627 59.668H14.268C7.01502 73.6449 3 89.563 3 106.516Z" fill="white"/>
<path d="M105.452 208.893C105.841 208.893 106.23 208.893 106.489 208.893L102.344 238.788C156.871 214.587 182.903 180.81 195.337 156.738H16.0859C33.7002 187.927 67.1155 208.893 105.452 208.893Z" fill="#0052B4"/>
<path d="M105.445 4C65.6838 4 31.3618 26.5183 14.2656 59.5193H196.625C179.529 26.6477 145.207 4 105.445 4Z" fill="#0052B4"/>
<path d="M208.664 106.641C208.664 50.0177 162.672 4.01953 105.767 4.01953C48.8618 4.01953 3 50.0177 3 106.641C3 163.264 48.9917 209.133 105.897 209.133C106.287 209.133 106.676 209.133 106.936 209.133L102.779 239.064C192.943 199.155 205.675 133.074 206.585 127.243C207.884 120.635 208.664 113.638 208.664 106.641Z" stroke="#082422" stroke-width="1.83448" stroke-miterlimit="10"/>
<path d="M118.399 97.9517C120.212 100.669 121.378 103.905 121.378 107.399C121.378 116.329 114.255 123.576 105.577 123.576C96.8993 123.576 89.7759 116.329 89.7759 107.399C89.7759 103.905 90.9415 100.669 92.7548 97.9517L80.5802 85.3984C75.6586 91.3516 72.6797 98.9871 72.6797 107.399C72.6797 126.035 87.4446 141.177 105.706 141.177C123.968 141.177 138.733 126.035 138.733 107.399C138.733 98.9871 135.754 91.3516 130.833 85.3984L118.399 97.9517Z" fill="#FFDA44"/>
<path d="M90.6797 113.207C93.011 119.29 98.7097 123.56 105.445 123.56C112.179 123.56 117.878 119.29 120.209 113.207H90.6797Z" fill="#6DA544"/>
<path d="M105.468 113.212H94.0703L99.769 103.118L105.468 93.0234L111.167 103.118L116.865 113.212H105.468Z" fill="#FFDA44"/>
</svg>
