<svg width="210" height="238" viewBox="0 0 210 238" fill="none" xmlns="http://www.w3.org/2000/svg">
<mask id="mask0_15017_14831" style="mask-type:luminance" maskUnits="userSpaceOnUse" x="0" y="0" width="209" height="236">
<path d="M208.499 103.29C208.499 46.7494 162.028 0.90625 104.7 0.90625C47.3719 0.90625 0.914062 46.7494 0.914062 103.29C0.914062 159.831 47.385 205.674 104.7 205.674C105.067 205.674 105.434 205.648 105.815 205.648L101.553 235.503C192.58 195.649 205.431 129.627 206.388 123.883C207.765 117.235 208.486 110.34 208.486 103.29H208.499Z" fill="white"/>
</mask>
<g mask="url(#mask0_15017_14831)">
<path d="M238.037 56.4531H-28.6328V153.495H238.037V56.4531Z" fill="white"/>
<path d="M238.037 143.199H-28.6328V240.241H238.037V143.199Z" fill="#0067C6"/>
<path d="M238.037 -30.3281H-28.6328V66.7135H238.037V-30.3281Z" fill="#0067C6"/>
</g>
<path d="M208.499 103.302C208.499 46.7612 162.028 0.917969 104.7 0.917969C47.3719 0.917969 0.914062 46.7612 0.914062 103.302C0.914062 159.843 47.385 205.686 104.7 205.686C105.067 205.686 105.434 205.66 105.815 205.66L101.553 235.515C192.58 195.661 205.431 129.638 206.388 123.895C207.765 117.246 208.486 110.352 208.486 103.302H208.499Z" stroke="#082422" stroke-width="1.83479" stroke-miterlimit="10"/>
<path d="M104.715 75.5928C121.072 75.5928 134.274 88.6903 134.274 104.774C134.274 120.859 121.072 133.956 104.715 133.956C88.3574 133.956 75.1553 120.859 75.1553 104.774C75.1554 88.6903 88.3575 75.5928 104.715 75.5928Z" stroke="#FFDD3F" stroke-width="5.8583"/>
<path d="M86.8007 111.848L102.034 88.0559C103.179 86.2672 105.788 86.2538 106.951 88.0307L122.53 111.823C123.806 113.771 122.409 116.357 120.08 116.357H89.2675C86.9525 116.357 85.5524 113.798 86.8007 111.848Z" fill="#02B55B"/>
</svg>
