<svg width="1056" height="552" viewBox="0 0 1056 552" fill="none" xmlns="http://www.w3.org/2000/svg">
<mask id="mask0_15017_12367" style="mask-type:luminance" maskUnits="userSpaceOnUse" x="28" y="127" width="201" height="251">
<path d="M223.601 210.734C206.454 151.434 149.88 115.693 97.2384 130.914C44.5971 146.135 15.8404 206.551 32.9875 265.851C50.1346 325.151 106.709 360.892 159.338 345.675C159.675 345.577 160.005 345.452 160.354 345.351L165.495 377.795C236.994 311.827 228.771 239.171 227.908 232.893C227.156 225.554 225.727 218.132 223.589 210.738L223.601 210.734Z" fill="white"/>
</mask>
<g mask="url(#mask0_15017_12367)">
<path d="M236.478 153.789L-8.39062 224.594L21.0392 326.371L265.908 255.566L236.478 153.789Z" fill="white"/>
<path d="M262.79 244.793L17.9219 315.598L47.3517 417.375L292.22 346.57L262.79 244.793Z" fill="#0067C6"/>
<path d="M210.126 62.7734L-34.7422 133.578L-5.31236 235.355L239.556 164.551L210.126 62.7734Z" fill="#0067C6"/>
</g>
<path d="M119.847 209.431C134.178 205.287 150.274 214.989 155.245 232.182C160.216 249.374 151.782 266.169 137.451 270.313C123.12 274.457 107.024 264.754 102.053 247.562C97.0816 230.37 105.516 213.575 119.847 209.431Z" stroke="#FFDD3F" stroke-width="6.73744"/>
<path d="M113.019 257.51L122.159 218.373L151.205 246.468L113.019 257.51Z" fill="#02B55B"/>
<path opacity="0.2" d="M158.842 135.345C188.425 147.903 213.182 175.091 223.592 210.88C225.761 218.336 227.25 225.695 227.938 232.991C228.538 237.706 233.242 278.586 206.834 326.206C166.681 315.334 134.588 277.028 129.306 228.43C125.359 192.118 137.22 158.189 158.842 135.345Z" fill="black"/>
<path d="M228.93 245.465L243.081 325.254C206.29 321.743 173.168 295.768 157.156 258.047L228.93 245.465Z" fill="#FF5757"/>
<path d="M250.656 101.41C289.265 104.59 324.006 132.532 339.439 172.923L265.635 185.861L250.656 101.41Z" fill="#FF5757"/>
<path d="M219.822 193.921L147.097 206.668C147.708 163.889 170.342 126.132 204.892 109.743L219.822 193.921Z" fill="#0066ED"/>
<path d="M347.716 224.464C346.877 241.598 340.287 291.679 292.583 337.987L274.719 237.262L347.716 224.464Z" fill="#0066ED"/>
<path d="M339.26 172.95L265.806 186.035L250.778 101.28C245.385 101.213 237.972 100.66 227.506 102.495C221.541 103.541 209.997 107.274 204.604 109.376L219.632 194.132L146.849 206.18C147.074 211.779 147.172 221.163 148.848 230.611C150.116 237.763 153.453 249.763 156.928 258.102L228.888 245.421L242.781 325.359C251.519 326.112 261.192 325.194 267.032 324.17C267.405 324.105 267.778 324.039 268.026 323.996L269.793 357.084C276.711 352.601 287.389 342.747 292.583 338.077L274.624 237.433L347.758 224.546C348.247 213.127 347.138 203.293 345.657 196.022C344.45 188.921 341.715 178.865 339.26 172.95Z" fill="#FEFCF9"/>
<path d="M253.814 249.751C270.815 246.77 281.84 228.801 278.438 209.616C275.037 190.431 258.496 177.295 241.495 180.276C224.493 183.257 213.469 201.226 216.87 220.411C220.272 239.596 236.812 252.732 253.814 249.751Z" fill="#B6C4CF"/>
<path d="M251.223 231.579C259.724 230.089 265.236 221.104 263.536 211.512C261.835 201.92 253.565 195.352 245.064 196.842C236.563 198.333 231.051 207.317 232.752 216.91C234.452 226.502 242.723 233.07 251.223 231.579Z" fill="#009B5E"/>
<path opacity="0.2" d="M289.247 113.385C317.524 129.187 339.377 159.116 345.929 196.107C347.295 203.816 347.989 211.354 347.888 218.743C347.978 223.537 348.261 265.07 316.572 309.971C277.508 294.715 249.495 252.84 249.47 203.557C249.452 166.691 265.053 133.936 289.247 113.385Z" fill="black"/>
<path d="M281.263 201.469C281.281 221.523 285.936 240.301 294.099 256.664L467.49 256.814C475.249 239.611 477.369 226.812 477.743 224.252C478.99 217 479.736 209.32 479.729 201.64C479.713 183.008 475.686 165.511 468.652 150.144L292.126 149.992C285.119 165.346 281.247 182.837 281.263 201.469Z" fill="#FEFCF9"/>
<path d="M380.495 313.962C380.872 313.962 381.248 313.962 381.498 313.962L377.515 346.814C430.275 320.262 455.443 283.162 467.456 256.717L293.938 256.568C311.018 290.861 343.385 313.93 380.495 313.962Z" fill="#0052B4"/>
<path d="M380.367 88.9826C341.873 88.951 308.665 113.678 292.144 149.942L468.691 150.087C452.11 113.938 418.861 89.0142 380.367 88.9826Z" fill="#0052B4"/>
<path d="M392.959 192.177C394.716 195.165 395.848 198.721 395.851 202.561C395.861 212.373 388.975 220.33 380.578 220.322C372.18 220.314 365.279 212.344 365.27 202.532C365.266 198.692 366.391 195.138 368.143 192.154L356.348 178.349C351.592 184.886 348.717 193.273 348.726 202.516C348.746 222.993 363.049 239.645 380.721 239.661C398.393 239.678 412.666 223.054 412.646 202.577C412.637 193.334 409.747 184.941 404.978 178.395L392.959 192.177Z" fill="#FFDA44"/>
<path d="M366.148 208.926C368.411 215.615 373.932 220.315 380.452 220.321C386.971 220.327 392.484 215.636 394.734 208.951L366.148 208.926Z" fill="#6DA544"/>
<path d="M380.448 208.952L369.418 208.942L374.923 197.857L380.429 186.771L385.954 197.867L391.479 208.962L380.448 208.952Z" fill="#FFDA44"/>
<path opacity="0.2" fill-rule="evenodd" clip-rule="evenodd" d="M426.639 313.855C470.226 273.73 477.713 229.333 478.39 224.389C479.645 217.134 480.396 209.452 480.392 201.77C480.372 163.157 463.173 129.035 436.938 108.715C400.896 123.972 373.888 160.003 370.05 204.05C365.939 251.232 389.607 293.99 426.639 313.855Z" fill="black"/>
<mask id="mask1_15017_12367" style="mask-type:luminance" maskUnits="userSpaceOnUse" x="408" y="98" width="211" height="255">
<path d="M616.543 228.744C627.288 167.584 589.866 109.832 532.954 99.7604C476.042 89.689 421.21 131.116 410.465 192.276C399.72 253.436 437.142 311.189 494.04 321.258C494.405 321.322 494.774 321.359 495.152 321.425L485.248 352.971C583.188 325.852 608.492 256.694 610.533 250.649C613.164 243.699 615.19 236.368 616.53 228.742L616.543 228.744Z" fill="white"/>
</mask>
<g mask="url(#mask1_15017_12367)">
<path d="M636.358 288.146L371.531 241.271L353.077 346.333L617.904 393.208L636.358 288.146Z" fill="#00B7FF"/>
<path d="M654.834 183.246L390.008 136.371L371.554 241.433L636.381 288.308L654.834 183.246Z" fill="#FEFCF9"/>
<path d="M673.311 78.3318L408.484 31.457L390.031 136.519L654.857 183.394L673.311 78.3318Z" fill="#00B7FF"/>
</g>
<path d="M472.678 240.779C478.675 241.84 484.455 237.476 485.588 231.031C486.721 224.587 482.778 218.503 476.781 217.442C470.784 216.381 465.004 220.746 463.871 227.19C462.738 233.635 466.681 239.719 472.678 240.779Z" fill="#3EB4F4"/>
<path d="M480.311 197.453C486.308 198.514 492.088 194.149 493.221 187.705C494.354 181.261 490.411 175.176 484.413 174.116C478.416 173.055 472.636 177.42 471.503 183.864C470.371 190.308 474.314 196.392 480.311 197.453Z" fill="#3EB4F4"/>
<path d="M541.538 252.934C547.535 253.994 553.315 249.63 554.448 243.185C555.581 236.741 551.637 230.657 545.64 229.596C539.643 228.536 533.863 232.9 532.73 239.344C531.597 245.789 535.54 251.873 541.538 252.934Z" fill="#3EB4F4"/>
<path d="M549.17 209.607C555.168 210.668 560.948 206.304 562.08 199.859C563.213 193.415 559.27 187.331 553.273 186.27C547.276 185.209 541.496 189.574 540.363 196.018C539.23 202.463 543.173 208.547 549.17 209.607Z" fill="#3EB4F4"/>
<path d="M510.92 225.192C516.918 226.253 522.699 221.888 523.832 215.445C524.965 209.001 521.022 202.918 515.024 201.857C509.026 200.797 503.245 205.161 502.112 211.605C500.979 218.049 504.922 224.132 510.92 225.192Z" fill="#3EB4F4"/>
<path opacity="0.2" fill-rule="evenodd" clip-rule="evenodd" d="M597.79 141.557C614.614 165.378 622.28 196.576 616.618 228.719L616.605 228.716C615.263 236.338 613.233 243.666 610.599 250.612C609.106 255.023 595.195 293.064 549.645 323.832C526.596 297.202 516.924 258.443 527.224 220.001C537.446 181.853 564.852 153.267 597.79 141.557Z" fill="black"/>
<mask id="mask2_15017_12367" style="mask-type:luminance" maskUnits="userSpaceOnUse" x="559" y="140" width="210" height="246">
<path d="M761.614 286.941C782.744 229.011 756.238 166.193 702.404 146.641C648.571 127.089 587.813 158.214 566.683 216.143C545.553 274.073 572.059 336.892 625.88 356.439C626.225 356.565 626.579 356.663 626.936 356.793L611.777 385.928C712.15 376.14 748.89 312.878 751.935 307.32C755.713 300.978 758.967 294.16 761.601 286.937L761.614 286.941Z" fill="white"/>
</mask>
<g mask="url(#mask2_15017_12367)">
<path d="M662.907 111.225L570.617 77.707L472.326 347.173L564.616 380.691L662.907 111.225Z" fill="#00B7FF"/>
<path d="M755.337 144.846L663.047 111.328L564.756 380.794L657.046 414.312L755.337 144.846Z" fill="#FEFCF9"/>
<path d="M847.743 178.462L755.453 144.943L657.162 414.409L749.452 447.928L847.743 178.462Z" fill="#00B7FF"/>
</g>
<path d="M651.87 285.178C669.196 291.475 688.749 281.469 695.543 262.828C702.337 244.188 693.799 223.972 676.473 217.674C659.147 211.377 639.594 221.383 632.8 240.023C626.006 258.664 634.544 278.88 651.87 285.178Z" fill="#519400"/>
<path opacity="0.2" fill-rule="evenodd" clip-rule="evenodd" d="M753.92 190.15C770.036 217.731 773.963 253.215 761.652 287.02L761.64 287.015C759.01 294.236 755.761 301.051 751.988 307.391C749.576 311.795 726.014 352.443 666.337 373.941C642.213 342.704 636.582 297.513 655.473 257.039C674.657 215.937 713.817 191.06 753.92 190.15Z" fill="black"/>
<mask id="mask3_15017_12367" style="mask-type:luminance" maskUnits="userSpaceOnUse" x="675" y="198" width="214" height="236">
<path d="M872.711 361.123C903.824 307.355 888.568 240.44 838.629 211.673C788.689 182.905 722.992 203.187 691.879 256.954C660.766 310.722 676.022 377.637 725.95 406.398C726.27 406.582 726.604 406.742 726.935 406.933L706.794 433.185C808.021 440.964 855.545 384.628 859.54 379.647C864.398 374.015 868.82 367.82 872.699 361.116L872.711 361.123Z" fill="white"/>
</mask>
<g mask="url(#mask3_15017_12367)">
<path d="M862.887 438.674L629.555 304.232L592.769 367.819L826.101 502.26L862.887 438.674Z" fill="#FF003D"/>
<path d="M897.746 375.756L665.547 241.967L628.761 305.553L860.96 439.342L897.746 375.756Z" fill="#1E3583"/>
<path d="M977.932 239.626L744.648 105.242L664.037 244.55L897.321 378.934L977.932 239.626Z" fill="#FFDE00"/>
</g>
<path opacity="0.2" fill-rule="evenodd" clip-rule="evenodd" d="M881.567 262.441C893.299 292.879 891.181 329.365 872.77 361.217L872.758 361.211C868.885 367.912 864.468 374.103 859.615 379.731C856.537 383.571 827.576 417.955 768.012 429.854C746.746 393.123 747.212 345.993 773.097 309.077C798.274 273.171 840.763 256.521 881.567 262.441Z" fill="black"/>
<mask id="mask4_15017_12367" style="mask-type:luminance" maskUnits="userSpaceOnUse" x="780" y="273" width="226" height="233">
<path d="M979.522 458.944C1019.51 411.391 1013.18 340.39 965.378 300.364C917.579 260.339 846.425 266.458 806.442 314.01C766.458 361.563 772.786 432.564 820.574 472.58C820.881 472.837 821.205 473.071 821.522 473.337L796.857 495.47C900.937 525.506 958.34 478.951 963.199 474.789C969.049 470.159 974.526 464.864 979.511 458.935L979.522 458.944Z" fill="white"/>
</mask>
<g mask="url(#mask4_15017_12367)">
<path d="M937.129 250.718L855.141 182.057L669.167 403.255L751.156 471.916L937.129 250.718Z" fill="#009464"/>
<path d="M1019.19 319.466L937.203 250.805L751.23 472.003L833.218 540.664L1019.19 319.466Z" fill="#FEFCF9"/>
<path d="M1101.24 388.206L1019.25 319.545L833.277 540.743L915.265 609.404L1101.24 388.206Z" fill="#FF003D"/>
</g>
<path d="M869.753 414.087C885.135 426.968 908.034 425.006 920.899 409.703C933.764 394.401 931.724 371.553 916.343 358.672C900.961 345.79 878.063 347.753 865.198 363.055C852.332 378.358 854.372 401.205 869.753 414.087Z" fill="#532811"/>
</svg>
