<svg width="212" height="242" viewBox="0 0 212 242" fill="none" xmlns="http://www.w3.org/2000/svg">
<mask id="mask0_15017_14785" style="mask-type:luminance" maskUnits="userSpaceOnUse" x="2" y="4" width="208" height="235">
<path d="M209.583 106.382C209.583 49.8421 163.112 4 105.785 4C48.4573 4 2 49.8421 2 106.382C2 162.921 48.4704 208.763 105.785 208.763C106.152 208.763 106.519 208.737 106.899 208.737L102.638 238.591C193.664 198.738 206.514 132.717 207.472 126.974C208.848 120.326 209.57 113.431 209.57 106.382H209.583Z" fill="white"/>
</mask>
<g mask="url(#mask0_15017_14785)">
<path d="M239.12 156.629H-27.5469V253.668H239.12V156.629Z" fill="#00B7FF"/>
<path d="M239.12 59.5742H-27.5469V156.614H239.12V59.5742Z" fill="white"/>
<path d="M239.12 -37.4805H-27.5469V59.5589H239.12V-37.4805Z" fill="#00B7FF"/>
</g>
<path d="M209.583 106.389C209.583 49.8499 163.112 4.00781 105.785 4.00781C48.4573 4.00781 2 49.8499 2 106.389C2 162.929 48.4704 208.771 105.785 208.771C106.152 208.771 106.519 208.745 106.899 208.745L102.638 238.599C193.664 198.746 206.514 132.725 207.472 126.982C208.848 120.333 209.57 113.439 209.57 106.389H209.583Z" stroke="#082422" stroke-width="1.83448" stroke-miterlimit="10"/>
<path d="M71.1467 139.998C77.1863 139.998 82.0825 135.168 82.0825 129.21C82.0825 123.252 77.1863 118.422 71.1467 118.422C65.107 118.422 60.2109 123.252 60.2109 129.21C60.2109 135.168 65.107 139.998 71.1467 139.998Z" fill="#3EB4F4"/>
<path d="M71.1467 99.8727C77.1863 99.8727 82.0825 95.0428 82.0825 89.0848C82.0825 83.1268 77.1863 78.2969 71.1467 78.2969C65.107 78.2969 60.2109 83.1268 60.2109 89.0848C60.2109 95.0428 65.107 99.8727 71.1467 99.8727Z" fill="#3EB4F4"/>
<path d="M140.459 139.998C146.499 139.998 151.395 135.168 151.395 129.21C151.395 123.252 146.499 118.422 140.459 118.422C134.42 118.422 129.523 123.252 129.523 129.21C129.523 135.168 134.42 139.998 140.459 139.998Z" fill="#3EB4F4"/>
<path d="M140.459 99.8727C146.499 99.8727 151.395 95.0428 151.395 89.0848C151.395 83.1268 146.499 78.2969 140.459 78.2969C134.42 78.2969 129.523 83.1268 129.523 89.0848C129.523 95.0428 134.42 99.8727 140.459 99.8727Z" fill="#3EB4F4"/>
<path d="M105.803 120.002C111.843 120.002 116.739 115.172 116.739 109.214C116.739 103.256 111.843 98.4258 105.803 98.4258C99.7633 98.4258 94.8672 103.256 94.8672 109.214C94.8672 115.172 99.7633 120.002 105.803 120.002Z" fill="#3EB4F4"/>
</svg>
