<svg width="191" height="213" viewBox="0 0 191 213" fill="none" xmlns="http://www.w3.org/2000/svg">
<g clip-path="url(#clip0_14983_12109)">
<path d="M190.679 92.7803C190.679 41.5431 150.572 0 101.095 0C51.6186 0 11.5234 41.5431 11.5234 92.7803C11.5234 144.018 51.6299 185.561 101.095 185.561C101.412 185.561 87.0484 212.847 87.0484 212.847L98.3793 212.592C176.94 176.476 188.03 116.646 188.857 111.442C190.045 105.417 190.667 99.1688 190.667 92.7803H190.679Z" fill="#D0B500" stroke="black" stroke-miterlimit="10"/>
<path d="M176.626 143.915C164.814 165.179 141.996 192.539 98.3809 212.59L87.0625 212.844L94.1289 201.501L152.467 142.408L176.626 143.915Z" fill="#C00331"/>
<path fill-rule="evenodd" clip-rule="evenodd" d="M190.648 89.8535C190.677 90.8252 190.692 91.8007 190.692 92.7796H190.681C190.681 99.1682 190.058 105.416 188.87 111.441C188.471 113.954 185.68 129.196 174.061 148.356L158.734 153.489L179.073 95.3943L190.648 89.8535Z" fill="#071031"/>
<path d="M190.679 92.7803C190.679 41.5431 150.572 0 101.095 0C51.6186 0 11.5234 41.5431 11.5234 92.7803C11.5234 144.018 51.6299 185.561 101.095 185.561C101.412 185.561 87.0484 212.847 87.0484 212.847L98.3793 212.592C176.94 176.476 188.03 116.646 188.857 111.442C190.045 105.417 190.667 99.1688 190.667 92.7803H190.679Z" stroke="black" stroke-miterlimit="10"/>
<mask id="mask0_14983_12109" style="mask-type:luminance" maskUnits="userSpaceOnUse" x="0" y="0" width="180" height="213">
<path d="M179.163 92.7803C179.163 41.5431 139.056 0 89.5797 0C40.103 0 0.0078125 41.5431 0.0078125 92.7803C0.0078125 144.018 40.1143 185.561 89.5797 185.561C89.8966 185.561 90.2134 185.537 90.5416 185.537L86.8637 212.592C165.424 176.476 176.515 116.646 177.341 111.442C178.529 105.417 179.152 99.1688 179.152 92.7803H179.163Z" fill="white"/>
</mask>
<g mask="url(#mask0_14983_12109)">
<path d="M205.104 152.322L-25.9375 152.322L-25.9375 212.847L205.104 212.847V152.322Z" fill="#FF003D"/>
<path d="M203.99 92.9609L-25.9297 92.9609L-25.9297 153.486L203.99 153.486V92.9609Z" fill="#1E3583"/>
<path d="M205.096 -37.3984L-25.9453 -37.3984L-25.9453 95.2914L205.096 95.2914L205.096 -37.3984Z" fill="#FFDE00"/>
</g>
<path d="M179.155 92.7823C179.155 41.545 139.049 0.00195313 89.5719 0.00195313C40.0952 0.00195313 0 41.545 0 92.7823C0 144.019 40.1065 185.563 89.5719 185.563C89.8887 185.563 90.2056 185.539 90.5338 185.539L86.8559 212.594C165.417 176.478 176.507 116.648 177.333 111.444C178.521 105.419 179.144 99.1708 179.144 92.7823H179.155Z" stroke="black" stroke-miterlimit="10"/>
</g>
<defs>
<clipPath id="clip0_14983_12109">
<rect width="190.693" height="212.848" fill="white"/>
</clipPath>
</defs>
</svg>
