<svg width="216" height="242" viewBox="0 0 216 242" fill="none" xmlns="http://www.w3.org/2000/svg">
<mask id="mask0_15017_14728" style="mask-type:luminance" maskUnits="userSpaceOnUse" x="4" y="4" width="208" height="235">
<path d="M211.583 106.382C211.583 49.8421 165.112 4 107.785 4C50.4573 4 4 49.8421 4 106.382C4 162.921 50.4704 208.763 107.785 208.763C108.152 208.763 108.519 208.737 108.899 208.737L104.638 238.591C195.664 198.738 208.514 132.717 209.472 126.974C210.848 120.326 211.57 113.431 211.57 106.382H211.583Z" fill="white"/>
</mask>
<g mask="url(#mask0_15017_14728)">
<path d="M241.655 172.145H-26.0469V238.933H241.655V172.145Z" fill="#FF003D"/>
<path d="M240.355 106.602H-26.0469V173.39H240.355V106.602Z" fill="#1E3583"/>
<path d="M241.655 -37.2617H-26.0469V109.159H241.655V-37.2617Z" fill="#FFDE00"/>
</g>
<path d="M107.785 4.92871C164.307 4.92888 210.161 49.8769 210.66 105.476H210.652V106.394C210.652 113.38 209.937 120.212 208.573 126.8L208.567 126.835C207.648 132.354 195.063 197.34 105.779 237.094L109.808 208.879L109.957 207.832H108.899C108.691 207.832 108.489 207.838 108.306 207.845C108.118 207.851 107.95 207.857 107.785 207.857C50.9656 207.857 4.91717 162.415 4.91699 106.394C4.91699 50.3724 50.9525 4.92871 107.785 4.92871Z" stroke="#082422" stroke-width="1.83448" stroke-miterlimit="10"/>
</svg>
