<svg width="194" height="215" viewBox="0 0 194 215" fill="none" xmlns="http://www.w3.org/2000/svg">
<g clip-path="url(#clip0_14983_12106)">
<mask id="mask0_14983_12106" style="mask-type:luminance" maskUnits="userSpaceOnUse" x="10" y="4" width="185" height="211">
<path d="M193.787 95.8783C193.878 45.3834 152.968 4.51633 102.408 4.60782C51.8479 4.6993 10.8009 45.7146 10.7096 96.2095C10.6183 146.704 51.5287 187.571 102.077 187.48C102.401 187.479 102.725 187.456 103.06 187.455L88.8037 209.817L98.9692 214.305C179.314 178.568 191.038 119.404 191.892 114.273C193.117 108.333 193.764 102.174 193.775 95.8783L193.787 95.8783Z" fill="white" stroke="white" stroke-linejoin="round"/>
</mask>
<g mask="url(#mask0_14983_12106)">
<path d="M59.0903 -11.6054L-27.6875 -11.457L-28.0891 223.518L58.6888 223.369L59.0903 -11.6054Z" fill="#00B7FF"/>
<path d="M145.809 -11.7031L59.0312 -11.5547L58.6297 223.42L145.408 223.272L145.809 -11.7031Z" fill="#D8D8D8"/>
<path d="M232.524 -11.7989L135.732 -11.6313L135.158 181.353L163.701 202.101L232.117 223.172L232.524 -11.7989Z" fill="#008FC8"/>
</g>
<path d="M193.436 96.0354C193.525 45.5395 152.613 4.66925 102.054 4.75775C51.4954 4.84625 10.4518 45.86 10.3635 96.3559C10.2751 146.852 51.187 187.722 101.734 187.634C102.058 187.633 102.382 187.609 102.717 187.609L88.8013 209.837L98.9122 214.278C179.253 178.545 190.689 119.561 191.542 114.43C192.767 108.49 193.414 102.332 193.425 96.0354L193.436 96.0354Z" stroke="#082422" stroke-miterlimit="10" stroke-linejoin="round"/>
<path d="M102.166 125.349C118.432 125.321 131.64 112.126 131.667 95.875C131.695 79.6244 118.53 66.4726 102.264 66.4997C85.9986 66.5268 72.7905 79.7226 72.7635 95.9733C72.7364 112.224 85.9005 125.376 102.166 125.349Z" fill="#519400" stroke="#082422" stroke-linejoin="round"/>
<mask id="mask1_14983_12106" style="mask-type:luminance" maskUnits="userSpaceOnUse" x="-1" y="-1" width="185" height="212">
<path d="M183.31 91.4384C183.414 40.9435 142.515 0.0656409 91.9547 0.14375C41.3948 0.221858 0.336989 41.2263 0.232294 91.7212C0.1276 142.216 41.0272 183.094 91.5755 183.016C91.8993 183.015 92.2232 182.992 92.5586 182.991L88.7448 209.66C169.099 173.943 180.555 114.963 181.409 109.832C182.636 103.893 183.285 97.7344 183.298 91.4384L183.31 91.4384Z" fill="white" stroke="white" stroke-linejoin="round"/>
</mask>
<g mask="url(#mask1_14983_12106)">
<path d="M74.2319 -16.1076L-38.1016 -15.9453L-38.7016 288.241L73.6318 288.078L74.2319 -16.1076Z" fill="#00B7FF"/>
<path d="M135.395 -16.1585L48.6172 -16.0332L48.1537 218.941L134.932 218.816L135.395 -16.1585Z" fill="white"/>
<path d="M222.098 -16.2347L135.32 -16.1094L134.857 218.865L221.635 218.74L222.098 -16.2347Z" fill="#00B7FF"/>
</g>
<path d="M183.303 91.4374C183.405 40.9415 142.504 0.0603817 91.9448 0.135497C41.3861 0.210612 0.331608 41.2135 0.229912 91.7094C0.128216 142.205 41.0293 183.086 91.5765 183.011C91.9003 183.011 92.2241 182.987 92.5595 182.987L88.7474 209.655C169.098 173.943 180.55 114.962 181.404 109.832C182.63 103.892 183.279 97.7335 183.291 91.4374L183.303 91.4374Z" stroke="#082422" stroke-miterlimit="10" stroke-linejoin="round"/>
<path d="M91.6665 120.882C107.932 120.859 121.144 107.667 121.175 91.416C121.207 75.1654 108.046 62.0101 91.7801 62.0329C75.5142 62.0557 62.3027 75.248 62.2713 91.4986C62.2399 107.749 75.4006 120.905 91.6665 120.882Z" fill="#519400"/>
</g>
<defs>
<clipPath id="clip0_14983_12106">
<rect width="193.958" height="214.465" fill="white"/>
</clipPath>
</defs>
</svg>
