<svg width="193" height="206" viewBox="0 0 193 206" fill="none" xmlns="http://www.w3.org/2000/svg">
<g clip-path="url(#clip0_14983_12111)">
<mask id="mask0_14983_12111" style="mask-type:luminance" maskUnits="userSpaceOnUse" x="12" y="0" width="180" height="206">
<path d="M191.867 89.9284C191.783 40.4473 151.527 0.259522 101.949 0.174823C52.372 0.0901233 12.2634 40.1406 12.3473 89.6217C12.4312 139.103 52.6873 179.29 102.253 179.375C102.571 179.376 102.888 179.354 103.217 179.354L87.444 205.572L99.576 205.475C178.237 170.732 189.252 112.972 190.071 107.947C191.252 102.131 191.866 96.0979 191.855 89.9283L191.867 89.9284Z" fill="white"/>
</mask>
<g mask="url(#mask0_14983_12111)">
<path d="M217.346 134.032L-13.0781 133.662L-12.9428 218.47L217.481 218.84L217.346 134.032Z" fill="#0092CB"/>
<path d="M217.275 49.0069L-13.1484 48.6367L-13.0131 133.445L217.411 133.815L217.275 49.0069Z" fill="#CDCDCD"/>
<path d="M217.197 -36.0282L-13.2266 -36.3984L-13.0912 48.4095L217.333 48.7797L217.197 -36.0282Z" fill="#0092CB"/>
</g>
<path d="M191.843 89.9083C191.767 40.4144 151.53 0.222815 101.968 0.146312C52.4064 0.0698091 12.3037 40.1374 12.3797 89.6313C12.4556 139.125 52.6927 179.317 102.243 179.393C102.561 179.394 102.878 179.372 103.207 179.372L87.4222 205.577L99.5627 205.501C178.205 170.735 189.226 112.958 190.046 107.932C191.227 102.114 191.841 96.0795 191.832 89.9083L191.843 89.9083Z" stroke="#002522" stroke-miterlimit="10" stroke-linejoin="round"/>
<path d="M72.2118 119.167C77.4336 119.176 81.6597 114.956 81.6513 109.742C81.6429 104.527 77.403 100.293 72.1813 100.285C66.9596 100.276 62.7334 104.497 62.7418 109.711C62.7503 114.925 66.9901 119.159 72.2118 119.167Z" fill="#3EB4F4"/>
<path d="M72.1728 84.0503C77.3945 84.0588 81.6207 79.8387 81.6122 74.6244C81.6038 69.4101 77.3639 65.1762 72.1422 65.1677C66.9205 65.1592 62.6943 69.3794 62.7028 74.5936C62.7112 79.8079 66.9511 84.0418 72.1728 84.0503Z" fill="#3EB4F4"/>
<path d="M132.055 119.223C137.276 119.231 141.502 115.011 141.494 109.796C141.486 104.582 137.246 100.348 132.025 100.339C126.803 100.331 122.577 104.551 122.585 109.766C122.594 114.981 126.833 119.214 132.055 119.223Z" fill="#3EB4F4"/>
<path d="M132.023 84.1076C137.245 84.116 141.471 79.8955 141.463 74.681C141.454 69.4665 137.215 65.2325 131.993 65.2241C126.772 65.2158 122.546 69.4362 122.554 74.6507C122.562 79.8653 126.802 84.0993 132.023 84.1076Z" fill="#3EB4F4"/>
<path d="M102.115 101.634C107.336 101.642 111.562 97.4213 111.554 92.2062C111.546 86.9912 107.307 82.757 102.086 82.7489C96.8652 82.7409 92.6393 86.962 92.6473 92.1771C92.6553 97.3922 96.8941 101.626 102.115 101.634Z" fill="#3EB4F4"/>
<mask id="mask1_14983_12111" style="mask-type:luminance" maskUnits="userSpaceOnUse" x="0" y="0" width="180" height="206">
<path d="M179.671 89.9166C179.587 40.4356 139.331 0.247809 89.7539 0.163108C40.1766 0.0784063 0.0680563 40.1289 0.151994 89.6099C0.235931 139.091 40.492 179.279 90.0579 179.363C90.3754 179.364 90.6929 179.342 91.0218 179.342L87.3807 205.463C166.042 170.72 177.057 112.96 177.876 107.935C179.057 102.119 179.67 96.0861 179.66 89.9166L179.671 89.9166Z" fill="white"/>
</mask>
<g mask="url(#mask1_14983_12111)">
<path d="M205.143 134.025L-25.2812 133.654L-25.1459 218.462L205.278 218.832L205.143 134.025Z" fill="#00B7FF"/>
<path d="M205.064 49.0011L-25.3594 48.6309L-25.224 133.439L205.2 133.809L205.064 49.0011Z" fill="white"/>
<path d="M204.994 -36.036L-25.4297 -36.4062L-25.2943 48.4016L205.129 48.7719L204.994 -36.036Z" fill="#00B7FF"/>
</g>
<path d="M179.64 89.9005C179.564 40.4066 139.327 0.215012 89.7652 0.138506C40.2033 0.0619995 0.100619 40.1296 0.17654 89.6235C0.25246 139.117 40.4896 179.309 90.0402 179.385C90.3576 179.386 90.675 179.364 91.0037 179.364L87.3595 205.493C166.002 170.727 177.023 112.951 177.843 107.924C179.024 102.106 179.638 96.0716 179.629 89.9005L179.64 89.9005Z" stroke="#082422" stroke-miterlimit="10" stroke-linejoin="round"/>
<path d="M60.0233 119.153C65.2448 119.161 69.4709 114.94 69.4626 109.726C69.4543 104.511 65.2148 100.277 59.9933 100.269C54.7719 100.261 50.5458 104.481 50.5541 109.696C50.5624 114.91 54.8019 119.144 60.0233 119.153Z" fill="#3EB4F4"/>
<path d="M59.9921 84.0373C65.2135 84.0457 69.4396 79.8252 69.4314 74.6107C69.4231 69.3961 65.1835 65.1621 59.9621 65.1538C54.7406 65.1454 50.5145 69.3659 50.5228 74.5804C50.5311 79.795 54.7706 84.0289 59.9921 84.0373Z" fill="#3EB4F4"/>
<path d="M119.867 119.211C125.089 119.219 129.315 114.999 129.306 109.784C129.298 104.57 125.059 100.336 119.837 100.328C114.616 100.319 110.39 104.54 110.398 109.754C110.406 114.969 114.646 119.203 119.867 119.211Z" fill="#3EB4F4"/>
<path d="M119.836 84.0939C125.057 84.1023 129.283 79.8819 129.275 74.6673C129.267 69.4528 125.027 65.2188 119.806 65.2104C114.584 65.2021 110.358 69.4225 110.367 74.6371C110.375 79.8516 114.614 84.0856 119.836 84.0939Z" fill="#3EB4F4"/>
<path d="M89.9275 101.623C95.1485 101.631 99.3744 97.4096 99.3664 92.1945C99.3584 86.9794 95.1196 82.7453 89.8986 82.7372C84.6777 82.7292 80.4518 86.9503 80.4598 92.1654C80.4678 97.3804 84.7066 101.615 89.9275 101.623Z" fill="#3EB4F4"/>
</g>
<defs>
<clipPath id="clip0_14983_12111">
<rect width="192.063" height="205.751" fill="white"/>
</clipPath>
</defs>
</svg>
