<svg width="215" height="245" viewBox="0 0 215 245" fill="none" xmlns="http://www.w3.org/2000/svg">
<mask id="mask0_15017_14753" style="mask-type:luminance" maskUnits="userSpaceOnUse" x="6" y="6" width="204" height="233">
<path d="M209.491 107.66C209.491 51.5189 163.937 6 107.739 6C51.5416 6 6 51.5189 6 107.66C6 163.801 51.5545 209.32 107.739 209.32C108.099 209.32 108.459 209.294 108.832 209.294L104.654 238.938C193.887 199.366 206.483 133.81 207.422 128.107C208.771 121.506 209.478 114.66 209.478 107.66H209.491Z" fill="white"/>
</mask>
<g mask="url(#mask0_15017_14753)">
<path d="M59.5087 -11.9727H-36.9219V249.235H59.5087V-11.9727Z" fill="#00B7FF"/>
<path d="M155.954 -11.9727H59.5234V249.235H155.954V-11.9727Z" fill="white"/>
<path d="M252.376 -11.9727H155.945V249.235H252.376V-11.9727Z" fill="#00B7FF"/>
</g>
<path d="M107.739 5.08301C164.443 5.08303 210.408 51.012 210.408 107.66V108.577H210.39C210.331 115.307 209.626 121.893 208.327 128.256L208.199 128.981C206.487 138.239 191.835 201.279 105.026 239.776L103.516 240.446L103.746 238.81L107.772 210.235C107.761 210.235 107.75 210.236 107.739 210.236C51.0487 210.236 5.0832 164.308 5.08301 107.66C5.08301 51.0121 51.0357 5.08301 107.739 5.08301Z" stroke="#082422" stroke-width="1.83448" stroke-miterlimit="10"/>
<path d="M107.716 140.283C125.797 140.283 140.455 125.636 140.455 107.569C140.455 89.5018 125.797 74.8555 107.716 74.8555C89.6343 74.8555 74.9766 89.5018 74.9766 107.569C74.9766 125.636 89.6343 140.283 107.716 140.283Z" fill="#519400"/>
</svg>
