<svg width="216" height="243" viewBox="0 0 216 243" fill="none" xmlns="http://www.w3.org/2000/svg">
<path d="M83.3398 132.43V206.194C46.2899 197.279 17.0772 168.777 7.53125 132.43H83.3398Z" fill="#FF5757"/>
<path d="M131.625 6.66406C170.594 15.5575 201.111 46.0624 209.594 84.7021H131.625V6.66406Z" fill="#FF5757"/>
<path d="M83.3379 84.7803H6.58594C14.9939 46.5514 45.0105 16.2845 83.3379 7.02734V84.7803Z" fill="#0066ED"/>
<path d="M208.704 132.324C204.714 147.598 188.842 191.419 131.625 225.403V132.324H208.704Z" fill="#0066ED"/>
<path d="M209.367 84.7319L131.806 84.9168V6.56879C126.298 5.66145 118.811 4 107.765 4C101.47 4 88.9758 5.53184 83.0743 6.56879V84.9168L6.389 84.2767C5.60212 89.3319 4 97.7608 4 106.495C4 113.105 5.23767 124.388 7.28127 132.411L83.2397 132.354L82.9519 206.205C91.7595 208.253 101.827 208.951 107.991 208.951C108.384 208.951 108.777 208.951 109.04 208.951L104.843 238.893C112.738 235.961 125.455 228.806 131.619 225.435L131.504 132.382L208.7 132.325C211.274 122.164 211.924 113.174 211.727 106.422C211.78 99.8662 210.806 90.4215 209.367 84.7319Z" fill="white"/>
<path d="M108.094 3.10254C166.031 3.10254 212.879 49.3871 212.879 106.548C212.879 113.721 212.22 120.647 210.767 127.32L210.628 128.058C208.798 137.456 193.853 201.023 105.315 239.859L103.811 240.52L104.038 238.892L108.089 209.993C50.1537 209.99 3.30957 163.707 3.30957 106.548C3.30981 49.3864 50.2884 3.10274 108.094 3.10254Z" stroke="#082422" stroke-width="1.83448" stroke-miterlimit="10"/>
<path d="M107.988 140.157C125.931 140.157 140.476 125.781 140.476 108.047C140.476 90.3136 125.931 75.9375 107.988 75.9375C90.0454 75.9375 75.5 90.3136 75.5 108.047C75.5 125.781 90.0454 140.157 107.988 140.157Z" fill="#B6C4CF"/>
<path d="M108.635 123.461C117.606 123.461 124.879 116.273 124.879 107.406C124.879 98.5396 117.606 91.3516 108.635 91.3516C99.6633 91.3516 92.3906 98.5396 92.3906 107.406C92.3906 116.273 99.6633 123.461 108.635 123.461Z" fill="#009B5E"/>
</svg>
