<svg width="697" height="545" viewBox="0 0 697 545" fill="none" xmlns="http://www.w3.org/2000/svg">
<g clip-path="url(#clip0_14902_12389)">
<path d="M433.093 187.201L322.711 251.677" stroke="#082422" stroke-width="0.583536" stroke-linecap="round"/>
<path d="M440.499 363.127L330.117 427.602" stroke="#082422" stroke-width="0.583536" stroke-linecap="round"/>
<path d="M418.19 335.111L418.202 339.849C405.573 353.828 389.293 365.682 370.907 376.312C345.79 390.832 316.741 403.058 287.691 415.287C258.642 427.517 229.589 439.747 204.471 454.268C186.085 464.897 169.805 476.747 157.176 490.726L157.164 485.987C169.793 472.009 186.069 460.159 204.459 449.529C229.576 435.013 258.63 422.779 287.679 410.549C316.732 398.32 345.777 386.094 370.895 371.573C389.281 360.948 405.561 349.09 418.19 335.111Z" fill="#38A543" stroke="#082422" stroke-width="0.583536" stroke-miterlimit="10"/>
<path d="M157.162 485.986L157.174 490.724C111.754 464.3 66.3385 437.877 20.9186 411.449L20.9062 406.711C66.3261 433.134 111.742 459.558 157.162 485.986Z" fill="#38A543" stroke="#082422" stroke-width="0.583536" stroke-miterlimit="10"/>
<path d="M68.201 370.256C93.3186 355.735 122.368 343.51 151.417 331.28C180.466 319.05 209.52 306.82 234.637 292.304C253.023 281.674 269.303 269.821 281.932 255.842C327.352 282.265 372.767 308.689 418.187 335.117C405.558 349.095 389.279 360.949 370.893 371.579C345.775 386.099 316.726 398.325 287.677 410.555C258.627 422.784 229.574 435.014 204.456 449.535C186.07 460.164 169.791 472.014 157.162 485.993C111.742 459.569 66.3261 433.146 20.9062 406.718C33.5353 392.743 49.815 380.885 68.201 370.26V370.256Z" fill="#60D06F" stroke="#082422" stroke-width="0.583536" stroke-miterlimit="10"/>
<path d="M94.5921 376.901C116.464 364.258 141.272 353.322 166.079 342.386C190.883 331.451 215.687 320.519 237.558 307.876C245.574 303.241 253.202 298.375 260.289 293.198C261.433 292.524 262.883 292.553 263.845 293.111C273.005 298.441 286.489 298.767 295.157 293.756C296.512 292.975 297.747 292.061 298.833 291.015C299.014 290.837 299.225 290.684 299.456 290.552C300.6 289.891 302.236 289.791 303.462 290.507C321.431 300.959 339.396 311.415 357.365 321.867C358.839 322.723 358.992 324.327 357.893 325.381C349.869 333.113 350.716 343.656 361.367 349.849C362.535 350.527 362.771 351.722 361.713 352.495C354.689 357.614 347.143 362.422 339.206 367.011C317.334 379.655 292.531 390.586 267.727 401.522C242.919 412.458 218.115 423.394 196.244 436.033C188.219 440.672 180.588 445.542 173.497 450.723C172.196 451.492 170.54 451.446 169.449 450.814C160.302 445.492 146.847 445.162 138.195 450.164C136.832 450.954 135.585 451.872 134.499 452.926C134.333 453.083 134.148 453.224 133.941 453.344C132.909 453.939 131.43 454.022 130.319 453.381C112.189 442.834 94.0635 432.287 75.9336 421.74C74.6038 420.967 74.451 419.52 75.438 418.564C83.4416 410.821 82.5826 400.273 71.9318 394.076C70.9035 393.476 70.7094 392.43 71.6344 391.752C78.7873 386.51 86.4894 381.59 94.5963 376.901H94.5921Z" fill="#80E58A" stroke="#082422" stroke-width="0.583536" stroke-miterlimit="10"/>
<path d="M166.294 363.383C172.063 360.046 178.497 356.805 185.514 353.7C209.364 343.14 233.54 335.086 251.987 329.815C261.308 327.235 269.415 325.482 276.283 325.006C283.147 324.531 288.821 325.366 293.145 327.888C297.457 330.393 300.026 334.35 300.67 339.196C301.31 344.037 299.976 349.73 296.342 355.622C291.349 364.011 281.342 372.536 267.503 380.532C261.734 383.869 255.3 387.11 248.283 390.215C224.433 400.775 200.261 408.829 181.809 414.1C172.488 416.68 164.381 418.433 157.514 418.909C150.65 419.384 144.98 418.549 140.647 416.031C136.34 413.526 133.767 409.565 133.123 404.719C132.483 399.878 133.821 394.184 137.451 388.297C142.444 379.904 152.45 371.383 166.289 363.383H166.294Z" fill="#60D06F" stroke="#082422" stroke-width="0.583536" stroke-miterlimit="10"/>
<path d="M696.264 268.373L696.272 271.925C672.129 279.201 651.629 288.603 633.243 299.233C608.121 313.753 586.943 330.556 565.757 347.363C544.575 364.169 523.389 380.976 498.276 395.492C479.89 406.122 459.393 415.52 435.25 422.796L435.242 419.245C459.389 411.968 479.882 402.566 498.267 391.941C523.385 377.425 544.567 360.618 565.749 343.811C586.935 327.004 608.113 310.198 633.234 295.681C651.62 285.056 672.121 275.65 696.264 268.373Z" fill="#38A543" stroke="#082422" stroke-width="0.583536" stroke-miterlimit="10"/>
<path d="M435.244 419.246L435.252 422.797C389.832 396.374 344.412 369.946 298.993 343.522L298.984 339.971C344.404 366.394 389.824 392.822 435.244 419.246Z" fill="#38A543" stroke="#082422" stroke-width="0.583536" stroke-miterlimit="10"/>
<path d="M496.981 216.408C515.367 205.778 535.859 196.38 560.006 189.104C605.426 215.527 650.846 241.955 696.265 268.378C672.122 275.655 651.622 285.057 633.236 295.687C608.114 310.207 586.936 327.01 565.75 343.816C544.569 360.623 523.383 377.43 498.269 391.946C479.883 402.576 459.387 411.974 435.244 419.25C389.824 392.827 344.404 366.399 298.984 339.975C323.127 332.699 343.628 323.297 362.014 312.667C387.131 298.147 408.313 281.344 429.499 264.537C450.681 247.731 471.871 230.924 496.985 216.404L496.981 216.408Z" fill="#60D06F" stroke="#082422" stroke-width="0.583536" stroke-miterlimit="10"/>
<path d="M503.917 233.716C511.933 229.081 520.346 224.678 529.295 220.589C530.468 220.051 532.273 220.167 533.301 220.766C543.952 226.964 562.131 227.489 575.487 222.863C577.309 222.23 580.076 222.325 581.546 223.181C599.515 233.633 617.479 244.089 635.448 254.541C636.675 255.256 636.497 256.203 635.353 256.865C635.122 256.997 634.854 257.121 634.548 257.224C632.743 257.849 631.17 258.564 629.815 259.345C621.147 264.356 621.667 272.179 630.823 277.504C631.913 278.137 631.987 279.1 630.91 279.724C621.812 283.908 613.494 288.27 605.561 292.856C583.689 305.499 564.75 319.85 545.814 334.196C526.875 348.543 507.94 362.894 486.068 375.533C478.04 380.172 469.619 384.583 460.657 388.677C459.323 389.289 457.263 389.144 456.094 388.466C445.443 382.268 427.251 381.735 413.875 386.353C412.227 386.924 409.733 386.828 408.399 386.055C390.273 375.508 372.143 364.961 354.013 354.414C352.902 353.769 353.051 352.913 354.083 352.314C354.29 352.194 354.533 352.086 354.806 351.991C356.627 351.363 358.217 350.643 359.58 349.858C368.232 344.855 367.716 337.053 358.568 331.732C357.614 331.178 357.556 330.335 358.502 329.793C367.802 325.543 376.31 321.09 384.425 316.401C406.292 303.762 425.236 289.411 444.171 275.061C463.111 260.71 482.046 246.363 503.921 233.72L503.917 233.716Z" fill="#80E58A" stroke="#082422" stroke-width="0.583536" stroke-miterlimit="10"/>
<path d="M480.369 275.248C494.208 267.248 508.935 261.476 523.422 258.607C533.59 256.519 543.411 255.762 551.757 256.151C560.112 256.544 566.926 258.044 571.237 260.554C575.565 263.072 576.99 266.363 576.148 270.34C575.309 274.322 572.257 279.019 567.776 284.414C558.625 295.098 544.662 309.089 526.375 322.886C520.998 326.942 515.381 330.663 509.616 333.999C495.773 341.999 481.046 347.775 466.559 350.641C456.391 352.728 446.566 353.485 438.22 353.096C429.869 352.704 423.051 351.203 418.743 348.697C414.436 346.192 412.991 342.888 413.829 338.907C414.667 334.925 417.719 330.229 422.2 324.833C431.348 314.154 445.315 300.158 463.602 286.366C468.983 282.306 474.595 278.585 480.365 275.252L480.369 275.248Z" fill="#60D06F" stroke="#082422" stroke-width="0.583536" stroke-miterlimit="10"/>
<path fill-rule="evenodd" clip-rule="evenodd" d="M623.835 226.228C603.134 236.791 580.594 246.28 558.051 255.771L557.959 255.809L557.921 255.826C528.885 268.05 499.846 280.276 474.739 294.79C456.353 305.419 440.074 317.269 427.445 331.247C411.056 321.713 394.669 312.179 378.281 302.645C396.591 290.658 413.053 277.599 429.518 264.537C450.7 247.731 471.89 230.924 497.003 216.404L496.999 216.408C515.385 205.778 535.878 196.38 560.025 189.104C581.295 201.478 602.565 213.853 623.835 226.228Z" fill="black" fill-opacity="0.2"/>
<path d="M664.729 79.2695L664.741 84.0077C652.112 97.9864 635.832 109.84 617.446 120.47C592.329 134.99 563.28 147.216 534.23 159.446C505.181 171.676 476.128 183.905 451.01 198.426C432.624 209.056 416.345 220.905 403.716 234.884L403.703 230.146C416.332 216.167 432.608 204.317 450.998 193.688C476.115 179.171 505.169 166.937 534.218 154.708C563.271 142.478 592.316 130.252 617.434 115.732C635.82 105.106 652.1 93.2483 664.729 79.2695Z" fill="#38A543" stroke="#082422" stroke-width="0.583536" stroke-miterlimit="10"/>
<path d="M403.708 230.144L403.721 234.882C358.301 208.459 312.885 182.035 267.466 155.607L267.453 150.869C312.873 177.293 358.289 203.716 403.708 230.144Z" fill="#38A543" stroke="#082422" stroke-width="0.583536" stroke-miterlimit="10"/>
<path d="M314.748 114.414C339.866 99.8935 368.915 87.6679 397.964 75.438C427.013 63.2082 456.066 50.9783 481.184 36.4621C499.57 25.8323 515.85 13.9787 528.479 0C573.899 26.4236 619.314 52.8471 664.734 79.2748C652.105 93.2536 635.825 105.107 617.439 115.737C592.322 130.257 563.273 142.483 534.223 154.713C505.174 166.943 476.121 179.173 451.003 193.693C432.617 204.323 416.337 216.172 403.708 230.151C358.289 203.727 312.873 177.304 267.453 150.876C280.082 136.901 296.362 125.044 314.748 114.418V114.414Z" fill="#60D06F" stroke="#082422" stroke-width="0.583536" stroke-miterlimit="10"/>
<path d="M341.139 121.059C363.011 108.416 387.818 97.4803 412.626 86.5446C437.43 75.6088 462.234 64.6772 484.105 52.0339C492.121 47.3991 499.749 42.5328 506.836 37.3565C507.98 36.6825 509.429 36.7115 510.392 37.2696C519.552 42.599 533.036 42.9256 541.704 37.9146C543.059 37.1332 544.293 36.2195 545.38 35.1734C545.561 34.9957 545.772 34.8427 546.003 34.7104C547.147 34.0489 548.783 33.9496 550.009 34.6649C567.978 45.1169 585.943 55.573 603.912 66.025C605.386 66.8809 605.539 68.4851 604.44 69.5394C596.416 77.2709 597.263 87.8138 607.913 94.0073C609.082 94.6854 609.318 95.8802 608.26 96.6534C601.235 101.772 593.69 106.58 585.753 111.17C563.881 123.813 539.077 134.744 514.274 145.68C489.466 156.616 464.662 167.552 442.791 180.191C434.766 184.83 427.134 189.7 420.043 194.881C418.743 195.65 417.087 195.604 415.996 194.972C406.849 189.651 393.394 189.32 384.742 194.323C383.379 195.112 382.132 196.03 381.046 197.084C380.88 197.242 380.694 197.382 380.488 197.502C379.456 198.097 377.977 198.18 376.866 197.539C358.736 186.992 340.61 176.445 322.48 165.898C321.151 165.125 320.998 163.678 321.985 162.723C329.988 154.979 329.129 144.432 318.479 138.234C317.45 137.635 317.256 136.588 318.181 135.91C325.334 130.668 333.036 125.748 341.143 121.059H341.139Z" fill="#80E58A" stroke="#082422" stroke-width="0.583536" stroke-miterlimit="10"/>
<path d="M412.84 107.535C418.61 104.198 425.044 100.957 432.061 97.8519C455.91 87.2924 480.086 79.2384 498.534 73.9669C507.855 71.3869 515.962 69.6339 522.83 69.1585C529.694 68.683 535.368 69.5182 539.692 72.0402C544.004 74.5457 546.572 78.5024 547.217 83.348C547.857 88.1895 546.523 93.8827 542.889 99.7744C537.896 108.163 527.889 116.689 514.05 124.685C508.281 128.021 501.846 131.263 494.83 134.368C470.98 144.927 446.808 152.981 428.356 158.253C419.035 160.833 410.928 162.586 404.06 163.061C397.197 163.537 391.526 162.701 387.194 160.184C382.887 157.678 380.314 153.717 379.67 148.872C379.03 144.03 380.368 138.337 383.998 132.449C388.991 124.056 398.997 115.535 412.836 107.535H412.84Z" fill="#60D06F" stroke="#082422" stroke-width="0.583536" stroke-miterlimit="10"/>
<path d="M299.163 150.615L188.781 215.091" stroke="#082422" stroke-width="0.583536" stroke-linecap="round"/>
<path d="M308.448 198.068L256.867 229.017" stroke="#082422" stroke-width="0.583536" stroke-linecap="round"/>
<path d="M410.58 414.707L359 445.655" stroke="#082422" stroke-width="0.583536" stroke-linecap="round"/>
<path d="M55.7132 414.707L4.13281 445.655" stroke="#082422" stroke-width="0.583536" stroke-linecap="round"/>
<path d="M233.142 224.891L207.352 240.365" stroke="#082422" stroke-width="0.583536" stroke-linecap="round"/>
<path d="M384.748 240.09L367.211 250.406" stroke="#082422" stroke-width="0.583536" stroke-linecap="round"/>
<path d="M330.108 352.811L312.57 363.127" stroke="#082422" stroke-width="0.583536" stroke-linecap="round"/>
<path d="M324.959 412.643L307.422 422.959" stroke="#082422" stroke-width="0.583536" stroke-linecap="round"/>
<path d="M46.4187 441.527L33.0078 449.78" stroke="#082422" stroke-width="0.583536" stroke-linecap="round"/>
<path d="M17.5373 477.635L0 487.951" stroke="#082422" stroke-width="0.583536" stroke-linecap="round"/>
<path d="M117.6 485.885L100.062 496.201" stroke="#082422" stroke-width="0.583536" stroke-linecap="round"/>
<path d="M327.012 230.049L290.906 251.713" stroke="#082422" stroke-width="0.583536" stroke-linecap="round"/>
<path d="M129.981 506.521L93.875 528.185" stroke="#082422" stroke-width="0.583536" stroke-linecap="round"/>
<path d="M210.349 291.196L208.315 300.207C206.967 306.17 203.526 311.752 197.875 316.424C178.919 332.095 142.254 331.608 115.982 315.34C97.5405 303.923 89.1224 287.763 92.2945 273.726L94.3288 264.716C91.1567 278.753 99.5749 294.91 118.016 306.33C144.288 322.598 180.953 323.081 199.909 307.414C205.561 302.741 209.001 297.16 210.349 291.196Z" fill="#0096A1" stroke="#082422" stroke-width="0.583536" stroke-miterlimit="10"/>
<path d="M186.652 249.603C212.924 265.871 218.855 291.76 199.895 307.434C180.94 323.105 144.275 322.618 118.002 306.35C91.7301 290.078 85.7999 264.189 104.755 248.518C123.711 232.848 160.376 233.331 186.652 249.603Z" fill="#29F5FF" stroke="#082422" stroke-width="0.583536" stroke-miterlimit="10"/>
<path d="M180.016 264.906L174.66 269.333C180.451 274.666 181.387 279.869 176.907 284.523L163.083 275.961C164.747 273.808 164.254 271.875 161.441 270.133C158.807 268.502 156.567 268.363 155.485 269.258C153.889 270.579 155.671 272.305 159.55 276.021L161.469 277.896C169.75 286.022 171.329 290.431 166.275 294.609C161.395 298.644 153.563 298.54 144.257 294.462L138.299 299.387L124.831 291.047L130.836 286.085C123.904 280.043 123.314 274.561 128.005 269.906L142.669 278.987C140.653 281.172 141.298 283.321 144.591 285.36C147.522 287.176 150.172 287.754 151.685 286.505C153.023 285.399 151.634 284.038 149.169 281.574L145.073 277.601C136.662 269.581 135.918 265.002 140.845 260.933C145.293 257.257 152.397 257.096 161.282 260.915L166.552 256.559L180.02 264.899L180.016 264.906Z" fill="white" stroke="#082422" stroke-width="0.583536" stroke-miterlimit="10"/>
<path d="M73.9858 316.379L9.58594 355.019" stroke="#082422" stroke-width="0.583536" stroke-linecap="round"/>
<path d="M74.5697 289.127L42.0781 309.041" stroke="#082422" stroke-width="0.583536" stroke-linecap="round"/>
</g>
<defs>
<clipPath id="clip0_14902_12389">
<rect width="696.275" height="544.795" fill="white"/>
</clipPath>
</defs>
</svg>
