<svg width="359" height="549" viewBox="0 0 359 549" fill="none" xmlns="http://www.w3.org/2000/svg">
<g clip-path="url(#clip0_15015_18757)">
<path d="M75.2727 236.27L175.445 332.582C175.445 332.582 175.983 335.663 172.951 334.089L74.375 238.799L75.2764 236.27H75.2727Z" fill="white" stroke="#082422" stroke-miterlimit="10"/>
<path d="M134.288 233.748L174.653 313.504C174.792 313.783 174.818 314.107 174.719 314.405C174.476 315.147 173.81 316.261 172.158 314.717C172.059 314.625 171.978 314.511 171.915 314.386L132.648 235.851C132.648 235.851 135.068 240.285 132.57 235.983L134.141 233.91C136.665 238.182 134.274 233.722 134.285 233.744L134.288 233.748Z" fill="white" stroke="#082422" stroke-miterlimit="10"/>
<path d="M197.104 227.461L181.423 331.766C181.423 331.766 179.278 334.042 178.719 330.671L194.535 228.255L197.1 227.461H197.104Z" fill="white" stroke="#082422" stroke-miterlimit="10"/>
<path d="M286.005 240.051L183.588 332.848C183.588 332.848 180.487 333.268 182.175 330.297L283.511 239.055L286.005 240.051Z" fill="white" stroke="#082422" stroke-miterlimit="10"/>
<path d="M200.079 135.942C205.561 135.388 209.767 132.583 209.473 129.678C209.179 126.772 204.496 124.867 199.013 125.422C193.53 125.976 189.324 128.781 189.619 131.686C189.913 134.591 194.596 136.497 200.079 135.942Z" fill="white" stroke="#082422" stroke-miterlimit="10"/>
<path d="M206.442 128.337C206.651 129.863 204.013 132.723 200.088 133.161C196.162 133.598 192.439 131.444 192.229 129.918C192.019 128.392 195.029 126.804 198.955 126.366C202.88 125.928 206.232 126.811 206.442 128.337Z" fill="white" stroke="#082422" stroke-miterlimit="10"/>
<path d="M205.02 123.91C205.476 127.216 203.21 128.719 199.538 129.128C195.862 129.536 192.168 128.697 191.716 125.392C191.26 122.087 193.872 119.075 197.547 118.667C201.223 118.259 204.571 120.605 205.023 123.91H205.02Z" fill="white" stroke="#082422" stroke-miterlimit="10"/>
<path d="M202.661 123.487C202.929 125.428 201.465 126.734 199.184 126.987C196.903 127.241 194.397 126.495 194.132 124.553C193.867 122.612 195.939 120.215 198.216 119.961C200.494 119.707 202.392 121.546 202.661 123.487Z" fill="white" stroke="#082422" stroke-miterlimit="10"/>
<path d="M249.274 48.5214C257.596 81.5055 236.897 113.846 203.049 120.755C169.2 127.663 135.014 106.526 126.691 73.5417C118.369 40.5576 139.068 8.21695 172.916 1.30835C206.765 -5.60025 240.951 15.5373 249.274 48.5214Z" fill="white" stroke="#082422" stroke-miterlimit="10"/>
<path d="M231.774 521.214C233.136 506.838 196.142 492.19 157.267 489.01C125.66 486.421 102.746 492.503 100.719 502.195C100.697 502.305 100.671 502.415 100.656 502.525C100.641 502.636 100.627 502.746 100.612 502.86L99.328 510.783C99.3059 510.894 99.2801 511.004 99.2654 511.114C99.2507 511.225 99.236 511.335 99.2213 511.449L99.1955 511.607H99.2029C98.2794 521.413 118.051 534.326 148.706 541.811C186.366 551.007 225.854 548.874 229.526 535.006L229.563 535.013L231.8 521.222H231.778L231.774 521.214Z" fill="#D1E50E" stroke="#082422" stroke-miterlimit="10"/>
<path d="M231.715 521.705C229.364 536.202 188.919 539.779 150.358 531.599C119.078 524.962 99.0481 512.417 100.652 502.527C102.256 492.636 125.332 486.397 157.264 489.011C196.631 492.235 234.066 507.207 231.712 521.705H231.715Z" fill="white" stroke="#082422" stroke-miterlimit="10"/>
<path d="M233.309 511.773C234.67 497.397 197.676 482.749 158.802 479.568C127.194 476.98 104.28 483.061 102.253 492.753C102.231 492.863 102.205 492.974 102.191 493.084C102.176 493.194 102.161 493.305 102.146 493.419L100.862 501.342C100.84 501.452 100.815 501.563 100.8 501.673C100.785 501.783 100.77 501.893 100.756 502.007L100.73 502.166H100.737C98.9786 513.082 119.586 524.884 150.24 532.37C187.9 541.566 227.389 539.433 231.061 525.564L231.098 525.572L233.334 511.78H233.312L233.309 511.773Z" fill="#D1E50E" stroke="#082422" stroke-miterlimit="10"/>
<path d="M233.254 512.261C230.903 526.759 190.458 530.336 151.897 522.155C120.617 515.519 100.587 502.974 102.191 493.083C103.795 483.189 126.871 476.954 158.803 479.568C198.17 482.792 235.605 497.764 233.251 512.261H233.254Z" fill="white" stroke="#082422" stroke-miterlimit="10"/>
<path d="M234.84 502.335C236.201 487.959 199.207 473.311 160.333 470.131C128.726 467.542 105.812 473.624 103.785 483.316C103.763 483.426 103.737 483.536 103.722 483.647C103.707 483.757 103.693 483.867 103.678 483.981L102.394 491.905C102.372 492.015 102.346 492.125 102.331 492.235C102.317 492.346 102.302 492.456 102.287 492.57L102.261 492.728H102.269C100.37 504.041 121.117 515.447 151.772 522.933C189.432 532.128 228.92 529.996 232.592 516.127L232.629 516.134L234.866 502.343H234.844L234.84 502.335Z" fill="#D1E50E" stroke="#082422" stroke-miterlimit="10"/>
<path d="M234.786 502.824C232.435 517.321 191.989 520.899 153.428 512.718C122.148 506.081 102.118 493.536 103.723 483.646C105.327 473.752 128.402 467.516 160.334 470.13C199.701 473.355 237.136 488.326 234.782 502.824H234.786Z" fill="white" stroke="#082422" stroke-miterlimit="10"/>
<path d="M236.367 492.894C237.728 478.518 200.734 463.87 161.86 460.689C130.252 458.101 107.338 464.182 105.311 473.874C105.289 473.985 105.263 474.095 105.249 474.205C105.234 474.315 105.219 474.426 105.204 474.54L103.92 482.463C103.898 482.573 103.873 482.684 103.858 482.794C103.843 482.904 103.828 483.015 103.814 483.129L103.788 483.287H103.795C102.39 495.626 122.644 506.005 153.299 513.491C190.958 522.687 230.447 520.554 234.119 506.686L234.156 506.693L236.392 492.901H236.37L236.367 492.894Z" fill="#D1E50E" stroke="#082422" stroke-miterlimit="10"/>
<path d="M236.309 493.382C233.958 507.88 193.513 511.457 154.952 503.277C123.671 496.64 103.642 484.095 105.246 474.205C106.85 464.31 129.926 458.075 161.857 460.689C201.224 463.913 238.66 478.885 236.305 493.382H236.309Z" fill="#DCFF00" stroke="#082422" stroke-miterlimit="10"/>
<path d="M181.678 492.37C217.243 492.37 246.074 458.563 246.074 416.861C246.074 375.158 217.243 341.352 181.678 341.352C146.113 341.352 117.281 375.158 117.281 416.861C117.281 458.563 146.113 492.37 181.678 492.37Z" fill="#D1E50E" stroke="#082422" stroke-miterlimit="10"/>
<path d="M175.482 492.37C211.048 492.37 239.879 458.563 239.879 416.861C239.879 375.158 211.048 341.352 175.482 341.352C139.917 341.352 111.086 375.158 111.086 416.861C111.086 458.563 139.917 492.37 175.482 492.37Z" fill="#DCFF00" stroke="#082422" stroke-miterlimit="10"/>
<path d="M140.203 232.141C140.894 234.972 137.517 237.98 132.653 238.858C127.789 239.737 123.286 238.152 122.591 235.321C121.895 232.49 125.276 229.483 130.14 228.604C135.004 227.725 139.507 229.31 140.203 232.141Z" fill="#6060BF" stroke="#082422" stroke-miterlimit="10"/>
<path d="M137.35 231.071C137.714 232.564 135.668 235.52 132.184 236.149C128.7 236.778 125.094 234.844 124.73 233.355C124.366 231.865 126.894 230.145 130.381 229.512C133.866 228.884 136.989 229.582 137.353 231.071H137.35Z" fill="#6060BF" stroke="#082422" stroke-miterlimit="10"/>
<path d="M135.553 226.781C136.344 230.016 134.478 231.612 131.215 232.2C127.951 232.789 124.526 232.149 123.735 228.917C122.944 225.681 124.946 222.582 128.213 221.994C131.476 221.405 134.765 223.549 135.556 226.781H135.553Z" fill="white" stroke="#082422" stroke-miterlimit="10"/>
<path d="M133.369 226.483C133.833 228.381 132.667 229.745 130.643 230.112C128.619 230.476 126.276 229.87 125.809 227.969C125.341 226.068 126.934 223.601 128.958 223.237C130.981 222.873 132.906 224.582 133.369 226.483Z" fill="#6060BF" stroke="#082422" stroke-miterlimit="10"/>
<path d="M166.714 150.245C178.024 182.325 163.116 215.242 133.41 223.772C103.708 232.299 70.4596 213.209 59.1498 181.13C47.84 149.05 62.748 116.132 92.4536 107.602C122.156 99.0757 155.404 118.165 166.714 150.245Z" fill="#6060BF" stroke="#082422" stroke-miterlimit="10"/>
<path d="M294.036 240.87C293.286 243.694 288.738 244.746 283.886 243.224C279.033 241.701 275.707 238.179 276.457 235.355C277.208 232.532 281.755 231.48 286.608 233.002C291.461 234.524 294.787 238.047 294.036 240.87Z" fill="#FFB05A" stroke="#082422" stroke-miterlimit="10"/>
<path d="M291.973 238.58C291.575 240.066 288.271 241.706 284.791 240.614C281.31 239.522 278.978 236.113 279.371 234.628C279.769 233.142 282.907 232.819 286.388 233.911C289.868 235.003 292.366 237.091 291.969 238.58H291.973Z" fill="#FFB05A" stroke="#082422" stroke-miterlimit="10"/>
<path d="M292.429 233.953C291.572 237.178 289.092 237.703 285.836 236.681C282.58 235.659 279.773 233.479 280.634 230.254C281.491 227.03 284.828 225.246 288.088 226.269C291.344 227.291 293.29 230.732 292.433 233.957L292.429 233.953Z" fill="white" stroke="#082422" stroke-miterlimit="10"/>
<path d="M290.588 232.66C290.084 234.553 288.354 235.2 286.335 234.568C284.315 233.936 282.479 232.288 282.983 230.395C283.487 228.501 286.14 227.078 288.159 227.711C290.179 228.343 291.092 230.766 290.588 232.656V232.66Z" fill="#FFB05A" stroke="#082422" stroke-miterlimit="10"/>
<path d="M358.159 181.222C352.784 214.835 323.141 236.8 291.953 230.285C260.764 223.77 239.834 191.242 245.209 157.629C250.584 124.016 280.227 102.051 311.416 108.566C342.607 115.081 363.535 147.61 358.159 181.222Z" fill="#FFB05A" stroke="#082422" stroke-miterlimit="10"/>
<path d="M203.916 237.227C203.533 240.117 199.291 241.695 194.442 240.75C189.593 239.805 185.969 236.698 186.348 233.808C186.726 230.918 190.972 229.341 195.821 230.286C200.674 231.231 204.294 234.338 203.916 237.227Z" fill="#F26629" stroke="#082422" stroke-miterlimit="10"/>
<path d="M201.651 235.197C201.449 236.72 198.469 238.731 194.992 238.054C191.515 237.378 188.859 234.267 189.057 232.745C189.256 231.223 192.24 230.539 195.717 231.212C199.193 231.888 201.85 233.672 201.647 235.194L201.651 235.197Z" fill="#F26629" stroke="#082422" stroke-miterlimit="10"/>
<path d="M201.527 230.55C201.092 233.852 198.775 234.66 195.518 234.028C192.262 233.396 189.301 231.557 189.738 228.256C190.176 224.954 193.167 222.792 196.424 223.424C199.68 224.057 201.964 227.248 201.53 230.546L201.527 230.55Z" fill="white" stroke="#082422" stroke-miterlimit="10"/>
<path d="M199.601 229.48C199.344 231.418 197.762 232.264 195.742 231.87C193.722 231.477 191.757 230.061 192.015 228.12C192.273 226.179 194.649 224.458 196.669 224.851C198.689 225.245 199.855 227.539 199.601 229.477V229.48Z" fill="#F26629" stroke="#082422" stroke-miterlimit="10"/>
<path d="M258.345 170.52C257.241 204.516 231.399 229.786 200.623 226.969C169.847 224.153 145.792 194.309 146.896 160.314C148 126.319 173.842 101.048 204.618 103.865C235.395 106.685 259.449 136.525 258.345 170.52Z" fill="#F26629" stroke="#082422" stroke-miterlimit="10"/>
<path d="M132.075 146.309L177.902 331.572C177.902 331.572 176.769 334.488 174.985 331.572L129.992 148.007L132.071 146.309H132.075Z" fill="white" stroke="#082422" stroke-miterlimit="10"/>
<path d="M130.58 153.361C135.509 152.752 139.214 149.912 138.856 147.018C138.497 144.125 134.212 142.272 129.283 142.881C124.355 143.491 120.65 146.33 121.008 149.224C121.366 152.118 125.652 153.97 130.58 153.361Z" fill="#FFB05A" stroke="#082422" stroke-miterlimit="10"/>
<path d="M136.173 145.759C136.361 147.284 133.988 150.145 130.456 150.582C126.924 151.02 123.572 148.865 123.384 147.34C123.197 145.814 125.904 144.225 129.44 143.788C132.972 143.35 135.989 144.233 136.177 145.759H136.173Z" fill="#FFB05A" stroke="#082422" stroke-miterlimit="10"/>
<path d="M134.881 141.33C135.29 144.636 133.255 146.139 129.947 146.547C126.64 146.956 123.314 146.117 122.906 142.812C122.497 139.507 124.844 136.495 128.152 136.087C131.46 135.679 134.473 138.025 134.881 141.33Z" fill="white" stroke="#082422" stroke-miterlimit="10"/>
<path d="M132.758 140.905C132.997 142.846 131.68 144.152 129.631 144.405C127.581 144.659 125.322 143.913 125.083 141.971C124.844 140.03 126.709 137.633 128.759 137.379C130.808 137.125 132.519 138.964 132.758 140.905Z" fill="#FFB05A" stroke="#082422" stroke-miterlimit="10"/>
<path d="M160.797 204.051C160.797 204.051 138.66 171.92 149.546 143.675L155.462 130.019C155.462 130.019 154.782 127.688 154.289 128.005C139.756 137.358 138.336 138.527 119.064 139.516C115.183 131.347 109.642 122.368 102.03 112.526C89.4286 96.2302 67.0078 105.992 67.0078 105.992C107.56 118.622 113.49 148.903 115.183 160.558C119.539 190.564 96.4117 212.059 97.0482 211.842C103.019 209.775 129.716 196.205 126.43 164.114C128.593 177.876 142.092 197.392 160.793 204.051H160.797Z" fill="#DADADA"/>
<path d="M133.095 138.195C163.564 131.288 182.195 98.9489 174.708 65.963C167.221 32.977 136.451 11.8356 105.982 18.7423C75.5127 25.6491 56.8819 57.9884 64.369 90.9744C71.856 123.96 102.626 145.102 133.095 138.195Z" fill="#FFB05A" stroke="#082422" stroke-miterlimit="10"/>
<path d="M73.3101 239.712C78.2558 238.823 81.8464 235.775 81.3298 232.903C80.8133 230.031 76.3852 228.423 71.4394 229.311C66.4937 230.2 62.9031 233.248 63.4197 236.12C63.9363 238.992 68.3643 240.6 73.3101 239.712Z" fill="#60D06F" stroke="#082422" stroke-miterlimit="10"/>
<path d="M78.498 231.817C78.7813 233.328 76.5518 236.324 73.005 236.972C69.462 237.615 65.9447 235.663 65.6614 234.151C65.3781 232.64 68.0234 230.894 71.5665 230.25C75.1095 229.607 78.2111 230.309 78.4943 231.817H78.498Z" fill="#60D06F" stroke="#082422" stroke-miterlimit="10"/>
<path d="M76.9385 227.475C77.5493 230.751 75.5809 232.372 72.2623 232.975C68.9437 233.578 65.5331 232.938 64.9224 229.662C64.3116 226.386 66.5044 223.243 69.823 222.64C73.1416 222.037 76.3278 224.202 76.9385 227.478V227.475Z" fill="white" stroke="#082422" stroke-miterlimit="10"/>
<path d="M74.76 227.178C75.1205 229.101 73.8659 230.484 71.8056 230.859C69.7489 231.234 67.4237 230.62 67.0631 228.697C66.7026 226.774 68.4465 224.27 70.5032 223.895C72.5598 223.52 74.3957 225.256 74.7563 227.178H74.76Z" fill="#60D06F" stroke="#082422" stroke-miterlimit="10"/>
<path d="M112.684 149.866C122.227 182.35 105.333 215.735 74.9538 224.43C44.5712 233.126 12.2093 213.841 2.66555 181.353C-6.87821 148.869 10.0165 115.485 40.3954 106.789C70.7779 98.0935 103.14 117.378 112.684 149.866Z" fill="#60D06F" stroke="#082422" stroke-miterlimit="10"/>
<path d="M235.178 172.166L183.254 331.979C183.254 331.979 180.745 333.847 180.782 330.431L232.514 172.5L235.178 172.162V172.166Z" fill="white" stroke="#082422" stroke-miterlimit="10"/>
<path d="M239.883 173.022C241.119 170.393 238.549 166.587 234.144 164.519C229.74 162.451 225.167 162.906 223.932 165.534C222.697 168.162 225.266 171.969 229.671 174.037C234.076 176.104 238.648 175.65 239.883 173.022Z" fill="#DCFF00" stroke="#082422" stroke-miterlimit="10"/>
<path d="M238.301 170.509C237.69 171.91 234.261 173.134 231.089 171.686C227.918 170.237 226.207 166.66 226.818 165.259C227.429 163.858 230.497 163.895 233.668 165.347C236.84 166.799 238.915 169.108 238.304 170.513L238.301 170.509Z" fill="#DCFF00" stroke="#082422" stroke-miterlimit="10"/>
<path d="M239.46 166.055C238.136 169.096 235.674 169.331 232.705 167.97C229.736 166.614 227.381 164.176 228.706 161.135C230.03 158.095 233.515 156.731 236.484 158.087C239.453 159.444 240.785 163.011 239.46 166.051V166.055Z" fill="white" stroke="#082422" stroke-miterlimit="10"/>
<path d="M237.889 164.593C237.109 166.38 235.35 166.818 233.507 165.976C231.664 165.134 230.159 163.329 230.936 161.542C231.712 159.755 234.486 158.667 236.325 159.509C238.169 160.351 238.665 162.807 237.885 164.593H237.889Z" fill="#DCFF00" stroke="#082422" stroke-miterlimit="10"/>
<path d="M310.792 122.093C300.402 154.194 268.514 172.258 239.574 162.434C210.634 152.613 195.593 118.626 205.987 86.5239C216.377 54.4222 248.264 36.3584 277.204 46.1826C306.145 56.0069 321.185 89.991 310.792 122.093Z" fill="#DCFF00" stroke="#082422" stroke-miterlimit="10"/>
<path d="M165.17 305.879C165.17 305.879 163.205 309.471 164.42 312.751C165.634 316.03 171.708 319.553 173.654 321.373C175.891 323.465 177.367 329.388 178.717 329.388C178.717 329.388 183.014 321.167 173.533 315.714C173.533 315.714 168.47 314.552 165.17 305.883V305.879Z" fill="white" stroke="#082422" stroke-miterlimit="10"/>
<path d="M165.17 300.66C165.17 300.66 163.205 304.252 164.42 307.532C165.634 310.812 171.667 315.187 173.411 316.448C178.717 320.283 180.012 323.621 179.607 326.232C179.607 326.232 183.617 317.926 175.475 313.36C175.475 313.36 169.155 311.297 165.166 300.66H165.17Z" fill="white" stroke="#082422" stroke-miterlimit="10"/>
<path d="M176.376 334.539C176.376 334.539 149.669 337.087 130.008 383.407C110.346 429.726 94.791 509.048 94.791 509.048C94.791 509.048 93.4444 520.593 107.911 524.704C107.911 524.704 99.4378 519.229 99.1765 513.446C98.919 507.662 106.686 470.976 106.991 470.52C107.296 470.064 129.228 346.768 177.208 335.657L176.376 334.539Z" fill="white" stroke="#082422" stroke-miterlimit="10"/>
<path d="M189.579 547.38C198.162 546.45 211.179 550.06 218.398 548.446C225.407 546.876 233.802 526.025 227.393 436.938C220.988 347.85 177.202 335.658 177.202 335.658L172.312 337.21C172.312 337.21 212.541 338.835 220.561 441.519C228.582 544.203 215.458 544.699 215.458 544.699L189.575 547.38H189.579Z" fill="white" stroke="#082422" stroke-linejoin="round"/>
<path d="M171.269 335.851C171.269 335.851 175.397 323.475 186.497 332.057C189.113 334.079 190.298 339.186 189.812 341.55L186.207 340.267C186.578 337.646 186.277 331.524 179.043 331.818C179.043 331.818 177.248 331.869 174.779 334.539C174.779 334.539 173.293 336.653 171.266 335.855L171.269 335.851Z" fill="white" stroke="#082422" stroke-miterlimit="10"/>
<path d="M181.431 331.768C181.431 331.768 183.348 338.286 181.685 340.595C180.025 342.908 186.115 341.676 186.214 340.268C186.313 338.86 186.644 332.121 181.431 331.768Z" fill="white" stroke="#082422" stroke-linejoin="round"/>
<path d="M174.058 335.289C174.058 335.289 171.611 340.929 177.59 341.352C183.569 341.779 181.074 341.352 181.074 341.352C181.074 341.352 175.044 338.05 177.914 334.245C177.914 334.245 179.069 332.201 180.596 331.767C180.596 331.767 176.115 330.752 174.058 335.293V335.289Z" fill="white" stroke="#082422" stroke-linejoin="round"/>
<path d="M277.003 160.56C277.003 160.56 277.481 193.14 251.359 197.949C251.359 197.949 259.774 182.533 258.324 165.414C258.324 165.414 266.415 164.741 277.003 160.557V160.56Z" fill="#DADADA"/>
<path d="M323.618 112.652C323.618 112.652 318.28 139.279 290.727 152.045C290.727 152.045 308.559 142.217 313.626 109.082L323.622 112.652H323.618Z" fill="#DADADA"/>
<path d="M192.227 104.309C192.227 104.309 193.706 139.411 220.332 150.64C220.332 150.64 199.346 129.741 202.62 103.721L192.23 104.313L192.227 104.309Z" fill="#DADADA"/>
<path d="M189.275 372.051L188.079 383.828C193.428 385.739 197.593 388.598 200.425 392.402C203.325 396.296 204.8 401.143 204.756 406.888L204.751 407.437L181.713 405.097L181.681 404.68C181.5 402.303 180.847 400.523 179.752 399.285C178.663 398.055 177.085 397.305 174.933 397.086C172.898 396.879 171.363 397.185 170.327 397.774C169.305 398.355 168.75 399.221 168.648 400.225C168.569 401.003 168.702 401.628 169.03 402.179C169.364 402.74 169.922 403.264 170.759 403.793C172.027 404.595 173.841 405.355 176.248 406.269L178.855 407.241L178.861 407.244L182.578 408.667L182.579 408.668C190.629 411.772 196.186 414.809 199.583 418.504C203.013 422.235 204.204 426.594 203.634 432.213C203.081 437.655 200.754 442.043 196.855 445.219C193.046 448.321 187.772 450.236 181.267 450.893L179.939 463.974L157.441 461.689L158.78 448.511C152.539 446.505 147.932 443.414 144.911 439.367C141.825 435.235 140.424 430.153 140.575 424.325L140.589 423.785L164.985 426.263L164.989 426.711C165.012 429.246 165.675 431.155 166.904 432.493C168.133 433.832 169.991 434.666 172.538 434.924C174.836 435.158 176.708 434.948 178.024 434.328C179.309 433.723 180.08 432.723 180.228 431.263C180.294 430.618 180.193 430.108 179.96 429.67C179.723 429.225 179.329 428.817 178.749 428.413C177.568 427.592 175.755 426.877 173.317 425.908L173.317 425.907L165.421 422.921L165.421 422.92C157.344 419.953 151.944 416.739 148.709 412.86C145.45 408.953 144.429 404.427 144.985 398.962C145.489 393.998 147.541 389.894 151.096 386.872C154.567 383.922 159.434 382.034 165.602 381.344L166.778 369.766L189.275 372.051Z" fill="white" stroke="black"/>
</g>
<defs>
<clipPath id="clip0_15015_18757">
<rect width="359.001" height="548.867" fill="white"/>
</clipPath>
</defs>
</svg>
