<svg width="476" height="388" viewBox="0 0 476 388" fill="none" xmlns="http://www.w3.org/2000/svg">
<g clip-path="url(#clip0_15015_18754)">
<path d="M352.671 335.345C360.524 335.345 366.889 332.832 366.889 329.733C366.889 326.634 360.524 324.121 352.671 324.121C344.819 324.121 338.453 326.634 338.453 329.733C338.453 332.832 344.819 335.345 352.671 335.345Z" fill="#DADADA"/>
<path d="M336.32 351.232C344.172 351.232 350.538 348.719 350.538 345.62C350.538 342.52 344.172 340.008 336.32 340.008C328.467 340.008 322.102 342.52 322.102 345.62C322.102 348.719 328.467 351.232 336.32 351.232Z" fill="#DADADA"/>
<path d="M366.734 350.911C374.586 350.911 380.952 348.399 380.952 345.299C380.952 342.2 374.586 339.688 366.734 339.688C358.881 339.688 352.516 342.2 352.516 345.299C352.516 348.399 358.881 350.911 366.734 350.911Z" fill="#DADADA"/>
<path d="M84.976 338.886C92.8285 338.886 99.1942 336.373 99.1942 333.274C99.1942 330.175 92.8285 327.662 84.976 327.662C77.1235 327.662 70.7578 330.175 70.7578 333.274C70.7578 336.373 77.1235 338.886 84.976 338.886Z" fill="#DADADA"/>
<path d="M69.4604 342.622C77.3129 342.622 83.6786 340.11 83.6786 337.01C83.6786 333.911 77.3129 331.398 69.4604 331.398C61.6079 331.398 55.2422 333.911 55.2422 337.01C55.2422 340.11 61.6079 342.622 69.4604 342.622Z" fill="#DADADA"/>
<path d="M51.2885 342.327C59.141 342.327 65.5067 339.815 65.5067 336.715C65.5067 333.616 59.141 331.104 51.2885 331.104C43.436 331.104 37.0703 333.616 37.0703 336.715C37.0703 339.815 43.436 342.327 51.2885 342.327Z" fill="#DADADA"/>
<path d="M40.8744 330.415C48.7269 330.415 55.0926 327.903 55.0926 324.803C55.0926 321.704 48.7269 319.191 40.8744 319.191C33.0219 319.191 26.6562 321.704 26.6562 324.803C26.6562 327.903 33.0219 330.415 40.8744 330.415Z" fill="#DADADA"/>
<path d="M55.0854 290.22C62.9379 290.22 69.3036 287.707 69.3036 284.608C69.3036 281.509 62.9379 278.996 55.0854 278.996C47.2329 278.996 40.8672 281.509 40.8672 284.608C40.8672 287.707 47.2329 290.22 55.0854 290.22Z" fill="#DADADA"/>
<path d="M25.0815 287.689C34.6621 287.689 42.4286 285.176 42.4286 282.077C42.4286 278.977 34.6621 276.465 25.0815 276.465C15.5009 276.465 7.73438 278.977 7.73438 282.077C7.73438 285.176 15.5009 287.689 25.0815 287.689Z" fill="#DADADA"/>
<path d="M346.128 317.937L330.06 310.85L316.886 318.674L313.516 342.55C313.516 342.55 343.065 338.47 349.58 331.599C356.095 324.732 346.128 317.934 346.128 317.934V317.937Z" fill="#DADADA"/>
<path d="M237.918 358.511L230.562 366.238C230.562 366.238 257.014 377.161 261.632 378.843C266.251 380.525 270.822 378.818 303.713 373.595C336.605 368.373 303.713 366.797 303.713 366.797L237.918 358.508V358.511Z" fill="#DADADA"/>
<path d="M70.6328 160.634C70.6328 160.634 40.6853 119.471 16.0331 136.906C16.0331 136.906 8.48355 143.033 14.5 152.976C14.5 152.976 -4.94143 156.996 14.5 168.823C14.5 168.823 18.4128 171.456 23.0341 171.334C23.0341 171.334 2.1222 184.936 36.4528 187.51C36.4528 187.51 27.0283 205.237 49.7617 203.524C72.4952 201.807 65.9771 189.039 90.1621 194.224L70.6328 160.637V160.634Z" fill="white" stroke="#002522" stroke-miterlimit="10"/>
<path d="M323.282 343.422C323.21 345.431 329.019 347.267 336.259 347.521C343.495 347.775 349.42 346.357 349.489 344.348C349.514 343.66 349.593 341.397 349.593 341.397C347.335 340.261 341.278 340.415 336.513 340.249C331.678 340.079 325.693 339.474 323.385 340.475C323.385 340.475 323.304 342.757 323.282 343.425V343.422Z" fill="#DAFC35" stroke="#022522" stroke-miterlimit="10" stroke-linecap="round"/>
<path d="M349.592 341.409C349.663 339.401 343.854 337.567 336.617 337.311C329.381 337.055 323.457 338.476 323.386 340.484C323.315 342.492 329.124 344.326 336.361 344.582C343.598 344.837 349.522 343.417 349.592 341.409Z" fill="#DAFC35" stroke="#022522" stroke-miterlimit="10" stroke-linecap="round"/>
<path d="M304.231 343.662C304.583 345.639 310.646 346.217 317.775 344.946C324.905 343.678 330.401 341.044 330.047 339.064C329.928 338.386 329.529 336.158 329.529 336.158C327.084 335.52 321.193 336.942 316.499 337.777C311.737 338.625 305.758 339.29 303.711 340.753C303.711 340.753 304.109 343 304.228 343.659L304.231 343.662Z" fill="#DAFC35" stroke="#022522" stroke-miterlimit="10" stroke-linecap="round"/>
<path d="M317.244 342.055C324.373 340.786 329.868 338.154 329.517 336.176C329.165 334.198 323.101 333.623 315.972 334.892C308.842 336.161 303.347 338.793 303.698 340.771C304.05 342.749 310.114 343.324 317.244 342.055Z" fill="#DAFC35" stroke="#022522" stroke-miterlimit="10" stroke-linecap="round"/>
<path d="M273.833 369.754C273.833 369.754 274.924 374.55 274.924 375.674C274.924 376.797 292.866 370.96 312.715 376.684C332.564 382.409 350.278 387.933 350.278 387.933C350.278 387.933 336.835 373.204 336.606 368.377C336.377 363.549 336.606 361.305 336.606 361.305C336.606 361.305 320.566 363.439 283.445 353.333L273.829 350.414C273.829 350.414 271.506 363.747 273.829 369.754H273.833Z" fill="#60CE6F" stroke="#022522" stroke-miterlimit="10"/>
<path d="M273.997 367.379C273.997 367.379 275.088 372.175 275.088 373.299C275.088 374.422 293.03 368.585 312.88 374.309C332.729 380.034 350.442 385.558 350.442 385.558C350.442 385.558 336.999 370.829 336.77 366.001C336.541 361.174 336.77 358.93 336.77 358.93C336.77 358.93 320.73 361.064 283.609 350.958L273.993 348.039C273.993 348.039 271.67 361.372 273.993 367.379H273.997Z" fill="#60CE6F" stroke="#022522" stroke-miterlimit="10"/>
<path d="M272.963 363.654C272.963 363.654 274.437 368.817 274.437 369.608C274.437 370.399 290.922 365.167 308.632 369.197C320.239 371.84 329.137 374.492 333.893 376.008C336.392 376.805 331.215 374.078 331.78 373.233C332.344 372.389 336.561 375.958 335.282 374.197C333.843 372.216 332.288 369.69 332.181 367.888C332.109 366.699 332.081 365.672 332.074 364.844C332.062 363.299 329.864 365.459 329.372 365.104C328.532 364.502 331.181 362.816 328.008 362.851C323.142 362.907 313.022 362.126 292.975 357.819L273.465 351.818C273.465 351.818 270.891 359.42 272.963 363.651V363.654Z" fill="#60CE6F" stroke="#022522" stroke-miterlimit="10"/>
<path d="M344.441 366.798C344.441 366.798 341.933 356.086 324.743 348.039C324.743 348.039 318.623 344.953 280.216 351.237L276.602 369.742C276.602 369.742 320.234 357.122 344.441 366.801V366.798Z" fill="#60CE6F" stroke="#022522" stroke-miterlimit="10"/>
<path d="M347.441 364.947C347.441 364.947 344.933 354.235 327.743 346.187C327.743 346.187 321.623 343.102 283.216 349.385L279.602 367.891C279.602 367.891 323.234 355.27 347.441 364.95V364.947Z" fill="#60CE6F" stroke="#022522" stroke-miterlimit="10"/>
<path d="M332.073 356.438C332.616 355.403 338.689 358.971 336.481 357.311C333.907 355.371 329.302 351.649 325.935 349.734C324.912 349.154 323.06 350.472 322.1 350.054C321.097 349.618 326.477 348.491 322.969 348.488C317.915 348.485 304.01 349.741 282.459 353.268L280.305 363.849C280.305 363.849 311.368 354.731 335.19 359.05C336.889 359.357 331.296 357.923 332.073 356.435V356.438Z" fill="#60CE6F" stroke="#022522" stroke-miterlimit="10"/>
<path d="M237.922 361.135C237.922 361.135 262.753 369.22 267.186 374.195C267.186 374.195 285.599 357.714 324.739 359.578C324.739 359.578 314.029 343.998 292.202 338.414C292.202 338.414 272.644 332.774 256.564 346.992C252.181 350.869 237.922 361.132 237.922 361.132V361.135Z" fill="#60CE6F" stroke="#022522" stroke-miterlimit="10"/>
<path d="M233.195 360.537C233.195 360.537 258.026 368.622 262.459 373.597C262.459 373.597 280.872 357.116 320.012 358.981C320.012 358.981 309.303 343.4 287.475 337.817C287.475 337.817 267.918 332.177 251.837 346.395C247.454 350.271 233.195 360.534 233.195 360.534V360.537Z" fill="#60CE6F" stroke="#022522" stroke-miterlimit="10"/>
<path d="M234.203 354.33C234.203 354.33 258.482 363.956 262.592 369.201C262.592 369.201 281.999 353.906 320.948 358.219C320.948 358.219 311.232 341.998 289.8 335.059C289.8 335.059 270.631 328.204 253.695 341.386C249.08 344.98 234.206 354.33 234.206 354.33H234.203Z" fill="#60CE6F" stroke="#022522" stroke-miterlimit="10"/>
<path d="M235.938 350.248C235.938 350.248 259.812 360.835 263.712 366.236C263.712 366.236 283.712 351.726 322.457 357.589C322.457 357.589 313.396 340.995 292.252 333.205C292.252 333.205 273.372 325.591 255.924 338.089C251.168 341.494 235.938 350.245 235.938 350.245V350.248Z" fill="#60CE6F" stroke="#022522" stroke-miterlimit="10"/>
<path d="M251.884 348.575C251.884 350.17 246.767 349.683 248.651 350.414C252.075 351.742 259.192 356.274 262.732 358.512C264.086 359.369 265.014 354.623 265.995 355.756C267.403 357.379 263.697 360.988 265.845 360.031C273.244 356.726 295.946 346.943 319.645 353.421C319.645 353.421 311.961 341.375 296.275 335.597C296.275 335.597 279.254 331.36 265.136 338.717C262.283 340.204 252.561 345.003 248.353 347.521C246.635 348.55 251.881 347.533 251.881 348.575H251.884Z" fill="#60CE6F" stroke="#022522" stroke-miterlimit="10"/>
<path d="M27.7059 250.116L0 260.333C0 260.333 55.3866 267.872 60.8576 280.285L72.9219 270.285C72.9219 270.285 57.4433 250.11 27.7059 250.113V250.116Z" fill="#60CE6F" stroke="#022522" stroke-miterlimit="10"/>
<path d="M29.7795 254.562C28.9017 254.703 28.7668 252.563 27.8764 252.88C25.4655 253.733 16.8123 256.495 15.4453 257.735C14.7681 258.35 18.8752 257.239 19.0163 258.52C19.17 259.891 12.655 259.549 16.0379 259.976C29.0333 261.618 60.9561 266.611 65.2952 276.463L70.7191 271.966C70.7191 271.966 58.2127 254.571 31.7077 252.855C30.2874 252.764 31.2687 254.32 29.7764 254.559L29.7795 254.562Z" fill="#60CE6F" stroke="#022522" stroke-miterlimit="10"/>
<path d="M33.6997 244.236L4.53906 248.859C4.53906 248.859 57.4019 267.044 60.3521 280.286L74.1282 272.829C74.1282 272.829 62.8665 250.023 33.6997 244.232V244.236Z" fill="#60CE6F" stroke="#022522" stroke-miterlimit="10"/>
<path d="M34.7402 247.104L32.1662 247.486C32.1662 247.486 21.3121 248.852 20.2179 249.272C19.3149 249.618 23.9676 249.822 23.8892 250.509C23.7764 251.498 18.8635 250.223 21.1553 251.184C31.7178 255.6 61.5776 268.82 64.3084 278.141L71.1713 274.341C71.1713 274.341 64.3773 254.282 37.5493 247.725C36.637 247.502 35.6996 247.295 34.737 247.104H34.7402Z" fill="#60CE6F" stroke="#022522" stroke-miterlimit="10"/>
<path d="M36.8272 240.691L7.35938 242.537C7.35938 242.537 58.2689 265.644 59.9588 279.105L74.3777 272.985C74.3777 272.985 65.32 249.219 36.8272 240.695V240.691Z" fill="#60CE6F" stroke="#022522" stroke-miterlimit="10"/>
<path d="M36.4637 245.909C35.056 245.109 35.3068 243.577 34.3788 243.851C33.0526 244.237 23.6188 243.794 21.2297 244.152C20.3237 244.287 24.8133 244.849 24.5405 245.724C24.2521 246.647 18.709 244.764 20.6811 245.709C30.8015 250.548 61.9248 266.301 63.3388 277.569L72.2396 273.79C72.2396 273.79 64.9126 253.301 38.8872 244.237C37.931 243.904 37.561 246.531 36.4669 245.909H36.4637Z" fill="#60CE6F" stroke="#022522" stroke-miterlimit="10"/>
<path d="M47.0087 245.365L17.4844 245.014C17.4844 245.014 66.541 271.84 67.2245 285.389L82.0572 280.358C82.0572 280.358 74.7866 255.983 47.0055 245.365H47.0087Z" fill="#60CE6F" stroke="#022522" stroke-miterlimit="10"/>
<path d="M48.079 250.507C46.9001 249.917 47.6839 247.199 45.135 247.931C43.373 248.436 36.4599 248.207 34.0081 248.514C33.24 248.612 38.0212 250.269 37.6857 250.969C37.3503 251.669 31.431 249.199 33.4751 250.372C43.1159 255.915 70.7058 272.735 71.2701 283.915L80.0644 280.933C80.0644 280.933 73.8504 259.635 48.5398 248.668C47.6243 248.27 49.0007 250.969 48.079 250.511V250.507Z" fill="#60CE6F" stroke="#022522" stroke-miterlimit="10"/>
<path d="M382.374 168.821C384.503 175.738 390.106 193.374 390.106 193.374C390.106 193.374 382.149 180.901 372.298 168.821C362.999 157.415 352.01 146.357 344.438 146.477L338.453 129.299C338.453 129.299 373.618 140.372 382.374 168.821Z" fill="#60CE6F" stroke="#022522" stroke-miterlimit="10"/>
<path d="M381.741 166.228C385.563 172.374 387.654 185.625 387.654 185.625C387.654 185.625 385.043 177.847 375.192 165.767C366.924 155.629 355.935 145.438 348.586 143.454C347.668 143.206 349.728 141.122 348.887 141.11C348.289 141.1 346.846 142.971 346.489 141.006C346.316 140.049 345.047 137.205 344.865 136.342C344.755 135.827 346.332 137.673 346.727 137.325C347.122 136.976 344.846 134.613 346.069 135.269C352.208 138.555 371.524 149.807 381.741 166.228Z" fill="#60CE6F" stroke="#022522" stroke-miterlimit="10"/>
<path d="M70.2916 286.52C70.0596 288.516 64.0431 289.458 56.8478 288.623C49.6525 287.788 44.0122 285.494 44.2411 283.497C44.3195 282.816 44.5797 280.566 44.5797 280.566C46.9813 279.781 52.9476 280.845 57.6849 281.395C62.488 281.953 68.4982 282.255 70.6302 283.588C70.6302 283.588 70.3668 285.858 70.2916 286.52Z" fill="#DAFC35" stroke="#022522" stroke-miterlimit="10" stroke-linecap="round"/>
<path d="M70.6387 283.582C70.8697 281.586 65.2258 279.292 58.0327 278.458C50.8396 277.623 44.8212 278.565 44.5902 280.56C44.3591 282.556 50.003 284.85 57.1962 285.685C64.3893 286.519 70.4077 285.578 70.6387 283.582Z" fill="#DAFC35" stroke="#022522" stroke-miterlimit="10" stroke-linecap="round"/>
<path d="M62.5547 137.853V308.893L188.054 355.539L315.419 308.893V137.853L188.988 107.998L62.5547 137.853Z" fill="#FDCB9A" stroke="#022522" stroke-miterlimit="10"/>
<path d="M189.297 183.565L73.5078 141.717L200.284 140.026L244.655 122.695L256.488 123.963L314.805 137.913L189.297 183.565Z" fill="#082422"/>
<path d="M300.566 159.2C299.754 161.037 293.725 160.148 287.107 157.211C280.485 154.273 275.779 150.403 276.591 148.567C276.87 147.939 277.786 145.868 277.786 145.868C280.313 145.833 285.696 148.623 290.051 150.557C294.471 152.518 300.121 154.593 301.761 156.504C301.761 156.504 300.836 158.592 300.566 159.204V159.2Z" fill="#DAFC35" stroke="#022522" stroke-miterlimit="10" stroke-linecap="round"/>
<path d="M301.767 156.513C302.58 154.676 297.872 150.806 291.252 147.869C284.631 144.932 278.606 144.041 277.792 145.877C276.979 147.714 281.687 151.584 288.308 154.521C294.928 157.458 300.954 158.35 301.767 156.513Z" fill="#DAFC35" stroke="#022522" stroke-miterlimit="10" stroke-linecap="round"/>
<path d="M303.683 155.669C302.871 157.505 296.842 156.617 290.224 153.679C283.602 150.742 278.896 146.872 279.708 145.035C279.987 144.408 280.903 142.336 280.903 142.336C283.43 142.302 288.813 145.092 293.168 147.025C297.588 148.987 303.238 151.062 304.878 152.973C304.878 152.973 303.953 155.06 303.683 155.672V155.669Z" fill="#DAFC35" stroke="#022522" stroke-miterlimit="10" stroke-linecap="round"/>
<path d="M304.884 152.982C305.697 151.145 300.989 147.275 294.369 144.338C287.749 141.401 281.723 140.509 280.91 142.346C280.097 144.183 284.804 148.053 291.425 150.99C298.045 153.927 304.071 154.818 304.884 152.982Z" fill="#DAFC35" stroke="#022522" stroke-miterlimit="10" stroke-linecap="round"/>
<path d="M305.097 148.956C304.285 150.792 298.256 149.904 291.638 146.966C285.016 144.029 280.31 140.159 281.122 138.323C281.401 137.695 282.317 135.623 282.317 135.623C284.844 135.589 290.227 138.379 294.582 140.312C299.002 142.274 304.652 144.349 306.292 146.26C306.292 146.26 305.367 148.347 305.097 148.959V148.956Z" fill="#DAFC35" stroke="#022522" stroke-miterlimit="10" stroke-linecap="round"/>
<path d="M306.298 146.271C307.111 144.434 302.403 140.564 295.783 137.627C289.163 134.69 283.137 133.798 282.324 135.635C281.511 137.472 286.218 141.342 292.839 144.279C299.459 147.216 305.485 148.108 306.298 146.271Z" fill="#DAFC35" stroke="#022522" stroke-miterlimit="10" stroke-linecap="round"/>
<path d="M277.017 155.826C277.619 157.744 272.509 161.061 265.599 163.236C258.689 165.411 252.603 165.618 252.001 163.701C251.794 163.045 251.117 160.885 251.117 160.885C252.992 159.19 258.874 157.722 263.42 156.29C268.035 154.837 273.641 152.659 276.133 153.01C276.133 153.01 276.817 155.189 277.017 155.826Z" fill="white" stroke="#002522" stroke-miterlimit="10"/>
<path d="M264.719 160.396C271.627 158.221 276.738 154.905 276.136 152.988C275.534 151.072 269.446 151.281 262.539 153.456C255.631 155.631 250.519 158.948 251.122 160.865C251.724 162.781 257.811 162.571 264.719 160.396Z" fill="white" stroke="#002522" stroke-miterlimit="10"/>
<path d="M277.033 151.109C277.635 153.027 272.524 156.344 265.614 158.519C258.707 160.694 252.619 160.902 252.017 158.984C251.81 158.328 251.133 156.169 251.133 156.169C253.008 154.474 258.889 153.005 263.435 151.574C268.05 150.12 273.656 147.942 276.149 148.294C276.149 148.294 276.832 150.472 277.033 151.109Z" fill="#DAFC35" stroke="#022522" stroke-miterlimit="10" stroke-linecap="round"/>
<path d="M264.735 155.682C271.642 153.507 276.754 150.19 276.152 148.273C275.55 146.357 269.462 146.566 262.554 148.741C255.647 150.916 250.535 154.233 251.137 156.15C251.739 158.066 257.827 157.857 264.735 155.682Z" fill="#DAFC35" stroke="#022522" stroke-miterlimit="10" stroke-linecap="round"/>
<path d="M273.658 145.136C274.26 147.054 269.149 150.372 262.239 152.547C255.332 154.722 249.244 154.929 248.642 153.011C248.435 152.355 247.758 150.196 247.758 150.196C249.633 148.501 255.514 147.032 260.06 145.601C264.675 144.148 270.281 141.969 272.774 142.321C272.774 142.321 273.457 144.499 273.658 145.136Z" fill="#DAFC35" stroke="#022522" stroke-miterlimit="10" stroke-linecap="round"/>
<path d="M261.368 149.707C268.275 147.532 273.387 144.215 272.785 142.299C272.183 140.382 266.095 140.592 259.187 142.767C252.279 144.942 247.168 148.259 247.77 150.175C248.372 152.092 254.46 151.882 261.368 149.707Z" fill="#DAFC35" stroke="#022522" stroke-miterlimit="10" stroke-linecap="round"/>
<path d="M279.753 141.476C280.117 143.454 274.643 146.125 267.519 147.443C260.399 148.761 254.329 148.228 253.966 146.25C253.84 145.575 253.43 143.347 253.43 143.347C255.496 141.891 261.512 141.15 266.196 140.284C270.88 139.417 276.784 137.923 279.214 138.573C279.214 138.573 279.627 140.817 279.75 141.476H279.753Z" fill="#DAFC35" stroke="#022522" stroke-miterlimit="10" stroke-linecap="round"/>
<path d="M266.988 144.524C274.109 143.206 279.585 140.535 279.22 138.56C278.855 136.584 272.787 136.052 265.666 137.37C258.546 138.689 253.069 141.359 253.434 143.335C253.799 145.31 259.868 145.843 266.988 144.524Z" fill="#DAFC35" stroke="#022522" stroke-miterlimit="10" stroke-linecap="round"/>
<path d="M280.339 136.8C280.703 138.777 275.228 141.448 268.105 142.766C260.985 144.085 254.915 143.551 254.552 141.574C254.426 140.899 254.016 138.67 254.016 138.67C256.082 137.214 262.098 136.473 266.782 135.607C271.538 134.725 277.37 133.247 279.8 133.897C279.8 133.897 280.213 136.141 280.336 136.8H280.339Z" fill="#DAFC35" stroke="#022522" stroke-miterlimit="10" stroke-linecap="round"/>
<path d="M267.582 139.847C274.702 138.528 280.179 135.858 279.814 133.882C279.449 131.907 273.38 131.374 266.26 132.693C259.139 134.011 253.663 136.682 254.028 138.657C254.393 140.633 260.461 141.165 267.582 139.847Z" fill="#DAFC35" stroke="#022522" stroke-miterlimit="10" stroke-linecap="round"/>
<path d="M282.364 125.183C283.336 126.943 278.981 131.209 272.641 134.715C266.302 138.217 260.377 139.633 259.408 137.875C259.075 137.273 257.984 135.292 257.984 135.292C259.483 133.258 264.957 130.65 269.13 128.343C273.303 126.036 278.429 122.753 280.94 122.6C280.94 122.6 282.044 124.599 282.364 125.183Z" fill="#DAFC35" stroke="#022522" stroke-miterlimit="10" stroke-linecap="round"/>
<path d="M271.225 132.117C277.564 128.613 281.916 124.346 280.946 122.587C279.976 120.829 274.051 122.244 267.712 125.748C261.373 129.253 257.021 133.519 257.991 135.278C258.961 137.037 264.886 135.622 271.225 132.117Z" fill="#DAFC35" stroke="#022522" stroke-miterlimit="10" stroke-linecap="round"/>
<path d="M303.636 143.57C302.824 145.406 296.795 144.517 290.177 141.58C283.555 138.642 278.849 134.772 279.661 132.936C279.94 132.308 280.856 130.237 280.856 130.237C283.383 130.202 288.766 132.992 293.121 134.926C297.542 136.887 303.191 138.962 304.831 140.873C304.831 140.873 303.906 142.961 303.636 143.573V143.57Z" fill="#DAFC35" stroke="#022522" stroke-miterlimit="10" stroke-linecap="round"/>
<path d="M304.837 140.886C305.65 139.049 300.943 135.179 294.322 132.242C287.702 129.306 281.676 128.414 280.863 130.25C280.05 132.087 284.757 135.957 291.378 138.894C297.998 141.831 304.024 142.723 304.837 140.886Z" fill="#DAFC35" stroke="#022522" stroke-miterlimit="10" stroke-linecap="round"/>
<path d="M308.05 142.288C307.238 144.124 301.209 143.236 294.591 140.298C287.969 137.361 283.263 133.491 284.075 131.655C284.355 131.027 285.27 128.955 285.27 128.955C287.797 128.921 293.18 131.711 297.535 133.645C301.956 135.606 307.605 137.681 309.245 139.592C309.245 139.592 308.32 141.679 308.05 142.291V142.288Z" fill="#DAFC35" stroke="#022522" stroke-miterlimit="10" stroke-linecap="round"/>
<path d="M309.251 139.601C310.064 137.764 305.357 133.894 298.736 130.957C292.116 128.02 286.09 127.128 285.277 128.965C284.464 130.802 289.172 134.672 295.792 137.609C302.412 140.546 308.438 141.438 309.251 139.601Z" fill="#DAFC35" stroke="#022522" stroke-miterlimit="10" stroke-linecap="round"/>
<path d="M311.527 139.402C310.715 141.238 304.686 140.349 298.068 137.412C291.446 134.474 286.74 130.604 287.552 128.768C287.831 128.14 288.747 126.069 288.747 126.069C291.274 126.034 296.657 128.824 301.012 130.758C305.366 132.691 311.082 134.794 312.722 136.706C312.722 136.706 311.797 138.793 311.527 139.405V139.402Z" fill="#DAFC35" stroke="#022522" stroke-miterlimit="10" stroke-linecap="round"/>
<path d="M312.728 136.714C313.541 134.877 308.833 131.008 302.213 128.071C295.592 125.134 289.566 124.242 288.753 126.079C287.94 127.915 292.648 131.785 299.268 134.722C305.889 137.659 311.915 138.551 312.728 136.714Z" fill="#DAFC35" stroke="#022522" stroke-miterlimit="10" stroke-linecap="round"/>
<path d="M62.5547 137.852L188.678 183.509L315.419 137.852V308.892L188.054 355.538L188.678 183.509" fill="#FDCB9A"/>
<path d="M62.5547 137.852L188.678 183.509L315.419 137.852V308.892L188.054 355.538L188.678 183.509" stroke="#022522" stroke-miterlimit="10"/>
<path d="M192.398 178.568C195.088 178.025 223.898 178.631 221.051 224.926C221.051 224.926 246.217 212.287 255.159 206.317C255.159 206.317 244.314 159.683 217.214 169.771C211.003 172.084 192.398 178.568 192.398 178.568Z" fill="#60CE6F" stroke="#022522" stroke-miterlimit="10"/>
<path d="M196.383 177.148C198.512 176.678 226.058 173.495 226.732 209.351C226.766 211.209 229.127 206.193 231.005 207.075C234.225 208.591 228.757 214.15 231.82 212.492C235.053 210.744 239.304 208.368 243.145 205.999C245.151 204.759 243 201.689 243.699 199.869C244.173 198.635 248.183 200.34 247.27 197.261C244.013 186.275 230.096 163.787 212.485 170.949C207.315 173.052 196.389 177.145 196.389 177.145L196.383 177.148Z" fill="#60CE6F" stroke="#022522" stroke-miterlimit="10"/>
<path d="M174.224 214.156C174.224 214.156 173.487 196.57 190.257 180.412L190.539 179.207C190.539 179.207 170.214 192.559 167.887 201.708C167.887 201.708 166.31 205.769 166.671 211.378L174.224 214.153V214.156Z" fill="#60CE6F" stroke="#022522" stroke-miterlimit="10"/>
<path d="M190.251 181.256C190.251 181.256 177.681 195.942 179.183 209.704L174.734 208.458C174.734 208.458 177.866 190.622 190.247 181.256H190.251Z" fill="#60CE6F" stroke="#022522" stroke-miterlimit="10"/>
<path d="M190.326 182.367C190.326 182.367 189.674 179.043 192.402 178.569C195.129 178.095 199.249 179.281 199.249 179.281L190.329 182.363L190.326 182.367Z" fill="#60CE6F" stroke="#022522" stroke-miterlimit="10"/>
<path d="M199.887 140.179L51.9267 141.566L48.9922 114.957L197.448 109.311L199.887 140.179Z" fill="#FDCB9A" stroke="#022522" stroke-miterlimit="10"/>
<path d="M318.653 95.0685L199.881 140.174L197.445 109.302L318.59 67.4297L318.653 95.0685Z" fill="#FDCB9A" stroke="#022522" stroke-miterlimit="10"/>
<path d="M318.592 67.4297L186.377 73.2644L48.9922 114.958L197.448 109.302L318.592 67.4297Z" fill="#FDCB9A" stroke="#022522" stroke-miterlimit="10"/>
<path d="M192.394 175.268C192.394 175.268 222.611 155.536 244.194 164.754L268.94 156.399C268.94 156.399 240.594 141.418 216.855 154.095C195.454 165.523 192.391 175.268 192.391 175.268H192.394Z" fill="#60CE6F" stroke="#022522" stroke-miterlimit="10"/>
<path d="M226.283 162.812C226.283 162.812 220.536 165.763 219.351 168.358L195.047 177.646L191.789 176.095C191.789 176.095 191.902 175.537 193.278 174.714C193.278 174.714 212.503 162.979 226.28 162.812H226.283Z" fill="#60CE6F" stroke="#022522" stroke-miterlimit="10"/>
<path d="M188.992 154.077C188.992 154.077 168.237 158.28 165.572 134.439C165.572 134.439 143.049 131.529 132.392 128.055C132.392 128.055 131.746 151.249 158.712 160.301C158.712 160.301 171.723 163.697 188.995 154.077H188.992Z" fill="#60CE6F" stroke="#022522" stroke-miterlimit="10"/>
<path d="M185.813 155.724C185.813 155.724 170.275 161.782 162.835 141.623C162.421 140.502 161.559 143.041 159.775 141.701C158.23 140.54 160.453 137.985 158.443 137.837C154.649 137.558 148.062 136.852 141.619 135.122C140.619 134.853 143.968 137.26 142.228 138.798C140.964 139.915 138.606 135.556 139.161 137.646C140.575 142.978 145.811 153.361 165.184 159.864C165.184 159.864 174.069 162.41 185.816 155.724H185.813Z" fill="#60CE6F" stroke="#022522" stroke-miterlimit="10"/>
<path d="M195.735 149.291H171.898C171.898 149.291 177.203 155.694 188.982 154.077C188.982 154.077 193.149 153.321 195.732 149.291H195.735Z" fill="#60CE6F" stroke="#022522" stroke-miterlimit="10"/>
<path d="M121.516 131.176L133.006 133.48C133.006 133.48 135.006 148.033 150.839 156.891C150.839 156.891 135.248 156.476 121.516 131.176Z" fill="#60CE6F" stroke="#022522" stroke-miterlimit="10"/>
<path d="M340.108 329.807C340.654 331.74 335.449 334.907 328.48 336.881C321.513 338.856 315.422 338.887 314.873 336.954C314.685 336.291 314.07 334.113 314.07 334.113C315.992 332.472 321.915 331.175 326.498 329.879C331.151 328.561 336.823 326.546 339.302 326.97C339.302 326.97 339.923 329.167 340.105 329.81L340.108 329.807Z" fill="#DAFC35" stroke="#022522" stroke-miterlimit="10" stroke-linecap="round"/>
<path d="M327.665 334.066C334.633 332.093 339.839 328.927 339.292 326.994C338.746 325.061 332.655 325.092 325.687 327.065C318.719 329.038 313.513 332.204 314.059 334.137C314.605 336.07 320.697 336.038 327.665 334.066Z" fill="#DAFC35" stroke="#022522" stroke-miterlimit="10" stroke-linecap="round"/>
<path d="M336.569 323.385C337.115 325.318 331.91 328.485 324.941 330.46C317.974 332.434 311.883 332.465 311.334 330.532C311.146 329.869 310.531 327.691 310.531 327.691C312.453 326.05 318.376 324.753 322.959 323.457C327.612 322.139 333.283 320.124 335.763 320.548C335.763 320.548 336.384 322.745 336.566 323.388L336.569 323.385Z" fill="#DAFC35" stroke="#022522" stroke-miterlimit="10" stroke-linecap="round"/>
<path d="M324.125 327.648C331.093 325.675 336.3 322.509 335.753 320.576C335.207 318.643 329.116 318.674 322.148 320.647C315.18 322.62 309.974 325.786 310.52 327.719C311.066 329.652 317.157 329.62 324.125 327.648Z" fill="#DAFC35" stroke="#022522" stroke-miterlimit="10" stroke-linecap="round"/>
<path d="M315.921 332.502C316.466 334.436 311.262 337.603 304.292 339.577C297.326 341.551 291.234 341.582 290.685 339.649C290.497 338.987 289.883 336.808 289.883 336.808C291.805 335.167 297.727 333.871 302.311 332.574C306.963 331.256 312.635 329.241 315.115 329.665C315.115 329.665 315.736 331.862 315.918 332.505L315.921 332.502Z" fill="#DAFC35" stroke="#022522" stroke-miterlimit="10" stroke-linecap="round"/>
<path d="M303.469 336.763C310.437 334.791 315.643 331.624 315.097 329.691C314.551 327.758 308.46 327.79 301.492 329.762C294.524 331.735 289.318 334.901 289.864 336.834C290.41 338.768 296.501 338.736 303.469 336.763Z" fill="#DAFC35" stroke="#022522" stroke-miterlimit="10" stroke-linecap="round"/>
<path d="M324.702 321.965C325.248 323.899 320.043 327.065 313.073 329.04C306.107 331.014 300.015 331.045 299.467 329.112C299.279 328.45 298.664 326.271 298.664 326.271C300.586 324.63 306.508 323.334 311.092 322.037C315.745 320.719 321.416 318.704 323.896 319.128C323.896 319.128 324.517 321.325 324.699 321.968L324.702 321.965Z" fill="#DAFC35" stroke="#022522" stroke-miterlimit="10" stroke-linecap="round"/>
<path d="M312.25 326.222C319.218 324.25 324.425 321.083 323.878 319.15C323.332 317.217 317.241 317.249 310.273 319.221C303.305 321.194 298.099 324.36 298.645 326.293C299.191 328.227 305.282 328.195 312.25 326.222Z" fill="#DAFC35" stroke="#022522" stroke-miterlimit="10" stroke-linecap="round"/>
<path d="M316.363 135.948C315.551 137.785 309.522 136.896 302.903 133.959C296.282 131.021 291.576 127.151 292.388 125.315C292.667 124.687 293.583 122.616 293.583 122.616C296.109 122.581 301.493 125.371 305.847 127.305C310.268 129.266 315.918 131.341 317.557 133.252C317.557 133.252 316.633 135.34 316.363 135.952V135.948Z" fill="#DAFC35" stroke="#022522" stroke-miterlimit="10" stroke-linecap="round"/>
<path d="M317.564 133.263C318.377 131.426 313.669 127.556 307.049 124.619C300.428 121.682 294.402 120.791 293.589 122.627C292.776 124.464 297.484 128.334 304.104 131.271C310.725 134.208 316.751 135.1 317.564 133.263Z" fill="#DAFC35" stroke="#022522" stroke-miterlimit="10" stroke-linecap="round"/>
<path d="M321.806 133.36C320.85 135.127 314.912 133.755 308.547 130.297C302.183 126.838 297.8 122.604 298.756 120.837C299.082 120.234 300.161 118.244 300.161 118.244C302.681 118.414 307.823 121.624 312.012 123.9C316.263 126.21 321.725 128.73 323.207 130.767C323.207 130.767 322.12 132.773 321.803 133.36H321.806Z" fill="#DAFC35" stroke="#022522" stroke-miterlimit="10" stroke-linecap="round"/>
<path d="M323.203 130.764C324.16 128.999 319.776 124.764 313.412 121.306C307.048 117.848 301.112 116.477 300.155 118.242C299.198 120.008 303.581 124.243 309.946 127.701C316.31 131.158 322.245 132.53 323.203 130.764Z" fill="#DAFC35" stroke="#022522" stroke-miterlimit="10" stroke-linecap="round"/>
<path d="M344.444 329.044C344.212 331.04 349.856 333.334 357.051 334.169C364.243 335.004 370.263 334.063 370.495 332.066C370.573 331.385 370.833 329.135 370.833 329.135C368.673 327.823 362.622 327.49 357.888 326.941C353.085 326.382 347.166 325.3 344.783 326.113C344.783 326.113 344.52 328.382 344.444 329.044Z" fill="#DAFC35" stroke="#022522" stroke-miterlimit="10" stroke-linecap="round"/>
<path d="M370.826 329.125C371.057 327.129 365.413 324.835 358.22 324.001C351.027 323.166 345.009 324.108 344.778 326.103C344.547 328.099 350.191 330.393 357.384 331.228C364.577 332.062 370.595 331.121 370.826 329.125Z" fill="#DAFC35" stroke="#022522" stroke-miterlimit="10" stroke-linecap="round"/>
<path d="M342.905 324.786C342.673 326.782 348.317 329.077 355.512 329.912C362.704 330.746 368.724 329.805 368.956 327.809C369.034 327.128 369.294 324.877 369.294 324.877C367.134 323.565 361.083 323.233 356.349 322.683C351.546 322.125 345.627 321.042 343.244 321.855C343.244 321.855 342.981 324.124 342.905 324.786Z" fill="#DAFC35" stroke="#022522" stroke-miterlimit="10" stroke-linecap="round"/>
<path d="M369.287 324.869C369.518 322.874 363.874 320.579 356.681 319.745C349.488 318.91 343.47 319.852 343.239 321.847C343.008 323.843 348.651 326.137 355.845 326.972C363.038 327.806 369.056 326.865 369.287 324.869Z" fill="#DAFC35" stroke="#022522" stroke-miterlimit="10" stroke-linecap="round"/>
<path d="M340.499 319.355C340.267 321.351 345.91 323.645 353.106 324.48C360.298 325.315 366.318 324.373 366.55 322.377C366.628 321.696 366.888 319.446 366.888 319.446C364.728 318.134 358.677 317.801 353.943 317.252C349.14 316.693 343.22 315.61 340.838 316.423C340.838 316.423 340.574 318.692 340.499 319.355Z" fill="#DAFC35" stroke="#022522" stroke-miterlimit="10" stroke-linecap="round"/>
<path d="M366.881 319.438C367.112 317.442 361.468 315.148 354.275 314.313C347.082 313.479 341.063 314.42 340.832 316.416C340.601 318.411 346.245 320.706 353.438 321.54C360.631 322.375 366.65 321.433 366.881 319.438Z" fill="#DAFC35" stroke="#022522" stroke-miterlimit="10" stroke-linecap="round"/>
<path d="M16.046 281.823C15.814 283.819 21.4573 286.114 28.6527 286.949C35.8448 287.784 41.8644 286.842 42.0964 284.846C42.1748 284.165 42.435 281.914 42.435 281.914C40.2749 280.602 34.2239 280.27 29.4898 279.72C24.6866 279.162 18.7673 278.079 16.3846 278.892C16.3846 278.892 16.1212 281.161 16.046 281.823Z" fill="#DAFC35" stroke="#022522" stroke-miterlimit="10" stroke-linecap="round"/>
<path d="M42.4278 281.904C42.6588 279.909 37.0149 277.614 29.8218 276.78C22.6287 275.946 16.6102 276.887 16.3792 278.883C16.1482 280.878 21.7921 283.173 28.9852 284.007C36.1784 284.841 42.1968 283.9 42.4278 281.904Z" fill="#DAFC35" stroke="#022522" stroke-miterlimit="10" stroke-linecap="round"/>
<path d="M14.5147 277.565C14.2827 279.562 19.9261 281.856 27.1214 282.691C34.3136 283.526 40.3332 282.584 40.5652 280.588C40.6436 279.907 40.9038 277.656 40.9038 277.656C38.7436 276.345 32.6927 276.012 27.9585 275.463C23.1554 274.904 17.2361 273.821 14.8533 274.634C14.8533 274.634 14.59 276.903 14.5147 277.565Z" fill="#DAFC35" stroke="#022522" stroke-miterlimit="10" stroke-linecap="round"/>
<path d="M40.8966 277.647C41.1276 275.651 35.4837 273.357 28.2905 272.522C21.0974 271.688 15.079 272.629 14.848 274.625C14.617 276.62 20.2609 278.915 27.454 279.749C34.6471 280.584 40.6656 279.642 40.8966 277.647Z" fill="#DAFC35" stroke="#022522" stroke-miterlimit="10" stroke-linecap="round"/>
<path d="M12.1007 272.134C11.8686 274.13 17.512 276.424 24.7073 277.259C31.8995 278.094 37.9191 277.153 38.1511 275.156C38.2295 274.475 38.4897 272.225 38.4897 272.225C36.3296 270.913 30.2786 270.58 25.5444 270.031C20.7413 269.472 14.822 268.389 12.4393 269.202C12.4393 269.202 12.1759 271.472 12.1007 272.134Z" fill="#DAFC35" stroke="#022522" stroke-miterlimit="10" stroke-linecap="round"/>
<path d="M38.4903 272.219C38.7213 270.223 33.0774 267.929 25.8843 267.094C18.6912 266.26 12.6727 267.201 12.4417 269.197C12.2107 271.193 17.8546 273.487 25.0477 274.321C32.2409 275.156 38.2593 274.215 38.4903 272.219Z" fill="#DAFC35" stroke="#022522" stroke-miterlimit="10" stroke-linecap="round"/>
<path d="M337.126 314.36C337.054 316.369 342.863 318.205 350.102 318.459C357.338 318.714 363.264 317.295 363.333 315.286C363.358 314.599 363.436 312.336 363.436 312.336C361.179 311.2 355.122 311.354 350.356 311.187C345.591 311.021 339.537 310.412 337.229 311.413C337.229 311.413 337.148 313.695 337.126 314.364V314.36Z" fill="#DAFC35" stroke="#022522" stroke-miterlimit="10" stroke-linecap="round"/>
<path d="M363.444 312.343C363.515 310.335 357.706 308.5 350.469 308.245C343.232 307.989 337.308 309.41 337.237 311.417C337.167 313.425 342.976 315.26 350.213 315.515C357.449 315.771 363.373 314.35 363.444 312.343Z" fill="#DAFC35" stroke="#022522" stroke-miterlimit="10" stroke-linecap="round"/>
<path d="M365.696 345.841C365.624 347.85 371.433 349.686 378.673 349.94C385.909 350.194 391.834 348.775 391.903 346.767C391.928 346.079 392.007 343.816 392.007 343.816C389.749 342.68 383.692 342.834 378.927 342.668C374.161 342.501 368.107 341.892 365.799 342.894C365.799 342.894 365.718 345.175 365.696 345.844V345.841Z" fill="#DAFC35" stroke="#022522" stroke-miterlimit="10" stroke-linecap="round"/>
<path d="M392.007 343.827C392.077 341.819 386.268 339.984 379.031 339.729C371.795 339.473 365.871 340.894 365.8 342.902C365.729 344.909 371.538 346.744 378.775 347C386.012 347.255 391.936 345.835 392.007 343.827Z" fill="#DAFC35" stroke="#022522" stroke-miterlimit="10" stroke-linecap="round"/>
<path d="M346.653 346.082C347.004 348.059 353.068 348.637 360.197 347.366C367.327 346.098 372.823 343.464 372.469 341.484C372.349 340.806 371.951 338.577 371.951 338.577C369.506 337.94 363.615 339.362 358.921 340.197C354.159 341.044 348.18 341.71 346.133 343.172C346.133 343.172 346.531 345.42 346.65 346.079L346.653 346.082Z" fill="#DAFC35" stroke="#022522" stroke-miterlimit="10" stroke-linecap="round"/>
<path d="M359.665 344.475C366.795 343.206 372.29 340.574 371.939 338.596C371.587 336.618 365.523 336.043 358.393 337.312C351.264 338.581 345.769 341.213 346.12 343.191C346.472 345.169 352.536 345.744 359.665 344.475Z" fill="#DAFC35" stroke="#022522" stroke-miterlimit="10" stroke-linecap="round"/>
<path d="M315.137 317.428C315.774 319.333 321.856 319.019 328.725 316.728C335.595 314.434 340.649 311.028 340.012 309.123C339.796 308.47 339.081 306.323 339.081 306.323C336.57 306.05 330.945 308.313 326.424 309.823C321.903 311.333 316.018 312.883 314.203 314.628C314.203 314.628 314.924 316.794 315.134 317.428H315.137Z" fill="#DAFC35" stroke="#022522" stroke-miterlimit="10" stroke-linecap="round"/>
<path d="M327.808 313.898C334.677 311.604 339.73 308.199 339.095 306.293C338.46 304.387 332.377 304.702 325.508 306.996C318.639 309.291 313.585 312.695 314.22 314.601C314.855 316.507 320.939 316.192 327.808 313.898Z" fill="#DAFC35" stroke="#022522" stroke-miterlimit="10" stroke-linecap="round"/>
<path d="M277.77 346.461C278.958 348.081 284.652 345.912 290.486 341.618C296.321 337.325 300.086 332.529 298.895 330.909C298.487 330.357 297.148 328.533 297.148 328.533C294.675 329.045 290.019 332.927 286.178 335.755C282.281 338.624 277.212 341.866 276.023 344.085C276.023 344.085 277.375 345.924 277.77 346.461Z" fill="#DAFC35" stroke="#022522" stroke-miterlimit="10" stroke-linecap="round"/>
<path d="M288.751 339.206C294.585 334.911 298.35 330.118 297.161 328.499C295.972 326.881 290.279 329.05 284.446 333.345C278.612 337.64 274.847 342.433 276.036 344.052C277.224 345.67 282.917 343.501 288.751 339.206Z" fill="#DAFC35" stroke="#022522" stroke-miterlimit="10" stroke-linecap="round"/>
<path d="M332.114 171.293C330.182 171.839 327.019 166.629 325.047 159.652C323.075 152.678 323.044 146.579 324.975 146.03C325.636 145.842 327.812 145.227 327.812 145.227C329.452 147.151 330.747 153.079 332.042 157.668C333.358 162.326 335.371 168.004 334.948 170.486C334.948 170.486 332.753 171.108 332.111 171.29L332.114 171.293Z" fill="#DAFC35" stroke="#022522" stroke-miterlimit="10" stroke-linecap="round"/>
<path d="M334.945 170.513C336.876 169.967 336.844 163.869 334.873 156.893C332.903 149.917 329.74 144.706 327.809 145.252C325.878 145.799 325.91 151.897 327.88 158.873C329.851 165.848 333.014 171.06 334.945 170.513Z" fill="#DAFC35" stroke="#022522" stroke-miterlimit="10" stroke-linecap="round"/>
<path d="M207.777 164.537C208.626 166.358 203.999 170.322 197.44 173.395C190.881 176.467 184.874 177.478 184.021 175.658C183.73 175.036 182.773 172.984 182.773 172.984C184.407 171.053 190.041 168.822 194.361 166.8C198.741 164.751 204.014 161.848 206.529 161.863C206.529 161.863 207.495 163.932 207.777 164.537Z" fill="#DAFC35" stroke="#022522" stroke-miterlimit="10" stroke-linecap="round"/>
<path d="M196.19 170.714C202.749 167.644 207.378 163.679 206.528 161.86C205.678 160.04 199.671 161.053 193.112 164.124C186.552 167.194 181.923 171.159 182.773 172.979C183.624 174.799 189.63 173.785 196.19 170.714Z" fill="#DAFC35" stroke="#022522" stroke-miterlimit="10" stroke-linecap="round"/>
<path d="M200.981 157.558C202.169 159.177 198.404 163.97 192.572 168.267C186.737 172.56 181.044 174.729 179.856 173.11C179.448 172.557 178.109 170.734 178.109 170.734C179.335 168.521 184.427 165.228 188.264 162.404C192.161 159.535 196.764 155.659 199.234 155.182C199.234 155.182 200.586 157.021 200.981 157.558Z" fill="#DAFC35" stroke="#022522" stroke-miterlimit="10" stroke-linecap="round"/>
<path d="M190.829 165.872C196.663 161.577 200.428 156.784 199.239 155.165C198.05 153.547 192.357 155.716 186.524 160.011C180.69 164.306 176.925 169.099 178.114 170.718C179.303 172.336 184.996 170.167 190.829 165.872Z" fill="#DAFC35" stroke="#022522" stroke-miterlimit="10" stroke-linecap="round"/>
<path d="M186.176 159.54C187.364 161.16 183.599 165.952 177.767 170.249C171.933 174.543 166.239 176.711 165.051 175.092C164.643 174.54 163.305 172.716 163.305 172.716C164.531 170.503 169.622 167.211 173.46 164.386C177.357 161.517 181.959 157.641 184.43 157.164C184.43 157.164 185.781 159.003 186.176 159.54Z" fill="#DAFC35" stroke="#022522" stroke-miterlimit="10" stroke-linecap="round"/>
<path d="M176.025 167.851C181.858 163.556 185.624 158.762 184.435 157.144C183.246 155.525 177.553 157.695 171.719 161.989C165.885 166.284 162.12 171.078 163.309 172.696C164.498 174.315 170.191 172.145 176.025 167.851Z" fill="#DAFC35" stroke="#022522" stroke-miterlimit="10" stroke-linecap="round"/>
<path d="M178.056 159.113C178.692 161.018 173.638 164.423 166.769 166.718C159.9 169.012 153.818 169.326 153.181 167.418C152.965 166.765 152.25 164.618 152.25 164.618C154.094 162.889 159.95 161.322 164.471 159.813C168.992 158.303 174.629 156.006 177.128 156.313C177.128 156.313 177.849 158.479 178.059 159.113H178.056Z" fill="#DAFC35" stroke="#022522" stroke-miterlimit="10" stroke-linecap="round"/>
<path d="M165.847 163.904C172.716 161.609 177.77 158.205 177.134 156.299C176.499 154.393 170.416 154.708 163.547 157.002C156.678 159.296 151.624 162.701 152.259 164.607C152.894 166.513 158.978 166.198 165.847 163.904Z" fill="#DAFC35" stroke="#022522" stroke-miterlimit="10" stroke-linecap="round"/>
<path d="M49.3686 332.839C49.4595 334.848 43.6688 336.741 36.4358 337.07C29.2029 337.4 23.2648 336.037 23.1739 334.032C23.1425 333.344 23.0391 331.085 23.0391 331.085C25.2839 329.927 31.3442 330.018 36.1066 329.801C40.938 329.581 46.9168 328.916 49.2369 329.892C49.2369 329.892 49.3404 332.174 49.3717 332.839H49.3686Z" fill="#DAFC35" stroke="#022522" stroke-miterlimit="10" stroke-linecap="round"/>
<path d="M36.2792 334.124C43.513 333.795 49.3033 331.901 49.2123 329.894C49.1213 327.887 43.1833 326.527 35.9495 326.856C28.7157 327.185 22.9254 329.078 23.0164 331.085C23.1074 333.092 29.0454 334.452 36.2792 334.124Z" fill="#DAFC35" stroke="#022522" stroke-miterlimit="10" stroke-linecap="round"/>
<path d="M44.1917 316.114C45.3799 317.734 41.6145 322.526 35.783 326.823C29.9515 331.12 24.2549 333.286 23.0666 331.666C22.659 331.114 21.3203 329.29 21.3203 329.29C22.5462 327.077 27.6378 323.785 31.4753 320.96C35.3723 318.092 39.9748 314.215 42.4454 313.738C42.4454 313.738 43.7966 315.578 44.1917 316.114Z" fill="#DAFC35" stroke="#022522" stroke-miterlimit="10" stroke-linecap="round"/>
<path d="M34.048 324.425C39.8817 320.13 43.647 315.337 42.4581 313.718C41.2691 312.1 35.5762 314.269 29.7425 318.564C23.9088 322.858 20.1435 327.652 21.3324 329.27C22.5213 330.889 28.2143 328.719 34.048 324.425Z" fill="#DAFC35" stroke="#022522" stroke-miterlimit="10" stroke-linecap="round"/>
<path d="M78.8919 332.592C79.5283 334.497 74.4744 337.902 67.6051 340.196C60.7359 342.491 54.6535 342.805 54.0171 340.896C53.8008 340.244 53.0859 338.097 53.0859 338.097C54.9294 336.367 60.786 334.801 65.307 333.291C69.8938 331.76 75.4651 329.484 77.9638 329.792C77.9638 329.792 78.6849 331.958 78.895 332.592H78.8919Z" fill="#DAFC35" stroke="#022522" stroke-miterlimit="10" stroke-linecap="round"/>
<path d="M66.6906 337.382C73.5597 335.088 78.6133 331.683 77.9782 329.777C77.343 327.872 71.2597 328.187 64.3906 330.481C57.5216 332.775 52.468 336.18 53.1031 338.085C53.7382 339.991 59.8216 339.676 66.6906 337.382Z" fill="#DAFC35" stroke="#022522" stroke-miterlimit="10" stroke-linecap="round"/>
<path d="M194.658 177.388C194.658 177.388 193.996 176.939 193.614 176.792C190.416 175.562 175.216 169.739 170.445 168.34C165.099 166.773 158.506 168.71 151.571 175.653C144.636 182.595 138.152 189.88 138.723 206.273L168.059 218.909C168.059 218.909 162.829 205.021 172.037 194.663C172.037 194.663 183.17 183.932 190.259 179.381C192.078 178.214 193.63 177.454 194.658 177.385V177.388Z" fill="#60CE6F" stroke="#022522" stroke-miterlimit="10"/>
<path d="M190.584 175.637C190.584 175.637 187.614 174.532 187.339 174.403C185.028 173.348 174.632 170.018 171.183 168.819C167.32 167.476 159.956 172.671 154.748 178.455C149.791 183.96 145.505 187.68 143.317 198.307C143.082 199.456 146.27 198.163 146.932 199.321C148.274 201.672 144.668 202.739 145.559 203.304C148.274 205.03 156.099 208.442 157.874 208.856C159.115 209.145 157.043 204.955 159.122 203.913C161.2 202.871 161.743 209.069 162.053 206.715C162.592 202.651 164.251 196.213 169.292 191.314C172.879 187.83 181.946 181.801 187.069 177.896C188.383 176.895 189.837 175.693 190.584 175.637Z" fill="#60CE6F" stroke="#022522" stroke-miterlimit="10"/>
<path d="M228.019 147.653C228.019 147.653 258.979 132.726 229.147 107.058C229.147 107.058 241.334 108.511 255.154 97.6953C255.154 97.6953 267.363 109.641 256.559 130.466C256.559 130.466 250.915 143.858 228.016 147.653H228.019Z" fill="#60CE6F" stroke="#022522" stroke-miterlimit="10"/>
<path d="M234.906 146.098C234.906 146.098 254.561 133.945 239.945 113.026C239.324 112.135 241.584 113.428 242.283 112.464C242.707 111.884 238.813 110.669 240.75 110.393C243.061 110.063 246.808 108.827 252.137 104.982C252.746 104.546 252.833 106.871 253.435 107.433C254.448 108.381 254.451 104.357 255.006 105.716C256.671 109.793 259.452 119.012 255.031 127.489C252.818 131.732 250.078 140.982 234.906 146.095V146.098Z" fill="#60CE6F" stroke="#022522" stroke-miterlimit="10"/>
<path d="M211.414 149.002L229.959 138.733C229.959 138.733 237.687 138.937 241.807 131.715C241.807 131.715 241.659 139.853 228.024 147.656C228.024 147.656 225.385 149.147 211.414 149.006V149.002Z" fill="#60CE6F" stroke="#022522" stroke-miterlimit="10"/>
<path d="M226.134 166.379C225.178 168.146 219.24 166.775 212.875 163.316C206.511 159.857 202.128 155.623 203.084 153.856C203.41 153.254 204.489 151.264 204.489 151.264C207.009 151.433 212.151 154.644 216.34 156.92C220.591 159.23 226.053 161.75 227.536 163.787C227.536 163.787 226.448 165.792 226.131 166.379H226.134Z" fill="#DAFC35" stroke="#022522" stroke-miterlimit="10" stroke-linecap="round"/>
<path d="M227.538 163.788C228.496 162.022 224.112 157.788 217.748 154.33C211.384 150.872 205.448 149.5 204.491 151.266C203.534 153.031 207.917 157.266 214.281 160.724C220.646 164.182 226.581 165.554 227.538 163.788Z" fill="#DAFC35" stroke="#022522" stroke-miterlimit="10" stroke-linecap="round"/>
<path d="M234.134 152.863C234.096 154.872 228.199 156.394 220.957 156.262C213.718 156.13 207.877 154.395 207.914 152.383C207.927 151.695 207.968 149.433 207.968 149.433C210.281 148.419 216.323 148.896 221.088 148.984C225.923 149.072 231.933 148.789 234.184 149.913C234.184 149.913 234.143 152.195 234.131 152.863H234.134Z" fill="#DAFC35" stroke="#022522" stroke-miterlimit="10" stroke-linecap="round"/>
<path d="M234.199 149.92C234.236 147.911 228.397 146.175 221.156 146.043C213.916 145.91 208.017 147.43 207.981 149.439C207.944 151.448 213.783 153.184 221.023 153.317C228.263 153.45 234.162 151.929 234.199 149.92Z" fill="#DAFC35" stroke="#022522" stroke-miterlimit="10" stroke-linecap="round"/>
<path d="M223.277 152.545C222.465 154.381 216.436 153.49 209.818 150.552C203.196 147.615 198.49 143.745 199.302 141.909C199.581 141.281 200.497 139.209 200.497 139.209C203.024 139.175 208.407 141.965 212.762 143.898C217.182 145.86 222.832 147.935 224.472 149.846C224.472 149.846 223.547 151.933 223.277 152.545Z" fill="#DAFC35" stroke="#022522" stroke-miterlimit="10" stroke-linecap="round"/>
<path d="M224.47 149.855C225.283 148.018 220.575 144.148 213.955 141.211C207.335 138.274 201.309 137.382 200.496 139.219C199.683 141.056 204.39 144.926 211.011 147.863C217.631 150.8 223.657 151.692 224.47 149.855Z" fill="#DAFC35" stroke="#022522" stroke-miterlimit="10" stroke-linecap="round"/>
<path d="M228.808 149.001C227.996 150.837 221.967 149.949 215.349 147.011C208.727 144.074 204.021 140.204 204.833 138.368C205.112 137.74 206.028 135.668 206.028 135.668C208.555 135.634 213.938 138.424 218.293 140.357C222.713 142.319 228.363 144.394 230.003 146.305C230.003 146.305 229.078 148.389 228.808 149.001Z" fill="#DAFC35" stroke="#022522" stroke-miterlimit="10" stroke-linecap="round"/>
<path d="M230.001 146.312C230.814 144.475 226.107 140.605 219.486 137.668C212.866 134.731 206.84 133.839 206.027 135.676C205.214 137.513 209.922 141.383 216.542 144.32C223.162 147.257 229.188 148.149 230.001 146.312Z" fill="#DAFC35" stroke="#022522" stroke-miterlimit="10" stroke-linecap="round"/>
<path d="M143.777 181.437C142.965 183.273 136.936 182.385 130.318 179.447C123.696 176.509 118.99 172.639 119.802 170.803C120.081 170.175 120.997 168.104 120.997 168.104C123.524 168.069 128.907 170.86 133.262 172.793C137.682 174.755 143.332 176.829 144.972 178.741C144.972 178.741 144.047 180.828 143.777 181.44V181.437Z" fill="#DAFC35" stroke="#022522" stroke-miterlimit="10" stroke-linecap="round"/>
<path d="M144.97 178.753C145.783 176.916 141.075 173.047 134.455 170.11C127.835 167.173 121.809 166.281 120.996 168.118C120.183 169.954 124.89 173.824 131.511 176.761C138.131 179.698 144.157 180.59 144.97 178.753Z" fill="#DAFC35" stroke="#022522" stroke-miterlimit="10" stroke-linecap="round"/>
<path d="M144.371 175.009C143.559 176.845 137.53 175.957 130.911 173.019C124.29 170.081 119.584 166.211 120.396 164.375C120.675 163.748 121.59 161.676 121.59 161.676C124.117 161.642 129.5 164.432 133.855 166.365C138.21 168.299 143.926 170.402 145.565 172.313C145.565 172.313 144.64 174.4 144.371 175.012V175.009Z" fill="#DAFC35" stroke="#022522" stroke-miterlimit="10" stroke-linecap="round"/>
<path d="M145.564 172.32C146.377 170.483 141.669 166.613 135.049 163.676C128.428 160.739 122.402 159.847 121.589 161.684C120.776 163.521 125.484 167.391 132.104 170.328C138.725 173.264 144.751 174.156 145.564 172.32Z" fill="#DAFC35" stroke="#022522" stroke-miterlimit="10" stroke-linecap="round"/>
<path d="M150.074 171.079C149.262 172.915 143.233 172.027 136.614 169.089C129.993 166.152 125.287 162.282 126.099 160.446C126.378 159.818 127.293 157.746 127.293 157.746C129.82 157.712 135.204 160.502 139.558 162.436C143.979 164.397 149.629 166.472 151.268 168.383C151.268 168.383 150.344 170.47 150.074 171.082V171.079Z" fill="#DAFC35" stroke="#022522" stroke-miterlimit="10" stroke-linecap="round"/>
<path d="M151.267 168.394C152.08 166.557 147.372 162.687 140.752 159.75C134.131 156.813 128.106 155.921 127.292 157.758C126.479 159.595 131.187 163.465 137.808 166.402C144.428 169.339 150.454 170.231 151.267 168.394Z" fill="#DAFC35" stroke="#022522" stroke-miterlimit="10" stroke-linecap="round"/>
<path d="M154.91 166.82C154.098 168.656 148.069 167.767 141.45 164.83C134.829 161.892 130.123 158.022 130.935 156.186C131.214 155.558 132.129 153.487 132.129 153.487C134.656 153.452 140.04 156.242 144.394 158.176C148.815 160.137 154.465 162.212 156.104 164.123C156.104 164.123 155.179 166.211 154.91 166.823V166.82Z" fill="#DAFC35" stroke="#022522" stroke-miterlimit="10" stroke-linecap="round"/>
<path d="M156.111 164.132C156.924 162.295 152.216 158.425 145.596 155.489C138.975 152.552 132.949 151.66 132.136 153.497C131.323 155.333 136.031 159.203 142.651 162.14C149.272 165.077 155.298 165.969 156.111 164.132Z" fill="#DAFC35" stroke="#022522" stroke-miterlimit="10" stroke-linecap="round"/>
<path d="M44.1908 309.319C45.0405 311.139 40.4129 315.103 33.854 318.176C27.2952 321.246 21.2881 322.259 20.4353 320.439C20.1437 319.817 19.1875 317.765 19.1875 317.765C20.8209 315.835 26.4549 313.603 30.7752 311.582C35.1551 309.532 40.4286 306.629 42.943 306.645C42.943 306.645 43.9086 308.713 44.1908 309.319Z" fill="#DAFC35" stroke="#022522" stroke-miterlimit="10" stroke-linecap="round"/>
<path d="M32.6117 315.494C39.1713 312.423 43.7998 308.459 42.9498 306.639C42.0997 304.819 36.0931 305.833 29.5335 308.903C22.9739 311.974 18.3453 315.938 19.1954 317.758C20.0454 319.578 26.0521 318.564 32.6117 315.494Z" fill="#DAFC35" stroke="#022522" stroke-miterlimit="10" stroke-linecap="round"/>
<path d="M91.6304 201.68C93.3956 202.638 92.0255 208.582 88.5705 214.954C85.1155 221.325 80.8861 225.713 79.1209 224.756C78.519 224.429 76.5312 223.349 76.5312 223.349C76.7006 220.826 79.9079 215.679 82.1809 211.485C84.4884 207.229 87.006 201.762 89.0407 200.277C89.0407 200.277 91.0442 201.366 91.6304 201.683V201.68Z" fill="#DAFC35" stroke="#022522" stroke-miterlimit="10" stroke-linecap="round"/>
<path d="M85.9775 213.547C89.4316 207.176 90.8019 201.234 89.0381 200.276C87.2742 199.318 83.0443 203.706 79.5902 210.077C76.1361 216.448 74.7658 222.39 76.5296 223.348C78.2934 224.307 82.5234 219.919 85.9775 213.547Z" fill="#DAFC35" stroke="#022522" stroke-miterlimit="10" stroke-linecap="round"/>
<path d="M85.5795 260.35C87.5546 259.998 90.1851 265.497 91.4548 272.635C92.7246 279.772 92.1477 285.842 90.1725 286.193C89.4953 286.313 87.2693 286.711 87.2693 286.711C85.8303 284.634 85.1311 278.607 84.2972 273.909C83.4506 269.141 82.0116 263.294 82.6794 260.865C82.6794 260.865 84.9242 260.466 85.5826 260.347L85.5795 260.35Z" fill="#DAFC35" stroke="#022522" stroke-miterlimit="10" stroke-linecap="round"/>
<path d="M87.2532 286.719C89.229 286.368 89.8034 280.297 88.536 273.16C87.2686 266.022 84.6394 260.521 82.6636 260.873C80.6877 261.225 80.1134 267.296 81.3807 274.433C82.6481 281.57 85.2773 287.071 87.2532 286.719Z" fill="#DAFC35" stroke="#022522" stroke-miterlimit="10" stroke-linecap="round"/>
<path d="M84.6586 301.092C86.6119 301.553 86.847 307.649 85.1854 314.704C83.5237 321.76 80.5891 327.105 78.6359 326.644C77.9681 326.487 75.7672 325.966 75.7672 325.966C75.2687 323.486 77.015 317.677 78.1123 313.031C79.2222 308.32 80.2192 302.382 81.793 300.414C81.793 300.414 84.0128 300.938 84.6618 301.092H84.6586Z" fill="#DAFC35" stroke="#022522" stroke-miterlimit="10" stroke-linecap="round"/>
<path d="M82.3115 314C83.9749 306.945 83.74 300.851 81.7868 300.39C79.8336 299.928 76.9018 305.273 75.2384 312.329C73.575 319.384 73.8099 325.478 75.7631 325.939C77.7163 326.401 80.6481 321.055 82.3115 314Z" fill="#DAFC35" stroke="#022522" stroke-miterlimit="10" stroke-linecap="round"/>
<path d="M84.9255 338.667C84.1134 340.503 78.0844 339.615 71.466 336.677C64.8444 333.74 60.1385 329.87 60.9505 328.034C61.2295 327.406 62.145 325.334 62.145 325.334C64.672 325.3 70.0551 328.09 74.41 330.023C78.7648 331.957 84.4803 334.06 86.12 335.971C86.12 335.971 85.1951 338.058 84.9255 338.67V338.667Z" fill="#DAFC35" stroke="#022522" stroke-miterlimit="10" stroke-linecap="round"/>
<path d="M86.1106 335.986C86.9237 334.149 82.2159 330.279 75.5956 327.342C68.9752 324.405 62.9493 323.513 62.1362 325.35C61.3232 327.187 66.0309 331.057 72.6513 333.994C79.2716 336.931 85.2976 337.822 86.1106 335.986Z" fill="#DAFC35" stroke="#022522" stroke-miterlimit="10" stroke-linecap="round"/>
<path d="M62.5436 332.393C62.8947 334.371 57.4018 337.004 50.2724 338.275C43.1429 339.543 37.0794 338.969 36.7282 336.991C36.6091 336.314 36.2109 334.085 36.2109 334.085C38.2864 332.644 44.3061 331.945 48.9995 331.11C53.7619 330.262 59.6028 328.822 62.0294 329.49C62.0294 329.49 62.4276 331.737 62.5467 332.397L62.5436 332.393Z" fill="#DAFC35" stroke="#022522" stroke-miterlimit="10" stroke-linecap="round"/>
<path d="M49.7357 335.372C56.8652 334.103 62.3601 331.471 62.0088 329.493C61.6576 327.515 55.5932 326.94 48.4638 328.209C41.3343 329.477 35.8394 332.109 36.1907 334.087C36.5419 336.065 42.6062 336.64 49.7357 335.372Z" fill="#DAFC35" stroke="#022522" stroke-miterlimit="10" stroke-linecap="round"/>
<path d="M70.5 327.252C70.431 329.261 64.5117 330.692 57.2725 330.448C50.0333 330.203 44.2238 328.376 44.2896 326.367C44.3116 325.68 44.3899 323.417 44.3899 323.417C46.7194 322.441 52.7547 323.009 57.5171 323.172C62.3516 323.335 68.3618 323.144 70.5972 324.302C70.5972 324.302 70.5219 326.584 70.4968 327.252H70.5Z" fill="#DAFC35" stroke="#022522" stroke-miterlimit="10" stroke-linecap="round"/>
<path d="M70.596 324.307C70.6636 322.299 64.8515 320.474 57.6144 320.229C50.3772 319.985 44.4556 321.415 44.388 323.423C44.3204 325.431 50.1325 327.257 57.3696 327.501C64.6068 327.745 70.5285 326.315 70.596 324.307Z" fill="#DAFC35" stroke="#022522" stroke-miterlimit="10" stroke-linecap="round"/>
<path d="M99.0303 333.19C98.8391 335.189 92.8414 336.256 85.6336 335.565C78.4257 334.878 72.7353 332.697 72.9266 330.697C72.9924 330.013 73.2056 327.76 73.2056 327.76C75.5915 326.928 81.5797 327.866 86.3233 328.322C91.139 328.78 97.1492 328.959 99.3094 330.252C99.3094 330.252 99.093 332.524 99.0303 333.19Z" fill="#DAFC35" stroke="#022522" stroke-miterlimit="10" stroke-linecap="round"/>
<path d="M99.3089 330.274C99.4995 328.274 93.8103 326.095 86.6018 325.407C79.3933 324.718 73.3951 325.781 73.2045 327.781C73.0139 329.781 78.703 331.96 85.9116 332.649C93.1201 333.337 99.1183 332.274 99.3089 330.274Z" fill="#DAFC35" stroke="#022522" stroke-miterlimit="10" stroke-linecap="round"/>
<path d="M245.73 160.71C244.229 162.044 239.115 158.73 234.312 153.306C229.506 147.883 226.828 142.406 228.333 141.072C228.847 140.617 230.537 139.113 230.537 139.113C232.848 140.133 236.588 144.907 239.751 148.476C242.962 152.098 247.238 156.332 247.937 158.752C247.937 158.752 246.232 160.268 245.733 160.71H245.73Z" fill="#DAFC35" stroke="#022522" stroke-miterlimit="10" stroke-linecap="round"/>
<path d="M247.931 158.754C249.432 157.421 246.754 151.943 241.949 146.52C237.145 141.096 232.032 137.781 230.531 139.114C229.03 140.447 231.708 145.924 236.512 151.347C241.317 156.771 246.429 160.087 247.931 158.754Z" fill="#DAFC35" stroke="#022522" stroke-miterlimit="10" stroke-linecap="round"/>
<path d="M256.562 130.462C256.562 130.462 270.894 123.751 267.787 103.225C267.787 103.225 260.902 105.161 260.011 105.462C260.011 105.462 264.375 114.571 256.562 130.462Z" fill="#60CE6F" stroke="#022522" stroke-miterlimit="10"/>
<path d="M117.23 139.209C117.23 139.209 132.276 155.197 150.845 156.889C150.845 156.889 132.715 151.154 126.419 139.111L117.227 139.209H117.23Z" fill="#60CE6F" stroke="#022522" stroke-miterlimit="10"/>
<path d="M98.6581 149.957C98.6581 149.957 91.3813 149.122 91.0772 154.339L90.8828 158.344C90.8828 158.344 113.967 156.012 122.802 156.053C122.802 156.053 123.69 149.22 124.731 149.298L123.081 148.002L98.655 149.957H98.6581Z" fill="#60CE6F" stroke="#022522" stroke-miterlimit="10"/>
<path d="M92.3984 144.031C92.3984 144.031 93.502 148.855 98.6563 149.957C103.811 151.059 124.729 149.298 124.729 149.298C124.729 149.298 121.186 148.466 121.518 144.524C121.518 144.524 104.939 148.538 92.3984 144.031Z" fill="#60CE6F" stroke="#022522" stroke-miterlimit="10"/>
<path d="M126.558 153.893C127.408 155.713 122.78 159.677 116.221 162.75C109.662 165.82 103.655 166.834 102.803 165.013C102.511 164.392 101.555 162.339 101.555 162.339C103.188 160.409 108.822 158.177 113.142 156.156C117.522 154.106 122.796 151.203 125.31 151.219C125.31 151.219 126.276 153.287 126.558 153.893Z" fill="#DAFC35" stroke="#022522" stroke-miterlimit="10" stroke-linecap="round"/>
<path d="M114.971 160.072C121.531 157.001 126.159 153.037 125.309 151.217C124.459 149.397 118.452 150.411 111.893 153.481C105.333 156.552 100.705 160.516 101.555 162.336C102.405 164.156 108.411 163.142 114.971 160.072Z" fill="#DAFC35" stroke="#022522" stroke-miterlimit="10" stroke-linecap="round"/>
<path d="M370.188 178.063C370.188 178.063 379.239 181.782 390.106 193.37C390.106 193.37 379.668 175.263 372.297 168.816C372.297 168.816 370.548 176.305 370.188 178.06V178.063Z" fill="#60CE6F" stroke="#022522" stroke-miterlimit="10"/>
<path d="M285.297 209.698C285.297 209.698 308.538 232.974 342.903 210.956C377.268 188.939 389.834 180.16 447.817 200.276C505.799 220.391 453.244 242.123 453.244 242.123C453.244 242.123 466.954 252.989 462.668 258.422C458.382 263.855 438.96 271.862 422.967 253.56C422.967 253.56 440.104 282.26 410.687 274.344C410.687 274.344 392.944 269.382 390.104 259.9C390.104 259.9 398.447 277.269 380.146 277.571C361.843 277.869 347.139 255.566 340.069 252.421C332.996 249.276 331.131 244.414 323.274 247.845C315.42 251.275 285.867 251.62 285.297 209.701V209.698Z" fill="white" stroke="#002522" stroke-miterlimit="10"/>
<path d="M375.562 234.973C375.562 244.746 390.687 264.41 396.703 267.85L375.562 234.973Z" fill="white"/>
<path d="M375.562 234.973C375.562 244.746 390.687 264.41 396.703 267.85" stroke="#002522" stroke-miterlimit="10" stroke-linecap="round"/>
<path d="M415.258 238.117C415.258 238.117 417.264 253.23 434.113 262.26L415.258 238.117Z" fill="white"/>
<path d="M415.258 238.117C415.258 238.117 417.264 253.23 434.113 262.26" stroke="#002522" stroke-miterlimit="10" stroke-linecap="round"/>
<path d="M338.456 236.404C338.456 236.404 334.766 248.896 350.445 261.272L338.456 236.404Z" fill="white"/>
<path d="M338.456 236.404C338.456 236.404 334.766 248.896 350.445 261.272" stroke="#002522" stroke-miterlimit="10" stroke-linecap="round"/>
<path d="M440.961 233.281C440.961 233.281 442.284 251.272 463.757 236.401L440.961 233.281Z" fill="white"/>
<path d="M440.961 233.281C440.961 233.281 442.284 251.272 463.757 236.401" stroke="#002522" stroke-miterlimit="10" stroke-linecap="round"/>
<path d="M324.919 222.52C322.928 222.256 322.088 216.214 323.041 209.03C323.994 201.842 326.38 196.234 328.368 196.497C329.048 196.588 331.29 196.886 331.29 196.886C332.033 199.303 330.873 205.26 330.246 209.99C329.61 214.789 329.211 220.8 327.841 222.912C327.841 222.912 325.581 222.611 324.919 222.523V222.52Z" fill="#DAFC35" stroke="#022522" stroke-miterlimit="10" stroke-linecap="round"/>
<path d="M333.187 210.387C334.14 203.201 333.299 197.161 331.31 196.897C329.321 196.632 326.936 202.244 325.983 209.43C325.03 216.616 325.871 222.656 327.86 222.92C329.849 223.184 332.234 217.573 333.187 210.387Z" fill="#DAFC35" stroke="#022522" stroke-miterlimit="10" stroke-linecap="round"/>
<path d="M32.8642 154.34C32.8642 154.34 15.5641 164.274 12.1875 145.869L32.8642 154.34Z" fill="white"/>
<path d="M32.8642 154.34C32.8642 154.34 15.5641 164.274 12.1875 145.869" stroke="#002522" stroke-miterlimit="10" stroke-linecap="round"/>
<path d="M29.4126 168.666C29.4126 168.666 27.0581 174.151 14.5078 168.82L29.4126 168.666Z" fill="white"/>
<path d="M29.4126 168.666C29.4126 168.666 27.0581 174.151 14.5078 168.82" stroke="#002522" stroke-miterlimit="10" stroke-linecap="round"/>
<path d="M38.4845 179.207C38.4845 179.207 43.1183 189.938 31.7344 187.044L38.4845 179.207Z" fill="white"/>
<path d="M38.4845 179.207C38.4845 179.207 43.1183 189.938 31.7344 187.044" stroke="#002522" stroke-miterlimit="10" stroke-linecap="round"/>
<path d="M85.9839 279.664L85.6328 278.516C85.1406 278.249 84.617 277.819 84.2847 277.433L84.222 276.786C84.5668 277.163 85.0403 277.558 85.5231 277.775C86.2034 278.082 86.5608 277.765 86.3382 276.981C86.1156 276.206 85.567 275.619 84.7487 275.057C83.7799 274.404 83.1748 273.798 82.8393 272.75C82.5101 271.717 82.6199 270.798 83.2093 270.368L82.739 268.823L83.2312 268.541L83.7015 270.129C84.2721 269.963 84.78 270.098 85.197 270.305L85.2315 271.538C84.9431 271.375 84.4163 271.096 83.8301 271.225C83.2156 271.36 83.203 272.031 83.3692 272.565C83.5824 273.246 83.968 273.597 84.8647 274.15C86.1219 274.919 86.9904 275.86 87.3634 277.244C87.6832 278.425 87.2725 279.14 86.2128 278.786L86.5828 280.032L85.9839 279.667V279.664Z" fill="white" stroke="#002522" stroke-linecap="round" stroke-linejoin="round"/>
<path d="M223.801 143.39L222.697 142.916C222.177 143.123 221.512 143.246 221.001 143.249L220.468 142.882C220.976 142.86 221.584 142.75 222.061 142.524C222.735 142.2 222.722 141.723 221.979 141.388C221.246 141.058 220.44 141.099 219.484 141.362C218.361 141.683 217.509 141.755 216.493 141.337C215.493 140.926 214.859 140.248 214.913 139.517L213.43 138.88L213.53 138.321L215.044 138.987C215.286 138.444 215.718 138.142 216.142 137.957L217.104 138.726C216.791 138.842 216.239 139.065 215.963 139.595C215.671 140.154 216.176 140.597 216.69 140.813C217.349 141.089 217.866 141.02 218.866 140.691C220.261 140.223 221.544 140.167 222.842 140.772C223.948 141.287 224.231 142.062 223.277 142.649L224.466 143.17L223.801 143.393V143.39Z" fill="white" stroke="#002522" stroke-linecap="round" stroke-linejoin="round"/>
<path d="M316.535 127.22L315.432 126.746C314.911 126.953 314.247 127.076 313.736 127.079L313.203 126.712C313.711 126.69 314.319 126.58 314.795 126.354C315.469 126.031 315.457 125.553 314.714 125.218C313.98 124.888 313.174 124.929 312.218 125.193C311.096 125.513 310.243 125.585 309.227 125.167C308.211 124.75 307.594 124.078 307.647 123.347L306.164 122.71L306.264 122.151L307.779 122.817C308.02 122.274 308.453 121.972 308.876 121.787L309.839 122.556C309.525 122.672 308.973 122.895 308.697 123.425C308.406 123.984 308.91 124.427 309.425 124.643C310.083 124.919 310.6 124.85 311.601 124.521C312.996 124.053 314.278 123.997 315.576 124.602C316.683 125.117 316.965 125.892 316.012 126.479L317.2 127L316.535 127.223V127.22Z" fill="white" stroke="#002522" stroke-linecap="round" stroke-linejoin="round"/>
<path d="M332.54 162.49L332.21 161.335C331.721 161.062 331.207 160.619 330.884 160.227L330.834 159.58C331.173 159.963 331.64 160.365 332.116 160.591C332.794 160.911 333.154 160.6 332.944 159.813C332.737 159.034 332.198 158.435 331.389 157.86C330.433 157.189 329.84 156.574 329.524 155.519C329.213 154.483 329.339 153.564 329.937 153.143L329.495 151.589L329.994 151.316L330.433 152.911C331.006 152.757 331.511 152.901 331.925 153.115L331.938 154.348C331.652 154.179 331.132 153.89 330.542 154.009C329.928 154.135 329.9 154.803 330.056 155.34C330.257 156.024 330.637 156.382 331.524 156.953C332.765 157.744 333.618 158.702 333.966 160.092C334.264 161.278 333.841 161.985 332.787 161.611L333.135 162.863L332.543 162.487L332.54 162.49Z" fill="white" stroke="#002522" stroke-linecap="round" stroke-linejoin="round"/>
<path d="M282.264 339.128L283.139 338.362C283.177 337.819 283.349 337.188 283.559 336.742L284.105 336.432C283.91 336.887 283.75 337.461 283.747 337.973C283.747 338.698 284.167 338.886 284.769 338.377C285.365 337.875 285.666 337.153 285.838 336.209C286.03 335.094 286.324 334.319 287.118 333.607C287.895 332.907 288.751 332.64 289.369 332.988L290.548 331.959L290.993 332.282L289.779 333.327C290.153 333.767 290.234 334.269 290.215 334.718L289.143 335.239C289.174 334.919 289.212 334.341 288.864 333.877C288.5 333.387 287.901 333.641 287.497 333.999C286.98 334.457 286.823 334.938 286.691 335.951C286.513 337.367 286.023 338.509 284.951 339.388C284.039 340.138 283.243 340.06 283.133 338.98L282.18 339.799L282.264 339.124V339.128Z" fill="white" stroke="#002522" stroke-linecap="round" stroke-linejoin="round"/>
<path d="M321.618 311.927L322.687 311.466C322.888 310.961 323.245 310.414 323.581 310.05L324.195 309.922C323.872 310.295 323.543 310.794 323.386 311.281C323.164 311.971 323.509 312.279 324.236 311.981C324.957 311.682 325.462 311.089 325.916 310.242C326.44 309.241 326.957 308.591 327.929 308.155C328.901 307.718 329.782 307.734 330.259 308.255L331.695 307.637L332.021 308.079L330.547 308.704C330.767 309.234 330.691 309.74 330.538 310.163L329.356 310.33C329.481 310.035 329.694 309.498 329.506 308.946C329.309 308.368 328.663 308.428 328.168 308.644C327.534 308.924 327.24 309.332 326.804 310.257C326.202 311.551 325.39 312.489 324.098 312.997C322.998 313.434 322.267 313.114 322.493 312.053L321.336 312.542L321.621 311.927H321.618Z" fill="white" stroke="#002522" stroke-linecap="round" stroke-linejoin="round"/>
<path d="M353.466 340.895L354.679 340.741C355.033 340.289 355.557 339.837 356.002 339.568L356.66 339.618C356.225 339.9 355.742 340.311 355.441 340.76C355.011 341.397 355.268 341.812 356.093 341.724C356.908 341.636 357.595 341.181 358.303 340.456C359.128 339.593 359.843 339.084 360.952 338.93C362.062 338.777 362.946 339.05 363.276 339.724L364.906 339.52L365.104 340.07L363.429 340.267C363.495 340.873 363.269 341.363 362.987 341.749L361.746 341.567C361.962 341.303 362.335 340.82 362.307 340.205C362.279 339.59 361.608 339.429 361.043 339.502C360.322 339.596 359.902 339.925 359.191 340.738C358.2 341.874 357.099 342.587 355.648 342.725C354.409 342.841 353.767 342.301 354.306 341.287L352.992 341.441L353.462 340.898L353.466 340.895Z" fill="white" stroke="#002522" stroke-linecap="round" stroke-linejoin="round"/>
<path d="M259.556 329.484L252.828 331.961V90.2796L259.556 87.4297V329.484Z" fill="#F06629" stroke="#022522" stroke-miterlimit="10"/>
<path d="M259.56 87.4297L252.832 90.1101L122.602 92.6179L129.339 90.6185L259.56 87.4297Z" fill="#F06629" stroke="#022522" stroke-miterlimit="10"/>
<path d="M118.617 329.485L125.345 332.345V111.975L118.617 112.295V329.485Z" fill="#F06629" stroke="#022522" stroke-miterlimit="10"/>
<path d="M118.617 112.295L125.345 111.975L258.209 70.1055L249.788 70.5292L118.617 112.295Z" fill="#F06629" stroke="#022522" stroke-miterlimit="10"/>
<path d="M192.222 85.938C191.138 86.0761 190.015 85.6179 189.351 84.6574C188.401 83.2827 188.746 81.3964 190.119 80.4454C190.134 80.436 190.304 80.3167 190.611 80.097C190.57 79.9495 190.539 79.7988 190.52 79.645C187.498 54.7086 188.401 35.1329 193.207 21.4673C198.277 7.05152 206.591 2.20232 212.67 0.670668C217.68 -0.591064 223.104 -0.0606343 227.954 2.16152C232.45 4.22047 235.965 7.57881 237.351 11.1412C240.524 19.2922 240.063 28.3754 235.977 38.1334C232.827 45.6567 227.509 53.6069 220.167 61.7705C207.82 75.4958 194.132 85.0247 193.555 85.4233C193.144 85.7089 192.686 85.8752 192.222 85.9349V85.938ZM216.056 6.18211C215.423 6.26372 214.787 6.38299 214.144 6.54306C207.485 8.21909 202.217 14.0758 198.91 23.4791C194.605 35.7167 193.687 53.3307 196.17 75.8755C201.261 71.8298 208.798 65.3768 215.74 57.6463C226.312 45.8733 237.667 28.6296 231.714 13.3413C230.253 9.59067 223.499 5.23111 216.053 6.18211H216.056Z" fill="#F06629" stroke="#022522" stroke-miterlimit="10"/>
<path d="M191.452 86.0354C190.973 86.0951 190.474 86.0417 189.991 85.8565C187.283 84.8176 123.719 59.9628 130.864 23.7398C131.576 20.1335 134.257 16.2384 138.038 13.3164C142.252 10.0585 147.34 8.35105 152.36 8.50798C158.329 8.69316 167.13 11.587 175.153 24.2985C182.733 36.31 188.217 53.0295 191.499 77.6553C191.518 77.8059 193.769 77.7243 193.766 77.8718C194.13 78.0194 196.306 79.2528 196.34 79.2654C197.898 79.8649 197.155 82.6834 196.557 84.2433C196.143 85.3198 192.518 85.8973 191.452 86.0323V86.0354ZM149.836 14.6723C142.954 15.5511 137.558 21.0531 136.796 24.9136C131.912 49.6618 169.102 69.7428 185.091 77.1437C177.052 21.4109 159.464 14.7884 152.175 14.5593C151.381 14.5342 150.598 14.575 149.839 14.6723H149.836Z" fill="#F06629" stroke="#022522" stroke-miterlimit="10"/>
<path d="M381.096 64.1182C380.82 62.5834 379.359 61.5634 377.82 61.8364C376.287 62.1126 375.265 63.5815 375.541 65.1163C376.042 67.9097 376.274 71.5191 374.541 72.8342C373.186 73.8637 369.728 74.4412 360.959 71.3716C353.892 68.8984 345.255 64.7083 336.902 60.6563C330.679 57.6369 324.242 54.514 318.439 52.0941C305.353 46.636 284.685 48.5066 257.014 57.6589C234.952 64.9562 213.864 75.0846 203.728 79.9526C202.8 80.3983 200.906 81.2677 199.564 81.886C198.615 83.719 198.928 86.1452 199.032 88.3359C199.59 88.11 200.163 87.8683 200.762 87.6015C201.925 87.0868 203.706 86.2299 206.17 85.0466C216.2 80.2288 237.068 70.2072 258.785 63.026C285.131 54.3131 304.472 52.3891 316.27 57.3105C321.926 59.6708 328.29 62.756 334.444 65.7409C350.334 73.4462 364.436 80.2853 373.171 79.1711C375.017 78.9357 376.619 78.3457 377.952 77.335C381.172 74.89 382.231 70.4426 381.096 64.1182Z" fill="#F06629" stroke="#022522" stroke-miterlimit="10"/>
<path d="M14.7097 126.231C12.8662 126.467 11.1638 126.297 9.6213 125.654C5.8904 124.097 3.75218 120.058 3.26623 113.649C3.14709 112.092 4.30712 110.739 5.86532 110.617C7.42038 110.497 8.77479 111.665 8.89393 113.219C9.11026 116.05 9.78747 119.599 11.794 120.438C13.3647 121.093 16.8542 120.786 24.5763 115.613C30.7997 111.442 38.111 105.221 45.1809 99.2015C50.4512 94.7164 55.9002 90.0775 60.9102 86.2797C72.2127 77.7081 92.6856 74.3341 121.768 76.2486C144.953 77.774 167.906 82.2842 178.935 84.453C180.337 84.7292 183.748 85.3256 184.773 85.5202C184.215 84.1517 179.612 84.8705 182.039 79.403C183.174 76.845 184.46 74.3843 187.438 72.611C191.407 70.2476 195.693 70.6211 198.9 73.609C202.101 76.5908 203.333 81.4682 201.706 84.7135C199.085 89.9488 196.423 93.2098 183.723 91.1132C182.469 90.9061 180.531 90.5263 177.847 89.999C166.934 87.8522 144.222 83.389 121.398 81.8888C93.7108 80.0684 74.5076 83.0595 64.3182 90.7868C59.4335 94.4904 54.0472 99.0759 48.8365 103.511C35.3865 114.961 23.4476 125.12 14.7129 126.235L14.7097 126.231ZM184.983 85.5578C189.285 86.2232 192.526 86.2703 194.088 85.539C195.201 85.018 195.702 84.089 196.646 82.2058C197.063 81.374 196.565 79.155 195.05 77.7458C193.686 76.4746 192.141 76.3836 190.319 77.4696C188.752 78.4017 187.824 79.45 187.557 80.5862C187.187 82.1712 187.701 82.3627 187.864 82.8084C188.002 83.1913 188.021 83.7594 187.852 84.0073C187.419 84.6414 184.983 85.5578 184.983 85.5578Z" fill="#F06629" stroke="#022522" stroke-miterlimit="10"/>
</g>
<defs>
<clipPath id="clip0_15015_18754">
<rect width="475.073" height="387.933" fill="white"/>
</clipPath>
</defs>
</svg>
