<svg width="564" height="358" viewBox="0 0 564 358" fill="none" xmlns="http://www.w3.org/2000/svg">
<g clip-path="url(#clip0_15015_18755)">
<path d="M474.701 222.285L503.028 232.94C503.028 232.94 462.18 242.432 447.532 244.33C432.884 246.227 424.906 235.986 424.906 235.986C424.906 235.986 463.526 234.465 474.705 222.285H474.701Z" fill="#38A543" stroke="#022522" stroke-miterlimit="10"/>
<path d="M424.402 282.064C424.402 282.064 444.2 300.363 457.94 299.945C457.94 299.945 458.038 307.592 417.846 318.473L391.883 303.051C391.883 303.051 424.911 289.956 424.402 282.061V282.064Z" fill="#38A543" stroke="#022522" stroke-miterlimit="10"/>
<path d="M503.165 278.141C501.936 281.676 509.3 287.437 519.608 291.006C529.916 294.575 539.267 294.602 540.496 291.066C541.057 289.451 542.264 285.98 542.264 285.98C539.308 283.457 529.656 280.14 524.057 278.201C517.745 276.014 508.885 272.58 504.934 273.054C504.934 273.054 503.644 276.77 503.165 278.141Z" fill="#DAFC35" stroke="#022522" stroke-miterlimit="10" stroke-linecap="round"/>
<path d="M542.244 285.951C543.472 282.414 536.11 276.654 525.8 273.085C515.491 269.516 506.138 269.49 504.91 273.026C503.683 276.563 511.045 282.323 521.354 285.892C531.664 289.461 541.016 289.487 542.244 285.951Z" fill="#DAFC35" stroke="#022522" stroke-miterlimit="10" stroke-linecap="round"/>
<path d="M79.0378 145.854C79.0378 145.854 70.9655 167.394 51.8044 167.514C51.8044 167.514 55.0583 164.404 50.4773 157.405C50.4773 157.405 56.0461 142.943 40.2332 142.857C24.4202 142.77 22.2824 143.448 12.2796 142.604C2.27685 141.761 0.561336 157.827 3.81516 160.835C7.06899 163.843 8.0606 162.1 7.09916 163.064C6.13771 164.028 2.04309 161.305 0.274787 173.022C-1.49352 184.739 5.85116 183.591 5.85116 185.157C5.85116 186.724 2.57094 184.882 2.30702 190.319C1.79048 201.038 4.81054 201.69 9.50842 204.22C14.2063 206.746 18.1539 207.522 28.0662 209.273C34.1365 210.346 41.8544 206.434 40.9608 196.155C40.9608 196.155 48.1924 191.464 49.1539 184.363C49.1539 184.363 66.6258 198.802 86.5107 171.848C86.5107 171.848 96.5135 157.77 79.0378 145.854Z" fill="#FDCB9A" stroke="#022522" stroke-miterlimit="10"/>
<path d="M25.0469 161.137C25.0469 161.137 46.0139 166.19 50.4743 157.406L25.0469 161.137Z" fill="#FDCB9A"/>
<path d="M25.0469 161.137C25.0469 161.137 46.0139 166.19 50.4743 157.406" stroke="#022522" stroke-miterlimit="10"/>
<path d="M25.0467 161.137C36.207 162.823 40.4751 165.945 40.4751 165.945C47.4125 170.922 42.7071 182.933 40.4751 186.122C36.7198 191.483 18.5391 186.585 18.5391 186.585" fill="#FDCB9A"/>
<path d="M25.0467 161.137C36.207 162.823 40.4751 165.945 40.4751 165.945C47.4125 170.922 42.7071 182.933 40.4751 186.122C36.7198 191.483 18.5391 186.585 18.5391 186.585" stroke="#022522" stroke-miterlimit="10"/>
<path d="M26.1875 188.012C26.1875 188.012 42.0419 189.073 40.9334 198.957L26.1875 188.012Z" fill="#FDCB9A"/>
<path d="M26.1875 188.012C26.1875 188.012 42.0419 189.073 40.9334 198.957" stroke="#022522" stroke-miterlimit="10"/>
<path d="M262.351 101.688C283.643 162.261 264.421 224.155 219.418 239.931C208.805 243.651 192.23 249.287 192.23 249.287C156.438 243.752 115.65 205.107 99.3771 158.819C82.6291 111.172 88.805 56.5297 115.024 30.3361C115.024 30.3361 132.707 23.9429 142.31 20.577C187.313 4.80127 241.06 41.1155 262.351 101.688Z" fill="#DAFC35" stroke="#022522" stroke-miterlimit="10" stroke-linecap="round"/>
<path d="M196.656 247.919C241.66 232.146 260.884 170.253 239.594 109.679C218.304 49.1043 164.561 12.7857 119.557 28.559C74.5533 44.3323 55.3295 106.225 76.6197 166.799C97.91 227.374 151.652 263.692 196.656 247.919Z" fill="#DAFC35" stroke="#022522" stroke-miterlimit="10" stroke-linecap="round"/>
<path d="M151.805 72.4464L157.045 88.2127C164.506 87.7377 171.077 89.1431 176.584 92.4914C182.187 95.8977 186.65 101.289 189.833 108.661L190.05 109.162L161.684 118.594L161.485 118.22C159.908 115.231 158.095 113.253 156.048 112.234C154.015 111.222 151.684 111.122 148.992 112.017C146.449 112.863 144.775 114.102 143.858 115.456C142.949 116.799 142.762 118.285 143.237 119.714C143.599 120.802 144.137 121.576 144.876 122.136C145.623 122.702 146.612 123.078 147.914 123.305C150.213 123.706 153.359 123.626 157.605 123.428L159.493 123.337L159.499 123.336L164.714 123.145L164.715 123.146C176.017 122.758 184.298 123.643 190.384 126.531C196.508 129.438 200.349 134.341 202.836 141.825C205.243 149.066 204.971 155.914 202.168 162.072C199.412 168.127 194.229 173.468 186.84 177.858L192.662 195.376L164.979 204.581L159.114 186.934C150.537 187.776 143.313 186.308 137.447 182.753C131.492 179.143 126.983 173.411 123.878 165.874L123.675 165.378L153.722 155.387L153.907 155.797C155.387 159.084 157.287 161.227 159.555 162.305C161.817 163.379 164.527 163.432 167.708 162.374C170.572 161.422 172.698 160.126 173.93 158.585C175.141 157.07 175.513 155.289 174.833 153.241C174.532 152.336 174.099 151.694 173.538 151.228C172.973 150.758 172.247 150.439 171.319 150.233C169.436 149.814 166.866 149.882 163.437 149.963L152.373 150.418L152.373 150.417C141.118 150.995 132.926 149.795 126.931 146.586C120.91 143.364 117.171 138.153 114.751 130.87C112.556 124.266 112.664 117.93 115.147 112.158C117.587 106.485 122.302 101.404 129.275 97.154L124.123 81.6518L151.805 72.4464Z" fill="white" stroke="black"/>
<path d="M251.846 259.838C251.846 259.838 251.088 246.047 266.871 247.564C282.654 249.077 284.777 249.288 284.777 249.288C284.777 249.288 291.149 253.931 294.64 259.081C298.131 264.232 307.12 275.252 316.949 283.328C326.356 291.058 348.364 319.85 329.848 340.915C311.335 361.981 279.427 363.988 269.533 342.049C268.259 339.225 266.392 332.278 271.034 316.823C275.675 301.367 267.327 289.695 265.963 286.969C264.598 284.243 250.689 265.666 251.85 259.842L251.846 259.838Z" fill="white" stroke="#002522" stroke-miterlimit="10"/>
<path d="M197.727 241.627C197.727 241.627 210.233 278.374 237.851 279.56C242.572 279.763 249.245 279.56 253.758 269.364C253.758 269.364 258.98 260.829 268.003 266.043C277.025 271.258 271.034 282.403 271.034 282.403C271.034 282.403 259.455 317.727 224.319 304.214C189.183 290.701 184.195 257.508 184.195 257.508C184.195 257.508 173.747 234.036 197.727 241.623V241.627Z" fill="#FDCB9A" stroke="#022522" stroke-miterlimit="10"/>
<path d="M251.861 271.454C251.861 271.454 266.931 261.917 271.524 281.341L270.106 284.737C270.106 284.737 286.115 280.166 277.24 261.846C277.24 261.846 271.015 250.467 256.242 257.083C256.242 257.083 247.012 263.333 251.861 271.45V271.454Z" fill="white" stroke="#002522" stroke-miterlimit="10"/>
<path d="M280.829 249.289C289.935 255.02 296.005 272.569 310.268 285.904C317.277 292.456 328.328 311.97 323.774 328.032C319.223 344.094 310.291 347.991 305.563 349.549C287.201 355.611 279.449 350.351 275.117 349.587" stroke="#002522" stroke-miterlimit="10"/>
<path d="M275.133 323.941C275.133 323.941 287.368 304.999 305.88 316.972L275.133 323.941Z" fill="white"/>
<path d="M275.133 323.941C275.133 323.941 287.368 304.999 305.88 316.972" stroke="#002522" stroke-miterlimit="10"/>
<path d="M276.594 298.333C276.594 298.333 285.394 283.329 303.91 293.484L276.594 298.333Z" fill="white"/>
<path d="M276.594 298.333C276.594 298.333 285.394 283.329 303.91 293.484" stroke="#002522" stroke-miterlimit="10"/>
<path d="M241.661 226.599C240.979 232.277 234.275 241.535 228.71 243.437C223.145 245.338 211.871 247.823 197.959 240.805C197.959 240.805 194.882 240.221 195.47 244.461C196.058 248.7 197.812 266.833 206.012 277.07C206.012 277.07 207.038 286.867 202.057 283.798C197.08 280.726 182.436 278.249 178.628 273.712C178.628 273.712 171.6 254.845 170.427 243.44C169.255 232.036 167.649 214.34 181.923 209.517C196.198 204.69 209.816 214.927 222.704 219.897C235.591 224.867 241.778 225.616 241.657 226.603L241.661 226.599Z" fill="#FDCB9A" stroke="#022522" stroke-miterlimit="10"/>
<path d="M206.54 298.332C206.54 298.332 203.38 288.001 205.684 282.519C207.988 277.037 206.125 275.956 202.196 273.709C198.264 271.461 186.534 265.998 176.776 268.419C167.019 270.84 184.607 292.12 184.607 292.12C184.607 292.12 205.224 301.551 206.54 298.328V298.332Z" fill="white" stroke="#002522" stroke-miterlimit="10"/>
<path d="M185.115 291.012C185.115 291.012 205.015 294.815 210.38 301.49C215.745 308.166 210.847 333.316 210.847 333.316C210.847 333.316 203.695 360.176 165.761 344.962C127.828 329.747 93.932 314.453 92.224 287.827C90.5123 261.2 107.057 249.543 122.308 251.109C129.999 251.9 139.256 253.828 149.515 265.782C149.515 265.782 160.008 263.451 165.916 264.619C171.824 265.782 181.152 267.337 185.118 291.012H185.115Z" fill="white" stroke="#002522" stroke-miterlimit="10"/>
<path d="M186.743 299.001C186.743 299.001 188.138 283.986 168.943 280.921C167.054 280.62 163.268 280.146 161.323 280.146C161.323 280.146 157.062 274.476 148.93 265.123" fill="white"/>
<path d="M186.743 299.001C186.743 299.001 188.138 283.986 168.943 280.921C167.054 280.62 163.268 280.146 161.323 280.146C161.323 280.146 157.062 274.476 148.93 265.123" stroke="#002522" stroke-miterlimit="10"/>
<path d="M113.445 304.21C113.445 304.21 132.101 299.861 137.542 296.992L113.445 304.21Z" fill="#FDCB9A"/>
<path d="M113.445 304.21C113.445 304.21 132.101 299.861 137.542 296.992" stroke="#022522" stroke-miterlimit="10"/>
<path d="M138.008 319.735C138.008 319.735 155.11 315.699 158.375 312.518L138.008 319.735Z" fill="#FDCB9A"/>
<path d="M138.008 319.735C138.008 319.735 155.11 315.699 158.375 312.518" stroke="#022522" stroke-miterlimit="10"/>
<path d="M159.852 334.097C159.852 334.097 174.778 327.963 176.411 327.033L159.852 334.097Z" fill="#FDCB9A"/>
<path d="M159.852 334.097C159.852 334.097 174.778 327.963 176.411 327.033" stroke="#022522" stroke-miterlimit="10"/>
<path d="M92.3203 279.282C92.3203 279.282 103.104 271.375 115.463 272.851C127.822 274.327 138.16 280.227 141.659 282.941C145.158 285.66 164.674 304.677 168.946 308.246C172.705 311.386 178.816 316.552 183.714 318.649C188.612 320.746 201.748 326.259 203.071 327.81C204.395 329.361 210.431 334.143 207.565 339.749C207.565 339.749 211.913 334.997 211.532 329.229C211.532 329.229 212.32 326.492 199.648 319.737C186.975 312.983 184.879 316.168 164.979 296.993C145.079 277.817 132.874 267.105 116.628 266.409C100.381 265.709 93.4627 272.678 93.4627 272.678C93.4627 272.678 92.4447 277.655 92.3203 279.282Z" fill="white" stroke="#002522" stroke-miterlimit="10"/>
<path d="M391.224 116.414C384.569 106.542 374.657 98.2549 349.607 93.2135C349.607 93.2135 349 93.4168 336.678 82.7239C324.353 72.0311 304.117 75.8338 273.868 97.7127C268.159 101.843 260.705 107.958 251.788 115.205C251.788 115.205 250.412 131.949 264.148 143.451C264.148 143.451 269.479 136.775 276.066 129.663C285.209 119.787 303.141 91.1991 326.174 98.6653C343.352 104.234 338.612 116.534 334.846 124.772C334.846 124.772 329.496 121.531 324.556 132.822C319.617 144.114 329.477 151.248 329.477 151.248C329.477 151.248 330.34 151.994 331.226 152.536C337.489 156.369 338.439 156.169 338.439 156.169C338.439 156.169 337.315 172.657 344.675 172.657C349.991 172.657 362.117 169.069 364.134 164.596L364.349 164.441C366.63 167.841 386.364 157.442 387.19 148.3C387.19 148.3 396.608 145.563 399.361 139.784C401.336 135.635 396.993 124.976 391.228 116.425L391.224 116.414Z" fill="#FDCB9A" stroke="#022522" stroke-miterlimit="10"/>
<path d="M349.538 135.148C349.538 135.148 354.006 147.874 345.07 153.059C345.07 153.059 342.155 158.048 334.547 154.471" stroke="#002522" stroke-miterlimit="10" stroke-linecap="round"/>
<path d="M341.36 162C341.333 157.832 342.532 157.012 345.266 153.1" stroke="#002522" stroke-miterlimit="10" stroke-linecap="round"/>
<path d="M364.574 142.238C364.574 142.238 367.64 159.509 364.141 164.433" stroke="#002522" stroke-miterlimit="10" stroke-linecap="round"/>
<path d="M381.328 128.783C381.328 128.783 387.632 143.124 387.172 148.29" stroke="#002522" stroke-miterlimit="10" stroke-linecap="round"/>
<path d="M334.829 124.766C334.829 124.766 329.879 137.804 332.36 146.893" stroke="#002522" stroke-miterlimit="10" stroke-linecap="round"/>
<path d="M344.512 211.128C346.996 218.191 365.698 218.067 386.288 210.849C406.877 203.631 421.556 192.054 419.071 184.991C417.936 181.764 415.5 174.829 415.5 174.829C407.726 174.55 388.478 181.35 377.295 185.269C364.687 189.689 346.529 195.314 340.938 200.966C340.938 200.966 343.547 208.391 344.508 211.128H344.512Z" fill="#DAFC35" stroke="#022522" stroke-miterlimit="10" stroke-linecap="round"/>
<path d="M382.7 200.708C403.289 193.492 417.968 181.916 415.485 174.852C413.003 167.789 394.299 167.913 373.71 175.129C353.121 182.345 338.442 193.921 340.925 200.985C343.407 208.048 362.111 207.924 382.7 200.708Z" fill="#DAFC35" stroke="#022522" stroke-miterlimit="10" stroke-linecap="round"/>
<path d="M298.763 198.88C301.297 201.636 309.867 197.901 317.905 190.533C325.944 183.165 330.404 174.957 327.87 172.201C326.713 170.94 324.224 168.232 324.224 168.232C320.597 169.633 313.094 176.546 308.728 180.544C303.808 185.055 296.573 191.211 295.117 194.908C295.117 194.908 297.779 197.807 298.763 198.876V198.88Z" fill="#DAFC35" stroke="#022522" stroke-miterlimit="10" stroke-linecap="round"/>
<path d="M314.257 186.55C322.295 179.182 326.757 170.973 324.222 168.216C321.687 165.459 313.116 169.197 305.078 176.565C297.04 183.933 292.578 192.142 295.113 194.899C297.647 197.656 306.218 193.918 314.257 186.55Z" fill="#DAFC35" stroke="#022522" stroke-miterlimit="10" stroke-linecap="round"/>
<path d="M476.743 305.041C480.268 308.877 491.523 304.288 501.884 294.789C512.245 285.293 517.787 274.487 514.262 270.651C512.652 268.9 509.191 265.135 509.191 265.135C504.418 266.833 494.747 275.745 489.121 280.903C482.776 286.716 473.429 294.627 471.672 299.525C471.672 299.525 475.374 303.554 476.743 305.041Z" fill="#DAFC35" stroke="#022522" stroke-miterlimit="10" stroke-linecap="round"/>
<path d="M496.805 289.244C507.165 279.746 512.707 268.939 509.183 265.105C505.658 261.271 494.402 265.861 484.041 275.359C473.68 284.856 468.138 295.663 471.663 299.497C475.188 303.332 486.444 298.741 496.805 289.244Z" fill="#DAFC35" stroke="#022522" stroke-miterlimit="10" stroke-linecap="round"/>
<path d="M515.729 116.278C517.195 117.875 522.157 115.71 526.81 111.448C531.462 107.182 534.045 102.43 532.578 100.834C531.907 100.103 530.467 98.5371 530.467 98.5371C528.367 99.3466 524.023 103.349 521.497 105.664C518.647 108.277 514.458 111.839 513.617 113.981C513.617 113.981 515.159 115.661 515.729 116.278Z" fill="#DAFC35" stroke="#022522" stroke-miterlimit="10" stroke-linecap="round"/>
<path d="M524.675 109.125C529.328 104.86 531.91 100.108 530.443 98.5121C528.976 96.9159 524.015 99.0793 519.362 103.344C514.709 107.609 512.127 112.36 513.594 113.957C515.062 115.553 520.023 113.389 524.675 109.125Z" fill="#DAFC35" stroke="#022522" stroke-miterlimit="10" stroke-linecap="round"/>
<path d="M418.7 152.086C420.94 154.525 428.518 151.22 435.625 144.706C442.733 138.192 446.676 130.933 444.437 128.497C443.411 127.383 441.213 124.988 441.213 124.988C438.005 126.227 431.369 132.338 427.512 135.877C423.161 139.864 416.762 145.308 415.477 148.58C415.477 148.58 417.833 151.144 418.7 152.089V152.086Z" fill="#DAFC35" stroke="#022522" stroke-miterlimit="10" stroke-linecap="round"/>
<path d="M432.393 141.176C439.5 134.661 443.444 127.403 441.202 124.964C438.961 122.526 431.382 125.83 424.275 132.345C417.168 138.859 413.224 146.118 415.465 148.556C417.707 150.995 425.286 147.691 432.393 141.176Z" fill="#DAFC35" stroke="#022522" stroke-miterlimit="10" stroke-linecap="round"/>
<path d="M550.637 176.605C551.229 177.802 554.532 177.381 558.02 175.664C561.507 173.947 563.856 171.59 563.264 170.393C562.993 169.847 562.416 168.672 562.416 168.672C561.036 168.789 557.778 170.4 555.882 171.334C553.748 172.384 550.656 173.766 549.789 174.884C549.789 174.884 550.407 176.142 550.637 176.605Z" fill="#DAFC35" stroke="#022522" stroke-miterlimit="10" stroke-linecap="round"/>
<path d="M557.17 173.903C560.657 172.187 563.006 169.827 562.416 168.631C561.826 167.435 558.521 167.857 555.033 169.573C551.546 171.289 549.197 173.649 549.787 174.845C550.377 176.04 553.682 175.619 557.17 173.903Z" fill="#DAFC35" stroke="#022522" stroke-miterlimit="10" stroke-linecap="round"/>
<path d="M517.647 217.56C518.647 220.398 528.14 219.657 538.852 215.903C549.567 212.149 557.44 206.799 556.445 203.96C555.988 202.661 555.008 199.875 555.008 199.875C551.076 200.044 541.058 203.58 535.236 205.617C528.676 207.917 519.254 210.922 516.211 213.474C516.211 213.474 517.259 216.46 517.647 217.56Z" fill="#DAFC35" stroke="#022522" stroke-miterlimit="10" stroke-linecap="round"/>
<path d="M537.419 211.843C548.134 208.088 556.01 202.742 555.012 199.903C554.014 197.064 544.52 197.807 533.806 201.562C523.092 205.317 515.215 210.663 516.213 213.502C517.211 216.341 526.705 215.598 537.419 211.843Z" fill="#DAFC35" stroke="#022522" stroke-miterlimit="10" stroke-linecap="round"/>
<path d="M350.648 279.518H394.931C394.931 279.518 387.112 314.683 440.466 311.223C440.466 311.223 393.913 330.184 368 312.515C368 312.515 352.609 297.68 350.648 279.518Z" fill="#38A543" stroke="#022522" stroke-miterlimit="10"/>
<path d="M364.365 291.11C365.39 289.808 362.325 286.265 363.339 286.238C365.824 286.174 381.524 286.641 384.268 286.803C385.396 286.871 383.16 290.64 383.857 291.299C385.629 292.974 388.058 288.381 388.397 290.666C389.652 299.149 392.213 319.281 424.917 316.476C424.917 316.476 397.246 327.492 375.838 312.895C375.838 312.895 363.863 303.328 360.334 290.444C359.949 289.047 363.456 292.278 364.368 291.114L364.365 291.11Z" fill="#38A543" stroke="#022522" stroke-miterlimit="10"/>
<path d="M373.609 232.943C373.609 232.943 387.352 249.776 419.34 247.449C451.328 245.123 468.608 240.119 468.608 240.119C468.608 240.119 429.988 239.031 424.909 227.867C424.909 227.867 409.711 231.926 373.609 232.943Z" fill="#38A543" stroke="#022522" stroke-miterlimit="10"/>
<path d="M395.709 239.582C395.325 240.436 389.533 238.486 391.513 239.838C396.218 243.057 406.76 248.302 424.281 247.029C449.173 245.218 452.336 243.366 452.336 243.366C452.336 243.366 430.574 241.942 422.765 235.978C421.649 235.128 419.956 237.492 418.901 236.931C417.845 236.37 421.638 233.648 418.829 234.07C412.713 234.992 399.796 237.097 392.353 237.436C390.955 237.5 396.154 238.58 395.705 239.582H395.709Z" fill="#38A543" stroke="#022522" stroke-miterlimit="10"/>
<path d="M459.571 120.89C459.571 120.89 470.806 116.606 476.281 116.756C476.281 116.756 476.873 107.159 458.53 108.56C440.191 109.96 459.571 120.89 459.571 120.89Z" fill="#38A543" stroke="#022522" stroke-miterlimit="10"/>
<path d="M466.859 108.774C466.859 108.774 454.752 110.506 463.963 126.055C463.963 126.055 468.092 133.1 479.271 135.83L457.931 149.422C457.931 149.422 433.167 127.994 440.146 118.265C449.583 105.107 466.859 108.777 466.859 108.777V108.774Z" fill="#38A543" stroke="#022522" stroke-miterlimit="10"/>
<path d="M462.887 108.306C462.887 108.306 449.993 110.678 457.665 123.634C457.665 123.634 460.018 129.978 466.115 133.449C467.382 134.168 464.245 133.626 464.512 135.249C464.652 136.081 467.563 136.969 467.563 136.969L459.954 141.815C459.954 141.815 458.434 139.221 457.684 139.142C456.836 139.052 456.47 142.508 455.049 140.979C449.714 135.241 437.603 121.005 443.104 115.365C450.645 107.632 462.891 108.306 462.891 108.306H462.887Z" fill="#38A543" stroke="#022522" stroke-miterlimit="10"/>
<path d="M359.414 189.718L363.358 188.89C364.391 187.32 365.982 185.708 367.374 184.714L369.545 184.695C368.192 185.738 366.729 187.203 365.858 188.743C364.625 190.927 365.583 192.214 368.267 191.695C370.922 191.183 373.048 189.522 375.167 186.962C377.637 183.927 379.839 182.086 383.435 181.277C386.976 180.482 390.019 181.122 391.285 183.22L396.587 182.109L397.386 183.837L391.945 184.933C392.326 186.887 391.723 188.543 390.908 189.869L386.784 189.62C387.417 188.705 388.507 187.034 388.246 185.038C387.975 182.952 385.739 182.704 383.907 183.099C381.569 183.604 380.283 184.793 378.164 187.621C375.227 191.586 371.823 194.206 367.091 195.046C363.06 195.761 360.791 194.18 362.284 190.742L358.016 191.604L359.411 189.714L359.414 189.718Z" fill="white" stroke="#002522" stroke-linecap="round" stroke-linejoin="round"/>
<path d="M481.063 288.025L482.967 286.421C483.069 285.265 483.465 283.921 483.928 282.972L485.105 282.325C484.671 283.288 484.305 284.512 484.283 285.608C484.253 287.159 485.15 287.577 486.462 286.511C487.759 285.457 488.426 283.932 488.834 281.918C489.286 279.542 489.946 277.897 491.669 276.402C493.366 274.934 495.209 274.395 496.514 275.163L499.074 273.01L500.017 273.718L497.377 275.905C498.158 276.858 498.316 277.934 498.26 278.895L495.941 279.964C496.016 279.279 496.122 278.051 495.394 277.038C494.666 276.026 493.343 276.5 492.461 277.253C491.337 278.213 490.983 279.233 490.662 281.395C490.225 284.414 489.139 286.835 486.809 288.676C484.822 290.246 483.125 290.047 482.929 287.739L480.859 289.456L481.067 288.017L481.063 288.025Z" fill="white" stroke="#002522" stroke-linecap="round" stroke-linejoin="round"/>
<path d="M527.416 208.902L529.15 208.197C529.494 207.396 530.089 206.526 530.643 205.957L531.635 205.769C531.1 206.356 530.553 207.147 530.282 207.923C529.897 209.022 530.44 209.53 531.628 209.075C532.8 208.623 533.633 207.689 534.395 206.345C535.274 204.752 536.129 203.732 537.709 203.066C539.263 202.411 540.707 202.456 541.457 203.31L543.791 202.369L544.3 203.092L541.902 204.041C542.237 204.903 542.098 205.709 541.834 206.383L539.926 206.609C540.141 206.138 540.503 205.283 540.216 204.391C539.93 203.499 538.878 203.529 538.071 203.86C537.042 204.282 536.552 204.933 535.816 206.398C534.798 208.454 533.456 209.929 531.364 210.701C529.58 211.36 528.411 210.822 528.811 209.127L526.93 209.873L527.412 208.894L527.416 208.902Z" fill="white" stroke="#002522" stroke-linecap="round" stroke-linejoin="round"/>
<path d="M303.465 186.81L304.69 185.398C304.63 184.528 304.765 183.485 305.003 182.725L305.802 182.107C305.595 182.872 305.463 183.824 305.576 184.638C305.734 185.793 306.451 186.001 307.299 185.055C308.136 184.122 308.457 182.909 308.521 181.369C308.581 179.555 308.879 178.256 309.984 176.946C311.07 175.658 312.378 175.044 313.434 175.462L315.085 173.564L315.865 173.979L314.161 175.91C314.851 176.528 315.093 177.307 315.164 178.026L313.566 179.092C313.543 178.576 313.475 177.65 312.819 176.983C312.163 176.317 311.235 176.821 310.666 177.484C309.942 178.327 309.799 179.125 309.814 180.767C309.84 183.06 309.316 184.984 307.804 186.622C306.515 188.019 305.229 188.068 304.815 186.377L303.476 187.894L303.461 186.802L303.465 186.81Z" fill="white" stroke="#002522" stroke-linecap="round" stroke-linejoin="round"/>
<path d="M421.452 141.02L422.855 139.782C422.911 138.912 423.183 137.895 423.515 137.172L424.389 136.668C424.08 137.398 423.828 138.328 423.831 139.149C423.835 140.312 424.518 140.614 425.483 139.789C426.437 138.976 426.916 137.816 427.183 136.295C427.481 134.503 427.949 133.253 429.215 132.101C430.482 130.949 431.84 130.531 432.831 131.088L434.716 129.424L435.437 129.94L433.491 131.63C434.094 132.33 434.23 133.14 434.207 133.863L432.484 134.71C432.53 134.194 432.586 133.268 432.021 132.522C431.455 131.777 430.471 132.154 429.822 132.733C428.993 133.475 428.748 134.247 428.544 135.877C428.269 138.151 427.496 139.992 425.777 141.416C424.314 142.628 423.032 142.507 422.847 140.779L421.32 142.105L421.448 141.02H421.452Z" fill="white" stroke="#002522" stroke-linecap="round" stroke-linejoin="round"/>
</g>
<defs>
<clipPath id="clip0_15015_18755">
<rect width="563.484" height="357.63" fill="white"/>
</clipPath>
</defs>
</svg>
