<svg width="485" height="337" viewBox="0 0 485 337" fill="none" xmlns="http://www.w3.org/2000/svg">
<g clip-path="url(#clip0_15015_18756)">
<path d="M68.9625 316.815L87.5721 244.792C87.966 243.266 93.3967 242.486 99.7032 243.052L261.87 257.584C268.261 258.158 274.475 260.966 274.211 262.515C275.305 263.096 266.494 315.56 260.057 332.089C259.445 333.657 254.508 337.046 247.892 336.431L80.015 320.869C73.4868 320.265 68.5418 318.448 68.9625 316.818V316.815Z" fill="#C6C6C6"/>
<path d="M61.0733 234.253L1.59977 179.666C0.135015 178.323 -0.427175 176.965 0.349182 176.64L20.2094 168.301C20.9896 167.972 22.7679 168.825 24.1753 170.198L81.3657 225.921C82.4824 227.011 82.8228 228.121 82.1268 228.404L64.4273 235.668C63.7351 235.951 62.236 235.32 61.0772 234.253H61.0733Z" fill="#C6C6C6"/>
<path d="M109.757 211.982L105.561 151.133C105.477 149.962 105.786 149.021 106.257 149.021H118.258C118.728 149.021 119.221 149.966 119.359 151.145L125.676 214.077C125.875 215.795 120.811 216.606 120.23 216.591C119.656 216.575 109.757 217.848 109.757 211.982Z" fill="#C6C6C6"/>
<path d="M147.945 209.756L176.805 155.065C177.287 154.043 178.205 153.225 178.863 153.232L194.764 153.129C195.468 153.136 195.698 154.001 195.273 155.064L170.647 212.736C170.027 214.278 168.861 215.444 168.042 215.333L148.056 212.594C147.306 212.491 147.26 211.217 147.945 209.756Z" fill="#C6C6C6"/>
<path d="M397.236 313.608L267.03 240.924C263.741 239.088 263.901 235.901 267.385 233.832L348.616 185.588C351.519 183.862 356.062 183.962 358.766 185.787L467.185 258.93C469.273 260.337 469.192 262.874 466.997 264.603L406.369 312.426C403.799 314.454 399.707 314.989 397.228 313.608H397.236Z" fill="#C6C6C6"/>
<path d="M249.932 332.048L74.678 316.812C70.8115 316.475 67.404 311.158 68.2033 308.541L89.0578 245.922C89.8227 243.408 93.5056 241.645 97.288 241.985L271.047 255.672C274.779 256.009 274.841 260.002 274.217 262.512L258.017 327.916C257.371 330.529 253.753 332.381 249.936 332.048H249.932Z" fill="#33605F" stroke="#002522" stroke-miterlimit="10"/>
<path d="M249.158 328.153L73.9041 312.917C70.0376 312.581 67.5479 310.182 68.3434 307.566L88.2839 242.027C89.0488 239.514 92.7317 237.75 96.514 238.091L267.814 253.469C271.546 253.805 274.067 256.108 273.443 258.617L257.243 324.022C256.597 326.635 252.979 328.486 249.162 328.153H249.158Z" fill="#33605F" stroke="#002522" stroke-miterlimit="10"/>
<path d="M98.3828 256.713L250.702 270.285" stroke="#002522" stroke-miterlimit="10"/>
<path d="M236.576 314.031L201.15 310.932C200.297 310.86 199.731 310.328 199.884 309.746L203.762 295.134C203.915 294.56 204.726 294.154 205.575 294.227L240.821 297.329C241.666 297.402 242.232 297.93 242.087 298.504L238.377 313.109C238.228 313.69 237.421 314.099 236.572 314.023L236.576 314.031Z" fill="#407775" stroke="#002522" stroke-miterlimit="10"/>
<path d="M91.8835 297.039L91.0727 295.922C90.7362 295.494 90.5258 295.214 90.3346 294.924H90.3078C89.9827 295.165 89.6615 295.39 89.0878 295.754L87.734 296.672L86.4375 296.557L89.8068 294.461L87.9214 291.963L89.2293 292.078L90.0592 293.256C90.2925 293.585 90.4684 293.837 90.6291 294.105H90.6673C90.9962 293.856 91.2792 293.665 91.6923 293.401L93.2067 292.43L94.5032 292.544L91.1798 294.549L93.1991 297.15L91.8873 297.035L91.8835 297.039Z" fill="#002522"/>
<path d="M99.0866 297.67L98.272 296.553C97.9354 296.124 97.7251 295.845 97.5301 295.555H97.5033C97.1782 295.796 96.857 296.021 96.2871 296.385L94.9371 297.303L93.6406 297.188L97.0023 295.092L95.113 292.594L96.421 292.709L97.2547 293.887C97.488 294.216 97.6677 294.468 97.8284 294.736H97.8666C98.1955 294.487 98.4785 294.296 98.8877 294.032L100.398 293.06L101.695 293.175L98.3791 295.18L100.402 297.781L99.0942 297.666L99.0866 297.67Z" fill="#002522"/>
<path d="M106.298 298.301L105.483 297.184C105.143 296.755 104.932 296.476 104.741 296.185H104.714C104.389 296.426 104.072 296.652 103.498 297.015L102.148 297.934L100.852 297.819L104.206 295.723L102.312 293.225L103.62 293.339L104.454 294.518C104.691 294.847 104.867 295.099 105.028 295.367H105.066C105.391 295.118 105.674 294.927 106.083 294.663L107.59 293.691L108.883 293.806L105.571 295.811L107.594 298.412L106.286 298.297L106.298 298.301Z" fill="#002522"/>
<path d="M116.434 299.187L115.616 298.071C115.276 297.642 115.065 297.363 114.87 297.072H114.843C114.518 297.313 114.201 297.539 113.631 297.902L112.285 298.82L110.992 298.705L114.339 296.609L112.442 294.111L113.746 294.226L114.583 295.404C114.82 295.733 114.996 295.986 115.157 296.253H115.195C115.52 296.005 115.803 295.814 116.213 295.55L117.716 294.578L119.008 294.693L115.708 296.697L117.738 299.298L116.431 299.184L116.434 299.187Z" fill="#002522"/>
<path d="M123.63 299.818L122.811 298.701C122.471 298.273 122.261 297.994 122.066 297.703H122.039C121.714 297.944 121.4 298.17 120.83 298.533L119.488 299.451L118.195 299.336L121.534 297.24L119.633 294.742L120.937 294.857L121.775 296.035C122.012 296.364 122.188 296.617 122.352 296.884H122.391C122.716 296.636 122.995 296.444 123.404 296.18L124.903 295.209L126.196 295.324L122.899 297.328L124.934 299.929L123.626 299.815L123.63 299.818Z" fill="#002522"/>
<path d="M130.829 300.449L130.011 299.332C129.67 298.904 129.46 298.625 129.265 298.338H129.238C128.917 298.579 128.599 298.804 128.03 299.168L126.691 300.086L125.398 299.971L128.733 297.875L126.829 295.381L128.133 295.496L128.974 296.674C129.211 297.003 129.391 297.255 129.552 297.523H129.59C129.915 297.274 130.194 297.083 130.603 296.819L132.099 295.848L133.391 295.962L130.102 297.967L132.141 300.568L130.833 300.453L130.829 300.449Z" fill="#002522"/>
<path d="M138.017 301.078L137.194 299.961C136.854 299.533 136.64 299.254 136.445 298.967H136.418C136.097 299.208 135.779 299.433 135.213 299.797L133.879 300.715L132.586 300.6L135.913 298.504L134.005 296.01L135.309 296.125L136.15 297.303C136.387 297.632 136.567 297.884 136.728 298.152H136.766C137.091 297.903 137.37 297.712 137.776 297.448L139.271 296.476L140.564 296.591L137.282 298.596L139.325 301.197L138.017 301.082V301.078Z" fill="#002522"/>
<path d="M148.126 301.965L147.304 300.848C146.964 300.42 146.749 300.14 146.554 299.853H146.528C146.206 300.094 145.893 300.32 145.327 300.683L143.996 301.602L142.703 301.487L146.023 299.391L144.111 296.896L145.415 297.011L146.26 298.189C146.497 298.518 146.677 298.771 146.841 299.039H146.879C147.201 298.79 147.48 298.599 147.885 298.335L149.377 297.363L150.666 297.478L147.392 299.482L149.438 302.084L148.134 301.969L148.126 301.965Z" fill="#002522"/>
<path d="M155.306 302.594L154.48 301.481C154.136 301.052 153.925 300.773 153.726 300.486H153.7C153.378 300.727 153.065 300.953 152.503 301.316L151.172 302.234L149.883 302.12L153.195 300.023L151.279 297.529L152.579 297.644L153.424 298.822C153.661 299.151 153.841 299.404 154.006 299.671H154.044C154.365 299.423 154.644 299.232 155.05 298.968L156.537 297.996L157.826 298.111L154.56 300.115L156.61 302.716L155.306 302.602V302.594Z" fill="#002522"/>
<path d="M162.482 303.225L161.656 302.112C161.311 301.683 161.097 301.404 160.902 301.117H160.875C160.554 301.358 160.244 301.584 159.678 301.947L158.351 302.865L157.062 302.75L160.367 300.654L158.447 298.16L159.747 298.275L160.596 299.453C160.837 299.782 161.017 300.035 161.181 300.302H161.22C161.541 300.054 161.82 299.862 162.222 299.598L163.706 298.627L164.994 298.742L161.732 300.746L163.786 303.347L162.482 303.232V303.225Z" fill="#002522"/>
<path d="M169.658 303.852L168.828 302.739C168.483 302.31 168.269 302.031 168.074 301.744H168.047C167.73 301.985 167.416 302.211 166.854 302.574L165.531 303.492L164.242 303.377L167.539 301.281L165.615 298.787L166.915 298.902L167.764 300.08C168.005 300.409 168.185 300.661 168.35 300.929H168.388C168.709 300.681 168.984 300.489 169.39 300.225L170.87 299.254L172.159 299.369L168.904 301.373L170.962 303.97L169.658 303.856V303.852Z" fill="#002522"/>
<path d="M179.755 304.733L178.925 303.619C178.581 303.191 178.367 302.912 178.168 302.625H178.141C177.824 302.866 177.51 303.092 176.952 303.455L175.633 304.373L174.344 304.258L177.633 302.162L175.705 299.668L177.006 299.783L177.858 300.961C178.099 301.29 178.279 301.542 178.444 301.806H178.482C178.803 301.558 179.078 301.366 179.48 301.102L180.956 300.131L182.245 300.246L178.998 302.25L181.059 304.847L179.759 304.733H179.755Z" fill="#002522"/>
<path d="M186.912 305.362L186.078 304.248C185.734 303.82 185.516 303.541 185.321 303.254H185.294C184.976 303.495 184.667 303.721 184.108 304.084L182.789 305.002L181.5 304.891L184.781 302.795L182.85 300.301L184.15 300.416L185.003 301.594C185.244 301.923 185.424 302.175 185.592 302.439H185.63C185.948 302.19 186.223 301.999 186.625 301.735L188.097 300.764L189.382 300.878L186.143 302.883L188.208 305.48L186.908 305.365L186.912 305.362Z" fill="#002522"/>
<path d="M15.8167 164.06L11.0859 27.8072C11.0859 27.8072 18.0579 24.5901 20.6202 25.6038L75.2827 77.6659C77.4549 79.7353 79.2142 83.8552 79.2142 86.8695L79.2027 224.331C79.2027 227.345 75.3706 229.614 72.5329 230.972L19.7559 173.263C17.5798 171.194 15.8167 167.074 15.8167 164.06Z" fill="#87FCFA" stroke="#002522" stroke-miterlimit="10"/>
<path d="M10.1094 168.044V30.4795C10.1094 27.4614 11.8724 26.6963 14.0485 28.7696L69.5753 81.6541C71.7475 83.7236 73.5068 87.8434 73.5068 90.8577L73.4953 228.319C73.4953 231.333 71.7361 232.102 69.5638 230.037L14.0485 177.248C11.8724 175.178 10.1094 171.058 10.1094 168.044Z" fill="#87FCFA" stroke="#002522" stroke-miterlimit="10"/>
<path d="M58.0311 81.9102L58.0234 203.466" stroke="#002522" stroke-miterlimit="10"/>
<path d="M20.7422 165.653V137.633C20.7422 136.959 21.1361 136.787 21.6218 137.25L33.902 148.933C34.3877 149.395 34.7816 150.313 34.7816 150.987V178.999C34.7816 179.673 34.3877 179.845 33.902 179.382L21.6256 167.703C21.1399 167.24 20.746 166.322 20.746 165.649L20.7422 165.653Z" fill="#C6FEFD" stroke="#002522" stroke-miterlimit="10"/>
<path d="M24.2773 54.0385L25.1301 53.9773C25.4552 53.9314 25.6693 53.9084 25.8912 53.9084V53.8893C25.6693 53.4838 25.4628 53.0936 25.1225 52.4165L24.2734 50.7832V49.7656L26.2277 53.721L28.1361 53.522V54.551L27.2297 54.5969C26.9773 54.6122 26.7823 54.6199 26.5757 54.6046V54.6352C26.8052 55.0483 26.9811 55.3888 27.2297 55.8784L28.1361 57.6763V58.6938L26.2583 54.8188L24.2773 55.0675V54.0385Z" fill="#002522"/>
<path d="M24.2773 59.6947L25.1301 59.6335C25.4552 59.5876 25.6693 59.5647 25.8912 59.5647V59.5455C25.6693 59.14 25.4628 58.7499 25.1225 58.0728L24.2734 56.4394V55.4219L26.2277 59.3772L28.1361 59.1783V60.2073L27.2297 60.2532C26.9773 60.2685 26.7823 60.2762 26.5757 60.2609V60.2915C26.8052 60.7046 26.9811 61.045 27.2297 61.5347L28.1361 63.3326V64.3501L26.2583 60.4751L24.2773 60.7237V59.6947Z" fill="#002522"/>
<path d="M24.2773 65.3549L25.1301 65.2937C25.4552 65.2478 25.6693 65.2248 25.8912 65.2248V65.2057C25.6693 64.8002 25.4628 64.41 25.1225 63.7329L24.2734 62.0996V61.082L26.2277 65.0374L28.1361 64.8385V65.8675L27.2297 65.9134C26.9773 65.9287 26.7823 65.9363 26.5757 65.921V65.9516C26.8052 66.3647 26.9811 66.7052 27.2297 67.1948L28.1361 68.9927V70.0102L26.2583 66.1352L24.2773 66.3877V65.3587V65.3549Z" fill="#002522"/>
<path d="M24.2773 73.3217L25.1301 73.2605C25.4552 73.2146 25.6693 73.1916 25.8912 73.1916V73.1725C25.6693 72.767 25.4628 72.3768 25.1225 71.6997L24.2734 70.0663V69.0488L26.2277 73.0042L28.1361 72.8052V73.8342L27.2297 73.8801C26.9773 73.8955 26.7823 73.9031 26.5757 73.8916V73.9222C26.8052 74.3354 26.9811 74.6758 27.2297 75.1654L28.1361 76.9633V77.9808L26.2583 74.1058L24.2773 74.3583V73.3293V73.3217Z" fill="#002522"/>
<path d="M24.2773 78.9799L25.1301 78.9187C25.4552 78.8728 25.6693 78.8498 25.8912 78.8498V78.8307C25.6693 78.4252 25.4628 78.035 25.1225 77.3579L24.2734 75.7246V74.707L26.2277 78.6624L28.1361 78.4635V79.4925L27.2297 79.5384C26.9773 79.5537 26.7823 79.5613 26.5757 79.5498V79.5804C26.8052 79.9936 26.9811 80.334 27.2297 80.8237L28.1361 82.6215V83.6391L26.2583 79.764L24.2773 80.0165V78.9875V78.9799Z" fill="#002522"/>
<path d="M24.2773 84.6362L25.1301 84.575C25.4552 84.5291 25.6693 84.5061 25.8912 84.5061V84.487C25.6693 84.0815 25.4628 83.6914 25.1225 83.0143L24.2734 81.3847V80.3672L26.2277 84.3225L28.1361 84.1236V85.1526L27.2297 85.1985C26.9773 85.2138 26.7823 85.2215 26.5757 85.21V85.2406C26.8052 85.6537 26.9811 85.9942 27.2297 86.4838L28.1361 88.2817V89.2992L26.2583 85.4242L24.2773 85.6767V84.6477V84.6362Z" fill="#002522"/>
<path d="M24.2773 90.2924L25.1301 90.2312C25.4552 90.1853 25.6693 90.1624 25.8912 90.1624V90.1433C25.6693 89.7378 25.4628 89.3476 25.1225 88.6705L24.2734 87.041V86.0234L26.2277 89.9788L28.1361 89.7799V90.8089L27.2297 90.8548C26.9773 90.8701 26.7823 90.8777 26.5757 90.8662V90.8968C26.8052 91.31 26.9811 91.6504 27.2297 92.1401L28.1361 93.9379V94.9555L26.2583 91.0805L24.2773 91.3329V90.3039V90.2924Z" fill="#002522"/>
<path d="M24.2773 98.2592L25.1301 98.198C25.4552 98.1521 25.6693 98.1292 25.8912 98.1292V98.1101C25.6693 97.7046 25.4628 97.3144 25.1225 96.6373L24.2734 95.0078V93.9902L26.2277 97.9456L28.1361 97.7467V98.7757L27.2297 98.8216C26.9773 98.8369 26.7823 98.8445 26.5757 98.833V98.8636C26.8052 99.2768 26.9811 99.6172 27.2297 100.107L28.1361 101.905V102.922L26.2583 99.0472L24.2773 99.2997V98.2707V98.2592Z" fill="#002522"/>
<path d="M24.2773 103.917L25.1301 103.856C25.4552 103.81 25.6693 103.787 25.8912 103.787V103.768C25.6693 103.363 25.4628 102.973 25.1225 102.296L24.2734 100.666V99.6484L26.2277 103.604L28.1361 103.405V104.434L27.2297 104.48C26.9773 104.495 26.7823 104.503 26.5757 104.491V104.522C26.8052 104.935 26.9811 105.275 27.2297 105.765L28.1361 107.563V108.58L26.2583 104.709L24.2773 104.962V103.933V103.917Z" fill="#002522"/>
<path d="M24.2773 109.576L25.1301 109.514C25.4552 109.469 25.6693 109.446 25.8912 109.446V109.426C25.6693 109.021 25.4628 108.631 25.1225 107.954L24.2734 106.324V105.307L26.2277 109.262L28.1361 109.063V110.092L27.2297 110.138C26.9773 110.153 26.7823 110.161 26.5757 110.149V110.18C26.8052 110.593 26.9811 110.934 27.2297 111.423L28.1361 113.221V114.239L26.2583 110.367L24.2773 110.62V109.591V109.576Z" fill="#002522"/>
<path d="M24.2773 115.232L25.1301 115.171C25.4552 115.125 25.6693 115.102 25.8912 115.102V115.083C25.6693 114.677 25.4628 114.287 25.1225 113.61L24.2734 111.98V110.963L26.2277 114.918L28.1361 114.719V115.748L27.2297 115.794C26.9773 115.81 26.7823 115.817 26.5757 115.806V115.836C26.8052 116.249 26.9811 116.59 27.2297 117.08L28.1361 118.877V119.895L26.2583 116.024L24.2773 116.276V115.247V115.232Z" fill="#002522"/>
<path d="M24.2773 123.197L25.1301 123.132C25.4552 123.086 25.6693 123.063 25.8912 123.063V123.044C25.6693 122.638 25.4628 122.248 25.1225 121.571L24.2734 119.941V118.924L26.2277 122.875L28.1361 122.676V123.705L27.2297 123.751C26.9773 123.767 26.7823 123.774 26.5757 123.763V123.793C26.8052 124.207 26.9811 124.547 27.2297 125.037L28.1361 126.834V127.852L26.2583 123.981L24.2773 124.233V123.204V123.197Z" fill="#002522"/>
<path d="M24.2773 128.853L25.1301 128.788C25.4552 128.742 25.6693 128.719 25.8912 128.719V128.7C25.6693 128.294 25.4628 127.904 25.1225 127.227L24.2734 125.598V124.58L26.2277 128.532L28.1361 128.333V129.362L27.2297 129.408C26.9773 129.423 26.7823 129.431 26.5757 129.419V129.45C26.8052 129.863 26.9811 130.203 27.2297 130.693L28.1361 132.491V133.508L26.2583 129.637L24.2773 129.89V128.861V128.853Z" fill="#002522"/>
<path d="M161.823 206.182L161.766 64.6931C161.766 61.7667 162.481 57.7272 163.372 55.6616L186.142 2.68912C187.037 0.604347 191.432 1.35793 193.726 1.33498L189.42 142.771C189.458 145.996 188.712 150.391 187.76 152.579L169.269 212.303C162.179 209.836 161.819 209.472 161.819 206.186L161.823 206.182Z" fill="#5BD16B" stroke="#002522" stroke-miterlimit="10"/>
<path d="M168.768 209.177L168.711 65.5339C168.711 62.5617 169.426 58.461 170.313 56.3647L193.084 2.5813C193.979 0.465926 194.732 1.10475 194.767 4.01578L196.365 144.797C196.404 148.072 195.662 152.532 194.706 154.755L170.478 211.243C169.533 213.442 168.768 212.513 168.768 209.173V209.177Z" fill="#5BD16B" stroke="#002522" stroke-miterlimit="10"/>
<path d="M190.626 164.284L185.061 177.229L184.078 23.8465L189.31 11.5215L190.626 164.284Z" fill="#002522"/>
<path d="M179.213 178.882L173.702 191.723L173.445 59.5635L178.673 47.2461L179.213 178.882Z" fill="#EDEDED"/>
<path d="M305.955 105.929L278.896 91.1521C275.753 89.4358 271.007 89.3583 268.273 90.9794L204.204 128.924C202.858 129.721 201.452 130.792 200.811 133.079C200.096 135.624 200.268 138.253 200.268 138.492L200.441 213.532C200.448 216.729 203.041 220.535 206.233 222.043L233.039 234.709C236.26 236.231 244.776 234.966 244.832 231.78L240.308 156.339C240.319 155.725 240.241 155.095 240.089 154.464C240.343 154.34 240.593 154.21 240.826 154.062L309.63 111.37C312.379 109.636 309.285 107.744 305.952 105.925L305.955 105.929Z" fill="#F19D38" stroke="#002522" stroke-miterlimit="10"/>
<path d="M307.043 196.691L243.453 233.91C240.821 235.45 238.743 233.875 238.806 230.407L240.205 153.947C240.265 150.69 242.372 146.821 244.912 145.298L306.296 108.499C308.89 106.945 311.021 108.302 311.053 111.54L311.846 187.585C311.881 191.038 309.732 195.119 307.043 196.691Z" fill="#F19D38" stroke="#002522" stroke-miterlimit="10"/>
<path d="M200.812 133.08L240.923 150.504" stroke="#002522" stroke-miterlimit="10"/>
<path d="M273.243 107.147C269.671 105.413 267.969 100.264 267.969 96.4156V22.1544C267.969 18.306 271.157 15.1836 275.089 15.1836C279.022 15.1836 282.21 18.3025 282.21 22.1544L283.493 107.436C283.493 111.284 276.344 108.655 273.24 107.147H273.243Z" fill="#EFEBE7" stroke="#002522" stroke-miterlimit="10"/>
<path d="M234.96 135.599C241.277 135.599 246.397 132.71 246.397 129.146C246.397 125.582 241.277 122.693 234.96 122.693C228.644 122.693 223.523 125.582 223.523 129.146C223.523 132.71 228.644 135.599 234.96 135.599Z" fill="#F29D28" stroke="#002522" stroke-miterlimit="10"/>
<path d="M234.941 135.599C238.895 135.599 242.1 134.887 242.1 134.009C242.1 133.132 238.895 132.42 234.941 132.42C230.987 132.42 227.781 133.132 227.781 134.009C227.781 134.887 230.987 135.599 234.941 135.599Z" fill="#002522"/>
<path d="M289.936 19.7216C284.485 -10.7554 255.802 3.17918 255.802 3.17918C255.802 3.17918 241.576 12.0786 236.499 16.6529C222.595 29.1672 223.79 41.7238 223.871 49.3536C223.948 56.8284 224.128 130.582 224.128 130.708C224.128 133.027 229.036 134.906 235.086 134.906C241.135 134.906 246.043 133.027 246.043 130.708V51.0558C246.043 37.953 253.09 33.3187 253.09 33.3187L264.096 25.0114C266.009 23.8766 267.718 23.3374 269.24 23.2282C272.816 22.9744 275.836 25.8607 275.836 29.4483V102.43C275.836 106.363 279.024 109.553 282.956 109.553C286.888 109.553 290.077 106.363 290.077 102.43V21.1524C290.077 20.659 290.028 20.1798 289.933 19.7181L289.936 19.7216Z" fill="#EFEBE7" stroke="#002522" stroke-miterlimit="10"/>
<path d="M316.726 261.954L267.861 106.142C266.79 102.726 268.182 98.6333 270.974 96.9961L341.523 55.6525C344.506 53.9043 349.776 53.2464 354.438 55.3082L402.806 218.605C403.915 222.148 402.335 226.26 399.283 227.79L325.82 267.397C320.607 266.49 317.8 265.37 316.729 261.954H316.726Z" fill="#FFCD98" stroke="#002522" stroke-miterlimit="10"/>
<path d="M321.069 263.286L272.205 107.474C271.134 104.058 272.526 99.9654 275.318 98.3282L349.068 55.1102C352.051 53.3621 355.378 54.8118 356.487 58.354L407.149 219.938C408.258 223.48 406.679 227.592 403.627 229.122L328.183 266.881C325.326 268.312 322.144 266.702 321.073 263.286H321.069Z" fill="#FFCD98" stroke="#002522" stroke-miterlimit="10"/>
<path d="M390.64 235.639L373.102 244.384L319.43 72.4794L336.575 62.4648L390.64 235.639Z" fill="#002522"/>
<path d="M351.2 241.003L334.204 249.583L288.992 104.796L305.663 95.1641L351.2 241.003Z" fill="white"/>
<path d="M117.829 212.129L112.937 160.079C112.325 155.385 111.828 149.291 111.828 146.495V3.64385C111.828 0.847575 116.437 3.2881 115.278 9.8561L119.156 65.2844C119.718 70.1004 120.169 76.1367 120.169 78.7914L121.5 213.139C121.5 215.794 118.387 216.448 117.825 212.133L117.829 212.129Z" fill="#C1A98A" stroke="#002522" stroke-miterlimit="10"/>
<path d="M119.998 4.38205C119.891 3.03556 118.713 2.02568 117.367 2.13279L112.984 2.47707L118.258 69.7178C118.369 71.137 118.427 72.56 118.427 73.983V213.843C118.427 214.826 119.222 215.622 120.205 215.622H123.375C124.423 215.622 125.272 214.772 125.272 213.724V72.078C125.272 71.5463 125.253 71.0146 125.211 70.4867L120.002 4.38205H119.998Z" fill="#C1A98A" stroke="#002522" stroke-miterlimit="10"/>
<path d="M396.187 312.107L292.702 174.561C290.457 171.578 291.861 169.198 293.268 163.671L368.299 123.995C371.21 122.346 375.398 123.417 377.662 126.386L484.883 262.906C484.428 266.659 480.986 272.159 478.053 273.831L407.982 313.404C405.041 315.079 398.486 315.152 396.191 312.107H396.187Z" fill="#E2FA52" stroke="#002522" stroke-miterlimit="10" stroke-linecap="round"/>
<path d="M397.783 307.042L294.298 169.497C292.053 166.513 292.596 162.753 295.511 161.1L369.892 118.93C372.802 117.282 376.99 118.353 379.254 121.321L483.469 258.216C485.779 261.25 485.271 265.064 482.334 266.735L407.26 309.521C404.319 311.197 400.074 310.087 397.783 307.038V307.042Z" fill="#E2FA52" stroke="#002522" stroke-miterlimit="10" stroke-linecap="round"/>
<path d="M362.867 138.799L454.818 259.93" stroke="#002522" stroke-miterlimit="10" stroke-linecap="round"/>
<path d="M402.654 286.255L381.417 258.082C380.909 257.405 381.027 256.556 381.681 256.185L398.241 246.763C398.895 246.392 399.84 246.637 400.348 247.31L421.62 275.453C422.132 276.13 422.014 276.983 421.36 277.354L404.769 286.802C404.111 287.177 403.167 286.928 402.654 286.251V286.255Z" fill="#EAF990" stroke="#002522" stroke-miterlimit="10"/>
<path d="M320.811 168.69L321.3 167.175C321.472 166.575 321.587 166.192 321.728 165.809L321.713 165.79C321.269 165.767 320.849 165.733 320.13 165.637L318.378 165.465L317.617 164.459L321.801 165.048L322.853 161.605L323.622 162.623L323.086 164.207C322.937 164.65 322.822 164.991 322.681 165.327L322.704 165.358C323.155 165.377 323.522 165.412 324.042 165.477L325.954 165.714L326.715 166.72L322.639 166.085L321.579 169.707L320.811 168.69Z" fill="#002522"/>
<path d="M325.037 174.297L325.527 172.779C325.699 172.178 325.813 171.795 325.955 171.413L325.94 171.394C325.496 171.371 325.075 171.336 324.356 171.241L322.605 171.069L321.844 170.063L326.028 170.652L327.079 167.205L327.848 168.223L327.313 169.81C327.164 170.254 327.049 170.594 326.907 170.931L326.93 170.962C327.382 170.981 327.749 171.015 328.269 171.08L330.181 171.317L330.942 172.327L326.861 171.688L325.802 175.315L325.033 174.297H325.037Z" fill="#002522"/>
<path d="M329.271 179.904L329.761 178.386C329.933 177.785 330.048 177.399 330.189 177.02L330.174 177.001C329.73 176.978 329.31 176.944 328.587 176.848L326.831 176.676L326.07 175.666L330.258 176.259L331.31 172.809L332.078 173.826L331.543 175.414C331.394 175.857 331.279 176.198 331.138 176.534L331.161 176.565C331.612 176.584 331.979 176.619 332.503 176.684L334.419 176.925L335.18 177.934L331.099 177.296L330.04 180.926L329.271 179.904Z" fill="#002522"/>
<path d="M335.24 187.817L335.73 186.298C335.902 185.697 336.016 185.311 336.158 184.928L336.143 184.909C335.699 184.886 335.275 184.852 334.556 184.756L332.8 184.584L332.039 183.574L336.231 184.167L337.282 180.717L338.051 181.738L337.516 183.326C337.366 183.769 337.252 184.11 337.11 184.45L337.133 184.481C337.584 184.5 337.952 184.534 338.476 184.599L340.392 184.84L341.153 185.85L337.068 185.211L336.009 188.846L335.24 187.824V187.817Z" fill="#002522"/>
<path d="M339.474 193.436L339.964 191.917C340.136 191.313 340.251 190.93 340.392 190.547L340.377 190.528C339.933 190.505 339.509 190.471 338.79 190.375L337.034 190.203L336.273 189.193L340.465 189.786L341.517 186.332L342.285 187.353L341.75 188.945C341.601 189.388 341.486 189.729 341.348 190.069L341.371 190.1C341.823 190.119 342.194 190.153 342.714 190.219L344.63 190.46L345.395 191.469L341.306 190.831L340.247 194.465L339.474 193.443V193.436Z" fill="#002522"/>
<path d="M343.713 199.06L344.202 197.538C344.374 196.934 344.489 196.551 344.631 196.168L344.615 196.149C344.172 196.126 343.747 196.092 343.028 195.996L341.269 195.824L340.508 194.814L344.703 195.407L345.755 191.949L346.527 192.971L345.992 194.562C345.843 195.006 345.728 195.346 345.59 195.687L345.613 195.717C346.065 195.736 346.436 195.771 346.956 195.836L348.876 196.077L349.641 197.09L345.552 196.448L344.493 200.086L343.72 199.064L343.713 199.06Z" fill="#002522"/>
<path d="M347.967 204.693L348.456 203.171C348.628 202.566 348.743 202.184 348.884 201.801L348.869 201.782C348.425 201.759 348.001 201.725 347.282 201.629L345.523 201.457L344.758 200.443L348.957 201.04L350.005 197.582L350.777 198.603L350.242 200.195C350.093 200.642 349.978 200.983 349.84 201.319L349.863 201.35C350.315 201.369 350.686 201.403 351.206 201.469L353.126 201.709L353.891 202.723L349.798 202.081L348.739 205.722L347.967 204.697V204.693Z" fill="#002522"/>
<path d="M353.955 212.627L354.444 211.104C354.616 210.5 354.731 210.113 354.873 209.731L354.857 209.712C354.41 209.689 353.989 209.654 353.266 209.559L351.507 209.383L350.742 208.369L354.941 208.966L355.989 205.504L356.762 206.529L356.226 208.124C356.077 208.572 355.963 208.912 355.825 209.253L355.848 209.283C356.303 209.302 356.67 209.337 357.194 209.402L359.114 209.643L359.879 210.657L355.783 210.014L354.723 213.659L353.951 212.634L353.955 212.627Z" fill="#002522"/>
<path d="M358.213 218.269L358.702 216.743C358.874 216.138 358.989 215.752 359.13 215.369L359.115 215.35C358.668 215.327 358.247 215.293 357.524 215.197L355.765 215.021L355 214.008L359.203 214.604L360.251 211.139L361.023 212.164L360.488 213.759C360.339 214.207 360.224 214.547 360.086 214.887L360.109 214.918C360.565 214.937 360.932 214.972 361.456 215.04L363.375 215.281L364.14 216.295L360.044 215.653L358.989 219.298L358.216 218.273L358.213 218.269Z" fill="#002522"/>
<path d="M362.466 223.915L362.956 222.389C363.128 221.785 363.243 221.398 363.384 221.016L363.369 220.997C362.921 220.974 362.501 220.939 361.778 220.844L360.015 220.668L359.25 219.654L363.457 220.251L364.505 216.781L365.277 217.806L364.742 219.402C364.597 219.849 364.478 220.19 364.34 220.53L364.363 220.561C364.818 220.58 365.186 220.614 365.709 220.683L367.633 220.924L368.402 221.942L364.302 221.295L363.247 224.944L362.47 223.919L362.466 223.915Z" fill="#002522"/>
<path d="M366.732 229.566L367.221 228.039C367.394 227.435 367.508 227.049 367.65 226.666L367.635 226.647C367.187 226.624 366.766 226.59 366.044 226.49L364.281 226.314L363.516 225.297L367.722 225.897L368.77 222.428L369.547 223.453L369.011 225.048C368.866 225.496 368.747 225.836 368.61 226.177L368.633 226.207C369.088 226.226 369.455 226.261 369.979 226.33L371.903 226.571L372.671 227.588L368.572 226.942L367.516 230.595L366.74 229.566H366.732Z" fill="#002522"/>
<path d="M372.74 237.534L373.229 236.004C373.401 235.4 373.516 235.013 373.657 234.627L373.642 234.608C373.195 234.585 372.77 234.55 372.047 234.451L370.284 234.275L369.516 233.258L373.726 233.858L374.774 230.385L375.551 231.414L375.015 233.013C374.87 233.46 374.751 233.801 374.614 234.145L374.637 234.176C375.092 234.195 375.459 234.229 375.983 234.298L377.906 234.543L378.675 235.56L374.572 234.914L373.516 238.571L372.74 237.542V237.534Z" fill="#002522"/>
<path d="M377.005 243.194L377.495 241.664C377.667 241.056 377.782 240.67 377.923 240.287L377.908 240.268C377.46 240.245 377.036 240.211 376.313 240.111L374.55 239.935L373.781 238.918L377.996 239.518L379.044 236.041L379.82 237.07L379.285 238.669C379.139 239.117 379.021 239.461 378.883 239.801L378.906 239.832C379.361 239.851 379.732 239.885 380.256 239.954L382.183 240.199L382.952 241.217L378.845 240.566L377.789 244.223L377.013 243.194H377.005Z" fill="#002522"/>
</g>
<defs>
<clipPath id="clip0_15015_18756">
<rect width="484.917" height="336.505" fill="white"/>
</clipPath>
</defs>
</svg>
