<svg width="558" height="366" viewBox="0 0 558 366" fill="none" xmlns="http://www.w3.org/2000/svg">
<g clip-path="url(#clip0_15015_18753)">
<path d="M416.116 290.131C416.116 290.131 375.024 291.702 384.452 300.922C393.881 310.143 396.311 320.72 409.438 321.47C422.564 322.22 435.064 323.016 442.781 327.147C450.498 331.279 450.959 330.751 457.521 325.355C464.086 319.955 497.281 317.758 497.281 317.758L416.119 290.131H416.116Z" fill="#D9D9D9"/>
<path d="M70.1166 319.401C100.354 316.271 124.357 308.818 123.73 302.754C123.102 296.69 98.0809 294.312 67.8435 297.442C37.606 300.572 13.6026 308.025 14.2303 314.089C14.858 320.153 39.8791 322.531 70.1166 319.401Z" fill="#D9D9D9"/>
<path d="M155.289 340.219L88.9766 356.804L302.619 366.007L360.289 347.337L155.289 340.219Z" fill="#D9D9D9"/>
<path d="M288.373 23.0686C288.373 23.0686 292.945 22.1846 293.427 21.9028C293.91 21.6211 309.188 7.90977 309.188 7.90977C309.188 7.90977 311.594 4.66245 308.107 1.17211C304.62 -2.31823 291.737 3.09867 291.737 3.09867L279.276 8.51204C279.276 8.51204 276.948 13.9254 278.149 16.4507C279.353 18.976 288.373 23.0686 288.373 23.0686Z" fill="#EF6629" stroke="#022522" stroke-miterlimit="10"/>
<path d="M269.844 51.3441C269.844 51.3441 270.566 33.5402 288.37 23.0727C288.37 23.0727 294.745 19.5824 289.933 12.725C289.933 12.725 286.443 9.35792 281.632 12.725C276.821 16.0921 259.979 24.9958 257.812 49.9001L269.844 51.3441Z" fill="#EEEBE7" stroke="#002522" stroke-miterlimit="10"/>
<path d="M343.596 56.0321C343.596 56.0321 344.8 32.3993 378.002 31.2828C378.002 31.2828 386.423 29.085 384.018 21.7451C384.018 21.7451 382.215 17.5327 376.199 17.7757C376.199 17.7757 335.643 19.181 331.438 53.8485L333.611 56.0357H343.596V56.0321Z" fill="#EEEBE7" stroke="#002522" stroke-miterlimit="10"/>
<path d="M197.336 181.896L218.82 69.078C218.82 69.078 221.575 49.2454 242.506 48.1465L349.956 55.0321C349.956 55.0321 374.716 56.4092 370.31 86.431L336.981 273.818L224.054 267.591L197.336 181.896Z" fill="#EEEBE7" stroke="#022522" stroke-miterlimit="10"/>
<path d="M206.48 187.702L225.925 78.6174C225.925 78.6174 229.109 57.7141 245.913 56.6152L336.668 61.7328C336.668 61.7328 357.938 63.5043 354 84.1858L327.803 221.626L267.355 194.517L206.477 187.706L206.48 187.702Z" fill="white" stroke="#002522" stroke-miterlimit="10"/>
<path d="M329.383 217.232L326.967 216.746C327.207 215.552 350.949 97.0669 353.118 82.1229C353.879 76.8927 352.378 72.3387 348.663 68.5877C345.31 65.203 340.728 63.1814 335.762 62.8926L247.035 57.7328C245.622 57.6518 244.294 57.7258 243.086 57.9582C239.089 58.726 235.739 60.7054 233.13 63.8435C231.312 66.0307 230.055 68.7568 229.495 71.7259L207.915 185.998L205.492 185.541L227.072 71.268C227.709 67.8868 229.15 64.7734 231.235 62.2657C234.218 58.6802 238.046 56.4156 242.621 55.5351C244.03 55.2639 245.562 55.1758 247.179 55.2674L335.906 60.4272C341.481 60.7512 346.634 63.0335 350.413 66.8514C354.643 71.1201 356.422 76.5229 355.555 82.4787C353.375 97.4861 329.619 216.034 329.38 217.232H329.383Z" fill="#EEEBE7" stroke="#002522" stroke-miterlimit="10"/>
<path d="M367.776 120.705C368.197 118.373 366.647 116.142 364.316 115.722C361.984 115.302 359.753 116.851 359.333 119.183L352.429 157.477C352.008 159.808 353.558 162.039 355.889 162.46C358.221 162.88 360.452 161.331 360.872 158.999L367.776 120.705Z" fill="#EEEBE7" stroke="#022522" stroke-miterlimit="10"/>
<path d="M417.209 11.228C415.525 9.12886 411.676 10.4391 411.676 10.4391L376.906 17.7684C381.682 17.3634 384.003 21.7483 384.003 21.7483C385.93 29.5672 377.987 31.286 377.987 31.286L403.251 33.7796L425.147 27.6442V20.7868C425.147 19.945 418.892 13.3271 417.209 11.228ZM418.773 19.8218C418.29 21.0263 406.741 26.1967 400.004 22.5901L416.966 18.6208C416.966 18.6208 419.252 18.6208 418.769 19.8253L418.773 19.8218Z" fill="#EF6629" stroke="#022522" stroke-miterlimit="10"/>
<path d="M389.672 18.6191C389.672 18.6191 398.91 22.0919 400.02 22.5885L389.672 18.6191Z" fill="white"/>
<path d="M389.672 18.6191C389.672 18.6191 398.91 22.0919 400.02 22.5885" stroke="#002522" stroke-miterlimit="10"/>
<path d="M384.445 22.5884C384.445 22.5884 399.171 26.6775 407.353 25.2335C415.534 23.7894 425.156 21.2324 425.156 21.2324" stroke="#002522" stroke-miterlimit="10"/>
<path d="M265.205 193.001V180.033L290.377 181.625C292.448 181.756 294.53 181.671 296.58 181.336C305.606 179.861 326.14 173.098 330.395 142.119C330.395 142.119 333.832 122.43 314.979 110.793C310.668 108.131 306.244 108.87 301.183 108.627L277.948 107.522C273.228 107.296 268.498 107.916 264.025 109.434C254.206 112.766 239.519 121.039 236.385 141.087C235.085 149.395 228.664 168.365 263.663 190.494L265.205 192.998V193.001Z" fill="#C1440D" stroke="#022522" stroke-miterlimit="10"/>
<path d="M261.619 189.879V176.911L286.791 178.503C288.862 178.633 290.944 178.548 292.994 178.214C302.021 176.738 322.554 169.976 326.809 138.996C326.809 138.996 330.144 119.248 312.087 109.464C307.631 107.051 302.658 105.748 297.597 105.508L274.362 104.402C269.643 104.177 264.912 104.797 260.439 106.315C250.62 109.647 235.933 117.92 232.799 137.967C231.499 146.276 225.078 165.246 260.077 187.375L261.619 189.879Z" fill="#EF6629" stroke="#022522" stroke-miterlimit="10"/>
<path d="M265.013 144.214C266.392 141.327 265.663 138.104 263.385 137.016C261.107 135.928 258.142 137.387 256.763 140.274C255.384 143.161 256.113 146.384 258.391 147.472C260.669 148.56 263.634 147.102 265.013 144.214Z" fill="#C1440D" stroke="#022522" stroke-miterlimit="10"/>
<path d="M264.873 143.964C266.051 141.498 265.798 138.921 264.307 138.21C262.817 137.498 260.654 138.92 259.476 141.386C258.299 143.852 258.552 146.429 260.042 147.14C261.532 147.852 263.695 146.43 264.873 143.964Z" fill="white" stroke="#002522" stroke-miterlimit="10"/>
<path d="M284.013 145.705C285.392 142.817 284.663 139.595 282.385 138.506C280.107 137.418 277.142 138.877 275.763 141.764C274.384 144.652 275.113 147.874 277.391 148.962C279.669 150.051 282.634 148.592 284.013 145.705Z" fill="#C1440D" stroke="#022522" stroke-miterlimit="10"/>
<path d="M283.873 145.456C285.051 142.99 284.798 140.414 283.307 139.702C281.817 138.99 279.654 140.412 278.476 142.878C277.299 145.345 277.552 147.921 279.042 148.632C280.532 149.344 282.695 147.922 283.873 145.456Z" fill="white" stroke="#002522" stroke-miterlimit="10"/>
<path d="M303.144 147.064C304.884 144.379 304.577 141.089 302.458 139.716C300.339 138.343 297.211 139.407 295.471 142.093C293.731 144.778 294.038 148.068 296.157 149.441C298.276 150.814 301.404 149.75 303.144 147.064Z" fill="#C1440D" stroke="#022522" stroke-miterlimit="10"/>
<path d="M303.03 146.8C304.516 144.507 304.597 141.919 303.211 141.021C301.825 140.123 299.497 141.255 298.011 143.548C296.525 145.842 296.444 148.429 297.83 149.327C299.216 150.225 301.544 149.094 303.03 146.8Z" fill="white" stroke="#002522" stroke-miterlimit="10"/>
<path d="M443.018 286.91C443.018 286.91 441.564 255.789 445.748 225.76C445.748 225.76 447.385 218.843 451.573 208.108C455.757 197.369 461.4 182.812 461.766 180.625C462.132 178.438 463.161 178.079 463.372 180.625C463.583 183.172 461.4 197.369 459.762 201.92C458.124 206.47 454.486 221.576 455.578 229.765C456.67 237.954 458.853 254.468 458.853 254.468L463.386 273.818L462.129 289.456L461.037 295.461H447.206L443.022 286.906L443.018 286.91Z" fill="#60CD6F" stroke="#022522" stroke-miterlimit="10"/>
<path d="M435.737 260.887L404.07 237.229C404.07 237.229 402.024 236.321 401.953 238.321C401.883 240.322 420.166 254.558 421.67 258.633C423.177 262.708 431.549 276.912 431.549 276.912L436.462 275.37L435.733 260.887H435.737Z" fill="#60CD6F" stroke="#022522" stroke-miterlimit="10"/>
<path d="M403.008 283.373C403.008 283.373 405.03 284.5 405.03 281.57C405.03 278.64 409.084 261.973 411.789 261.973C414.494 261.973 423.95 275.368 423.95 275.368L430.258 272.779L424.401 259.948C424.401 259.948 407.735 251.39 406.157 255.669C404.579 259.948 399.87 270.923 403.008 283.373Z" fill="#60CD6F" stroke="#022522" stroke-miterlimit="10"/>
<path d="M506.609 301.168C506.609 301.168 525.755 308.374 527.78 309.952C529.808 311.53 540.617 306.123 545.798 305.56C550.979 304.996 559.087 305.222 557.287 301.168C555.484 297.114 554.586 291.032 554.811 289.905C555.037 288.777 557.065 277.049 555.262 275.369C553.459 273.689 548.729 261.975 546.929 260.626C545.129 259.277 541.297 255.445 541.297 255.445C541.297 255.445 548.503 246.886 549.405 244.858C550.307 242.829 555.262 237.426 550.081 234.947C544.9 232.467 530.935 231.569 530.034 230.667C529.132 229.766 513.818 224.359 512.24 222.785C510.663 221.207 503.231 219.633 502.329 219.633C501.428 219.633 498.726 220.76 498.726 220.76L493.996 224.363L488.815 227.741L481.384 251.166L479.031 280.222L506.609 301.168Z" fill="#FBAD5A" stroke="#022522" stroke-miterlimit="10"/>
<path d="M527.787 309.952C527.787 309.952 527.562 293.958 525.984 289.006C524.406 284.054 523.955 281.349 522.607 280.448C521.254 279.546 519.158 279.095 518.292 277.972C517.426 276.848 514.876 276.619 514.009 277.295C513.143 277.972 504.679 281.557 504.993 282.772" stroke="#002522" stroke-linecap="round" stroke-linejoin="round"/>
<path d="M542.914 232.959C542.914 232.959 515.174 230.973 510.67 232.959C506.165 234.945 504.587 233.368 503.689 234.044C502.787 234.72 499.184 237.421 499.41 239.225C499.635 241.028 496.934 249.812 496.032 250.936C495.13 252.059 490.633 254.313 490.633 254.313" stroke="#002522" stroke-linecap="round" stroke-linejoin="round"/>
<path d="M453.078 293.746C453.078 293.746 460.668 261.973 473.055 240.577C485.442 219.181 504.26 195.756 504.986 197.104C505.711 198.453 499.181 207.692 496.029 212.422C492.877 217.152 473.055 277.093 468.776 293.746C464.497 310.401 468.1 292.844 468.1 292.844L453.078 293.746Z" fill="#60CD6F" stroke="#022522" stroke-miterlimit="10"/>
<path d="M463.375 293.747C463.375 293.747 472.789 251.859 484.838 250.489C496.887 249.119 497.789 267.483 497.113 269.029C496.436 270.575 492.446 261.837 487.716 260.259C482.986 258.681 478.101 272.833 479.066 288.936L463.375 293.75V293.747Z" fill="#60CD6F" stroke="#022522" stroke-miterlimit="10"/>
<path d="M447.383 283.586C447.383 283.586 434.281 230.858 433.006 228.312C431.731 225.765 406.982 192.823 404.432 193.007C401.886 193.19 403.523 196.004 404.432 197.053C405.341 198.103 425.226 230.132 425.226 230.132L431.369 261.07L435.373 281.452L447.383 283.586Z" fill="#60CD6F" stroke="#022522" stroke-miterlimit="10"/>
<path d="M445.023 284.364C445.023 284.364 462.676 224.123 465.226 218.847C467.776 213.571 473.96 203.195 477.056 197.919C480.149 192.643 487.066 185.543 494.709 172.258C502.352 158.973 497.276 173.896 497.276 173.896C497.276 173.896 490.521 188.456 487.062 191.548C483.604 194.64 477.599 204.47 474.323 214.297C471.048 224.123 462.676 245.928 464.314 254.318C465.951 262.707 464.314 283.586 464.314 283.586L462.13 297.65H446.115L445.023 284.364Z" fill="#60CD6F" stroke="#022522" stroke-miterlimit="10"/>
<path d="M453.036 314.946C453.036 314.946 452.614 316.5 459.961 314.946C467.311 313.393 470.418 312.403 471.974 313.249C473.531 314.094 481.586 318.194 483.706 318.761C485.826 319.328 496.991 321.73 498.689 321.445C500.387 321.163 509.572 315.027 511.692 312.935C513.813 310.843 514.52 307.451 513.672 305.472C512.823 303.493 509.713 296.709 509.713 296.709C509.713 296.709 510.984 291.764 508.301 290.348C505.617 288.936 505.05 280.173 503.497 278.902C501.943 277.63 495.864 275.228 495.015 275.369C494.167 275.51 485.263 275.936 484.414 276.641C483.565 277.349 479.325 278.902 479.325 278.902L479.043 287.946C479.043 287.946 458.975 292.36 456.432 292.839C453.889 293.318 452.54 292.303 452.54 292.303C452.54 292.303 447.951 294.448 453.04 314.939L453.036 314.946Z" fill="#FBAD5A" stroke="#022522" stroke-miterlimit="10"/>
<path d="M479.031 287.953C479.031 287.953 488.502 287.135 490.337 292.845C492.175 298.554 484.543 308.87 484.684 312.262C484.825 315.653 486.096 319.33 486.096 319.33" stroke="#002522" stroke-linecap="round" stroke-linejoin="round"/>
<path d="M403.008 300.447L419.251 276.504L429.853 269.861L446.811 277.775C446.811 277.775 456.986 302.792 457.413 306.889C457.839 310.985 456.846 314.803 455.715 315.51C454.584 316.218 447.519 315.51 447.519 315.51C447.519 315.51 435.932 309.576 435.083 308.304C434.234 307.033 431.092 305.902 430.261 305.761C429.43 305.621 423.351 302.229 420.808 302.511C418.265 302.792 408.389 307.994 403.011 300.447H403.008Z" fill="#FBAD5A" stroke="#022522" stroke-miterlimit="10"/>
<path d="M429.299 273.82C429.299 273.82 423.223 286.683 434.388 291.205C445.553 295.727 449.085 313.676 449.085 313.676" stroke="#002522" stroke-linecap="round" stroke-linejoin="round"/>
<path d="M166.012 184.829C166.012 174.308 157.404 165.461 146.887 165.538C142.879 165.567 139.17 166.842 136.117 168.99C131.232 172.428 128.037 178.102 128.037 184.529V209.948C128.037 211.145 127.872 212.346 127.463 213.473C126.604 215.851 124.913 217.827 122.751 219.066V129.906C122.751 111.613 107.919 96.7812 89.6259 96.7812C71.3325 96.7812 56.5012 111.613 56.5012 129.906V192.658C54.8916 192.915 53.2433 193.053 51.5633 193.053C46.7029 193.053 42.0961 191.947 37.9894 189.971V156.959H37.9542C37.3836 146.984 29.1174 139.07 18.9986 139.07C8.87982 139.07 0.613616 146.981 0.043047 156.955H0.00782673V190.045C0.00782673 190.045 -0.00978342 192.035 0.00782673 193.046C0.479779 219.736 20.6645 232.285 34.9217 232.285C43.2795 232.285 51.0737 232.51 56.4977 232.426V307.121C56.4977 310.956 71.3289 314.066 89.6224 314.066C107.916 314.066 122.747 310.956 122.747 307.121V261.077C146.933 258.612 165.807 238.188 165.807 213.35C165.807 212.554 165.892 211.748 165.853 210.959L166.012 184.822V184.829Z" fill="#60CD6F" stroke="#022522" stroke-miterlimit="10"/>
<path d="M37.0078 190.772L42.3014 185.07L41.3117 191.991L47.2428 191.354L42.1253 194.319" fill="#60CD6F"/>
<path d="M37.0078 190.772L42.3014 185.07L41.3117 191.991L47.2428 191.354L42.1253 194.319" stroke="#022522" stroke-miterlimit="10"/>
<path d="M8.63184 142.141C8.63184 142.141 2.23583 146.17 2.12665 157.8C2.01747 169.429 2.12665 191.689 2.12665 191.689C2.12665 191.689 1.46099 214.283 21.7303 226.131C21.7303 226.131 28.8166 230.008 46.3176 230.227C46.3176 230.227 52.9636 229.579 53.4039 232.449" stroke="#002522" stroke-miterlimit="10"/>
<path d="M14.9789 139.494C14.9789 139.494 10.0727 143.629 9.55847 152.367C9.41054 154.871 9.55847 160.562 9.55847 160.562L13.9892 156.466L11.6646 162.338L17.4232 163.665L11.4428 164.662L13.4186 170.421L9.41406 166.212V189.137C9.41406 189.137 10.1149 216.492 28.831 222.917L26.3938 217.38L31.1556 221.258L34.4768 215.943L33.9239 221.923L40.2353 221.814L34.9206 224.695H52.7526C52.7526 224.695 57.1834 223.367 57.4053 218.715C57.6271 214.062 52.5308 212.844 52.5308 212.844L44.2258 212.291C44.2258 212.291 23.6255 212.181 23.5163 186.597C23.4071 161.013 23.6255 149.496 23.6255 149.496C23.6255 149.496 24.0375 141.797 20.1774 139.113" stroke="#002522" stroke-miterlimit="10"/>
<path d="M25.5156 140.674C25.5156 140.674 33.9438 146.246 33.8734 154.117C33.803 161.989 33.2077 180.741 34.1516 189.694C34.2855 190.969 35.6837 201.411 45.4362 202.595C55.1887 203.778 56.2313 199.39 56.0235 197.372C55.8157 195.353 53.9349 193.402 52.1915 193.054" stroke="#002522" stroke-miterlimit="10"/>
<path d="M55.3828 193.003C55.3828 193.003 59.6163 193.39 60.7293 196.539V121.203C60.7293 121.203 60.532 114.662 62.3952 111.027" stroke="#002522" stroke-miterlimit="10"/>
<path d="M79.5075 98.3486C79.5075 98.3486 71.0511 104.804 70.794 123.542C70.5368 142.279 70.794 300.091 70.794 300.091C70.794 300.091 72.1394 306.991 79.5075 307.135C86.8756 307.279 88.39 299.721 88.39 299.721V99.8243C88.39 99.8243 88.464 98.0527 88.9817 96.7812" stroke="#002522" stroke-miterlimit="10"/>
<path d="M94.2969 97.3203C94.2969 97.3203 100.274 99.754 100.901 120.707V273.831L104.775 269.33L102.968 275.638L109.054 276.155L102.415 278.075L104.74 282.872L100.904 279.22V297.259C100.904 297.259 101.64 305.413 109.058 305.152C116.472 304.895 116.176 296.89 116.176 296.89V246.352L112.819 250.705L114.517 244.214L108.875 243.404L114.777 241.819L112.858 236.212L116.436 240.382V121.823C116.436 121.823 115.288 110.211 106.642 101.483" stroke="#002522" stroke-miterlimit="10"/>
<path d="M56.5 302.586C56.5 302.586 60.3989 302.04 60.3672 296.323C60.3355 290.604 60.3672 232.596 60.3672 232.596" stroke="#002522" stroke-miterlimit="10"/>
<path d="M63.301 232.449H56.5" stroke="#002522" stroke-miterlimit="10"/>
<path d="M122.742 261.02V219.143" stroke="#002522" stroke-miterlimit="10"/>
<path d="M148.506 165.666C148.506 165.666 156.747 169.118 156.688 178.923C156.628 188.728 156.688 209.864 156.688 209.864C156.688 209.864 157.1 247.62 122.742 252.298" stroke="#002522" stroke-miterlimit="10"/>
<path d="M146.671 165.666C146.671 165.666 142.895 167.413 142.987 174.668C143.078 181.924 142.987 214.147 142.987 214.147C142.987 214.147 144.593 237.121 122.742 238.452" stroke="#002522" stroke-miterlimit="10"/>
<path d="M139.715 167C139.715 167 132.083 171.857 131.917 180.845C131.752 189.833 131.917 218.306 131.917 218.306L136.911 216.139L133.083 221.134L137.912 224.687L131.843 223.3L130.751 228.129L128.92 223.3C128.92 223.3 128.384 226.463 122.742 228.96" stroke="#002522" stroke-miterlimit="10"/>
<path d="M68.9922 291.391L72.553 295.374L70.7743 289.746L76.959 288.577L70.7743 287.143L72.9756 281.832L68.9922 286.027" fill="#60CD6F"/>
<path d="M68.9922 291.391L72.553 295.374L70.7743 289.746L76.959 288.577L70.7743 287.143L72.9756 281.832L68.9922 286.027" stroke="#022522" stroke-miterlimit="10"/>
<path d="M70.6797 131.086L74.7159 135.609L72.9373 129.98L79.1255 128.811L72.9373 127.378L75.1421 122.066L70.7642 126.68" stroke="#002522" stroke-miterlimit="10"/>
<path d="M88.2818 175.04L84.242 170.518L86.0206 176.149L79.8359 177.315L86.0206 178.749L83.8194 184.06L88.1972 179.446" stroke="#002522" stroke-miterlimit="10"/>
<path d="M116.422 163.413L112.383 158.891L114.161 164.522L107.977 165.688L114.161 167.125L111.96 172.433L116.338 167.823" stroke="#002522" stroke-miterlimit="10"/>
<path d="M102.789 213.995L110.08 211.435H103.254L104.106 204.768L100.891 210.35" stroke="#002522" stroke-miterlimit="10"/>
<path d="M158.245 193.06L151.578 193.99L156.696 190.581L153.515 185.77L159.02 188.717" fill="#60CD6F"/>
<path d="M158.245 193.06L151.578 193.99L156.696 190.581L153.515 185.77L159.02 188.717" stroke="#022522" stroke-miterlimit="10"/>
<path d="M387.857 308.272C388.005 335.698 370.447 351.977 351.967 350.61C333.487 349.24 319.202 326.664 320.931 303.316C322.66 279.969 339.069 261.827 357.525 263.524C379.242 265.521 387.73 284.864 387.857 308.275V308.272Z" fill="#4D4D4D" stroke="#002522" stroke-miterlimit="10"/>
<path d="M222.153 304.753C220.159 332.109 201.383 346.965 183.069 344.158C164.751 341.351 152.275 317.725 155.822 294.585C159.369 271.445 177.148 254.638 195.41 257.773C216.901 261.457 223.854 281.406 222.153 304.757V304.753Z" fill="#4D4D4D" stroke="#002522" stroke-miterlimit="10"/>
<path d="M372.849 310.057C371.722 320.489 366.411 328.84 360.289 328.589C354.168 328.339 349.554 319.636 349.98 309.155C350.407 298.673 357.306 287.994 363.424 288.245C369.545 288.495 373.948 299.881 372.845 310.06L372.849 310.057Z" fill="white" stroke="#002522" stroke-miterlimit="10"/>
<path d="M365.538 309.761C364.633 320.204 361.484 323.55 357.871 325.117C354.046 326.773 349.555 319.64 349.981 309.155C350.407 298.67 358.04 288.118 361.484 290.46C364.957 292.82 366.419 299.572 365.538 309.761Z" fill="white" stroke="#002522" stroke-miterlimit="10"/>
<path d="M167.141 236.801L177.939 180.977L280.617 187.7L330.383 212.157L320.789 262.269L285.713 246.173L167.141 236.801Z" fill="#FBAD5A" stroke="#022522" stroke-miterlimit="10"/>
<path d="M341.139 272.865L285.72 246.175L138.013 234.764L124.953 302.207L180.372 328.929L328.097 338.058L341.139 272.865Z" fill="#BEA687" stroke="#022522" stroke-miterlimit="10"/>
<path d="M324.432 337.833C324.432 337.833 325.246 343.151 307.519 341.929C289.793 340.707 193.835 333.779 193.835 333.779L163.07 316.461L164.088 312.182L286.736 319.314L324.429 337.833H324.432Z" fill="#EEEBE7" stroke="#002522" stroke-miterlimit="10"/>
<path d="M315.061 342.11L280.626 325.355L164.367 317.191" stroke="#022522" stroke-miterlimit="10"/>
<path d="M286.741 319.317L273.199 312.185L124.953 302.207" stroke="#002522" stroke-miterlimit="10"/>
<path d="M285.724 246.176L273.203 312.186" stroke="#002522" stroke-miterlimit="10"/>
<path d="M280.624 187.701L270.906 245.029" stroke="#002522" stroke-miterlimit="10"/>
<path d="M309.02 257.396C309.02 257.396 301.881 283.35 305.833 292.504L317.899 298.953C317.899 298.953 313.916 292.367 320.794 262.271L309.02 257.396Z" fill="#D9FB35" stroke="#022522" stroke-miterlimit="10" stroke-linecap="round"/>
<path d="M307.286 201.238C307.286 201.238 298.869 224.692 304.638 236.547L316.648 243.619C316.648 243.619 312.034 235.779 319.54 206.831L307.286 201.238Z" fill="#8AFAF7" stroke="#022522" stroke-miterlimit="10"/>
</g>
<defs>
<clipPath id="clip0_15015_18753">
<rect width="557.543" height="366.007" fill="white"/>
</clipPath>
</defs>
</svg>
