<svg width="473" height="620" viewBox="0 0 473 620" fill="none" xmlns="http://www.w3.org/2000/svg">
<g clip-path="url(#clip0_14997_18372)">
<path d="M424.355 340.675L353.485 362.877V362.908L324.946 371.822L288.92 383.115L272.948 388.132L254.076 394.039L218.049 405.332L202.062 410.349L189.496 414.293L132.142 403.245L111.337 399.241L53.9375 388.194L189.403 345.739L288.797 314.592L346.166 325.624L366.971 329.628L424.355 340.675Z" fill="#274B4B" stroke="#082422" stroke-width="0.464982" stroke-linejoin="round"/>
<path d="M181.086 299.721L193.212 303.861C199.071 305.864 204.53 309.428 209.251 314.646C230.13 337.709 228.72 384.28 206.09 418.661C188.566 445.267 163.479 456.764 143.374 449.887L131.249 445.748C151.371 452.613 176.458 441.116 193.964 414.521C216.577 380.151 217.998 333.598 197.125 310.506C192.404 305.288 186.957 301.741 181.086 299.721Z" fill="#B9CC00" stroke="#082422" stroke-width="0.464982" stroke-linejoin="round"/>
<path d="M118.368 330.949C140.981 296.579 176.25 287.416 197.123 310.507C218.002 333.57 216.592 380.141 193.962 414.522C171.332 448.902 136.08 458.054 115.218 434.98C94.3393 411.918 95.7491 365.347 118.379 330.966L118.368 330.949Z" fill="#DCFF00" stroke="#082422" stroke-width="0.464982" stroke-linejoin="round"/>
<path d="M133.163 355.182L140.079 356.607L140.324 356.106C141.137 354.379 142.016 352.832 142.914 351.469C146.643 345.807 151.041 343.186 156.243 343.47L151.044 362.352C148.973 362.153 147.367 362.912 146.203 364.666C145.641 365.518 145.179 366.602 144.827 367.934C143.745 371.851 144.8 373.537 146.163 373.821C147.486 374.08 148.541 373.232 149.682 371.517C150.669 370.023 151.696 367.864 152.969 365.203L154.367 362.24C156.244 358.257 157.981 355.053 159.63 352.52C163.655 346.398 167.267 344.354 171.647 345.239C177.762 346.488 180.237 352.923 178.831 363.863L178.763 364.448L186.487 366.019L181.448 384.307L173.724 382.735L173.495 383.3C172.464 385.683 171.369 387.738 170.199 389.521C166.374 395.342 161.757 398.006 156.231 397.56L161.792 377.438C164.208 377.637 165.964 376.807 167.247 374.853C167.856 373.922 168.372 372.73 168.783 371.261C169.282 369.465 169.429 367.968 169.243 366.832C169.049 365.53 168.368 364.736 167.32 364.521C166.072 364.263 165.103 365.056 164.199 366.447C163.549 367.43 162.916 368.746 162.229 370.17L159.128 376.66C157.43 380.307 155.818 383.283 154.263 385.657C150.167 391.899 146.278 394.046 141.583 393.093C135.937 391.962 133.551 385.666 134.846 375.437L134.914 374.852L128.163 373.493L133.192 355.189L133.163 355.182Z" fill="white" stroke="#082422" stroke-width="0.464982" stroke-linejoin="round"/>
<path d="M393.246 226.134L398.537 227.94C401.095 228.815 403.476 230.37 405.536 232.647C414.647 242.711 414.032 263.033 404.157 278.036C396.51 289.646 385.563 294.663 376.79 291.662L371.499 289.856C380.279 292.852 391.227 287.835 398.866 276.229C408.733 261.231 409.353 240.917 400.245 230.84C398.185 228.564 395.808 227.016 393.246 226.134Z" fill="#B9CC00" stroke="#082422" stroke-width="0.464982" stroke-linejoin="round"/>
<path d="M365.88 239.762C375.747 224.764 391.138 220.766 400.246 230.842C409.357 240.906 408.742 261.228 398.867 276.231C388.991 291.234 373.609 295.228 364.505 285.159C355.394 275.095 356.009 254.773 365.885 239.77L365.88 239.762Z" fill="#DCFF00" stroke="#082422" stroke-width="0.464982" stroke-linejoin="round"/>
<path d="M372.334 250.337L375.352 250.959L375.459 250.74C375.813 249.987 376.197 249.312 376.589 248.717C378.216 246.246 380.135 245.102 382.405 245.226L380.136 253.466C379.233 253.379 378.532 253.71 378.024 254.476C377.779 254.848 377.577 255.32 377.424 255.902C376.951 257.611 377.412 258.347 378.006 258.471C378.584 258.584 379.044 258.214 379.542 257.465C379.973 256.814 380.421 255.871 380.976 254.71L381.587 253.417C382.406 251.679 383.163 250.281 383.883 249.176C385.64 246.504 387.216 245.612 389.127 245.998C391.796 246.543 392.876 249.352 392.262 254.125L392.232 254.381L395.603 255.066L393.404 263.046L390.033 262.361L389.934 262.607C389.483 263.647 389.006 264.544 388.495 265.322C386.826 267.862 384.811 269.024 382.4 268.83L384.827 260.049C385.881 260.136 386.647 259.774 387.207 258.921C387.473 258.515 387.698 257.995 387.878 257.353C388.095 256.57 388.159 255.917 388.078 255.421C387.993 254.853 387.696 254.506 387.239 254.413C386.694 254.3 386.272 254.646 385.877 255.253C385.593 255.682 385.317 256.256 385.017 256.878L383.664 259.709C382.923 261.301 382.22 262.6 381.541 263.636C379.754 266.359 378.057 267.296 376.008 266.881C373.544 266.387 372.503 263.639 373.068 259.176L373.098 258.921L370.152 258.328L372.346 250.34L372.334 250.337Z" fill="white" stroke="#082422" stroke-width="0.464982" stroke-linejoin="round"/>
<path d="M424.352 340.678L462.925 537.394L363.531 568.541L327.49 579.834L228.065 610.996L220.777 573.727L189.492 414.295L202.058 410.352L218.046 405.334L254.072 394.042L272.944 388.135L288.917 383.117L324.943 371.825L353.481 362.91V362.879L424.352 340.678Z" fill="#2BF2F1" stroke="#082422" stroke-width="0.464982" stroke-linejoin="round"/>
<path d="M189.496 414.292L220.781 573.725L228.069 610.993L170.685 599.946L149.91 595.942L92.5259 584.894L53.9375 388.193L111.337 399.241L132.142 403.245L189.496 414.292Z" fill="#2BF2F1" stroke="#082422" stroke-width="0.464982" stroke-linejoin="round"/>
<path d="M132.126 403.233L170.699 599.95L149.909 595.945L111.336 399.244L132.126 403.233Z" fill="white" stroke="#082422" stroke-width="0.464982" stroke-linejoin="round"/>
<path d="M291.234 382.44L329.347 579.295L361.2 569.229L323.072 372.375L291.234 382.44Z" fill="white" stroke="#082422" stroke-width="0.464982" stroke-linejoin="round"/>
<path d="M157.02 244.176L151.853 250.487C149.355 253.536 146.015 255.998 141.852 257.653C123.452 264.974 95.991 253.772 80.5208 232.627C68.5514 216.256 67.2756 198.736 75.8497 188.276L81.0164 181.965C72.4451 192.438 73.7209 209.959 85.6875 226.316C101.155 247.449 128.603 258.653 147.019 251.342C151.181 249.687 154.509 247.228 157.02 244.176Z" fill="#B9CC00" stroke="#082422" stroke-width="0.464982" stroke-linejoin="round"/>
<path d="M152.351 199.822C167.819 220.955 165.437 244.028 147.021 251.339C128.621 258.661 101.16 247.459 85.6898 226.313C70.2196 205.167 72.6041 182.107 91.0068 174.798C109.407 167.477 136.868 178.679 152.338 199.825L152.351 199.822Z" fill="#DCFF00" stroke="#082422" stroke-width="0.464982" stroke-linejoin="round"/>
<path d="M134.611 203.253L132.223 207.062L132.468 207.319C133.316 208.188 134.044 209.056 134.657 209.895C137.204 213.379 137.789 216.585 136.462 219.624L126.357 212.322C126.937 211.131 126.842 210.005 126.054 208.921C125.671 208.396 125.128 207.879 124.411 207.373C122.316 205.856 121.076 206.11 120.603 206.86C120.154 207.591 120.425 208.41 121.195 209.471C121.866 210.392 122.925 211.485 124.229 212.836L125.685 214.33C127.643 216.335 129.167 218.084 130.311 219.631C133.067 223.394 133.482 226.002 131.98 228.418C129.875 231.787 125.486 231.831 119.274 228.559L118.94 228.388L116.285 232.646L106.499 225.572L109.155 221.315L108.869 221.053C107.677 219.907 106.695 218.797 105.892 217.702C103.271 214.126 102.71 210.78 104.205 207.583L114.969 215.377C114.313 216.773 114.417 218.005 115.297 219.205C115.717 219.775 116.313 220.348 117.098 220.921C118.058 221.617 118.918 222.039 119.636 222.18C120.456 222.354 121.081 222.124 121.442 221.547C121.874 220.86 121.617 220.106 120.988 219.257C120.547 218.651 119.903 217.981 119.206 217.254L116.026 213.961C114.228 212.137 112.812 210.513 111.742 209.058C108.931 205.226 108.515 202.429 110.128 199.841C112.059 196.725 116.345 196.703 122.157 199.751L122.491 199.922L124.803 196.198L134.601 203.269L134.611 203.253Z" fill="white" stroke="#082422" stroke-width="0.464982" stroke-linejoin="round"/>
<path d="M224.909 291.579L221.803 289.933C219.669 288.804 217.807 287.089 216.321 284.804C209.738 274.657 213.173 256.878 223.983 245.085C232.349 235.967 242.691 233.104 249.991 236.986L253.096 238.632C245.797 234.75 235.464 237.6 227.088 246.731C216.277 258.512 212.843 276.303 219.427 286.451C220.914 288.746 222.786 290.448 224.909 291.579Z" fill="#69B8B3" stroke="#082422" stroke-width="0.464982" stroke-linejoin="round"/>
<path d="M250.919 283.493C240.108 295.274 226.011 296.6 219.428 286.452C212.844 276.305 216.28 258.525 227.089 246.733C237.901 234.952 251.998 233.626 258.581 243.773C265.164 253.921 261.729 271.7 250.919 283.493Z" fill="#8CF1F0" stroke="#082422" stroke-width="0.464982" stroke-linejoin="round"/>
<path d="M246.328 270.606C246.065 270.892 245.78 271.181 245.481 271.461L243.178 265.17C243.4 264.983 243.588 264.802 243.754 264.625C244.671 263.632 244.76 262.719 244.426 261.819C244.07 260.854 243.467 260.759 242.911 261.22C242.84 261.278 242.771 261.347 242.711 261.403C242.03 262.15 242.14 263.294 242.323 265.289L242.433 266.433C242.889 271.099 242.308 273.901 240.351 276.034C240.048 276.361 239.71 276.682 239.346 276.984C236.663 279.181 234.134 278.924 232.207 276.068L228.846 278.827L226.61 272.731L229.971 269.972C229.467 266.396 230.46 263.377 232.826 260.795C233.149 260.454 233.483 260.11 233.855 259.784L236.3 266.443C236.069 266.643 235.871 266.837 235.697 267.038C234.732 268.085 234.471 269.073 234.893 270.222C235.255 271.221 235.837 271.607 236.638 270.956C236.709 270.898 236.769 270.842 236.826 270.775C237.383 270.176 237.315 269.358 237.218 268.154L236.981 265.627C236.514 261.032 237.248 258.251 239.194 256.12C239.525 255.754 239.894 255.416 240.288 255.086C242.78 253.047 245.198 253.266 247.044 255.985L250.001 253.558L252.237 259.654L249.21 262.138C249.494 265.291 248.6 268.144 246.33 270.618L246.328 270.606Z" fill="white" stroke="#082422" stroke-width="0.464982" stroke-linejoin="round"/>
<path d="M98.5371 304.667L97.9052 309.789C97.4733 313.306 96.096 316.759 93.7405 319.992C83.2687 334.334 57.0841 338.93 35.2509 330.276C18.3652 323.574 9.0239 310.888 10.5269 298.844L11.1587 293.722C9.65576 305.767 18.9743 318.446 35.8828 325.155C57.7016 333.817 83.9005 329.212 94.3723 314.871C96.7422 311.629 98.0968 308.17 98.5371 304.667Z" fill="#69B8B3" stroke="#082422" stroke-width="0.464982" stroke-linejoin="round"/>
<path d="M73.84 273.226C95.6588 281.888 104.857 300.529 94.385 314.87C83.9132 329.212 57.7286 333.808 35.8954 325.154C14.0766 316.493 4.87866 297.851 15.3505 283.51C25.8223 269.168 52.0069 264.573 73.84 273.226Z" fill="#8CF1F0" stroke="#082422" stroke-width="0.464982" stroke-linejoin="round"/>
<path d="M58.5598 286.265C59.0892 286.477 59.6355 286.717 60.1758 286.98L52.7522 293.433C52.3799 293.226 52.0329 293.062 51.7028 292.927C49.8611 292.19 48.5624 292.545 47.5034 293.474C46.3666 294.468 46.5517 295.345 47.4752 295.866C47.5917 295.933 47.7225 295.992 47.8306 296.045C49.2112 296.588 50.7228 295.838 53.3636 294.543L54.8751 293.793C61.0365 290.725 65.1828 290.054 69.1338 291.623C69.7401 291.867 70.3572 292.162 70.9625 292.503C75.3806 295.034 76.3514 298.637 73.4432 302.774L78.9866 305.94L71.7966 312.199L66.2532 309.032C61.6122 311.596 56.9504 311.815 52.1711 309.92C51.5335 309.656 50.8876 309.378 50.2452 309.039L58.0989 302.2C58.4939 302.412 58.8637 302.582 59.2311 302.715C61.1724 303.49 62.6634 303.331 64.0194 302.151C65.1994 301.132 65.4244 300.131 64.1118 299.373C63.9954 299.306 63.8873 299.254 63.7648 299.21C62.6519 298.76 61.5659 299.281 59.9655 300.044L56.6235 301.692C50.5653 304.738 46.367 305.188 42.4245 303.634C41.7498 303.372 41.0929 303.042 40.4336 302.675C36.3337 300.325 35.3669 296.893 38.1302 292.937L33.2545 290.153L40.4446 283.894L45.4367 286.746C49.6119 284.706 53.9941 284.439 58.5741 286.257L58.5598 286.265Z" fill="white" stroke="#082422" stroke-width="0.464982" stroke-linejoin="round"/>
<path d="M372.54 336.817L370.247 342.019C368.674 345.593 366.125 348.798 362.613 351.462C347.01 363.267 317.926 359.799 297.639 343.736C281.953 331.302 276.127 314.952 281.537 302.723L283.831 297.52C278.42 309.75 284.224 326.086 299.933 338.534C320.201 354.601 349.303 358.064 364.906 346.259C368.436 343.591 370.963 340.372 372.54 336.817Z" fill="#69B8B3" stroke="#082422" stroke-width="0.464982" stroke-linejoin="round"/>
<path d="M356.463 295.796C376.731 311.864 380.515 334.452 364.912 346.257C349.31 358.062 320.226 354.594 299.939 338.531C279.671 322.464 275.887 299.876 291.49 288.071C307.092 276.266 336.177 279.733 356.463 295.796Z" fill="#8CF1F0" stroke="#082422" stroke-width="0.464982" stroke-linejoin="round"/>
<path d="M336.206 304.703C336.697 305.095 337.197 305.521 337.684 305.971L327.803 310.421C327.476 310.084 327.162 309.801 326.856 309.554C325.147 308.192 323.664 308.154 322.252 308.798C320.737 309.485 320.654 310.469 321.462 311.313C321.564 311.42 321.684 311.524 321.781 311.613C323.065 312.625 324.898 312.314 328.095 311.786L329.928 311.475C337.403 310.195 341.99 310.805 345.66 313.714C346.222 314.164 346.78 314.671 347.31 315.223C351.167 319.296 351.047 323.406 346.665 326.847L351.508 331.948L341.935 336.267L337.092 331.166C331.382 332.397 326.394 331.148 321.953 327.631C321.365 327.15 320.772 326.651 320.201 326.09L330.659 321.368C331.008 321.718 331.345 322.015 331.69 322.271C333.492 323.705 335.115 324.012 336.921 323.197C338.49 322.496 339.045 321.512 337.901 320.296C337.799 320.188 337.702 320.099 337.586 320.013C336.555 319.186 335.244 319.39 333.313 319.687L329.264 320.364C321.905 321.654 317.333 320.795 313.667 317.903C313.038 317.413 312.45 316.856 311.871 316.26C308.292 312.478 308.362 308.55 312.534 305.254L308.274 300.768L317.847 296.449L322.208 301.043C327.261 300.217 331.969 301.326 336.224 304.699L336.206 304.703Z" fill="white" stroke="#082422" stroke-width="0.464982" stroke-linejoin="round"/>
<path d="M381.21 99.1084C378.479 101.072 375.088 101.932 371.835 102.806C348.636 108.913 325.943 116.983 304.095 126.895C303.389 127.187 302.683 127.509 302.008 127.862C302.376 127.478 302.714 127.079 303.082 126.711C318.655 109.695 338.249 96.362 359.821 88.138C362.246 87.202 364.67 86.3428 367.14 85.5603C370.531 84.4556 374.106 83.4736 377.62 84.0106C378.111 84.1027 378.617 84.1947 379.093 84.3328C379.568 84.5016 380.059 84.6704 380.504 84.8698C382.867 85.9592 384.816 87.9078 385.322 90.4394C385.982 93.7689 383.956 97.1445 381.21 99.1391V99.1084Z" fill="#ECECEC" stroke="#082422" stroke-width="0.464982" stroke-linecap="round" stroke-linejoin="round"/>
<path d="M448.53 222.237L375.68 207.783L356.408 203.978L346.359 201.984L330.57 188.973C344.686 193.79 360.797 194.251 373.716 186.917C376.692 185.198 379.439 183.127 381.924 180.779L403.451 185.045H403.466L448.545 222.237H448.53Z" fill="#2BF2F1" stroke="#082422" stroke-width="0.464982" stroke-linecap="round" stroke-linejoin="round"/>
<path d="M180.555 130.671L145.68 123.751L100.586 86.5586L167.375 99.7845H167.391C167.437 104.725 168.204 109.62 169.876 114.269C172.116 120.529 175.86 126.006 180.555 130.655V130.671Z" fill="#2BF2F1" stroke="#082422" stroke-width="0.464982" stroke-linecap="round" stroke-linejoin="round"/>
<path d="M125.985 188.713L80.9062 151.552L100.883 86.6035L145.977 123.78L125.985 188.713Z" fill="#2BF2F1" stroke="#082422" stroke-width="0.464982" stroke-linecap="round" stroke-linejoin="round"/>
<path d="M187.118 239.344L142.039 202.167L162.031 137.234L207.11 174.396L187.118 239.344Z" fill="#2BF2F1" stroke="#082422" stroke-width="0.464982" stroke-linecap="round" stroke-linejoin="round"/>
<path d="M289.311 259.6L187.109 239.347L207.102 174.398L220.021 176.961L236.438 180.198L273.492 187.548L292.886 191.399L309.303 194.667L289.311 259.6Z" fill="#2BF2F1" stroke="#082422" stroke-width="0.464982" stroke-linecap="round" stroke-linejoin="round"/>
<path d="M428.522 287.201L326.336 266.948L289.312 259.598L326.351 266.933L346.344 201.984L356.409 203.979L375.68 207.784L448.53 222.238L428.522 287.201Z" fill="#2BF2F1" stroke="#082422" stroke-width="0.464982" stroke-linecap="round" stroke-linejoin="round"/>
<path d="M142.036 202.168L125.695 188.681L145.688 123.748L162.028 137.235L142.036 202.168Z" fill="white" stroke="#082422" stroke-width="0.464982" stroke-linecap="round" stroke-linejoin="round"/>
<path d="M346.344 201.984L309.32 194.634L277.836 168.674C283.421 169.778 289.113 170.07 293.916 167.323C293.946 167.323 293.962 167.293 293.992 167.277C304.549 175.425 315.488 183.173 327.901 187.991C328.776 188.328 329.666 188.651 330.571 188.957L346.359 201.969L346.344 201.984Z" fill="white" stroke="#082422" stroke-width="0.464982" stroke-linecap="round" stroke-linejoin="round"/>
<path d="M208.089 146.333L162.043 137.204L145.688 123.748L180.563 130.668C187.007 137.097 195.277 141.945 203.885 144.999C205.266 145.489 206.677 145.95 208.089 146.349V146.333Z" fill="white" stroke="#082422" stroke-width="0.464982" stroke-linecap="round" stroke-linejoin="round"/>
<path d="M309.319 194.635L292.902 191.382L273.508 187.531L236.439 180.182L220.037 176.944L207.118 174.382L162.039 137.205L208.084 146.319C208.176 146.35 208.284 146.38 208.376 146.411C214.421 148.191 220.635 149.296 226.895 150.063C226.972 150.078 227.079 150.078 227.156 150.109C234.797 150.999 242.53 151.413 250.248 151.751C250.616 152.871 251.076 153.929 251.629 154.957C252.565 156.691 253.777 158.271 255.265 159.652C259.776 163.841 265.975 165.606 271.912 167.217C273.846 167.754 275.84 168.26 277.835 168.659L309.319 194.62V194.635Z" fill="#2BF2F1" stroke="#082422" stroke-width="0.464982" stroke-linecap="round" stroke-linejoin="round"/>
<path d="M403.425 185.047L381.898 180.781C384.415 178.418 386.67 175.749 388.68 172.91H388.696L403.41 185.062L403.425 185.047Z" fill="white" stroke="#082422" stroke-width="0.464982" stroke-linecap="round" stroke-linejoin="round"/>
<path d="M326.351 266.933L289.312 259.599L309.305 194.666L346.344 201.985L326.351 266.933Z" fill="white" stroke="#082422" stroke-width="0.464982" stroke-linecap="round" stroke-linejoin="round"/>
<path d="M293.973 167.308C293.973 167.308 293.927 167.339 293.896 167.354C289.094 170.101 283.402 169.809 277.817 168.704C275.822 168.305 273.827 167.784 271.894 167.262C265.956 165.636 259.758 163.887 255.247 159.698C253.758 158.317 252.562 156.737 251.61 155.003C251.058 153.975 250.598 152.916 250.229 151.796C249.432 149.525 249.063 147.055 249.048 144.615C249.002 139.66 250.429 134.627 253.206 130.561C253.973 129.456 254.848 128.382 255.86 127.416C256.213 127.047 256.612 126.725 256.996 126.388C257.379 126.065 257.763 125.759 258.177 125.467C258.576 125.16 259.021 124.915 259.435 124.669C259.85 124.439 260.264 124.224 260.678 124.04C260.755 123.994 260.832 123.979 260.908 123.948C261.307 123.795 261.737 123.641 262.151 123.518C262.611 123.365 263.087 123.273 263.563 123.181C264.023 123.119 264.514 123.058 264.99 123.058C265.481 123.043 265.972 123.058 266.478 123.135C267.291 123.242 268.12 123.442 268.887 123.718C271.188 124.485 273.336 125.835 275.592 126.833C276.466 127.231 277.433 127.569 278.4 127.738C279.044 127.4 279.704 127.139 280.41 126.955C284.491 125.743 289.201 126.48 292.96 128.735C293.682 129.195 294.418 129.702 295.063 130.239C295.431 130.576 295.784 130.883 296.121 131.236C296.505 131.635 296.888 132.049 297.241 132.464C297.287 132.525 297.364 132.586 297.41 132.678C297.64 132.955 297.84 133.246 298.07 133.538C298.377 133.936 298.638 134.351 298.914 134.765C299.159 135.164 299.405 135.563 299.635 136.008C299.88 136.468 300.126 136.944 300.325 137.435C300.54 137.895 300.724 138.355 300.908 138.816C301.062 139.215 301.2 139.613 301.307 140.012C301.384 140.166 301.43 140.365 301.491 140.565C301.614 140.948 301.722 141.332 301.814 141.716C301.86 141.792 301.86 141.823 301.86 141.884C302.013 142.452 302.136 143.004 302.228 143.572C302.55 145.291 302.703 147.024 302.719 148.727C302.75 150.722 302.55 152.793 302.12 154.788C301.046 159.928 298.407 164.746 293.942 167.339L293.973 167.308Z" fill="white" stroke="#082422" stroke-width="0.464982" stroke-linecap="round" stroke-linejoin="round"/>
<path d="M395.609 160.327C400.15 149.556 402.268 137.956 404.354 126.434C406.242 116.123 407.975 104.861 403.004 95.6243C399.214 88.5357 391.88 83.856 384.025 81.9534C383.58 81.8307 383.135 81.7386 382.674 81.6466C382.168 81.5545 381.662 81.4471 381.14 81.3704C381.125 81.3704 381.079 81.3397 381.048 81.3397C380.526 81.263 380.02 81.2016 379.529 81.1249C378.992 81.0635 378.455 81.0175 377.918 80.9715H377.903C376.491 80.8487 375.095 80.818 373.652 80.8641C369.172 80.9408 364.661 81.6773 360.212 82.782C358.202 83.2576 356.238 83.8253 354.289 84.4391C331.259 91.7271 310.561 106.211 295.678 125.206C294.757 126.342 293.883 127.508 293.023 128.674C293.745 129.134 294.481 129.64 295.125 130.177C295.494 130.515 295.847 130.822 296.184 131.175C296.568 131.574 296.951 131.988 297.304 132.402C297.35 132.464 297.427 132.525 297.473 132.617C297.703 132.893 297.903 133.185 298.133 133.476C298.455 133.86 298.716 134.274 298.977 134.704C299.222 135.103 299.468 135.502 299.698 135.947C299.943 136.407 300.189 136.882 300.388 137.373C300.618 137.818 300.787 138.294 300.971 138.754C301.125 139.153 301.263 139.552 301.37 139.951C301.447 140.105 301.493 140.304 301.554 140.503C301.692 140.856 301.784 141.271 301.877 141.654C301.923 141.731 301.923 141.762 301.923 141.823C302.091 142.375 302.199 142.943 302.291 143.511C302.613 145.229 302.766 146.963 302.782 148.666C302.812 150.661 302.613 152.732 302.183 154.727C301.109 159.867 298.47 164.685 294.005 167.278C304.562 175.425 315.501 183.173 327.914 187.991C328.789 188.329 329.679 188.651 330.584 188.958C344.7 193.775 360.81 194.236 373.729 186.902C376.706 185.183 379.452 183.112 381.938 180.764C384.454 178.401 386.71 175.732 388.72 172.893H388.735C391.481 168.981 393.768 164.715 395.639 160.312L395.609 160.327ZM381.201 99.1072C378.47 101.071 375.079 101.93 371.827 102.805C348.628 108.912 325.935 116.982 304.086 126.894C303.38 127.185 302.674 127.508 301.999 127.861C302.368 127.477 302.705 127.078 303.073 126.71C318.647 109.694 338.24 96.3608 359.813 88.1368C362.237 87.2008 364.661 86.3416 367.132 85.5591C370.522 84.4544 374.097 83.4724 377.611 84.0094C378.102 84.1015 378.608 84.1936 379.084 84.3316C379.56 84.5004 380.051 84.6692 380.496 84.8687C380.618 84.9454 380.787 85.0068 380.91 85.0835C381.217 85.2369 381.493 85.3903 381.769 85.5898C383.534 86.7405 384.899 88.3823 385.313 90.4383C385.973 93.7678 383.948 97.1433 381.201 99.1379V99.1072Z" fill="white" stroke="#082422" stroke-width="0.464982" stroke-linecap="round" stroke-linejoin="round"/>
<path d="M368.913 68.9262C365.998 73.5752 363.113 78.1782 360.198 82.7812C358.188 83.2568 356.224 83.8245 354.276 84.4382C331.245 91.7263 310.547 106.21 295.664 125.205C294.744 126.341 293.869 127.507 293.01 128.673C289.251 126.417 284.54 125.681 280.459 126.893L280.352 126.464C280.597 125.083 280.843 123.686 281.103 122.321C287.701 88.3354 305.116 56.5288 330.309 32.7773C330.938 42.2135 331.598 51.6189 332.243 61.0397C332.381 63.0497 332.657 65.2744 334.207 66.5019C335.373 67.4072 336.938 67.4992 338.395 67.5913C348.583 68.0516 358.771 68.4965 368.928 68.9415L368.913 68.9262Z" fill="white" stroke="#082422" stroke-width="0.464982" stroke-linecap="round" stroke-linejoin="round"/>
<path d="M253.21 130.514C253.977 129.409 254.851 128.335 255.864 127.369C256.217 127 256.616 126.678 256.999 126.341C257.368 126.018 257.767 125.712 258.181 125.42C258.58 125.113 259.025 124.868 259.439 124.622C259.853 124.392 260.268 124.177 260.682 123.993C260.759 123.947 260.835 123.932 260.912 123.901C261.311 123.748 261.725 123.579 262.155 123.471C262.615 123.318 263.091 123.226 263.566 123.134C264.027 123.072 264.518 123.011 264.993 123.011C265.484 122.996 265.975 123.011 266.482 123.088C267.295 123.195 268.123 123.395 268.891 123.671C269.013 122.443 269.105 121.216 269.167 119.988H269.151C270.624 95.3472 264.349 70.2916 251.353 49.2866C247.471 43.0265 242.945 37.0119 237.253 32.4089C237.191 32.3783 237.161 32.3322 237.099 32.2862C237.023 32.2095 236.946 32.1635 236.854 32.1174L236.746 32.0561C236.654 31.9793 236.562 31.8873 236.455 31.8259C235.396 30.982 234.276 30.1842 233.11 29.4477C232.113 28.834 231.1 28.2816 230.057 27.7446C222.937 24.231 214.499 23.1109 207.118 25.9494C197.345 29.7392 191.33 39.3902 186.021 48.4427C180.099 58.5232 174.146 68.7265 170.555 79.8658C168.484 86.2793 167.257 93.0917 167.349 99.7967H167.364C167.41 104.737 168.177 109.632 169.85 114.281C172.09 120.541 175.833 126.018 180.528 130.667C186.973 137.096 195.243 141.945 203.85 144.998C205.231 145.489 206.643 145.949 208.054 146.348C208.146 146.379 208.254 146.41 208.346 146.44L226.865 150.092C226.865 150.092 227.049 150.107 227.126 150.138C234.767 151.028 242.5 151.442 250.218 151.78C249.42 149.509 249.052 147.039 249.036 144.599C248.99 139.643 250.417 134.611 253.194 130.545L253.21 130.514ZM226.144 51.7415C224.211 48.9337 222.232 46.0798 221.418 42.8117C220.621 39.5129 221.311 35.631 223.965 33.5444C226.773 31.3656 230.993 31.7799 234 33.6824C234.23 33.8205 234.476 33.9893 234.721 34.1581C234.798 34.2348 234.874 34.2808 234.951 34.3422C235.089 34.4496 235.227 34.557 235.381 34.6798C237.682 36.567 239.401 39.1447 240.966 41.707C254.637 64.0315 262.232 90.0077 262.753 116.183C252.427 93.7054 240.153 72.1021 226.144 51.7568V51.7415Z" fill="white" stroke="#082422" stroke-width="0.464982" stroke-linecap="round" stroke-linejoin="round"/>
<path d="M262.749 116.186C252.423 93.7079 240.148 72.1045 226.139 51.7593C224.206 48.9515 222.227 46.0976 221.414 42.8295C220.616 39.5307 221.306 35.6489 223.961 33.5622C226.769 31.3834 230.988 31.7977 233.995 33.7003C234.225 33.8383 234.471 34.0071 234.716 34.1759C234.931 34.36 235.146 34.5135 235.376 34.6976C237.678 36.5848 239.396 39.1625 240.961 41.7248C254.632 64.0493 262.227 90.0255 262.749 116.201V116.186Z" fill="#ECECEC" stroke="#082422" stroke-width="0.464982" stroke-linecap="round" stroke-linejoin="round"/>
<path d="M280.343 126.48C280.589 125.099 280.834 123.703 281.095 122.338L275.832 121.31C280.788 100.32 285.744 79.3458 290.746 58.3868C292.357 51.6051 293.968 44.716 293.922 37.7501C293.861 30.7689 291.989 23.5882 287.37 18.3715C280.021 10.0861 267.225 8.58249 256.622 11.8046C246.711 14.8272 238.256 21.2407 230.094 27.7463C231.137 28.2679 232.15 28.8356 233.147 29.4494C234.298 30.1859 235.433 30.9837 236.492 31.8276C236.599 31.889 236.691 31.9657 236.783 32.0577L236.891 32.1191C236.983 32.1651 237.06 32.2112 237.136 32.2879C237.198 32.3186 237.228 32.3646 237.29 32.4106C242.982 37.0136 247.524 43.0282 251.39 49.2883C264.386 70.3086 270.661 95.3488 269.188 119.975H269.204C269.127 121.218 269.05 122.445 268.928 123.673C271.229 124.44 273.377 125.79 275.633 126.787C276.507 127.186 277.474 127.524 278.44 127.693C279.085 127.355 279.745 127.094 280.45 126.91L280.343 126.48ZM271.981 31.8583C271.858 27.6235 272.457 22.2227 276.507 20.9032C279.484 19.9212 282.783 22.0846 284.179 24.8924C285.56 27.7156 285.529 31.0144 285.437 34.1444C284.486 62.0539 280.819 89.8713 274.513 117.106C273.669 88.6899 272.84 60.2741 271.981 31.8583Z" fill="white" stroke="#082422" stroke-width="0.464982" stroke-linecap="round" stroke-linejoin="round"/>
<path d="M274.491 117.121C273.647 88.7049 272.819 60.2891 271.96 31.8733C271.837 27.6386 272.435 22.2377 276.486 20.9182C279.462 19.9362 282.761 22.0996 284.158 24.9074C285.538 27.7306 285.508 31.0294 285.416 34.1595C284.464 62.0689 280.797 89.8863 274.491 117.121Z" fill="#ECECEC" stroke="#082422" stroke-width="0.464982" stroke-linecap="round" stroke-linejoin="round"/>
</g>
<defs>
<clipPath id="clip0_14997_18372">
<rect width="472.421" height="619.355" fill="white"/>
</clipPath>
</defs>
</svg>
