<svg width="444" height="708" viewBox="0 0 444 708" fill="none" xmlns="http://www.w3.org/2000/svg">
<g clip-path="url(#clip0_14997_18373)">
<path d="M404.285 434.045L332.585 456.507V456.538L303.712 465.557L267.264 476.982L251.105 482.057L232.012 488.034L195.564 499.459L179.389 504.535L166.676 508.524L108.651 497.348L87.6024 493.296L29.5312 482.12L166.583 439.168L267.14 407.656L325.18 418.817L346.229 422.869L404.285 434.045Z" fill="#274B4B" stroke="#082422" stroke-width="0.253958" stroke-linejoin="round"/>
<path d="M364.708 398.42L369.939 402.285C372.733 404.35 375.046 407.19 376.676 410.776C383.91 426.656 375.233 451.322 357.288 465.851C343.395 477.105 328.027 478.984 318.434 471.89L313.203 468.025C322.796 475.119 338.164 473.24 352.057 461.986C370.001 447.457 378.679 422.791 371.445 406.911C369.815 403.325 367.502 400.484 364.708 398.42Z" fill="#69B8B3" stroke="#082422" stroke-width="0.253958" stroke-linejoin="round"/>
<path d="M325.853 404.458C343.797 389.929 364.21 391.031 371.444 406.911C378.677 422.791 370 447.457 352.055 461.986C334.111 476.516 313.698 475.413 306.465 459.518C299.231 443.638 307.908 418.972 325.853 404.443V404.458Z" fill="#8CF1F0" stroke="#082422" stroke-width="0.253958" stroke-linejoin="round"/>
<path d="M332.453 418.057L342.636 413.602L343.304 417.855C348.333 416.784 351.546 418.026 352.571 422.062L342.046 426.656C341.689 424.638 340.416 424.499 338.631 425.275C337.001 426.004 336.365 426.936 336.473 427.712C336.675 428.969 338.352 428.597 341.441 427.945L343.071 427.588C348.876 426.299 354.123 427.898 354.542 430.599C355.132 434.371 352.54 438.314 346.998 441.76L347.743 446.495L337.56 450.95L336.815 446.215C330.839 447.767 327.532 446.231 326.508 441.915L337.653 437.041C338.103 439.059 339.206 439.602 341.487 438.593C343.179 437.848 344.204 436.886 344.033 435.768C343.862 434.713 342.667 434.946 340.773 435.334L337.156 436.11C329.442 437.848 326.492 436.622 325.887 432.741C325.344 429.233 327.781 425.477 333.074 422.17L332.422 418.01L332.453 418.057Z" fill="white" stroke="#082422" stroke-width="0.253958" stroke-linejoin="round"/>
<path d="M239.922 387.025C239.922 387.025 255.507 392.629 259.496 396.199C263.486 399.77 259.45 455.745 259.45 455.745C259.45 455.745 250.167 452.485 247.823 445.329C245.479 438.173 241.94 405.296 241.94 405.296L239.937 387.01L239.922 387.025Z" fill="#F1CC9B" stroke="#082422" stroke-width="0.253958" stroke-miterlimit="10" stroke-linecap="round"/>
<path opacity="0.25" d="M242.299 407.426C247.789 416.33 254.754 427.612 260.483 436.451C260.282 441.39 259.949 446.719 259.667 450.817C259.525 452.872 259.396 454.617 259.303 455.849C259.256 456.464 259.219 456.952 259.192 457.285C259.183 457.41 259.173 457.513 259.167 457.593C259.108 457.557 259.035 457.512 258.949 457.458C258.697 457.3 258.333 457.065 257.889 456.762C257.001 456.154 255.793 455.269 254.512 454.162C251.946 451.945 249.103 448.847 247.942 445.303C246.93 442.204 245.686 434.255 244.603 426.238C243.577 418.651 242.699 411.02 242.299 407.426Z" fill="#082422" stroke="#082422" stroke-width="0.253958"/>
<path d="M186.851 368.908C186.851 368.908 211.998 369.405 223.205 371.966C234.397 374.512 242.702 377.679 245.232 382.103C247.452 385.983 251.317 423.471 252.218 432.49C252.326 433.577 251.488 434.508 250.401 434.523C246.909 434.57 239.908 434.182 237.812 430.317C235.003 425.117 229.989 402.158 229.989 402.158L197.034 392.798L177.211 377.166L186.866 368.908H186.851Z" fill="#F1CC9B" stroke="#082422" stroke-width="0.253958" stroke-miterlimit="10" stroke-linecap="round"/>
<mask id="mask0_14997_18373" style="mask-type:luminance" maskUnits="userSpaceOnUse" x="177" y="368" width="76" height="67">
<path d="M186.913 369.037C186.961 369.038 187.032 369.039 187.125 369.041C187.312 369.045 187.588 369.052 187.942 369.062C188.651 369.08 189.677 369.109 190.942 369.152C193.474 369.239 196.967 369.381 200.81 369.604C208.498 370.048 217.577 370.812 223.169 372.09C228.762 373.362 233.627 374.788 237.408 376.446C241.194 378.106 243.87 379.991 245.114 382.166C245.381 382.632 245.68 383.623 246.001 385.04C246.32 386.451 246.656 388.266 247 390.365C247.688 394.564 248.408 399.893 249.086 405.385C250.442 416.368 251.633 427.994 252.083 432.503C252.184 433.515 251.404 434.382 250.392 434.396C248.649 434.42 246.038 434.334 243.604 433.764C241.164 433.191 238.937 432.139 237.916 430.256H237.915C237.22 428.97 236.406 426.542 235.574 423.611C234.743 420.684 233.899 417.267 233.142 414.011C232.384 410.755 231.714 407.661 231.233 405.382C230.993 404.242 230.801 403.306 230.668 402.654C230.602 402.329 230.55 402.074 230.516 401.901C230.498 401.815 230.484 401.749 230.476 401.704C230.471 401.682 230.468 401.665 230.466 401.653C230.465 401.648 230.464 401.643 230.464 401.641C230.464 401.639 230.463 401.638 230.463 401.638V401.637L230.447 401.56L230.371 401.539L197.083 392.681L177.403 377.162L186.902 369.036C186.906 369.036 186.91 369.037 186.913 369.037Z" fill="white" stroke="white" stroke-width="0.253958"/>
</mask>
<g mask="url(#mask0_14997_18373)">
<path opacity="0.25" d="M212.793 297.9C214.026 296.546 215.414 296.161 216.789 296.412C218.173 296.665 219.558 297.564 220.759 298.811C221.959 300.056 222.966 301.637 223.598 303.231C224.23 304.828 224.481 306.424 224.187 307.705C223.787 309.427 222.583 312.193 220.891 315.484L220.82 315.62L220.967 315.664C223.607 316.452 226.198 317.82 227.758 320.236C228.269 321.029 228.726 322.213 229.126 323.718C229.526 325.221 229.868 327.037 230.154 329.091C230.727 333.198 231.078 338.246 231.229 343.622C231.529 354.374 231.029 366.425 229.912 374.854C227.827 390.696 235.495 406.622 236.475 408.596L236.589 408.54L236.475 408.597L236.48 408.606C242.566 418.48 251.477 432.56 257.702 442.107C268.005 457.904 274.072 472.608 273.778 484.754C273.43 499.075 268.015 511.112 264.963 517.02L264.387 518.118C263.416 519.95 262.852 521.971 262.742 524.039L254.251 682.371C254.175 683.669 253.775 684.762 252.977 685.553C252.178 686.343 250.966 686.848 249.233 686.94C243.923 687.219 230.747 687.127 213.896 680.197C194.73 672.316 180.677 661.926 173.102 655.915L171.674 654.773C169.686 653.177 169.764 650.642 170.06 648.025C170.944 640.318 175.066 607.947 178.989 576.21C180.951 560.342 182.862 544.632 184.296 532.244C185.729 519.862 186.685 510.788 186.731 508.199C186.743 507.534 186.565 506.624 186.226 505.511C185.886 504.395 185.382 503.063 184.737 501.548C183.447 498.518 181.589 494.748 179.341 490.489C174.844 481.971 168.779 471.49 162.551 461.059C150.091 440.188 136.988 419.521 134.465 415.104C131.977 410.749 133.414 405.34 135.985 400.204C137.268 397.641 138.829 395.157 140.307 392.922C141.782 390.691 143.182 388.7 144.134 387.138C148.704 379.65 156.158 368.044 163.286 357.418C170.417 346.788 177.214 337.15 180.474 333.588C185.519 328.077 203.945 307.631 212.776 297.915L212.788 297.904H212.789L212.793 297.9ZM207.453 338.589C204.661 343.072 202.423 346.568 201.662 347.81C200.688 349.377 198.115 354.425 195.319 360.04C193.92 362.85 192.464 365.804 191.122 368.54L187.608 375.73C186.466 378.047 186.99 380.839 188.877 382.615V382.616L194.854 388.22L194.891 388.254H195.067L195.094 388.162C198.509 376.117 202.452 362.035 204.129 355.108H204.13C204.934 351.765 205.841 347.602 206.756 343.221L207.67 338.79C207.678 338.765 207.684 338.741 207.686 338.723C207.688 338.696 207.688 338.67 207.688 338.655V338.212L207.453 338.589Z" fill="#082422" stroke="#082422" stroke-width="0.253958"/>
</g>
<path d="M248.888 415.098C249.35 415.111 249.834 415.152 250.354 415.231L251.942 429.633V429.634C251.98 429.952 251.737 430.236 251.432 430.236L251.424 430.237L247.293 430.496L241.213 420.87C241.214 420.866 241.215 420.861 241.216 420.856C241.225 420.815 241.241 420.753 241.262 420.674C241.304 420.515 241.372 420.288 241.474 420.015C241.677 419.468 242.013 418.74 242.545 418.013C243.606 416.561 245.448 415.108 248.591 415.107H248.897L248.888 415.098Z" stroke="#082422" stroke-width="0.253958"/>
<path d="M204.843 287.819C196.01 297.536 175.567 327.387 170.522 332.897C163.987 340.038 146.43 366.287 137.287 381.282C133.484 387.522 126.716 399.723 131.761 408.556C136.806 417.388 179.665 488.297 179.463 498.62C179.277 508.942 163.272 628.391 161.503 643.79C161.208 646.398 161.115 649.005 163.164 650.651C170.32 656.41 180.922 664.063 205.122 672.088C222.446 677.832 236.059 677.335 241.384 677.055C244.892 676.869 246.366 675.006 246.522 672.367L251.396 512.746C251.505 510.696 252.063 508.694 253.026 506.878C255.913 501.46 260.834 487.629 261.191 472.324C261.486 460.138 260.244 447.829 249.937 432.026C241.322 418.801 231.822 406.786 227.537 399.366C226.699 397.907 221.018 387.041 219.372 386.731L191.928 381.437C190.857 381.236 189.863 380.723 189.072 379.978L181.108 372.527C179.261 370.789 178.749 368.057 179.866 365.79C183.638 358.044 191.974 341 193.915 337.88C196.429 333.829 214.669 305.546 216.454 297.738C217.665 292.476 209.888 282.277 204.843 287.819Z" fill="#F1CC9B" stroke="#082422" stroke-width="0.253958" stroke-miterlimit="10" stroke-linecap="round"/>
<path d="M177.391 375.43C214.459 338.004 187.915 278.055 224.984 240.629C248.594 248.98 272.189 257.332 295.799 265.683C258.731 303.109 285.275 363.058 248.206 400.484C224.596 392.132 201.001 383.781 177.391 375.43Z" fill="#60D06F" stroke="#082422" stroke-width="0.253958" stroke-miterlimit="10"/>
<path d="M237.646 256.508C234.169 261.491 227.758 264.254 222.216 262.298C221.688 262.111 221.021 262.344 220.772 262.872C206.817 292.723 213.57 329.884 199.553 359.704C199.304 360.232 199.584 360.791 200.111 360.977C205.607 362.917 208.121 368.847 204.644 373.83C204.209 374.451 204.349 375.165 205.032 375.413C214.455 378.751 223.877 382.072 233.299 385.41C233.998 385.658 234.914 385.301 235.333 384.68C238.81 379.697 245.252 376.95 250.794 378.906C251.399 379.123 252.16 378.859 252.439 378.269C266.363 348.512 259.688 311.459 273.535 281.686C273.814 281.096 273.504 280.444 272.883 280.227C267.388 278.286 264.857 272.357 268.335 267.374C268.8 266.691 268.676 265.884 267.915 265.62C258.571 262.313 249.241 259.007 239.897 255.701C239.136 255.437 238.112 255.825 237.646 256.508Z" fill="#80E58A" stroke="#082422" stroke-width="0.253958" stroke-miterlimit="10"/>
<path d="M244.373 279.016C246.623 279.808 248.346 281.655 249.666 284.356C250.97 287.057 251.87 290.612 252.507 294.849C253.702 303.294 254.121 314.517 252.91 326.33C251.699 338.143 248.455 348.077 243.736 354.426C241.408 357.609 238.8 359.921 236.208 361.256C233.615 362.576 231.054 362.902 228.819 362.11C226.568 361.318 224.845 359.471 223.525 356.77C222.221 354.069 221.321 350.515 220.685 346.277C219.489 337.832 219.07 326.609 220.281 314.796C221.492 302.983 224.736 293.049 229.455 286.7C231.783 283.518 234.391 281.205 236.984 279.87C239.576 278.55 242.137 278.224 244.373 279.016Z" fill="#60D06F" stroke="#082422" stroke-width="0.253958" stroke-miterlimit="10"/>
<path opacity="0.25" d="M216.07 252.057C214.087 273.991 223.073 294.472 230.785 315.074C238.555 335.83 245.035 356.716 237.816 379.413C237.797 379.416 237.778 379.419 237.759 379.422C237.736 379.425 237.712 379.428 237.689 379.431C237.666 379.434 237.642 379.437 237.619 379.44L237.48 379.458C237.457 379.461 237.434 379.465 237.411 379.468C237.388 379.471 237.364 379.474 237.341 379.477C237.318 379.48 237.295 379.483 237.271 379.486C237.248 379.489 237.225 379.492 237.202 379.495C237.179 379.498 237.156 379.502 237.133 379.505C237.11 379.508 237.086 379.511 237.062 379.514C237.039 379.517 237.016 379.519 236.993 379.522C236.97 379.526 236.947 379.529 236.924 379.532C236.901 379.535 236.878 379.538 236.854 379.541C236.831 379.544 236.807 379.548 236.784 379.551L236.646 379.568C236.622 379.571 236.599 379.575 236.576 379.578C236.553 379.581 236.529 379.584 236.506 379.587C236.483 379.59 236.46 379.594 236.437 379.597L236.298 379.614C236.275 379.617 236.251 379.621 236.228 379.624C236.204 379.627 236.181 379.63 236.158 379.633C236.135 379.636 236.112 379.64 236.089 379.643C236.066 379.646 236.043 379.648 236.02 379.651C235.996 379.654 235.972 379.657 235.949 379.66C235.926 379.663 235.903 379.667 235.88 379.67C235.857 379.673 235.834 379.676 235.811 379.679C235.787 379.682 235.764 379.685 235.741 379.688C235.718 379.692 235.694 379.694 235.671 379.697C235.648 379.7 235.625 379.703 235.602 379.706C235.578 379.709 235.555 379.713 235.532 379.716C235.509 379.719 235.486 379.722 235.463 379.725C235.44 379.728 235.416 379.731 235.393 379.734L235.254 379.752C235.231 379.755 235.208 379.759 235.185 379.762C235.161 379.765 235.137 379.767 235.114 379.771C235.091 379.774 235.068 379.777 235.045 379.78C235.022 379.783 234.999 379.786 234.976 379.789C234.953 379.792 234.929 379.796 234.906 379.799C234.883 379.802 234.859 379.805 234.836 379.808C234.813 379.811 234.79 379.813 234.767 379.816C234.743 379.819 234.72 379.823 234.697 379.826C234.674 379.829 234.651 379.832 234.628 379.835C234.605 379.838 234.581 379.842 234.558 379.845L234.419 379.862C234.396 379.865 234.373 379.869 234.35 379.872C234.326 379.875 234.302 379.878 234.279 379.881C234.256 379.884 234.233 379.888 234.21 379.891L234.071 379.908C234.048 379.911 234.024 379.915 234.001 379.918C233.978 379.921 233.955 379.924 233.932 379.927C233.909 379.93 233.885 379.933 233.862 379.937C233.839 379.94 233.816 379.942 233.793 379.945C233.77 379.948 233.746 379.951 233.723 379.954C233.7 379.957 233.676 379.961 233.653 379.964C233.63 379.967 233.607 379.97 233.584 379.973C233.561 379.976 233.538 379.979 233.515 379.982C233.491 379.985 233.468 379.988 233.444 379.991C233.421 379.994 233.398 379.997 233.375 380C233.352 380.003 233.329 380.007 233.306 380.01C233.283 380.013 233.259 380.016 233.236 380.019C233.213 380.022 233.189 380.025 233.166 380.028C233.143 380.031 233.12 380.034 233.097 380.037C233.074 380.04 233.05 380.044 233.027 380.047C233.004 380.05 232.981 380.053 232.958 380.056C232.935 380.059 232.911 380.061 232.888 380.064C232.865 380.068 232.841 380.071 232.818 380.074C232.795 380.077 232.772 380.08 232.749 380.083C232.726 380.086 232.703 380.09 232.68 380.093C232.656 380.096 232.633 380.099 232.609 380.102C232.586 380.105 232.563 380.107 232.54 380.11C232.517 380.113 232.494 380.117 232.471 380.12C232.448 380.123 232.424 380.126 232.401 380.129C232.378 380.132 232.354 380.136 232.331 380.139L232.192 380.156C232.169 380.159 232.146 380.163 232.123 380.166C232.1 380.169 232.076 380.172 232.053 380.175C232.03 380.178 232.007 380.182 231.983 380.185L231.845 380.202C231.822 380.205 231.798 380.209 231.774 380.212C231.751 380.215 231.728 380.218 231.705 380.221C231.682 380.224 231.659 380.227 231.636 380.23C231.613 380.234 231.589 380.236 231.566 380.239C231.543 380.242 231.519 380.245 231.496 380.248C231.473 380.251 231.45 380.255 231.427 380.258C231.404 380.261 231.381 380.264 231.357 380.267C231.334 380.27 231.311 380.273 231.288 380.276C231.265 380.279 231.241 380.282 231.218 380.285C231.195 380.288 231.172 380.291 231.148 380.294C231.125 380.297 231.102 380.301 231.079 380.304C231.056 380.307 231.033 380.309 231.01 380.312C230.987 380.316 230.963 380.319 230.939 380.322C230.916 380.325 230.893 380.328 230.87 380.331C230.847 380.334 230.824 380.338 230.801 380.341C230.778 380.344 230.754 380.347 230.731 380.35C230.708 380.353 230.684 380.355 230.661 380.358C230.638 380.361 230.615 380.365 230.592 380.368C230.569 380.371 230.546 380.374 230.522 380.377C230.499 380.38 230.476 380.384 230.453 380.387C230.43 380.39 230.406 380.392 230.383 380.396C230.36 380.399 230.337 380.401 230.313 380.404C230.29 380.407 230.267 380.411 230.244 380.414C230.221 380.417 230.198 380.42 230.175 380.423C230.152 380.426 230.128 380.43 230.104 380.433L229.966 380.45C229.943 380.453 229.92 380.457 229.896 380.46C229.873 380.463 229.849 380.466 229.826 380.469C229.803 380.472 229.78 380.475 229.757 380.479L229.618 380.496C229.595 380.499 229.571 380.503 229.548 380.506C229.525 380.509 229.502 380.512 229.479 380.515C229.455 380.518 229.432 380.521 229.409 380.524C229.386 380.527 229.363 380.53 229.34 380.533C229.317 380.536 229.293 380.539 229.27 380.542C229.246 380.545 229.223 380.549 229.2 380.552C229.177 380.555 229.154 380.557 229.131 380.561C229.108 380.564 229.085 380.567 229.062 380.57C229.038 380.573 229.014 380.576 228.991 380.579C228.968 380.582 228.945 380.586 228.922 380.589L228.783 380.606C228.76 380.61 228.736 380.613 228.713 380.616C228.69 380.619 228.667 380.622 228.644 380.625C228.62 380.628 228.597 380.632 228.574 380.635C228.551 380.638 228.528 380.641 228.505 380.644C228.482 380.647 228.458 380.649 228.435 380.652C228.411 380.655 228.388 380.659 228.365 380.662C228.342 380.665 228.319 380.668 228.296 380.671C228.273 380.674 228.25 380.678 228.227 380.681C228.203 380.684 228.179 380.686 228.156 380.689C228.133 380.693 228.11 380.695 228.087 380.698C228.064 380.701 228.041 380.705 228.018 380.708C227.995 380.711 227.971 380.714 227.948 380.717C227.925 380.72 227.901 380.724 227.878 380.727L227.739 380.744C227.716 380.747 227.693 380.751 227.67 380.754C227.647 380.757 227.623 380.76 227.6 380.763C227.577 380.766 227.553 380.769 227.53 380.772L227.392 380.79C227.368 380.793 227.344 380.797 227.321 380.8C227.298 380.803 227.275 380.806 227.252 380.809C227.229 380.812 227.206 380.815 227.183 380.818C227.16 380.821 227.136 380.824 227.113 380.827C227.09 380.83 227.066 380.833 227.043 380.836C227.02 380.839 226.997 380.843 226.974 380.846C226.951 380.849 226.927 380.851 226.904 380.854C226.881 380.858 226.858 380.861 226.835 380.864C226.812 380.867 226.788 380.87 226.765 380.873C226.742 380.876 226.718 380.88 226.695 380.883L226.557 380.9C226.533 380.903 226.51 380.907 226.486 380.91C226.463 380.913 226.44 380.916 226.417 380.919C226.394 380.922 226.371 380.926 226.348 380.929C226.325 380.932 226.301 380.934 226.278 380.938C226.255 380.941 226.231 380.943 226.208 380.946C226.185 380.949 226.162 380.953 226.139 380.956C226.116 380.959 226.092 380.962 226.069 380.965C226.046 380.968 226.023 380.972 226 380.975C225.977 380.978 225.953 380.98 225.93 380.983C225.907 380.986 225.883 380.989 225.86 380.992C225.837 380.995 225.814 380.999 225.791 381.002C225.768 381.005 225.745 381.008 225.722 381.011C225.698 381.014 225.675 381.017 225.651 381.021L225.513 381.038C225.49 381.041 225.466 381.045 225.443 381.048C225.42 381.051 225.396 381.054 225.373 381.057C225.35 381.06 225.327 381.063 225.304 381.066L225.165 381.084C225.142 381.087 225.118 381.091 225.095 381.094C225.072 381.097 225.048 381.099 225.025 381.103C225.002 381.106 224.979 381.109 224.956 381.112C224.933 381.115 224.91 381.118 224.887 381.121C224.864 381.124 224.84 381.128 224.816 381.131L224.678 381.148C224.655 381.151 224.631 381.155 224.608 381.158C224.585 381.161 224.561 381.164 224.538 381.167C224.515 381.17 224.492 381.174 224.469 381.177L224.33 381.194C224.307 381.197 224.283 381.201 224.26 381.204C224.237 381.207 224.214 381.21 224.19 381.213C224.167 381.216 224.144 381.22 224.121 381.223C224.098 381.226 224.075 381.228 224.052 381.231C224.029 381.235 224.005 381.237 223.981 381.24C223.958 381.243 223.935 381.247 223.912 381.25C223.889 381.253 223.866 381.256 223.843 381.259C223.82 381.262 223.797 381.266 223.773 381.269C223.75 381.272 223.726 381.274 223.703 381.277C223.68 381.28 223.657 381.283 223.634 381.286C223.611 381.289 223.588 381.293 223.564 381.296C223.541 381.299 223.518 381.302 223.495 381.305C223.472 381.308 223.448 381.311 223.425 381.314L223.286 381.332C223.263 381.335 223.24 381.339 223.217 381.342C223.194 381.345 223.17 381.348 223.146 381.351C223.123 381.354 223.1 381.357 223.077 381.36C223.054 381.363 223.031 381.366 223.008 381.369C222.985 381.372 222.962 381.376 222.938 381.379C222.915 381.382 222.891 381.385 222.868 381.388C222.845 381.391 222.822 381.393 222.799 381.396C222.776 381.4 222.753 381.403 222.729 381.406C222.706 381.409 222.683 381.412 222.66 381.415C222.637 381.418 222.613 381.422 222.59 381.425L222.451 381.442C222.428 381.445 222.405 381.449 222.382 381.452C222.359 381.455 222.335 381.458 222.312 381.461C222.288 381.464 222.265 381.468 222.242 381.471L222.104 381.488C222.08 381.491 222.056 381.495 222.033 381.498C222.01 381.501 221.987 381.504 221.964 381.507C221.941 381.51 221.918 381.514 221.895 381.517C221.871 381.52 221.848 381.522 221.825 381.525C221.802 381.528 221.778 381.531 221.755 381.534C221.732 381.537 221.709 381.541 221.686 381.544C221.662 381.547 221.639 381.55 221.616 381.553C221.593 381.556 221.57 381.559 221.547 381.562C221.524 381.566 221.5 381.568 221.477 381.571C221.453 381.574 221.43 381.577 221.407 381.58C221.384 381.583 221.361 381.587 221.338 381.59C221.315 381.593 221.292 381.596 221.269 381.599C221.245 381.602 221.221 381.605 221.198 381.608L221.06 381.626C221.037 381.629 221.013 381.633 220.99 381.636C220.967 381.639 220.943 381.641 220.92 381.645C220.897 381.648 220.874 381.651 220.851 381.654C220.827 381.657 220.804 381.66 220.781 381.663C220.758 381.666 220.735 381.67 220.712 381.673C220.689 381.676 220.665 381.679 220.642 381.682C220.619 381.685 220.595 381.687 220.572 381.69C220.549 381.693 220.526 381.697 220.503 381.7C220.48 381.703 220.457 381.706 220.434 381.709C220.41 381.712 220.386 381.716 220.363 381.719L220.225 381.736C220.202 381.739 220.178 381.743 220.155 381.746C220.132 381.749 220.108 381.752 220.085 381.755C220.062 381.758 220.039 381.762 220.016 381.765L219.877 381.782C219.854 381.785 219.83 381.789 219.807 381.792C219.784 381.795 219.76 381.798 219.737 381.801C219.714 381.804 219.691 381.807 219.668 381.811C219.645 381.814 219.622 381.816 219.599 381.819C219.575 381.822 219.552 381.825 219.528 381.828C219.505 381.831 219.482 381.835 219.459 381.838C219.436 381.841 219.413 381.844 219.39 381.847C219.367 381.85 219.343 381.853 219.32 381.856C219.297 381.86 219.273 381.862 219.25 381.865C219.227 381.868 219.204 381.871 219.181 381.874C219.158 381.877 219.134 381.881 219.111 381.884C219.088 381.887 219.065 381.89 219.042 381.893C219.019 381.896 218.995 381.899 218.972 381.902C218.949 381.905 218.925 381.908 218.902 381.911C218.879 381.914 218.856 381.918 218.833 381.921C218.81 381.924 218.787 381.927 218.764 381.93C218.74 381.933 218.717 381.935 218.693 381.938C218.67 381.942 218.647 381.945 218.624 381.948C218.601 381.951 218.578 381.954 218.555 381.957C218.532 381.96 218.508 381.964 218.485 381.967C218.462 381.97 218.438 381.973 218.415 381.976C218.392 381.979 218.369 381.981 218.346 381.984C218.323 381.987 218.3 381.991 218.276 381.994C218.253 381.997 218.23 382 218.207 382.003C218.184 382.006 218.16 382.01 218.137 382.013L217.998 382.03C217.975 382.033 217.952 382.037 217.929 382.04C217.906 382.043 217.882 382.046 217.858 382.049C217.835 382.052 217.812 382.056 217.789 382.059L217.65 382.076C217.627 382.079 217.603 382.083 217.58 382.086C217.557 382.089 217.534 382.092 217.511 382.095C217.488 382.098 217.465 382.101 217.441 382.104C217.418 382.108 217.395 382.11 217.372 382.113C217.349 382.116 217.325 382.119 217.302 382.122C217.279 382.125 217.256 382.129 217.232 382.132C217.209 382.135 217.186 382.138 217.163 382.141C217.14 382.144 217.117 382.147 217.094 382.15C217.071 382.153 217.047 382.156 217.023 382.159C217 382.162 216.977 382.165 216.954 382.168C216.931 382.171 216.908 382.175 216.885 382.178C216.862 382.181 216.838 382.183 216.815 382.187C216.792 382.19 216.768 382.193 216.745 382.196C216.722 382.199 216.699 382.202 216.676 382.205C216.653 382.208 216.63 382.212 216.606 382.215C216.583 382.218 216.56 382.221 216.537 382.224C216.514 382.227 216.49 382.229 216.467 382.232C216.444 382.235 216.421 382.239 216.397 382.242C216.374 382.245 216.351 382.248 216.328 382.251C216.305 382.254 216.282 382.258 216.259 382.261C216.236 382.264 216.212 382.266 216.188 382.27C216.165 382.273 216.142 382.275 216.119 382.278C216.096 382.281 216.073 382.285 216.05 382.288C216.027 382.291 216.004 382.294 215.98 382.297C215.957 382.3 215.933 382.304 215.91 382.307L215.771 382.324C215.748 382.327 215.725 382.331 215.702 382.334C215.679 382.337 215.655 382.34 215.632 382.343C215.609 382.346 215.586 382.349 215.562 382.353L215.424 382.37C215.401 382.373 215.377 382.377 215.354 382.38C215.33 382.383 215.307 382.386 215.284 382.389C215.261 382.392 215.238 382.395 215.215 382.398C215.192 382.401 215.169 382.404 215.146 382.407C215.122 382.41 215.098 382.413 215.075 382.416C215.052 382.419 215.029 382.423 215.006 382.426C214.983 382.429 214.96 382.432 214.937 382.435C214.913 382.438 214.89 382.441 214.867 382.444C214.844 382.447 214.82 382.45 214.797 382.453C214.774 382.456 214.751 382.46 214.728 382.463L214.589 382.48C214.566 382.484 214.542 382.487 214.519 382.49C214.495 382.493 214.472 382.496 214.449 382.499C214.426 382.502 214.403 382.506 214.38 382.509C214.357 382.512 214.334 382.515 214.311 382.518C214.287 382.521 214.263 382.523 214.24 382.526C214.217 382.529 214.194 382.533 214.171 382.536C214.148 382.539 214.125 382.542 214.102 382.545C214.079 382.548 214.055 382.552 214.032 382.555C214.009 382.558 213.985 382.56 213.962 382.563C213.939 382.567 213.916 382.569 213.893 382.572C213.869 382.575 213.846 382.579 213.823 382.582C213.8 382.585 213.777 382.588 213.754 382.591C213.731 382.594 213.707 382.598 213.684 382.601L213.545 382.618C213.522 382.621 213.499 382.625 213.476 382.628C213.452 382.631 213.428 382.634 213.405 382.637C213.382 382.64 213.359 382.643 213.336 382.646L213.197 382.664C213.174 382.667 213.15 382.671 213.127 382.674C213.104 382.677 213.081 382.68 213.058 382.683C213.034 382.686 213.011 382.689 212.988 382.692C212.965 382.695 212.942 382.698 212.919 382.701C212.896 382.704 212.872 382.707 212.849 382.71C212.826 382.713 212.802 382.717 212.779 382.72C212.756 382.723 212.733 382.725 212.71 382.729C212.687 382.732 212.664 382.735 212.641 382.738C212.617 382.741 212.594 382.744 212.57 382.747C212.547 382.75 212.524 382.754 212.501 382.757L212.362 382.774C212.339 382.777 212.315 382.781 212.292 382.784C212.269 382.787 212.246 382.79 212.223 382.793C212.2 382.796 212.176 382.8 212.153 382.803C212.13 382.806 212.107 382.808 212.084 382.812C212.061 382.815 212.037 382.817 212.014 382.82C211.991 382.823 211.967 382.827 211.944 382.83C211.921 382.833 211.898 382.836 211.875 382.839C211.852 382.842 211.829 382.846 211.806 382.849C211.782 382.852 211.759 382.854 211.735 382.857C211.712 382.86 211.689 382.863 211.666 382.866C211.643 382.869 211.62 382.873 211.597 382.876C211.574 382.879 211.55 382.882 211.527 382.885C211.504 382.888 211.48 382.891 211.457 382.895L211.318 382.912C211.295 382.915 211.272 382.919 211.249 382.922C211.226 382.925 211.202 382.928 211.179 382.931C211.156 382.934 211.132 382.937 211.109 382.94L210.971 382.958C210.948 382.961 210.924 382.965 210.9 382.968C210.877 382.971 210.854 382.974 210.831 382.977C210.808 382.98 210.785 382.983 210.762 382.986C210.739 382.989 210.715 382.992 210.692 382.995C210.669 382.998 210.645 383.002 210.622 383.005L210.483 383.022C210.46 383.026 210.437 383.029 210.414 383.032C210.391 383.035 210.367 383.038 210.344 383.041C210.321 383.044 210.298 383.048 210.274 383.051L210.136 383.068C210.113 383.071 210.089 383.075 210.065 383.078C210.042 383.081 210.019 383.084 209.996 383.087C209.973 383.09 209.95 383.094 209.927 383.097C209.904 383.1 209.88 383.102 209.857 383.105C209.834 383.109 209.81 383.111 209.787 383.114C209.764 383.117 209.741 383.121 209.718 383.124C209.695 383.127 209.672 383.13 209.648 383.133C209.625 383.136 209.602 383.14 209.579 383.143C209.556 383.146 209.532 383.148 209.509 383.151C209.486 383.154 209.463 383.157 209.439 383.16C209.416 383.163 209.393 383.167 209.37 383.17C209.347 383.173 209.324 383.176 209.301 383.179C209.278 383.182 209.254 383.185 209.23 383.188L209.092 383.206C209.069 383.209 209.046 383.213 209.022 383.216C208.999 383.219 208.975 383.222 208.952 383.225C208.929 383.228 208.906 383.231 208.883 383.234C208.86 383.237 208.837 383.24 208.813 383.243C208.79 383.246 208.767 383.25 208.744 383.253C208.721 383.256 208.697 383.259 208.674 383.262C208.651 383.265 208.628 383.267 208.604 383.271C208.581 383.274 208.558 383.277 208.535 383.28C208.512 383.283 208.489 383.286 208.466 383.289C208.443 383.292 208.419 383.296 208.396 383.299L208.257 383.316C208.234 383.319 208.211 383.323 208.188 383.326C208.164 383.329 208.14 383.332 208.117 383.335C208.094 383.338 208.071 383.342 208.048 383.345L207.909 383.362C207.886 383.365 207.862 383.369 207.839 383.372C207.816 383.375 207.793 383.378 207.77 383.381C207.746 383.384 207.723 383.388 207.7 383.391C207.677 383.394 207.654 383.396 207.631 383.399C207.608 383.402 207.584 383.405 207.561 383.408C207.537 383.411 207.514 383.415 207.491 383.418C207.468 383.421 207.445 383.424 207.422 383.427C207.399 383.43 207.376 383.433 207.353 383.437C207.329 383.44 207.305 383.442 207.282 383.445C207.259 383.448 207.236 383.451 207.213 383.454C207.19 383.457 207.167 383.461 207.144 383.464C207.121 383.467 207.097 383.47 207.074 383.473C207.051 383.476 207.027 383.479 207.004 383.482L206.865 383.5C206.842 383.503 206.819 383.507 206.796 383.51C206.773 383.513 206.749 383.515 206.726 383.519C206.702 383.522 206.679 383.525 206.656 383.528C206.633 383.531 206.61 383.534 206.587 383.537C206.564 383.54 206.541 383.544 206.518 383.547C206.494 383.55 206.47 383.553 206.447 383.556C206.424 383.559 206.401 383.561 206.378 383.564C206.355 383.568 206.332 383.571 206.309 383.574C206.286 383.577 206.262 383.58 206.239 383.583C206.216 383.586 206.192 383.59 206.169 383.593L206.03 383.61C206.007 383.613 205.984 383.617 205.961 383.62C205.938 383.623 205.914 383.626 205.891 383.629C205.868 383.632 205.844 383.636 205.821 383.639L205.683 383.656C205.659 383.659 205.635 383.663 205.612 383.666C205.589 383.669 205.566 383.672 205.543 383.675C205.52 383.678 205.497 383.682 205.474 383.685C205.451 383.688 205.427 383.69 205.404 383.693C205.381 383.696 205.357 383.699 205.334 383.702C205.311 383.705 205.288 383.709 205.265 383.712C205.242 383.715 205.218 383.718 205.195 383.721C205.172 383.724 205.149 383.727 205.126 383.73C205.103 383.734 205.079 383.736 205.056 383.739C205.033 383.742 205.009 383.745 204.986 383.748C204.963 383.751 204.94 383.755 204.917 383.758C204.894 383.761 204.871 383.764 204.848 383.767C204.824 383.77 204.801 383.773 204.777 383.776C204.754 383.779 204.731 383.782 204.708 383.785C204.685 383.788 204.662 383.792 204.639 383.795C204.616 383.798 204.592 383.801 204.569 383.804C204.546 383.807 204.522 383.809 204.499 383.812C204.476 383.816 204.453 383.819 204.43 383.822C204.407 383.825 204.383 383.828 204.36 383.831C204.337 383.834 204.314 383.838 204.291 383.841C204.268 383.844 204.244 383.847 204.221 383.85C204.198 383.853 204.174 383.855 204.151 383.858C204.128 383.861 204.105 383.865 204.082 383.868C204.059 383.871 204.036 383.874 204.013 383.877C203.99 383.88 203.966 383.884 203.942 383.887L203.804 383.904C203.781 383.907 203.757 383.911 203.734 383.914C203.711 383.917 203.687 383.92 203.664 383.923C203.641 383.926 203.618 383.93 203.595 383.933L203.456 383.95C203.433 383.953 203.409 383.957 203.386 383.96C203.363 383.963 203.34 383.966 203.316 383.969C203.293 383.972 203.27 383.975 203.247 383.979C203.224 383.982 203.201 383.984 203.178 383.987C203.155 383.99 203.131 383.993 203.107 383.996C203.084 383.999 203.061 384.003 203.038 384.006C203.015 384.009 202.992 384.012 202.969 384.015C202.946 384.018 202.922 384.021 202.899 384.024C202.876 384.027 202.852 384.03 202.829 384.033C202.806 384.036 202.783 384.039 202.76 384.042C202.737 384.045 202.714 384.049 202.69 384.052C202.667 384.055 202.644 384.058 202.621 384.061C202.598 384.064 202.574 384.067 202.551 384.07C202.528 384.073 202.505 384.076 202.481 384.079C202.458 384.082 202.435 384.086 202.412 384.089C202.389 384.092 202.366 384.095 202.343 384.098C202.329 384.099 202.315 384.101 202.302 384.103C198.159 382.639 194.02 381.175 189.882 379.712C185.799 378.268 181.717 376.824 177.631 375.381C194.367 358.386 198.076 336.781 200.578 314.788C203.069 292.897 204.368 270.634 216.07 252.057Z" fill="#082422" stroke="#082422" stroke-width="0.253958"/>
<path d="M177.922 405.312C183.914 352.969 125.983 322.28 131.974 269.937C155.693 261.912 179.412 253.887 203.116 245.846C197.124 298.189 255.056 328.878 249.064 381.221C225.345 389.246 201.626 397.271 177.922 405.312Z" fill="#60D06F" stroke="#082422" stroke-width="0.253958" stroke-miterlimit="10"/>
<path d="M182.447 264.211C182.804 270.358 188.547 273.493 194.151 271.599C194.694 271.413 195.253 271.693 195.377 272.236C202.906 304.213 231.049 329.205 238.5 361.198C238.624 361.741 238.267 362.331 237.724 362.517C232.074 364.426 228.69 370.651 229.031 376.814C229.062 377.481 228.612 378.226 228.007 378.444C218.538 381.641 209.069 384.854 199.615 388.052C199.01 388.254 198.513 387.835 198.482 387.152C198.14 381.005 192.397 377.854 186.793 379.747C186.328 379.903 185.846 379.67 185.738 379.189C178.318 347.087 150.035 322.033 142.553 289.963C142.444 289.497 142.755 288.985 143.22 288.83C148.871 286.921 152.239 280.696 151.882 274.549C151.836 273.788 152.348 272.95 153.015 272.733C162.391 269.55 171.783 266.384 181.158 263.202C181.841 262.969 182.385 263.45 182.431 264.211H182.447Z" fill="#80E58A" stroke="#082422" stroke-width="0.253958" stroke-miterlimit="10"/>
<path d="M170.95 288.132C173.201 287.372 175.716 287.744 178.416 289.064C181.117 290.383 184.02 292.619 187.14 295.552C193.303 301.451 200.568 310.02 206.917 320.048C213.265 330.075 216.851 339.886 217.084 347.802C217.224 351.745 216.603 355.176 215.377 357.83C214.15 360.469 212.35 362.316 210.099 363.077C207.832 363.838 205.333 363.465 202.632 362.146C199.931 360.826 197.028 358.591 193.908 355.657C187.746 349.758 180.481 341.19 174.132 331.162C167.783 321.134 164.198 311.324 163.965 303.407C163.825 299.464 164.446 296.034 165.672 293.379C166.899 290.74 168.699 288.893 170.95 288.132Z" fill="#60D06F" stroke="#082422" stroke-width="0.253958" stroke-miterlimit="10"/>
<path d="M252.82 507.295C252.82 507.295 249.234 515.864 234.891 522.88" stroke="#082422" stroke-width="0.253958" stroke-miterlimit="10" stroke-linecap="round"/>
<path d="M234.174 409.424C234.174 409.424 223.525 394.382 226.863 374.622C229.688 357.841 228.865 326.392 224.689 319.919C222.966 317.249 220.017 315.836 217.13 315.091C212.892 314.005 208.592 316.721 207.785 321.021C206.109 329.9 203.066 345.563 200.831 354.83C197.571 368.304 185.789 408.772 185.789 408.772" fill="#F1CC9B"/>
<path d="M234.174 409.424C234.174 409.424 223.525 394.382 226.863 374.622C229.688 357.841 228.865 326.392 224.689 319.919C222.966 317.249 220.017 315.836 217.13 315.091C212.892 314.005 208.592 316.721 207.785 321.021C206.109 329.9 203.066 345.563 200.831 354.83C197.571 368.304 185.789 408.772 185.789 408.772" stroke="#082422" stroke-width="0.253958" stroke-miterlimit="10"/>
<path d="M207.767 321.035C206.897 325.661 205.655 332.103 204.352 338.53C205.5 338.7 213.262 339.725 215.109 336.651C217.111 333.329 217.251 319.514 217.251 319.514C217.251 319.514 212.33 316.642 208.496 318.94C208.155 319.576 207.906 320.275 207.767 321.035Z" fill="#F1CC9B" stroke="#082422" stroke-width="0.253958" stroke-miterlimit="10"/>
<path d="M325.246 89.9158C322.483 91.9027 319.053 92.772 315.762 93.6568C292.291 99.8349 269.333 108 247.228 118.028C246.514 118.323 245.8 118.649 245.117 119.006C245.49 118.618 245.831 118.214 246.204 117.841C261.96 100.627 281.782 87.1372 303.607 78.8169C306.06 77.87 308.513 77.0008 311.012 76.2091C314.442 75.0914 318.059 74.098 321.614 74.6413C322.111 74.7344 322.623 74.8276 323.104 74.9673C323.585 75.138 324.082 75.3088 324.532 75.5106C326.923 76.6127 328.894 78.5841 329.407 81.1454C330.074 84.5138 328.025 87.9289 325.246 89.9469V89.9158Z" fill="#ECECEC" stroke="#082422" stroke-width="0.253958" stroke-linecap="round" stroke-linejoin="round"/>
<path d="M393.363 214.488L319.661 199.865L300.164 196.016L289.997 193.998L274.023 180.834C288.304 185.708 304.604 186.174 317.674 178.754C320.685 177.016 323.464 174.92 325.979 172.545L347.757 176.86H347.773L393.379 214.488H393.363Z" fill="#2BF2F1" stroke="#082422" stroke-width="0.253958" stroke-linecap="round" stroke-linejoin="round"/>
<path d="M122.257 121.847L86.9733 114.846L41.3516 77.2188L108.923 90.5995H108.938C108.985 95.5979 109.761 100.55 111.453 105.253C113.719 111.586 117.507 117.128 122.257 121.832V121.847Z" fill="#2BF2F1" stroke="#082422" stroke-width="0.253958" stroke-linecap="round" stroke-linejoin="round"/>
<path d="M67.0438 180.571L21.4375 142.974L41.6483 77.2656L87.2701 114.878L67.0438 180.571Z" fill="#2BF2F1" stroke="#082422" stroke-width="0.253958" stroke-linecap="round" stroke-linejoin="round"/>
<path d="M128.88 231.795L83.2734 194.183L103.5 128.49L149.106 166.087L128.88 231.795Z" fill="#2BF2F1" stroke="#082422" stroke-width="0.253958" stroke-linecap="round" stroke-linejoin="round"/>
<path d="M232.289 252.287L128.891 231.796L149.117 166.088L162.187 168.68L178.797 171.956L216.285 179.391L235.905 183.287L252.515 186.594L232.289 252.287Z" fill="#2BF2F1" stroke="#082422" stroke-width="0.253958" stroke-linecap="round" stroke-linejoin="round"/>
<path d="M373.12 280.212L269.738 259.722L232.281 252.287L269.754 259.706L289.98 193.998L300.163 196.016L319.66 199.866L393.362 214.488L373.12 280.212Z" fill="#2BF2F1" stroke="#082422" stroke-width="0.253958" stroke-linecap="round" stroke-linejoin="round"/>
<path d="M83.2819 194.183L66.75 180.539L86.9763 114.846L103.508 128.49L83.2819 194.183Z" fill="white" stroke="#082422" stroke-width="0.253958" stroke-linecap="round" stroke-linejoin="round"/>
<path d="M289.974 193.998L252.517 186.562L220.664 160.297C226.314 161.415 232.073 161.71 236.932 158.931C236.963 158.931 236.979 158.9 237.01 158.885C247.689 167.127 258.757 174.966 271.315 179.841C272.2 180.182 273.1 180.508 274.016 180.819L289.989 193.982L289.974 193.998Z" fill="white" stroke="#082422" stroke-width="0.253958" stroke-linecap="round" stroke-linejoin="round"/>
<path d="M150.108 137.695L103.524 128.459L86.9766 114.846L122.26 121.847C128.78 128.351 137.147 133.256 145.855 136.345C147.252 136.842 148.68 137.307 150.108 137.711V137.695Z" fill="white" stroke="#082422" stroke-width="0.253958" stroke-linecap="round" stroke-linejoin="round"/>
<path d="M252.52 186.561L235.91 183.27L216.289 179.374L178.786 171.939L162.192 168.663L149.122 166.071L103.516 128.459L150.1 137.68C150.193 137.711 150.302 137.742 150.395 137.773C156.511 139.573 162.798 140.691 169.131 141.467C169.209 141.483 169.317 141.483 169.395 141.514C177.125 142.414 184.949 142.833 192.757 143.175C193.129 144.308 193.595 145.379 194.154 146.419C195.101 148.173 196.327 149.772 197.833 151.169C202.396 155.407 208.668 157.192 214.675 158.822C216.631 159.365 218.649 159.877 220.667 160.281L252.52 186.546V186.561Z" fill="#2BF2F1" stroke="#082422" stroke-width="0.253958" stroke-linecap="round" stroke-linejoin="round"/>
<path d="M347.716 176.863L325.938 172.547C328.483 170.157 330.765 167.456 332.799 164.584H332.814L347.701 176.878L347.716 176.863Z" fill="white" stroke="#082422" stroke-width="0.253958" stroke-linecap="round" stroke-linejoin="round"/>
<path d="M269.754 259.707L232.281 252.287L252.508 186.594L289.98 193.998L269.754 259.707Z" fill="white" stroke="#082422" stroke-width="0.253958" stroke-linecap="round" stroke-linejoin="round"/>
<path d="M236.999 158.916C236.999 158.916 236.952 158.947 236.921 158.963C232.063 161.741 226.304 161.446 220.653 160.329C218.635 159.925 216.617 159.397 214.662 158.869C208.654 157.224 202.383 155.454 197.819 151.217C196.313 149.82 195.103 148.221 194.14 146.467C193.581 145.427 193.116 144.356 192.743 143.222C191.936 140.925 191.563 138.426 191.548 135.958C191.501 130.944 192.945 125.852 195.755 121.739C196.531 120.621 197.416 119.534 198.44 118.556C198.797 118.184 199.201 117.858 199.589 117.516C199.977 117.19 200.365 116.88 200.784 116.585C201.188 116.275 201.638 116.026 202.057 115.778C202.476 115.545 202.895 115.328 203.314 115.141C203.392 115.095 203.47 115.079 203.547 115.048C203.951 114.893 204.385 114.738 204.805 114.614C205.27 114.458 205.751 114.365 206.233 114.272C206.698 114.21 207.195 114.148 207.676 114.148C208.173 114.132 208.67 114.148 209.182 114.226C210.005 114.334 210.843 114.536 211.619 114.815C213.948 115.592 216.121 116.958 218.403 117.967C219.287 118.37 220.265 118.712 221.243 118.882C221.895 118.541 222.563 118.277 223.277 118.091C227.406 116.864 232.171 117.61 235.974 119.891C236.704 120.357 237.449 120.869 238.101 121.413C238.474 121.754 238.831 122.065 239.172 122.422C239.56 122.825 239.948 123.244 240.305 123.664C240.352 123.726 240.43 123.788 240.476 123.881C240.709 124.16 240.911 124.455 241.144 124.75C241.454 125.154 241.718 125.573 241.997 125.992C242.246 126.396 242.494 126.799 242.727 127.249C242.975 127.715 243.224 128.196 243.425 128.693C243.643 129.159 243.829 129.624 244.015 130.09C244.171 130.494 244.31 130.897 244.419 131.301C244.497 131.456 244.543 131.658 244.605 131.86C244.729 132.248 244.838 132.636 244.931 133.024C244.978 133.101 244.978 133.132 244.978 133.195C245.133 133.769 245.257 134.328 245.35 134.902C245.676 136.641 245.832 138.395 245.847 140.118C245.878 142.136 245.676 144.231 245.242 146.249C244.155 151.45 241.485 156.324 236.968 158.947L236.999 158.916Z" fill="white" stroke="#082422" stroke-width="0.253958" stroke-linecap="round" stroke-linejoin="round"/>
<path d="M339.825 151.853C344.42 140.956 346.562 129.221 348.673 117.563C350.583 107.132 352.337 95.7378 347.307 86.393C343.473 79.2215 336.053 74.487 328.105 72.5621C327.655 72.4379 327.205 72.3448 326.739 72.2517C326.227 72.1585 325.715 72.0499 325.187 71.9723C325.172 71.9723 325.125 71.9412 325.094 71.9412C324.566 71.8636 324.054 71.8015 323.557 71.7239C323.014 71.6618 322.471 71.6152 321.927 71.5687H321.912C320.484 71.4445 319.071 71.4134 317.612 71.46C313.079 71.5376 308.515 72.2827 304.014 73.4004C301.98 73.8816 299.993 74.4559 298.022 75.0768C274.722 82.4502 253.782 97.1038 238.725 116.321C237.793 117.47 236.908 118.65 236.039 119.829C236.769 120.295 237.514 120.807 238.166 121.351C238.538 121.692 238.895 122.003 239.237 122.36C239.625 122.763 240.013 123.182 240.37 123.601C240.417 123.663 240.494 123.726 240.541 123.819C240.774 124.098 240.975 124.393 241.208 124.688C241.534 125.076 241.798 125.495 242.062 125.93C242.31 126.333 242.559 126.737 242.792 127.187C243.04 127.653 243.288 128.134 243.49 128.631C243.723 129.081 243.894 129.562 244.08 130.028C244.235 130.431 244.375 130.835 244.484 131.239C244.561 131.394 244.608 131.596 244.67 131.798C244.81 132.155 244.903 132.574 244.996 132.962C245.042 133.039 245.042 133.07 245.042 133.132C245.213 133.691 245.322 134.266 245.415 134.84C245.741 136.579 245.896 138.333 245.912 140.056C245.943 142.074 245.741 144.169 245.306 146.187C244.22 151.387 241.55 156.262 237.033 158.885C247.712 167.128 258.78 174.967 271.338 179.841C272.223 180.182 273.123 180.508 274.039 180.819C288.32 185.693 304.619 186.159 317.689 178.739C320.701 177 323.48 174.905 325.994 172.53C328.54 170.139 330.822 167.438 332.855 164.566H332.871C335.649 160.608 337.962 156.293 339.856 151.838L339.825 151.853ZM325.249 89.9167C322.486 91.9037 319.056 92.7729 315.765 93.6577C292.294 99.8359 269.336 108.001 247.231 118.029C246.517 118.324 245.803 118.65 245.12 119.007C245.493 118.619 245.834 118.215 246.207 117.842C261.962 100.628 281.785 87.1381 303.61 78.8179C306.063 77.871 308.515 77.0017 311.015 76.21C314.445 75.0924 318.062 74.0989 321.617 74.6422C322.114 74.7353 322.626 74.8285 323.107 74.9682C323.588 75.1389 324.085 75.3097 324.535 75.5115C324.659 75.5891 324.83 75.6512 324.954 75.7288C325.265 75.884 325.544 76.0393 325.824 76.2411C327.609 77.4053 328.99 79.0662 329.409 81.1463C330.077 84.5148 328.028 87.9298 325.249 89.9478V89.9167Z" fill="white" stroke="#082422" stroke-width="0.253958" stroke-linecap="round" stroke-linejoin="round"/>
<path d="M312.817 59.3844C309.868 64.0879 306.949 68.7448 304 73.4016C301.966 73.8828 299.979 74.4572 298.008 75.0781C274.708 82.4515 253.768 97.1051 238.711 116.322C237.779 117.471 236.894 118.651 236.025 119.831C232.222 117.549 227.457 116.804 223.327 118.03L223.219 117.595C223.467 116.198 223.715 114.786 223.979 113.404C230.654 79.0209 248.273 46.8419 273.761 22.8125C274.398 32.3591 275.065 41.8746 275.717 51.4057C275.857 53.4392 276.136 55.69 277.704 56.9318C278.884 57.8477 280.467 57.9408 281.942 58.034C292.249 58.4996 302.556 58.9498 312.832 59.4L312.817 59.3844Z" fill="white" stroke="#082422" stroke-width="0.253958" stroke-linecap="round" stroke-linejoin="round"/>
<path d="M195.754 121.692C196.53 120.575 197.415 119.488 198.439 118.51C198.796 118.138 199.2 117.812 199.588 117.47C199.961 117.144 200.364 116.834 200.783 116.539C201.187 116.228 201.637 115.98 202.056 115.732C202.475 115.499 202.894 115.281 203.313 115.095C203.391 115.049 203.469 115.033 203.546 115.002C203.95 114.847 204.369 114.676 204.804 114.567C205.269 114.412 205.751 114.319 206.232 114.226C206.697 114.164 207.194 114.102 207.675 114.102C208.172 114.086 208.669 114.102 209.181 114.179C210.004 114.288 210.842 114.49 211.618 114.769C211.742 113.527 211.836 112.285 211.898 111.044H211.882C213.372 86.1138 207.023 60.7649 193.876 39.5141C189.948 33.1808 185.369 27.0958 179.61 22.4389C179.548 22.4079 179.517 22.3613 179.455 22.3147C179.377 22.2371 179.3 22.1906 179.206 22.144L179.098 22.0819C179.005 22.0043 178.911 21.9111 178.803 21.8491C177.732 20.9953 176.599 20.1881 175.419 19.443C174.41 18.8221 173.385 18.2633 172.33 17.72C165.127 14.1652 156.59 13.032 149.123 15.9038C139.235 19.7379 133.15 29.5018 127.779 38.6603C121.787 48.8589 115.764 59.1816 112.132 70.4512C110.036 76.9398 108.795 83.832 108.888 90.6155H108.903C108.95 95.6138 109.726 100.566 111.418 105.269C113.684 111.602 117.472 117.144 122.222 121.848C128.741 128.352 137.108 133.257 145.817 136.346C147.214 136.843 148.642 137.308 150.07 137.712C150.163 137.743 150.272 137.774 150.365 137.805L169.101 141.5C169.101 141.5 169.287 141.515 169.365 141.546C177.095 142.446 184.919 142.866 192.727 143.207C191.92 140.91 191.547 138.41 191.532 135.942C191.485 130.928 192.929 125.837 195.738 121.723L195.754 121.692ZM168.371 41.9978C166.416 39.1571 164.413 36.2698 163.59 32.9634C162.783 29.626 163.482 25.6987 166.167 23.5876C169.008 21.3834 173.277 21.8025 176.319 23.7273C176.552 23.867 176.8 24.0378 177.049 24.2085C177.126 24.2861 177.204 24.3327 177.282 24.3948C177.421 24.5035 177.561 24.6121 177.716 24.7363C180.045 26.6456 181.783 29.2535 183.367 31.8458C197.197 54.4316 204.881 80.7119 205.409 107.194C194.962 84.4529 182.544 62.5967 168.371 42.0133V41.9978Z" fill="white" stroke="#082422" stroke-width="0.253958" stroke-linecap="round" stroke-linejoin="round"/>
<path d="M205.416 107.194C194.969 84.4525 182.551 62.5963 168.378 42.0129C166.422 39.1723 164.42 36.285 163.597 32.9786C162.79 29.6412 163.488 25.7139 166.174 23.6028C169.015 21.3985 173.283 21.8177 176.326 23.7425C176.559 23.8822 176.807 24.053 177.055 24.2237C177.273 24.41 177.49 24.5652 177.723 24.7515C180.051 26.6608 181.79 29.2686 183.373 31.861C197.204 54.4468 204.888 80.727 205.416 107.209V107.194Z" fill="#ECECEC" stroke="#082422" stroke-width="0.253958" stroke-linecap="round" stroke-linejoin="round"/>
<path d="M223.197 117.611C223.445 116.214 223.694 114.801 223.957 113.419L218.633 112.379C223.647 91.1441 228.661 69.9243 233.721 48.72C235.351 41.8589 236.981 34.8891 236.935 27.8418C236.873 20.7788 234.979 13.5141 230.306 8.23634C222.871 -0.146024 209.925 -1.66727 199.198 1.59254C189.171 4.65055 180.618 11.1391 172.359 17.7208C173.415 18.2486 174.439 18.823 175.448 19.4439C176.613 20.189 177.761 20.9962 178.832 21.8499C178.941 21.912 179.034 21.9896 179.127 22.0828L179.236 22.1449C179.329 22.1914 179.407 22.238 179.484 22.3156C179.546 22.3467 179.578 22.3932 179.64 22.4398C185.399 27.0967 189.993 33.1816 193.905 39.515C207.053 60.7813 213.402 86.1147 211.912 111.029H211.927C211.85 112.286 211.772 113.528 211.648 114.77C213.976 115.546 216.149 116.912 218.431 117.921C219.316 118.325 220.294 118.666 221.272 118.837C221.924 118.495 222.591 118.232 223.306 118.045L223.197 117.611ZM214.737 21.881C214.613 17.5966 215.218 12.1326 219.316 10.7976C222.328 9.80415 225.665 11.9929 227.078 14.8336C228.475 17.6898 228.444 21.0272 228.35 24.1939C227.388 52.43 223.678 80.573 217.298 108.126C216.444 79.3778 215.606 50.6294 214.737 21.881Z" fill="white" stroke="#082422" stroke-width="0.253958" stroke-linecap="round" stroke-linejoin="round"/>
<path d="M217.287 108.14C216.433 79.3918 215.595 50.6434 214.725 21.895C214.601 17.6107 215.207 12.1466 219.305 10.8116C222.316 9.81816 225.654 12.0069 227.066 14.8476C228.463 17.7038 228.432 21.0412 228.339 24.2079C227.377 52.444 223.667 80.587 217.287 108.14Z" fill="#ECECEC" stroke="#082422" stroke-width="0.253958" stroke-linecap="round" stroke-linejoin="round"/>
<path d="M404.289 434.045L443.313 633.064L342.756 664.575L306.293 676L205.704 707.527L198.331 669.822L166.68 508.524L179.393 504.534L195.568 499.458L232.016 488.034L251.109 482.057L267.268 476.981L303.716 465.556L332.588 456.538V456.507L404.289 434.045Z" fill="#2BF2F1" stroke="#082422" stroke-width="0.253958" stroke-linejoin="round"/>
<path d="M166.676 508.524L198.327 669.822L205.701 707.527L147.645 696.351L126.627 692.299L68.5713 681.123L29.5312 482.119L87.6024 493.296L108.651 497.347L166.676 508.524Z" fill="#2BF2F1" stroke="#082422" stroke-width="0.253958" stroke-linejoin="round"/>
<path d="M108.643 497.331L147.667 696.35L126.634 692.298L87.6094 493.295L108.643 497.331Z" fill="white" stroke="#082422" stroke-width="0.253958" stroke-linejoin="round"/>
<path d="M269.609 476.298L308.168 675.457L340.394 665.274L301.819 466.115L269.609 476.298Z" fill="white" stroke="#082422" stroke-width="0.253958" stroke-linejoin="round"/>
<path d="M321.459 305.779L325.867 311.321C327.59 313.479 328.77 316.133 329.298 319.222C331.579 332.898 319.86 350.035 303.095 357.502C290.118 363.276 277.948 361.553 272.049 354.149L267.641 348.607C273.539 356.027 285.725 357.734 298.686 351.96C315.436 344.493 327.171 327.356 324.889 313.68C324.377 310.591 323.182 307.937 321.459 305.779Z" fill="#B9CC00" stroke="#082422" stroke-width="0.253958" stroke-linejoin="round"/>
<path d="M290.401 302.41C307.15 294.943 322.595 299.988 324.877 313.664C327.159 327.34 315.439 344.477 298.674 351.943C281.91 359.41 266.48 354.365 264.198 340.689C261.916 327.014 273.636 309.876 290.401 302.41Z" fill="#DCFF00" stroke="#082422" stroke-width="0.253958" stroke-linejoin="round"/>
<path d="M302.547 311.768L308.632 313.863L306.195 317.356C308.508 319.234 308.788 321.858 306.614 325.366L300.297 323.177C301.445 321.501 301.119 320.725 300.033 320.352C299.474 320.166 298.977 320.197 298.558 320.367C298.248 320.507 297.999 320.725 297.797 321.004C297.068 322.028 297.86 322.649 299.288 323.798L300.048 324.403C303.65 327.244 304.162 329.526 301.927 332.724C300.824 334.292 299.443 335.456 297.829 336.17C296.214 336.884 294.445 337.148 292.473 336.946L289.757 340.827L283.641 338.716L286.357 334.835C283.423 332.817 283.299 329.93 285.659 326.204L292.364 328.517C291.247 330.24 291.278 331.234 292.644 331.699C293.265 331.917 293.855 331.932 294.382 331.699C294.708 331.56 295.003 331.311 295.252 330.954C295.857 330.085 295.314 329.619 294.445 328.905L292.768 327.57C289.151 324.76 288.949 322.292 291.169 319.11C292.178 317.667 293.482 316.564 295.019 315.881C296.556 315.198 298.248 314.934 300.126 315.121L302.485 311.752C302.485 311.752 302.516 311.721 302.547 311.737V311.768Z" fill="white" stroke="#082422" stroke-width="0.253958" stroke-linejoin="round"/>
<path d="M96.7018 409.285L102.678 416.798C105.565 420.431 107.568 424.886 108.437 430.086C112.287 453.075 92.5727 481.886 64.3987 494.428C42.589 504.13 22.1143 501.243 12.2107 488.778L6.23438 481.265C16.1535 493.73 36.6282 496.617 58.4223 486.915C86.5809 474.373 106.295 445.578 102.461 422.573C101.592 417.373 99.5891 412.933 96.7018 409.285Z" fill="#B9CC00" stroke="#082422" stroke-width="0.253958" stroke-linejoin="round"/>
<path d="M44.5187 403.633C72.6773 391.091 98.6315 399.566 102.466 422.571C106.315 445.56 86.6013 474.371 58.4272 486.913C30.2532 499.456 4.31443 490.98 0.480274 467.991C-3.3694 445.002 16.3447 416.191 44.5187 403.649V403.633Z" fill="#DCFF00" stroke="#082422" stroke-width="0.253958" stroke-linejoin="round"/>
<path d="M44.0501 424.902L47.8377 428.597L48.1947 428.379C49.4055 427.619 50.5852 426.998 51.7029 426.501C56.3442 424.437 60.1784 424.561 63.3451 426.843L52.4325 436.653C51.2061 435.691 49.8867 435.52 48.4431 436.156C47.7445 436.467 47.015 436.964 46.2543 437.662C43.988 439.696 43.9725 441.186 44.7176 441.915C45.4472 442.614 46.4561 442.505 47.8687 441.884C49.095 441.341 50.6163 440.394 52.4945 439.23L54.5746 437.926C57.3687 436.172 59.7593 434.853 61.8238 433.921C66.8377 431.686 69.9423 431.857 72.3483 434.185C75.7013 437.445 74.6612 442.505 69.3524 448.839L69.073 449.18L73.3108 453.294L62.7397 462.794L58.5019 458.68L58.1294 458.944C56.515 460.031 54.9937 460.884 53.5346 461.536C48.7691 463.663 44.7797 463.477 41.4733 460.962L53.1155 450.515C54.5591 451.617 56.0027 451.804 57.6016 451.089C58.3622 450.748 59.1694 450.205 60.0232 449.444C61.0632 448.513 61.7617 447.628 62.1032 446.836C62.5068 445.936 62.3982 445.16 61.8238 444.601C61.1408 443.933 60.2094 444.042 59.0763 444.554C58.2691 444.911 57.3377 445.486 56.3287 446.107L51.7495 448.947C49.2037 450.562 46.9839 451.788 45.0436 452.657C39.9365 454.939 36.6146 454.722 34.0378 452.223C30.9332 449.227 31.9733 444.29 36.9251 438.361L37.2045 438.019L33.4945 434.433L44.0656 424.918L44.0501 424.902Z" fill="white" stroke="#082422" stroke-width="0.253958" stroke-linejoin="round"/>
<path d="M113.495 283.998L110.576 287.816C108.574 290.44 105.842 292.566 102.427 294.057C87.2611 300.654 64.0543 292.023 50.5805 274.793C40.1646 261.459 38.6278 246.867 45.5045 237.895L48.4228 234.076C41.5462 243.048 43.0674 257.624 53.4988 270.974C66.9571 288.205 90.1794 296.835 105.345 290.238C108.776 288.748 111.492 286.606 113.495 283.998Z" fill="#69B8B3" stroke="#082422" stroke-width="0.253958" stroke-linejoin="round"/>
<path d="M108.44 247.101C121.899 264.332 120.517 283.642 105.351 290.239C90.1856 296.837 66.9788 288.206 53.505 270.975C40.0466 253.745 41.4281 234.435 56.594 227.837C71.7599 221.24 94.9666 229.871 108.44 247.101Z" fill="#8CF1F0" stroke="#082422" stroke-width="0.253958" stroke-linejoin="round"/>
<path d="M90.0381 250.392C90.3641 250.811 90.69 251.262 91.0005 251.727L81.9972 253.419C81.7954 253.078 81.5936 252.783 81.3918 252.519C80.2587 251.06 79.0479 250.734 77.7595 250.982C76.3779 251.246 76.114 252.038 76.6108 252.892C76.6729 253 76.7505 253.109 76.8126 253.202C77.6663 254.289 79.2341 254.397 81.9662 254.599L83.534 254.708C89.9294 255.142 93.5773 256.555 96.0144 259.675C96.3869 260.156 96.744 260.684 97.0699 261.243C99.4294 265.356 98.5136 268.709 94.2293 270.665L97.1941 275.819L88.4703 277.464L85.5054 272.311C80.5691 272.186 76.7194 270.168 73.7701 266.396C73.382 265.884 72.9939 265.356 72.6369 264.782L82.168 262.981C82.3853 263.338 82.6026 263.649 82.8355 263.928C84.0307 265.465 85.3036 266.039 86.949 265.729C88.3771 265.465 89.0291 264.767 88.3306 263.54C88.2685 263.432 88.2064 263.338 88.1288 263.245C87.4458 262.36 86.3281 262.267 84.6827 262.128L81.2211 261.879C74.9188 261.476 71.333 259.861 68.8959 256.757C68.4768 256.229 68.1042 255.655 67.7472 255.049C65.5585 251.231 66.3967 248.017 70.4792 246.139L67.8714 241.606L76.5953 239.961L79.2652 244.602C83.5806 244.928 87.2284 246.775 90.0536 250.392H90.0381Z" fill="white" stroke="#082422" stroke-width="0.253958" stroke-linejoin="round"/>
</g>
<defs>
<clipPath id="clip0_14997_18373">
<rect width="443.315" height="707.529" fill="white"/>
</clipPath>
</defs>
</svg>
