<svg width="700" height="776" viewBox="0 0 700 776" fill="none" xmlns="http://www.w3.org/2000/svg">
<g clip-path="url(#clip0_15017_12246)">
<path d="M640.22 318.654C672.899 318.654 699.408 421.038 699.408 547.327C699.408 673.617 672.916 776.001 640.22 776.001C607.523 776.001 581.031 673.617 581.031 547.327C581.031 421.038 607.523 318.654 640.22 318.654Z" fill="#082422"/>
<mask id="mask0_15017_12246" style="mask-type:luminance" maskUnits="userSpaceOnUse" x="0" y="0" width="700" height="776">
<path d="M91.7451 93.3525C152.904 31.3347 240.909 -2.18216 343.918 0.394531C388.218 1.50425 427.984 21.9304 462.945 51.9756C497.908 82.0214 528.05 121.674 553.098 161.199C578.144 200.723 598.088 240.111 612.66 269.622C619.945 284.375 625.89 296.667 630.456 305.268C632.739 309.567 634.682 312.954 636.279 315.269C637.077 316.425 637.796 317.323 638.434 317.935C639.059 318.535 639.655 318.907 640.205 318.907H640.222C648.249 318.907 655.967 325.199 663.038 336.755C670.1 348.296 676.47 365.014 681.823 385.693C692.529 427.049 699.154 484.195 699.154 547.324C699.154 610.454 692.532 667.599 681.829 708.955C676.477 729.635 670.109 746.352 663.046 757.893C655.974 769.448 648.254 775.741 640.222 775.741C639.319 775.741 638.169 775.404 636.742 774.723C635.32 774.043 633.645 773.033 631.702 771.712C627.816 769.069 622.882 765.201 616.776 760.301C604.568 750.504 587.7 736.602 565.248 720.199C520.342 687.391 453.097 644.578 356.059 604.552C246.447 559.344 158.428 519.415 97.3848 479.844C36.3291 440.264 2.3396 401.092 0.628906 357.424C-3.74747 245.911 30.5871 155.37 91.7451 93.3525Z" fill="white" stroke="white" stroke-width="0.511964"/>
</mask>
<g mask="url(#mask0_15017_12246)">
<path d="M307.406 76.5234L324.143 95.0019C332.63 104.351 340.052 151.536 346.088 158.197L329.351 139.719C323.315 133.058 315.893 85.8895 307.406 76.5234Z" fill="#A8BA00" stroke="#082422" stroke-width="0.823461" stroke-miterlimit="10"/>
<path d="M399.146 155.543L415.883 174.021C416.323 174.512 416.593 175.019 416.644 175.543C417.76 184.875 360.127 222.339 355.19 231.621C350.253 240.902 356.018 300.953 346.906 306.651C346.247 307.073 345.384 307.259 344.37 307.259C331.521 307.259 292.924 276.253 283.829 276.186C279.23 276.186 264.252 283.692 248.799 291.181C233.347 298.671 217.405 306.177 210.896 306.177C209.814 306.177 209.002 305.974 208.495 305.535L191.758 287.056C192.265 287.496 193.093 287.699 194.158 287.699C200.65 287.699 216.61 280.192 232.062 272.703C247.514 265.197 262.493 257.69 267.092 257.707C276.187 257.775 314.784 288.781 327.633 288.781C328.647 288.781 329.493 288.595 330.169 288.172C339.281 282.475 333.516 222.424 338.453 213.142C343.389 203.861 401.023 166.38 399.907 157.065C399.839 156.524 399.586 156.016 399.146 155.543Z" fill="#A8BA00" stroke="#082422" stroke-width="0.823461" stroke-miterlimit="10"/>
<path d="M304.573 74.9153C314.395 74.9999 322.933 134.222 329.678 140.038C336.424 145.871 398.774 147.73 399.89 157.063C401.006 166.395 343.373 203.859 338.436 213.14C333.499 222.422 339.264 282.473 330.152 288.17C329.493 288.593 328.63 288.779 327.616 288.779C314.767 288.779 276.17 257.773 267.075 257.705C262.476 257.705 247.498 265.211 232.045 272.701C216.593 280.19 200.65 287.697 194.142 287.697C193.06 287.697 192.248 287.494 191.741 287.054C184.995 281.238 215.325 221.475 214.209 212.143C213.093 202.794 170.997 164.535 175.934 155.254C180.87 145.972 243.778 145.093 252.891 139.412C262.003 133.715 294.733 74.9153 304.556 74.8984L304.573 74.9153Z" fill="#DCFF00" stroke="#082422" stroke-width="0.823461" stroke-miterlimit="10"/>
<path d="M234.61 106.158L228.135 99.0063C229.977 101.052 230.13 104.078 228.354 106.394L228.152 106.648C226.833 108.372 224.72 109.319 222.606 109.319C221.49 109.319 220.392 109.065 219.377 108.508L181.693 88.0004C181.068 87.6623 180.527 87.2227 180.07 86.7324L186.545 93.8837C186.985 94.374 187.526 94.7967 188.168 95.1517L225.852 115.659C226.85 116.2 227.966 116.47 229.081 116.47C231.195 116.47 233.308 115.524 234.627 113.799L234.829 113.546C236.605 111.229 236.452 108.186 234.61 106.158Z" fill="#06BCB7" stroke="#082422" stroke-width="0.823461" stroke-miterlimit="10"/>
<path d="M189.379 71.5176C190.799 71.5176 192.203 71.9402 193.369 72.8194L227.3 98.2294C229.92 100.19 230.394 103.758 228.382 106.412L228.179 106.666C226.86 108.39 224.747 109.337 222.634 109.337C221.518 109.337 220.419 109.083 219.405 108.525L181.721 88.018C178.492 86.2598 177.646 82.2868 179.895 79.362L183.851 74.1888C185.186 72.4474 187.3 71.5176 189.396 71.5176H189.379Z" fill="#2BF2F1" stroke="#082422" stroke-width="0.823461" stroke-miterlimit="10"/>
<path d="M186.261 228.899L186.193 228.628C186.041 227.952 185.72 227.36 185.28 226.87L178.805 219.719C179.245 220.209 179.566 220.801 179.718 221.477L179.786 221.747C180.428 224.537 178.163 227.952 174.629 229.558L128.915 250.268C127.647 250.843 126.396 251.114 125.229 251.114C123.59 251.114 122.169 250.573 121.273 249.575L127.749 256.726C128.645 257.724 130.065 258.265 131.705 258.265C132.854 258.265 134.122 257.994 135.39 257.42L181.104 236.709C184.638 235.103 186.886 231.705 186.261 228.899Z" fill="#06BCB7" stroke="#082422" stroke-width="0.823461" stroke-miterlimit="10"/>
<path d="M174.849 218.195C177.301 218.195 179.228 219.413 179.701 221.492L179.769 221.763C180.411 224.552 178.146 227.967 174.613 229.573L128.898 250.283C127.63 250.858 126.379 251.129 125.213 251.129C122.778 251.129 120.817 249.928 120.344 247.832L119.11 242.354C118.399 239.26 121.223 235.49 125.246 234.155L172.127 218.652C173.057 218.347 173.987 218.195 174.832 218.195H174.849Z" fill="#2BF2F1" stroke="#082422" stroke-width="0.823461" stroke-miterlimit="10"/>
<path d="M428.962 91.6903L426.629 86.7537C426.46 86.4156 426.257 86.1113 426.02 85.8408L419.545 78.6895C419.782 78.96 419.985 79.2643 420.154 79.6024L422.487 84.539C423.805 87.3285 421.675 91.4198 417.838 93.4316L373.104 116.948C371.734 117.675 370.331 118.013 369.063 118.013C367.575 118.013 366.274 117.523 365.445 116.593L371.92 123.744C372.766 124.674 374.051 125.165 375.538 125.165C376.806 125.165 378.193 124.81 379.579 124.099L424.313 100.583C428.15 98.5711 430.281 94.4798 428.962 91.6903Z" fill="#06BCB7" stroke="#082422" stroke-width="0.823461" stroke-miterlimit="10"/>
<path d="M415.916 77.2662C417.809 77.2662 419.416 78.0608 420.142 79.5824L422.476 84.519C423.794 87.3085 421.664 91.3998 417.826 93.4116L373.093 116.928C371.723 117.655 370.32 117.993 369.052 117.993C367.142 117.993 365.535 117.199 364.825 115.677L364.707 115.423C363.507 112.904 365.13 109.253 368.426 107.072L410.946 78.8554C412.585 77.7565 414.344 77.2324 415.916 77.2324V77.2662Z" fill="#2BF2F1" stroke="#082422" stroke-width="0.823461" stroke-miterlimit="10"/>
<path d="M439.124 254.68L432.649 247.529C434.103 249.135 434.475 251.468 433.325 253.598L430.316 259.228C429.082 261.544 426.427 262.947 423.773 262.947C422.793 262.947 421.795 262.761 420.882 262.355L381.271 244.841C380.459 244.486 379.766 243.978 379.242 243.387L385.717 250.538C386.258 251.13 386.935 251.62 387.746 251.992L427.357 269.507C428.27 269.913 429.268 270.098 430.248 270.098C432.902 270.098 435.557 268.695 436.791 266.379L439.8 260.749C440.95 258.602 440.578 256.286 439.124 254.68Z" fill="#06BCB7" stroke="#082422" stroke-width="0.823461" stroke-miterlimit="10"/>
<path d="M385.267 233.332C385.944 233.332 386.62 233.417 387.279 233.603L429.765 245.758C433.399 246.806 435.039 250.407 433.349 253.586L430.339 259.215C429.105 261.532 426.451 262.935 423.797 262.935C422.816 262.935 421.819 262.749 420.906 262.343L381.294 244.828C378.218 243.476 377.034 240.196 378.589 237.322L378.742 237.051C379.976 234.752 382.613 233.332 385.284 233.332H385.267Z" fill="#2BF2F1" stroke="#082422" stroke-width="0.823461" stroke-miterlimit="10"/>
<path d="M76.772 335.858C76.772 335.858 68.8599 325.867 77.7018 315.622C86.5438 305.377 116.738 315.419 135.149 323.416C153.577 331.429 212.765 351.818 212.765 351.818L227.186 383.061L160.069 376.721L76.7551 335.858H76.772Z" fill="#FFCE9B" stroke="#082422" stroke-width="0.823461" stroke-miterlimit="10" stroke-linecap="round"/>
<path d="M184.335 371.38C184.335 371.38 181.325 354.152 212.568 349.351C243.811 344.55 307.496 349.351 335.138 348.151C362.78 346.95 395.223 334.93 424.065 333.73C452.906 332.529 488.95 337.331 521.393 369.774C550.844 399.224 759.771 529.283 784.978 542.639C787.311 543.873 788.477 546.578 787.75 549.131C784.657 559.985 778.368 581.084 761.766 608.827C748.359 631.228 720.075 659.901 710.658 668.134C708.443 670.078 705.096 669.96 703 667.88C681.343 646.308 500.988 481.557 479.331 470.72C455.29 458.7 337.539 477.922 327.919 479.14C318.299 480.34 298.857 472.766 292.331 468.692C279.804 460.881 261.038 453.189 239.229 443.924C218.57 435.15 178.925 421.456 156.101 405.834C139.094 394.186 91.6043 366.308 68.7471 352.631C61.5112 348.303 63.2357 339.748 67.8004 332.648C72.8891 324.719 85.1799 325.851 95.8646 329.503C107.242 333.391 184.352 371.397 184.352 371.397L184.335 371.38Z" fill="#FFCE9B" stroke="#082422" stroke-width="0.823461" stroke-miterlimit="10" stroke-linecap="round"/>
<path d="M199.336 359.549C199.336 359.549 231.255 361.679 233.537 367.782C235.82 373.885 234.399 387.715 227.079 388.374C219.759 389.033 194.619 382.254 194.619 382.254C194.619 382.254 189.361 367.241 199.336 359.549Z" stroke="#082422" stroke-width="0.823461" stroke-miterlimit="10" stroke-linecap="round"/>
<path d="M67.7266 351.703C67.7266 351.703 71.801 343.064 75.2329 339.903C75.7401 339.446 76.484 339.362 77.1095 339.683C81.2853 341.779 97.6167 350.233 98.2422 354.611C98.9692 359.632 94.6243 367.95 94.6243 367.95L67.7266 351.703Z" stroke="#082422" stroke-width="0.823461" stroke-miterlimit="10" stroke-linecap="round"/>
<path d="M268.731 424.806C265.485 415.271 269.256 403.284 269.289 403.166" stroke="#082422" stroke-width="0.823461" stroke-miterlimit="10" stroke-linecap="round"/>
<path d="M294.559 399.799C293.359 390.602 295.641 381.726 298.87 376.891" stroke="#082422" stroke-width="0.823461" stroke-miterlimit="10" stroke-linecap="round"/>
<path d="M507.517 388.117C501.211 386.292 496.105 382.302 493.891 378.836" stroke="#082422" stroke-width="0.823461" stroke-miterlimit="10" stroke-linecap="round"/>
<path d="M300.875 399.598C300.656 392.717 301.991 385.955 303.614 382.219" stroke="#082422" stroke-width="0.823461" stroke-miterlimit="10" stroke-linecap="round"/>
<path d="M377.651 432.448C377.465 432.38 294.659 407.562 269.688 403.319C253.543 400.58 216.687 390.909 203.331 388.323C184.109 384.586 183.94 372.397 183.906 371.873" stroke="#082422" stroke-width="0.823461" stroke-miterlimit="10" stroke-linecap="round"/>
<path opacity="0.2" d="M201.336 388.411C201.839 388.526 202.577 388.694 203.516 388.908C205.394 389.336 208.077 389.947 211.298 390.681C217.739 392.147 226.329 394.101 234.925 396.053C243.521 398.004 252.122 399.953 258.587 401.409C261.819 402.137 264.518 402.742 266.414 403.162C267.362 403.372 268.11 403.536 268.625 403.646C268.882 403.702 269.083 403.744 269.221 403.771C269.289 403.785 269.345 403.796 269.386 403.803C269.406 403.806 269.427 403.81 269.446 403.812C269.455 403.814 269.471 403.815 269.488 403.816C269.493 403.817 269.502 403.816 269.511 403.816C269.518 403.818 269.529 403.819 269.544 403.821C269.596 403.83 269.675 403.845 269.781 403.866C269.993 403.908 270.3 403.973 270.69 404.058C271.471 404.226 272.576 404.472 273.898 404.77C276.544 405.364 280.054 406.166 283.559 406.97C287.063 407.774 290.562 408.58 293.185 409.186C294.496 409.488 295.589 409.741 296.354 409.918C296.736 410.006 297.036 410.077 297.24 410.124C297.342 410.148 297.421 410.165 297.474 410.178C297.5 410.184 297.521 410.188 297.534 410.191H297.537V410.192L345.711 423.511V423.512L370.891 431.103C366.944 430.406 361.47 429.438 354.93 428.282C341.152 425.847 322.643 422.573 303.717 419.217C268.227 412.924 231.277 406.346 221.298 404.477L219.67 404.167C210.151 402.317 205.532 398.318 203.275 394.776C201.499 391.989 201.163 389.449 201.092 388.355C201.166 388.372 201.247 388.391 201.336 388.411ZM269.686 403.779C269.619 403.81 269.561 403.814 269.553 403.814C269.549 403.815 269.546 403.814 269.543 403.814C269.574 403.81 269.64 403.796 269.686 403.779Z" fill="#082422" stroke="#082422" stroke-width="0.823461"/>
</g>
<path opacity="0.25" d="M640.211 318.652C635.781 318.652 631.47 320.545 627.328 324.095C653.82 346.817 673.634 438.128 673.634 547.308C673.634 656.488 653.82 747.815 627.328 770.537C631.47 774.088 635.781 775.981 640.211 775.981C672.89 775.981 699.399 673.597 699.399 547.308C699.399 421.019 672.907 318.635 640.211 318.635V318.652Z" fill="#002522"/>
</g>
<defs>
<clipPath id="clip0_15017_12246">
<rect width="699.41" height="776" fill="white"/>
</clipPath>
</defs>
</svg>
