<svg width="327" height="713" viewBox="0 0 327 713" fill="none" xmlns="http://www.w3.org/2000/svg">
<g clip-path="url(#clip0_15015_18893)">
<path d="M240.146 268.408C240.825 268.684 241.804 269.086 242.997 269.586C245.382 270.588 248.626 271.985 252.062 273.565C255.499 275.145 259.121 276.906 262.264 278.637C265.421 280.375 268.046 282.057 269.526 283.473C269.787 283.723 270.077 284.279 270.343 285.234C270.601 286.165 270.813 287.385 270.978 288.865C271.308 291.822 271.448 295.746 271.443 300.312C271.432 309.439 270.841 321.067 270.057 332.523C269.272 343.976 268.296 355.247 267.515 363.654C267.124 367.858 266.783 371.346 266.539 373.783C266.417 375.001 266.32 375.956 266.253 376.607C266.246 376.674 266.239 376.738 266.233 376.798C265.844 376.626 265.314 376.382 264.682 376.065C263.283 375.364 261.382 374.311 259.38 372.905C255.36 370.083 251.007 365.892 249.382 360.338C248.557 357.517 247.688 352.132 246.849 345.594C246.012 339.072 245.21 331.448 244.513 324.179C243.816 316.91 243.224 310 242.806 304.908C242.597 302.361 242.431 300.27 242.318 298.814C242.262 298.087 242.218 297.518 242.189 297.132C242.174 296.938 242.162 296.79 242.155 296.691C242.151 296.642 242.149 296.604 242.147 296.579C242.146 296.567 242.145 296.557 242.145 296.551C242.144 296.548 242.144 296.545 242.144 296.543L242.144 296.541L242.144 296.54L239.988 268.344C240.039 268.365 240.092 268.385 240.146 268.408Z" fill="#FFCE9B" stroke="#082422" stroke-width="1.19671" stroke-miterlimit="10" stroke-linecap="round" stroke-linejoin="round"/>
<path opacity="0.25" d="M242.527 301.68C250.623 315.825 260.654 333.309 268.982 347.145C268.394 354.947 267.592 363.341 266.932 369.803C266.6 373.06 266.303 375.825 266.09 377.776C265.994 378.656 265.915 379.37 265.857 379.889C265.486 379.635 265 379.296 264.427 378.875C263.058 377.869 261.198 376.408 259.235 374.593C255.292 370.949 251.001 365.935 249.367 360.347C248.65 357.897 247.898 353.508 247.161 348.099C246.426 342.704 245.712 336.332 245.062 329.939C243.945 318.95 243.024 307.909 242.527 301.68Z" fill="black" stroke="#082422" stroke-width="1.19671" stroke-linecap="round" stroke-linejoin="round"/>
<path d="M156.116 236.458C156.179 236.462 156.254 236.466 156.342 236.471C156.638 236.487 157.076 236.512 157.638 236.545C158.764 236.612 160.391 236.713 162.4 236.848C166.418 237.119 171.959 237.528 178.05 238.083C190.249 239.192 204.605 240.878 213.381 243.184C222.197 245.5 229.829 248.015 235.717 250.832C241.627 253.66 245.68 256.745 247.477 260.144C247.844 260.839 248.26 262.372 248.696 264.649C249.127 266.897 249.565 269.791 250.001 273.142C250.872 279.844 251.733 288.346 252.521 297.107C254.096 314.629 255.375 333.164 255.853 340.355L255.853 340.357C255.941 341.642 254.982 342.733 253.712 342.848L253.454 342.858C250.7 342.808 246.59 342.533 242.797 341.508C238.974 340.475 235.637 338.726 234.201 335.852C233.182 333.811 231.985 329.993 230.759 325.358C229.537 320.741 228.3 315.367 227.194 310.25C226.087 305.135 225.112 300.281 224.413 296.706C224.064 294.919 223.783 293.45 223.591 292.43C223.494 291.92 223.42 291.521 223.369 291.251C223.344 291.115 223.325 291.012 223.312 290.942C223.305 290.908 223.301 290.881 223.298 290.863C223.296 290.855 223.294 290.849 223.294 290.844C223.293 290.842 223.293 290.84 223.293 290.839L223.293 290.838C223.293 290.837 223.292 290.837 222.704 290.945L223.292 290.837C223.252 290.62 223.097 290.443 222.887 290.376L171.127 273.804L141.09 248.471L156.116 236.458Z" fill="#FFCE9B" stroke="#082422" stroke-width="1.19671" stroke-miterlimit="10" stroke-linecap="round" stroke-linejoin="round"/>
<mask id="mask0_15015_18893" style="mask-type:luminance" maskUnits="userSpaceOnUse" x="140" y="235" width="117" height="109">
<path d="M156.105 236.457C156.17 236.461 156.25 236.465 156.344 236.471C156.64 236.487 157.077 236.511 157.64 236.545C158.765 236.612 160.393 236.713 162.402 236.848C166.42 237.119 171.961 237.528 178.052 238.083C190.251 239.192 204.607 240.878 213.383 243.184C222.199 245.5 229.831 248.015 235.72 250.832C241.629 253.66 245.683 256.745 247.479 260.144C247.846 260.839 248.262 262.372 248.699 264.649C249.129 266.897 249.567 269.791 250.003 273.142C250.874 279.844 251.735 288.346 252.523 297.107C254.098 314.629 255.377 333.164 255.855 340.355L255.855 340.357C255.943 341.642 254.984 342.733 253.714 342.848L253.455 342.858C250.701 342.808 246.591 342.533 242.799 341.508C238.976 340.475 235.639 338.726 234.203 335.852C233.186 333.816 232.025 329.954 230.854 325.245C229.688 320.556 228.525 315.086 227.492 309.872C226.459 304.659 225.557 299.708 224.913 296.061C224.592 294.237 224.334 292.739 224.158 291.697C224.069 291.177 224.001 290.77 223.955 290.494C223.932 290.356 223.914 290.249 223.903 290.178C223.897 290.143 223.892 290.116 223.889 290.098C223.887 290.09 223.887 290.083 223.886 290.078C223.886 290.076 223.885 290.074 223.885 290.073L223.884 290.071C223.847 289.846 223.685 289.662 223.467 289.596L171.116 273.798L141.082 248.467L156.105 236.457Z" fill="white" stroke="white" stroke-width="1.19671" stroke-linecap="round" stroke-linejoin="round"/>
</mask>
<g mask="url(#mask0_15015_18893)">
<path opacity="0.25" d="M70.5956 306.328C66.9654 299.467 69.4324 291.118 73.781 283.104C75.943 279.119 78.5415 275.269 81.0059 271.799C83.4585 268.344 85.8025 265.234 87.4044 262.79C95.0526 251.128 107.506 233.076 119.393 216.565C131.292 200.036 142.585 185.104 147.928 179.64L147.928 179.639C156.211 171.158 186.46 139.746 201.036 124.739C201.071 124.716 201.104 124.69 201.134 124.659C203.075 122.66 205.165 122.167 207.198 122.606C209.273 123.055 211.358 124.494 213.17 126.504C214.977 128.507 216.469 131.027 217.373 133.547C218.28 136.078 218.57 138.539 218.065 140.45L218.064 140.451C217.36 143.116 215.298 147.394 212.448 152.545C212.362 152.701 212.35 152.886 212.414 153.052C212.479 153.217 212.614 153.346 212.782 153.402C216.885 154.773 220.828 157.045 223.109 160.851C223.848 162.086 224.501 163.945 225.055 166.344C225.606 168.734 226.052 171.622 226.399 174.891C227.092 181.429 227.383 189.455 227.339 197.997C227.254 214.551 225.913 232.994 223.821 246.235L223.616 247.499C219.44 272.692 230.842 298.527 232.308 301.711L232.332 301.757C241.47 317.773 254.898 340.602 264.3 356.116C279.827 381.748 288.652 405.336 287.559 424.507L287.56 424.508C286.19 448.658 275.808 468.435 270.948 476.858L270.948 476.857C269.268 479.76 268.241 483.001 267.962 486.345L246.156 737.543C245.976 739.529 245.318 741.141 244.105 742.272C242.891 743.403 241.045 744.126 238.346 744.179C229.909 744.346 209.066 743.517 182.703 731.635C152.703 718.118 130.959 700.887 119.244 690.952L117.035 689.066C114.143 686.587 114.344 682.787 114.965 678.608L114.964 678.608C116.781 666.413 125.03 615.191 132.93 564.953C136.88 539.837 140.742 514.969 143.671 495.354C146.596 475.761 148.596 461.362 148.81 457.224L148.808 457.224C148.867 456.104 148.619 454.601 148.137 452.803C147.651 450.993 146.916 448.836 145.968 446.388C144.073 441.49 141.314 435.39 137.963 428.499C131.261 414.717 122.169 397.735 112.819 380.828C94.1 346.981 74.3765 313.483 70.5952 306.329L70.5956 306.328ZM156.411 246.545C154.411 250.343 155.107 254.998 158.142 258.029L167.338 267.241C167.486 267.389 167.7 267.449 167.903 267.4C168.106 267.351 168.268 267.199 168.332 267.001C174.41 248.051 181.401 225.872 184.441 214.934C186.391 207.919 188.706 198.555 190.935 189.179L190.934 189.18C190.95 189.125 190.959 189.081 190.962 189.065C190.969 189.03 190.966 189.052 190.956 189.08C191.066 188.796 190.945 188.474 190.674 188.333C190.403 188.192 190.07 188.278 189.9 188.531C187.573 192.019 185.475 195.122 183.798 197.594C182.123 200.063 180.864 201.908 180.22 202.872L180.219 202.873C178.583 205.326 174.219 213.235 169.486 222.006C165.929 228.596 162.151 235.697 159.136 241.391L156.411 246.545Z" fill="black" stroke="#082422" stroke-width="1.19671" stroke-linecap="round" stroke-linejoin="round"/>
</g>
<mask id="path-6-inside-1_15015_18893" fill="white">
<path d="M240.287 320.264C241.345 317.544 244.79 311.477 254.124 313.107L255.877 335.815C255.88 335.896 255.873 335.973 255.846 336.043C255.765 336.251 255.566 336.38 255.337 336.382L248.956 336.564L239.966 321.237C240.019 321.041 240.131 320.695 240.301 320.258M239.79 320.071C239.497 320.826 239.385 321.32 239.385 321.32L248.639 337.115L255.344 336.922C255.803 336.918 256.188 336.633 256.338 336.246C256.392 336.107 256.42 335.946 256.405 335.78L254.618 312.659C244.565 310.704 240.891 317.242 239.79 320.071Z"/>
</mask>
<path d="M240.287 320.264C241.345 317.544 244.79 311.477 254.124 313.107L255.877 335.815C255.88 335.896 255.873 335.973 255.846 336.043C255.765 336.251 255.566 336.38 255.337 336.382L248.956 336.564L239.966 321.237C240.019 321.041 240.131 320.695 240.301 320.258M239.79 320.071C239.497 320.826 239.385 321.32 239.385 321.32L248.639 337.115L255.344 336.922C255.803 336.918 256.188 336.633 256.338 336.246C256.392 336.107 256.42 335.946 256.405 335.78L254.618 312.659C244.565 310.704 240.891 317.242 239.79 320.071Z" fill="black"/>
<path d="M239.172 319.831C238.932 320.447 239.237 321.14 239.853 321.38C240.469 321.619 241.163 321.314 241.402 320.698L240.287 320.264L239.172 319.831ZM254.124 313.107L255.317 313.014C255.275 312.469 254.869 312.022 254.33 311.928L254.124 313.107ZM255.877 335.815L257.073 335.774C257.073 335.757 257.072 335.74 257.07 335.723L255.877 335.815ZM255.337 336.382L255.325 335.186C255.318 335.186 255.31 335.186 255.302 335.186L255.337 336.382ZM248.956 336.564L247.924 337.17C248.145 337.546 248.554 337.773 248.99 337.76L248.956 336.564ZM239.966 321.237L238.811 320.922C238.727 321.233 238.771 321.565 238.934 321.842L239.966 321.237ZM241.416 320.692C241.656 320.076 241.35 319.383 240.734 319.143C240.118 318.904 239.425 319.209 239.185 319.825L240.301 320.258L241.416 320.692ZM239.385 321.32L238.218 321.055C238.151 321.351 238.199 321.662 238.352 321.925L239.385 321.32ZM248.639 337.115L247.606 337.72C247.827 338.097 248.236 338.324 248.673 338.311L248.639 337.115ZM255.344 336.922L255.332 335.726C255.325 335.726 255.317 335.726 255.309 335.726L255.344 336.922ZM256.405 335.78L255.212 335.873C255.212 335.879 255.213 335.885 255.213 335.891L256.405 335.78ZM254.618 312.659L255.811 312.566C255.77 312.03 255.375 311.587 254.847 311.484L254.618 312.659ZM240.287 320.264L241.402 320.698C241.889 319.447 242.91 317.474 244.829 316.005C246.707 314.568 249.558 313.524 253.918 314.285L254.124 313.107L254.33 311.928C249.356 311.059 245.818 312.234 243.375 314.104C240.974 315.941 239.743 318.361 239.172 319.831L240.287 320.264ZM254.124 313.107L252.931 313.199L254.684 335.907L255.877 335.815L257.07 335.723L255.317 313.014L254.124 313.107ZM255.877 335.815L254.681 335.856C254.681 335.851 254.676 335.748 254.73 335.609L255.846 336.043L256.961 336.477C257.069 336.198 257.079 335.941 257.073 335.774L255.877 335.815ZM255.846 336.043L254.73 335.609C254.841 335.325 255.106 335.188 255.325 335.186L255.337 336.382L255.348 337.579C256.026 337.572 256.688 337.178 256.961 336.477L255.846 336.043ZM255.337 336.382L255.302 335.186L248.922 335.368L248.956 336.564L248.99 337.76L255.371 337.578L255.337 336.382ZM248.956 336.564L249.988 335.959L240.998 320.631L239.966 321.237L238.934 321.842L247.924 337.17L248.956 336.564ZM239.966 321.237L241.12 321.552C241.16 321.405 241.257 321.101 241.416 320.692L240.301 320.258L239.185 319.825C239.004 320.29 238.878 320.676 238.811 320.922L239.966 321.237ZM239.79 320.071L238.675 319.638C238.515 320.049 238.403 320.392 238.33 320.638C238.294 320.761 238.267 320.859 238.249 320.93C238.24 320.965 238.233 320.994 238.227 321.015C238.225 321.025 238.223 321.034 238.221 321.041C238.22 321.044 238.22 321.047 238.219 321.049C238.219 321.05 238.219 321.052 238.218 321.052C238.218 321.053 238.218 321.053 238.218 321.054C238.218 321.054 238.218 321.054 238.218 321.054C238.218 321.055 238.218 321.055 238.218 321.055C238.218 321.055 238.218 321.055 239.385 321.32C240.552 321.584 240.552 321.585 240.552 321.585C240.552 321.585 240.552 321.585 240.552 321.585C240.552 321.585 240.552 321.585 240.552 321.585C240.552 321.586 240.552 321.586 240.552 321.586C240.552 321.587 240.551 321.587 240.551 321.587C240.551 321.588 240.551 321.588 240.551 321.587C240.552 321.587 240.552 321.584 240.553 321.579C240.555 321.57 240.559 321.554 240.565 321.532C240.577 321.486 240.597 321.414 240.625 321.319C240.681 321.129 240.772 320.848 240.906 320.505L239.79 320.071ZM239.385 321.32L238.352 321.925L247.606 337.72L248.639 337.115L249.672 336.51L240.418 320.715L239.385 321.32ZM248.639 337.115L248.673 338.311L255.378 338.118L255.344 336.922L255.309 335.726L248.605 335.919L248.639 337.115ZM255.344 336.922L255.355 338.119C256.311 338.11 257.128 337.516 257.454 336.68L256.338 336.246L255.223 335.812C255.236 335.778 255.256 335.757 255.273 335.746C255.292 335.732 255.314 335.726 255.332 335.726L255.344 336.922ZM256.338 336.246L257.454 336.68C257.568 336.385 257.631 336.039 257.597 335.67L256.405 335.78L255.213 335.891C255.21 335.854 255.217 335.828 255.223 335.812L256.338 336.246ZM256.405 335.78L257.598 335.688L255.811 312.566L254.618 312.659L253.425 312.751L255.212 335.873L256.405 335.78ZM254.618 312.659L254.847 311.484C249.513 310.447 245.731 311.652 243.127 313.615C240.568 315.545 239.268 318.114 238.675 319.638L239.79 320.071L240.906 320.505C241.414 319.199 242.501 317.084 244.568 315.526C246.589 314.002 249.67 312.916 254.39 313.833L254.618 312.659Z" fill="#082422" mask="url(#path-6-inside-1_15015_18893)"/>
<path d="M66.7302 272.885C69.0721 266.16 72.741 259.855 75.7549 255.131L77.0001 253.206C84.6527 241.546 95.7949 225.521 106.369 211.035C116.952 196.536 126.936 183.622 132.281 178.156L132.282 178.155C136.463 173.874 147.085 160.113 158.435 145.614C169.458 131.531 181.185 116.728 188.494 109.036L189.187 108.314C191.127 106.315 193.218 105.82 195.251 106.26C197.326 106.708 199.411 108.149 201.223 110.158C203.03 112.161 204.522 114.682 205.426 117.202C206.333 119.732 206.624 122.194 206.118 124.105L206.118 124.106C205.327 127.095 202.853 132.087 199.469 138.049C196.098 143.989 191.86 150.83 187.587 157.489C179.042 170.81 170.382 183.373 168.269 186.536L168.268 186.537C166.632 188.99 162.268 196.9 157.535 205.67C152.792 214.458 147.656 224.153 144.46 230.209L144.281 230.568C142.563 234.177 143.206 238.47 145.914 241.405L146.191 241.694L158.452 253.961C159.675 255.19 161.197 256.063 162.866 256.504L163.202 256.587L206.552 266.44L206.553 266.441C206.589 266.449 206.693 266.49 206.868 266.629C207.036 266.762 207.235 266.955 207.463 267.211C207.918 267.723 208.449 268.441 209.031 269.316C210.195 271.061 211.527 273.369 212.824 275.746C215.111 279.937 217.219 284.2 218.154 286.031L218.48 286.659C221.7 292.709 226.936 300.643 232.973 309.72C239.017 318.808 245.878 329.06 252.373 339.778C267.837 365.306 269.158 384.794 268.059 404.069L268.06 404.07C266.731 427.506 258.695 448.559 253.802 457.464L253.339 458.288C251.659 461.19 250.633 464.431 250.354 467.775C250.353 467.781 250.353 467.787 250.353 467.793L238.988 685.683L238.987 685.715C238.987 688.291 237.797 691.087 235.913 693.413C234.03 695.737 231.511 697.52 228.947 698.133C216.972 700.994 191.564 706.195 163.162 701.546C132.289 696.494 116.111 686.564 105.119 677.117C103.64 675.842 102.276 673.654 101.367 671.012C100.462 668.378 100.028 665.347 100.358 662.424C101.739 650.191 110.922 599.132 119.876 549.035C124.352 523.997 128.767 499.21 132.117 479.657C135.462 460.13 137.755 445.765 137.97 441.618C138.027 440.504 137.809 439.026 137.378 437.263C136.945 435.489 136.285 433.385 135.435 431.004C133.733 426.24 131.251 420.332 128.231 413.672C122.19 400.35 113.979 383.985 105.511 367.694C88.5838 335.129 70.5758 302.771 66.8123 295.651C63.1465 288.716 64.0503 280.581 66.7302 272.885Z" fill="#FFCE9B" stroke="#082422" stroke-width="1.19671" stroke-miterlimit="10" stroke-linecap="round" stroke-linejoin="round"/>
<path d="M113.257 21.3786C113.128 21.3114 112.971 21.3248 112.854 21.4131C96.0482 34.222 79.2403 47.0348 62.4328 59.8473C45.6254 72.6598 28.8181 85.4723 12.012 98.2811C11.9093 98.3594 11.8532 98.4849 11.8642 98.6136C11.8753 98.7423 11.9519 98.8567 12.0666 98.9163C51.3933 119.341 68.1589 156.971 84.9771 194.751C101.778 232.491 118.631 270.38 158.225 290.94C158.355 291.007 158.512 290.993 158.628 290.905C175.434 278.096 192.242 265.284 209.049 252.472C225.857 239.659 242.665 226.847 259.471 214.038C259.573 213.959 259.628 213.833 259.617 213.705C259.606 213.576 259.53 213.462 259.415 213.403C220.089 192.978 203.324 155.348 186.506 117.568C169.705 79.8282 152.851 41.9385 113.257 21.3786Z" fill="#60D06F" stroke="#082422" stroke-width="0.754734" stroke-miterlimit="10" stroke-linecap="round" stroke-linejoin="round"/>
<path d="M96.688 53.3514C97.3173 52.8683 98.1428 52.6738 98.9436 52.7073C99.7456 52.7408 100.563 53.0033 101.189 53.4807C101.208 53.495 101.223 53.5129 101.238 53.53C109.282 59.6267 120.805 60.6823 128.51 54.804L128.51 54.8028C129.411 54.1212 130.809 54.1421 131.621 55.0145L131.622 55.0143C150.596 75.4445 162.176 101.495 173.741 127.465C185.316 153.457 196.874 179.37 215.792 199.66L215.793 199.659C216.623 200.551 216.429 201.852 215.503 202.554L215.504 202.555C211.671 205.476 209.526 209.576 209.327 213.684C209.134 217.657 210.758 221.664 214.487 224.657L214.855 224.944L214.856 224.945C215.423 225.378 215.787 225.967 215.843 226.589C215.901 227.225 215.633 227.843 215.043 228.293L174.804 258.979C174.224 259.421 173.472 259.6 172.743 259.573C172.013 259.546 171.27 259.311 170.694 258.878L170.691 258.878C162.629 252.76 151.054 251.679 143.33 257.571C142.336 258.332 140.758 258.326 139.858 257.343C120.932 236.976 109.36 211.016 97.8284 185.117C86.2863 159.196 74.7832 133.337 56 113.04L56.0008 113.038C55.0743 112.042 55.3121 110.59 56.3362 109.821C60.1686 106.899 62.314 102.8 62.5167 98.6887C62.719 94.5845 60.9874 90.4415 57.0101 87.4082C56.3865 86.9329 55.9919 86.2888 55.93 85.6118C55.867 84.9226 56.1543 84.2489 56.7928 83.7582L56.7936 83.7571L96.6878 53.3505L96.688 53.3514Z" fill="#80E58A" stroke="black" stroke-width="0.754734" stroke-miterlimit="10" stroke-linecap="round" stroke-linejoin="round"/>
<path d="M113.691 90.5357C108.95 89.8685 104.738 90.6839 101.547 93.1199C98.2428 95.6398 96.3767 99.6116 95.6655 104.69C94.9994 109.447 95.305 115.225 96.3157 121.806L96.5267 123.133L96.5279 123.136C98.9677 137.351 104.115 155.638 112.177 174.012C120.244 192.4 130.629 206.747 141.56 214.569C146.978 218.511 152.435 220.911 157.355 221.703C162.275 222.495 166.668 221.702 169.961 219.187L169.961 219.186C173.265 216.667 175.132 212.695 175.843 207.617C176.553 202.543 176.162 196.317 174.98 189.173L174.98 189.171C172.541 174.956 167.393 156.67 159.332 138.296C151.389 120.193 141.201 106.005 130.458 98.1063L129.946 97.7353C124.529 93.794 119.072 91.3967 114.152 90.6047L113.691 90.5357Z" fill="#60D06F" stroke="#082422" stroke-width="0.754734" stroke-miterlimit="10" stroke-linecap="round" stroke-linejoin="round"/>
<path d="M310.692 53.2685C310.647 53.1296 310.526 53.0286 310.381 53.0097C289.425 50.2972 268.465 47.5863 247.506 44.8755C226.546 42.1647 205.587 39.4541 184.631 36.7417C184.503 36.7251 184.374 36.7749 184.292 36.8741C184.209 36.9734 184.183 37.1086 184.223 37.2316C197.818 79.409 183.275 117.952 168.663 156.639C154.067 195.285 139.403 234.075 153.094 276.536C153.139 276.675 153.26 276.775 153.405 276.794C174.361 279.506 195.32 282.218 216.279 284.929C237.239 287.639 258.199 290.35 279.155 293.063C279.283 293.079 279.411 293.028 279.493 292.929C279.576 292.83 279.602 292.695 279.562 292.573C265.967 250.395 280.511 211.852 295.123 173.166C309.719 134.52 324.382 95.7297 310.692 53.2685Z" fill="#60D06F" stroke="#082422" stroke-width="0.754734" stroke-miterlimit="10" stroke-linecap="round" stroke-linejoin="round"/>
<path d="M276.431 64.3438C277.218 64.4428 277.942 64.8851 278.487 65.4721C279.034 66.0599 279.43 66.8211 279.54 67.6011C279.543 67.6244 279.541 67.6475 279.54 67.6705C280.972 77.662 288.421 86.5157 298.033 87.7549L298.034 87.7547C299.154 87.9037 300.133 88.9017 300.097 90.0929L300.098 90.0935C299.219 117.961 289.133 144.626 279.091 171.222C269.041 197.841 259.035 224.392 258.217 252.12L258.218 252.121C258.18 253.338 257.128 254.127 255.976 253.975L255.976 253.976C251.197 253.358 246.788 254.764 243.758 257.544C240.827 260.233 239.163 264.224 239.709 268.974L239.769 269.437L239.769 269.438C239.868 270.146 239.713 270.82 239.315 271.302C238.909 271.794 238.284 272.046 237.548 271.951L187.36 265.469C186.638 265.375 185.977 264.973 185.477 264.441C184.977 263.909 184.614 263.219 184.509 262.507L184.508 262.505C183.078 252.485 175.609 243.576 165.974 242.334C164.732 242.175 163.614 241.062 163.666 239.73C164.534 211.941 174.564 185.346 184.578 158.824C194.601 132.279 204.608 105.804 205.528 78.1652L205.53 78.165C205.572 76.8047 206.762 75.94 208.031 76.1131C212.81 76.7315 217.218 75.3255 220.254 72.5453C223.284 69.7697 224.966 65.6065 224.272 60.653C224.163 59.8766 224.335 59.1412 224.767 58.6163C225.207 58.082 225.885 57.8051 226.684 57.9053L226.685 57.9051L276.431 64.343L276.431 64.3438Z" fill="#80E58A" stroke="black" stroke-width="0.754734" stroke-miterlimit="10" stroke-linecap="round" stroke-linejoin="round"/>
<path d="M262.362 102.738C259.46 98.9289 255.892 96.5465 251.911 96.0346C247.789 95.5023 243.67 97.0138 239.592 100.124C235.774 103.038 231.928 107.36 228.018 112.75L227.235 113.842L227.234 113.845C218.971 125.667 209.771 142.287 202.581 161.019C195.385 179.766 192.678 197.269 194.949 210.517C196.028 217.13 198.221 222.674 201.162 226.697C204.103 230.72 207.783 233.245 211.893 233.774L211.893 233.773C216.015 234.305 220.134 232.794 224.211 229.684C228.285 226.577 232.385 221.875 236.569 215.965L236.57 215.964C244.833 204.141 254.033 187.521 261.223 168.789C268.307 150.333 271.041 133.082 268.958 119.911L268.855 119.288C267.776 112.676 265.582 107.134 262.641 103.111L262.362 102.738Z" fill="#60D06F" stroke="#082422" stroke-width="0.754734" stroke-miterlimit="10" stroke-linecap="round" stroke-linejoin="round"/>
<path opacity="0.25" d="M180.964 150.609C185.999 116.457 189.206 81.8221 207.901 53.2621C204.193 87.5265 217.199 120.131 228.182 152.721C239.412 186.042 248.548 219.387 236.061 254.852C226.715 255.773 217.366 256.695 208.017 257.618C198.587 258.548 189.157 259.479 179.731 260.408C167.043 255.439 154.344 250.468 141.646 245.496C168.866 219.314 175.859 185.235 180.964 150.609Z" fill="black" stroke="#082422" stroke-width="1.19671" stroke-linecap="round" stroke-linejoin="round"/>
<path d="M192.379 27.1109C192.284 26.9995 192.134 26.9522 191.993 26.9898C171.582 32.4584 151.168 37.9298 130.754 43.4013C110.341 48.8727 89.9271 54.3442 69.5162 59.8127C69.3915 59.8461 69.2919 59.941 69.2532 60.0642C69.2146 60.1875 69.2421 60.3224 69.3255 60.421C97.9521 94.2483 99.1745 135.426 100.389 176.762C101.602 218.055 102.807 259.506 131.63 293.56C131.724 293.671 131.875 293.718 132.016 293.68C152.426 288.212 172.84 282.741 193.253 277.27C213.667 271.798 234.081 266.327 254.492 260.858C254.617 260.825 254.716 260.729 254.754 260.606C254.793 260.482 254.765 260.348 254.682 260.25C226.055 226.423 224.834 185.245 223.62 143.909C222.407 102.616 221.201 61.1645 192.379 27.1109Z" fill="#60D06F" stroke="#082422" stroke-width="0.754734" stroke-miterlimit="10" stroke-linecap="round" stroke-linejoin="round"/>
<path d="M164.915 50.3982C165.681 50.1901 166.518 50.3237 167.247 50.6587C167.976 50.9942 168.632 51.5473 169.03 52.2268C169.042 52.2471 169.049 52.2693 169.057 52.2909C174.184 60.9854 184.443 66.3369 193.802 63.8243L193.804 63.8235C194.896 63.535 196.181 64.0852 196.601 65.2005L196.602 65.2007C206.398 91.3049 207.22 119.802 208.058 148.218C208.897 176.659 209.75 205.019 219.549 230.972L219.549 230.973C219.978 232.112 219.306 233.242 218.182 233.54L218.182 233.541C213.528 234.788 209.987 237.767 208.242 241.492C206.555 245.094 206.536 249.417 208.85 253.602L209.081 254.007L209.082 254.009C209.442 254.625 209.555 255.307 209.371 255.905C209.183 256.515 208.7 256.985 207.984 257.177L159.107 270.287C158.403 270.475 157.639 270.355 156.974 270.054C156.31 269.752 155.711 269.252 155.342 268.633L155.341 268.632C150.205 259.911 139.907 254.516 130.525 257.034C129.316 257.36 127.858 256.756 127.399 255.505C117.623 229.477 116.775 201.067 115.94 172.729C115.105 144.367 114.281 116.077 104.611 90.1677L104.612 90.167C104.134 88.893 104.905 87.6405 106.144 87.3175C110.799 86.0702 114.34 83.092 116.089 79.3658C117.834 75.6458 117.806 71.1556 115.278 66.8393C114.881 66.1628 114.761 65.4172 114.961 64.7673C115.164 64.1058 115.686 63.5916 116.463 63.3802L116.464 63.3794L164.915 50.3972L164.915 50.3982Z" fill="#80E58A" stroke="black" stroke-width="0.754734" stroke-miterlimit="10" stroke-linecap="round" stroke-linejoin="round"/>
<path d="M166.52 91.2532C162.386 88.8356 158.18 87.9906 154.304 89.0328C150.29 90.1094 147.056 93.0752 144.469 97.5034C142.047 101.651 140.136 107.112 138.572 113.585L138.263 114.892L138.264 114.895C135.123 128.973 132.942 147.844 133.423 167.903C133.905 187.977 138.065 205.193 145.207 216.579C148.722 222.283 152.86 226.575 157.111 229.177C161.362 231.777 165.727 232.711 169.728 231.636L169.728 231.635C173.742 230.558 176.976 227.593 179.562 223.165C182.146 218.741 184.148 212.833 185.767 205.775L185.768 205.773C188.909 191.696 191.09 172.825 190.608 152.766C190.134 133.003 186.096 116.01 179.156 104.623L178.824 104.085C175.309 98.3824 171.17 94.0927 166.92 91.492L166.52 91.2532Z" fill="#60D06F" stroke="#082422" stroke-width="0.754734" stroke-miterlimit="10" stroke-linecap="round" stroke-linejoin="round"/>
<path d="M251.182 461.897C250.257 463.216 248.929 464.914 247.096 466.839C243.327 470.796 237.425 475.722 228.525 480.313L251.182 461.897Z" stroke="#082422" stroke-width="1.19671" stroke-miterlimit="10" stroke-linecap="round" stroke-linejoin="round"/>
<mask id="path-20-inside-2_15015_18893" fill="white">
<path d="M229.022 302.732C229.022 302.732 212.881 278.28 219.215 247.034C224.595 220.504 224.93 170.5 218.631 159.98C216.037 155.657 211.407 153.25 206.872 151.92C200.182 149.959 193.227 154.055 191.702 160.858C188.563 174.897 182.914 199.619 178.86 214.217C172.969 235.449 152.117 299.147 152.117 299.147"/>
</mask>
<path d="M229.022 302.732C229.022 302.732 212.881 278.28 219.215 247.034C224.595 220.504 224.93 170.5 218.631 159.98C216.037 155.657 211.407 153.25 206.872 151.92C200.182 149.959 193.227 154.055 191.702 160.858C188.563 174.897 182.914 199.619 178.86 214.217C172.969 235.449 152.117 299.147 152.117 299.147" fill="#FFCE9B"/>
<path d="M228.023 303.391C228.387 303.942 229.13 304.094 229.681 303.73C230.233 303.366 230.385 302.624 230.021 302.072L229.022 302.732L228.023 303.391ZM219.215 247.034L218.042 246.796L218.042 246.796L219.215 247.034ZM218.631 159.98L219.658 159.365L219.657 159.364L218.631 159.98ZM206.872 151.92L206.535 153.069L206.535 153.069L206.872 151.92ZM191.702 160.858L190.534 160.596L190.534 160.597L191.702 160.858ZM178.86 214.217L177.707 213.896L177.707 213.897L178.86 214.217ZM150.979 298.774C150.774 299.403 151.116 300.078 151.744 300.284C152.372 300.49 153.048 300.147 153.254 299.519L152.117 299.147L150.979 298.774ZM229.022 302.732C230.021 302.072 230.021 302.073 230.021 302.073C230.021 302.073 230.021 302.073 230.021 302.073C230.021 302.072 230.02 302.072 230.02 302.071C230.019 302.069 230.016 302.065 230.013 302.061C230.007 302.051 229.996 302.035 229.983 302.014C229.955 301.97 229.913 301.904 229.857 301.815C229.746 301.637 229.581 301.369 229.372 301.013C228.955 300.303 228.361 299.247 227.666 297.88C226.275 295.146 224.481 291.171 222.882 286.231C219.682 276.348 217.273 262.638 220.388 247.272L219.215 247.034L218.042 246.796C214.823 262.675 217.318 276.815 220.605 286.969C222.249 292.047 224.095 296.139 225.532 298.965C226.251 300.379 226.869 301.478 227.309 302.226C227.529 302.601 227.705 302.888 227.827 303.084C227.889 303.181 227.936 303.256 227.969 303.308C227.986 303.333 227.999 303.353 228.008 303.367C228.012 303.374 228.016 303.379 228.018 303.383C228.02 303.385 228.021 303.387 228.022 303.388C228.022 303.389 228.022 303.39 228.023 303.39C228.023 303.39 228.023 303.391 229.022 302.732ZM219.215 247.034L220.388 247.272C223.099 233.901 224.531 214.681 224.499 197.501C224.484 188.906 224.102 180.792 223.325 174.15C222.936 170.83 222.447 167.86 221.849 165.373C221.255 162.904 220.538 160.835 219.658 159.365L218.631 159.98L217.604 160.595C218.299 161.755 218.949 163.549 219.522 165.933C220.09 168.297 220.566 171.167 220.948 174.429C221.711 180.951 222.09 188.968 222.106 197.505C222.137 214.59 220.711 233.637 218.042 246.796L219.215 247.034ZM218.631 159.98L219.657 159.364C216.839 154.667 211.868 152.138 207.208 150.772L206.872 151.92L206.535 153.069C210.945 154.362 215.236 156.646 217.605 160.596L218.631 159.98ZM206.872 151.92L207.208 150.772C199.855 148.616 192.211 153.119 190.534 160.596L191.702 160.858L192.87 161.12C194.244 154.992 200.508 151.302 206.535 153.069L206.872 151.92ZM191.702 160.858L190.534 160.597C187.394 174.641 181.752 199.333 177.707 213.896L178.86 214.217L180.013 214.537C184.077 199.905 189.732 175.152 192.87 161.119L191.702 160.858ZM178.86 214.217L177.707 213.897C174.769 224.486 168.091 245.694 162.139 264.279C159.165 273.566 156.375 282.19 154.329 288.493C153.305 291.644 152.468 294.214 151.886 295.997C151.596 296.889 151.369 297.583 151.215 298.054C151.138 298.29 151.079 298.47 151.039 298.591C151.019 298.652 151.004 298.698 150.994 298.728C150.989 298.744 150.986 298.755 150.983 298.763C150.982 298.767 150.981 298.77 150.98 298.772C150.98 298.773 150.98 298.773 150.98 298.774C150.979 298.774 150.979 298.774 152.117 299.147C153.254 299.519 153.254 299.519 153.254 299.518C153.254 299.518 153.255 299.517 153.255 299.516C153.256 299.514 153.256 299.511 153.258 299.507C153.26 299.5 153.264 299.488 153.269 299.473C153.279 299.442 153.294 299.396 153.314 299.335C153.354 299.214 153.413 299.034 153.49 298.798C153.644 298.326 153.871 297.631 154.162 296.739C154.744 294.956 155.581 292.384 156.605 289.232C158.652 282.927 161.443 274.3 164.419 265.009C170.366 246.437 177.06 225.18 180.013 214.536L178.86 214.217Z" fill="#082422" mask="url(#path-20-inside-2_15015_18893)"/>
<path d="M192.274 160.887C192.525 159.852 192.906 158.886 193.388 157.995C196.26 156.476 199.475 156.78 202.054 157.522C203.359 157.897 204.478 158.377 205.271 158.764C205.667 158.957 205.979 159.127 206.192 159.247C206.199 159.251 206.205 159.255 206.211 159.259C206.204 159.411 206.195 159.609 206.182 159.848C206.15 160.456 206.099 161.331 206.029 162.397C205.888 164.531 205.666 167.429 205.34 170.486C205.013 173.544 204.583 176.753 204.028 179.513C203.468 182.301 202.797 184.537 202.029 185.723L202.029 185.722C201.364 186.745 200.172 187.455 198.622 187.911C197.08 188.364 195.258 188.546 193.444 188.569C190.398 188.608 187.455 188.203 186.057 187.975C188.416 178.039 190.668 168.125 192.263 160.972C192.269 160.944 192.272 160.915 192.274 160.887Z" fill="#FFCE9B" stroke="#082422" stroke-width="1.19671" stroke-miterlimit="10" stroke-linecap="round" stroke-linejoin="round"/>
</g>
<defs>
<clipPath id="clip0_15015_18893">
<rect width="327" height="713" fill="white"/>
</clipPath>
</defs>
</svg>
