<svg width="696" height="646" viewBox="0 0 696 646" fill="none" xmlns="http://www.w3.org/2000/svg">
<g clip-path="url(#clip0_15017_12243)">
<path d="M371.782 164.584C371.782 164.584 362.658 159.543 355.936 157.117C355.377 156.924 354.844 156.756 354.339 156.64C355.488 163.829 355.011 170.49 354.535 174.645C354.244 177.133 353.774 179.785 352.118 181.63C354.221 183.937 356.816 185.965 359.87 187.478C373.8 194.398 378.755 196.009 378.755 196.009L371.782 164.584Z" fill="#E1776E"/>
<path d="M371.793 164.582C371.793 164.582 362.668 159.541 355.947 157.115C340.023 151.366 332.358 179.765 359.936 190.085C373.866 197.005 378.739 196.008 378.739 196.008" fill="#FFCE9B"/>
<path d="M371.793 164.582C371.793 164.582 362.668 159.541 355.947 157.115C340.023 151.366 332.358 179.765 359.936 190.085C373.866 197.005 378.739 196.008 378.739 196.008" stroke="#082422" stroke-width="0.457583" stroke-miterlimit="10"/>
<path d="M370.329 231.768C350.286 229.782 332.502 226.198 332.306 211.128C332.227 205.002 339.104 197.252 355.435 196.768L372.665 196.227" fill="#FFCE9B"/>
<path d="M370.329 231.768C350.286 229.782 332.502 226.198 332.306 211.128C332.227 205.002 339.104 197.252 355.435 196.768L372.665 196.227" stroke="#082422" stroke-width="0.457583" stroke-miterlimit="10"/>
<path d="M539.64 639.28C533.7 625.622 523.709 601.385 522.49 598.68C497.854 544.021 470.012 459.705 434.368 425.027C415.859 409.179 409.619 399.41 395.113 380.009C388.479 371.146 380.817 363.132 374.158 354.296C371.324 350.535 368.539 348.355 364.801 346.02C361.492 343.961 359.018 341.587 357.504 337.889C355.876 333.906 355.318 333.765 355.657 329.456C356.181 322.636 360.992 315.444 366.975 311.986C369.954 310.258 373.386 309.544 376.769 308.963C382.041 308.059 387.349 307.444 392.693 307.144C397.246 306.869 400.537 307.531 404.834 308.345C409.875 309.321 415.826 308.184 420.934 307.945C426.833 307.681 432.705 307.417 438.611 307.39C457.199 307.281 477.242 308.998 492.659 320.46C504.323 329.112 511.516 342.362 518.353 355.174C532.532 381.785 546.71 408.369 560.889 434.98C564.224 441.23 567.613 447.558 572.418 452.76C577.85 458.629 665.151 630.512 671.704 635.106" fill="#FFCE9B"/>
<path d="M539.64 639.28C533.7 625.622 523.709 601.385 522.49 598.68C497.854 544.021 470.012 459.705 434.368 425.027C415.859 409.179 409.619 399.41 395.113 380.009C388.479 371.146 380.817 363.132 374.158 354.296C371.324 350.535 368.539 348.355 364.801 346.02C361.492 343.961 359.018 341.587 357.504 337.889C355.876 333.906 355.318 333.765 355.657 329.456C356.181 322.636 360.992 315.444 366.975 311.986C369.954 310.258 373.386 309.544 376.769 308.963C382.041 308.059 387.349 307.444 392.693 307.144C397.246 306.869 400.537 307.531 404.834 308.345C409.875 309.321 415.826 308.184 420.934 307.945C426.833 307.681 432.705 307.417 438.611 307.39C457.199 307.281 477.242 308.998 492.659 320.46C504.323 329.112 511.516 342.362 518.353 355.174C532.532 381.785 546.71 408.369 560.889 434.98C564.224 441.23 567.613 447.558 572.418 452.76C577.85 458.629 665.151 630.512 671.704 635.106" stroke="#082422" stroke-width="0.457583" stroke-miterlimit="10"/>
<path d="M354.681 263.216C351.758 265.048 347.755 269.393 346.732 275.464C346.023 279.759 347.563 279.262 350.101 282.821C355.511 290.483 365.579 294.518 374.779 292.726C383.402 291.058 391.234 283.507 391.091 274.731C390.951 266.929 384.751 259.292 377.347 256.94C369.356 254.396 361.483 258.968 354.681 263.216Z" fill="#FFCE9B" stroke="#082422" stroke-width="0.457583" stroke-miterlimit="10"/>
<path d="M377.544 336.998C378.872 348.19 389.092 356.229 400.283 354.875L504.74 342.392C515.932 341.064 523.971 330.844 522.617 319.653L492.641 68.8097C491.314 57.6175 481.093 49.5791 469.902 50.9326L365.445 63.4163C354.253 64.7435 346.215 74.964 347.568 86.1552L377.544 336.998Z" fill="#2BF2F1" stroke="#082422" stroke-width="0.457583" stroke-miterlimit="10"/>
<path d="M502.582 151.305L503.217 151.227C503.68 151.183 504.017 150.738 503.973 150.272L499.913 116.277C499.869 115.814 499.423 115.477 498.958 115.521L498.322 115.599L502.582 151.302L502.582 151.305Z" fill="#2BF2F1" stroke="#082422" stroke-width="0.457583" stroke-miterlimit="10"/>
<path d="M470.771 56.0275C479.576 55.1926 487.518 61.5554 488.58 70.3886L518.299 319.088C518.82 323.428 517.615 327.719 514.908 331.162C512.282 334.498 508.549 336.655 504.363 337.261L503.957 337.315L400.393 349.692C399.904 349.75 399.417 349.786 398.932 349.801L398.932 349.802L398.929 349.802L398.929 349.801C395.098 349.921 391.377 348.701 388.321 346.298C384.985 343.672 382.829 339.939 382.223 335.753L382.169 335.347L352.447 86.6502C351.926 82.3103 353.131 78.0194 355.839 74.5759L355.84 74.5759C358.55 71.1323 362.439 68.9452 366.79 68.4234L377.603 67.142L454.909 57.916L470.351 56.0729L470.771 56.0275ZM472.022 62.9516C471.745 62.9603 471.467 62.9819 471.186 63.014L471.176 63.0153L471.173 63.0154L455.739 64.8591L378.431 74.0852L367.617 75.3667C365.124 75.6665 362.891 76.9205 361.334 78.9007C359.779 80.8782 359.089 83.3348 359.389 85.8225L389.107 334.522C389.407 337.02 390.661 339.251 392.641 340.809C394.619 342.364 397.076 343.053 399.563 342.754L503.129 330.376C505.628 330.077 507.858 328.823 509.416 326.842C510.971 324.865 511.66 322.409 511.361 319.922L481.642 71.2221C481.057 66.3598 476.831 62.8006 472.024 62.9515L472.022 62.9516Z" fill="#2BF2F1" stroke="#082422" stroke-width="0.457583" stroke-miterlimit="10"/>
<path d="M471.044 58.0716C478.289 57.2 484.892 62.3861 485.764 69.6308L515.741 320.475C516.612 327.72 511.425 334.322 504.154 335.194L399.697 347.678C392.452 348.55 385.85 343.363 384.978 336.092L355.001 85.2489C354.13 78.0039 359.316 71.4019 366.587 70.5294L366.588 70.5293L377.49 69.2373L455.466 59.9326L471.044 58.0725L471.044 58.0716Z" fill="white" stroke="#082422" stroke-width="0.457583" stroke-miterlimit="10"/>
<path d="M471.072 58.2988L455.493 60.1593L377.518 69.4644L366.615 70.7561C359.469 71.6134 354.372 78.1024 355.229 85.2219L385.205 336.065C386.062 343.211 392.551 348.307 399.67 347.451L504.127 334.967C511.273 334.11 516.37 327.621 515.513 320.502L485.537 69.6585C484.681 62.539 478.192 57.4423 471.072 58.2988Z" stroke="#082422" stroke-width="0.457583" stroke-miterlimit="10"/>
<path d="M365.802 171.825C377.491 134.636 415.738 71.4516 460.564 109.47C479.586 125.604 482.927 150.58 480.531 174.109C474.477 233.674 426.696 287.371 383.972 325.639L365.558 171.541C365.64 171.633 365.72 171.727 365.801 171.818L365.802 171.825Z" fill="#FF5A00"/>
<g style="mix-blend-mode:multiply" opacity="0.1">
<path d="M519.384 326.218L504.708 203.263C504.026 205.639 503.669 208.151 503.396 210.543C501.451 228.193 502.546 245.516 499.55 263.054C494.464 292.722 490.538 319.535 476.795 345.754L506.831 342.166C514.71 341.22 520.33 334.094 519.384 326.218Z" fill="#082422"/>
</g>
<path d="M599.35 637.629L695.214 634.513C677.049 607.764 598.099 475.655 581.52 446.15C567.679 421.518 553.115 398.068 552.437 369.768C552.217 360.255 559.362 317.175 548.463 268.49C545.677 255.672 539.022 231.461 534.558 219.478C533.338 216.645 526.973 202.737 525.246 200.214C521.877 195.297 516.039 192.801 508.602 196.987C500.528 202.196 503.178 223.86 503.538 231.971C504.729 258.99 508.516 290.563 499.421 318.353C493.083 337.702 472.659 346.708 470.884 372.889C470.269 381.945 472.677 390.931 477.486 398.627C478.663 400.513 479.908 402.357 481.17 404.173" fill="#FFCE9B"/>
<path d="M599.35 637.629L695.214 634.513C677.049 607.764 598.099 475.655 581.52 446.15C567.679 421.518 553.115 398.068 552.437 369.768C552.217 360.255 559.362 317.175 548.463 268.49C545.677 255.672 539.022 231.461 534.558 219.478C533.338 216.645 526.973 202.737 525.246 200.214C521.877 195.297 516.039 192.801 508.602 196.987C500.528 202.196 503.178 223.86 503.538 231.971C504.729 258.99 508.516 290.563 499.421 318.353C493.083 337.702 472.659 346.708 470.884 372.889C470.269 381.945 472.677 390.931 477.486 398.627C478.663 400.513 479.908 402.357 481.17 404.173" stroke="#082422" stroke-width="0.457583" stroke-miterlimit="10"/>
<path d="M534.556 219.483C533.336 216.649 526.971 202.741 525.243 200.219C525.044 199.93 524.838 199.649 524.621 199.376L517.784 201.927C517.539 202.019 517.41 202.29 517.497 202.535L517.602 202.838C517.768 203.254 521.465 213.489 528.094 219.628C529.358 220.809 531.026 221.524 532.595 221.609C532.92 221.628 533.273 221.62 533.57 221.608C534.122 221.532 534.626 221.379 535.153 221.11C534.954 220.565 534.752 220.02 534.553 219.483L534.556 219.483Z" stroke="#082422" stroke-width="0.457583" stroke-miterlimit="10"/>
<path d="M385.872 360.703C395.828 361.155 402.942 355.104 398.475 344.67C396.767 340.689 393.635 337.517 390.407 334.665C385.796 330.564 380.854 326.87 375.636 323.605C373.995 322.576 372.302 321.574 370.416 321.132C367.971 320.55 365.426 320.946 363.02 321.602C355.972 323.548 354.863 329.458 356.169 335.537C357.16 340.147 359.578 344.816 361.64 348.174C367.003 356.892 375.97 360.276 385.872 360.703Z" fill="#FFCE9B"/>
<path d="M355.571 331.295C355.408 337.099 358.871 343.662 361.642 348.177C367.005 356.895 375.972 360.279 385.874 360.706C395.83 361.158 402.945 355.107 398.477 344.673C396.769 340.692 393.637 337.52 390.41 334.668C385.866 330.628 380.958 326.943 375.826 323.716" stroke="#082422" stroke-width="0.457583" stroke-miterlimit="10" stroke-linecap="round"/>
<path d="M386.116 308.017C387.6 306.797 388.808 305.291 389.444 303.456C391.775 296.925 386.862 288.43 382.814 283.565C378.211 278.051 373.779 273.786 367.431 270.488C364.474 268.954 359.705 267.582 356.392 267.473C353.079 267.363 349.493 268.784 347.93 271.689C346.595 274.16 346.023 278.956 346.111 281.756C346.521 295.678 364.617 316.915 381.162 310.792C382.877 310.176 384.636 309.24 386.119 308.02L386.116 308.017Z" fill="#FFCE9B"/>
<path d="M347.863 271.544C347.34 272.765 347.22 273.323 346.959 274.325C346.319 276.779 346.051 279.77 346.114 281.759C346.525 295.68 364.62 316.918 381.165 310.794C382.88 310.179 384.639 309.243 386.122 308.023C387.606 306.803 388.813 305.296 389.449 303.462C391.781 296.93 386.868 288.435 382.82 283.57C378.217 278.056 373.784 273.791 367.436 270.494" stroke="#082422" stroke-width="0.457583" stroke-miterlimit="10"/>
<path d="M382.457 358.647C382.073 358.659 381.387 358.414 379.17 357.421C378.063 356.923 376.381 356.121 376.051 355.923C373.548 354.319 371.718 352.486 370.593 350.483C369.058 347.725 369.044 344.416 370.567 342.124C371.836 340.194 373.963 339.241 376.539 339.484C385.604 340.292 388.693 344.598 388.846 344.77L389.216 345.291L388.847 345.804C385.591 350.278 383.707 355.211 383.348 357.88L383.273 358.355L382.808 358.575C382.69 358.579 382.605 358.639 382.457 358.644L382.457 358.647Z" stroke="#082422" stroke-width="0.457583" stroke-miterlimit="10"/>
<path d="M370.095 306.595L369.158 305.807C363.378 300.928 360.164 296.691 359.059 292.482C358.171 289.211 359.303 285.215 361.715 283.001C363.884 281.015 366.886 280.544 370.129 281.732C376.521 284.047 381.945 290.696 382.176 290.971L382.766 291.706L382.03 292.296C381.937 292.363 373.567 299.068 370.625 305.478L370.093 306.595L370.095 306.595Z" stroke="#082422" stroke-width="0.457583" stroke-miterlimit="10"/>
<path d="M431.92 66.9995L406.747 69.9962C403.603 70.3704 401.358 73.2219 401.732 76.3651C402.106 79.5082 404.958 81.7529 408.102 81.3786L433.275 78.382C436.419 78.0077 438.664 75.1562 438.29 72.0131C437.916 68.8699 435.064 66.6252 431.92 66.9995Z" fill="#2BF2F1" stroke="#082422" stroke-width="0.457583" stroke-miterlimit="10"/>
<g opacity="0.2">
<mask id="mask0_15017_12243" style="mask-type:alpha" maskUnits="userSpaceOnUse" x="332" y="50" width="364" height="590">
<path d="M371.672 164.575C371.672 164.575 362.548 159.534 355.827 157.108C355.267 156.915 354.734 156.747 354.229 156.631C355.378 163.821 354.902 170.481 354.426 174.636C354.135 177.124 353.664 179.776 352.008 181.621C354.111 183.928 356.706 185.956 359.76 187.469C373.69 194.389 378.645 196 378.645 196L371.672 164.575Z" fill="#2BF2F1"/>
<path d="M371.672 164.574C371.672 164.574 362.548 159.534 355.826 157.108C339.903 151.358 332.237 179.757 359.815 190.078C373.745 196.997 378.619 196.001 378.619 196.001" fill="#2BF2F1"/>
<path d="M370.219 231.759C350.176 229.772 332.392 226.188 332.196 211.118C332.117 204.992 338.994 197.242 355.325 196.758L372.555 196.217" fill="#2BF2F1"/>
<path d="M539.524 639.273C533.583 625.615 523.593 601.378 522.374 598.674C497.738 544.014 469.896 459.698 434.252 425.02C415.743 409.173 409.503 399.403 394.997 380.002C388.363 371.139 380.701 363.125 374.042 354.29C371.208 350.528 368.423 348.348 364.684 346.013C361.376 343.955 358.902 341.58 357.388 337.883C355.76 333.899 355.202 333.759 355.541 329.449C356.065 322.629 360.876 315.437 366.859 311.98C369.837 310.251 373.269 309.537 376.653 308.956C381.925 308.052 387.233 307.437 392.576 307.137C397.13 306.863 400.421 307.524 404.718 308.338C409.759 309.314 415.71 308.178 420.818 307.938C426.717 307.674 432.589 307.41 438.495 307.383C457.083 307.274 477.125 308.991 492.543 320.453C504.206 329.105 511.4 342.355 518.237 355.167C532.416 381.778 546.594 408.362 560.773 434.973C564.107 441.223 567.497 447.551 572.302 452.754C577.734 458.622 665.035 630.505 671.587 635.099" fill="#2BF2F1"/>
<path d="M354.566 263.208C351.644 265.04 347.64 269.385 346.618 275.456C345.909 279.751 347.449 279.254 349.987 282.813C355.396 290.475 365.464 294.51 374.664 292.718C383.288 291.05 391.12 283.499 390.976 274.723C390.837 266.921 384.637 259.284 377.232 256.932C369.241 254.388 361.368 258.96 354.566 263.208Z" fill="#2BF2F1"/>
<path d="M377.426 336.99C378.753 348.182 388.974 356.22 400.165 354.867L504.622 342.383C515.814 341.056 523.852 330.835 522.499 319.644L492.523 68.8011C491.196 57.609 480.975 49.5706 469.784 50.9241L365.327 63.4078C354.135 64.735 346.097 74.9554 347.45 86.1467L377.426 336.99Z" fill="#2BF2F1"/>
<path d="M502.469 151.298L503.105 151.22C503.568 151.177 503.905 150.731 503.861 150.266L499.8 116.27C499.757 115.807 499.311 115.471 498.846 115.514L498.21 115.592L502.469 151.296L502.469 151.298Z" fill="#2BF2F1"/>
<path d="M398.81 349.564C395.032 349.683 391.363 348.479 388.349 346.108C384.953 343.436 382.796 339.601 382.282 335.31L352.56 86.6139C352.046 82.3343 353.235 78.1041 355.905 74.7081C358.578 71.3121 362.413 69.1558 366.703 68.6414L470.264 56.2913C479.11 55.225 487.175 61.559 488.239 70.4072L517.958 319.107C518.472 323.386 517.283 327.616 514.613 331.012C511.941 334.408 508.105 336.565 503.815 337.079L400.252 349.456C399.768 349.513 399.287 349.549 398.808 349.564L398.81 349.564ZM471.901 62.7138C471.616 62.7227 471.332 62.7448 471.046 62.7776L471.043 62.7777L367.476 75.1306C364.923 75.4375 362.635 76.7224 361.04 78.7503C359.447 80.7755 358.74 83.2923 359.047 85.8406L388.766 334.54C389.073 337.099 390.358 339.384 392.386 340.979C394.411 342.572 396.928 343.279 399.476 342.972L503.042 330.595C505.601 330.288 507.886 329.003 509.481 326.975C511.074 324.95 511.781 322.433 511.474 319.885L481.755 71.1857C481.156 66.2047 476.827 62.5591 471.903 62.7137L471.901 62.7138Z" fill="#2BF2F1"/>
<path d="M470.965 58.2906L366.507 70.7479C359.362 71.6052 354.265 78.0942 355.121 85.2137L385.097 336.057C385.955 343.203 392.444 348.299 399.563 347.443L504.02 334.959C511.166 334.102 516.262 327.613 515.406 320.493L485.43 69.6503C484.573 62.5308 478.084 57.4341 470.965 58.2906Z" fill="#2BF2F1"/>
<path d="M383.856 325.637C426.581 287.369 474.364 233.669 480.418 174.103C482.814 150.573 479.473 125.597 460.451 109.464C415.625 71.445 377.378 134.63 365.689 171.82L365.688 171.813C365.606 171.72 365.523 171.627 365.441 171.534L383.856 325.637Z" fill="#2BF2F1"/>
<path d="M519.275 326.21L504.599 203.255C503.917 205.631 503.56 208.142 503.287 210.535C501.342 228.185 502.437 245.508 499.441 263.046C494.355 292.714 490.429 319.527 476.686 345.746L506.722 342.158C514.601 341.211 520.221 334.086 519.275 326.21Z" fill="#2BF2F1"/>
<path d="M599.242 637.622L695.106 634.505C676.941 607.756 597.992 475.647 581.412 446.143C567.571 421.511 553.007 398.06 552.329 369.76C552.109 360.247 559.254 317.168 548.356 268.482C545.569 255.664 538.914 231.453 534.45 219.471C533.23 216.637 526.865 202.729 525.138 200.207C521.769 195.289 515.931 192.793 508.494 196.98C500.42 202.188 503.07 223.853 503.43 231.963C504.621 258.982 508.408 290.555 499.313 318.345C492.975 337.694 472.551 346.7 470.776 372.881C470.161 381.938 472.569 390.923 477.378 398.62C478.555 400.505 479.8 402.349 481.062 404.166" fill="#2BF2F1"/>
<path d="M385.76 360.694C395.716 361.146 402.83 355.095 398.362 344.661C396.655 340.68 393.523 337.508 390.295 334.656C385.684 330.555 380.742 326.86 375.523 323.596C373.883 322.566 372.19 321.565 370.304 321.123C367.859 320.54 365.314 320.937 362.908 321.593C355.86 323.539 354.751 329.449 356.057 335.528C357.048 340.138 359.465 344.806 361.528 348.165C366.891 356.883 375.858 360.267 385.76 360.694Z" fill="#2BF2F1"/>
<path d="M386.008 308.011C387.491 306.791 388.699 305.284 389.335 303.45C391.667 296.918 386.754 288.423 382.706 283.558C378.102 278.044 373.67 273.779 367.322 270.482C364.365 268.947 359.597 267.576 356.284 267.466C352.971 267.357 349.384 268.777 347.822 271.682C346.486 274.153 345.914 278.949 346.002 281.749C346.413 295.671 364.508 316.908 381.053 310.785C382.769 310.169 384.527 309.233 386.011 308.013L386.008 308.011Z" fill="#2BF2F1"/>
<path d="M431.805 66.9918L406.632 69.9884C403.488 70.3627 401.243 73.2142 401.617 76.3573C401.991 79.5005 404.843 81.7452 407.987 81.3709L433.16 78.3742C436.304 78 438.549 75.1485 438.175 72.0053C437.801 68.8622 434.949 66.6175 431.805 66.9918Z" fill="#2BF2F1"/>
</mask>
<g mask="url(#mask0_15017_12243)">
<path d="M359.065 156.006C359.065 156.006 368.459 151.489 375.307 149.447C375.877 149.285 376.418 149.148 376.929 149.06C375.376 156.174 375.476 162.85 375.716 167.025C375.866 169.526 376.186 172.2 377.736 174.136C375.506 176.321 372.8 178.199 369.666 179.537C355.367 185.659 350.329 186.988 350.329 186.988L359.065 156.006Z" fill="black"/>
<path d="M359.06 156.007C359.06 156.007 368.454 151.49 375.302 149.447C391.525 144.606 397.575 173.392 369.458 182.139C355.16 188.261 350.35 186.991 350.35 186.991" fill="black"/>
<path d="M359.06 156.007C359.06 156.007 368.454 151.49 375.302 149.447C391.525 144.606 397.575 173.392 369.458 182.139C355.16 188.261 350.35 186.991 350.35 186.991" stroke="black" stroke-width="0.457583" stroke-miterlimit="10"/>
<path d="M356.72 223.166C376.843 222.314 394.801 219.739 395.848 204.705C396.272 198.593 389.844 190.467 373.566 189.062L356.395 187.549" fill="black"/>
<path d="M356.72 223.166C376.843 222.314 394.801 219.739 395.848 204.705C396.272 198.593 389.844 190.467 373.566 189.062L356.395 187.549" stroke="black" stroke-width="0.457583" stroke-miterlimit="10"/>
<path d="M164.679 620.471C171.381 607.17 182.725 583.536 184.094 580.905C211.777 527.724 244.335 445.114 281.88 412.504C301.254 397.727 308.036 388.325 323.615 369.774C330.738 361.3 338.84 353.732 345.988 345.286C349.03 341.691 351.933 339.671 355.798 337.551C359.217 335.682 361.821 333.451 363.541 329.845C365.392 325.96 365.957 325.851 365.862 321.53C365.723 314.691 361.326 307.239 355.548 303.449C352.672 301.555 349.286 300.648 345.94 299.877C340.728 298.677 335.463 297.763 330.145 297.162C325.614 296.631 322.292 297.105 317.955 297.676C312.867 298.365 306.99 296.895 301.903 296.367C296.029 295.77 290.181 295.176 284.286 294.815C265.734 293.657 245.626 294.24 229.586 304.813C217.453 312.793 209.523 325.615 201.974 338.021C186.315 363.788 170.658 389.53 154.999 415.297C151.317 421.35 147.576 427.476 142.485 432.399C136.73 437.951 39.8632 604.631 33.062 608.848" fill="black"/>
<path d="M164.679 620.471C171.381 607.17 182.725 583.536 184.094 580.905C211.777 527.724 244.335 445.114 281.88 412.504C301.254 397.727 308.036 388.325 323.615 369.774C330.738 361.3 338.84 353.732 345.988 345.286C349.03 341.691 351.933 339.671 355.798 337.551C359.217 335.682 361.821 333.451 363.541 329.845C365.392 325.96 365.957 325.851 365.862 321.53C365.723 314.691 361.326 307.239 355.548 303.449C352.672 301.555 349.286 300.648 345.94 299.877C340.728 298.677 335.463 297.763 330.145 297.162C325.614 296.631 322.292 297.105 317.955 297.676C312.867 298.365 306.99 296.895 301.903 296.367C296.029 295.77 290.181 295.176 284.286 294.815C265.734 293.657 245.626 294.24 229.586 304.813C217.453 312.793 209.523 325.615 201.974 338.021C186.315 363.788 170.658 389.53 154.999 415.297C151.317 421.35 147.576 427.476 142.485 432.399C136.73 437.951 39.8632 604.631 33.062 608.848" stroke="black" stroke-width="0.457583" stroke-miterlimit="10"/>
<path d="M370.57 255.45C373.385 257.444 377.137 262.009 377.815 268.127C378.28 272.455 376.77 271.872 374.035 275.283C368.202 282.627 357.922 286.087 348.838 283.778C340.323 281.626 332.929 273.645 333.568 264.89C334.148 257.109 340.769 249.834 348.295 247.904C356.417 245.815 364.019 250.825 370.57 255.45Z" fill="black" stroke="black" stroke-width="0.457583" stroke-miterlimit="10"/>
<path d="M343.583 327.821C341.626 338.92 330.968 346.369 319.871 344.385L216.286 326.024C205.187 324.067 197.738 313.409 199.721 302.312L243.813 53.5613C245.77 42.462 256.428 35.0134 267.525 36.9967L371.11 55.3582C382.209 57.3152 389.658 67.9732 387.674 79.0702L343.583 327.821Z" fill="black" stroke="black" stroke-width="0.457583" stroke-miterlimit="10"/>
<path d="M321.526 339.17C325.291 339.501 329.022 338.507 332.166 336.31C335.707 333.833 338.076 330.126 338.832 325.872L382.548 79.2501C383.303 75.0064 382.355 70.7158 379.881 67.1745C377.404 63.633 373.697 61.2636 369.443 60.5078L358.719 58.6182L282.058 45.0422L266.744 42.3302C257.973 40.7662 249.563 46.6347 248.001 55.4087L204.288 302.033C203.533 306.277 204.481 310.568 206.955 314.109C209.431 317.651 213.139 320.02 217.393 320.776L320.092 338.98C320.572 339.064 321.05 339.128 321.528 339.17L321.526 339.17ZM264.748 48.6501C265.031 48.6751 265.314 48.7132 265.598 48.762L265.6 48.7622L280.917 51.4771L357.58 65.0534L368.304 66.9429C370.837 67.3936 373.048 68.8056 374.526 70.9203C376.002 73.0322 376.566 75.5849 376.115 78.1118L332.402 324.736C331.951 327.274 330.539 329.483 328.425 330.961C326.313 332.437 323.76 333 321.233 332.55L218.531 314.346C215.994 313.895 213.784 312.483 212.306 310.368C210.831 308.256 210.267 305.704 210.717 303.177L254.431 56.552C255.31 51.6128 259.838 48.2175 264.745 48.6498L264.748 48.6501Z" fill="black" stroke="black" stroke-width="0.457583" stroke-miterlimit="10"/>
<path d="M265.927 44.2861L281.376 47.0233L358.702 60.7161L369.515 62.6213C376.601 63.8807 381.323 70.6471 380.066 77.7069L335.975 326.457C334.715 333.543 327.949 338.266 320.889 337.008L217.304 318.647C210.218 317.388 205.496 310.621 206.753 303.561L250.844 54.8109C252.101 47.7512 258.867 43.029 265.927 44.2861Z" fill="black" stroke="black" stroke-width="0.457583" stroke-miterlimit="10"/>
<path fill-rule="evenodd" clip-rule="evenodd" d="M365.854 157.827L338.263 313.488C293.692 270.787 237.991 193.708 252.907 128.26C260.566 94.6871 296.103 68.991 327.392 92.4372C344.151 104.996 353.123 126.915 361.296 146.88C362.828 150.623 364.332 154.297 365.854 157.827Z" fill="black"/>
<path d="M265.927 44.2861L281.376 47.0233L358.702 60.7161L369.515 62.6213C376.601 63.8807 381.323 70.6471 380.066 77.7069L335.975 326.457C334.715 333.543 327.949 338.266 320.889 337.008L217.304 318.647C210.218 317.388 205.496 310.621 206.753 303.561L250.844 54.8109C252.101 47.7512 258.867 43.029 265.927 44.2861Z" stroke="black" stroke-width="0.457583" stroke-miterlimit="10"/>
<path d="M333.925 351.018C323.959 350.907 317.198 344.464 322.248 334.298C324.177 330.42 327.483 327.43 330.867 324.765C335.703 320.931 340.845 317.521 346.24 314.557C347.936 313.621 349.683 312.717 351.591 312.382C354.064 311.939 356.583 312.478 358.948 313.269C365.875 315.609 366.649 321.573 365.001 327.569C363.751 332.116 361.074 336.64 358.826 339.876C352.979 348.278 343.836 351.15 333.925 351.018Z" fill="black"/>
<path d="M365.842 323.366C365.677 329.17 361.85 335.527 358.828 339.878C352.981 348.279 343.838 351.152 333.927 351.019C323.962 350.909 317.2 344.465 322.25 334.3C324.179 330.422 327.485 327.432 330.869 324.767C335.634 320.99 340.741 317.588 346.048 314.655" stroke="black" stroke-width="0.457583" stroke-miterlimit="10" stroke-linecap="round"/>
<path d="M336.645 298.406C335.233 297.104 334.112 295.532 333.581 293.664C331.622 287.012 337.007 278.808 341.323 274.179C346.23 268.933 350.896 264.926 357.42 261.992C360.459 260.627 365.298 259.527 368.611 259.604C371.925 259.682 375.426 261.303 376.822 264.292C378.016 266.834 378.316 271.655 378.07 274.446C376.874 288.321 357.609 308.503 341.436 301.456C339.757 300.744 338.055 299.71 336.643 298.408L336.645 298.406Z" fill="black"/>
<path d="M376.901 264.146C377.354 265.395 377.442 265.959 377.646 266.974C378.147 269.461 378.245 272.462 378.07 274.444C376.874 288.32 357.609 308.502 341.436 301.454C339.758 300.743 338.055 299.709 336.643 298.407C335.231 297.105 334.11 295.532 333.579 293.665C331.619 287.013 337.004 278.808 341.32 274.18C346.228 268.934 350.894 264.927 357.418 261.993" stroke="black" stroke-width="0.457583" stroke-miterlimit="10"/>
<path d="M337.452 349.16C337.835 349.194 338.534 348.988 340.803 348.122C341.937 347.687 343.661 346.982 344.002 346.803C346.592 345.343 348.522 343.616 349.759 341.68C351.446 339.013 351.647 335.71 350.256 333.336C349.098 331.337 347.028 330.265 344.443 330.363C335.346 330.657 332.019 334.782 331.857 334.945L331.458 335.445L331.798 335.977C334.796 340.629 336.398 345.659 336.606 348.345L336.654 348.823L337.106 349.069C337.224 349.079 337.305 349.145 337.452 349.158L337.452 349.16Z" stroke="black" stroke-width="0.457583" stroke-miterlimit="10"/>
<path d="M352.724 297.889L353.704 297.155C359.751 292.61 363.198 288.561 364.539 284.422C365.611 281.206 364.706 277.152 362.423 274.805C360.37 272.701 357.4 272.061 354.094 273.063C347.582 275.014 341.79 281.346 341.545 281.607L340.915 282.309L341.616 282.939C341.705 283.011 349.683 290.178 352.258 296.744L352.726 297.889L352.724 297.889Z" stroke="black" stroke-width="0.457583" stroke-miterlimit="10"/>
<path d="M304.54 55.1845L329.503 59.5977C332.621 60.1489 334.702 63.1226 334.151 66.2396C333.6 69.3566 330.625 71.4367 327.508 70.8855L302.544 66.4723C299.427 65.9212 297.346 62.9475 297.897 59.8305C298.448 56.7134 301.422 54.6334 304.54 55.1845Z" fill="black" stroke="black" stroke-width="0.457583" stroke-miterlimit="10"/>
</g>
</g>
<path d="M349.464 137.249C349.464 137.249 358.858 132.732 365.706 130.689C366.275 130.528 366.817 130.39 367.327 130.303C365.774 137.416 365.874 144.092 366.115 148.268C366.265 150.768 366.585 153.442 368.134 155.378C365.904 157.563 363.199 159.441 360.064 160.779C345.766 166.901 340.727 168.23 340.727 168.23L349.464 137.249Z" fill="#E1776E"/>
<path d="M349.466 137.249C349.466 137.249 358.861 132.732 365.708 130.689C381.931 125.848 387.981 154.635 359.864 163.381C345.566 169.504 340.756 168.233 340.756 168.233" fill="#E5B481"/>
<path d="M349.466 137.249C349.466 137.249 358.861 132.732 365.708 130.689C381.931 125.848 387.981 154.635 359.864 163.381C345.566 169.504 340.756 168.233 340.756 168.233" stroke="#082422" stroke-width="0.457583" stroke-miterlimit="10"/>
<path d="M347.118 204.41C367.242 203.558 385.199 200.984 386.246 185.949C386.671 179.837 380.243 171.711 363.964 170.306L346.793 168.793" fill="#E5B481"/>
<path d="M347.118 204.41C367.242 203.558 385.199 200.984 386.246 185.949C386.671 179.837 380.243 171.711 363.964 170.306L346.793 168.793" stroke="#082422" stroke-width="0.457583" stroke-miterlimit="10"/>
<path d="M155.078 601.713C161.78 588.413 173.123 564.778 174.493 562.147C202.176 508.966 234.733 426.356 272.279 393.746C291.653 378.969 298.434 369.568 314.013 351.016C321.137 342.542 329.239 334.974 336.386 326.528C339.428 322.933 342.331 320.913 346.196 318.793C349.615 316.925 352.22 314.693 353.94 311.088C355.79 307.202 356.355 307.093 356.26 302.772C356.122 295.933 351.725 288.481 345.946 284.691C343.07 282.797 339.684 281.89 336.339 281.119C331.126 279.919 325.862 279.005 320.544 278.405C316.013 277.873 312.69 278.348 308.353 278.918C303.265 279.607 297.389 278.137 292.302 277.61C286.428 277.013 280.579 276.418 274.684 276.057C256.132 274.899 236.025 275.482 219.985 286.055C207.851 294.035 199.921 306.857 192.372 319.263C176.713 345.03 161.056 370.772 145.397 396.54C141.715 402.592 137.974 408.718 132.883 413.641C127.129 419.193 30.2616 585.873 23.4605 590.09" fill="#E5B481"/>
<path d="M155.078 601.713C161.78 588.413 173.123 564.778 174.493 562.147C202.176 508.966 234.733 426.356 272.279 393.746C291.653 378.969 298.434 369.568 314.013 351.016C321.137 342.542 329.239 334.974 336.386 326.528C339.428 322.933 342.331 320.913 346.196 318.793C349.615 316.925 352.22 314.693 353.94 311.088C355.79 307.202 356.355 307.093 356.26 302.772C356.122 295.933 351.725 288.481 345.946 284.691C343.07 282.797 339.684 281.89 336.339 281.119C331.126 279.919 325.862 279.005 320.544 278.405C316.013 277.873 312.69 278.348 308.353 278.918C303.265 279.607 297.389 278.137 292.302 277.61C286.428 277.013 280.579 276.418 274.684 276.057C256.132 274.899 236.025 275.482 219.985 286.055C207.851 294.035 199.921 306.857 192.372 319.263C176.713 345.03 161.056 370.772 145.397 396.54C141.715 402.592 137.974 408.718 132.883 413.641C127.129 419.193 30.2616 585.873 23.4605 590.09" stroke="#082422" stroke-width="0.457583" stroke-miterlimit="10"/>
<path d="M360.969 236.694C363.783 238.689 367.535 243.253 368.213 249.372C368.678 253.699 367.169 253.116 364.434 256.527C358.601 263.871 348.321 267.331 339.237 265.023C330.721 262.87 323.328 254.889 323.967 246.134C324.547 238.354 331.168 231.078 338.693 229.149C346.815 227.059 354.418 232.069 360.969 236.694Z" fill="#E5B481" stroke="#082422" stroke-width="0.457583" stroke-miterlimit="10"/>
<path d="M333.982 309.065C332.025 320.164 321.367 327.613 310.27 325.629L206.685 307.268C195.585 305.311 188.137 294.653 190.12 283.556L234.211 34.8054C236.168 23.7061 246.826 16.2575 257.923 18.2408L361.508 36.6023C372.607 38.5593 380.056 49.2173 378.073 60.3143L333.982 309.065Z" fill="#DCFF00" stroke="#082422" stroke-width="0.457583" stroke-miterlimit="10"/>
<path d="M219.625 116.609L218.994 116.495C218.535 116.425 218.224 115.962 218.294 115.499L224.267 81.7871C224.337 81.3275 224.801 81.0165 225.263 81.0863L225.893 81.2001L219.625 116.606L219.625 116.609Z" fill="#DCFF00" stroke="#082422" stroke-width="0.457583" stroke-miterlimit="10"/>
<path d="M311.924 320.412C315.689 320.744 319.42 319.749 322.564 317.552C326.106 315.076 328.475 311.368 329.231 307.114L372.946 60.4923C373.701 56.2486 372.754 51.958 370.28 48.4167C367.803 44.8751 364.096 42.5058 359.841 41.75L349.117 39.8604L272.456 26.2844L257.142 23.5723C248.371 22.0084 239.961 27.8769 238.4 36.6509L194.686 283.276C193.931 287.519 194.879 291.81 197.353 295.351C199.83 298.893 203.537 301.262 207.791 302.018L310.491 320.222C310.97 320.307 311.449 320.37 311.927 320.412L311.924 320.412ZM255.146 29.8923C255.43 29.9172 255.712 29.9554 255.996 30.0042L255.999 30.0044L271.315 32.7193L347.979 46.2956L358.703 48.1851C361.235 48.6358 363.447 50.0478 364.925 52.1625C366.4 54.2744 366.964 56.8271 366.514 59.354L322.801 305.979C322.349 308.516 320.938 310.725 318.823 312.203C316.711 313.679 314.158 314.243 311.631 313.792L208.929 295.588C206.392 295.137 204.183 293.725 202.705 291.61C201.229 289.499 200.666 286.946 201.116 284.419L244.829 37.7942C245.709 32.855 250.236 29.4596 255.143 29.892L255.146 29.8923Z" fill="#DCFF00" stroke="#082422" stroke-width="0.457583" stroke-miterlimit="10"/>
<path d="M256.333 25.5302L271.783 28.2674L349.108 41.9602L359.921 43.8655C367.007 45.1249 371.729 51.8912 370.472 58.951L326.381 307.701C325.122 314.788 318.355 319.51 311.295 318.253L207.71 299.891C200.624 298.632 195.902 291.865 197.159 284.806L241.25 36.0551C242.507 28.9953 249.274 24.2731 256.333 25.5302Z" fill="white" stroke="#082422" stroke-width="0.457583" stroke-miterlimit="10"/>
<path fill-rule="evenodd" clip-rule="evenodd" d="M356.26 139.072L328.669 294.732C284.098 252.031 228.397 174.952 243.313 109.504C250.973 75.9312 286.509 50.2352 317.798 73.6814C334.557 86.2402 343.53 108.159 351.702 128.125C353.234 131.867 354.738 135.541 356.26 139.072Z" fill="#FF5A00"/>
<path d="M256.333 25.5302L271.783 28.2674L349.108 41.9602L359.921 43.8655C367.007 45.1249 371.729 51.8912 370.472 58.951L326.381 307.701C325.122 314.788 318.355 319.51 311.295 318.253L207.71 299.891C200.624 298.632 195.902 291.865 197.159 284.806L241.25 36.0551C242.507 28.9953 249.274 24.2731 256.333 25.5302Z" stroke="#082422" stroke-width="0.457583" stroke-miterlimit="10"/>
<g style="mix-blend-mode:multiply" opacity="0.1">
<path d="M192.971 290.294L214.565 168.364C215.112 170.775 215.326 173.302 215.464 175.706C216.41 193.438 214.338 210.671 216.339 228.35C219.742 258.258 222.147 285.25 234.389 312.203L204.603 306.925C196.79 305.535 191.581 298.104 192.971 290.294Z" fill="#082422"/>
</g>
<path d="M95.5482 596.695L0.0130797 588.172C19.6598 562.491 105.942 435.05 124.161 406.529C139.371 382.718 155.236 360.127 157.511 331.91C158.267 322.425 153.566 279.011 167.196 231.018C170.702 218.378 178.713 194.581 183.846 182.87C185.225 180.11 192.365 166.583 194.232 164.163C197.873 159.443 203.842 157.281 211.031 161.88C218.798 167.536 214.929 189.017 214.112 197.094C211.397 224.002 205.833 255.311 213.345 283.57C218.581 303.247 238.463 313.391 238.757 339.631C238.859 348.707 235.948 357.542 230.712 364.955C229.431 366.771 228.084 368.542 226.721 370.285" fill="#E5B481"/>
<path d="M95.5482 596.695L0.0130797 588.172C19.6598 562.491 105.942 435.05 124.161 406.529C139.371 382.718 155.236 360.127 157.511 331.91C158.267 322.425 153.566 279.011 167.196 231.018C170.702 218.378 178.713 194.581 183.846 182.87C185.225 180.11 192.365 166.583 194.232 164.163C197.873 159.443 203.842 157.281 211.031 161.88C218.798 167.536 214.929 189.017 214.112 197.094C211.397 224.002 205.833 255.311 213.345 283.57C218.581 303.247 238.463 313.391 238.757 339.631C238.859 348.707 235.948 357.542 230.712 364.955C229.431 366.771 228.084 368.542 226.721 370.285" stroke="#082422" stroke-width="0.457583" stroke-miterlimit="10"/>
<path d="M183.849 182.87C185.227 180.11 192.367 166.583 194.234 164.163C194.449 163.885 194.672 163.617 194.903 163.357L201.585 166.29C201.825 166.395 201.938 166.673 201.837 166.912L201.716 167.209C201.527 167.615 197.258 177.625 190.292 183.38C188.964 184.488 187.258 185.107 185.687 185.104C185.362 185.104 185.01 185.076 184.713 185.047C184.167 184.941 183.672 184.76 183.161 184.461C183.391 183.928 183.623 183.395 183.852 182.87L183.849 182.87Z" stroke="#082422" stroke-width="0.457583" stroke-miterlimit="10"/>
<path d="M324.323 332.262C314.358 332.151 307.596 325.708 312.646 315.542C314.575 311.664 317.882 308.674 321.265 306.009C326.101 302.175 331.244 298.765 336.638 295.801C338.334 294.865 340.081 293.961 341.989 293.626C344.463 293.183 346.982 293.722 349.346 294.513C356.273 296.854 357.047 302.817 355.4 308.813C354.15 313.36 351.473 317.884 349.224 321.12C343.377 329.522 334.234 332.394 324.323 332.262Z" fill="#E5B481"/>
<path d="M356.241 304.61C356.076 310.414 352.248 316.771 349.227 321.122C343.38 329.524 334.236 332.396 324.325 332.263C314.36 332.153 307.598 325.709 312.648 315.544C314.578 311.666 317.884 308.676 321.267 306.011C326.032 302.234 331.14 298.832 336.446 295.899" stroke="#082422" stroke-width="0.457583" stroke-miterlimit="10" stroke-linecap="round"/>
<path d="M327.052 279.648C325.64 278.346 324.519 276.774 323.987 274.907C322.028 268.254 327.413 260.05 331.729 255.421C336.636 250.175 341.303 246.168 347.827 243.234C350.865 241.869 355.704 240.769 359.018 240.847C362.332 240.924 365.832 242.545 367.228 245.534C368.422 248.076 368.722 252.897 368.476 255.688C367.28 269.564 348.015 289.745 331.842 282.698C330.164 281.986 328.461 280.952 327.049 279.651L327.052 279.648Z" fill="#E5B481"/>
<path d="M367.307 245.39C367.761 246.639 367.848 247.203 368.053 248.218C368.553 250.705 368.651 253.706 368.477 255.688C367.281 269.564 348.015 289.746 331.842 282.698C330.164 281.987 328.461 280.953 327.049 279.651C325.637 278.349 324.516 276.777 323.985 274.909C322.026 268.257 327.411 260.053 331.727 255.424C336.634 250.178 341.3 246.171 347.824 243.237" stroke="#082422" stroke-width="0.457583" stroke-miterlimit="10"/>
<path d="M327.851 330.402C328.234 330.436 328.932 330.23 331.202 329.364C332.336 328.93 334.059 328.224 334.401 328.045C336.99 326.585 338.92 324.858 340.157 322.922C341.845 320.255 342.046 316.952 340.654 314.578C339.497 312.579 337.427 311.507 334.841 311.605C325.745 311.899 322.418 316.025 322.255 316.188L321.857 316.687L322.196 317.22C325.194 321.871 326.796 326.902 327.004 329.587L327.052 330.065L327.504 330.311C327.622 330.321 327.704 330.387 327.851 330.4L327.851 330.402Z" stroke="#082422" stroke-width="0.457583" stroke-miterlimit="10"/>
<path d="M343.13 279.131L344.11 278.397C350.157 273.852 353.604 269.803 354.945 265.664C356.017 262.449 355.112 258.395 352.829 256.048C350.776 253.943 347.806 253.303 344.5 254.306C337.988 256.256 332.197 262.588 331.951 262.85L331.321 263.551L332.022 264.181C332.111 264.253 340.089 271.42 342.665 277.986L343.133 279.131L343.13 279.131Z" stroke="#082422" stroke-width="0.457583" stroke-miterlimit="10"/>
<path d="M294.938 36.4287L319.902 40.8419C323.019 41.393 325.1 44.3667 324.549 47.4837C323.998 50.6008 321.024 52.6808 317.906 52.1297L292.943 47.7165C289.825 47.1653 287.744 44.1916 288.295 41.0746C288.846 37.9576 291.82 35.8775 294.938 36.4287Z" fill="#DCFF00" stroke="#082422" stroke-width="0.457583" stroke-miterlimit="10"/>
</g>
<defs>
<clipPath id="clip0_15017_12243">
<rect width="695.227" height="645.587" fill="white"/>
</clipPath>
</defs>
</svg>
