<svg width="660" height="800" viewBox="0 0 660 800" fill="none" xmlns="http://www.w3.org/2000/svg">
<g clip-path="url(#clip0_14989_18364)">
<path d="M337.973 515.146L235.716 763.409C234.311 766.803 231.035 769.019 227.358 769.037C212.319 769.116 176.03 766.3 137.126 745.183C78.1495 713.195 70.7376 687.507 66.2169 673.907C65.3591 671.352 65.6756 668.555 67.0958 666.258L226.947 424.973C228.125 423.056 228.853 420.91 229.093 418.682C231.298 398.268 234.156 305.591 272.606 267.962C307.035 234.265 338.684 215.015 385.636 164.093C392.308 156.855 405.507 157.885 412.741 170.393C420.807 184.351 408.755 206.368 403.859 214.239C389.171 237.851 363.105 264.837 357.786 274.657C350.678 287.749 357.713 330.155 347.235 353.49C336.757 376.825 321.373 396.842 321.373 396.842" fill="#FFCD9C"/>
<path d="M337.973 515.146L235.716 763.409C234.311 766.803 231.035 769.019 227.358 769.037C212.319 769.116 176.03 766.3 137.126 745.183C78.1494 713.195 70.7376 687.507 66.2169 673.907C65.3591 671.352 65.6756 668.555 67.0958 666.258L226.947 424.973C228.125 423.056 228.853 420.91 229.093 418.682C231.298 398.268 234.156 305.591 272.606 267.962C307.035 234.265 338.684 215.015 385.636 164.093C392.308 156.855 405.507 157.885 412.741 170.393C420.807 184.351 408.755 206.368 403.859 214.239C389.171 237.851 363.105 264.837 357.786 274.657C350.678 287.749 357.713 330.155 347.235 353.49C336.757 376.825 321.373 396.842 321.373 396.842" stroke="#082422" stroke-width="0.5" stroke-miterlimit="10" stroke-linecap="round"/>
<path d="M278.219 479.138C290.637 490.804 303.802 496.936 315 499.837" stroke="#082422" stroke-width="0.5" stroke-miterlimit="10" stroke-linecap="round"/>
<path d="M260.508 480.541C267.77 489.03 275.308 494.508 281.663 497.862" stroke="#082422" stroke-width="0.5" stroke-miterlimit="10" stroke-linecap="round"/>
<path d="M279.95 348.78C283.573 317.202 300.698 300.68 312.289 296.395C332.556 288.918 400.629 253.105 434.854 252.376C460.835 252.648 463.841 343.346 465.378 347.279C474.182 369.89 500.19 368.752 495.453 382.057C481.645 420.833 379.868 482.281 337.978 515.165" fill="#FFCD9C"/>
<path d="M279.95 348.78C283.573 317.202 300.698 300.68 312.289 296.395C332.556 288.918 400.629 253.105 434.854 252.376C460.835 252.648 463.841 343.346 465.378 347.279C474.182 369.89 500.19 368.752 495.453 382.057C481.645 420.833 379.868 482.281 337.978 515.165" stroke="#082422" stroke-width="0.5" stroke-miterlimit="10" stroke-linecap="round"/>
<path opacity="0.2" d="M453.027 273.403C448.751 261.227 442.906 252.458 434.854 252.378C422.421 252.644 405.537 257.542 388.086 264.028L354.506 277.617L341.041 365.791L330.339 425.964C312.872 431.492 303.106 451.583 297.375 469.85C292.673 484.887 295.072 499.919 302.709 511.628C302.684 511.596 302.659 511.564 302.642 511.521L309.631 522.31C312.749 527.115 316.753 531.371 321.5 534.829C322.92 535.871 326.922 538.186 328.15 538.757C333.51 525.906 342.228 509.963 339.956 509.444C337.2 508.814 334.669 507.809 332.375 506.499C330.62 505.494 329.023 504.3 327.585 502.966C325.828 497.735 325.676 491.855 327.519 485.963C332.33 470.628 348.828 461.087 364.345 464.671C367.101 465.301 369.643 466.313 371.926 467.616C373.67 468.614 375.253 469.783 376.68 471.11C376.937 471.874 380.678 484.245 380.856 485.034C387.938 480.232 397.983 471.869 405.52 466.786L397.172 451.642L401.456 437.952C402.721 433.919 408.024 431.621 411.863 429.833L457.404 406.433L453.013 273.378L453.027 273.403ZM396.306 454.563C396.306 454.563 396.285 454.549 396.292 454.538C396.292 454.538 396.313 454.553 396.306 454.563Z" fill="#082422"/>
<path d="M443.318 80.7351L455.599 41.5112L448.609 30.7227L436.329 69.9465C433.533 78.8864 434.944 87.8272 439.466 94.7963L446.455 105.585C441.934 98.6158 440.515 89.6856 443.318 80.7351Z" fill="#CFCABF" stroke="#082422" stroke-width="0.5" stroke-miterlimit="10"/>
<path d="M405.95 149.07L398.961 138.281C402.986 144.494 408.108 150.008 414.172 154.546L421.161 165.335C415.097 160.796 409.976 155.283 405.95 149.07Z" fill="#1AC6C5" stroke="#082422" stroke-width="0.5" stroke-miterlimit="10"/>
<path d="M522.094 58.4336L529.083 69.2222C539.215 84.848 542.404 104.888 536.127 124.943C527.35 152.974 502.581 173.046 474.793 177.696L467.804 166.907C495.599 162.246 520.361 142.185 529.138 114.154C535.415 94.0998 532.237 74.0666 522.094 58.4336Z" fill="#CFCABF" stroke="#082422" stroke-width="0.5" stroke-miterlimit="10"/>
<path d="M467.797 166.918L474.786 177.707L390.072 448.151L383.083 437.363L467.797 166.918Z" fill="#CFCABF" stroke="#082422" stroke-width="0.5" stroke-miterlimit="10"/>
<path d="M367.984 457.963L374.973 468.751C372.754 465.319 369.712 462.414 366.014 460.29C363.731 458.988 361.189 457.975 358.433 457.345C342.905 453.754 326.419 463.302 321.608 478.638C319.028 486.87 320.339 495.091 324.494 501.501L317.505 490.712C313.349 484.302 312.046 476.071 314.618 467.849C319.43 452.513 335.927 442.973 351.444 446.557C354.2 447.186 356.742 448.199 359.025 449.501C362.73 451.614 365.765 454.53 367.984 457.963Z" fill="#CFCABF" stroke="#082422" stroke-width="0.5" stroke-miterlimit="10"/>
<path d="M401.004 496.95C405.695 481.952 403.324 466.971 395.737 455.279L388.748 444.491C396.325 456.175 398.706 471.163 394.015 486.161C385.257 514.143 355.192 531.518 326.867 524.98C321.846 523.821 317.216 521.995 313.05 519.601C306.304 515.747 300.767 510.433 296.717 504.188L303.706 514.977C307.756 521.222 313.293 526.536 320.04 530.389C324.212 532.773 328.835 534.609 333.856 535.768C362.17 542.299 392.235 524.924 401.004 496.95Z" fill="#CFCABF" stroke="#082422" stroke-width="0.5" stroke-miterlimit="10"/>
<path d="M394.017 486.161C385.259 514.143 355.194 531.518 326.869 524.979C321.848 523.821 317.218 521.995 313.052 519.6C293.702 508.537 284.25 485.531 291.452 462.517C297.175 444.261 311.974 430.523 329.448 424.985L414.162 154.54C392.831 138.575 383.131 110.54 391.911 82.5263C400.193 56.0691 422.74 36.7085 448.609 30.7233L436.329 69.9471C432.023 83.6695 437.676 97.3859 449.201 103.988C451.683 105.41 454.434 106.503 457.421 107.181C474.912 111.22 492.824 100.855 498.046 84.183L510.344 44.9558C529.228 61.2776 537.428 87.7035 529.128 114.164C520.351 142.195 495.582 162.267 467.794 166.917L383.079 437.362C394.962 449.657 399.73 467.898 394.017 486.161ZM334.043 502.118C349.578 505.699 366.068 496.169 370.876 480.815C374.827 468.187 369.635 455.576 359.024 449.502C356.741 448.199 354.199 447.186 351.443 446.557C335.915 442.966 319.429 452.514 314.617 467.849C310.667 480.477 315.851 493.099 326.462 499.174C328.745 500.476 331.288 501.489 334.043 502.118Z" fill="#2BF2F1" stroke="#082422" stroke-width="0.5" stroke-miterlimit="10"/>
<path d="M394.017 486.161C385.259 514.143 355.194 531.518 326.869 524.979C321.848 523.821 317.218 521.995 313.052 519.6C293.702 508.537 284.25 485.531 291.452 462.517C297.175 444.261 311.974 430.523 329.448 424.985L414.162 154.54C392.831 138.575 383.131 110.54 391.911 82.5263C400.193 56.0691 422.74 36.7085 448.609 30.7233L436.329 69.9471C432.023 83.6695 437.676 97.3859 449.201 103.988C451.683 105.41 454.434 106.503 457.421 107.181C474.912 111.22 492.824 100.855 498.046 84.183L510.344 44.9558C529.228 61.2776 537.428 87.7035 529.128 114.164C520.351 142.195 495.582 162.267 467.794 166.917L383.079 437.362C394.962 449.657 399.73 467.898 394.017 486.161ZM334.043 502.118C349.578 505.699 366.068 496.169 370.876 480.815C374.827 468.187 369.635 455.576 359.024 449.502C356.741 448.199 354.199 447.186 351.443 446.557C335.915 442.966 319.429 452.514 314.617 467.849C310.667 480.477 315.851 493.099 326.462 499.174C328.745 500.476 331.288 501.489 334.043 502.118Z" fill="#EFEBE7" stroke="#082422" stroke-width="0.5" stroke-miterlimit="10"/>
<path d="M378.872 403.942L439.518 210.307C440.482 207.22 440.189 204.039 438.659 201.353C437.683 199.635 436.288 198.237 434.597 197.274C433.632 196.728 432.581 196.309 431.44 196.046L429.129 195.517C422.668 194.032 415.8 198.016 413.806 204.38L353.143 398.018C352.186 401.095 352.49 404.283 354.013 406.979C354.995 408.687 356.38 410.078 358.071 411.041C359.035 411.587 360.097 412.013 361.238 412.276L363.55 412.806C369.993 414.294 376.879 410.306 378.872 403.942Z" fill="#CFCABF" stroke="#082422" stroke-width="0.5" stroke-miterlimit="10"/>
<path d="M470.037 401.909C458.015 406.119 434.14 413.832 419.507 416.765C405.891 419.504 391.677 399.646 406.556 389.332C418.711 380.926 424.489 378.547 433.565 373.919C419.363 378 411.957 379.895 400.84 377.561C390.967 375.498 382.565 359.246 393.133 348.969C403.923 338.457 418.307 332.714 438.39 322.1C428.927 325.035 422.474 327.516 415.028 330.316C397.381 336.932 382.796 328.935 379.748 321.351C374.447 308.169 381.824 298.567 387.254 294.894C404.07 283.536 440.443 271.254 459.44 263.52C460.795 262.966 449.09 267.531 450.435 266.969C440.863 264.349 427.209 257.885 427.076 247.313C426.963 238.679 431.485 229.53 441.169 226.635C461.734 220.479 479.995 219.156 499.973 219.03C505.136 218.997 510.268 220.403 514.428 223.446C520.844 228.13 523.677 235.024 522.887 240.621C521.417 251.13 514.479 258.576 506.44 266.548C515.012 270.228 520.553 278.325 519.096 288.562C516.725 305.198 502.762 310.482 493.92 313.28C503.222 315.794 509.359 321.299 510.848 330.789C512.63 342.156 507.401 351.043 488.997 359.893C501.815 364.889 502.652 380.505 493.442 389.561C493.348 389.652 493.262 389.734 493.158 389.818L488.206 395.073" fill="#FFCD9C"/>
<path d="M470.037 401.909C458.015 406.119 434.14 413.832 419.507 416.765C405.891 419.504 391.677 399.646 406.556 389.332C418.711 380.926 424.489 378.547 433.565 373.919C419.363 378 411.957 379.895 400.84 377.561C390.967 375.498 382.565 359.246 393.133 348.969C403.923 338.457 418.307 332.714 438.39 322.1C428.927 325.035 422.474 327.516 415.028 330.316C397.381 336.932 382.796 328.935 379.748 321.351C374.447 308.169 381.824 298.567 387.254 294.894C404.07 283.536 440.443 271.254 459.44 263.52C460.795 262.966 449.09 267.531 450.435 266.969C440.863 264.349 427.209 257.885 427.076 247.313C426.963 238.679 431.485 229.53 441.169 226.635C461.734 220.479 479.995 219.156 499.973 219.03C505.136 218.997 510.268 220.403 514.428 223.446C520.844 228.13 523.677 235.024 522.887 240.621C521.417 251.13 514.479 258.576 506.44 266.548C515.012 270.228 520.553 278.325 519.096 288.562C516.725 305.198 502.762 310.482 493.92 313.28C503.222 315.794 509.359 321.299 510.848 330.789C512.63 342.156 507.401 351.042 488.997 359.893C501.815 364.889 502.652 380.505 493.442 389.561C493.348 389.652 493.262 389.734 493.158 389.818L488.206 395.073" stroke="#082422" stroke-width="0.5" stroke-miterlimit="10" stroke-linecap="round"/>
<path d="M438.213 227.653C438.231 230.942 438.714 237.637 441.946 242.162C441.946 242.162 467.826 241.029 470.682 236.618C473.087 232.895 470.42 223.38 469.515 220.483C466.298 220.829 463.073 221.278 459.812 221.827C457.457 222.277 455.094 222.737 452.792 223.177C449.348 223.927 445.863 224.805 442.291 225.857C440.794 226.3 439.449 226.909 438.22 227.643L438.213 227.653Z" fill="#FFCD9C" stroke="#082422" stroke-width="0.5" stroke-miterlimit="10" stroke-linecap="round"/>
<path d="M392.508 324.658C392.508 324.658 419.542 318.672 421.056 313.334C423.174 305.828 414.517 294.636 414.279 294.21C412.506 291.127 409.349 290.38 406.388 291.63C396.54 295.795 383.589 302.263 382.882 302.916C381.931 311.013 386.598 321.357 392.516 324.648L392.508 324.658Z" fill="#FFCD9C" stroke="#082422" stroke-width="0.5" stroke-miterlimit="10" stroke-linecap="round"/>
<path d="M404.685 373.599C404.685 373.599 433.042 366.991 434.505 361.819C435.395 358.681 431.109 348.828 427.954 343.346C426.237 340.363 423.187 339.642 420.329 340.853C410.813 344.871 396.059 351.962 395.376 352.6C394.457 360.424 398.973 370.418 404.685 373.599Z" fill="#FFCD9C" stroke="#082422" stroke-width="0.5" stroke-miterlimit="10" stroke-linecap="round"/>
<path d="M414.198 412.368C414.198 412.368 437.207 407.003 438.395 402.809C439.119 400.257 435.633 392.267 433.081 387.816C431.695 385.399 429.206 384.811 426.896 385.789C419.168 389.049 407.2 394.803 406.643 395.325C405.897 401.682 409.564 409.794 414.198 412.368Z" fill="#FFCD9C" stroke="#082422" stroke-width="0.5" stroke-miterlimit="10" stroke-linecap="round"/>
<path d="M459.433 263.511C479.316 255.571 498.337 263.507 498.337 263.507L459.433 263.511Z" fill="#FFCD9C"/>
<path d="M459.433 263.511C479.316 255.571 498.337 263.507 498.337 263.507" stroke="#082422" stroke-width="0.5" stroke-miterlimit="10" stroke-linecap="round"/>
<path d="M433.019 374.18C457.084 364.998 475.653 357.253 489.232 360.033L433.019 374.18Z" fill="#FFCD9C"/>
<path d="M433.019 374.18C457.084 364.998 475.653 357.253 489.232 360.033" stroke="#082422" stroke-width="0.5" stroke-miterlimit="10" stroke-linecap="round"/>
<path d="M438.204 322.173C471.181 308.329 494.702 313.39 494.702 313.39L438.204 322.173Z" fill="#FFCD9C"/>
<path d="M438.204 322.173C471.181 308.329 494.702 313.39 494.702 313.39" stroke="#082422" stroke-width="0.5" stroke-miterlimit="10" stroke-linecap="round"/>
<path d="M226.939 424.985C228.117 423.068 228.845 420.922 229.085 418.694C231.29 398.28 234.148 305.602 272.598 267.974C307.027 234.277 338.676 215.027 385.628 164.105C392.3 156.866 405.499 157.897 412.733 170.405C420.8 184.363 408.747 206.38 403.851 214.251C389.163 237.862 363.097 264.849 357.778 274.668C350.67 287.761 357.705 330.167 347.227 353.501C336.749 376.836 321.365 396.854 321.365 396.854" fill="#FFCD9C"/>
<path d="M226.939 424.985C228.117 423.068 228.845 420.922 229.085 418.694C231.29 398.28 234.148 305.602 272.598 267.974C307.027 234.277 338.676 215.027 385.628 164.105C392.3 156.866 405.499 157.897 412.733 170.405C420.8 184.363 408.747 206.38 403.851 214.251C389.163 237.862 363.097 264.849 357.778 274.668C350.67 287.761 357.705 330.167 347.227 353.501C336.749 376.836 321.365 396.854 321.365 396.854" stroke="#082422" stroke-width="0.5" stroke-miterlimit="10" stroke-linecap="round"/>
<path d="M353.737 196.514C362.891 187.793 372.61 178.012 383.091 166.652C383.544 166.168 384.022 165.716 384.528 165.314L395.571 180.285C395.571 180.285 375.793 206.108 368.228 205.426C363.109 204.961 357.086 199.814 353.73 196.525L353.737 196.514Z" stroke="#082422" stroke-width="0.5" stroke-miterlimit="10" stroke-linecap="round"/>
<path d="M354.901 275.744C349.589 274.992 339.657 269.084 333.132 264.652C333.058 264.602 332.984 264.551 332.931 264.515" stroke="#082422" stroke-width="0.5" stroke-miterlimit="10" stroke-linecap="round"/>
<mask id="mask0_14989_18364" style="mask-type:alpha" maskUnits="userSpaceOnUse" x="226" y="159" width="190" height="266">
<path d="M226.939 424.985C228.117 423.068 228.845 420.922 229.085 418.694C231.29 398.28 234.148 305.602 272.598 267.974C307.027 234.277 338.676 215.027 385.628 164.105C392.3 156.866 405.499 157.897 412.733 170.405C420.8 184.363 408.747 206.38 403.851 214.251C389.163 237.862 363.097 264.849 357.778 274.668C350.67 287.761 357.705 330.167 347.227 353.501C336.749 376.836 321.365 396.854 321.365 396.854" fill="#FFCD9C"/>
</mask>
<g mask="url(#mask0_14989_18364)">
<path fill-rule="evenodd" clip-rule="evenodd" d="M239.719 207.486C251.775 207.486 263.007 210.398 272.848 215.587L281.06 219.82C306.166 232.77 322.384 260.445 320.442 292.506C317.768 336.954 281.216 372.983 238.795 372.983H181.147L182.432 394.152L173.639 389.62L173.639 389.618C170.876 388.786 119.628 373.228 98.5972 330.05C92.1536 317.8 88.8744 303.388 89.8038 287.974C92.4878 243.516 129.04 207.486 171.461 207.486H239.719ZM230.002 368.451H172.359L172.359 368.451H230.007C230.918 368.451 231.827 368.434 232.732 368.401C231.825 368.434 230.915 368.451 230.002 368.451ZM182.322 394.122C180.836 393.661 171.66 390.819 159.896 384.754V384.764L151.132 380.247C163.191 386.461 172.523 389.287 173.63 389.621L182.423 394.153L182.322 394.122Z" fill="black" fill-opacity="0.2"/>
</g>
<path d="M239.719 190.41C282.13 190.41 314.337 226.44 311.653 270.898C308.969 315.345 272.428 351.374 230.007 351.374H172.359L173.644 372.543C170.939 371.729 119.641 356.178 98.5972 312.974C92.1536 300.724 88.8744 286.312 89.8038 270.898C92.4878 226.44 129.04 190.41 171.461 190.41H239.719Z" fill="#8DFDFA" stroke="#002522" stroke-width="0.5" stroke-miterlimit="10"/>
<path d="M159.895 367.676C171.967 373.901 181.314 376.731 182.421 377.075L173.628 372.543C172.521 372.209 163.174 369.379 151.102 363.154L159.895 367.687V367.676Z" fill="#A8BA00" stroke="#002522" stroke-width="0.5" stroke-miterlimit="10"/>
<path d="M281.057 202.743L272.264 198.211C297.37 211.15 313.578 238.836 311.646 270.897C308.962 315.344 272.42 351.374 229.999 351.374H172.352L173.636 372.543L182.429 377.075L181.145 355.906H238.793C281.214 355.906 317.766 319.877 320.439 275.43C322.382 243.368 306.163 215.693 281.057 202.743Z" fill="#45F4F0" stroke="#002522" stroke-width="0.5" stroke-miterlimit="10"/>
<path opacity="0.5" d="M203.086 267.482C207.4 267.482 210.668 271.138 210.397 275.649C210.125 280.161 206.418 283.816 202.105 283.816C197.792 283.816 194.533 280.161 194.805 275.649C195.076 271.138 198.784 267.482 203.086 267.482Z" fill="#002522"/>
<path opacity="0.4" d="M232.698 267.482C237.001 267.482 240.27 271.138 239.998 275.649C239.727 280.161 236.019 283.816 231.717 283.816C227.414 283.816 224.135 280.161 224.406 275.649C224.678 271.138 228.385 267.482 232.698 267.482Z" fill="#002522"/>
<path d="M173.477 267.482C177.78 267.482 181.049 271.138 180.777 275.649C180.506 280.161 176.798 283.816 172.495 283.816C168.193 283.816 164.924 280.161 165.195 275.649C165.467 271.138 169.174 267.482 173.477 267.482Z" fill="#002522"/>
</g>
<defs>
<clipPath id="clip0_14989_18364">
<rect width="659.297" height="799.999" fill="white"/>
</clipPath>
</defs>
</svg>
