<svg width="615" height="636" viewBox="0 0 615 636" fill="none" xmlns="http://www.w3.org/2000/svg">
<g clip-path="url(#clip0_14902_18446)">
<path d="M69.6028 231.438C69.6028 231.438 57.4926 229.486 49.0834 229.473C48.3864 229.481 47.7297 229.507 47.1246 229.58C51.2568 237.085 53.3785 244.651 54.5042 249.442C55.1716 252.313 55.7054 255.438 54.6052 258.14C57.8521 259.859 61.5332 261.073 65.5169 261.533C83.6972 263.656 89.8264 263.469 89.8264 263.469L69.6028 231.438Z" fill="#E1776E"/>
<path d="M69.6122 231.439C69.6122 231.439 57.502 229.486 49.0928 229.473C29.1699 229.44 31.9775 263.941 66.6258 264.4C84.8061 266.523 89.807 263.48 89.807 263.48" fill="#FFCE9B"/>
<path d="M69.6122 231.439C69.6122 231.439 57.502 229.486 49.0928 229.473C29.1699 229.44 31.9775 263.941 66.6258 264.4C84.8061 266.523 89.807 263.48 89.807 263.48" stroke="#082422" stroke-width="0.917308" stroke-miterlimit="10"/>
<path d="M94.7248 306.428C71.7365 312.202 50.6153 315.306 44.4031 298.694C41.8787 291.941 46.4117 280.622 64.3069 273.59L83.1733 266.137" fill="#FFCE9B"/>
<path d="M94.7248 306.428C71.7365 312.202 50.6153 315.306 44.4031 298.694C41.8787 291.941 46.4117 280.622 64.3069 273.59L83.1733 266.137" stroke="#082422" stroke-width="0.917308" stroke-miterlimit="10"/>
<path d="M444.337 690.405C432.325 677.642 411.618 654.773 409.193 652.263C360.165 601.527 295.789 519.221 242.518 494.994C215.715 484.806 204.918 476.468 181.134 460.752C170.261 453.574 158.588 447.747 147.698 440.611C143.063 437.573 139.112 436.265 134.042 435.167C129.559 434.203 125.874 432.557 122.727 429.065C119.339 425.301 118.665 425.367 117.327 420.46C115.194 412.698 117.662 402.819 122.912 396.609C125.523 393.51 129.04 391.354 132.556 389.364C138.036 386.266 143.669 383.474 149.468 381.016C154.402 378.9 158.309 378.324 163.393 377.516C169.364 376.591 175.502 372.966 181.065 370.668C187.492 368.029 193.891 365.401 200.421 363.022C220.964 355.507 243.845 349.436 265.479 355.997C281.839 360.94 295.076 372.752 307.745 384.222C334.034 408.054 360.312 431.856 386.601 455.687C392.78 461.283 399.051 466.943 406.442 470.794C414.792 475.132 579.855 630.767 588.939 633.248" fill="#FFCE9B"/>
<path d="M444.337 690.405C432.325 677.642 411.618 654.773 409.193 652.263C360.165 601.527 295.789 519.221 242.518 494.994C215.715 484.806 204.918 476.468 181.134 460.752C170.261 453.574 158.588 447.747 147.698 440.611C143.063 437.573 139.112 436.265 134.042 435.167C129.559 434.203 125.874 432.557 122.727 429.065C119.339 425.301 118.665 425.367 117.327 420.46C115.194 412.698 117.662 402.819 122.912 396.609C125.523 393.51 129.04 391.354 132.556 389.364C138.036 386.266 143.669 383.474 149.468 381.016C154.402 378.9 158.309 378.324 163.393 377.516C169.364 376.591 175.502 372.966 181.065 370.668C187.492 368.029 193.891 365.401 200.421 363.022C220.964 355.507 243.845 349.436 265.479 355.997C281.839 360.94 295.076 372.752 307.745 384.222C334.034 408.054 360.312 431.856 386.601 455.687C392.78 461.283 399.051 466.943 406.442 470.794C414.792 475.132 579.855 630.767 588.939 633.248" stroke="#082422" stroke-width="0.917308" stroke-miterlimit="10"/>
<path d="M89.885 347.482C87.3774 350.674 84.6717 357.079 85.9544 364.209C86.8774 369.247 88.3857 368.084 92.6123 371.017C101.651 377.351 114.407 377.815 123.883 372.17C132.77 366.892 138.44 355.414 134.79 345.751C131.532 337.166 121.628 331.174 112.491 331.515C102.629 331.876 95.7284 340.071 89.885 347.482Z" fill="#FFCE9B" stroke="#082422" stroke-width="0.917308" stroke-miterlimit="10"/>
<path d="M144.568 420.104C150.49 431.972 165.007 436.809 176.863 430.858L287.584 375.479C299.451 369.557 304.288 355.04 298.337 343.184L165.354 77.2966C159.432 65.4292 144.915 60.5922 133.059 66.5431L22.3376 121.922C10.4701 127.844 5.63313 142.361 11.584 154.217L144.568 420.104Z" fill="#5AFFFE" stroke="#082422" stroke-width="0.917308" stroke-miterlimit="10"/>
<path d="M209.174 164.707L209.847 164.368C210.342 164.135 210.537 163.508 210.304 163.01L192.283 126.974C192.051 126.479 191.423 126.284 190.925 126.517L190.252 126.856L209.172 164.704L209.174 164.707Z" fill="#5AFFFE" stroke="#082422" stroke-width="0.917308" stroke-miterlimit="10"/>
<path d="M135.515 71.884C145.114 67.0708 156.842 70.9692 161.653 80.5717L161.654 80.5726L293.499 344.188L293.711 344.625C295.847 349.162 296.15 354.27 294.556 359.054C292.96 363.839 289.652 367.751 285.214 370.11L284.781 370.334L175.006 425.238C174.483 425.499 173.952 425.735 173.416 425.947L173.416 425.948L173.413 425.949L173.413 425.948C169.176 427.621 164.524 427.752 160.141 426.292C155.202 424.644 151.193 421.171 148.862 416.516L17.0143 152.905C14.6879 148.261 14.3124 142.977 15.9568 138.039L15.9574 138.037C17.605 133.098 21.0771 129.089 25.7325 126.759L25.7334 126.758L37.1993 121.038L119.146 80.0683L135.515 71.8849L135.515 71.884ZM140.257 79.1825C139.958 79.3004 139.664 79.4329 139.369 79.5782L139.353 79.5869L139.348 79.5887L122.997 87.7668L41.0474 128.738L29.5803 134.457C26.9834 135.759 25.0437 137.997 24.1224 140.762C23.2027 143.523 23.4123 146.466 24.711 149.057L24.7114 149.058L156.557 412.673L156.812 413.152C158.142 415.513 160.27 417.271 162.862 418.135C165.623 419.054 168.566 418.844 171.157 417.546L280.935 362.64C283.537 361.336 285.475 359.099 286.397 356.334C287.259 353.746 287.128 350.998 286.038 348.53L285.808 348.04L153.962 84.425L153.714 83.9578C151.05 79.2259 145.27 77.202 140.259 79.1815L140.257 79.1825Z" fill="#0096A1" stroke="#082422" stroke-width="0.917308" stroke-miterlimit="10"/>
<path d="M137.452 73.6454C145.152 70.0287 154.407 73.2058 158.24 80.8546L158.24 80.8555L291.225 346.742L291.402 347.108C295.019 354.809 291.841 364.064 284.164 367.908L284.164 367.909L173.442 423.286L173.443 423.286C165.793 427.12 156.478 424.122 152.464 416.588L152.277 416.227L19.2936 150.339L19.1157 149.974C15.4982 142.273 18.6764 133.018 26.3535 129.173L26.3544 129.173L37.9157 123.404L120.573 82.0806L137.086 73.8234L137.452 73.6454Z" fill="#DAFC35" stroke="#082422" stroke-width="0.917308" stroke-miterlimit="10"/>
<path d="M137.292 74.2334L120.778 82.4914L38.1207 123.815L26.5592 129.583C18.9861 133.375 15.9228 142.589 19.7034 150.133L152.687 416.021C156.479 423.594 165.693 426.657 173.237 422.877L283.959 367.498C291.532 363.706 294.595 354.492 290.814 346.948L157.831 81.0603C154.05 73.5161 144.836 70.4528 137.292 74.2334Z" stroke="#082422" stroke-width="0.917308" stroke-miterlimit="10"/>
<g style="mix-blend-mode:multiply" opacity="0.1">
<path d="M297.369 351.74L232.204 221.404C232.394 224.307 232.998 227.23 233.648 229.988C238.514 250.31 246.618 269.059 250.276 289.675C256.445 324.556 262.764 355.813 257.972 390.318L289.811 374.396C298.16 370.213 301.55 360.087 297.369 351.74Z" fill="#082422"/>
</g>
<path d="M509.818 664.818L614.749 623.232C583.99 600.833 444 485.926 413.901 459.845C388.773 438.071 363.315 417.893 351.306 386.82C347.279 376.372 338.055 325.818 306.618 276.234C298.433 263.146 281.431 238.979 271.721 227.484C269.242 224.832 256.66 211.96 253.744 209.854C248.056 205.748 240.598 205.306 234.027 212.901C227.156 221.881 238.71 244.821 242.335 253.66C254.402 283.11 271.156 316.571 272.138 350.967C272.815 374.917 253.779 393.016 262.227 422.718C265.149 432.993 271.39 441.986 279.777 448.598C281.831 450.217 283.943 451.764 286.064 453.274" fill="#FFCE9B"/>
<path d="M509.818 664.818L614.749 623.232C583.99 600.833 444 485.926 413.901 459.845C388.773 438.071 363.315 417.893 351.306 386.82C347.279 376.372 338.055 325.818 306.618 276.234C298.433 263.146 281.431 238.979 271.721 227.484C269.242 224.832 256.66 211.96 253.744 209.854C248.056 205.748 240.598 205.306 234.027 212.901C227.156 221.881 238.71 244.821 242.335 253.66C254.402 283.11 271.156 316.571 272.138 350.967C272.815 374.917 253.779 393.016 262.227 422.718C265.149 432.993 271.39 441.986 279.777 448.598C281.831 450.217 283.943 451.764 286.064 453.274" stroke="#082422" stroke-width="0.917308" stroke-miterlimit="10"/>
<path d="M271.709 227.496C269.23 224.843 256.648 211.971 253.732 209.865C253.396 209.624 253.056 209.395 252.707 209.179L246.15 214.725C245.915 214.924 245.88 215.275 246.074 215.512L246.31 215.805C246.66 216.201 254.825 226.065 264.61 230.227C266.479 231.032 268.611 231.161 270.382 230.631C270.75 230.522 271.138 230.373 271.462 230.241C272.043 229.938 272.541 229.568 273.017 229.06C272.58 228.536 272.139 228.012 271.706 227.497L271.709 227.496Z" stroke="#082422" stroke-width="0.917308" stroke-miterlimit="10"/>
<path d="M163.227 443.042C174.433 439.583 179.905 430.051 170.806 420.272C167.332 416.542 162.601 414.275 157.892 412.401C151.153 409.693 144.21 407.567 137.132 406.028C134.905 405.54 132.632 405.104 130.367 405.365C127.428 405.692 124.767 407.144 122.363 408.827C115.331 413.786 116.454 420.773 120.319 426.986C123.251 431.698 127.785 435.906 131.405 438.805C140.813 446.327 152.09 446.508 163.227 443.042Z" fill="#FFCE9B"/>
<path d="M117.958 422.528C120.086 429.021 126.532 434.912 131.397 438.81C140.805 446.332 152.082 446.513 163.219 443.047C174.425 439.587 179.897 430.055 170.798 420.276C167.324 416.546 162.593 414.28 157.884 412.405C151.244 409.739 144.343 407.609 137.375 406.077" stroke="#082422" stroke-width="0.917308" stroke-miterlimit="10" stroke-linecap="round"/>
<path d="M142.539 384.592C143.696 382.651 144.434 380.501 144.409 378.217C144.393 370.056 135.572 362.602 129.154 358.824C121.862 354.548 115.257 351.588 106.915 350.461C103.03 349.938 97.2027 350.316 93.4901 351.513C89.7774 352.709 86.3703 355.709 85.7957 359.548C85.2991 362.816 86.5736 368.355 87.785 371.422C93.7778 386.676 122.267 402.999 138.155 389.635C139.81 388.271 141.385 386.535 142.543 384.594L142.539 384.592Z" fill="#FFCE9B"/>
<path d="M85.6714 359.415C85.5777 360.976 85.667 361.641 85.7764 362.856C86.0436 365.828 86.9373 369.247 87.7977 371.425C93.7905 386.679 122.279 403.002 138.167 389.639C139.823 388.274 141.398 386.538 142.555 384.597C143.713 382.656 144.451 380.506 144.426 378.222C144.41 370.061 135.589 362.607 129.171 358.829C121.879 354.553 115.274 351.593 106.932 350.466" stroke="#082422" stroke-width="0.917308" stroke-miterlimit="10"/>
<path d="M158.609 442.123C158.188 442.29 157.331 442.291 154.481 442.073C153.056 441.962 150.875 441.743 150.43 441.656C147.02 440.875 144.265 439.572 142.221 437.802C139.425 435.358 138.093 431.699 138.868 428.555C139.505 425.912 141.482 424.01 144.432 423.255C154.793 420.543 159.927 424.084 160.165 424.214L160.782 424.644L160.577 425.358C158.751 431.609 158.627 437.821 159.291 440.92L159.397 441.475L158.969 441.904C158.84 441.955 158.769 442.057 158.608 442.12L158.609 442.123Z" stroke="#082422" stroke-width="0.917308" stroke-miterlimit="10"/>
<path d="M124.218 389.391L122.867 388.891C114.524 385.787 109.28 382.373 106.382 378.152C104.096 374.882 103.761 370.006 105.551 366.594C107.163 363.533 110.3 361.816 114.365 361.841C122.365 361.863 131.018 367.069 131.382 367.282L132.328 367.862L131.748 368.808C131.672 368.918 125.069 379.674 124.36 387.944L124.215 389.392L124.218 389.391Z" stroke="#082422" stroke-width="0.917308" stroke-miterlimit="10"/>
<path d="M97.3862 99.4454L70.6991 112.778C67.366 114.443 66.0136 118.494 67.6784 121.827C69.3431 125.159 73.3946 126.51 76.7277 124.845L103.415 111.513C106.748 109.848 108.1 105.796 106.435 102.464C104.771 99.1318 100.719 97.7803 97.3862 99.4454Z" fill="#0096A1" stroke="#082422" stroke-width="0.917308" stroke-miterlimit="10"/>
<path d="M243.531 87.5741L247.288 106.328C247.462 107.182 247.851 107.848 248.406 108.32L263.22 120.814C262.666 120.342 262.268 119.664 262.103 118.821L258.346 100.067C258.175 99.1932 257.775 98.5259 257.221 98.0539L242.406 85.5605C242.962 86.0226 243.36 86.6999 243.531 87.5741Z" fill="#0096A1" stroke="#082422" stroke-width="0.917308" stroke-miterlimit="10"/>
<path d="M125.436 258.459L110.621 245.966C110.353 245.741 110.048 245.563 109.698 245.43L93.4263 239.343C93.0659 239.209 92.7515 239.03 92.4844 238.795L107.299 251.288C107.568 251.513 107.881 251.702 108.241 251.836L124.513 257.923C124.863 258.056 125.167 258.234 125.436 258.459Z" fill="#0096A1" stroke="#082422" stroke-width="0.917308" stroke-miterlimit="10"/>
<path d="M146.598 286.144C147.289 286.225 147.9 286.48 148.381 286.883L133.566 274.389C133.085 273.987 132.485 273.733 131.783 273.65C131.191 273.581 130.534 273.635 129.84 273.828L108.936 279.528C108.222 279.718 107.565 279.773 106.973 279.703C106.271 279.62 105.661 279.365 105.191 278.954L120.005 291.447C120.487 291.85 121.086 292.113 121.788 292.196C122.379 292.266 123.037 292.211 123.75 292.021L144.655 286.321C145.349 286.129 146.006 286.074 146.598 286.144Z" fill="#0096A1" stroke="#082422" stroke-width="0.917308" stroke-miterlimit="10"/>
<path d="M271.331 136.755L286.146 149.249C284.944 148.232 284.59 146.32 285.286 144.125L292.466 121.424C293.194 119.131 292.775 117.251 291.591 116.258L276.776 103.764C277.961 104.758 278.38 106.637 277.652 108.931L270.471 131.631C269.775 133.827 270.129 135.739 271.331 136.755Z" fill="#0096A1" stroke="#082422" stroke-width="0.917308" stroke-miterlimit="10"/>
<path d="M303.379 164.865C305.878 161.692 306.18 158.007 304.294 156.412L289.48 143.919C291.366 145.514 291.063 149.199 288.564 152.371L272.364 172.931C270.441 175.358 269.753 178.256 270.606 180.166L277.902 196.409C279.191 199.276 277 203.979 273.327 206.24L252.444 219.171C249.987 220.701 248.057 223.443 247.628 226.046L243.982 248.085C243.341 251.975 239.533 255.816 236.018 256.134L216.06 257.949C213.705 258.17 211.066 260.034 209.459 262.621L195.851 284.563C193.918 287.68 190.687 289.557 188.24 289.268C187.649 289.198 187.113 289.003 186.643 288.673L172.952 278.895C172.493 278.566 171.956 278.371 171.365 278.301C169.861 278.124 168.028 278.751 166.343 280.108L146.425 296.061C144.673 297.471 142.835 298.057 141.361 297.884C140.669 297.802 140.048 297.546 139.558 297.132L154.373 309.626C154.863 310.039 155.484 310.295 156.176 310.377C157.65 310.551 159.478 309.963 161.24 308.554L181.157 292.602C182.843 291.245 184.685 290.618 186.18 290.794C186.771 290.864 187.307 291.059 187.767 291.388L201.458 301.167C201.927 301.496 202.474 301.693 203.055 301.762C205.502 302.05 208.733 300.174 210.666 297.057L224.274 275.114C225.88 272.528 228.51 270.662 230.874 270.443L250.833 268.627C254.348 268.31 258.146 264.467 258.797 260.578L262.443 238.539C262.872 235.936 264.801 233.195 267.259 231.664L288.142 218.733C291.816 216.462 294.007 211.759 292.717 208.902L285.421 192.659C284.559 190.738 285.256 187.851 287.179 185.424L303.379 164.865Z" fill="#0096A1" stroke="#082422" stroke-width="0.917308" stroke-miterlimit="10"/>
<path d="M240.592 84.8147C242.066 84.9884 243.186 85.9237 243.521 87.5696L247.278 106.324C247.6 107.907 248.685 108.879 250.189 109.056C250.781 109.126 251.438 109.071 252.131 108.878L273.026 103.178C273.74 102.987 274.397 102.933 274.989 103.002C277.435 103.291 278.667 105.693 277.656 108.919L270.476 131.619C269.622 134.294 270.34 136.565 272.259 137.279L288.531 143.366C291.392 144.446 291.405 148.738 288.558 152.357L272.358 172.917C270.435 175.343 269.748 178.241 270.6 180.152L277.897 196.395C279.185 199.261 276.994 203.964 273.321 206.226L252.439 219.157C249.981 220.687 248.051 223.428 247.622 226.031L243.977 248.071C243.335 251.96 239.527 255.802 236.012 256.12L216.054 257.935C213.699 258.156 211.06 260.02 209.454 262.606L195.845 284.549C193.912 287.666 190.681 289.542 188.235 289.254C187.643 289.184 187.107 288.989 186.637 288.659L172.946 278.881C172.487 278.552 171.951 278.357 171.359 278.287C169.855 278.109 168.022 278.737 166.337 280.094L146.42 296.047C144.667 297.457 142.829 298.043 141.355 297.869C139.881 297.696 138.761 296.76 138.427 295.104L134.669 276.361C134.349 274.767 133.264 273.795 131.769 273.619C131.178 273.549 130.521 273.604 129.827 273.797L108.922 279.496C108.209 279.687 107.551 279.741 106.96 279.672C104.513 279.383 103.281 276.981 104.302 273.756L111.482 251.056C112.337 248.381 111.617 246.12 109.699 245.396L93.4278 239.309C90.5547 238.238 90.5522 233.947 93.41 230.319L109.6 209.759C111.523 207.332 112.22 204.445 111.358 202.524L104.073 186.272C102.783 183.415 104.964 178.711 108.648 176.441L129.52 163.518C131.988 161.989 133.917 159.248 134.336 156.644L137.982 134.604C138.622 130.725 142.421 126.872 145.936 126.554L165.895 124.739C168.258 124.53 170.889 122.654 172.495 120.068L186.103 98.1249C188.036 95.0078 191.267 93.1316 193.704 93.4189C194.295 93.4886 194.831 93.684 195.301 94.0139L209.002 103.793C209.462 104.122 209.998 104.317 210.589 104.387C212.084 104.563 213.916 103.936 215.61 102.59L235.529 86.6273C237.28 85.2273 239.108 84.6397 240.592 84.8147Z" fill="#5AFFFE" stroke="#082422" stroke-width="0.917308" stroke-miterlimit="10"/>
<path d="M240.841 164.853C241.964 164.985 242.832 165.647 243.183 166.806L245.425 174.178C246.13 176.477 244.532 179.857 241.862 181.718L165.733 234.996C164.414 235.918 163.078 236.3 161.985 236.171C160.892 236.042 160.013 235.389 159.65 234.238L150.943 206.676C150.226 204.395 151.794 201.011 154.456 199.129L162.998 193.08C164.329 192.139 165.677 191.749 166.79 191.88C167.903 192.011 168.761 192.661 169.125 193.802L173.706 208.332C173.854 208.797 174.199 209.062 174.65 209.115C175.102 209.168 175.639 209.008 176.181 208.634L237.074 166.015C238.393 165.093 239.729 164.711 240.832 164.842L240.841 164.853Z" fill="#0096A1"/>
<path d="M243.143 167.991L241.004 160.957C240.843 160.42 240.558 159.99 240.188 159.682L225.373 147.189C225.744 147.497 226.018 147.925 226.189 148.464L228.328 155.498C229.005 157.692 227.476 160.918 224.927 162.702L173.973 198.37L170.302 186.733C170.141 186.205 169.864 185.796 169.493 185.488L154.679 172.995C155.039 173.302 155.316 173.711 155.488 174.239L159.86 188.114C159.927 188.326 160.04 188.491 160.187 188.621L172.756 199.212L152.255 213.561C150.992 214.439 149.718 214.807 148.676 214.684C148.124 214.619 147.639 214.42 147.251 214.089L162.066 226.583C162.454 226.913 162.939 227.112 163.49 227.177C164.533 227.3 165.807 226.932 167.07 226.054L239.753 175.186C242.302 173.402 243.831 170.177 243.154 167.982L243.143 167.991Z" fill="#BFBFBF" stroke="#082422" stroke-width="0.917308" stroke-miterlimit="10"/>
<path d="M223.927 146.587C225 146.714 225.83 147.351 226.167 148.458L228.307 155.492C228.983 157.686 227.454 160.912 224.905 162.696L152.222 213.563C150.959 214.441 149.686 214.81 148.643 214.687C147.6 214.564 146.759 213.936 146.409 212.848L138.094 186.531C137.405 184.355 138.916 181.117 141.456 179.322L149.609 173.553C150.884 172.656 152.168 172.279 153.231 172.404C154.294 172.529 155.115 173.155 155.465 174.243L159.838 188.118C159.979 188.562 160.315 188.815 160.746 188.866C161.177 188.917 161.693 188.764 162.203 188.407L220.337 147.72C221.599 146.842 222.873 146.473 223.926 146.597L223.927 146.587Z" fill="white" stroke="#082422" stroke-width="0.917308" stroke-miterlimit="10"/>
</g>
<defs>
<clipPath id="clip0_14902_18446">
<rect width="614.596" height="636" fill="white"/>
</clipPath>
</defs>
</svg>
