<svg width="1246" height="475" viewBox="0 0 1246 475" fill="none" xmlns="http://www.w3.org/2000/svg">
<g clip-path="url(#clip0_15017_12244)">
<path d="M682.571 381.828C682.571 381.828 675.284 390.139 671.25 396.553C670.923 397.089 670.629 397.603 670.394 398.099C678.102 398.532 684.894 400.53 689.091 401.961C691.603 402.824 694.244 403.91 695.781 406.041C698.647 404.384 701.335 402.155 703.593 399.334C713.914 386.47 716.705 381.702 716.705 381.702L682.571 381.828Z" fill="#E1776E"/>
<path d="M682.561 381.833C682.561 381.833 675.275 390.144 671.241 396.557C661.682 411.748 689.367 426.097 706.298 399.869C716.618 387.006 716.688 381.734 716.688 381.734" fill="#FFCE9B"/>
<path d="M682.561 381.833C682.561 381.833 675.275 390.144 671.241 396.557C661.682 411.748 689.367 426.097 706.298 399.869C716.618 387.006 716.688 381.734 716.688 381.734" stroke="#082422" stroke-width="0.5" stroke-miterlimit="10"/>
<path d="M751.84 398.501C745.247 418.807 737.51 436.413 721.855 433.214C715.491 431.913 709.019 423.043 712.213 406.022L715.551 388.059" fill="#FFCE9B"/>
<path d="M751.84 398.501C745.247 418.807 737.51 436.413 721.855 433.214C715.491 431.913 709.019 423.043 712.213 406.022L715.551 388.059" stroke="#082422" stroke-width="0.5" stroke-miterlimit="10"/>
<path d="M1241.89 310.594C1226.4 313.662 1181.89 320.562 1166.39 323.844C1104.19 337.017 1010.55 346.813 966.556 375.896C945.951 391.485 934.419 395.741 911.038 406.384C900.355 411.252 890.32 417.377 879.66 422.278C875.123 424.364 872.234 426.756 868.969 430.1C866.088 433.061 863.068 435.087 858.896 435.82C854.4 436.607 854.128 437.153 849.741 435.829C842.795 433.747 836.433 427.141 834.205 420.165C833.088 416.691 833.125 412.975 833.288 409.34C833.545 403.677 834.109 398.042 835.007 392.441C835.753 387.663 837.183 384.405 838.999 380.138C841.15 375.138 841.319 368.72 842.227 363.376C843.288 357.208 844.344 351.068 845.652 344.945C849.745 325.672 856.059 305.305 871.421 291.927C883.024 281.802 898.377 277.344 913.196 273.157C943.972 264.481 974.72 255.8 1005.49 247.125C1012.72 245.083 1020.05 243.001 1026.52 239.2C1033.83 234.9 1235.66 160.344 1241.9 154.596" fill="#FFCE9B"/>
<path d="M1241.89 310.594C1226.4 313.662 1181.89 320.562 1166.39 323.844C1104.19 337.017 1010.55 346.813 966.556 375.896C945.951 391.485 934.419 395.741 911.038 406.384C900.355 411.252 890.32 417.377 879.66 422.278C875.123 424.364 872.234 426.756 868.969 430.1C866.088 433.061 863.068 435.087 858.896 435.82C854.4 436.607 854.128 437.153 849.741 435.829C842.795 433.747 836.433 427.141 834.205 420.165C833.088 416.691 833.125 412.975 833.288 409.34C833.545 403.677 834.109 398.042 835.007 392.441C835.753 387.663 837.183 384.405 838.999 380.138C841.15 375.138 841.319 368.72 842.227 363.376C843.288 357.208 844.344 351.068 845.652 344.945C849.745 325.672 856.059 305.305 871.421 291.927C883.024 281.802 898.377 277.344 913.196 273.157C943.972 264.481 974.72 255.8 1005.49 247.125C1012.72 245.083 1020.05 243.001 1026.52 239.2C1033.83 234.9 1235.66 160.344 1241.9 154.596" stroke="#082422" stroke-width="0.5" stroke-miterlimit="10"/>
<path d="M780.883 421.835C782.119 425.275 785.714 430.401 791.772 432.83C796.06 434.534 795.894 432.827 800.155 431.002C809.316 427.131 815.774 417.616 815.999 407.685C816.222 398.379 810.173 388.564 801.048 386.732C792.936 385.115 783.621 389.811 779.51 396.947C775.066 404.648 778.021 413.832 780.883 421.835Z" fill="#FFCE9B" stroke="#082422" stroke-width="0.5" stroke-miterlimit="10"/>
<path d="M862.464 414.824C874.36 415.977 885 407.207 886.13 395.311L896.834 284.313C897.992 272.423 889.223 261.79 877.322 260.665L610.667 235.076C598.772 233.924 588.131 242.694 587.001 254.59L576.297 365.587C575.14 377.478 583.909 388.11 595.809 389.235L862.464 414.824Z" fill="#2BF2F1" stroke="#082422" stroke-width="0.5" stroke-miterlimit="10"/>
<path d="M698.372 243.425L698.435 242.749C698.495 242.259 698.109 241.81 697.617 241.75L661.476 238.279C660.987 238.219 660.537 238.605 660.477 239.097L660.414 239.773L698.369 243.424L698.372 243.425Z" fill="#2BF2F1" stroke="#082422" stroke-width="0.5" stroke-miterlimit="10"/>
<path d="M592.43 255.282C593.34 245.743 601.85 238.72 611.394 239.629L875.771 265C880.387 265.44 884.561 267.658 887.517 271.241C890.472 274.827 891.859 279.352 891.415 283.977L880.802 394.027C880.752 394.546 880.678 395.059 880.584 395.565L880.585 395.565L880.584 395.568L880.583 395.568C879.84 399.564 877.734 403.144 874.551 405.767C870.963 408.723 866.436 410.11 861.809 409.668L597.435 384.3C592.818 383.86 588.644 381.642 585.688 378.059C582.732 374.473 581.346 369.949 581.79 365.323L581.791 365.322L582.91 353.834L590.845 271.691L592.43 255.282ZM599.949 255.106C599.895 255.395 599.854 255.688 599.824 255.986L599.823 255.997L599.822 255.999L598.241 272.4L590.306 354.547L589.186 366.035L589.185 366.035C588.932 368.683 589.726 371.277 591.423 373.335C593.119 375.391 595.506 376.659 598.149 376.91L862.526 402.282C865.18 402.535 867.773 401.74 869.833 400.042C871.89 398.346 873.159 395.96 873.412 393.318L884.025 283.266L884.06 282.769C884.176 280.291 883.379 277.893 881.787 275.963C880.092 273.908 877.706 272.64 875.063 272.388L875.062 272.388L610.686 247.017C605.52 246.525 600.88 250.096 599.949 255.103L599.949 255.106Z" fill="#2BF2F1" stroke="#082422" stroke-width="0.5" stroke-miterlimit="10"/>
<path d="M594.659 255.002C595.384 247.418 602.053 241.805 609.612 242.331L609.973 242.36L876.629 267.95C884.336 268.683 890.006 275.549 889.264 283.28L878.56 394.279C877.823 401.984 870.952 407.653 863.218 406.915L596.562 381.325C588.855 380.592 583.185 373.727 583.927 365.996L583.927 365.995L585.057 354.412L593.061 271.556L594.659 255.002Z" fill="#274B4B" stroke="#082422" stroke-width="0.5" stroke-miterlimit="10"/>
<path d="M594.907 255.025L593.31 271.58L585.305 354.436L584.176 366.019C583.447 373.613 589.016 380.357 596.586 381.077L863.242 406.666C870.839 407.392 877.587 401.822 878.311 394.255L889.015 283.257C889.744 275.662 884.175 268.919 876.605 268.199L609.949 242.61C602.38 241.889 595.631 247.459 594.907 255.025Z" stroke="#082422" stroke-width="0.5" stroke-miterlimit="10"/>
<g style="mix-blend-mode:multiply" opacity="0.1">
<path d="M883.414 265.509L752.708 252.95C755.015 254.193 757.536 255.129 759.953 255.952C777.799 261.952 795.993 264.729 813.485 271.792C843.071 283.759 869.962 293.88 894.015 314.036L897.096 282.112C897.898 273.738 891.789 266.307 883.414 265.509Z" fill="#082422"/>
</g>
<path d="M1242.57 310.59L1242.58 153.084C1210.75 165.858 1056.02 217.796 1021.7 228.305C993.054 237.079 965.463 246.868 935.991 241.18C926.086 239.26 883.072 222.134 830.167 222.429C816.257 222.421 789.668 223.847 776.244 225.765C773.033 226.389 757.183 229.84 754.18 231.06C748.322 233.439 744.416 238.921 747.07 247.568C750.639 257.107 773.683 259.253 782.167 260.712C810.428 265.578 843.995 268.785 870.728 284.479C889.339 295.412 894.048 318.597 920.77 326.346C930.013 329.028 939.867 328.563 948.929 325.32C951.149 324.527 953.34 323.654 955.508 322.757" fill="#FFCE9B"/>
<path d="M1242.57 310.59L1242.58 153.084C1210.75 165.858 1056.02 217.796 1021.7 228.305C993.054 237.079 965.463 246.868 935.991 241.18C926.086 239.26 883.072 222.134 830.167 222.429C816.257 222.421 789.668 223.847 776.244 225.765C773.033 226.389 757.183 229.84 754.18 231.06C748.322 233.439 744.416 238.921 747.07 247.568C750.639 257.107 773.683 259.253 782.167 260.712C810.428 265.578 843.995 268.785 870.728 284.479C889.339 295.412 894.048 318.597 920.77 326.346C930.013 329.028 939.867 328.563 948.929 325.32C951.149 324.527 953.34 323.654 955.508 322.757" stroke="#082422" stroke-width="0.5" stroke-miterlimit="10"/>
<path d="M776.261 225.71C773.05 226.334 757.201 229.785 754.198 231.005C753.853 231.145 753.515 231.296 753.184 231.459L754.279 239.115C754.319 239.389 754.57 239.584 754.844 239.549L755.181 239.509C755.65 239.431 767.089 237.914 774.949 232.434C776.459 231.392 777.577 229.826 778.02 228.221C778.113 227.888 778.184 227.521 778.239 227.21C778.286 226.622 778.242 226.065 778.082 225.459C777.472 225.542 776.862 225.628 776.261 225.713L776.261 225.71Z" stroke="#082422" stroke-width="0.5" stroke-miterlimit="10"/>
<path d="M888.958 411.548C891.679 401.34 887.021 392.607 875.201 394.878C870.69 395.747 866.696 398.275 863.011 400.973C857.72 404.823 852.774 409.106 848.212 413.773C846.774 415.24 845.353 416.767 844.469 418.62C843.312 421.02 843.147 423.745 843.282 426.384C843.703 434.122 849.575 436.605 856.168 436.624C861.168 436.639 866.55 435.19 870.496 433.812C880.741 430.227 886.275 421.705 888.958 411.548Z" fill="#FFCE9B"/>
<path d="M851.615 436.289C857.59 437.768 865.172 435.663 870.476 433.813C880.721 430.228 886.255 421.706 888.938 411.549C891.659 401.342 887 392.609 875.181 394.88C870.67 395.749 866.676 398.276 862.991 400.975C857.779 404.768 852.851 409.017 848.346 413.604" stroke="#082422" stroke-width="0.5" stroke-miterlimit="10" stroke-linecap="round"/>
<path d="M834.413 399.382C833.485 397.57 832.197 395.979 830.441 394.907C824.202 391.018 814.29 394.188 808.335 397.281C801.581 400.803 796.16 404.43 791.308 410.26C789.049 412.975 786.549 417.604 785.686 421.009C784.823 424.415 785.483 428.45 788.139 430.724C790.396 432.665 795.235 434.34 798.156 434.881C812.671 437.598 838.765 423.654 836.166 405.139C835.916 403.223 835.344 401.191 834.416 399.38L834.413 399.382Z" fill="#FFCE9B"/>
<path d="M787.979 430.766C789.126 431.583 789.677 431.833 790.656 432.33C793.053 433.547 796.091 434.499 798.166 434.883C812.68 437.6 838.774 423.657 836.175 405.142C835.925 403.226 835.353 401.194 834.425 399.382C833.497 397.571 832.209 395.98 830.453 394.907C824.215 391.018 814.303 394.188 808.347 397.282C801.593 400.804 796.172 404.431 791.32 410.26" stroke="#082422" stroke-width="0.5" stroke-miterlimit="10"/>
<path d="M886.041 414.627C885.967 415.028 885.558 415.683 884.028 417.755C883.261 418.789 882.051 420.349 881.771 420.646C879.543 422.876 877.23 424.357 874.9 425.07C871.696 426.037 868.265 425.304 866.236 423.209C864.523 421.46 864.017 419.042 864.852 416.43C867.739 407.225 872.9 404.998 873.112 404.879L873.736 404.613L874.183 405.111C878.082 409.493 882.765 412.557 885.449 413.531L885.924 413.716L886.047 414.247C886.024 414.371 886.067 414.473 886.039 414.627L886.041 414.627Z" stroke="#082422" stroke-width="0.5" stroke-miterlimit="10"/>
<path d="M829.313 415.663L828.284 416.456C821.922 421.34 816.806 423.711 812.196 423.906C808.607 424.087 804.723 422.013 802.975 419.015C801.409 416.321 801.6 413.106 803.564 410.015C807.408 403.92 815.524 399.803 815.861 399.627L816.756 399.182L817.201 400.077C817.249 400.188 822.301 410.369 828.276 414.863L829.312 415.666L829.313 415.663Z" stroke="#082422" stroke-width="0.5" stroke-miterlimit="10"/>
<path d="M595.051 297.544L592.461 324.285C592.137 327.625 594.582 330.593 597.922 330.915C601.262 331.237 604.231 328.791 604.555 325.451L607.145 298.71C607.469 295.37 605.024 292.402 601.684 292.08C598.345 291.758 595.375 294.204 595.051 297.544Z" fill="#2BF2F1" stroke="#082422" stroke-width="0.5" stroke-miterlimit="10"/>
<path d="M610.671 220.679C610.671 220.679 620.213 226.26 626.07 231.068C626.55 231.473 626.991 231.867 627.371 232.264C620.196 235.113 614.386 239.155 610.858 241.84C608.748 243.453 606.587 245.318 605.804 247.826C602.561 247.16 599.305 245.895 596.27 243.933C582.408 234.994 578.252 231.353 578.252 231.353L610.671 220.679Z" fill="#E1776E"/>
<path d="M610.672 220.681C610.672 220.681 620.214 226.261 626.071 231.069C639.947 242.458 618.228 264.825 593.865 245.296C580.003 236.357 578.268 231.378 578.268 231.378" fill="#E5B481"/>
<path d="M610.672 220.681C610.672 220.681 620.214 226.261 626.071 231.069C639.947 242.458 618.228 264.825 593.865 245.296C580.003 236.357 578.268 231.378 578.268 231.378" stroke="#082422" stroke-width="0.5" stroke-miterlimit="10"/>
<path d="M550.213 258.385C562.895 275.564 575.807 289.82 589.645 281.835C595.27 278.589 598.601 268.127 590.184 252.989L581.331 237.004" fill="#E5B481"/>
<path d="M550.213 258.385C562.895 275.564 575.807 289.82 589.645 281.835C595.27 278.589 598.601 268.127 590.184 252.989L581.331 237.004" stroke="#082422" stroke-width="0.5" stroke-miterlimit="10"/>
<path d="M8.48438 338.602C24.1518 336.613 130.208 318.988 133.333 318.633C196.503 311.462 288.435 291.144 339.368 304.824C363.849 313.097 376.135 313.488 401.683 316.191C413.357 317.432 424.815 320.069 436.479 321.348C441.443 321.892 444.94 323.247 449.096 325.388C452.766 327.286 456.272 328.253 460.462 327.629C464.975 326.954 465.406 327.386 469.149 324.743C475.079 320.571 479.023 312.293 478.928 304.97C478.888 301.321 477.677 297.808 476.371 294.411C474.335 289.119 472.016 283.952 469.391 278.922C467.171 274.626 464.784 271.987 461.71 268.513C458.087 264.45 455.895 258.415 453.342 253.632C450.383 248.116 447.438 242.625 444.259 237.23C434.276 220.241 421.84 202.915 403.033 195.082C388.822 189.145 372.847 189.771 357.464 190.485C325.525 191.986 293.61 193.473 261.671 194.974C254.167 195.323 246.562 195.664 239.215 194.106C230.922 192.338 26.9444 205.935 19.2045 202.455" fill="#E5B481"/>
<path d="M8.48438 338.602C24.1518 336.613 130.208 318.988 133.333 318.633C196.503 311.462 288.435 291.144 339.368 304.824C363.849 313.097 376.135 313.488 401.683 316.191C413.357 317.432 424.815 320.069 436.479 321.348C441.443 321.892 444.94 323.247 449.096 325.388C452.766 327.286 456.272 328.253 460.462 327.629C464.975 326.954 465.406 327.386 469.149 324.743C475.079 320.571 479.023 312.293 478.928 304.97C478.888 301.321 477.677 297.808 476.371 294.411C474.335 289.119 472.016 283.952 469.391 278.922C467.171 274.626 464.784 271.987 461.71 268.513C458.087 264.45 455.895 258.415 453.342 253.632C450.383 248.116 447.438 242.625 444.259 237.23C434.276 220.241 421.84 202.915 403.033 195.082C388.822 189.145 372.847 189.771 357.464 190.485C325.525 191.986 293.61 193.473 261.671 194.974C254.167 195.323 246.562 195.664 239.215 194.106C230.922 192.338 26.9444 205.935 19.2045 202.455" stroke="#082422" stroke-width="0.5" stroke-miterlimit="10"/>
<path d="M530.041 289.698C529.956 293.352 528.169 299.353 523.192 303.572C519.663 306.545 519.28 304.873 514.661 304.489C504.745 303.713 495.607 296.729 492.25 287.378C489.093 278.62 491.725 267.396 499.8 262.773C506.984 258.674 517.306 260.183 523.465 265.653C530.118 271.553 530.222 281.201 530.041 289.698Z" fill="#E5B481" stroke="#082422" stroke-width="0.5" stroke-miterlimit="10"/>
<path d="M450.431 308.86C439.512 313.715 426.643 308.76 421.805 297.833L376.519 195.92C371.657 185.007 376.61 172.147 387.542 167.317L632.385 58.7235C643.303 53.8689 656.172 58.8237 661.01 69.7511L706.297 171.663C711.158 182.577 706.205 195.437 695.273 200.267L450.431 308.86Z" fill="#EFEBE7" stroke="#082422" stroke-width="0.5" stroke-miterlimit="10"/>
<path d="M551.828 94.3509L551.555 93.7295C551.343 93.2843 551.567 92.7361 552.014 92.5236L585.199 77.8026C585.644 77.5915 586.192 77.8151 586.405 78.2627L586.679 78.8841L551.831 94.3495L551.828 94.3509Z" fill="#EFEBE7" stroke="#082422" stroke-width="0.5" stroke-miterlimit="10"/>
<path d="M427.379 296.199C429.32 299.705 432.407 302.395 436.203 303.857C440.481 305.502 445.145 305.388 449.334 303.533L692.082 195.87C696.261 194.02 699.471 190.645 701.118 186.373C702.762 182.099 702.647 177.437 700.789 173.251L696.09 162.706L662.563 87.2908L655.865 72.2257C652.039 63.5907 641.892 59.6757 633.252 63.5005L390.502 171.167C386.323 173.017 383.113 176.392 381.467 180.664C379.822 184.938 379.938 189.6 381.796 193.786L426.696 294.827C426.906 295.299 427.134 295.757 427.381 296.202L427.379 296.199ZM649.125 74.2148C649.271 74.4788 649.405 74.7495 649.531 75.0282L649.532 75.0306L656.229 90.0996L689.757 165.517L694.456 176.062C695.561 178.554 695.631 181.334 694.649 183.886C693.667 186.434 691.757 188.441 689.269 189.542L446.519 297.209C444.02 298.315 441.241 298.383 438.687 297.4C436.137 296.418 434.128 294.509 433.025 292.021L388.124 190.978C387.016 188.481 386.947 185.703 387.93 183.151C388.911 180.603 390.821 178.596 393.31 177.495L636.06 69.8283C640.924 67.6758 646.594 69.6435 649.124 74.2123L649.125 74.2148Z" fill="#EFEBE7" stroke="#082422" stroke-width="0.5" stroke-miterlimit="10"/>
<path d="M653.659 72.6656L660.415 87.8646L694.233 163.933L698.971 174.565C702.066 181.538 698.917 189.696 691.965 192.773L447.122 301.368C440.145 304.458 431.981 301.309 428.899 294.359L383.612 192.447C380.517 185.473 383.665 177.315 390.618 174.238L635.461 65.6438C642.413 62.5669 650.578 65.7164 653.659 72.6656Z" fill="#2BF2F1" stroke="#082422" stroke-width="0.5" stroke-miterlimit="10"/>
<path d="M653.659 72.6656L660.415 87.8646L694.233 163.933L698.971 174.565C702.066 181.538 698.917 189.696 691.965 192.773L447.122 301.368C440.145 304.458 431.981 301.309 428.899 294.359L383.612 192.447C380.517 185.473 383.665 177.315 390.618 174.238L635.461 65.6438C642.413 62.5669 650.578 65.7164 653.659 72.6656Z" stroke="#082422" stroke-width="0.5" stroke-miterlimit="10"/>
<g style="mix-blend-mode:multiply" opacity="0.1">
<path d="M383.294 173.827L503.303 120.578C501.508 122.487 499.413 124.172 497.381 125.717C482.352 137.052 465.972 145.44 451.615 157.671C427.337 178.379 405.032 196.482 388.595 223.208L375.571 193.902C372.159 186.212 375.603 177.232 383.294 173.827Z" fill="#082422"/>
</g>
<path d="M8.50779 338.098L6.9893 180.712C41.2189 182.767 204.432 183.109 240.312 182.227C270.266 181.49 299.536 182.052 325.693 167.337C334.481 162.383 369.862 132.536 420.139 116.086C433.331 111.68 459.004 104.625 472.345 102.2C475.589 101.776 491.715 100.039 494.951 100.246C501.26 100.65 506.701 104.616 506.92 113.658C506.554 123.835 485.374 133.158 477.787 137.224C452.52 150.777 421.695 164.433 401.304 187.774C387.11 204.031 389.982 227.514 367.088 243.315C359.168 248.782 349.674 251.456 340.052 251.246C337.695 251.195 335.34 251.06 332.999 250.895" fill="#E5B481"/>
<path d="M8.50779 338.098L6.9893 180.712C41.2189 182.767 204.432 183.109 240.312 182.227C270.266 181.49 299.536 182.052 325.693 167.337C334.481 162.383 369.862 132.536 420.139 116.086C433.331 111.68 459.004 104.625 472.345 102.2C475.589 101.776 491.715 100.039 494.951 100.246C501.26 100.65 506.701 104.616 506.92 113.658C506.554 123.835 485.374 133.158 477.787 137.224C452.52 150.777 421.695 164.433 401.304 187.774C387.11 204.031 389.982 227.514 367.088 243.315C359.168 248.782 349.674 251.456 340.052 251.246C337.695 251.195 335.34 251.06 332.999 250.895" stroke="#082422" stroke-width="0.5" stroke-miterlimit="10"/>
<path d="M472.351 102.196C475.595 101.772 491.721 100.035 494.957 100.242C495.328 100.266 495.696 100.302 496.062 100.352L497.446 107.962C497.495 108.235 497.318 108.498 497.048 108.552L496.716 108.621C496.246 108.696 484.915 110.873 475.724 108.16C473.963 107.649 472.406 106.517 471.478 105.134C471.284 104.848 471.1 104.522 470.95 104.244C470.719 103.701 470.585 103.159 470.545 102.533C471.15 102.419 471.756 102.308 472.353 102.198L472.351 102.196Z" stroke="#082422" stroke-width="0.5" stroke-miterlimit="10"/>
<path d="M424.288 314.119C418.476 305.296 420.131 295.538 432.062 293.955C436.616 293.353 441.204 294.488 445.554 295.883C451.792 297.862 457.839 300.361 463.644 303.346C465.473 304.283 467.304 305.282 468.729 306.76C470.586 308.671 471.605 311.204 472.313 313.751C474.363 321.225 469.579 325.437 463.331 327.54C458.592 329.135 453.028 329.462 448.849 329.403C437.996 329.241 430.049 322.907 424.288 314.119Z" fill="#E5B481"/>
<path d="M467.525 325.78C462.325 329.073 454.467 329.474 448.85 329.396C437.997 329.234 430.05 322.9 424.289 314.112C418.477 305.289 420.132 295.531 432.063 293.948C436.616 293.346 441.205 294.481 445.555 295.876C451.7 297.826 457.72 300.299 463.445 303.226" stroke="#082422" stroke-width="0.5" stroke-miterlimit="10" stroke-linecap="round"/>
<path d="M472.177 285.323C472.484 283.311 473.202 281.394 474.529 279.821C479.215 274.159 489.621 274.032 496.25 275.084C503.771 276.289 510.062 278.016 516.509 282.012C519.511 283.874 523.348 287.474 525.245 290.433C527.142 293.391 527.793 297.427 525.993 300.424C524.466 302.979 520.406 306.098 517.807 307.535C504.899 314.703 475.732 309.726 472.337 291.339C471.967 289.442 471.866 287.334 472.173 285.322L472.177 285.323Z" fill="#E5B481"/>
<path d="M526.167 300.425C525.338 301.564 524.894 301.975 524.123 302.756C522.234 304.668 519.654 306.532 517.807 307.553C504.899 314.72 475.733 309.743 472.338 291.356C471.968 289.46 471.867 287.351 472.174 285.339C472.482 283.327 473.199 281.411 474.526 279.838C479.212 274.176 489.618 274.049 496.247 275.1C503.768 276.306 510.058 278.033 516.506 282.028" stroke="#082422" stroke-width="0.5" stroke-miterlimit="10"/>
<path d="M428.004 316.12C428.202 316.477 428.797 316.968 430.905 318.45C431.959 319.189 433.601 320.286 433.961 320.48C436.78 321.891 439.443 322.564 441.879 322.504C445.224 322.408 448.247 320.628 449.509 317.999C450.58 315.798 450.294 313.344 448.675 311.129C443.023 303.31 437.423 302.83 437.183 302.783L436.508 302.729L436.241 303.343C433.93 308.732 430.457 313.12 428.219 314.893L427.828 315.218L427.879 315.761C427.94 315.871 427.931 315.982 428.007 316.118L428.004 316.12Z" stroke="#082422" stroke-width="0.5" stroke-miterlimit="10"/>
<path d="M482.148 299.142L483.374 299.569C490.956 302.191 496.559 302.823 500.993 301.549C504.456 300.587 507.483 297.39 508.193 293.994C508.825 290.943 507.627 287.953 504.785 285.642C499.209 281.075 490.207 279.736 489.832 279.675L488.842 279.536L488.703 280.526C488.693 280.646 487.124 291.903 482.878 298.056L482.149 299.145L482.148 299.142Z" stroke="#082422" stroke-width="0.5" stroke-miterlimit="10"/>
<path d="M666.983 113.022L677.905 137.571C679.269 140.637 677.889 144.227 674.823 145.589C671.756 146.951 668.164 145.569 666.8 142.503L655.878 117.953C654.514 114.887 655.894 111.298 658.961 109.936C662.027 108.574 665.619 109.955 666.983 113.022Z" fill="#EFEBE7" stroke="#082422" stroke-width="0.5" stroke-miterlimit="10"/>
<g clip-path="url(#clip1_15017_12244)">
<path d="M456.211 42.5117L413.926 42.5117C387.652 42.5117 366.352 63.7433 366.352 89.9253C366.352 99.0142 368.923 107.503 373.373 114.72C388.017 140.169 422.077 149.809 422.077 149.809L420.491 137.339L456.205 137.339C482.478 137.339 503.773 116.113 503.773 89.9253C503.779 63.7433 482.478 42.5117 456.211 42.5117Z" fill="#DCFF00" stroke="#082422" stroke-width="0.5" stroke-miterlimit="10"/>
<path d="M418.053 97.544C420.719 97.544 422.88 95.39 422.88 92.7329C422.88 90.0759 420.719 87.9219 418.053 87.9219C415.388 87.9219 413.227 90.0759 413.227 92.7329C413.227 95.39 415.388 97.544 418.053 97.544Z" fill="#082422"/>
<path opacity="0.3" d="M454.741 97.544C457.406 97.544 459.567 95.39 459.567 92.7329C459.567 90.0759 457.406 87.9219 454.741 87.9219C452.075 87.9219 449.914 90.0759 449.914 92.7329C449.914 95.39 452.075 97.544 454.741 97.544Z" fill="#082422"/>
<path opacity="0.6" d="M436.397 97.544C439.063 97.544 441.224 95.39 441.224 92.7329C441.224 90.0759 439.063 87.9219 436.397 87.9219C433.731 87.9219 431.57 90.0759 431.57 92.7329C431.57 95.39 433.731 97.544 436.397 97.544Z" fill="#082422"/>
</g>
<g clip-path="url(#clip2_15017_12244)">
<path d="M812.531 137.785L854.817 137.785C881.09 137.785 902.391 159.017 902.391 185.199C902.391 194.288 899.819 202.777 895.369 209.993C880.725 235.442 846.665 245.082 846.665 245.082L848.251 232.612L812.538 232.612C786.264 232.612 764.97 211.387 764.97 185.199C764.964 159.017 786.264 137.785 812.531 137.785Z" fill="white" stroke="#082422" stroke-width="0.5" stroke-miterlimit="10"/>
<path d="M813.999 192.817C816.664 192.817 818.825 190.663 818.825 188.006C818.825 185.349 816.664 183.195 813.999 183.195C811.333 183.195 809.172 185.349 809.172 188.006C809.172 190.663 811.333 192.817 813.999 192.817Z" fill="#082422"/>
<path opacity="0.3" d="M850.686 192.817C853.352 192.817 855.513 190.663 855.513 188.006C855.513 185.349 853.352 183.195 850.686 183.195C848.02 183.195 845.859 185.349 845.859 188.006C845.859 190.663 848.02 192.817 850.686 192.817Z" fill="#082422"/>
<path opacity="0.6" d="M832.342 192.817C835.008 192.817 837.169 190.663 837.169 188.006C837.169 185.349 835.008 183.195 832.342 183.195C829.677 183.195 827.516 185.349 827.516 188.006C827.516 190.663 829.677 192.817 832.342 192.817Z" fill="#082422"/>
</g>
<path d="M448.252 242.858C441.843 245.723 437.111 244.289 434.632 238.743L442.15 235.382C442.806 236.519 443.676 237.362 445.196 236.683C447.127 235.82 446.812 234.235 445.343 230.948L436.859 211.968L445.446 208.13L453.966 227.192C457.29 234.628 455.441 239.645 448.252 242.858ZM467.077 207.827L475.006 204.283L483.067 222.318C483.6 223.509 484.132 224.701 484.687 225.833L477.046 229.248L476.44 227.892C476.238 227.441 476.054 227.03 475.857 226.477L475.816 226.496C475.547 228.982 473.857 231.265 470.734 232.661C467.776 233.983 464.783 233.793 462.536 232.185C460.701 230.836 459.674 228.979 458.003 225.24L453.026 214.107L460.914 210.581L465.56 220.975C467.195 224.631 468.674 226.287 470.933 225.277C473.357 224.193 473.43 222.041 471.741 218.262L467.077 207.827ZM496.719 220.455L488.831 223.98L480.769 205.945C480.237 204.754 479.704 203.562 479.149 202.43L486.749 199.033L487.355 200.389C487.557 200.841 487.741 201.252 487.939 201.804L487.98 201.786C488.249 199.3 490.103 196.943 493.226 195.547C496.183 194.225 499.218 194.396 501.465 196.005C503.295 197.454 504.309 199.17 505.998 202.949L510.975 214.083L503.087 217.608L498.441 207.214C496.806 203.558 495.327 201.903 493.026 202.931C490.562 204.033 490.365 206.24 492.055 210.02L496.719 220.455ZM509.3 195.805L506.218 197.182L503.666 191.472L506.747 190.094L504.176 184.343L512.064 180.817L514.635 186.569L518.25 184.953L520.803 190.663L517.187 192.279L519.593 197.661C521.338 201.564 522.007 202.842 524.308 201.813C524.596 201.685 524.906 201.497 525.239 201.249L527.718 206.796C527.157 207.194 525.61 208.034 524.5 208.53C518.79 211.082 515.855 210.471 513.156 204.432L509.3 195.805ZM531.788 178.113C539.265 174.771 545.918 177.416 548.948 184.194C551.96 190.932 549.539 197.535 542.021 200.895C534.42 204.293 527.968 201.656 524.938 194.878C521.908 188.099 524.352 181.437 531.788 178.113ZM534.262 183.76C531.469 185.008 531.283 187.901 532.807 191.311C534.368 194.803 536.592 196.47 539.427 195.203C542.221 193.955 542.461 191.185 540.919 187.734C539.413 184.365 537.138 182.474 534.262 183.76ZM552.224 187.019L559.783 183.64C561.048 185.588 562.753 185.763 564.684 184.9C566.614 184.037 567.087 182.889 566.628 181.862C566.242 180.999 565.461 180.905 562.762 181.372L559.432 181.973C554.152 182.953 550.875 182.347 549.112 178.404C547.276 174.295 549.72 169.949 556.088 167.103C562.004 164.459 567.072 165.101 569.673 169.706L562.607 172.865C561.521 171.428 560.136 171.307 558.328 172.115C556.644 172.868 556.057 173.87 556.442 174.733C556.883 175.719 557.509 175.685 560.692 175.199L562.844 174.829C568.996 173.705 572.488 174.461 574.159 178.2C576.198 182.76 573.479 186.933 566.7 189.963C560.127 192.901 555.537 191.896 552.224 187.019ZM600.832 173.917L591.917 177.902C586.645 171.732 581.381 165.36 576.155 159.07L584.084 155.526L588.844 161.876C590.677 164.211 591.69 165.927 593.528 168.605L593.651 168.55C592.882 165.395 592.558 163.568 591.765 160.028L590.246 152.771L598.052 149.282L602.565 155.299C604.146 157.402 605.97 159.939 607.619 162.307L607.702 162.27C607.199 159.932 606.388 156.795 605.829 153.89L604.255 146.51L612.102 143.002C613.339 151.174 614.361 159.195 615.58 167.325L606.624 171.328L602.597 166.178C600.934 164.112 599.344 161.767 598.152 159.983L598.029 160.038C598.624 162.582 599.162 164.559 599.662 167.441L600.832 173.917ZM624.241 147.434L632.212 143.872C630.859 141.617 629.012 141.014 626.752 142.023C624.451 143.052 623.501 145.005 624.241 147.434ZM634.688 150.405L642.699 146.824C643.239 151.561 641.23 156.55 634.328 159.635C627.057 162.885 620.733 160.536 617.556 153.429C614.563 146.733 617.153 139.956 624.424 136.705C632.025 133.308 638.281 136.279 641.366 143.18C641.568 143.632 641.807 144.166 641.986 144.678L626.046 151.803C627.418 154.541 629.627 155.181 631.968 154.134C634.063 153.198 634.568 151.789 634.688 150.405Z" fill="#082422"/>
<path d="M639.478 318.97L648.751 319.853C648.841 322.71 650.159 324.056 652.981 324.325C655.355 324.551 657.213 323.553 657.397 321.627C657.589 319.611 655.9 319.314 652.898 318.079L650.893 317.3C643.783 314.588 641.04 311.117 641.523 306.055C642.074 300.276 647.181 296.966 655.199 297.73C662.86 298.461 667.311 302.501 667.095 309.035L658.136 308.181C657.968 305.679 656.865 304.444 654.401 304.209C652.206 304 650.903 304.87 650.753 306.438C650.544 308.633 652.342 309.211 655.689 310.615L657.3 311.266C664.397 314.112 667.024 316.894 666.529 322.09C665.936 328.317 660.368 331.719 651.991 330.921C643.524 330.114 639.245 325.683 639.478 318.97ZM686.249 309.866L694.895 310.69L693.02 330.356C692.896 331.655 692.772 332.954 692.698 334.213L684.365 333.419L684.506 331.941C684.553 331.448 684.596 331 684.696 330.422L684.652 330.417C683.192 332.448 680.596 333.602 677.191 333.278C673.966 332.97 671.455 331.329 670.293 328.823C669.361 326.745 669.382 324.623 669.771 320.546L670.928 308.406L679.529 309.226L678.449 320.559C678.069 324.546 678.54 326.716 681.004 326.951C683.647 327.203 684.771 325.366 685.164 321.245L686.249 309.866ZM713.849 327.55L722.271 328.353C720.671 333.76 715.792 337.047 708.759 336.377C700.65 335.604 696.433 330.049 697.125 322.792C697.83 315.4 703.244 310.763 711.352 311.536C718.117 312.181 722.317 316.016 722.783 322.028L714.361 321.225C714.074 319.028 712.734 317.906 710.718 317.714C707.851 317.44 706.123 319.445 705.735 323.522C705.338 327.688 706.664 329.894 709.666 330.18C711.413 330.346 713.094 329.783 713.849 327.55ZM741.06 330.144L749.482 330.946C747.881 336.354 743.002 339.641 735.969 338.97C727.861 338.198 723.644 332.642 724.336 325.385C725.04 317.994 730.455 313.357 738.563 314.129C745.327 314.774 749.527 318.61 749.994 324.621L741.572 323.819C741.284 321.621 739.945 320.499 737.929 320.307C735.062 320.034 733.334 322.039 732.945 326.115C732.548 330.282 733.875 332.487 736.876 332.773C738.623 332.94 740.304 332.377 741.06 330.144ZM760.327 325.968L769.017 326.796C768.951 324.168 767.642 322.732 765.178 322.498C762.669 322.258 760.879 323.489 760.327 325.968ZM767.952 333.701L776.688 334.534C774.823 338.922 770.616 342.273 763.09 341.555C755.161 340.8 750.816 335.639 751.555 327.889C752.251 320.587 757.845 315.967 765.774 316.723C774.061 317.513 778.041 323.181 777.324 330.707C777.277 331.2 777.221 331.782 777.125 332.315L759.744 330.659C759.588 333.718 761.194 335.363 763.748 335.606C766.032 335.824 767.165 334.847 767.952 333.701ZM788.019 328.607L796.709 329.436C796.643 326.808 795.334 325.372 792.87 325.137C790.361 324.898 788.571 326.129 788.019 328.607ZM795.644 336.341L804.38 337.173C802.515 341.561 798.308 344.912 790.782 344.195C782.853 343.439 778.508 338.279 779.247 330.529C779.943 323.227 785.536 318.607 793.465 319.362C801.753 320.152 805.733 325.821 805.016 333.346C804.969 333.839 804.913 334.422 804.817 334.955L787.436 333.298C787.28 336.357 788.886 338.002 791.44 338.245C793.724 338.463 794.857 337.486 795.644 336.341ZM831.256 347.42L822.879 346.621C822.96 345.77 823.116 344.61 823.229 343.897L823.184 343.893C821.825 345.346 819.419 346.879 815.656 346.521C809.922 345.974 806.29 340.927 807.015 333.311C807.733 325.785 812.238 321.197 818.196 321.765C821.735 322.102 823.606 323.817 824.666 325.501C824.833 323.754 824.912 322.45 825.095 320.524L825.663 314.566L834.309 315.39L831.256 347.42ZM819.609 340.614C822.297 340.87 823.961 338.588 824.316 334.87C824.679 331.062 823.471 328.551 820.739 328.291C817.917 328.022 816.302 330.263 815.943 334.026C815.597 337.655 816.742 340.341 819.609 340.614Z" fill="white"/>
</g>
<defs>
<clipPath id="clip0_15017_12244">
<rect width="1246" height="475" fill="white"/>
</clipPath>
<clipPath id="clip1_15017_12244">
<rect width="137.573" height="107.479" fill="white" transform="translate(366.281 42.4414)"/>
</clipPath>
<clipPath id="clip2_15017_12244">
<rect width="137.573" height="107.479" fill="white" transform="matrix(-1 1.74846e-07 1.74846e-07 1 902.461 137.715)"/>
</clipPath>
</defs>
</svg>
