<svg width="647" height="736" viewBox="0 0 647 736" fill="none" xmlns="http://www.w3.org/2000/svg">
<g clip-path="url(#clip0_15017_12245)">
<path d="M486.54 292.767L478.969 307.525C481.464 302.659 508.998 294.716 511.479 291.204C511.531 291.135 511.578 291.05 511.626 290.962L519.197 276.205C519.15 276.297 519.102 276.378 519.051 276.447C516.57 279.955 489.036 287.902 486.54 292.767Z" fill="#A8BA00" stroke="#002522" stroke-width="0.718013" stroke-miterlimit="10"/>
<path d="M585.127 297.637C584.533 292.9 600.673 268.798 597.085 264.832C593.493 260.869 562.225 268.27 557.01 266.596C551.791 264.927 528.307 239.97 523.459 241.232C522.971 241.364 522.561 241.79 522.22 242.457L514.648 257.214C514.989 256.55 515.4 256.121 515.887 255.989C520.739 254.727 544.224 279.684 549.439 281.354C554.65 283.027 585.922 275.626 589.513 279.589C593.101 283.555 576.961 307.654 577.555 312.394C578.145 317.091 600.086 342.305 597.979 346.411L605.551 331.653C607.654 327.551 585.713 302.334 585.127 297.637Z" fill="#A8BA00" stroke="#002522" stroke-width="0.718013" stroke-miterlimit="10"/>
<path d="M515.893 255.988C520.745 254.726 544.229 279.683 549.444 281.352C554.656 283.025 585.928 275.625 589.519 279.587C593.107 283.554 576.967 307.652 577.561 312.393C578.154 317.137 600.543 342.821 597.915 346.527C597.725 346.798 597.365 346.996 596.867 347.128C590.545 348.824 561.472 340.267 556.979 341.434C554.711 342.043 549.792 347.323 544.629 352.661C539.472 358.004 534.078 363.405 530.878 364.263C530.351 364.406 529.881 364.421 529.482 364.296C524.271 362.623 519.73 332.305 516.142 328.346C512.554 324.38 479.395 313.083 478.798 308.339C478.204 303.594 508.856 294.921 511.48 291.211C514.112 287.505 511.055 257.29 515.889 255.991L515.893 255.988Z" fill="#DCFF00" stroke="#002522" stroke-width="0.718013" stroke-miterlimit="10"/>
<path fill-rule="evenodd" clip-rule="evenodd" d="M503.748 295.066C501.868 295.859 499.782 296.697 497.64 297.557C488.551 301.208 478.454 305.263 478.798 308.005C479.082 310.268 486.772 314.02 495.128 317.757C498.096 310.887 501.224 302.986 503.748 295.066ZM504.055 321.698C509.943 324.308 514.878 326.615 516.142 328.013C517.656 329.683 519.339 336.046 521.171 342.97C521.621 344.669 522.079 346.401 522.546 348.106C529.628 340.952 534.993 335.182 537.228 332.037C543.714 322.91 543.909 317.106 539.058 311.547C530.562 302.187 518.992 308.824 504.055 321.698Z" fill="black" fill-opacity="0.2"/>
<path d="M344.463 499.233C359.871 473.614 418.988 404.836 433.676 380.916C439.098 375.958 515.425 306.104 525.694 291.656C532.179 282.53 532.374 276.725 527.524 271.166C515.731 258.175 498.016 276.002 473.595 298.55C473.376 298.75 501.027 247.172 496.952 222.632C495.979 216.769 491.584 212.884 485.768 211.66C481.953 210.855 477.676 211.08 473.405 214.065C466.386 218.976 463.014 229.194 458.711 238.561C452.124 252.904 448.158 259.762 438.322 278.502C438.1 278.925 418.679 308.544 418.508 308.873C418.372 308.802 440.5 238.757 424.576 177.022C424.377 176.25 424.617 175.445 424.007 175.01C421.394 164.635 415.357 163.11 406.153 166.286C395.415 170.048 392.208 176.473 390.345 187.129C387.421 214.613 388.533 235.383 385.281 249.245C382.301 264.545 374.091 281.102 369.349 295.955C369.01 295.842 368.623 292.307 368.044 289.77C361.485 260.989 334.445 262.442 310.615 263.809C291.566 265.515 255.688 268.553 256.506 281.82C255.964 290.876 262.388 295.758 271.132 300.559C282.646 306.885 325.146 301.909 330.017 308.251C334.886 314.591 329.405 360.318 325.056 363.436C322.213 365.258 286.318 380.444 274.374 380.756C244.272 381.547 266.037 297.924 244.975 284.99C230.021 275.806 220.32 287.534 218.395 299.855C217.707 304.255 214.72 331.612 214.428 333.577C212.283 348.155 210.106 362.771 208.188 377.344C205.925 394.921 209.74 423.439 219.19 440.626C228.64 457.814 238.287 472.091 238.458 481.149C239.503 492.309 186.035 633.386 178.236 652.026C219.765 689.708 271.308 690.994 305.896 688.55C312.29 688.098 325.46 530.827 344.463 499.229L344.463 499.233Z" fill="#FFCE9B" stroke="#002522" stroke-width="0.718013" stroke-miterlimit="10" stroke-linecap="round"/>
<path d="M245.302 293.438C245.302 293.438 246.574 317.45 241.223 319.669C235.871 321.889 223.076 321.989 221.728 316.574C220.384 311.159 224.052 291.818 224.052 291.818C224.052 291.818 237.261 286.635 245.302 293.438Z" fill="#FFCE9B" stroke="#002522" stroke-width="0.718013" stroke-miterlimit="10" stroke-linecap="round"/>
<path d="M496.97 222.726C494.453 222.512 492.716 222.686 492.716 222.686C492.716 222.686 487.92 242.447 488.975 247.135C489.367 248.881 491.143 249.998 493.457 250.619C496.453 240.303 498.192 230.252 496.97 222.726Z" fill="#FFCE9B" stroke="#002522" stroke-width="0.718013" stroke-miterlimit="10" stroke-linecap="round"/>
<path d="M511.249 299.67C510.615 301.383 511.732 303.357 513.558 305.131C519.369 299.18 523.731 294.411 525.691 291.654C527.279 289.419 528.488 287.382 529.341 285.501C527.445 283.985 525.926 283.202 525.926 283.202C525.926 283.202 512.74 295.649 511.249 299.67Z" fill="#FFCE9B" stroke="#002522" stroke-width="0.718013" stroke-miterlimit="10" stroke-linecap="round"/>
<path d="M221.226 339.687C228.375 337.826 235.605 338.741 239.735 340.81" stroke="#002522" stroke-width="0.718013" stroke-miterlimit="10" stroke-linecap="round"/>
<path d="M223.344 344.016C228.76 343.156 234.225 343.537 237.343 344.443" stroke="#002522" stroke-width="0.718013" stroke-miterlimit="10" stroke-linecap="round"/>
<path d="M288.198 277.567C289.075 275.449 287.981 269.388 287.447 266.327C277.687 267.536 268.617 270.078 262.664 273.257C263.467 279.071 266.585 284.531 266.585 284.531C266.585 284.531 286.896 280.705 288.198 277.567Z" fill="#FFCE9B" stroke="#002522" stroke-width="0.718013" stroke-miterlimit="10" stroke-linecap="round"/>
<path d="M413.499 173.02C413.499 173.02 416.847 195.328 419.926 197.475C421.735 198.735 425.768 199.311 428.79 199.572C427.872 192.026 426.506 184.467 424.587 177.024C424.388 176.252 424.628 175.446 424.018 175.012C423.682 173.676 423.286 172.491 422.837 171.438C417.748 171.319 413.499 173.02 413.499 173.02Z" fill="#FFCE9B" stroke="#002522" stroke-width="0.718013" stroke-miterlimit="10" stroke-linecap="round"/>
<path d="M368.703 293.264L369.875 299.728C369.875 299.728 372.048 313.171 372.416 317.097C372.827 321.502 373.04 325.02 373.04 325.02" fill="#FFCE9B"/>
<path d="M368.703 293.264L369.875 299.728C369.875 299.728 372.048 313.171 372.416 317.097C372.827 321.502 373.04 325.02 373.04 325.02" stroke="#002522" stroke-width="0.718013" stroke-miterlimit="10" stroke-linecap="round"/>
<path d="M419.203 306.377L417.44 312.707C417.44 312.707 413.535 325.758 412.154 329.454C410.602 333.601 409.26 336.86 409.26 336.86" fill="#FFCE9B"/>
<path d="M419.203 306.377L417.44 312.707C417.44 312.707 413.535 325.758 412.154 329.454C410.602 333.601 409.26 336.86 409.26 336.86" stroke="#002522" stroke-width="0.718013" stroke-miterlimit="10" stroke-linecap="round"/>
<path d="M474.328 297.105L472.603 300.397C472.603 300.397 457.51 325.527 456.306 327.408" fill="#FFCE9B"/>
<path d="M474.328 297.105L472.603 300.397C472.603 300.397 457.51 325.527 456.306 327.408" stroke="#002522" stroke-width="0.718013" stroke-miterlimit="10" stroke-linecap="round"/>
<mask id="mask0_15017_12245" style="mask-type:luminance" maskUnits="userSpaceOnUse" x="178" y="164" width="353" height="526">
<path d="M485.694 212.011C491.392 213.21 495.654 216.999 496.598 222.691C497.605 228.754 496.654 236.522 494.642 244.79C492.632 253.051 489.57 261.775 486.386 269.735C483.202 277.694 479.897 284.881 477.401 290.067C476.154 292.66 475.109 294.752 474.382 296.189C474.019 296.908 473.736 297.464 473.546 297.837C473.451 298.023 473.379 298.165 473.332 298.26C473.309 298.306 473.29 298.345 473.278 298.373C473.273 298.383 473.264 298.404 473.256 298.425C473.254 298.432 473.249 298.448 473.247 298.457C473.243 298.473 473.235 298.52 473.234 298.552C473.246 298.64 473.408 298.858 473.589 298.909C473.688 298.897 473.81 298.837 473.838 298.814L473.838 298.813C486.065 287.525 496.567 277.463 505.487 271.834C509.945 269.021 513.966 267.344 517.576 267.152C521.16 266.962 524.375 268.233 527.255 271.404C529.632 274.129 530.746 276.878 530.502 280.046C530.256 283.237 528.63 286.905 525.401 291.448C522.855 295.03 516.184 302.083 507.493 310.748C498.812 319.402 488.141 329.641 477.62 339.584C456.58 359.471 436.144 378.173 433.433 380.651L433.396 380.685L433.37 380.729C426.041 392.665 407.608 415.816 389.058 439.214C370.527 462.588 351.878 486.207 344.158 499.043L344.155 499.044C341.756 503.033 339.462 508.982 337.268 516.315C335.073 523.653 332.972 532.401 330.967 542.004C326.958 561.209 323.33 583.853 320.096 605.516C316.861 627.185 314.023 647.865 311.593 663.165C310.378 670.815 309.267 677.109 308.26 681.502C307.757 683.7 307.282 685.408 306.839 686.568C306.617 687.15 306.409 687.576 306.219 687.854C306.017 688.15 305.895 688.19 305.872 688.192C271.359 690.631 220.048 689.341 178.665 651.928C182.721 642.178 197.907 602.579 212.001 563.905C219.107 544.407 225.937 525.14 230.927 510.049C233.421 502.503 235.457 495.997 236.836 491.026C237.526 488.542 238.053 486.436 238.392 484.774C238.723 483.144 238.882 481.901 238.817 481.141L238.818 481.142C238.73 476.517 236.232 470.613 232.621 463.769C229.009 456.924 224.215 449.021 219.505 440.454C214.807 431.909 211.5 420.526 209.651 409.074C207.803 397.624 207.418 386.136 208.544 377.39C210.462 362.821 212.638 348.207 214.784 333.629C214.931 332.636 215.752 325.295 216.62 317.67C217.49 310.03 218.407 302.101 218.75 299.91C219.703 293.809 222.577 287.898 227.011 284.647C229.223 283.026 231.825 282.065 234.785 282.064C237.747 282.064 241.093 283.027 244.788 285.297C247.333 286.86 249.257 289.507 250.72 292.99C252.182 296.473 253.172 300.764 253.866 305.573C255.254 315.195 255.449 326.807 255.926 338.035C256.403 349.24 257.162 360.071 259.701 368.054C260.971 372.048 262.696 375.364 265.083 377.658C267.481 379.962 270.528 381.216 274.384 381.115C277.421 381.035 281.943 380.015 287.034 378.519C292.134 377.02 297.838 375.032 303.254 372.999C308.67 370.965 313.802 368.884 317.758 367.197C319.736 366.354 321.421 365.609 322.702 365.017C323.974 364.429 324.869 363.982 325.25 363.739L325.258 363.733L325.265 363.728C325.603 363.485 325.911 363.067 326.197 362.545C326.487 362.014 326.773 361.34 327.055 360.55C327.619 358.968 328.175 356.885 328.702 354.466C329.754 349.625 330.697 343.405 331.351 337.088C332.004 330.772 332.37 324.349 332.267 319.102C332.215 316.48 332.046 314.143 331.734 312.257C331.426 310.387 330.968 308.9 330.302 308.032C329.619 307.144 328.326 306.502 326.662 306.015C324.981 305.523 322.852 305.169 320.419 304.906C315.552 304.38 309.407 304.21 303.076 304.04C296.736 303.87 290.204 303.701 284.538 303.18C279.033 302.674 274.408 301.84 271.574 300.387L271.305 300.244C266.937 297.846 263.192 295.449 260.605 292.546C258.031 289.658 256.6 286.265 256.865 281.842L256.866 281.82L256.864 281.798L256.853 281.507C256.796 278.517 258.735 276.036 262.125 273.954C265.622 271.807 270.58 270.142 276.193 268.829C287.407 266.206 301.105 265.021 310.635 264.167C322.566 263.483 335.218 262.786 345.706 265.829C350.941 267.348 355.622 269.795 359.399 273.631C363.175 277.466 366.067 282.71 367.694 289.85C367.981 291.106 368.22 292.609 368.433 293.833C368.539 294.44 368.639 294.983 368.735 295.382C368.782 295.58 368.832 295.756 368.886 295.892C368.912 295.959 368.944 296.03 368.986 296.093C369.019 296.144 369.098 296.25 369.237 296.296L369.58 296.41L369.691 296.064C372.058 288.65 375.289 280.817 378.311 272.896C381.33 264.985 384.137 256.995 385.633 249.313C387.265 242.346 387.801 233.659 388.295 223.312C388.789 212.95 389.242 200.901 390.701 187.174C391.63 181.87 392.886 177.667 395.215 174.327C397.539 170.994 400.956 168.487 406.271 166.625L406.272 166.623C410.85 165.044 414.551 164.67 417.41 165.896C420.25 167.115 422.365 169.963 423.659 175.098L423.691 175.225L423.799 175.302C423.979 175.431 424.053 175.613 424.09 175.931C424.109 176.099 424.115 176.261 424.131 176.471C424.147 176.669 424.171 176.889 424.229 177.112C432.174 207.915 430.629 240.807 427.107 266.022C425.347 278.627 423.093 289.307 421.289 296.839C420.387 300.605 419.596 303.585 419.036 305.624C418.756 306.644 418.534 307.429 418.384 307.961C418.309 308.226 418.251 308.431 418.213 308.569C418.194 308.638 418.179 308.693 418.169 308.734C418.164 308.753 418.159 308.775 418.155 308.795C418.154 308.803 418.151 308.823 418.149 308.847C418.149 308.861 418.149 308.899 418.152 308.923C418.163 308.972 418.246 309.118 418.341 309.191L418.66 309.359L418.827 309.038C418.823 309.046 418.835 309.025 418.882 308.95C418.923 308.886 418.983 308.794 419.058 308.677C419.21 308.443 419.427 308.107 419.701 307.686C420.248 306.845 421.021 305.659 421.945 304.244C423.794 301.415 426.244 297.669 428.697 293.92C431.149 290.17 433.603 286.418 435.457 283.576C436.385 282.156 437.163 280.962 437.715 280.111C437.992 279.685 438.212 279.344 438.367 279.103C438.513 278.875 438.616 278.714 438.64 278.669C448.471 259.937 452.445 253.066 459.037 238.71C461.202 233.998 463.104 229.139 465.358 224.807C467.607 220.486 470.172 216.765 473.611 214.359C477.783 211.444 481.952 211.223 485.694 212.012L485.694 212.011Z" fill="white" stroke="white" stroke-width="0.718013"/>
</mask>
<g mask="url(#mask0_15017_12245)">
<path fill-rule="evenodd" clip-rule="evenodd" d="M161.301 357.535C160.097 356.711 159.006 356.363 158.06 356.608L158.074 356.602C152.797 358.023 145.306 379.607 138.562 399.04C133.633 413.242 129.103 426.296 126.127 429.492C123.152 432.683 111.067 437.462 97.9163 442.663C79.9002 449.787 59.8866 457.701 58.5697 463.404C57.2531 469.109 72.9442 479.904 87.0709 489.623C97.3857 496.72 106.866 503.243 108.284 506.791C109.703 510.333 108.154 523.623 106.468 538.085C104.158 557.901 101.591 579.917 106.054 582.073C106.635 582.35 107.42 582.344 108.383 582.093C107.418 582.345 106.631 582.352 106.049 582.074L132.36 599.058C132.949 599.342 133.759 599.328 134.763 599.058C140.808 597.436 153.748 586.497 166.232 575.669C167.33 574.718 168.425 573.768 169.511 572.825L169.525 572.812C180.796 563.026 191.155 554.03 195.057 552.988C198.909 551.984 210.044 555.422 222.158 559.162L222.158 559.162C236.647 563.635 252.536 568.54 259.041 566.796C259.982 566.547 260.73 566.152 261.242 565.597C265.318 561.224 260.249 541.183 255.688 523.147L255.688 523.147L255.688 523.146C252.361 509.991 249.303 497.903 250.261 493.739H250.254C251.215 489.578 259.637 478.415 268.802 466.266C281.365 449.614 295.325 431.111 293.383 426.249C293.189 425.771 292.823 425.362 292.289 425.022L266.152 408.151C261.575 404.855 243.191 407.171 226.496 409.273C221.304 409.927 216.274 410.56 211.875 410.998C210.706 408.985 209.503 406.886 208.282 404.754C200.944 391.943 192.928 377.951 187.399 374.381L161.301 357.535ZM232.672 549.826C226.133 551.528 210.295 546.638 195.849 542.177C183.737 538.437 172.603 534.999 168.75 536.003C168.75 536.003 168.749 536.003 168.749 536.003C172.604 535.002 183.735 538.439 195.844 542.178C210.294 546.64 226.136 551.532 232.672 549.826Z" fill="black" fill-opacity="0.2"/>
</g>
<path d="M138.716 357.379L165.027 374.362C157.757 369.669 139.104 327.633 128.905 321.048L102.594 304.064C112.793 310.65 131.446 352.686 138.716 357.379Z" fill="#A8BA00" stroke="#002522" stroke-width="0.718013" stroke-miterlimit="10"/>
<path d="M191.759 440.402C194.037 430.538 238.247 381.32 234.889 372.912C234.695 372.433 234.328 372.024 233.795 371.685L207.484 354.701C208.017 355.041 208.384 355.45 208.578 355.928C211.936 364.337 167.72 413.554 165.448 423.419C163.171 433.29 183.471 487.72 176.43 495.276C175.917 495.831 175.17 496.219 174.228 496.475C162.284 499.678 118.712 480.462 110.251 482.667C105.965 483.817 93.9243 494.527 81.4266 505.348C68.9427 516.176 56.0019 527.115 49.9573 528.737C48.9603 529.007 48.1501 529.021 47.5547 528.737L73.8656 545.721C74.4542 546.005 75.2643 545.991 76.2683 545.721C82.3128 544.098 95.2537 533.16 107.738 522.332C120.235 511.504 132.283 500.794 136.562 499.65C145.023 497.446 188.602 516.661 200.546 513.459C201.488 513.209 202.235 512.814 202.748 512.26C209.796 504.697 189.495 450.273 191.766 440.402H191.759Z" fill="#A8BA00" stroke="#002522" stroke-width="0.718013" stroke-miterlimit="10"/>
<path d="M99.5676 303.275C108.707 300.904 131.383 353.871 139.11 357.594C146.83 361.323 205.22 347.529 208.585 355.93C211.943 364.339 167.727 413.556 165.456 423.421C163.178 433.292 183.479 487.722 176.437 495.278C175.925 495.833 175.177 496.221 174.235 496.478C162.291 499.68 118.719 480.464 110.258 482.669C105.972 483.82 93.9315 494.53 81.4338 505.351C68.9499 516.178 56.0091 527.117 49.9645 528.739C48.9675 529.01 48.1573 529.023 47.5619 528.739C39.8417 525.01 53.1564 461.852 49.7914 453.457C46.4333 445.049 -2.20042 419.941 0.0775563 410.07C2.35553 400.205 60.5858 383.721 67.6343 376.158C74.6829 368.588 90.4487 305.728 99.5814 303.268L99.5676 303.275Z" fill="#DCFF00" stroke="#002522" stroke-width="0.718013" stroke-miterlimit="10"/>
<path d="M480.47 385.178L445.44 407.789C431.695 416.659 406.289 471.167 396.453 477.508L431.483 454.896C441.31 448.546 466.726 394.047 480.47 385.178Z" fill="#A8BA00" stroke="#002522" stroke-width="0.718013" stroke-miterlimit="10"/>
<path d="M549.647 684.576C548.891 684.927 547.859 684.908 546.605 684.576C530.703 680.312 478.121 625.056 466.865 621.946C461.168 620.414 443.81 625.721 425.861 630.852C407.922 635.993 389.384 640.968 381.336 638.808C380.009 638.448 378.958 637.904 378.257 637.119C369.002 626.912 397.201 555.154 394.362 542.002C391.532 528.85 333.483 462.464 338.147 451.398C338.406 450.789 338.876 450.281 339.539 449.848L304.509 472.459C303.845 472.893 303.366 473.401 303.117 474.01C298.462 485.076 356.501 551.462 359.331 564.614C362.171 577.756 333.971 649.523 343.227 659.731C343.937 660.506 344.978 661.06 346.306 661.42C354.354 663.579 372.892 658.605 390.831 653.464C408.789 648.333 426.138 643.026 431.835 644.558C443.091 647.668 495.673 702.924 511.566 707.188C512.819 707.52 513.843 707.548 514.608 707.188C514.709 707.142 514.81 707.086 514.912 707.022L549.942 684.41C549.841 684.475 549.739 684.53 549.638 684.576H549.647Z" fill="#A8BA00" stroke="#002522" stroke-width="0.718013" stroke-miterlimit="10"/>
<path d="M484.714 384.07C496.882 387.429 516.675 471.37 525.939 481.577C535.194 491.785 612.611 515.033 615.451 528.194C618.281 541.346 552.848 573.529 548.193 584.594C543.528 595.679 560.029 679.813 549.649 684.585C548.893 684.935 547.861 684.917 546.607 684.585C530.705 680.321 478.123 625.065 466.867 621.955C461.17 620.423 443.812 625.729 425.863 630.861C407.924 636.002 389.386 640.976 381.338 638.816C380.011 638.457 378.96 637.912 378.259 637.128C369.004 626.92 397.203 555.162 394.364 542.011C391.534 528.859 333.485 462.473 338.149 451.407C342.814 440.322 420.489 460.027 430.869 455.246C441.249 450.484 472.555 380.812 484.714 384.07Z" fill="#DCFF00" stroke="#002522" stroke-width="0.718013" stroke-miterlimit="10"/>
<path d="M286.223 157.019C283.911 152.511 258.991 144.871 256.779 141.621C256.742 141.567 256.705 141.503 256.672 141.436L263.614 154.967C263.648 155.034 263.685 155.095 263.722 155.152C265.933 158.399 290.85 166.042 293.166 170.55L286.223 157.019Z" fill="#A8BA00" stroke="#002522" stroke-width="0.718013" stroke-miterlimit="10"/>
<path d="M260.267 122.715C260.698 122.833 261.057 123.206 261.353 123.785L254.41 110.254C254.115 109.675 253.755 109.305 253.325 109.184C248.892 107.996 227.023 130.588 222.234 132.055C217.439 133.525 188.97 126.302 185.62 129.898C182.273 133.491 196.628 155.864 196 160.214C195.378 164.561 174.476 187.872 176.815 191.314L183.66 204.657C182.105 200.637 202.331 178.018 202.939 173.745C203.567 169.395 189.212 147.023 192.559 143.429C195.909 139.833 224.375 147.056 229.174 145.586C233.966 144.123 255.832 121.528 260.264 122.715H260.267Z" fill="#A8BA00" stroke="#002522" stroke-width="0.718013" stroke-miterlimit="10"/>
<path d="M260.259 122.717C264.678 123.938 261.371 151.711 263.71 155.156C266.052 158.601 293.94 166.985 293.315 171.335C292.694 175.685 262.181 185.63 258.831 189.223C255.48 192.82 250.823 220.626 246.024 222.093C245.675 222.2 245.265 222.184 244.811 222.063C239.018 220.508 225.358 201.846 221.272 200.716C219.195 200.157 211.53 201.732 203.656 203.246C195.78 204.763 187.691 206.217 184.758 205.433C184.274 205.301 183.931 205.11 183.753 204.847C181.414 201.406 202.316 178.094 202.937 173.747C203.566 169.397 189.21 147.024 192.557 143.431C195.907 139.835 224.373 147.058 229.172 145.588C233.964 144.124 255.83 121.529 260.262 122.717H260.259Z" fill="#DCFF00" stroke="#002522" stroke-width="0.718013" stroke-miterlimit="10"/>
<path d="M375.324 107.656C375.416 108.061 375.387 108.595 375.258 109.241L380.706 81.8004C380.834 81.1542 380.864 80.6207 380.771 80.2156C379.574 74.9808 348.346 48.7835 349.469 43.1289L344.022 70.5697C342.898 76.2292 374.127 102.422 375.324 107.656Z" fill="#A8BA00" stroke="#002522" stroke-width="0.718013" stroke-miterlimit="10"/>
<path d="M473.923 99.2491C473.652 99.6175 473.446 100.192 473.299 100.937L467.851 128.377C467.999 127.633 468.205 127.058 468.476 126.69C471.69 122.356 511.051 110.522 512.166 104.907L517.613 77.4659C516.498 83.0814 477.142 94.9163 473.923 99.2491Z" fill="#A8BA00" stroke="#002522" stroke-width="0.718013" stroke-miterlimit="10"/>
<path d="M470.898 140.035C470.414 140.168 469.782 140.15 469.024 139.999C459.391 138.087 429.15 114.986 422.33 113.597C418.878 112.911 407.97 114.883 396.697 116.778C385.437 118.68 373.812 120.504 368.932 119.535C368.125 119.375 367.505 119.14 367.097 118.815C366.155 118.058 366.018 116.519 366.425 114.468L360.978 141.909C360.571 143.96 360.708 145.499 361.65 146.256C362.053 146.58 362.678 146.816 363.484 146.976C368.36 147.944 379.985 146.119 391.25 144.218C402.523 142.324 413.426 140.351 416.883 141.038C423.698 142.426 453.944 165.528 463.577 167.44C464.335 167.591 464.967 167.609 465.451 167.476C466.688 167.132 467.454 165.63 467.898 163.392L473.345 135.952C472.901 138.189 472.135 139.691 470.898 140.035Z" fill="#A8BA00" stroke="#002522" stroke-width="0.718013" stroke-miterlimit="10"/>
<path d="M442.68 16.8031C450.046 18.3061 458.956 52.7441 464.26 57.0079C469.564 61.2716 516.375 71.5919 517.612 76.9871C518.839 82.3803 477.234 94.7867 473.929 99.2498C470.618 103.717 477.48 138.201 470.896 140.029C470.412 140.162 469.781 140.143 469.023 139.993C459.389 138.081 429.148 114.98 422.329 113.59C418.876 112.905 407.969 114.877 396.695 116.771C385.436 118.673 373.81 120.497 368.93 119.529C368.123 119.369 367.504 119.134 367.096 118.808C361.792 114.545 381.999 85.5964 380.771 80.208C379.539 74.8138 346.367 47.1211 349.673 42.6531C352.985 38.1861 400.097 47.065 406.682 45.2324C413.271 43.4057 435.311 15.3403 442.68 16.8031Z" fill="#DCFF00" stroke="#002522" stroke-width="0.718013" stroke-miterlimit="10"/>
</g>
<defs>
<clipPath id="clip0_15017_12245">
<rect width="646.211" height="736" fill="white"/>
</clipPath>
</defs>
</svg>
