<svg width="457" height="640" viewBox="0 0 457 640" fill="none" xmlns="http://www.w3.org/2000/svg">
<g clip-path="url(#clip0_15015_18827)">
<path d="M257.775 15.0548L148.208 34.9304C148.097 34.9506 148.004 35.0267 147.961 35.1316C147.918 35.2366 147.932 35.3566 147.998 35.4489C170.608 67.1242 168.701 103.252 166.777 139.518C164.854 175.746 162.913 212.113 185.678 244.001C185.753 244.105 185.881 244.158 186.007 244.135C222.537 237.511 259.044 230.883 295.574 224.259C295.686 224.239 295.78 224.163 295.822 224.058C295.865 223.953 295.85 223.833 295.784 223.741C273.175 192.065 275.081 155.937 277.006 119.671C278.928 83.443 280.869 47.0763 258.104 15.1886C258.03 15.0842 257.901 15.0319 257.775 15.0548Z" fill="#60D06F" stroke="#082422" stroke-width="0.662811" stroke-miterlimit="10" stroke-linecap="round" stroke-linejoin="round"/>
<path d="M232.387 33.5763C233.072 33.4495 233.795 33.6272 234.408 33.9729C235.022 34.3193 235.557 34.8512 235.856 35.4748C235.864 35.4916 235.868 35.5097 235.873 35.5273C239.731 43.5102 248.324 48.9382 256.7 47.4153L256.701 47.4146C257.678 47.2411 258.763 47.8156 259.05 48.8222L259.358 49.9283C265.695 73.1593 264.377 97.7684 263.077 122.31C261.756 147.262 260.454 172.146 267.154 195.569L267.197 195.761C267.362 196.713 266.713 197.551 265.77 197.719L265.769 197.717C261.606 198.473 258.293 200.825 256.498 203.958C254.761 206.989 254.432 210.771 256.154 214.602L256.327 214.973L256.328 214.974C256.599 215.54 256.648 216.145 256.443 216.654C256.235 217.174 255.778 217.551 255.137 217.667C247.848 218.988 240.562 220.313 233.275 221.638C225.989 222.963 218.701 224.289 211.412 225.609C210.783 225.723 210.122 225.563 209.562 225.251C209.002 224.938 208.514 224.458 208.237 223.89L208.236 223.889C204.371 215.885 195.748 210.418 187.354 211.944L187.354 211.946C186.272 212.144 185.039 211.508 184.728 210.378L184.728 210.377C178.054 186.891 179.365 161.966 180.682 137.105C182 112.221 183.324 87.401 176.733 64.0261L176.735 64.0254C176.407 62.8749 177.174 61.8341 178.284 61.6421C182.447 60.8864 185.76 58.5358 187.56 55.4016C189.356 52.2717 189.655 48.3388 187.754 44.3783C187.457 43.7577 187.406 43.0971 187.627 42.5429C187.853 41.9787 188.346 41.5659 189.042 41.437L189.043 41.4373L232.387 33.5754L232.387 33.5763Z" fill="#80E58A" stroke="black" stroke-width="0.662811" stroke-miterlimit="10" stroke-linecap="round" stroke-linejoin="round"/>
<path d="M231.16 69.6939C227.619 67.1104 223.875 65.9777 220.295 66.63C216.705 67.2822 213.66 69.644 211.076 73.3327C208.656 76.7877 206.589 81.4295 204.752 86.9813L204.388 88.1041L204.387 88.106C200.621 100.2 197.349 116.559 196.321 134.15C195.292 151.754 197.688 167.123 203.116 177.605C205.78 182.851 209.092 186.907 212.625 189.49C216.157 192.074 219.909 193.206 223.489 192.554L223.488 192.555C227.079 191.903 230.124 189.54 232.708 185.852C235.289 182.166 237.468 177.14 239.396 171.08L239.397 171.078C243.163 158.985 246.436 142.626 247.464 125.035C248.493 107.429 246.097 92.0581 240.668 81.5767C238.004 76.3313 234.692 72.2773 231.16 69.6939Z" fill="#60D06F" stroke="#082422" stroke-width="0.662811" stroke-miterlimit="10" stroke-linecap="round" stroke-linejoin="round"/>
<path d="M37.7153 158.55L9.83496 266.358C9.80665 266.467 9.83669 266.584 9.91394 266.666C9.99144 266.749 10.1061 266.787 10.2175 266.766C48.4531 259.515 80.4551 276.389 112.575 293.338C144.661 310.269 176.865 327.274 215.359 319.972C215.485 319.948 215.586 319.853 215.618 319.729C224.916 283.787 234.201 247.863 243.499 211.921C243.527 211.811 243.498 211.694 243.42 211.611C243.342 211.528 243.227 211.491 243.116 211.512C204.88 218.763 172.878 201.889 140.759 184.94C108.673 168.01 76.4684 151.004 37.9749 158.307C37.8488 158.331 37.7475 158.425 37.7153 158.55Z" fill="#60D06F" stroke="#082422" stroke-width="0.662811" stroke-miterlimit="10" stroke-linecap="round" stroke-linejoin="round"/>
<path d="M43.8898 189.369C44.0618 188.694 44.5264 188.112 45.0972 187.7C45.6691 187.288 46.3759 187.025 47.0676 187.015C47.0863 187.014 47.1044 187.018 47.1226 187.021C55.9873 186.865 64.5174 181.338 66.6453 173.096L66.6452 173.094C66.8971 172.135 67.8737 171.39 68.9079 171.551L70.0413 171.735C93.7892 175.719 115.58 187.231 137.316 198.698C159.417 210.356 181.464 221.969 205.538 225.704L205.73 225.745C206.663 225.995 207.153 226.935 206.91 227.861L206.908 227.861C205.849 231.958 206.596 235.952 208.688 238.895C210.712 241.742 214.008 243.626 218.208 243.668L218.617 243.667L218.618 243.667C219.245 243.658 219.815 243.867 220.192 244.266C220.577 244.674 220.728 245.246 220.565 245.877C218.708 253.048 216.857 260.219 215.006 267.39C213.155 274.561 211.304 281.733 209.447 288.904C209.287 289.523 208.864 290.056 208.347 290.434C207.828 290.811 207.188 291.053 206.555 291.067L206.554 291.067C197.667 291.221 189.089 296.759 186.957 305.019L186.958 305.019C186.684 306.085 185.59 306.938 184.434 306.747L184.433 306.746C160.313 302.961 138.232 291.324 116.212 279.707C94.1722 268.08 72.193 256.474 48.2079 252.661L48.2079 252.659C47.0261 252.474 46.4027 251.341 46.6935 250.254C47.7522 246.157 47.007 242.164 44.9156 239.216C42.827 236.273 39.3816 234.353 34.989 234.419C34.3008 234.429 33.6797 234.198 33.2695 233.765C32.8518 233.323 32.6838 232.703 32.8582 232.017L32.8589 232.017L43.8891 189.368L43.8898 189.369Z" fill="#80E58A" stroke="black" stroke-width="0.662811" stroke-miterlimit="10" stroke-linecap="round" stroke-linejoin="round"/>
<path d="M76.1704 205.613C72.3402 207.746 69.7429 210.67 68.8346 214.193C67.9216 217.727 68.7895 221.482 71.0556 225.373C73.1782 229.019 76.5261 232.841 80.7968 236.836L81.6635 237.637L81.6647 237.639C91.0663 246.127 104.547 255.955 120.087 264.262C135.639 272.575 150.598 276.842 162.389 276.307C168.269 276.087 173.339 274.78 177.166 272.656C180.992 270.532 183.593 267.6 184.501 264.077L184.502 264.077C185.415 260.544 184.546 256.789 182.28 252.897C180.016 249.008 176.366 244.923 171.672 240.633L171.671 240.631C162.269 232.143 148.789 222.314 133.249 214.007C117.696 205.693 102.736 201.426 90.9442 201.962C85.0651 202.182 79.9964 203.489 76.1704 205.613Z" fill="#60D06F" stroke="#082422" stroke-width="0.662811" stroke-miterlimit="10" stroke-linecap="round" stroke-linejoin="round"/>
<path opacity="0.15" d="M72.7134 195.056C72.0867 194.992 71.5874 195.065 71.2035 195.254C70.8262 195.439 70.5315 195.751 70.3293 196.221C66.6789 204.713 63.0287 213.207 59.3789 221.701C55.7975 230.036 52.2165 238.371 48.6345 246.704C77.354 245.857 100.734 257.416 122.676 272.182C133.71 279.606 144.399 287.855 155.211 295.743C166.03 303.635 176.984 311.175 188.577 317.21C188.823 317.337 189.025 317.423 189.187 317.474C189.352 317.526 189.454 317.534 189.508 317.527C189.52 317.526 189.527 317.523 189.531 317.522C189.533 317.517 189.536 317.509 189.539 317.497C189.543 317.471 189.547 317.432 189.544 317.376C189.53 317.14 189.412 316.754 189.156 316.202C188.905 315.661 188.537 314.992 188.058 314.205C186.138 311.052 182.487 306.087 177.609 299.927C167.858 287.615 153.241 270.573 137.881 253.798C122.52 237.022 106.423 220.521 93.7117 209.286C87.3526 203.666 81.8563 199.379 77.7313 197.03C75.6636 195.853 73.9756 195.183 72.7134 195.056Z" fill="black" stroke="#082422" stroke-width="0.662811" stroke-linecap="round" stroke-linejoin="round"/>
<path d="M111.397 55.279L28.4356 129.557C28.3513 129.633 28.3117 129.746 28.3301 129.858C28.3488 129.97 28.4232 130.065 28.5276 130.109C64.3712 145.267 81.6544 177.05 98.9943 208.961C116.316 240.837 133.695 272.842 169.782 288.1C169.9 288.15 170.037 288.127 170.132 288.041C197.793 263.279 225.433 238.526 253.094 213.763C253.178 213.688 253.219 213.574 253.2 213.462C253.182 213.35 253.106 213.256 253.002 213.211C217.158 198.053 199.875 166.27 182.535 134.36C165.214 102.483 147.835 70.4785 111.748 55.2206C111.63 55.1707 111.493 55.1934 111.397 55.279Z" fill="#60D06F" stroke="#082422" stroke-width="0.662811" stroke-miterlimit="10" stroke-linecap="round" stroke-linejoin="round"/>
<path d="M99.4457 84.3568C99.9631 83.8902 100.672 83.6632 101.376 83.6369C102.08 83.6107 102.814 83.7842 103.395 84.1589C103.411 84.169 103.424 84.1823 103.438 84.1947C110.903 88.9781 121.066 89.1061 127.406 83.4252L127.406 83.424C128.148 82.7648 129.374 82.6863 130.145 83.3939L130.986 84.1751C148.544 100.654 160.3 122.314 172.036 143.906C183.969 165.86 195.883 187.746 213.85 204.198L213.988 204.339C214.626 205.064 214.512 206.118 213.796 206.754L213.795 206.754C210.643 209.576 209.051 213.314 209.161 216.924C209.267 220.415 210.966 223.81 214.438 226.173L214.78 226.399L214.781 226.399C215.308 226.74 215.666 227.229 215.759 227.771C215.853 228.323 215.661 228.883 215.176 229.318C209.656 234.257 204.141 239.2 198.625 244.143C193.109 249.085 187.593 254.028 182.073 258.968C181.597 259.395 180.95 259.604 180.309 259.631C179.669 259.658 179.002 259.504 178.468 259.166L178.466 259.165C170.984 254.367 160.775 254.222 154.421 259.915L154.422 259.916C153.604 260.651 152.22 260.755 151.364 259.955L151.364 259.954C133.386 243.434 121.458 221.509 109.569 199.635C97.6691 177.741 85.8078 155.899 67.9582 139.43L67.9589 139.429C67.078 138.62 67.1869 137.331 68.0319 136.587C71.1836 133.764 72.7771 130.027 72.6699 126.415C72.5629 122.808 70.7593 119.3 67.0669 116.92C66.4883 116.547 66.0992 116.01 65.9981 115.422C65.8953 114.823 66.0994 114.213 66.6245 113.74L66.6254 113.739L99.4455 84.3558L99.4457 84.3568Z" fill="#80E58A" stroke="black" stroke-width="0.662811" stroke-miterlimit="10" stroke-linecap="round" stroke-linejoin="round"/>
<path d="M117.319 115.768C112.949 115.421 109.166 116.414 106.457 118.844C103.739 121.279 102.38 124.885 102.109 129.38C101.855 133.591 102.523 138.628 103.864 144.32L104.141 145.467L104.141 145.469C107.261 157.746 113.034 173.398 121.364 188.926C129.701 204.465 139.786 216.308 149.897 222.398C154.913 225.474 159.857 227.197 164.22 227.55C168.582 227.902 172.372 226.904 175.081 224.475L175.081 224.476C177.8 222.041 179.158 218.434 179.429 213.938C179.7 209.447 178.926 204.024 177.397 197.851L177.397 197.849C174.277 185.573 168.505 169.92 160.175 154.392C151.837 138.852 141.751 127.008 131.64 120.918C126.624 117.843 121.681 116.121 117.319 115.768Z" fill="#60D06F" stroke="#082422" stroke-width="0.662811" stroke-miterlimit="10" stroke-linecap="round" stroke-linejoin="round"/>
<path d="M318.22 81.8545C315.453 81.5329 312.606 81.7509 310.634 82.4687C308.623 83.2003 306.423 84.2728 304.485 86.2474C302.671 88.097 301.07 90.7562 300.088 94.7111L299.9 95.5197C298.963 99.8334 297.756 110.436 296.472 123.942C295.19 137.438 293.833 153.807 292.593 169.636C291.354 185.465 290.231 200.752 289.419 212.082C289.013 217.747 288.685 222.423 288.458 225.682C288.345 227.311 288.256 228.587 288.196 229.455C288.167 229.889 288.144 230.221 288.129 230.445C288.121 230.557 288.115 230.642 288.111 230.698C288.109 230.727 288.108 230.748 288.107 230.762C288.106 230.769 288.106 230.775 288.106 230.779C288.106 230.78 288.105 230.782 288.105 230.783C288.102 230.783 288.07 230.781 287.775 230.761L288.106 230.784C288.093 230.966 287.936 231.104 287.754 231.092L287.75 231.092C287.748 231.092 287.745 231.091 287.74 231.091C287.731 231.09 287.717 231.09 287.699 231.089C287.663 231.087 287.609 231.083 287.541 231.079C287.403 231.07 287.205 231.058 286.963 231.043C286.478 231.014 285.815 230.973 285.101 230.932C283.67 230.849 282.041 230.762 281.23 230.741C280.335 230.717 278.533 230.731 276.947 230.751C276.156 230.761 275.42 230.772 274.883 230.781C274.614 230.786 274.396 230.789 274.244 230.792C274.168 230.793 274.109 230.794 274.069 230.795C274.049 230.796 274.033 230.796 274.023 230.796C274.018 230.797 274.014 230.796 274.011 230.796C274.01 230.796 274.009 230.796 274.008 230.796L274.007 230.796C273.884 230.799 273.772 230.733 273.712 230.628L273.69 230.58L273.689 230.578C273.689 230.577 273.687 230.574 273.686 230.571C273.684 230.565 273.681 230.555 273.677 230.543C273.667 230.519 273.653 230.482 273.635 230.433C273.599 230.336 273.545 230.19 273.474 230C273.334 229.62 273.127 229.062 272.862 228.346C272.331 226.915 271.568 224.856 270.639 222.343C268.782 217.317 266.259 210.474 263.6 203.211C258.283 188.689 252.415 172.473 250.223 165.734C247.131 156.213 237.841 129.656 233.602 117.015C231.72 111.39 228.597 109.063 225.387 108.295C222.144 107.519 218.749 108.318 216.317 109.085C214.226 109.745 212.31 111.487 210.989 113.646C209.75 115.67 209.062 118.016 209.222 120.1L209.265 120.513C210.179 127.26 212.857 138.845 215.531 149.841C218.033 160.136 220.532 169.915 221.554 174.664L221.739 175.544C223.552 184.517 231.445 216.965 235.013 231.552C236.17 236.286 235.746 241.271 233.803 245.748L229.319 256.077L248.309 335.569L308.649 420.136L375.13 426.472C375.15 426.441 375.172 426.405 375.197 426.365C375.312 426.183 375.481 425.911 375.698 425.551C376.132 424.829 376.759 423.756 377.528 422.35C379.067 419.537 381.176 415.392 383.452 410.072C388.003 399.431 393.22 384.091 395.88 365.298C398.54 346.487 400.277 326.381 401.905 309.083C403.531 291.806 405.051 277.297 407.283 269.73C411.025 257.016 430.122 193.948 435.089 172.763C435.93 169.179 434.898 161.903 428.114 158.325L428.113 158.325C426.087 157.246 422.332 156.929 418.675 157.762C415.023 158.593 411.58 160.545 410.086 163.883C406.511 171.878 402.543 183.415 399.019 194.044C395.499 204.657 392.416 214.38 390.618 218.702L390.618 218.701C388.279 224.33 384.418 234.709 381.138 243.686C379.499 248.173 378.006 252.308 376.923 255.322C376.382 256.828 375.942 258.054 375.638 258.903C375.487 259.328 375.369 259.659 375.288 259.884C375.249 259.995 375.219 260.081 375.198 260.138C375.188 260.167 375.179 260.189 375.174 260.203C375.171 260.211 375.17 260.216 375.168 260.22C375.168 260.222 375.168 260.223 375.167 260.224L375.167 260.226C375.134 260.317 375.064 260.389 374.973 260.424C374.883 260.459 374.782 260.452 374.697 260.406L366.772 256.108C366.687 256.062 366.629 255.982 366.608 255.891L366.6 255.797L366.599 255.795C366.599 255.793 366.6 255.791 366.6 255.788C366.601 255.781 366.601 255.772 366.602 255.759C366.603 255.734 366.606 255.695 366.609 255.645C366.614 255.545 366.623 255.395 366.634 255.2C366.656 254.81 366.69 254.235 366.732 253.499C366.817 252.026 366.939 249.907 367.09 247.321C367.391 242.148 367.804 235.106 368.251 227.631C369.033 214.549 369.92 200.134 370.496 192.077L370.723 189.036L370.817 187.92C371.353 181.85 372.856 168.53 374.229 154.518C375.695 139.555 377.014 123.802 376.866 115.159C376.799 111.22 374.976 108.473 372.727 106.591C370.478 104.708 367.806 103.694 366.062 103.248C357.29 101.685 350.067 107.425 348.735 114.483C347.132 122.963 343.437 154.614 340.141 184.168C338.493 198.94 336.947 213.181 335.812 223.729C335.244 229.003 334.779 233.354 334.456 236.386C334.295 237.903 334.169 239.089 334.083 239.897C334.041 240.3 334.008 240.609 333.986 240.818C333.975 240.921 333.966 241 333.961 241.053C333.958 241.079 333.956 241.1 333.954 241.113C333.954 241.119 333.954 241.124 333.953 241.127C333.953 241.129 333.953 241.131 333.952 241.132C333.949 241.132 333.919 241.129 333.623 241.098L333.953 241.133C333.942 241.233 333.887 241.323 333.802 241.377C333.717 241.432 333.612 241.444 333.517 241.411L326.111 238.898C325.991 238.857 325.906 238.752 325.889 238.629L325.886 238.576L325.886 238.574C325.886 238.572 325.886 238.569 325.886 238.565C325.887 238.559 325.887 238.548 325.887 238.534C325.888 238.506 325.888 238.465 325.89 238.411C325.892 238.302 325.896 238.139 325.901 237.927C325.911 237.502 325.926 236.876 325.945 236.075C325.983 234.472 326.036 232.164 326.103 229.347C326.235 223.712 326.417 216.037 326.614 207.877C327.007 191.558 327.459 173.295 327.692 165.527C328.05 153.626 329.791 115.699 330.728 96.7244C330.905 93.1695 330.214 90.7193 329.144 88.8524C328.07 86.9769 326.601 85.6649 325.161 84.3944L325.161 84.3956C323.61 83.0327 320.992 82.1769 318.22 81.8545Z" fill="#FFCE9B" stroke="#082422" stroke-width="0.662811" stroke-miterlimit="10" stroke-linecap="round" stroke-linejoin="round"/>
<path opacity="0.15" d="M309.059 83.1059C307.228 83.9275 305.379 85.0999 303.777 86.9982C302.146 88.9296 300.756 91.6302 299.91 95.5167C298.973 99.8278 297.766 110.43 296.482 123.936C295.199 137.432 293.842 153.802 292.602 169.632C291.363 185.461 290.241 200.749 289.43 212.079C289.024 217.744 288.695 222.419 288.469 225.679C288.355 227.309 288.267 228.585 288.207 229.453C288.177 229.887 288.155 230.219 288.14 230.443C288.132 230.555 288.125 230.64 288.122 230.696C288.12 230.725 288.118 230.746 288.117 230.76C288.117 230.767 288.117 230.773 288.117 230.777C288.117 230.778 288.116 230.78 288.116 230.781C288.113 230.781 288.084 230.779 287.786 230.759L288.116 230.782C288.104 230.964 287.946 231.102 287.764 231.09L287.764 231.09C287.763 231.089 287.762 231.09 287.761 231.09C287.759 231.09 287.755 231.089 287.751 231.089C287.741 231.088 287.728 231.088 287.71 231.087C287.673 231.085 287.62 231.081 287.551 231.077C287.414 231.068 287.216 231.056 286.974 231.041C286.489 231.012 285.825 230.971 285.111 230.93C284.037 230.868 282.853 230.803 281.986 230.765L281.241 230.739C280.346 230.715 278.543 230.729 276.957 230.749C276.166 230.759 275.431 230.77 274.893 230.779C274.625 230.784 274.406 230.787 274.254 230.79C274.179 230.791 274.119 230.792 274.079 230.793C274.059 230.794 274.043 230.794 274.033 230.794C274.028 230.794 274.024 230.795 274.021 230.795L274.019 230.794L274.018 230.794C273.877 230.797 273.749 230.71 273.7 230.578L274.011 230.463C273.7 230.578 273.7 230.578 273.7 230.577L273.7 230.576C273.699 230.575 273.698 230.572 273.697 230.569C273.694 230.563 273.692 230.553 273.687 230.541C273.678 230.517 273.663 230.479 273.645 230.43C273.609 230.333 273.555 230.188 273.485 229.998C273.344 229.618 273.137 229.06 272.872 228.344C272.342 226.913 271.579 224.854 270.65 222.341C268.792 217.315 266.27 210.472 263.611 203.209C258.293 188.686 252.424 172.471 250.232 165.733C247.13 156.212 237.843 129.657 233.612 117.012C231.73 111.387 228.605 109.062 225.394 108.294C222.352 107.567 219.178 108.223 216.792 108.939L216.326 109.083C214.23 109.74 212.311 111.48 210.989 113.638C209.669 115.795 208.976 118.319 209.272 120.501L209.273 120.502C210.181 127.245 212.859 138.83 215.534 149.827C218.205 160.808 220.873 171.205 221.747 175.533C223.56 184.505 231.453 216.954 235.021 231.541C236.18 236.284 235.753 241.259 233.811 245.735L229.339 256.033L242.901 312.801C254.739 306.556 266.587 300.309 278.434 294.062C278.453 294.052 278.473 294.043 278.494 294.037C279 293.886 279.507 293.739 280.013 293.59C280.52 293.442 281.025 293.294 281.53 293.144C281.556 293.136 281.583 293.132 281.61 293.13L281.691 293.137L294.989 295.836C294.507 293.82 294.094 291.827 293.747 289.842C293.744 289.822 293.743 289.803 293.743 289.784C289.806 267.262 294.23 246.447 301.665 226.281C305.383 216.198 309.855 206.271 314.415 196.372C318.968 186.488 323.606 176.635 327.675 166.666C327.682 166.264 327.693 165.88 327.703 165.526L327.702 165.525L327.785 163C328.275 148.957 329.86 114.511 330.738 96.7226C330.976 91.8099 329.566 88.9941 327.753 86.9007C324.639 86.2699 321.524 85.6373 318.41 85.0043C315.292 84.3707 312.175 83.7372 309.059 83.1059ZM293.863 290.002C293.865 290.004 293.867 290.005 293.868 290.005C293.867 290.005 293.864 290.001 293.859 289.997C293.861 289.998 293.862 290.001 293.863 290.002Z" fill="black" stroke="#082422" stroke-width="0.662811" stroke-linecap="round" stroke-linejoin="round"/>
<path d="M341.734 322.299C337.861 323.034 329.385 324.85 320.255 328.165C314.286 330.332 308.047 333.136 302.633 336.689C297.553 340.024 293.217 344.008 290.506 348.728L341.734 322.299Z" stroke="#082422" stroke-width="0.662811" stroke-miterlimit="10" stroke-linecap="round" stroke-linejoin="round"/>
<path d="M365.067 306.976C349.845 289.16 327.598 278.869 308.9 273.015C293.734 268.267 280.931 266.446 276.166 265.887L365.067 306.976Z" stroke="#082422" stroke-width="0.662811" stroke-miterlimit="10" stroke-linecap="round" stroke-linejoin="round"/>
<path d="M383.865 265.933C378.803 262.726 365.194 254.466 347.132 246.751C325.649 237.575 297.9 229.187 270.756 230.964L383.865 265.933Z" stroke="#082422" stroke-width="0.662811" stroke-miterlimit="10" stroke-linecap="round" stroke-linejoin="round"/>
<path opacity="0.15" d="M230.541 55.9069C236.273 83.4161 229.428 107.971 219.119 131.661C213.934 143.576 207.865 155.287 202.077 167.04C196.298 178.773 190.796 190.555 186.705 202.661C187.179 205.517 188.389 207.617 190.168 209.111C191.969 210.623 194.376 211.536 197.254 211.958C203.017 212.802 210.572 211.66 218.618 209.549C234.6 205.356 252.33 197.399 261.481 193.909C262.031 189.888 264.13 182.539 266.596 173.163C269.109 163.611 272.014 151.913 274.093 139.363C278.245 114.299 279.089 85.9111 267.007 64.4462C260.87 63.0084 254.731 61.5723 248.591 60.1351C242.574 58.7264 236.556 57.3161 230.541 55.9069Z" fill="black" stroke="#082422" stroke-width="0.662811" stroke-linecap="round" stroke-linejoin="round"/>
<path d="M328.271 58.5886L217.274 49.6717C217.161 49.6626 217.051 49.7123 216.983 49.8026C216.915 49.8932 216.897 50.0127 216.937 50.1188C230.658 86.5368 219.541 120.965 208.371 155.522C197.213 190.042 186.002 224.692 199.818 261.355C199.863 261.475 199.974 261.558 200.102 261.569C237.108 264.544 274.093 267.51 311.099 270.486C311.212 270.495 311.323 270.446 311.391 270.355C311.459 270.264 311.476 270.145 311.436 270.038C297.715 233.62 308.832 199.193 320.002 164.636C331.16 130.115 342.371 95.4656 328.555 58.8024C328.51 58.6824 328.399 58.5988 328.271 58.5886Z" fill="#60D06F" stroke="#082422" stroke-width="0.662811" stroke-miterlimit="10" stroke-linecap="round" stroke-linejoin="round"/>
<path d="M298.98 69.9725C299.675 70.0258 300.328 70.3833 300.832 70.8747C301.336 71.3672 301.716 72.0184 301.846 72.698C301.849 72.7163 301.849 72.7348 301.849 72.7532C303.528 81.4589 310.44 88.9109 318.926 89.589L318.927 89.5887C319.916 89.6717 320.817 90.5057 320.836 91.5521L320.85 92.7002C321.011 116.78 313.42 140.226 305.864 163.611C298.181 187.388 290.535 211.104 290.997 235.461L290.99 235.658C290.905 236.62 290.063 237.264 289.108 237.184L289.108 237.183C284.89 236.844 281.085 238.267 278.545 240.834C276.088 243.318 274.8 246.889 275.481 251.033L275.553 251.436L275.553 251.437C275.67 252.054 275.562 252.651 275.233 253.091C274.898 253.54 274.36 253.787 273.711 253.735C266.327 253.14 258.945 252.55 251.562 251.96C244.179 251.371 236.796 250.781 229.412 250.186C228.775 250.134 228.177 249.81 227.716 249.365C227.255 248.919 226.907 248.33 226.784 247.709L226.784 247.708C225.103 238.98 218.172 231.483 209.668 230.803L209.668 230.804C208.571 230.718 207.543 229.787 207.532 228.615L207.533 228.614C207.112 204.202 214.777 180.449 222.432 156.759C230.094 133.047 237.745 109.399 237.375 85.1153L237.376 85.115C237.355 83.919 238.364 83.11 239.486 83.2093C243.703 83.5474 247.509 82.1263 250.052 79.559C252.592 76.9952 253.891 73.2709 253.071 68.9551C252.942 68.2788 253.062 67.6273 253.419 67.1486C253.782 66.6613 254.365 66.3889 255.07 66.4428L255.071 66.4434L298.981 69.9717L298.98 69.9725Z" fill="#80E58A" stroke="black" stroke-width="0.662811" stroke-miterlimit="10" stroke-linecap="round" stroke-linejoin="round"/>
<path d="M288.535 104.566C285.775 101.16 282.448 99.1043 278.821 98.8157C275.183 98.5243 271.633 100.025 268.189 102.927C264.964 105.645 261.774 109.601 258.574 114.495L257.934 115.487L257.932 115.488C251.188 126.21 243.826 141.181 238.316 157.918C232.803 174.669 231.173 190.138 233.729 201.661C234.957 207.416 237.117 212.186 239.868 215.59C242.619 218.993 245.954 221.051 249.581 221.34L249.581 221.341C253.219 221.632 256.768 220.13 260.212 217.228C263.653 214.329 267.049 210.031 270.468 204.669L270.469 204.667C277.214 193.946 284.577 178.975 290.086 162.238C295.6 145.486 297.23 130.015 294.674 118.491C293.445 112.738 291.285 107.97 288.535 104.566Z" fill="#60D06F" stroke="#082422" stroke-width="0.662811" stroke-miterlimit="10" stroke-linecap="round" stroke-linejoin="round"/>
<path d="M89.0958 133.957L43.1841 235.406C43.1374 235.509 43.1471 235.629 43.2091 235.724C43.2713 235.819 43.3778 235.876 43.4911 235.874C82.4035 235.271 111.047 257.371 139.794 279.564C168.511 301.734 197.331 323.998 236.507 323.388C236.635 323.386 236.751 323.31 236.804 323.193C252.113 289.371 267.407 255.566 282.716 221.744C282.762 221.641 282.753 221.52 282.691 221.425C282.629 221.33 282.522 221.274 282.409 221.276C243.496 221.879 214.853 199.779 186.106 177.586C157.389 155.416 128.568 133.152 89.3931 133.762C89.2648 133.764 89.1487 133.84 89.0958 133.957Z" fill="#60D06F" stroke="#082422" stroke-width="0.662811" stroke-miterlimit="10" stroke-linecap="round" stroke-linejoin="round"/>
<path d="M89.9078 165.378C90.1928 164.742 90.75 164.248 91.3828 163.94C92.0168 163.632 92.7582 163.495 93.4415 163.603C93.4599 163.605 93.4771 163.612 93.4945 163.618C102.255 164.981 111.605 160.995 115.112 153.238L115.112 153.236C115.524 152.334 116.614 151.767 117.605 152.103L118.69 152.478C141.407 160.466 160.907 175.536 180.361 190.552C200.142 205.819 219.877 221.032 242.957 228.83L243.14 228.903C244.017 229.309 244.338 230.319 243.94 231.191L243.939 231.19C242.194 235.045 242.247 239.108 243.805 242.366C245.311 245.518 248.237 247.937 252.367 248.697L252.771 248.766L252.772 248.766C253.392 248.864 253.917 249.168 254.22 249.626C254.53 250.093 254.58 250.683 254.312 251.276C251.256 258.024 248.206 264.773 245.155 271.521C242.104 278.27 239.054 285.019 235.998 291.767C235.734 292.35 235.226 292.803 234.652 293.086C234.076 293.37 233.404 293.498 232.779 293.404L232.777 293.403C223.995 292.035 214.596 296.024 211.082 303.798L211.083 303.798C210.631 304.801 209.407 305.455 208.301 305.068L208.3 305.067C185.183 297.212 165.418 281.969 145.71 266.757C125.984 251.531 106.314 236.336 83.3352 228.476L83.3353 228.474C82.2027 228.09 81.7822 226.867 82.2548 225.845C83.9986 221.99 83.9477 217.928 82.3912 214.666C80.8369 211.409 77.7707 208.928 73.4317 208.242C72.7518 208.134 72.1793 207.8 71.8493 207.303C71.5134 206.797 71.454 206.156 71.7431 205.511L71.7439 205.51L89.9072 165.377L89.9078 165.378Z" fill="#80E58A" stroke="black" stroke-width="0.662811" stroke-miterlimit="10" stroke-linecap="round" stroke-linejoin="round"/>
<path d="M118.937 186.905C114.798 188.351 111.739 190.787 110.241 194.103C108.737 197.428 108.95 201.276 110.517 205.498C111.985 209.453 114.629 213.792 118.154 218.458L118.871 219.396L118.872 219.398C126.682 229.369 138.283 241.358 152.173 252.201C166.074 263.052 180.082 269.815 191.791 271.305C197.622 272.094 202.841 271.674 206.975 270.236C211.108 268.797 214.172 266.354 215.67 263.038L215.67 263.038C217.174 259.713 216.961 255.865 215.394 251.643C213.828 247.424 210.931 242.775 207.04 237.745L207.039 237.743C199.228 227.772 187.628 215.782 173.738 204.939C159.836 194.087 145.827 187.323 134.117 185.834C128.287 185.045 123.07 185.466 118.937 186.905Z" fill="#60D06F" stroke="#082422" stroke-width="0.662811" stroke-miterlimit="10" stroke-linecap="round" stroke-linejoin="round"/>
<path opacity="0.15" d="M149.912 103.309C144.053 105.276 138.194 107.242 132.338 109.21C151.683 129.588 158.782 154.069 162.479 179.639C164.338 192.499 165.339 205.652 166.6 218.692C167.859 231.711 169.379 244.626 172.269 257.076C174.176 259.254 176.309 260.404 178.608 260.739C180.936 261.078 183.464 260.587 186.134 259.431C191.48 257.116 197.304 252.171 203.037 246.142C214.423 234.169 225.315 218.074 231.259 210.292C229.613 206.583 227.533 199.229 224.698 189.958C221.81 180.513 218.125 169.036 213.291 157.27C203.633 133.768 189.41 109.181 167.838 97.2878C161.865 99.296 155.888 101.303 149.912 103.309Z" fill="black" stroke="#082422" stroke-width="0.662811" stroke-linecap="round" stroke-linejoin="round"/>
<path d="M255.838 72.4051L146.487 93.4366C146.376 93.4581 146.284 93.5351 146.242 93.6404C146.201 93.7459 146.216 93.8657 146.282 93.9574C169.226 125.392 167.701 161.538 166.159 197.823C164.619 234.069 163.062 270.454 186.163 302.1C186.239 302.203 186.368 302.254 186.494 302.23C222.951 295.221 259.387 288.208 295.844 281.199C295.956 281.177 296.049 281.1 296.091 280.995C296.132 280.889 296.116 280.77 296.049 280.678C273.106 249.243 274.631 213.097 276.173 176.812C277.712 140.566 279.269 104.181 256.169 72.5354C256.093 72.4318 255.964 72.3809 255.838 72.4051Z" fill="#60D06F" stroke="#082422" stroke-width="0.662811" stroke-miterlimit="10" stroke-linecap="round" stroke-linejoin="round"/>
<path d="M230.641 91.2C231.325 91.0659 232.05 91.236 232.666 91.5752C233.284 91.9151 233.824 92.4413 234.13 93.0617C234.138 93.0785 234.143 93.0965 234.148 93.1141C238.09 101.056 246.74 106.393 255.098 104.781L255.1 104.781C256.075 104.597 257.166 105.16 257.464 106.163L257.784 107.266C264.365 130.429 263.307 155.051 262.267 179.604C261.209 204.57 260.17 229.465 267.116 252.816L267.162 253.008C267.336 253.958 266.697 254.803 265.756 254.981L265.755 254.979C261.6 255.779 258.312 258.166 256.55 261.318C254.845 264.367 254.556 268.152 256.319 271.964L256.496 272.334L256.496 272.335C256.773 272.898 256.829 273.502 256.63 274.014C256.426 274.536 255.974 274.917 255.334 275.041C248.06 276.438 240.788 277.84 233.515 279.242C226.243 280.644 218.97 282.046 211.696 283.443C211.067 283.564 210.405 283.411 209.842 283.105C209.278 282.798 208.786 282.324 208.502 281.758L208.501 281.757C204.552 273.794 195.871 268.419 187.494 270.034L187.495 270.035C186.415 270.244 185.174 269.621 184.852 268.495L184.852 268.494C177.931 245.08 178.978 220.142 180.032 195.269C181.088 170.372 182.15 145.54 175.312 122.236L175.313 122.235C174.974 121.088 175.73 120.039 176.837 119.836C180.992 119.036 184.281 116.65 186.047 113.497C187.81 110.349 188.068 106.413 186.125 102.473C185.821 101.855 185.763 101.195 185.979 100.639C186.199 100.072 186.687 99.6542 187.381 99.518L187.382 99.5182L230.641 91.199L230.641 91.2Z" fill="#80E58A" stroke="black" stroke-width="0.662811" stroke-miterlimit="10" stroke-linecap="round" stroke-linejoin="round"/>
<path d="M229.804 127.323C226.236 124.777 222.481 123.684 218.908 124.374C215.324 125.064 212.304 127.458 209.76 131.174C207.377 134.654 205.359 139.317 203.581 144.888L203.228 146.015L203.227 146.017C199.589 158.149 196.49 174.542 195.647 192.143C194.804 209.757 197.363 225.1 202.901 235.524C205.621 240.742 208.975 244.762 212.535 247.308C216.094 249.854 219.858 250.947 223.431 250.257L223.431 250.258C227.014 249.568 230.034 247.174 232.579 243.458C235.121 239.745 237.247 234.697 239.11 228.617L239.111 228.615C242.749 216.482 245.85 200.089 246.692 182.488C247.535 164.872 244.977 149.528 239.437 139.105C236.718 133.888 233.364 129.869 229.804 127.323Z" fill="#60D06F" stroke="#082422" stroke-width="0.662811" stroke-miterlimit="10" stroke-linecap="round" stroke-linejoin="round"/>
<path opacity="0.15" d="M90.9024 152.647C113.27 169.657 124.21 192.681 131.965 217.325C135.866 229.72 138.966 242.541 142.306 255.209C145.64 267.857 149.215 280.36 154.068 292.183C172.452 307.531 191.888 320.803 215.854 325.606C219.322 323.779 222.787 321.951 226.252 320.122C229.722 318.291 233.192 316.458 236.665 314.628C241.233 306.117 245.803 297.605 250.373 289.093C254.928 280.609 259.483 272.125 264.036 263.641C255.274 250.451 249.538 235.68 244.895 220.351C222.626 209.984 204.023 192.797 185.198 176.173C166.35 159.529 147.275 143.445 124.017 135.18C112.979 141.002 101.941 146.825 90.9024 152.647Z" fill="black" stroke="#082422" stroke-width="0.662811" stroke-linecap="round" stroke-linejoin="round"/>
<path d="M191.316 89.3446L92.8206 141.293C92.7204 141.346 92.6545 141.446 92.6452 141.559C92.6362 141.672 92.6854 141.782 92.7759 141.851C123.875 165.247 132.937 200.272 142.023 235.434C151.099 270.559 160.2 305.822 191.511 329.374C191.613 329.451 191.752 329.462 191.865 329.403C224.704 312.085 257.521 294.772 290.36 277.455C290.461 277.402 290.527 277.301 290.537 277.188C290.546 277.075 290.496 276.965 290.405 276.897C259.306 253.501 250.244 218.476 241.158 183.313C232.082 148.188 222.981 112.925 191.67 89.373C191.567 89.2959 191.429 89.2848 191.316 89.3446Z" fill="#60D06F" stroke="#082422" stroke-width="0.662811" stroke-miterlimit="10" stroke-linecap="round" stroke-linejoin="round"/>
<path d="M172.675 114.66C173.29 114.333 174.033 114.285 174.722 114.43C175.412 114.575 176.081 114.921 176.555 115.426C176.567 115.439 176.577 115.455 176.587 115.471C182.67 121.921 192.498 124.51 200.026 120.535L200.027 120.534C200.907 120.074 202.115 120.296 202.691 121.169L203.318 122.131C216.357 142.375 222.511 166.239 228.662 190.032C234.916 214.224 241.168 238.345 254.61 258.663L254.71 258.833C255.153 259.691 254.787 260.686 253.938 261.13L253.938 261.129C250.195 263.103 247.744 266.344 246.976 269.872C246.232 273.285 247.058 276.991 249.854 280.125L250.13 280.427L250.131 280.428C250.56 280.885 250.788 281.448 250.747 281.995C250.705 282.554 250.383 283.051 249.807 283.354C243.254 286.808 236.705 290.267 230.155 293.725C223.606 297.183 217.056 300.641 210.503 304.095C209.937 304.393 209.259 304.44 208.631 304.311C208.003 304.181 207.393 303.87 206.957 303.412L206.956 303.411C200.86 296.943 190.991 294.327 183.446 298.31L183.447 298.311C182.475 298.825 181.107 298.59 180.471 297.606V297.605C167.034 277.22 160.778 253.057 154.547 228.953C148.31 204.827 142.099 180.761 128.774 160.456L128.775 160.455C128.117 159.456 128.535 158.233 129.535 157.716C133.277 155.742 135.729 152.502 136.501 148.972C137.272 145.446 136.372 141.606 133.367 138.401C132.896 137.899 132.649 137.285 132.693 136.689C132.739 136.083 133.085 135.541 133.709 135.209H133.71L172.675 114.659V114.66Z" fill="#80E58A" stroke="black" stroke-width="0.662811" stroke-miterlimit="10" stroke-linecap="round" stroke-linejoin="round"/>
<path d="M182.396 149.464C178.24 148.067 174.33 148.114 171.113 149.814C167.885 151.517 165.692 154.686 164.34 158.982C163.073 163.005 162.499 168.054 162.42 173.901L162.411 175.082L162.41 175.084C162.461 187.75 164.267 204.335 168.584 221.419C172.904 238.516 179.817 252.45 188.15 260.811C192.271 265.011 196.65 267.881 200.796 269.281C204.943 270.681 208.861 270.631 212.079 268.931L212.079 268.932C215.307 267.229 217.499 264.059 218.852 259.763C220.203 255.472 220.768 250.023 220.781 243.664L220.781 243.661C220.73 230.995 218.925 214.41 214.608 197.326C210.288 180.227 203.374 166.292 195.041 157.932C190.92 153.732 186.542 150.864 182.396 149.464Z" fill="#60D06F" stroke="#082422" stroke-width="0.662811" stroke-miterlimit="10" stroke-linecap="round" stroke-linejoin="round"/>
<mask id="path-31-inside-1_15015_18827" fill="white">
<path d="M375.502 426.498L447.755 573.804C448.999 576.276 448.65 579.234 446.849 581.34C439.49 589.954 420.017 609.257 388.823 621.042C341.548 638.919 323.252 630.497 313.272 626.378C311.393 625.61 309.954 624.052 309.344 622.111L260.31 445.332C259.797 443.716 258.932 442.245 257.779 441.01C247.226 429.703 204.908 382.515 202.375 342.069C200.114 305.848 204.721 278.325 198.804 226.483C197.962 219.115 205.048 212.097 215.741 214.131C227.671 216.404 234.29 234.116 236.367 240.783C242.598 260.783 245.151 288.931 248.131 296.798C252.096 307.297 279.738 324.165 287.883 341.628C296.029 359.091 299.868 377.718 299.868 377.718"/>
</mask>
<path d="M375.502 426.498L447.755 573.804C448.999 576.276 448.65 579.234 446.849 581.34C439.49 589.954 420.017 609.257 388.823 621.042C341.548 638.919 323.252 630.497 313.272 626.378C311.393 625.61 309.954 624.052 309.344 622.111L260.31 445.332C259.797 443.716 258.932 442.245 257.779 441.01C247.226 429.703 204.908 382.515 202.375 342.069C200.114 305.848 204.721 278.325 198.804 226.483C197.962 219.115 205.048 212.097 215.741 214.131C227.671 216.404 234.29 234.116 236.367 240.783C242.598 260.783 245.151 288.931 248.131 296.798C252.096 307.297 279.738 324.165 287.883 341.628C296.029 359.091 299.868 377.718 299.868 377.718" fill="#FFCE9B"/>
<path d="M374.907 426.79C374.746 426.461 374.882 426.064 375.21 425.903C375.539 425.742 375.936 425.877 376.097 426.206L375.502 426.498L374.907 426.79ZM447.755 573.804L447.163 574.102L447.16 574.096L447.755 573.804ZM446.849 581.34L446.345 580.909L446.346 580.909L446.849 581.34ZM388.823 621.042L388.588 620.422L388.588 620.422L388.823 621.042ZM313.272 626.378L313.523 625.765L313.525 625.766L313.272 626.378ZM309.344 622.111L308.711 622.31C308.709 622.303 308.707 622.296 308.705 622.289L309.344 622.111ZM260.31 445.332L260.941 445.131C260.944 445.139 260.946 445.147 260.948 445.154L260.31 445.332ZM257.779 441.01L257.295 441.463L257.295 441.463L257.779 441.01ZM202.375 342.069L201.714 342.11L201.714 342.11L202.375 342.069ZM198.804 226.483L199.463 226.408L199.463 226.408L198.804 226.483ZM215.741 214.131L215.865 213.48L215.865 213.48L215.741 214.131ZM236.367 240.783L235.734 240.98L236.367 240.783ZM248.131 296.798L248.751 296.564L248.751 296.564L248.131 296.798ZM300.517 377.584C300.591 377.943 300.36 378.293 300.002 378.367C299.643 378.441 299.293 378.21 299.219 377.852L299.868 377.718L300.517 377.584ZM375.502 426.498L376.097 426.206L448.35 573.512L447.755 573.804L447.16 574.096L374.907 426.79L375.502 426.498ZM447.755 573.804L448.347 573.506C449.71 576.215 449.328 579.461 447.353 581.77L446.849 581.34L446.346 580.909C447.971 579.008 448.287 576.337 447.163 574.102L447.755 573.804ZM446.849 581.34L447.353 581.77C439.946 590.441 420.386 609.826 389.057 621.662L388.823 621.042L388.588 620.422C419.648 608.688 439.034 589.467 446.345 580.909L446.849 581.34ZM388.823 621.042L389.057 621.662C365.363 630.622 348.882 633.01 337.04 632.621C325.183 632.231 318.021 629.055 313.019 626.991L313.272 626.378L313.525 625.766C318.503 627.82 325.479 630.914 337.083 631.296C348.703 631.678 365.007 629.339 388.588 620.422L388.823 621.042ZM313.272 626.378L313.021 626.992C310.961 626.149 309.381 624.44 308.711 622.31L309.344 622.111L309.976 621.913C310.527 623.664 311.826 625.07 313.523 625.765L313.272 626.378ZM309.344 622.111L308.705 622.289L259.671 445.509L260.31 445.332L260.948 445.154L309.982 621.934L309.344 622.111ZM260.31 445.332L259.678 445.532C259.195 444.011 258.381 442.626 257.295 441.463L257.779 441.01L258.264 440.558C259.483 441.864 260.398 443.421 260.941 445.131L260.31 445.332ZM257.779 441.01L257.295 441.463C252.008 435.798 238.762 421.144 226.519 402.835C214.288 384.547 202.992 362.516 201.714 342.11L202.375 342.069L203.037 342.027C204.292 362.068 215.42 383.854 227.62 402.098C239.807 420.321 252.998 434.916 258.264 440.558L257.779 441.01ZM202.375 342.069L201.714 342.11C200.581 323.969 201.168 307.995 201.298 290.129C201.427 272.256 201.1 252.444 198.146 226.558L198.804 226.483L199.463 226.408C202.425 252.365 202.753 272.235 202.623 290.139C202.493 308.05 201.908 323.947 203.037 342.027L202.375 342.069ZM198.804 226.483L198.146 226.559C197.241 218.646 204.837 211.382 215.865 213.48L215.741 214.131L215.618 214.782C205.258 212.812 198.683 219.584 199.463 226.408L198.804 226.483ZM215.741 214.131L215.865 213.48C222.115 214.671 226.883 219.876 230.314 225.462C233.761 231.075 235.954 237.229 237 240.586L236.367 240.783L235.734 240.98C234.703 237.669 232.549 231.634 229.184 226.156C225.804 220.652 221.297 215.864 215.617 214.782L215.741 214.131ZM236.367 240.783L237 240.586C240.13 250.633 242.332 262.711 244.121 273.229C245.018 278.497 245.809 283.367 246.563 287.418C247.32 291.483 248.03 294.66 248.751 296.564L248.131 296.798L247.511 297.033C246.742 295.003 246.015 291.712 245.26 287.661C244.503 283.596 243.708 278.704 242.815 273.451C241.025 262.928 238.835 250.932 235.734 240.98L236.367 240.783ZM248.131 296.798L248.751 296.564C249.688 299.045 252.065 301.981 255.342 305.312C258.602 308.626 262.663 312.246 266.887 316.113C275.29 323.806 284.345 332.475 288.484 341.348L287.883 341.628L287.282 341.908C283.275 333.317 274.437 324.822 265.992 317.09C261.791 313.245 257.689 309.588 254.397 306.241C251.121 302.911 248.556 299.801 247.511 297.033L248.131 296.798ZM287.883 341.628L288.484 341.348C292.576 350.121 295.583 359.179 297.567 366.038C298.559 369.468 299.296 372.352 299.785 374.379C300.03 375.393 300.212 376.193 300.334 376.74C300.395 377.013 300.44 377.224 300.471 377.366C300.486 377.437 300.498 377.491 300.505 377.528C300.509 377.546 300.512 377.56 300.514 377.57C300.515 377.574 300.516 377.578 300.516 377.58C300.516 377.582 300.517 377.583 300.517 377.583C300.517 377.584 300.517 377.584 300.517 377.584C300.517 377.584 300.517 377.584 299.868 377.718C299.219 377.852 299.219 377.852 299.219 377.852C299.219 377.852 299.219 377.852 299.219 377.851C299.218 377.851 299.218 377.85 299.218 377.849C299.218 377.847 299.217 377.844 299.216 377.84C299.214 377.831 299.212 377.818 299.208 377.8C299.201 377.765 299.189 377.713 299.175 377.643C299.145 377.504 299.1 377.298 299.04 377.028C298.92 376.488 298.739 375.696 298.496 374.69C298.011 372.679 297.279 369.815 296.293 366.406C294.321 359.585 291.336 350.598 287.282 341.908L287.883 341.628Z" fill="#082422" mask="url(#path-31-inside-1_15015_18827)"/>
<path d="M198.947 225.352C198.947 225.708 198.968 226.07 199.007 226.435L199.007 226.436C200.309 237.876 201.097 248.133 201.565 257.56C203.274 257.405 205.457 257.112 207.555 256.558C209.802 255.964 211.906 255.085 213.237 253.8C213.685 253.367 214.038 252.628 214.29 251.614C214.54 250.608 214.68 249.368 214.735 247.976C214.845 245.193 214.61 241.84 214.245 238.599C213.88 235.361 213.386 232.245 212.984 229.938C212.782 228.785 212.604 227.834 212.476 227.172C212.412 226.841 212.361 226.582 212.325 226.406C212.324 226.398 212.322 226.389 212.321 226.381L198.947 225.352Z" stroke="#082422" stroke-width="0.662811" stroke-miterlimit="10" stroke-linecap="round" stroke-linejoin="round"/>
<mask id="path-34-inside-2_15015_18827" fill="white">
<path d="M247.844 296.543C244.799 299.202 236.541 301.956 230.802 303.494C230.736 303.511 230.671 303.529 230.624 303.541"/>
</mask>
<path d="M247.408 296.044C247.683 295.803 248.102 295.831 248.343 296.107C248.584 296.383 248.555 296.801 248.28 297.042L247.844 296.543L247.408 296.044ZM230.796 304.182C230.442 304.276 230.079 304.066 229.984 303.713C229.889 303.359 230.099 302.996 230.453 302.901L230.624 303.541L230.796 304.182ZM247.844 296.543L248.28 297.042C246.66 298.457 243.733 299.845 240.571 301.058C237.381 302.281 233.858 303.361 230.973 304.134L230.802 303.494L230.63 302.854C233.484 302.089 236.96 301.023 240.096 299.82C243.258 298.607 245.983 297.288 247.408 296.044L247.844 296.543ZM230.802 303.494L230.973 304.134C230.973 304.134 230.973 304.134 230.973 304.134C230.973 304.134 230.973 304.134 230.972 304.134C230.972 304.134 230.972 304.134 230.972 304.134C230.972 304.134 230.972 304.134 230.972 304.134C230.972 304.134 230.971 304.134 230.971 304.134C230.971 304.135 230.971 304.135 230.971 304.135C230.971 304.135 230.971 304.135 230.971 304.135C230.97 304.135 230.97 304.135 230.97 304.135C230.97 304.135 230.97 304.135 230.97 304.135C230.97 304.135 230.97 304.135 230.969 304.135C230.969 304.135 230.969 304.135 230.969 304.135C230.969 304.135 230.969 304.135 230.969 304.135C230.968 304.135 230.968 304.135 230.968 304.135C230.968 304.135 230.968 304.135 230.968 304.135C230.968 304.135 230.968 304.135 230.967 304.135C230.967 304.136 230.967 304.136 230.967 304.136C230.967 304.136 230.967 304.136 230.967 304.136C230.967 304.136 230.966 304.136 230.966 304.136C230.966 304.136 230.966 304.136 230.966 304.136C230.966 304.136 230.966 304.136 230.966 304.136C230.965 304.136 230.965 304.136 230.965 304.136C230.965 304.136 230.965 304.136 230.965 304.136C230.965 304.136 230.965 304.136 230.964 304.136C230.964 304.136 230.964 304.136 230.964 304.136C230.964 304.136 230.964 304.136 230.964 304.137C230.963 304.137 230.963 304.137 230.963 304.137C230.963 304.137 230.963 304.137 230.963 304.137C230.963 304.137 230.963 304.137 230.962 304.137C230.962 304.137 230.962 304.137 230.962 304.137C230.962 304.137 230.962 304.137 230.962 304.137C230.962 304.137 230.961 304.137 230.961 304.137C230.961 304.137 230.961 304.137 230.961 304.137C230.961 304.137 230.961 304.137 230.961 304.137C230.96 304.137 230.96 304.137 230.96 304.137C230.96 304.137 230.96 304.138 230.96 304.138C230.96 304.138 230.96 304.138 230.959 304.138C230.959 304.138 230.959 304.138 230.959 304.138C230.959 304.138 230.959 304.138 230.959 304.138C230.959 304.138 230.958 304.138 230.958 304.138C230.958 304.138 230.958 304.138 230.958 304.138C230.958 304.138 230.958 304.138 230.957 304.138C230.957 304.138 230.957 304.138 230.957 304.138C230.957 304.138 230.957 304.138 230.957 304.138C230.957 304.138 230.956 304.138 230.956 304.138C230.956 304.139 230.956 304.139 230.956 304.139C230.956 304.139 230.956 304.139 230.956 304.139C230.955 304.139 230.955 304.139 230.955 304.139C230.955 304.139 230.955 304.139 230.955 304.139C230.955 304.139 230.955 304.139 230.954 304.139C230.954 304.139 230.954 304.139 230.954 304.139C230.954 304.139 230.954 304.139 230.954 304.139C230.954 304.139 230.953 304.139 230.953 304.139C230.953 304.139 230.953 304.139 230.953 304.139C230.953 304.139 230.953 304.139 230.953 304.139C230.952 304.14 230.952 304.14 230.952 304.14C230.952 304.14 230.952 304.14 230.952 304.14C230.952 304.14 230.952 304.14 230.951 304.14C230.951 304.14 230.951 304.14 230.951 304.14C230.951 304.14 230.951 304.14 230.951 304.14C230.95 304.14 230.95 304.14 230.95 304.14C230.95 304.14 230.95 304.14 230.95 304.14C230.95 304.14 230.95 304.14 230.949 304.14C230.949 304.14 230.949 304.14 230.949 304.14C230.949 304.14 230.949 304.14 230.949 304.141C230.949 304.141 230.948 304.141 230.948 304.141C230.948 304.141 230.948 304.141 230.948 304.141C230.948 304.141 230.948 304.141 230.948 304.141C230.947 304.141 230.947 304.141 230.947 304.141C230.947 304.141 230.947 304.141 230.947 304.141C230.947 304.141 230.947 304.141 230.946 304.141C230.946 304.141 230.946 304.141 230.946 304.141C230.946 304.141 230.946 304.141 230.946 304.141C230.946 304.141 230.945 304.141 230.945 304.141C230.945 304.141 230.945 304.142 230.945 304.142C230.945 304.142 230.945 304.142 230.945 304.142C230.944 304.142 230.944 304.142 230.944 304.142C230.944 304.142 230.944 304.142 230.944 304.142C230.944 304.142 230.943 304.142 230.943 304.142C230.943 304.142 230.943 304.142 230.943 304.142C230.943 304.142 230.943 304.142 230.943 304.142C230.942 304.142 230.942 304.142 230.942 304.142C230.942 304.142 230.942 304.142 230.942 304.142C230.942 304.142 230.942 304.142 230.941 304.142C230.941 304.142 230.941 304.143 230.941 304.143C230.941 304.143 230.941 304.143 230.941 304.143C230.941 304.143 230.94 304.143 230.94 304.143C230.94 304.143 230.94 304.143 230.94 304.143C230.94 304.143 230.94 304.143 230.94 304.143C230.939 304.143 230.939 304.143 230.939 304.143C230.939 304.143 230.939 304.143 230.939 304.143C230.939 304.143 230.939 304.143 230.938 304.143C230.938 304.143 230.938 304.143 230.938 304.143C230.938 304.143 230.938 304.143 230.938 304.143C230.938 304.144 230.937 304.144 230.937 304.144C230.937 304.144 230.937 304.144 230.937 304.144C230.937 304.144 230.937 304.144 230.937 304.144C230.936 304.144 230.936 304.144 230.936 304.144C230.936 304.144 230.936 304.144 230.936 304.144C230.936 304.144 230.936 304.144 230.935 304.144C230.935 304.144 230.935 304.144 230.935 304.144C230.935 304.144 230.935 304.144 230.935 304.144C230.935 304.144 230.934 304.144 230.934 304.144C230.934 304.144 230.934 304.144 230.934 304.144C230.934 304.145 230.934 304.145 230.933 304.145C230.933 304.145 230.933 304.145 230.933 304.145C230.933 304.145 230.933 304.145 230.933 304.145C230.933 304.145 230.932 304.145 230.932 304.145C230.932 304.145 230.932 304.145 230.932 304.145C230.932 304.145 230.932 304.145 230.932 304.145C230.931 304.145 230.931 304.145 230.931 304.145C230.931 304.145 230.931 304.145 230.931 304.145C230.931 304.145 230.931 304.145 230.93 304.145C230.93 304.145 230.93 304.145 230.93 304.146C230.93 304.146 230.93 304.146 230.93 304.146C230.93 304.146 230.929 304.146 230.929 304.146C230.929 304.146 230.929 304.146 230.929 304.146C230.929 304.146 230.929 304.146 230.929 304.146C230.928 304.146 230.928 304.146 230.928 304.146C230.928 304.146 230.928 304.146 230.928 304.146C230.928 304.146 230.928 304.146 230.927 304.146C230.927 304.146 230.927 304.146 230.927 304.146C230.927 304.146 230.927 304.146 230.927 304.146C230.927 304.146 230.926 304.146 230.926 304.147C230.926 304.147 230.926 304.147 230.926 304.147C230.926 304.147 230.926 304.147 230.926 304.147C230.925 304.147 230.925 304.147 230.925 304.147C230.925 304.147 230.925 304.147 230.925 304.147C230.925 304.147 230.925 304.147 230.924 304.147C230.924 304.147 230.924 304.147 230.924 304.147C230.924 304.147 230.924 304.147 230.924 304.147C230.924 304.147 230.923 304.147 230.923 304.147C230.923 304.147 230.923 304.147 230.923 304.147C230.923 304.147 230.923 304.147 230.923 304.148C230.922 304.148 230.922 304.148 230.922 304.148C230.922 304.148 230.922 304.148 230.922 304.148C230.922 304.148 230.922 304.148 230.921 304.148C230.921 304.148 230.921 304.148 230.921 304.148C230.921 304.148 230.921 304.148 230.921 304.148C230.921 304.148 230.92 304.148 230.92 304.148C230.92 304.148 230.92 304.148 230.92 304.148C230.92 304.148 230.92 304.148 230.92 304.148C230.919 304.148 230.919 304.148 230.919 304.148C230.919 304.148 230.919 304.149 230.919 304.149C230.919 304.149 230.919 304.149 230.918 304.149C230.918 304.149 230.918 304.149 230.918 304.149C230.918 304.149 230.918 304.149 230.918 304.149C230.918 304.149 230.917 304.149 230.917 304.149C230.917 304.149 230.917 304.149 230.917 304.149C230.917 304.149 230.917 304.149 230.917 304.149C230.916 304.149 230.916 304.149 230.916 304.149C230.916 304.149 230.916 304.149 230.916 304.149C230.916 304.149 230.916 304.149 230.915 304.149C230.915 304.149 230.915 304.15 230.915 304.15C230.915 304.15 230.915 304.15 230.915 304.15C230.915 304.15 230.914 304.15 230.914 304.15C230.914 304.15 230.914 304.15 230.914 304.15C230.914 304.15 230.914 304.15 230.914 304.15C230.913 304.15 230.913 304.15 230.913 304.15C230.913 304.15 230.913 304.15 230.913 304.15C230.913 304.15 230.913 304.15 230.912 304.15C230.912 304.15 230.912 304.15 230.912 304.15C230.912 304.15 230.912 304.15 230.912 304.15C230.912 304.15 230.911 304.151 230.911 304.151C230.911 304.151 230.911 304.151 230.911 304.151C230.911 304.151 230.911 304.151 230.911 304.151C230.91 304.151 230.91 304.151 230.91 304.151C230.91 304.151 230.91 304.151 230.91 304.151C230.91 304.151 230.91 304.151 230.909 304.151C230.909 304.151 230.909 304.151 230.909 304.151C230.909 304.151 230.909 304.151 230.909 304.151C230.909 304.151 230.908 304.151 230.908 304.151C230.908 304.151 230.908 304.151 230.908 304.151C230.908 304.151 230.908 304.151 230.908 304.152C230.907 304.152 230.907 304.152 230.907 304.152C230.907 304.152 230.907 304.152 230.907 304.152C230.907 304.152 230.907 304.152 230.907 304.152C230.906 304.152 230.906 304.152 230.906 304.152C230.906 304.152 230.906 304.152 230.906 304.152C230.906 304.152 230.906 304.152 230.905 304.152C230.905 304.152 230.905 304.152 230.905 304.152C230.905 304.152 230.905 304.152 230.905 304.152C230.905 304.152 230.904 304.152 230.904 304.152C230.904 304.152 230.904 304.152 230.904 304.153C230.904 304.153 230.904 304.153 230.904 304.153C230.903 304.153 230.903 304.153 230.903 304.153C230.903 304.153 230.903 304.153 230.903 304.153C230.903 304.153 230.903 304.153 230.902 304.153C230.902 304.153 230.902 304.153 230.902 304.153C230.902 304.153 230.902 304.153 230.902 304.153C230.902 304.153 230.901 304.153 230.901 304.153C230.901 304.153 230.901 304.153 230.901 304.153C230.901 304.153 230.901 304.153 230.901 304.153C230.9 304.153 230.9 304.153 230.9 304.154C230.9 304.154 230.9 304.154 230.9 304.154C230.9 304.154 230.9 304.154 230.899 304.154C230.899 304.154 230.899 304.154 230.899 304.154C230.899 304.154 230.899 304.154 230.899 304.154C230.899 304.154 230.899 304.154 230.898 304.154C230.898 304.154 230.898 304.154 230.898 304.154C230.898 304.154 230.898 304.154 230.898 304.154C230.898 304.154 230.897 304.154 230.897 304.154C230.897 304.154 230.897 304.154 230.897 304.154C230.897 304.154 230.897 304.154 230.897 304.154C230.896 304.155 230.896 304.155 230.896 304.155C230.896 304.155 230.896 304.155 230.896 304.155C230.896 304.155 230.896 304.155 230.895 304.155C230.895 304.155 230.895 304.155 230.895 304.155C230.895 304.155 230.895 304.155 230.895 304.155C230.895 304.155 230.894 304.155 230.894 304.155C230.894 304.155 230.894 304.155 230.894 304.155C230.894 304.155 230.894 304.155 230.894 304.155C230.894 304.155 230.893 304.155 230.893 304.155C230.893 304.155 230.893 304.155 230.893 304.155C230.893 304.156 230.893 304.156 230.893 304.156C230.892 304.156 230.892 304.156 230.892 304.156C230.892 304.156 230.892 304.156 230.892 304.156C230.892 304.156 230.892 304.156 230.891 304.156C230.891 304.156 230.891 304.156 230.891 304.156C230.891 304.156 230.891 304.156 230.891 304.156C230.891 304.156 230.89 304.156 230.89 304.156C230.89 304.156 230.89 304.156 230.89 304.156C230.89 304.156 230.89 304.156 230.89 304.156C230.89 304.156 230.889 304.156 230.889 304.156C230.889 304.156 230.889 304.157 230.889 304.157C230.889 304.157 230.889 304.157 230.889 304.157C230.888 304.157 230.888 304.157 230.888 304.157C230.888 304.157 230.888 304.157 230.888 304.157C230.888 304.157 230.888 304.157 230.887 304.157C230.887 304.157 230.887 304.157 230.887 304.157C230.887 304.157 230.887 304.157 230.887 304.157C230.887 304.157 230.887 304.157 230.886 304.157C230.886 304.157 230.886 304.157 230.886 304.157C230.886 304.157 230.886 304.157 230.886 304.157C230.886 304.157 230.885 304.157 230.885 304.158C230.885 304.158 230.885 304.158 230.885 304.158C230.885 304.158 230.885 304.158 230.885 304.158C230.884 304.158 230.884 304.158 230.884 304.158C230.884 304.158 230.884 304.158 230.884 304.158C230.884 304.158 230.884 304.158 230.884 304.158C230.883 304.158 230.883 304.158 230.883 304.158C230.883 304.158 230.883 304.158 230.883 304.158C230.883 304.158 230.883 304.158 230.882 304.158C230.882 304.158 230.882 304.158 230.882 304.158C230.882 304.158 230.882 304.158 230.882 304.158C230.882 304.159 230.881 304.159 230.881 304.159C230.881 304.159 230.881 304.159 230.881 304.159C230.881 304.159 230.881 304.159 230.881 304.159C230.881 304.159 230.88 304.159 230.88 304.159C230.88 304.159 230.88 304.159 230.88 304.159C230.88 304.159 230.88 304.159 230.88 304.159C230.879 304.159 230.879 304.159 230.879 304.159C230.879 304.159 230.879 304.159 230.879 304.159C230.879 304.159 230.879 304.159 230.878 304.159C230.878 304.159 230.878 304.159 230.878 304.159C230.878 304.159 230.878 304.159 230.878 304.16C230.878 304.16 230.878 304.16 230.877 304.16C230.877 304.16 230.877 304.16 230.877 304.16C230.877 304.16 230.877 304.16 230.877 304.16C230.877 304.16 230.876 304.16 230.876 304.16C230.876 304.16 230.876 304.16 230.876 304.16C230.876 304.16 230.876 304.16 230.876 304.16C230.876 304.16 230.875 304.16 230.875 304.16C230.875 304.16 230.875 304.16 230.875 304.16C230.875 304.16 230.875 304.16 230.875 304.16C230.874 304.16 230.874 304.16 230.874 304.16C230.874 304.161 230.874 304.161 230.874 304.161C230.874 304.161 230.874 304.161 230.874 304.161C230.873 304.161 230.873 304.161 230.873 304.161C230.873 304.161 230.873 304.161 230.873 304.161C230.873 304.161 230.873 304.161 230.872 304.161C230.872 304.161 230.872 304.161 230.872 304.161C230.872 304.161 230.872 304.161 230.872 304.161C230.872 304.161 230.872 304.161 230.871 304.161C230.871 304.161 230.871 304.161 230.871 304.161C230.871 304.161 230.871 304.161 230.871 304.161C230.871 304.161 230.87 304.161 230.87 304.162C230.87 304.162 230.87 304.162 230.87 304.162C230.87 304.162 230.87 304.162 230.87 304.162C230.87 304.162 230.869 304.162 230.869 304.162C230.869 304.162 230.869 304.162 230.869 304.162C230.869 304.162 230.869 304.162 230.869 304.162C230.868 304.162 230.868 304.162 230.868 304.162C230.868 304.162 230.868 304.162 230.868 304.162C230.868 304.162 230.868 304.162 230.868 304.162C230.867 304.162 230.867 304.162 230.867 304.162C230.867 304.162 230.867 304.162 230.867 304.162C230.867 304.162 230.867 304.163 230.867 304.163C230.866 304.163 230.866 304.163 230.866 304.163C230.866 304.163 230.866 304.163 230.866 304.163C230.866 304.163 230.866 304.163 230.865 304.163C230.865 304.163 230.865 304.163 230.865 304.163C230.865 304.163 230.865 304.163 230.865 304.163C230.865 304.163 230.865 304.163 230.864 304.163C230.864 304.163 230.864 304.163 230.864 304.163C230.864 304.163 230.864 304.163 230.864 304.163C230.864 304.163 230.863 304.163 230.863 304.163C230.863 304.163 230.863 304.163 230.863 304.163C230.863 304.164 230.863 304.164 230.863 304.164C230.863 304.164 230.862 304.164 230.862 304.164C230.862 304.164 230.862 304.164 230.862 304.164C230.862 304.164 230.862 304.164 230.862 304.164C230.862 304.164 230.861 304.164 230.861 304.164C230.861 304.164 230.861 304.164 230.861 304.164C230.861 304.164 230.861 304.164 230.861 304.164C230.86 304.164 230.86 304.164 230.86 304.164C230.86 304.164 230.86 304.164 230.86 304.164C230.86 304.164 230.86 304.164 230.86 304.164C230.859 304.164 230.859 304.164 230.859 304.164C230.859 304.165 230.859 304.165 230.859 304.165C230.859 304.165 230.859 304.165 230.859 304.165C230.858 304.165 230.858 304.165 230.858 304.165C230.858 304.165 230.858 304.165 230.858 304.165C230.858 304.165 230.858 304.165 230.858 304.165C230.857 304.165 230.857 304.165 230.857 304.165C230.857 304.165 230.857 304.165 230.857 304.165C230.857 304.165 230.857 304.165 230.856 304.165C230.856 304.165 230.856 304.165 230.856 304.165C230.856 304.165 230.856 304.165 230.856 304.165C230.856 304.165 230.856 304.165 230.855 304.166C230.855 304.166 230.855 304.166 230.855 304.166C230.855 304.166 230.855 304.166 230.855 304.166C230.855 304.166 230.855 304.166 230.854 304.166C230.854 304.166 230.854 304.166 230.854 304.166C230.854 304.166 230.854 304.166 230.854 304.166C230.854 304.166 230.854 304.166 230.853 304.166C230.853 304.166 230.853 304.166 230.853 304.166C230.853 304.166 230.853 304.166 230.853 304.166C230.853 304.166 230.853 304.166 230.852 304.166C230.852 304.166 230.852 304.166 230.852 304.166C230.852 304.166 230.852 304.166 230.852 304.167C230.852 304.167 230.852 304.167 230.851 304.167C230.851 304.167 230.851 304.167 230.851 304.167C230.851 304.167 230.851 304.167 230.851 304.167C230.851 304.167 230.85 304.167 230.85 304.167C230.85 304.167 230.85 304.167 230.85 304.167C230.85 304.167 230.85 304.167 230.85 304.167C230.85 304.167 230.849 304.167 230.849 304.167C230.849 304.167 230.849 304.167 230.849 304.167C230.849 304.167 230.849 304.167 230.849 304.167C230.849 304.167 230.848 304.167 230.848 304.167C230.848 304.167 230.848 304.167 230.848 304.167C230.848 304.168 230.848 304.168 230.848 304.168C230.848 304.168 230.847 304.168 230.847 304.168C230.847 304.168 230.847 304.168 230.847 304.168C230.847 304.168 230.847 304.168 230.847 304.168C230.847 304.168 230.846 304.168 230.846 304.168C230.846 304.168 230.846 304.168 230.846 304.168C230.846 304.168 230.846 304.168 230.846 304.168C230.846 304.168 230.845 304.168 230.845 304.168C230.845 304.168 230.845 304.168 230.845 304.168C230.845 304.168 230.845 304.168 230.845 304.168C230.845 304.168 230.844 304.168 230.844 304.168C230.844 304.169 230.844 304.169 230.844 304.169C230.844 304.169 230.844 304.169 230.844 304.169C230.844 304.169 230.843 304.169 230.843 304.169C230.843 304.169 230.843 304.169 230.843 304.169C230.843 304.169 230.843 304.169 230.843 304.169C230.843 304.169 230.842 304.169 230.842 304.169C230.842 304.169 230.842 304.169 230.842 304.169C230.842 304.169 230.842 304.169 230.842 304.169C230.842 304.169 230.842 304.169 230.841 304.169C230.841 304.169 230.841 304.169 230.841 304.169C230.841 304.169 230.841 304.169 230.841 304.169C230.841 304.169 230.841 304.17 230.84 304.17C230.84 304.17 230.84 304.17 230.84 304.17C230.84 304.17 230.84 304.17 230.84 304.17C230.84 304.17 230.84 304.17 230.839 304.17C230.839 304.17 230.839 304.17 230.839 304.17C230.839 304.17 230.839 304.17 230.839 304.17C230.839 304.17 230.839 304.17 230.838 304.17C230.838 304.17 230.838 304.17 230.838 304.17C230.838 304.17 230.838 304.17 230.838 304.17C230.838 304.17 230.838 304.17 230.837 304.17C230.837 304.17 230.837 304.17 230.837 304.17C230.837 304.17 230.837 304.17 230.837 304.171C230.837 304.171 230.837 304.171 230.837 304.171C230.836 304.171 230.836 304.171 230.836 304.171C230.836 304.171 230.836 304.171 230.836 304.171C230.836 304.171 230.836 304.171 230.836 304.171C230.835 304.171 230.835 304.171 230.835 304.171C230.835 304.171 230.835 304.171 230.835 304.171C230.835 304.171 230.835 304.171 230.835 304.171C230.834 304.171 230.834 304.171 230.834 304.171C230.834 304.171 230.834 304.171 230.834 304.171C230.834 304.171 230.834 304.171 230.834 304.171C230.833 304.171 230.833 304.171 230.833 304.171C230.833 304.171 230.833 304.172 230.833 304.172C230.833 304.172 230.833 304.172 230.833 304.172C230.833 304.172 230.832 304.172 230.832 304.172C230.832 304.172 230.832 304.172 230.832 304.172C230.832 304.172 230.832 304.172 230.832 304.172C230.832 304.172 230.831 304.172 230.831 304.172C230.831 304.172 230.831 304.172 230.831 304.172C230.831 304.172 230.831 304.172 230.831 304.172C230.831 304.172 230.831 304.172 230.83 304.172C230.83 304.172 230.83 304.172 230.83 304.172C230.83 304.172 230.83 304.172 230.83 304.172C230.83 304.172 230.83 304.172 230.829 304.172C230.829 304.173 230.829 304.173 230.829 304.173C230.829 304.173 230.829 304.173 230.829 304.173C230.829 304.173 230.829 304.173 230.829 304.173C230.828 304.173 230.828 304.173 230.828 304.173C230.828 304.173 230.828 304.173 230.828 304.173C230.828 304.173 230.828 304.173 230.828 304.173C230.827 304.173 230.827 304.173 230.827 304.173C230.827 304.173 230.827 304.173 230.827 304.173C230.827 304.173 230.827 304.173 230.827 304.173C230.827 304.173 230.826 304.173 230.826 304.173C230.826 304.173 230.826 304.173 230.826 304.173C230.826 304.173 230.826 304.173 230.826 304.173C230.826 304.174 230.825 304.174 230.825 304.174C230.825 304.174 230.825 304.174 230.825 304.174C230.825 304.174 230.825 304.174 230.825 304.174C230.825 304.174 230.825 304.174 230.824 304.174C230.824 304.174 230.824 304.174 230.824 304.174C230.824 304.174 230.824 304.174 230.824 304.174C230.824 304.174 230.824 304.174 230.823 304.174C230.823 304.174 230.823 304.174 230.823 304.174C230.823 304.174 230.823 304.174 230.823 304.174C230.823 304.174 230.823 304.174 230.823 304.174C230.822 304.174 230.822 304.174 230.822 304.174C230.822 304.174 230.822 304.174 230.822 304.174C230.822 304.175 230.822 304.175 230.822 304.175C230.822 304.175 230.821 304.175 230.821 304.175C230.821 304.175 230.821 304.175 230.821 304.175C230.821 304.175 230.821 304.175 230.821 304.175C230.821 304.175 230.82 304.175 230.82 304.175C230.82 304.175 230.82 304.175 230.82 304.175C230.82 304.175 230.82 304.175 230.82 304.175C230.82 304.175 230.82 304.175 230.819 304.175C230.819 304.175 230.819 304.175 230.819 304.175C230.819 304.175 230.819 304.175 230.819 304.175C230.819 304.175 230.819 304.175 230.819 304.175C230.818 304.175 230.818 304.175 230.818 304.175C230.818 304.176 230.818 304.176 230.818 304.176C230.818 304.176 230.818 304.176 230.818 304.176C230.818 304.176 230.817 304.176 230.817 304.176C230.817 304.176 230.817 304.176 230.817 304.176C230.817 304.176 230.817 304.176 230.817 304.176C230.817 304.176 230.817 304.176 230.816 304.176C230.816 304.176 230.816 304.176 230.816 304.176C230.816 304.176 230.816 304.176 230.816 304.176C230.816 304.176 230.816 304.176 230.816 304.176C230.815 304.176 230.815 304.176 230.815 304.176C230.815 304.176 230.815 304.176 230.815 304.176C230.815 304.176 230.815 304.176 230.815 304.176C230.815 304.176 230.814 304.177 230.814 304.177C230.814 304.177 230.814 304.177 230.814 304.177C230.814 304.177 230.814 304.177 230.814 304.177C230.814 304.177 230.814 304.177 230.813 304.177C230.813 304.177 230.813 304.177 230.813 304.177C230.813 304.177 230.813 304.177 230.813 304.177C230.813 304.177 230.813 304.177 230.813 304.177C230.812 304.177 230.812 304.177 230.812 304.177C230.812 304.177 230.812 304.177 230.812 304.177C230.812 304.177 230.812 304.177 230.812 304.177C230.812 304.177 230.811 304.177 230.811 304.177C230.811 304.177 230.811 304.177 230.811 304.177C230.811 304.177 230.811 304.177 230.811 304.177C230.811 304.178 230.811 304.178 230.81 304.178C230.81 304.178 230.81 304.178 230.81 304.178C230.81 304.178 230.81 304.178 230.81 304.178C230.81 304.178 230.81 304.178 230.81 304.178C230.809 304.178 230.809 304.178 230.809 304.178C230.809 304.178 230.809 304.178 230.809 304.178C230.809 304.178 230.809 304.178 230.809 304.178C230.809 304.178 230.809 304.178 230.808 304.178C230.808 304.178 230.808 304.178 230.808 304.178C230.808 304.178 230.808 304.178 230.808 304.178C230.808 304.178 230.808 304.178 230.808 304.178C230.807 304.178 230.807 304.178 230.807 304.178C230.807 304.178 230.807 304.178 230.807 304.179C230.807 304.179 230.807 304.179 230.807 304.179C230.807 304.179 230.806 304.179 230.806 304.179C230.806 304.179 230.806 304.179 230.806 304.179C230.806 304.179 230.806 304.179 230.806 304.179C230.806 304.179 230.806 304.179 230.806 304.179C230.805 304.179 230.805 304.179 230.805 304.179C230.805 304.179 230.805 304.179 230.805 304.179C230.805 304.179 230.805 304.179 230.805 304.179C230.805 304.179 230.804 304.179 230.804 304.179C230.804 304.179 230.804 304.179 230.804 304.179C230.804 304.179 230.804 304.179 230.804 304.179C230.804 304.179 230.804 304.179 230.803 304.179C230.803 304.179 230.803 304.179 230.803 304.18C230.803 304.18 230.803 304.18 230.803 304.18C230.803 304.18 230.803 304.18 230.803 304.18C230.803 304.18 230.802 304.18 230.802 304.18C230.802 304.18 230.802 304.18 230.802 304.18C230.802 304.18 230.802 304.18 230.802 304.18C230.802 304.18 230.802 304.18 230.802 304.18C230.801 304.18 230.801 304.18 230.801 304.18C230.801 304.18 230.801 304.18 230.801 304.18C230.801 304.18 230.801 304.18 230.801 304.18C230.801 304.18 230.8 304.18 230.8 304.18C230.8 304.18 230.8 304.18 230.8 304.18C230.8 304.18 230.8 304.18 230.8 304.18C230.8 304.18 230.8 304.18 230.8 304.18C230.799 304.181 230.799 304.181 230.799 304.181C230.799 304.181 230.799 304.181 230.799 304.181C230.799 304.181 230.799 304.181 230.799 304.181C230.799 304.181 230.799 304.181 230.798 304.181C230.798 304.181 230.798 304.181 230.798 304.181C230.798 304.181 230.798 304.181 230.798 304.181C230.798 304.181 230.798 304.181 230.798 304.181C230.797 304.181 230.797 304.181 230.797 304.181C230.797 304.181 230.797 304.181 230.797 304.181C230.797 304.181 230.797 304.181 230.797 304.181C230.797 304.181 230.797 304.181 230.796 304.181C230.796 304.181 230.796 304.181 230.796 304.181C230.796 304.181 230.796 304.181 230.796 304.181C230.796 304.181 230.796 304.182 230.796 304.182L230.624 303.541L230.453 302.901C230.453 302.901 230.453 302.901 230.453 302.901C230.453 302.901 230.453 302.901 230.453 302.901C230.453 302.901 230.453 302.901 230.453 302.901C230.453 302.901 230.454 302.901 230.454 302.901C230.454 302.901 230.454 302.901 230.454 302.901C230.454 302.901 230.454 302.901 230.454 302.901C230.454 302.901 230.454 302.901 230.454 302.901C230.455 302.901 230.455 302.901 230.455 302.9C230.455 302.9 230.455 302.9 230.455 302.9C230.455 302.9 230.455 302.9 230.455 302.9C230.455 302.9 230.456 302.9 230.456 302.9C230.456 302.9 230.456 302.9 230.456 302.9C230.456 302.9 230.456 302.9 230.456 302.9C230.456 302.9 230.456 302.9 230.456 302.9C230.457 302.9 230.457 302.9 230.457 302.9C230.457 302.9 230.457 302.9 230.457 302.9C230.457 302.9 230.457 302.9 230.457 302.9C230.457 302.9 230.457 302.9 230.458 302.9C230.458 302.9 230.458 302.9 230.458 302.9C230.458 302.9 230.458 302.9 230.458 302.9C230.458 302.9 230.458 302.9 230.458 302.9C230.459 302.899 230.459 302.899 230.459 302.899C230.459 302.899 230.459 302.899 230.459 302.899C230.459 302.899 230.459 302.899 230.459 302.899C230.459 302.899 230.459 302.899 230.46 302.899C230.46 302.899 230.46 302.899 230.46 302.899C230.46 302.899 230.46 302.899 230.46 302.899C230.46 302.899 230.46 302.899 230.46 302.899C230.46 302.899 230.461 302.899 230.461 302.899C230.461 302.899 230.461 302.899 230.461 302.899C230.461 302.899 230.461 302.899 230.461 302.899C230.461 302.899 230.461 302.899 230.462 302.899C230.462 302.899 230.462 302.899 230.462 302.899C230.462 302.899 230.462 302.899 230.462 302.899C230.462 302.898 230.462 302.898 230.462 302.898C230.463 302.898 230.463 302.898 230.463 302.898C230.463 302.898 230.463 302.898 230.463 302.898C230.463 302.898 230.463 302.898 230.463 302.898C230.463 302.898 230.463 302.898 230.464 302.898C230.464 302.898 230.464 302.898 230.464 302.898C230.464 302.898 230.464 302.898 230.464 302.898C230.464 302.898 230.464 302.898 230.464 302.898C230.465 302.898 230.465 302.898 230.465 302.898C230.465 302.898 230.465 302.898 230.465 302.898C230.465 302.898 230.465 302.898 230.465 302.898C230.465 302.898 230.466 302.898 230.466 302.898C230.466 302.898 230.466 302.898 230.466 302.898C230.466 302.897 230.466 302.897 230.466 302.897C230.466 302.897 230.466 302.897 230.466 302.897C230.467 302.897 230.467 302.897 230.467 302.897C230.467 302.897 230.467 302.897 230.467 302.897C230.467 302.897 230.467 302.897 230.467 302.897C230.467 302.897 230.468 302.897 230.468 302.897C230.468 302.897 230.468 302.897 230.468 302.897C230.468 302.897 230.468 302.897 230.468 302.897C230.468 302.897 230.468 302.897 230.469 302.897C230.469 302.897 230.469 302.897 230.469 302.897C230.469 302.897 230.469 302.897 230.469 302.897C230.469 302.897 230.469 302.897 230.469 302.897C230.47 302.897 230.47 302.897 230.47 302.896C230.47 302.896 230.47 302.896 230.47 302.896C230.47 302.896 230.47 302.896 230.47 302.896C230.47 302.896 230.471 302.896 230.471 302.896C230.471 302.896 230.471 302.896 230.471 302.896C230.471 302.896 230.471 302.896 230.471 302.896C230.471 302.896 230.471 302.896 230.472 302.896C230.472 302.896 230.472 302.896 230.472 302.896C230.472 302.896 230.472 302.896 230.472 302.896C230.472 302.896 230.472 302.896 230.472 302.896C230.473 302.896 230.473 302.896 230.473 302.896C230.473 302.896 230.473 302.896 230.473 302.896C230.473 302.896 230.473 302.896 230.473 302.896C230.473 302.895 230.474 302.895 230.474 302.895C230.474 302.895 230.474 302.895 230.474 302.895C230.474 302.895 230.474 302.895 230.474 302.895C230.474 302.895 230.474 302.895 230.475 302.895C230.475 302.895 230.475 302.895 230.475 302.895C230.475 302.895 230.475 302.895 230.475 302.895C230.475 302.895 230.475 302.895 230.475 302.895C230.476 302.895 230.476 302.895 230.476 302.895C230.476 302.895 230.476 302.895 230.476 302.895C230.476 302.895 230.476 302.895 230.476 302.895C230.476 302.895 230.477 302.895 230.477 302.895C230.477 302.895 230.477 302.895 230.477 302.895C230.477 302.895 230.477 302.894 230.477 302.894C230.477 302.894 230.478 302.894 230.478 302.894C230.478 302.894 230.478 302.894 230.478 302.894C230.478 302.894 230.478 302.894 230.478 302.894C230.478 302.894 230.478 302.894 230.479 302.894C230.479 302.894 230.479 302.894 230.479 302.894C230.479 302.894 230.479 302.894 230.479 302.894C230.479 302.894 230.479 302.894 230.479 302.894C230.48 302.894 230.48 302.894 230.48 302.894C230.48 302.894 230.48 302.894 230.48 302.894C230.48 302.894 230.48 302.894 230.48 302.894C230.48 302.894 230.481 302.894 230.481 302.894C230.481 302.894 230.481 302.893 230.481 302.893C230.481 302.893 230.481 302.893 230.481 302.893C230.481 302.893 230.482 302.893 230.482 302.893C230.482 302.893 230.482 302.893 230.482 302.893C230.482 302.893 230.482 302.893 230.482 302.893C230.482 302.893 230.482 302.893 230.483 302.893C230.483 302.893 230.483 302.893 230.483 302.893C230.483 302.893 230.483 302.893 230.483 302.893C230.483 302.893 230.483 302.893 230.484 302.893C230.484 302.893 230.484 302.893 230.484 302.893C230.484 302.893 230.484 302.893 230.484 302.893C230.484 302.893 230.484 302.893 230.484 302.893C230.485 302.893 230.485 302.892 230.485 302.892C230.485 302.892 230.485 302.892 230.485 302.892C230.485 302.892 230.485 302.892 230.485 302.892C230.486 302.892 230.486 302.892 230.486 302.892C230.486 302.892 230.486 302.892 230.486 302.892C230.486 302.892 230.486 302.892 230.486 302.892C230.486 302.892 230.487 302.892 230.487 302.892C230.487 302.892 230.487 302.892 230.487 302.892C230.487 302.892 230.487 302.892 230.487 302.892C230.487 302.892 230.488 302.892 230.488 302.892C230.488 302.892 230.488 302.892 230.488 302.892C230.488 302.892 230.488 302.892 230.488 302.892C230.488 302.891 230.488 302.891 230.489 302.891C230.489 302.891 230.489 302.891 230.489 302.891C230.489 302.891 230.489 302.891 230.489 302.891C230.489 302.891 230.489 302.891 230.49 302.891C230.49 302.891 230.49 302.891 230.49 302.891C230.49 302.891 230.49 302.891 230.49 302.891C230.49 302.891 230.49 302.891 230.491 302.891C230.491 302.891 230.491 302.891 230.491 302.891C230.491 302.891 230.491 302.891 230.491 302.891C230.491 302.891 230.491 302.891 230.491 302.891C230.492 302.891 230.492 302.891 230.492 302.891C230.492 302.891 230.492 302.891 230.492 302.89C230.492 302.89 230.492 302.89 230.492 302.89C230.493 302.89 230.493 302.89 230.493 302.89C230.493 302.89 230.493 302.89 230.493 302.89C230.493 302.89 230.493 302.89 230.493 302.89C230.494 302.89 230.494 302.89 230.494 302.89C230.494 302.89 230.494 302.89 230.494 302.89C230.494 302.89 230.494 302.89 230.494 302.89C230.494 302.89 230.495 302.89 230.495 302.89C230.495 302.89 230.495 302.89 230.495 302.89C230.495 302.89 230.495 302.89 230.495 302.89C230.495 302.89 230.496 302.89 230.496 302.89C230.496 302.889 230.496 302.889 230.496 302.889C230.496 302.889 230.496 302.889 230.496 302.889C230.496 302.889 230.497 302.889 230.497 302.889C230.497 302.889 230.497 302.889 230.497 302.889C230.497 302.889 230.497 302.889 230.497 302.889C230.497 302.889 230.498 302.889 230.498 302.889C230.498 302.889 230.498 302.889 230.498 302.889C230.498 302.889 230.498 302.889 230.498 302.889C230.498 302.889 230.499 302.889 230.499 302.889C230.499 302.889 230.499 302.889 230.499 302.889C230.499 302.889 230.499 302.889 230.499 302.889C230.499 302.889 230.5 302.888 230.5 302.888C230.5 302.888 230.5 302.888 230.5 302.888C230.5 302.888 230.5 302.888 230.5 302.888C230.5 302.888 230.501 302.888 230.501 302.888C230.501 302.888 230.501 302.888 230.501 302.888C230.501 302.888 230.501 302.888 230.501 302.888C230.501 302.888 230.501 302.888 230.502 302.888C230.502 302.888 230.502 302.888 230.502 302.888C230.502 302.888 230.502 302.888 230.502 302.888C230.502 302.888 230.502 302.888 230.503 302.888C230.503 302.888 230.503 302.888 230.503 302.888C230.503 302.888 230.503 302.888 230.503 302.887C230.503 302.887 230.503 302.887 230.504 302.887C230.504 302.887 230.504 302.887 230.504 302.887C230.504 302.887 230.504 302.887 230.504 302.887C230.504 302.887 230.504 302.887 230.505 302.887C230.505 302.887 230.505 302.887 230.505 302.887C230.505 302.887 230.505 302.887 230.505 302.887C230.505 302.887 230.505 302.887 230.506 302.887C230.506 302.887 230.506 302.887 230.506 302.887C230.506 302.887 230.506 302.887 230.506 302.887C230.506 302.887 230.507 302.887 230.507 302.887C230.507 302.887 230.507 302.887 230.507 302.887C230.507 302.886 230.507 302.886 230.507 302.886C230.507 302.886 230.508 302.886 230.508 302.886C230.508 302.886 230.508 302.886 230.508 302.886C230.508 302.886 230.508 302.886 230.508 302.886C230.508 302.886 230.509 302.886 230.509 302.886C230.509 302.886 230.509 302.886 230.509 302.886C230.509 302.886 230.509 302.886 230.509 302.886C230.509 302.886 230.51 302.886 230.51 302.886C230.51 302.886 230.51 302.886 230.51 302.886C230.51 302.886 230.51 302.886 230.51 302.886C230.51 302.886 230.511 302.886 230.511 302.886C230.511 302.885 230.511 302.885 230.511 302.885C230.511 302.885 230.511 302.885 230.511 302.885C230.511 302.885 230.512 302.885 230.512 302.885C230.512 302.885 230.512 302.885 230.512 302.885C230.512 302.885 230.512 302.885 230.512 302.885C230.512 302.885 230.513 302.885 230.513 302.885C230.513 302.885 230.513 302.885 230.513 302.885C230.513 302.885 230.513 302.885 230.513 302.885C230.514 302.885 230.514 302.885 230.514 302.885C230.514 302.885 230.514 302.885 230.514 302.885C230.514 302.885 230.514 302.885 230.514 302.885C230.515 302.884 230.515 302.884 230.515 302.884C230.515 302.884 230.515 302.884 230.515 302.884C230.515 302.884 230.515 302.884 230.515 302.884C230.516 302.884 230.516 302.884 230.516 302.884C230.516 302.884 230.516 302.884 230.516 302.884C230.516 302.884 230.516 302.884 230.516 302.884C230.517 302.884 230.517 302.884 230.517 302.884C230.517 302.884 230.517 302.884 230.517 302.884C230.517 302.884 230.517 302.884 230.518 302.884C230.518 302.884 230.518 302.884 230.518 302.884C230.518 302.884 230.518 302.884 230.518 302.883C230.518 302.883 230.518 302.883 230.519 302.883C230.519 302.883 230.519 302.883 230.519 302.883C230.519 302.883 230.519 302.883 230.519 302.883C230.519 302.883 230.519 302.883 230.52 302.883C230.52 302.883 230.52 302.883 230.52 302.883C230.52 302.883 230.52 302.883 230.52 302.883C230.52 302.883 230.521 302.883 230.521 302.883C230.521 302.883 230.521 302.883 230.521 302.883C230.521 302.883 230.521 302.883 230.521 302.883C230.521 302.883 230.522 302.883 230.522 302.883C230.522 302.883 230.522 302.883 230.522 302.882C230.522 302.882 230.522 302.882 230.522 302.882C230.522 302.882 230.523 302.882 230.523 302.882C230.523 302.882 230.523 302.882 230.523 302.882C230.523 302.882 230.523 302.882 230.523 302.882C230.524 302.882 230.524 302.882 230.524 302.882C230.524 302.882 230.524 302.882 230.524 302.882C230.524 302.882 230.524 302.882 230.524 302.882C230.525 302.882 230.525 302.882 230.525 302.882C230.525 302.882 230.525 302.882 230.525 302.882C230.525 302.882 230.525 302.882 230.526 302.882C230.526 302.882 230.526 302.881 230.526 302.881C230.526 302.881 230.526 302.881 230.526 302.881C230.526 302.881 230.526 302.881 230.527 302.881C230.527 302.881 230.527 302.881 230.527 302.881C230.527 302.881 230.527 302.881 230.527 302.881C230.527 302.881 230.527 302.881 230.528 302.881C230.528 302.881 230.528 302.881 230.528 302.881C230.528 302.881 230.528 302.881 230.528 302.881C230.528 302.881 230.529 302.881 230.529 302.881C230.529 302.881 230.529 302.881 230.529 302.881C230.529 302.881 230.529 302.881 230.529 302.88C230.529 302.88 230.53 302.88 230.53 302.88C230.53 302.88 230.53 302.88 230.53 302.88C230.53 302.88 230.53 302.88 230.53 302.88C230.531 302.88 230.531 302.88 230.531 302.88C230.531 302.88 230.531 302.88 230.531 302.88C230.531 302.88 230.531 302.88 230.531 302.88C230.532 302.88 230.532 302.88 230.532 302.88C230.532 302.88 230.532 302.88 230.532 302.88C230.532 302.88 230.532 302.88 230.533 302.88C230.533 302.88 230.533 302.88 230.533 302.88C230.533 302.88 230.533 302.879 230.533 302.879C230.533 302.879 230.533 302.879 230.534 302.879C230.534 302.879 230.534 302.879 230.534 302.879C230.534 302.879 230.534 302.879 230.534 302.879C230.534 302.879 230.535 302.879 230.535 302.879C230.535 302.879 230.535 302.879 230.535 302.879C230.535 302.879 230.535 302.879 230.535 302.879C230.536 302.879 230.536 302.879 230.536 302.879C230.536 302.879 230.536 302.879 230.536 302.879C230.536 302.879 230.536 302.879 230.536 302.879C230.537 302.879 230.537 302.879 230.537 302.879C230.537 302.878 230.537 302.878 230.537 302.878C230.537 302.878 230.537 302.878 230.538 302.878C230.538 302.878 230.538 302.878 230.538 302.878C230.538 302.878 230.538 302.878 230.538 302.878C230.538 302.878 230.538 302.878 230.539 302.878C230.539 302.878 230.539 302.878 230.539 302.878C230.539 302.878 230.539 302.878 230.539 302.878C230.539 302.878 230.54 302.878 230.54 302.878C230.54 302.878 230.54 302.878 230.54 302.878C230.54 302.878 230.54 302.878 230.54 302.878C230.541 302.878 230.541 302.877 230.541 302.877C230.541 302.877 230.541 302.877 230.541 302.877C230.541 302.877 230.541 302.877 230.541 302.877C230.542 302.877 230.542 302.877 230.542 302.877C230.542 302.877 230.542 302.877 230.542 302.877C230.542 302.877 230.542 302.877 230.543 302.877C230.543 302.877 230.543 302.877 230.543 302.877C230.543 302.877 230.543 302.877 230.543 302.877C230.543 302.877 230.544 302.877 230.544 302.877C230.544 302.877 230.544 302.877 230.544 302.877C230.544 302.877 230.544 302.877 230.544 302.876C230.544 302.876 230.545 302.876 230.545 302.876C230.545 302.876 230.545 302.876 230.545 302.876C230.545 302.876 230.545 302.876 230.545 302.876C230.546 302.876 230.546 302.876 230.546 302.876C230.546 302.876 230.546 302.876 230.546 302.876C230.546 302.876 230.546 302.876 230.547 302.876C230.547 302.876 230.547 302.876 230.547 302.876C230.547 302.876 230.547 302.876 230.547 302.876C230.547 302.876 230.548 302.876 230.548 302.876C230.548 302.876 230.548 302.876 230.548 302.876C230.548 302.875 230.548 302.875 230.548 302.875C230.548 302.875 230.549 302.875 230.549 302.875C230.549 302.875 230.549 302.875 230.549 302.875C230.549 302.875 230.549 302.875 230.549 302.875C230.55 302.875 230.55 302.875 230.55 302.875C230.55 302.875 230.55 302.875 230.55 302.875C230.55 302.875 230.55 302.875 230.551 302.875C230.551 302.875 230.551 302.875 230.551 302.875C230.551 302.875 230.551 302.875 230.551 302.875C230.551 302.875 230.552 302.875 230.552 302.875C230.552 302.874 230.552 302.874 230.552 302.874C230.552 302.874 230.552 302.874 230.552 302.874C230.552 302.874 230.553 302.874 230.553 302.874C230.553 302.874 230.553 302.874 230.553 302.874C230.553 302.874 230.553 302.874 230.553 302.874C230.554 302.874 230.554 302.874 230.554 302.874C230.554 302.874 230.554 302.874 230.554 302.874C230.554 302.874 230.554 302.874 230.555 302.874C230.555 302.874 230.555 302.874 230.555 302.874C230.555 302.874 230.555 302.874 230.555 302.874C230.555 302.874 230.556 302.873 230.556 302.873C230.556 302.873 230.556 302.873 230.556 302.873C230.556 302.873 230.556 302.873 230.556 302.873C230.557 302.873 230.557 302.873 230.557 302.873C230.557 302.873 230.557 302.873 230.557 302.873C230.557 302.873 230.557 302.873 230.558 302.873C230.558 302.873 230.558 302.873 230.558 302.873C230.558 302.873 230.558 302.873 230.558 302.873C230.558 302.873 230.558 302.873 230.559 302.873C230.559 302.873 230.559 302.873 230.559 302.873C230.559 302.873 230.559 302.873 230.559 302.872C230.559 302.872 230.56 302.872 230.56 302.872C230.56 302.872 230.56 302.872 230.56 302.872C230.56 302.872 230.56 302.872 230.56 302.872C230.561 302.872 230.561 302.872 230.561 302.872C230.561 302.872 230.561 302.872 230.561 302.872C230.561 302.872 230.561 302.872 230.562 302.872C230.562 302.872 230.562 302.872 230.562 302.872C230.562 302.872 230.562 302.872 230.562 302.872C230.562 302.872 230.563 302.872 230.563 302.872C230.563 302.872 230.563 302.872 230.563 302.871C230.563 302.871 230.563 302.871 230.563 302.871C230.564 302.871 230.564 302.871 230.564 302.871C230.564 302.871 230.564 302.871 230.564 302.871C230.564 302.871 230.564 302.871 230.565 302.871C230.565 302.871 230.565 302.871 230.565 302.871C230.565 302.871 230.565 302.871 230.565 302.871C230.565 302.871 230.566 302.871 230.566 302.871C230.566 302.871 230.566 302.871 230.566 302.871C230.566 302.871 230.566 302.871 230.566 302.871C230.566 302.871 230.567 302.871 230.567 302.87C230.567 302.87 230.567 302.87 230.567 302.87C230.567 302.87 230.567 302.87 230.567 302.87C230.568 302.87 230.568 302.87 230.568 302.87C230.568 302.87 230.568 302.87 230.568 302.87C230.568 302.87 230.568 302.87 230.569 302.87C230.569 302.87 230.569 302.87 230.569 302.87C230.569 302.87 230.569 302.87 230.569 302.87C230.569 302.87 230.57 302.87 230.57 302.87C230.57 302.87 230.57 302.87 230.57 302.87C230.57 302.87 230.57 302.87 230.57 302.869C230.571 302.869 230.571 302.869 230.571 302.869C230.571 302.869 230.571 302.869 230.571 302.869C230.571 302.869 230.571 302.869 230.572 302.869C230.572 302.869 230.572 302.869 230.572 302.869C230.572 302.869 230.572 302.869 230.572 302.869C230.572 302.869 230.573 302.869 230.573 302.869C230.573 302.869 230.573 302.869 230.573 302.869C230.573 302.869 230.573 302.869 230.573 302.869C230.574 302.869 230.574 302.869 230.574 302.869C230.574 302.869 230.574 302.869 230.574 302.868C230.574 302.868 230.574 302.868 230.575 302.868C230.575 302.868 230.575 302.868 230.575 302.868C230.575 302.868 230.575 302.868 230.575 302.868C230.575 302.868 230.576 302.868 230.576 302.868C230.576 302.868 230.576 302.868 230.576 302.868C230.576 302.868 230.576 302.868 230.576 302.868C230.577 302.868 230.577 302.868 230.577 302.868C230.577 302.868 230.577 302.868 230.577 302.868C230.577 302.868 230.577 302.868 230.578 302.868C230.578 302.868 230.578 302.868 230.578 302.867C230.578 302.867 230.578 302.867 230.578 302.867C230.578 302.867 230.579 302.867 230.579 302.867C230.579 302.867 230.579 302.867 230.579 302.867C230.579 302.867 230.579 302.867 230.579 302.867C230.58 302.867 230.58 302.867 230.58 302.867C230.58 302.867 230.58 302.867 230.58 302.867C230.58 302.867 230.58 302.867 230.581 302.867C230.581 302.867 230.581 302.867 230.581 302.867C230.581 302.867 230.581 302.867 230.581 302.867C230.581 302.867 230.582 302.867 230.582 302.866C230.582 302.866 230.582 302.866 230.582 302.866C230.582 302.866 230.582 302.866 230.582 302.866C230.583 302.866 230.583 302.866 230.583 302.866C230.583 302.866 230.583 302.866 230.583 302.866C230.583 302.866 230.583 302.866 230.584 302.866C230.584 302.866 230.584 302.866 230.584 302.866C230.584 302.866 230.584 302.866 230.584 302.866C230.584 302.866 230.585 302.866 230.585 302.866C230.585 302.866 230.585 302.866 230.585 302.866C230.585 302.866 230.585 302.865 230.585 302.865C230.586 302.865 230.586 302.865 230.586 302.865C230.586 302.865 230.586 302.865 230.586 302.865C230.586 302.865 230.586 302.865 230.587 302.865C230.587 302.865 230.587 302.865 230.587 302.865C230.587 302.865 230.587 302.865 230.587 302.865C230.588 302.865 230.588 302.865 230.588 302.865C230.588 302.865 230.588 302.865 230.588 302.865C230.588 302.865 230.588 302.865 230.589 302.865C230.589 302.865 230.589 302.865 230.589 302.865C230.589 302.865 230.589 302.864 230.589 302.864C230.589 302.864 230.59 302.864 230.59 302.864C230.59 302.864 230.59 302.864 230.59 302.864C230.59 302.864 230.59 302.864 230.59 302.864C230.591 302.864 230.591 302.864 230.591 302.864C230.591 302.864 230.591 302.864 230.591 302.864C230.591 302.864 230.591 302.864 230.592 302.864C230.592 302.864 230.592 302.864 230.592 302.864C230.592 302.864 230.592 302.864 230.592 302.864C230.592 302.864 230.593 302.864 230.593 302.864C230.593 302.864 230.593 302.863 230.593 302.863C230.593 302.863 230.593 302.863 230.593 302.863C230.594 302.863 230.594 302.863 230.594 302.863C230.594 302.863 230.594 302.863 230.594 302.863C230.594 302.863 230.594 302.863 230.595 302.863C230.595 302.863 230.595 302.863 230.595 302.863C230.595 302.863 230.595 302.863 230.595 302.863C230.595 302.863 230.596 302.863 230.596 302.863C230.596 302.863 230.596 302.863 230.596 302.863C230.596 302.863 230.596 302.863 230.596 302.863C230.597 302.862 230.597 302.862 230.597 302.862C230.597 302.862 230.597 302.862 230.597 302.862C230.597 302.862 230.597 302.862 230.598 302.862C230.598 302.862 230.598 302.862 230.598 302.862C230.598 302.862 230.598 302.862 230.598 302.862C230.598 302.862 230.599 302.862 230.599 302.862C230.599 302.862 230.599 302.862 230.599 302.862C230.599 302.862 230.599 302.862 230.6 302.862C230.6 302.862 230.6 302.862 230.6 302.862C230.6 302.862 230.6 302.862 230.6 302.861C230.6 302.861 230.601 302.861 230.601 302.861C230.601 302.861 230.601 302.861 230.601 302.861C230.601 302.861 230.601 302.861 230.601 302.861C230.602 302.861 230.602 302.861 230.602 302.861C230.602 302.861 230.602 302.861 230.602 302.861C230.602 302.861 230.602 302.861 230.603 302.861C230.603 302.861 230.603 302.861 230.603 302.861C230.603 302.861 230.603 302.861 230.603 302.861C230.603 302.861 230.604 302.861 230.604 302.861C230.604 302.861 230.604 302.861 230.604 302.86C230.604 302.86 230.604 302.86 230.604 302.86C230.605 302.86 230.605 302.86 230.605 302.86C230.605 302.86 230.605 302.86 230.605 302.86C230.605 302.86 230.605 302.86 230.606 302.86C230.606 302.86 230.606 302.86 230.606 302.86C230.606 302.86 230.606 302.86 230.606 302.86C230.607 302.86 230.607 302.86 230.607 302.86C230.607 302.86 230.607 302.86 230.607 302.86C230.607 302.86 230.607 302.86 230.608 302.86C230.608 302.86 230.608 302.859 230.608 302.859C230.608 302.859 230.608 302.859 230.608 302.859C230.608 302.859 230.609 302.859 230.609 302.859C230.609 302.859 230.609 302.859 230.609 302.859C230.609 302.859 230.609 302.859 230.609 302.859C230.61 302.859 230.61 302.859 230.61 302.859C230.61 302.859 230.61 302.859 230.61 302.859C230.61 302.859 230.61 302.859 230.611 302.859C230.611 302.859 230.611 302.859 230.611 302.859C230.611 302.859 230.611 302.859 230.611 302.859C230.611 302.859 230.612 302.858 230.612 302.858C230.612 302.858 230.612 302.858 230.612 302.858C230.612 302.858 230.612 302.858 230.612 302.858C230.613 302.858 230.613 302.858 230.613 302.858C230.613 302.858 230.613 302.858 230.613 302.858C230.613 302.858 230.614 302.858 230.614 302.858C230.614 302.858 230.614 302.858 230.614 302.858C230.614 302.858 230.614 302.858 230.614 302.858C230.615 302.858 230.615 302.858 230.615 302.858C230.615 302.858 230.615 302.858 230.615 302.858C230.615 302.857 230.615 302.857 230.616 302.857C230.616 302.857 230.616 302.857 230.616 302.857C230.616 302.857 230.616 302.857 230.616 302.857C230.616 302.857 230.617 302.857 230.617 302.857C230.617 302.857 230.617 302.857 230.617 302.857C230.617 302.857 230.617 302.857 230.617 302.857C230.618 302.857 230.618 302.857 230.618 302.857C230.618 302.857 230.618 302.857 230.618 302.857C230.618 302.857 230.618 302.857 230.619 302.857C230.619 302.857 230.619 302.857 230.619 302.856C230.619 302.856 230.619 302.856 230.619 302.856C230.62 302.856 230.62 302.856 230.62 302.856C230.62 302.856 230.62 302.856 230.62 302.856C230.62 302.856 230.62 302.856 230.621 302.856C230.621 302.856 230.621 302.856 230.621 302.856C230.621 302.856 230.621 302.856 230.621 302.856C230.621 302.856 230.622 302.856 230.622 302.856C230.622 302.856 230.622 302.856 230.622 302.856C230.622 302.856 230.622 302.856 230.622 302.856C230.623 302.856 230.623 302.855 230.623 302.855C230.623 302.855 230.623 302.855 230.623 302.855C230.623 302.855 230.623 302.855 230.624 302.855C230.624 302.855 230.624 302.855 230.624 302.855C230.624 302.855 230.624 302.855 230.624 302.855C230.624 302.855 230.625 302.855 230.625 302.855C230.625 302.855 230.625 302.855 230.625 302.855C230.625 302.855 230.625 302.855 230.626 302.855C230.626 302.855 230.626 302.855 230.626 302.855C230.626 302.855 230.626 302.855 230.626 302.855C230.626 302.854 230.627 302.854 230.627 302.854C230.627 302.854 230.627 302.854 230.627 302.854C230.627 302.854 230.627 302.854 230.627 302.854C230.628 302.854 230.628 302.854 230.628 302.854C230.628 302.854 230.628 302.854 230.628 302.854C230.628 302.854 230.628 302.854 230.629 302.854C230.629 302.854 230.629 302.854 230.629 302.854C230.629 302.854 230.629 302.854 230.629 302.854C230.629 302.854 230.63 302.854 230.63 302.854C230.63 302.854 230.63 302.854 230.63 302.854L230.802 303.494Z" fill="#082422" mask="url(#path-34-inside-2_15015_18827)"/>
<path d="M350.536 441.549C360.487 438.436 368.039 433.365 373.518 428.038L350.536 441.549Z" stroke="#082422" stroke-width="0.662811" stroke-miterlimit="10" stroke-linecap="round" stroke-linejoin="round"/>
<path d="M346.591 454.46C351.327 453.434 355.335 451.916 358.629 450.236L346.591 454.46Z" stroke="#082422" stroke-width="0.662811" stroke-miterlimit="10" stroke-linecap="round" stroke-linejoin="round"/>
</g>
<defs>
<clipPath id="clip0_15015_18827">
<rect width="456.235" height="639.612" fill="white"/>
</clipPath>
</defs>
</svg>
