<svg width="477" height="749" viewBox="0 0 477 749" fill="none" xmlns="http://www.w3.org/2000/svg">
<g clip-path="url(#clip0_15015_18906)">
<path d="M289.961 244.989C290.681 245.079 291.718 245.212 292.986 245.385C295.521 245.73 298.978 246.232 302.664 246.86C306.352 247.489 310.262 248.242 313.707 249.089C317.169 249.94 320.103 250.873 321.874 251.843C322.172 252.006 322.589 252.464 323.094 253.345C323.583 254.198 324.104 255.356 324.65 256.789C325.742 259.651 326.907 263.539 328.103 268.113C330.494 277.257 332.993 289.081 335.262 300.79C337.531 312.497 339.569 324.078 341.04 332.733C341.775 337.06 342.369 340.656 342.778 343.17C342.974 344.371 343.127 345.325 343.234 345.993C342.826 345.819 342.309 345.592 341.706 345.314C340.122 344.583 337.944 343.504 335.578 342.112C330.825 339.315 325.39 335.304 322.396 330.378L322.396 330.377C320.887 327.897 318.678 322.979 316.2 316.948C313.728 310.932 311.007 303.855 308.477 297.09C305.948 290.326 303.611 283.877 301.906 279.119C301.053 276.74 300.359 274.783 299.878 273.422C299.638 272.742 299.45 272.21 299.323 271.848C299.259 271.668 299.211 271.529 299.178 271.436C299.162 271.389 299.149 271.354 299.141 271.331C299.137 271.319 299.134 271.31 299.132 271.304L299.128 271.294L289.863 244.977C289.895 244.981 289.928 244.985 289.961 244.989Z" fill="#FFCE9B" stroke="#082422" stroke-width="1.27014" stroke-miterlimit="10" stroke-linecap="round" stroke-linejoin="round"/>
<path opacity="0.25" d="M299.361 273.849C302.844 283.706 316.512 321.926 321.869 330.726C328.026 340.842 343.87 345.73 343.87 345.73C343.87 345.73 341.183 327.809 338.276 312.483C326.123 300.779 311.071 285.632 299.372 273.85L299.361 273.849Z" fill="#082422"/>
<path d="M201.519 236.012C201.577 236 201.644 235.985 201.722 235.968C202.009 235.908 202.433 235.82 202.979 235.708C204.071 235.483 205.652 235.162 207.605 234.776C211.513 234.005 216.911 232.976 222.872 231.943C234.811 229.876 248.953 227.806 257.924 227.759C266.939 227.711 274.872 228.158 281.216 229.339C287.584 230.524 292.235 232.429 294.813 235.205C295.336 235.769 296.124 237.121 297.126 239.186C298.113 241.221 299.273 243.873 300.549 246.962C303.099 253.14 306.102 261.041 309.101 269.209C315.098 285.543 321.072 302.922 323.371 309.67L323.371 309.671C323.776 310.853 323.153 312.118 321.991 312.546L321.752 312.62C319.109 313.278 315.116 314.067 311.235 314.061C307.321 314.054 303.702 313.238 301.606 310.875C300.112 309.191 297.991 305.855 295.631 301.741C293.281 297.645 290.723 292.829 288.354 288.224C285.985 283.621 283.809 279.234 282.225 275.998C281.433 274.38 280.789 273.05 280.343 272.125C280.12 271.662 279.947 271.3 279.829 271.055C279.77 270.932 279.726 270.838 279.696 270.775C279.681 270.743 279.669 270.719 279.661 270.703C279.657 270.696 279.654 270.69 279.652 270.686L279.65 270.68C279.549 270.468 279.341 270.329 279.107 270.318L225.419 267.759L190.285 251.286L201.519 236.012Z" fill="#FFCE9B" stroke="#082422" stroke-width="1.27014" stroke-miterlimit="10" stroke-linecap="round" stroke-linejoin="round"/>
<mask id="mask0_15015_18906" style="mask-type:luminance" maskUnits="userSpaceOnUse" x="189" y="227" width="136" height="88">
<path d="M201.155 235.445C201.155 235.445 239.862 227.225 257.924 227.129C275.986 227.033 289.836 228.916 295.281 234.778C300.071 239.933 319.374 295.972 323.975 309.47C324.53 311.089 323.578 312.818 321.91 313.241C316.582 314.567 305.702 316.454 301.133 311.302C294.961 304.342 279.441 270.064 279.441 270.064L225.257 268.391L189.307 251.536L201.144 235.443L201.155 235.445Z" fill="white"/>
</mask>
<g mask="url(#mask0_15015_18906)">
<path opacity="0.25" d="M215.315 117.326C205.259 135.361 184.344 173.252 178.594 183.5C171.135 196.774 150.687 252.333 142.048 278.558C138.449 289.486 126.382 313.323 137.282 325.049C148.171 336.773 247.157 432.991 250.544 448.868C253.941 464.757 272.182 644.742 274.964 668.981C275.438 673.092 276.227 677.122 279.955 678.906C292.978 685.161 319.414 697.205 353.764 702.787C382.103 707.396 402.317 702.829 410.396 700.488C415.715 698.948 417.283 695.558 416.573 691.474L373 445.908C372.425 442.729 372.57 439.459 373.408 436.339C375.899 427.018 380.776 405.354 375.863 381.794C371.955 363.019 357.367 342.644 335.938 322.116C322.982 309.71 304.305 291.348 291.473 278.393C289.261 275.735 271.853 254.098 269.403 229.154C266.789 202.506 255.24 154.574 246.525 146.14C243.227 142.95 238.713 141.768 234.374 141.507C235.775 135.861 236.668 131.178 236.656 128.368C236.628 119.885 221.072 107.025 215.325 117.337L215.315 117.326ZM220.399 261.987L209.251 255.545C205.801 253.557 204.054 249.55 204.935 245.661C207.934 232.452 214.619 203.353 216.465 197.894C217.2 195.727 219.377 189.573 222.037 181.712C222.03 181.775 222.045 181.829 222.038 181.892C222.313 191.42 222.502 200.949 222.438 208.139C222.338 219.354 221.347 242.321 220.399 261.987Z" fill="#082422"/>
</g>
<mask id="path-6-inside-1_15015_18906" fill="white">
<path d="M303.423 294.449C303.736 291.579 305.472 284.9 314.807 284.063L322.304 305.308C322.327 305.384 322.34 305.46 322.332 305.533C322.308 305.753 322.152 305.927 321.933 305.988L315.884 307.798L303.366 295.46C303.367 295.259 303.385 294.901 303.435 294.44M302.899 294.392C302.813 295.188 302.832 295.688 302.832 295.688L315.723 308.405L322.078 306.502C322.515 306.38 322.81 306.009 322.855 305.601C322.871 305.454 322.857 305.294 322.799 305.139L315.164 283.509C305.059 284.218 303.225 291.406 302.899 294.392Z"/>
</mask>
<path d="M303.423 294.449C303.736 291.579 305.472 284.9 314.807 284.063L322.304 305.308C322.327 305.384 322.34 305.46 322.332 305.533C322.308 305.753 322.152 305.927 321.933 305.988L315.884 307.798L303.366 295.46C303.367 295.259 303.385 294.901 303.435 294.44M302.899 294.392C302.813 295.188 302.832 295.688 302.832 295.688L315.723 308.405L322.078 306.502C322.515 306.38 322.81 306.009 322.855 305.601C322.871 305.454 322.857 305.294 322.799 305.139L315.164 283.509C305.059 284.218 303.225 291.406 302.899 294.392Z" fill="#082422"/>
<path d="M302.161 294.311C302.085 295.009 302.588 295.636 303.285 295.712C303.983 295.788 304.61 295.284 304.686 294.587L303.423 294.449L302.161 294.311ZM314.807 284.063L316.005 283.641C315.811 283.093 315.272 282.746 314.694 282.798L314.807 284.063ZM322.304 305.308L323.519 304.937C323.513 304.919 323.508 304.902 323.502 304.885L322.304 305.308ZM321.933 305.988L321.592 304.764C321.584 304.767 321.577 304.769 321.569 304.771L321.933 305.988ZM315.884 307.798L314.993 308.702C315.323 309.028 315.804 309.147 316.248 309.014L315.884 307.798ZM303.366 295.46L302.096 295.456C302.094 295.797 302.231 296.125 302.474 296.365L303.366 295.46ZM304.698 294.578C304.774 293.88 304.27 293.253 303.573 293.177C302.875 293.101 302.248 293.605 302.172 294.302L303.435 294.44L304.698 294.578ZM302.832 295.688L301.563 295.738C301.576 296.06 301.71 296.366 301.94 296.593L302.832 295.688ZM315.723 308.405L314.831 309.31C315.161 309.635 315.642 309.755 316.087 309.622L315.723 308.405ZM322.078 306.502L321.737 305.278C321.729 305.281 321.722 305.283 321.714 305.285L322.078 306.502ZM322.799 305.139L321.602 305.562C321.604 305.568 321.606 305.574 321.608 305.58L322.799 305.139ZM315.164 283.509L316.362 283.086C316.172 282.547 315.645 282.202 315.075 282.242L315.164 283.509ZM303.423 294.449L304.686 294.587C304.829 293.276 305.295 291.146 306.739 289.268C308.149 287.434 310.582 285.717 314.92 285.328L314.807 284.063L314.694 282.798C309.697 283.246 306.596 285.286 304.725 287.719C302.889 290.107 302.331 292.752 302.161 294.311L303.423 294.449ZM314.807 284.063L313.609 284.486L321.106 305.73L322.304 305.308L323.502 304.885L316.005 283.641L314.807 284.063ZM322.304 305.308L321.089 305.678C321.086 305.667 321.052 305.558 321.07 305.395L322.332 305.533L323.595 305.671C323.629 305.362 323.569 305.101 323.519 304.937L322.304 305.308ZM322.332 305.533L321.07 305.395C321.106 305.058 321.351 304.831 321.592 304.764L321.933 305.988L322.274 307.211C322.952 307.023 323.51 306.449 323.595 305.671L322.332 305.533ZM321.933 305.988L321.569 304.771L315.52 306.581L315.884 307.798L316.248 309.014L322.297 307.205L321.933 305.988ZM315.884 307.798L316.776 306.893L304.257 294.556L303.366 295.46L302.474 296.365L314.993 308.702L315.884 307.798ZM303.366 295.46L304.636 295.465C304.637 295.319 304.651 295.006 304.698 294.578L303.435 294.44L302.172 294.302C302.118 294.795 302.097 295.199 302.096 295.456L303.366 295.46ZM302.899 294.392L301.637 294.254C301.589 294.691 301.57 295.05 301.564 295.305C301.56 295.433 301.56 295.535 301.56 295.608C301.561 295.645 301.561 295.674 301.562 295.696C301.562 295.707 301.562 295.716 301.562 295.723C301.563 295.726 301.563 295.729 301.563 295.732C301.563 295.733 301.563 295.734 301.563 295.735C301.563 295.736 301.563 295.736 301.563 295.737C301.563 295.737 301.563 295.737 301.563 295.737C301.563 295.737 301.563 295.738 301.563 295.738C301.563 295.738 301.563 295.738 302.832 295.688C304.101 295.639 304.101 295.639 304.101 295.639C304.101 295.639 304.101 295.639 304.101 295.639C304.101 295.64 304.101 295.64 304.101 295.64C304.101 295.64 304.101 295.641 304.101 295.641C304.101 295.641 304.101 295.642 304.101 295.642C304.101 295.643 304.101 295.643 304.101 295.642C304.101 295.642 304.101 295.639 304.101 295.635C304.101 295.626 304.101 295.61 304.101 295.588C304.1 295.542 304.1 295.469 304.103 295.372C304.108 295.179 304.123 294.889 304.162 294.53L302.899 294.392ZM302.832 295.688L301.94 296.593L314.831 309.31L315.723 308.405L316.615 307.501L303.724 294.784L302.832 295.688ZM315.723 308.405L316.087 309.622L322.443 307.719L322.078 306.502L321.714 305.285L315.358 307.189L315.723 308.405ZM322.078 306.502L322.419 307.725C323.364 307.462 324.017 306.656 324.118 305.739L322.855 305.601L321.592 305.463C321.603 305.363 321.667 305.298 321.737 305.278L322.078 306.502ZM322.855 305.601L324.118 305.739C324.153 305.416 324.123 305.055 323.99 304.698L322.799 305.139L321.608 305.58C321.59 305.532 321.589 305.492 321.592 305.463L322.855 305.601ZM322.799 305.139L323.997 304.716L316.362 283.086L315.164 283.509L313.966 283.931L321.602 305.562L322.799 305.139ZM315.164 283.509L315.075 282.242C309.691 282.62 306.364 284.751 304.363 287.316C302.399 289.833 301.813 292.638 301.637 294.254L302.899 294.392L304.162 294.53C304.312 293.16 304.805 290.879 306.366 288.878C307.89 286.925 310.532 285.107 315.253 284.776L315.164 283.509Z" fill="#082422" mask="url(#path-6-inside-1_15015_18906)"/>
<path d="M121.773 306.669C116.524 301.022 116.065 293.706 117.429 286.324C118.798 278.913 121.953 271.655 123.778 266.112C128.098 253.016 135.664 232.552 143.085 213.699C150.513 194.829 157.77 177.634 161.474 171.043L161.475 171.043C167.215 160.814 188.074 123.024 198.146 104.959C198.163 104.936 198.181 104.913 198.195 104.887C199.53 102.493 201.386 101.494 203.425 101.393C205.511 101.29 207.863 102.126 210.106 103.579C212.34 105.026 214.407 107.048 215.913 109.219C217.426 111.4 218.331 113.669 218.337 115.611C218.348 118.663 217.266 124.061 215.562 130.625C213.864 137.164 211.569 144.784 209.196 152.241C205.635 163.428 201.903 174.224 199.75 180.427L198.188 184.943C197.253 187.708 195.113 196.386 192.84 205.977C190.562 215.588 188.14 226.167 186.64 232.772L186.64 232.773C185.699 236.933 187.566 241.22 191.258 243.347L206.115 251.922C207.605 252.787 209.292 253.234 211.007 253.227L211.351 253.219L255.293 251.517L255.294 251.517C255.321 251.516 255.435 251.528 255.671 251.625C255.893 251.715 256.17 251.858 256.502 252.055C257.163 252.45 257.988 253.031 258.929 253.75C260.807 255.188 263.095 257.141 265.366 259.166C269.911 263.219 274.34 267.515 275.225 268.459C284.447 278.332 299.926 292.656 317.836 309.807C339.147 330.222 345.403 348.491 349.294 367.181L349.293 367.182C354.184 390.638 351.599 413.5 349.132 422.731L349.132 422.732C348.27 425.941 348.121 429.306 348.713 432.578L348.713 432.58L401.533 718.665C401.869 720.602 401.654 722.301 400.792 723.682C399.931 725.06 398.366 726.217 395.814 726.958C348.252 738.076 299.576 739.956 265.579 732.567C262.466 731.038 261.591 727.75 261.102 723.944L261.007 723.171C259.618 711.063 253.903 643.373 248.11 576.697C245.214 543.364 242.299 510.291 239.895 484.558C238.693 471.691 237.62 460.657 236.74 452.342C235.862 444.048 235.173 438.416 234.74 436.389C234.507 435.299 233.884 433.902 232.966 432.268C232.04 430.621 230.789 428.688 229.262 426.514C226.208 422.168 222.027 416.827 217.08 410.841C207.186 398.866 194.203 384.276 180.992 369.822C154.579 340.923 127.199 312.511 121.773 306.669Z" fill="#FFCE9B" stroke="#082422" stroke-width="1.27014" stroke-miterlimit="10" stroke-linecap="round" stroke-linejoin="round"/>
<path d="M348.181 425.778C347.636 427.233 346.831 429.089 345.655 431.248C343.108 435.924 338.822 442.031 331.686 448.588L348.181 425.778Z" stroke="#082422" stroke-width="1.27014" stroke-miterlimit="10" stroke-linecap="round" stroke-linejoin="round"/>
<path d="M56.4705 227.135L163.819 19.3132C166.252 14.6043 172.041 12.759 176.75 15.1911L306.828 82.3823C311.537 84.8148 313.383 90.604 310.951 95.3129L203.602 303.134C201.169 307.843 195.38 309.689 190.671 307.256L60.5926 240.065C55.884 237.633 54.0384 231.843 56.4705 227.135Z" fill="#2BF2F1" stroke="#082422" stroke-width="1.27014" stroke-miterlimit="10" stroke-linecap="round" stroke-linejoin="round"/>
<path d="M166.817 267.113L211.757 180.111C212.603 178.473 214.617 177.831 216.255 178.677L216.311 178.706C217.949 179.552 218.59 181.566 217.744 183.203L172.804 270.206C171.958 271.843 169.945 272.486 168.307 271.64L168.251 271.611C166.613 270.765 165.971 268.751 166.817 267.113Z" fill="white" stroke="#082422" stroke-width="1.27014" stroke-miterlimit="10" stroke-linecap="round" stroke-linejoin="round"/>
<path d="M182.77 275.334L257.592 130.483C258.438 128.845 260.452 128.203 262.089 129.049L262.146 129.078C263.783 129.924 264.425 131.938 263.579 133.575L188.757 278.426C187.911 280.064 185.898 280.706 184.26 279.861L184.204 279.831C182.566 278.986 181.924 276.972 182.77 275.334Z" fill="white" stroke="#082422" stroke-width="1.27014" stroke-miterlimit="10" stroke-linecap="round" stroke-linejoin="round"/>
<path d="M122.414 246.969C119.866 245.649 118.864 242.565 120.15 240.076L134.503 212.29C135.79 209.8 138.891 208.829 141.436 210.148L141.437 210.149L157.964 218.684C160.51 220.005 161.512 223.089 160.226 225.577L145.873 253.362C144.587 255.852 141.485 256.823 138.94 255.504L138.939 255.504L122.414 246.969Z" fill="#FFCE9B" stroke="#082422" stroke-width="1.27014" stroke-miterlimit="10" stroke-linecap="round" stroke-linejoin="round"/>
<path d="M133.234 211.637L118.88 239.422C117.239 242.614 118.527 246.549 121.758 248.216L138.285 256.751C141.526 258.419 145.476 257.196 147.128 254.006L161.481 226.221C163.122 223.029 161.835 219.094 158.603 217.427L142.077 208.892C138.835 207.224 134.886 208.447 133.234 211.637ZM136.714 226.953C136.714 226.953 136.745 226.956 136.755 226.957C136.837 226.987 136.921 226.996 137.006 226.995C137.027 226.997 137.037 226.998 137.048 227C137.133 226.998 137.209 226.975 137.287 226.941C137.287 226.941 137.308 226.943 137.319 226.944C140.59 225.425 144.518 226.829 146.092 230.085C146.351 230.622 146.534 231.183 146.64 231.767C146.639 231.777 146.648 231.789 146.657 231.801C146.693 231.964 146.782 232.111 146.919 232.221C146.948 232.246 146.967 232.269 146.997 232.283C147.018 232.285 147.035 232.319 147.055 232.332L154.56 236.214L151.241 242.636L143.726 238.752C143.726 238.752 143.684 238.748 143.664 238.735C143.633 238.732 143.602 238.718 143.572 238.704C143.5 238.685 143.428 238.667 143.362 238.681C143.341 238.679 143.32 238.676 143.309 238.686C143.224 238.687 143.137 238.709 143.059 238.743C143.059 238.743 143.048 238.742 143.038 238.741C139.776 240.272 135.837 238.867 134.264 235.61C134.004 235.073 133.822 234.513 133.716 233.929C133.716 233.929 133.716 233.929 133.718 233.908C133.696 233.821 133.672 233.744 133.627 233.675C133.617 233.664 133.609 233.641 133.6 233.63C133.553 233.572 133.505 233.524 133.447 233.475C133.418 233.451 133.399 233.428 133.369 233.414C133.348 233.412 133.341 233.379 133.32 233.377L125.805 229.493L129.124 223.071L136.639 226.955C136.639 226.955 136.701 226.972 136.722 226.975L136.714 226.953ZM152.583 216.06L146.496 227.84C145.087 226.085 143.003 224.978 140.753 224.807L146.813 213.088L152.582 216.07L152.583 216.06ZM127.918 249.662L133.978 237.932C135.422 239.659 137.532 240.726 139.786 240.856L133.699 252.636L127.919 249.652L127.918 249.662ZM120.275 240.147L125.086 230.835L132.27 234.545C132.421 235.208 132.659 235.838 132.975 236.445L126.523 248.938L122.47 246.842C120.001 245.565 119.025 242.565 120.276 240.136L120.275 240.147ZM138.995 255.387L135.083 253.359L141.587 240.766C142.203 240.664 142.793 240.495 143.36 240.26L150.544 243.97L145.733 253.281C144.472 255.709 141.466 256.642 138.996 255.376L138.995 255.387ZM160.096 225.508L155.285 234.82L148.1 231.11C147.964 230.512 147.752 229.927 147.485 229.368L153.988 216.786L157.901 218.813C160.369 220.09 161.345 223.09 160.095 225.519L160.096 225.508ZM145.418 212.363L138.967 224.856C138.299 224.953 137.634 225.124 137.012 225.384L129.827 221.675L134.638 212.363C135.9 209.935 138.906 209.002 141.375 210.268L145.418 212.363Z" fill="#082422"/>
<mask id="mask1_15015_18906" style="mask-type:luminance" maskUnits="userSpaceOnUse" x="54" y="13" width="259" height="296">
<path d="M163.255 19.0216L55.9066 226.843C53.3133 231.864 55.281 238.036 60.3017 240.629L190.38 307.82C195.4 310.414 201.573 308.446 204.166 303.425L311.515 95.6041C314.108 90.5835 312.14 84.4111 307.12 81.8177L177.042 14.6268C172.021 12.0334 165.849 14.001 163.255 19.0216Z" fill="white"/>
</mask>
<g mask="url(#mask1_15015_18906)">
<path opacity="0.25" d="M291.952 277.672C291.952 277.672 272.273 254.802 269.658 228.154C267.044 201.507 255.495 153.575 246.78 145.14C243.194 141.675 238.153 140.563 233.48 140.456C226.586 140.297 220.993 145.993 221.28 152.883C221.88 167.099 222.823 192.165 222.692 207.15C222.508 228.944 218.919 295.142 218.919 295.142" fill="#082422"/>
</g>
<mask id="path-17-inside-2_15015_18906" fill="white">
<path d="M288.136 280.579C288.136 280.579 266.447 261.358 264.486 229.885C262.824 203.161 250.323 155.305 241.608 146.871C238.022 143.405 232.981 142.293 228.308 142.186C221.414 142.027 215.821 147.724 216.108 154.613C216.708 168.83 217.651 193.896 217.521 208.88C217.336 230.675 213.748 296.872 213.748 296.872"/>
</mask>
<path d="M288.136 280.579C288.136 280.579 266.447 261.358 264.486 229.885C262.824 203.161 250.323 155.305 241.608 146.871C238.022 143.405 232.981 142.293 228.308 142.186C221.414 142.027 215.821 147.724 216.108 154.613C216.708 168.83 217.651 193.896 217.521 208.88C217.336 230.675 213.748 296.872 213.748 296.872" fill="#FFCE9B"/>
<path d="M287.293 281.529C287.818 281.995 288.621 281.946 289.086 281.421C289.551 280.896 289.503 280.094 288.978 279.628L288.136 280.579L287.293 281.529ZM264.486 229.885L263.219 229.964L263.219 229.964L264.486 229.885ZM241.608 146.871L242.492 145.958L242.491 145.957L241.608 146.871ZM228.308 142.186L228.279 143.456L228.279 143.456L228.308 142.186ZM216.108 154.613L214.839 154.666L214.839 154.667L216.108 154.613ZM217.521 208.88L216.251 208.869L216.251 208.87L217.521 208.88ZM212.479 296.803C212.441 297.504 212.978 298.102 213.679 298.14C214.379 298.178 214.978 297.641 215.016 296.941L213.748 296.872L212.479 296.803ZM288.136 280.579C288.978 279.628 288.978 279.629 288.978 279.629C288.978 279.629 288.978 279.629 288.978 279.629C288.978 279.629 288.978 279.628 288.977 279.627C288.975 279.626 288.972 279.623 288.968 279.619C288.959 279.612 288.946 279.599 288.927 279.583C288.89 279.549 288.833 279.497 288.757 279.426C288.606 279.285 288.38 279.071 288.09 278.786C287.51 278.215 286.674 277.36 285.66 276.234C283.633 273.981 280.903 270.648 278.112 266.343C272.526 257.73 266.717 245.265 265.754 229.806L264.486 229.885L263.219 229.964C264.216 245.977 270.231 258.86 275.98 267.725C278.856 272.16 281.671 275.599 283.772 277.933C284.822 279.101 285.695 279.993 286.309 280.597C286.616 280.899 286.858 281.129 287.026 281.285C287.109 281.363 287.174 281.422 287.219 281.463C287.242 281.483 287.259 281.499 287.272 281.51C287.278 281.516 287.283 281.52 287.286 281.523C287.288 281.525 287.29 281.526 287.291 281.527C287.291 281.528 287.292 281.528 287.292 281.529C287.293 281.529 287.293 281.529 288.136 280.579ZM264.486 229.885L265.754 229.806C264.916 216.329 261.353 197.595 256.918 181.188C254.699 172.979 252.253 165.322 249.806 159.172C248.583 156.098 247.352 153.383 246.141 151.156C244.94 148.947 243.718 147.145 242.492 145.958L241.608 146.871L240.725 147.783C241.677 148.705 242.753 150.243 243.91 152.37C245.057 154.479 246.246 157.095 247.446 160.111C249.846 166.142 252.263 173.701 254.466 181.851C258.875 198.161 262.394 216.716 263.219 229.964L264.486 229.885ZM241.608 146.871L242.491 145.957C238.572 142.17 233.149 141.027 228.337 140.916L228.308 142.186L228.279 143.456C232.814 143.56 237.473 144.64 240.726 147.784L241.608 146.871ZM228.308 142.186L228.337 140.916C220.71 140.741 214.521 147.043 214.839 154.666L216.108 154.613L217.377 154.56C217.12 148.404 222.118 143.314 228.279 143.456L228.308 142.186ZM216.108 154.613L214.839 154.667C215.439 168.889 216.38 193.922 216.251 208.869L217.521 208.88L218.791 208.891C218.921 193.869 217.977 168.77 217.377 154.56L216.108 154.613ZM217.521 208.88L216.251 208.87C216.159 219.737 215.217 241.708 214.296 260.989C213.836 270.623 213.382 279.577 213.043 286.123C212.873 289.395 212.732 292.066 212.634 293.918C212.585 294.844 212.546 295.565 212.52 296.055C212.506 296.3 212.496 296.487 212.49 296.613C212.486 296.676 212.484 296.724 212.482 296.756C212.481 296.771 212.48 296.783 212.48 296.791C212.48 296.795 212.48 296.798 212.479 296.8C212.479 296.801 212.479 296.802 212.479 296.803C212.479 296.803 212.479 296.803 213.748 296.872C215.016 296.941 215.016 296.941 215.016 296.94C215.016 296.94 215.016 296.939 215.016 296.938C215.016 296.936 215.016 296.933 215.017 296.929C215.017 296.921 215.018 296.909 215.018 296.893C215.02 296.861 215.023 296.813 215.026 296.75C215.033 296.624 215.043 296.437 215.056 296.192C215.083 295.701 215.121 294.979 215.171 294.053C215.269 292.199 215.41 289.528 215.58 286.254C215.919 279.706 216.373 270.749 216.834 261.11C217.754 241.843 218.698 219.818 218.791 208.891L217.521 208.88Z" fill="#082422" mask="url(#path-17-inside-2_15015_18906)"/>
<path d="M216.725 154.498C216.7 153.455 216.814 152.445 217.043 151.479C219.384 149.309 222.516 148.778 225.162 148.825C226.502 148.849 227.691 149.02 228.545 149.187C228.969 149.269 229.309 149.35 229.542 149.41C229.573 149.554 229.614 149.736 229.66 149.955C229.785 150.544 229.961 151.393 230.167 152.429C230.579 154.504 231.11 157.328 231.582 160.331C232.054 163.336 232.465 166.51 232.643 169.287C232.822 172.094 232.755 174.395 232.328 175.716L232.328 175.715C231.96 176.85 231.011 177.826 229.653 178.656C228.3 179.482 226.61 180.121 224.884 180.608C222.019 181.416 219.138 181.784 217.729 181.928C217.435 171.847 217.047 161.818 216.736 154.587C216.735 154.556 216.73 154.527 216.725 154.498Z" fill="#FFCE9B" stroke="#082422" stroke-width="1.27014" stroke-miterlimit="10" stroke-linecap="round" stroke-linejoin="round"/>
</g>
<defs>
<clipPath id="clip0_15015_18906">
<rect width="476.226" height="748.737" fill="white"/>
</clipPath>
</defs>
</svg>
