<svg width="327" height="692" viewBox="0 0 327 692" fill="none" xmlns="http://www.w3.org/2000/svg">
<g clip-path="url(#clip0_15015_18905)">
<path d="M176.988 375.964C176.988 375.964 193.968 344.947 197.154 317.661C200.87 285.917 191.709 256.414 191.709 256.414L141.311 200.959L69.6216 236.184L156.795 374.211L176.977 375.975L176.988 375.964Z" fill="#FFCE9B" stroke="#082422" stroke-miterlimit="10" stroke-linecap="round" stroke-linejoin="round"/>
<path d="M103.725 251.157C111.581 258.215 134.577 279.528 139.581 329.473" stroke="#082422" stroke-miterlimit="10" stroke-linecap="round" stroke-linejoin="round"/>
<path d="M103.399 38.3579L117.214 277.493C117.548 283.266 122.502 287.674 128.276 287.331L277.983 278.473C283.758 278.13 288.172 273.171 287.838 267.398L274.023 28.2624C273.688 22.4893 268.735 18.0823 262.961 18.4247L113.254 27.2831C107.479 27.6254 103.065 32.5848 103.399 38.3579Z" fill="#45B754" stroke="#082422" stroke-miterlimit="10" stroke-linecap="round" stroke-linejoin="round"/>
<path d="M322.784 235.528L241.845 10.1422C239.89 4.69725 233.89 1.87379 228.443 3.83587L87.3349 54.6708C81.8885 56.6328 79.0585 62.6375 81.0138 68.0824L161.953 293.469C163.908 298.914 169.909 301.737 175.355 299.775L316.463 248.94C321.91 246.978 324.74 240.973 322.784 235.528Z" fill="#2BF2F1" stroke="#082422" stroke-miterlimit="10" stroke-linecap="round" stroke-linejoin="round"/>
<path d="M168.75 159.469L134.859 65.1393C134.1 63.0258 131.772 61.9292 129.659 62.6899L129.598 62.7118C127.486 63.4725 126.389 65.8024 127.148 67.9159L161.039 162.246C161.799 164.359 164.127 165.456 166.239 164.695L166.3 164.674C168.413 163.913 169.51 161.583 168.75 159.469Z" fill="white" stroke="#082422" stroke-miterlimit="10" stroke-linecap="round" stroke-linejoin="round"/>
<path d="M173.961 228.414L117.531 71.3677C116.772 69.2543 114.444 68.1575 112.332 68.918L112.271 68.9399C110.159 69.7004 109.062 72.0301 109.822 74.1436L166.251 231.19C167.01 233.304 169.338 234.4 171.45 233.64L171.511 233.618C173.623 232.858 174.72 230.528 173.961 228.414Z" fill="white" stroke="#082422" stroke-miterlimit="10" stroke-linecap="round" stroke-linejoin="round"/>
<path d="M187.749 48.9598L198.573 79.1007C199.668 82.1406 198.044 85.5131 194.949 86.6348L177.012 93.0926C173.917 94.2035 170.525 92.6387 169.429 89.5988L158.605 59.4579C157.51 56.418 159.134 53.0455 162.229 51.9238L180.166 45.4659C183.262 44.3551 186.653 45.9199 187.749 48.9598Z" fill="#FFCE9B" stroke="#082422" stroke-miterlimit="10" stroke-linecap="round" stroke-linejoin="round"/>
<path d="M199.319 78.8232L188.495 48.6823C187.248 45.2327 183.402 43.4536 179.886 44.7169L161.949 51.1748C158.444 52.438 156.594 56.2645 157.831 59.7249L168.655 89.8658C169.902 93.3154 173.747 95.0945 177.263 93.8313L195.2 87.3734C198.706 86.1101 200.555 82.2836 199.308 78.8232L199.319 78.8232ZM185.404 70.7629C185.404 70.7629 185.382 70.7846 185.361 70.7847C185.285 70.8281 185.22 70.8822 185.156 70.9472C185.145 70.958 185.134 70.9689 185.123 70.9905C185.07 71.0554 185.027 71.1311 184.994 71.2068C184.994 71.2068 184.984 71.2176 184.984 71.2284C183.846 74.7396 180.05 76.7161 176.497 75.6267C175.914 75.4451 175.363 75.1987 174.856 74.8658C174.845 74.8658 174.834 74.8658 174.812 74.8551C174.661 74.7693 174.488 74.7374 174.316 74.7596C174.283 74.7597 174.251 74.7598 174.219 74.7707C174.197 74.7708 174.165 74.7709 174.143 74.7818L166 77.722L163.494 70.7582L171.649 67.8178C171.649 67.8178 171.681 67.7961 171.703 67.7853C171.735 67.7744 171.767 67.7527 171.789 67.7311C171.853 67.6985 171.907 67.6443 171.961 67.5902C171.972 67.5794 171.983 67.5577 171.993 67.5469C172.047 67.482 172.09 67.4063 172.123 67.3199C172.123 67.3199 172.123 67.3199 172.123 67.2983C173.26 63.787 177.056 61.8105 180.598 62.8891C181.181 63.0707 181.732 63.3172 182.251 63.6501C182.251 63.6501 182.261 63.65 182.272 63.65C182.348 63.6929 182.423 63.7251 182.51 63.7464C182.531 63.7463 182.542 63.7571 182.564 63.757C182.639 63.7567 182.715 63.7565 182.78 63.7563C182.812 63.7562 182.844 63.7561 182.877 63.7452C182.898 63.7451 182.92 63.745 182.941 63.745L191.095 60.8046L193.601 67.7685L185.447 70.7088C185.447 70.7088 185.393 70.7414 185.371 70.7522L185.404 70.7629ZM182.492 90.2636L177.904 77.4893C180.203 77.6546 182.49 76.8593 184.192 75.2889L188.758 88.0094L182.492 90.2636ZM174.518 48.3281L179.084 61.0485C176.774 60.9264 174.509 61.7648 172.839 63.3675L168.251 50.5932L174.518 48.3389L174.518 48.3281ZM186.985 49.2268L190.607 59.3276L182.809 62.1373C182.204 61.7939 181.567 61.5262 180.897 61.3341L176.028 47.7836L180.417 46.2045C183.092 45.2461 186.03 46.5965 186.974 49.2268L186.985 49.2268ZM162.491 52.6624L166.741 51.1269L171.643 64.7744C171.288 65.3044 170.998 65.8665 170.783 66.4608L162.985 69.2704L159.362 59.1696C158.419 56.5392 159.827 53.6207 162.502 52.6515L162.491 52.6624ZM170.175 89.3213L166.553 79.2204L174.351 76.4107C174.902 76.7219 175.485 76.9791 176.09 77.1606L180.992 90.8081L176.743 92.3436C174.068 93.3019 171.13 91.9516 170.186 89.3212L170.175 89.3213ZM190.279 87.4648L185.409 73.9143C185.807 73.341 186.13 72.7248 186.377 72.0765L194.175 69.2668L197.798 79.3677C198.742 81.998 197.333 84.9166 194.658 85.8857L190.268 87.4649L190.279 87.4648Z" fill="#082422"/>
<g opacity="0.15">
<mask id="mask0_15015_18905" style="mask-type:luminance" maskUnits="userSpaceOnUse" x="80" y="3" width="244" height="298">
<path d="M81.1535 67.8911L161.673 293.429C163.618 298.878 169.613 301.713 175.063 299.761L316.264 249.187C321.714 247.235 324.555 241.236 322.61 235.787L242.09 10.2492C240.145 4.80057 234.15 1.96595 228.7 3.91793L87.4993 54.4911C82.0494 56.4431 79.2083 62.4425 81.1535 67.8911Z" fill="white"/>
</mask>
<g mask="url(#mask0_15015_18905)">
<path d="M179.963 385.406L233.738 602.871C234.622 606.452 233.478 610.23 230.726 612.695C222.978 619.644 205.365 633.523 180.761 641.402C155.423 649.519 118.345 650.249 101.435 650.11C96.3204 650.063 92.0691 646.152 91.5947 641.059L68.9757 398.075C68.9757 398.075 44.612 369.015 29.4216 329.292C19.9923 304.615 8.44963 261.002 5.55873 248.003C3.00223 236.492 1.71992 215.085 3.41492 205.532C6.63219 187.41 12.374 176.071 23.1341 159.46C31.1097 147.136 50.4709 123.078 67.2528 101.614C74.6886 92.0967 90.4656 86.1403 102.325 88.3903L210.147 108.812C217.323 110.172 221.553 117.656 219.027 124.522C213.77 138.817 198.803 137.38 188.681 138.02C166.279 139.442 143.64 134.574 143.64 134.574L196.197 207.591C200.124 213.056 198.732 220.86 192.936 224.3C189.041 226.614 184.077 227.042 178.282 226.661L198.188 265.622C200.4 269.882 196.979 277.343 191.194 280.178C185.216 283.121 180.608 282.092 175.591 279.498L180.822 307.699C181.89 313.46 178.209 319.044 172.501 320.346C165.951 321.855 161.494 319.843 156.552 313.926C150.542 306.736 136.355 268.652 132.028 268.367C127.701 268.081 95.026 262.881 95.026 262.881" fill="#082422"/>
</g>
</g>
<path d="M178.832 371.996L277.875 652.996C278.759 656.577 277.615 660.355 274.863 662.819C267.115 669.768 232.547 678.035 207.047 682.126C172.989 687.588 141.597 691.313 124.687 691.173C119.572 691.126 115.32 687.215 114.846 682.122L67.4099 389.766C67.4099 389.766 51.4198 350.629 34.5447 311.59C23.755 286.613 6.33022 238.662 3.43902 225.663C0.882251 214.153 -1.01625 202.794 0.678652 193.242C3.89573 175.12 11.7418 164.731 22.4911 148.12C30.4668 135.798 44.4214 116.291 61.2035 94.828C68.6394 85.3116 84.4169 79.3556 96.2764 81.6057L209.013 95.4391C216.189 96.7999 220.419 104.283 217.893 111.149C212.637 125.443 198.468 125.85 188.335 126.5C165.932 127.922 144.792 124.465 144.792 124.465L195.064 194.211C198.992 199.677 197.599 207.48 191.804 210.919C187.908 213.234 182.944 213.661 177.149 213.281L197.056 252.24C199.268 256.499 195.847 263.96 190.063 266.795C184.084 269.738 179.476 268.708 174.458 266.115L179.69 294.314C180.758 300.075 177.078 305.658 171.369 306.961C164.819 308.469 160.362 306.458 155.42 300.54C149.41 293.351 135.221 255.269 130.894 254.983C126.567 254.698 93.8908 249.497 93.8908 249.497" fill="#FFCE9B"/>
<path d="M178.832 371.996L277.875 652.996C278.759 656.577 277.615 660.355 274.863 662.819C267.115 669.768 232.547 678.035 207.047 682.126C172.989 687.588 141.597 691.313 124.687 691.173C119.572 691.126 115.32 687.215 114.846 682.122L67.4099 389.766C67.4099 389.766 51.4198 350.629 34.5447 311.59C23.755 286.613 6.33022 238.662 3.43902 225.663C0.882251 214.153 -1.01625 202.794 0.678652 193.242C3.89573 175.12 11.7418 164.731 22.4911 148.12C30.4668 135.798 44.4214 116.291 61.2035 94.828C68.6394 85.3116 84.4169 79.3556 96.2764 81.6057L209.013 95.4391C216.189 96.7999 220.419 104.283 217.893 111.149C212.637 125.443 198.468 125.85 188.335 126.5C165.932 127.922 144.792 124.465 144.792 124.465L195.064 194.211C198.992 199.677 197.599 207.48 191.804 210.919C187.908 213.234 182.944 213.661 177.149 213.281L197.056 252.24C199.268 256.499 195.847 263.96 190.063 266.795C184.084 269.738 179.476 268.708 174.458 266.115L179.69 294.314C180.758 300.075 177.078 305.658 171.369 306.961C164.819 308.469 160.362 306.458 155.42 300.54C149.41 293.351 135.221 255.269 130.894 254.983C126.567 254.698 93.8908 249.497 93.8908 249.497" stroke="#082422" stroke-miterlimit="10" stroke-linecap="round" stroke-linejoin="round"/>
<path d="M177.219 213.321C177.219 213.321 163.695 187.618 149.965 166.189C146.814 161.282 140.92 155.105 132.176 155.689C116.805 156.714 56.1913 165.808 56.1913 165.808" stroke="#082422" stroke-miterlimit="10" stroke-linecap="round" stroke-linejoin="round"/>
<path d="M174.578 266.216C174.578 266.216 168.492 234.038 163.701 216.851C162.427 212.287 161.24 207.69 154.3 206.178C128.879 200.621 50.1539 199.389 50.1539 199.389" stroke="#082422" stroke-miterlimit="10" stroke-linecap="round" stroke-linejoin="round"/>
<path d="M164.467 278.305C163.786 284.576 167.541 299.031 167.541 299.031C167.541 299.031 175.916 299.969 179.758 298.583C180.028 297.244 180.06 295.841 179.791 294.417L175.605 271.815C172.659 272.078 165.018 273.243 164.467 278.294L164.467 278.305Z" fill="#FFCE9B" stroke="#082422" stroke-miterlimit="10" stroke-linecap="round" stroke-linejoin="round"/>
<path d="M197.198 252.329L186.094 230.598C184.378 231.291 175.83 235.048 177.06 240.485C178.419 246.527 186.523 258.764 186.523 258.764C186.523 258.764 194.726 256.94 197.802 254.4C197.705 253.655 197.522 252.954 197.198 252.329Z" fill="#FFCE9B" stroke="#082422" stroke-miterlimit="10" stroke-linecap="round" stroke-linejoin="round"/>
<path d="M196.899 197.8C196.532 196.592 195.971 195.416 195.194 194.327L181.682 175.568C179.664 176.725 172.173 181.441 174.029 186.586C176.176 192.508 185.922 203.815 185.922 203.815C185.922 203.815 194.276 200.815 196.899 197.8Z" fill="#FFCE9B" stroke="#082422" stroke-miterlimit="10" stroke-linecap="round" stroke-linejoin="round"/>
<path d="M185.159 105.88C191.257 108.538 207.017 109.272 207.017 109.272C207.017 109.272 211.152 99.887 210.321 95.9485C209.48 95.6366 208.594 95.422 207.655 95.3046L182.235 92.2629C181.608 94.9729 180.032 103.642 185.17 105.88L185.159 105.88Z" fill="#FFCE9B" stroke="#082422" stroke-miterlimit="10" stroke-linecap="round" stroke-linejoin="round"/>
<path d="M55.1563 257.891C55.4477 257.89 82.2397 257.951 93.974 249.581C83.0287 246.455 70.2272 236.596 69.6335 236.144" stroke="#082422" stroke-miterlimit="10" stroke-linecap="round" stroke-linejoin="round"/>
<path d="M147.6 128.484C147.6 128.484 144.502 124.213 143.368 122.897C139.558 118.487 137.604 116.751 125.48 118.138C110.171 119.886 75.375 130.598 75.375 130.598" stroke="#082422" stroke-miterlimit="10" stroke-linecap="round" stroke-linejoin="round"/>
<path d="M131.609 255.012C131.609 255.012 134.168 247.292 139.964 240.928" stroke="#082422" stroke-miterlimit="10" stroke-linecap="round" stroke-linejoin="round"/>
</g>
<defs>
<clipPath id="clip0_15015_18905">
<rect width="326.426" height="691.344" fill="white"/>
</clipPath>
</defs>
</svg>
