<svg width="408" height="690" viewBox="0 0 408 690" fill="none" xmlns="http://www.w3.org/2000/svg">
<g clip-path="url(#clip0_15015_18869)">
<path d="M202.841 306.577C203.02 307.449 203.269 308.731 203.551 310.367C204.113 313.639 204.803 318.329 205.309 323.99C206.322 335.314 206.6 350.506 203.672 366.008C201.158 379.32 195.181 393.329 189.817 404.031C187.137 409.377 184.614 413.889 182.762 417.063C181.836 418.65 181.078 419.903 180.552 420.757C180.289 421.185 180.084 421.513 179.945 421.734C179.942 421.738 179.939 421.743 179.937 421.747L160.757 418.672L84.572 276.716L156.944 247.367L202.583 305.373C202.595 305.427 202.611 305.497 202.63 305.585C202.679 305.808 202.751 306.142 202.841 306.577Z" fill="#FFCE9B" stroke="#082422" stroke-width="1.16351" stroke-miterlimit="10" stroke-linecap="round" stroke-linejoin="round"/>
<path opacity="0.15" d="M202.774 306.24C202.913 306.903 203.109 307.882 203.336 309.138C203.791 311.652 204.371 315.279 204.875 319.727C205.866 328.463 206.559 340.355 205.419 353.193C196.932 350.495 188.434 347.851 180.056 344.981L172.701 311.149L202.105 304.757L202.586 305.369C202.593 305.402 202.602 305.442 202.612 305.487C202.65 305.656 202.705 305.909 202.774 306.24Z" fill="black" stroke="#082422" stroke-width="1.16351" stroke-linecap="round" stroke-linejoin="round"/>
<path d="M104.495 280.53C104.419 280.405 104.421 280.248 104.501 280.125C116.067 262.441 127.638 244.755 139.208 227.069C150.777 209.383 162.347 191.698 173.914 174.014C173.985 173.906 174.106 173.841 174.235 173.842C174.364 173.844 174.484 173.912 174.551 174.022C197.753 211.778 236.492 225.792 275.384 239.848C314.234 253.89 353.238 267.974 376.594 305.986C376.67 306.11 376.667 306.268 376.588 306.39C365.021 324.074 353.452 341.76 341.882 359.446C330.312 377.131 318.742 394.818 307.176 412.502C307.105 412.61 306.983 412.674 306.854 412.672C306.725 412.67 306.606 412.602 306.538 412.492C283.337 374.737 244.598 360.724 205.706 346.667C166.855 332.626 127.851 318.542 104.495 280.53Z" fill="#60D06F" stroke="#082422" stroke-width="0.754734" stroke-miterlimit="10" stroke-linecap="round" stroke-linejoin="round"/>
<path d="M135.184 261.703C134.748 262.365 134.613 263.203 134.704 263.999C134.795 264.797 135.116 265.593 135.637 266.183C135.653 266.201 135.672 266.214 135.69 266.228C142.35 273.813 144.232 285.23 138.923 293.338L138.922 293.339C138.307 294.286 138.428 295.679 139.357 296.426L139.357 296.427C161.099 313.881 187.915 323.558 214.65 333.224C241.408 342.898 268.085 352.562 289.683 369.971L289.683 369.972C290.632 370.735 291.915 370.449 292.549 369.474L292.55 369.475C295.188 365.442 299.123 363.008 303.206 362.513C307.155 362.035 311.268 363.367 314.522 366.871L314.835 367.217L314.835 367.218C315.309 367.753 315.922 368.073 316.547 368.084C317.185 368.096 317.782 367.785 318.188 367.164L345.9 324.821C346.298 324.211 346.423 323.448 346.344 322.722C346.264 321.996 345.977 321.272 345.504 320.729L345.503 320.727C338.821 313.125 336.91 301.658 342.231 293.53C342.918 292.484 342.799 290.91 341.753 290.084L341.754 290.084C320.078 272.672 293.352 262.998 266.691 253.36C240.006 243.713 213.386 234.1 191.79 216.826L191.789 216.827C190.728 215.974 189.298 216.316 188.604 217.393C185.966 221.425 182.031 223.86 177.946 224.358C173.866 224.855 169.61 223.426 166.298 219.678C165.779 219.09 165.108 218.742 164.429 218.729C163.737 218.716 163.085 219.051 162.642 219.723L162.641 219.724L135.183 261.703L135.184 261.703Z" fill="#80E58A" stroke="black" stroke-width="0.754734" stroke-miterlimit="10" stroke-linecap="round" stroke-linejoin="round"/>
<path d="M173.503 275.98C172.497 271.299 173.007 267.039 175.207 263.681C177.483 260.204 181.31 258.057 186.324 256.983C191.021 255.976 196.806 255.865 203.443 256.4L204.781 256.515L204.784 256.516C219.138 257.926 237.747 261.744 256.654 268.463C275.575 275.187 290.632 284.512 299.22 294.852C303.542 299.972 306.328 305.243 307.472 310.093C308.616 314.943 308.141 319.382 305.87 322.848L305.869 322.847C303.594 326.324 299.767 328.472 294.753 329.546C289.744 330.62 283.506 330.678 276.295 330.013L276.293 330.013C261.939 328.603 243.33 324.785 224.423 318.066C205.796 311.446 190.912 302.306 182.261 292.158L181.854 291.675C177.533 286.555 174.749 281.285 173.605 276.435L173.503 275.98Z" fill="#60D06F" stroke="#082422" stroke-width="0.754734" stroke-miterlimit="10" stroke-linecap="round" stroke-linejoin="round"/>
<path opacity="0.25" d="M175.977 183.336C168.751 195.403 161.538 207.478 154.312 219.544C153.017 238.637 151.723 257.729 150.429 276.822C217.167 313.992 289.91 262.571 357.762 283.349C306.759 233.994 218.562 246.781 175.977 183.336Z" fill="black"/>
<path d="M148.871 267.676C148.744 267.605 148.67 267.466 148.68 267.32C150.236 246.247 151.794 225.169 153.352 204.093C154.91 183.016 156.468 161.94 158.023 140.866C158.033 140.737 158.107 140.622 158.221 140.561C158.335 140.5 158.473 140.502 158.585 140.565C197.168 162.362 237.849 155.863 278.683 149.327C319.474 142.797 360.42 136.231 399.262 158.177C399.389 158.249 399.463 158.388 399.452 158.534C397.897 179.607 396.339 200.684 394.782 221.76C393.224 242.837 391.666 263.914 390.11 284.988C390.101 285.116 390.025 285.231 389.911 285.292C389.797 285.353 389.661 285.351 389.548 285.288C350.965 263.491 310.285 269.991 269.451 276.527C228.66 283.057 187.714 289.623 148.871 267.676Z" fill="#60D06F" stroke="#082422" stroke-width="0.754734" stroke-miterlimit="10" stroke-linecap="round" stroke-linejoin="round"/>
<path d="M166.609 236.341C166.548 237.132 166.836 237.93 167.301 238.582C167.767 239.236 168.433 239.777 169.175 240.041C169.197 240.049 169.22 240.052 169.243 240.056C178.743 243.466 185.918 252.544 185.2 262.208L185.199 262.21C185.12 263.337 185.901 264.496 187.075 264.7L187.075 264.701C214.551 269.443 242.699 264.922 270.77 260.432C298.866 255.938 326.887 251.474 354.214 256.246L354.214 256.247C355.414 256.455 356.398 255.583 356.481 254.424L356.482 254.424C356.837 249.618 359.101 245.583 362.434 243.173C365.657 240.842 369.9 240.015 374.444 241.505L374.886 241.656L374.887 241.657C375.56 241.896 376.251 241.879 376.804 241.586C377.368 241.287 377.739 240.725 377.794 239.986L381.534 189.519C381.587 188.793 381.326 188.064 380.906 187.468C380.485 186.872 379.882 186.377 379.205 186.131L379.203 186.129C369.676 182.714 362.45 173.607 363.17 163.919C363.265 162.671 362.399 161.352 361.083 161.135L361.084 161.135C333.687 156.398 305.619 160.878 277.625 165.356C249.607 169.838 221.661 174.319 194.401 169.664L194.401 169.666C193.06 169.434 191.974 170.425 191.888 171.703C191.533 176.509 189.27 180.545 185.936 182.959C182.608 185.37 178.192 186.181 173.479 184.505C172.74 184.242 171.985 184.263 171.384 184.581C170.772 184.904 170.365 185.513 170.302 186.315L170.302 186.317L166.608 236.341L166.609 236.341Z" fill="#80E58A" stroke="black" stroke-width="0.754734" stroke-miterlimit="10" stroke-linecap="round" stroke-linejoin="round"/>
<path d="M207.045 230.277C203.898 226.669 202.281 222.695 202.58 218.692C202.887 214.548 205.196 210.816 209.062 207.447C212.684 204.292 217.692 201.394 223.757 198.647L224.984 198.099L224.987 198.099C238.229 192.382 256.359 186.71 276.155 183.433C295.965 180.153 313.655 181.019 326.176 185.907C332.437 188.294 337.427 191.556 340.777 195.245C344.127 198.935 345.86 203.048 345.552 207.18L345.551 207.18C345.244 211.324 342.936 215.056 339.07 218.425C335.207 221.79 329.777 224.861 323.146 227.772L323.145 227.773C309.903 233.49 291.773 239.162 271.977 242.44C252.474 245.669 235.026 244.879 222.542 240.191L221.952 239.965C215.692 237.578 210.704 234.315 207.355 230.626L207.045 230.277Z" fill="#60D06F" stroke="#082422" stroke-width="0.754734" stroke-miterlimit="10" stroke-linecap="round" stroke-linejoin="round"/>
<path opacity="0.15" d="M168.075 141.275C166.554 163.659 165.033 186.044 163.523 208.426C170.019 220.72 176.515 233.013 183.012 245.307C256.866 241.938 291.87 165.032 356.264 143.747C294.013 135.884 228.582 174.979 168.088 141.283L168.075 141.275Z" fill="black"/>
<path d="M177.068 244.728C176.923 244.739 176.784 244.665 176.711 244.538C166.283 226.16 155.855 207.777 145.427 189.395C134.999 171.012 124.571 152.63 114.143 134.252C114.079 134.139 114.077 134.002 114.138 133.888C114.199 133.774 114.314 133.699 114.443 133.689C158.631 130.343 188.823 102.316 219.123 74.1728C249.391 46.0587 279.767 17.8277 324.254 14.4629C324.399 14.4521 324.538 14.5265 324.61 14.6535C335.038 33.0317 345.467 51.4135 355.895 69.7956C366.323 88.178 376.751 106.561 387.179 124.939C387.243 125.052 387.244 125.189 387.183 125.303C387.122 125.417 387.008 125.491 386.879 125.501C342.691 128.847 312.499 156.874 282.199 185.018C251.931 213.132 221.555 241.363 177.068 244.728Z" fill="#60D06F" stroke="#082422" stroke-width="0.754734" stroke-miterlimit="10" stroke-linecap="round" stroke-linejoin="round"/>
<path d="M174.378 208.82C174.768 209.511 175.451 210.014 176.2 210.298C176.951 210.582 177.805 210.661 178.569 210.468C178.592 210.462 178.612 210.451 178.633 210.442C188.425 207.993 199.437 211.545 204.216 219.977L204.216 219.978C204.777 220.959 206.071 221.488 207.16 221.005L207.161 221.005C232.632 209.664 253.51 190.251 274.342 170.907C295.191 151.545 315.994 132.251 341.359 121.017L341.36 121.018C342.473 120.524 342.806 119.252 342.229 118.242L342.231 118.242C339.853 114.05 339.49 109.437 340.919 105.581C342.301 101.851 345.368 98.8036 349.973 97.5144L350.424 97.3949L350.425 97.3946C351.117 97.2189 351.682 96.8204 351.979 96.2697C352.281 95.7079 352.278 95.0341 351.912 94.389L326.95 50.3688C326.591 49.7353 325.969 49.275 325.288 49.0135C324.606 48.7518 323.83 48.6759 323.131 48.8478L323.128 48.8475C313.311 51.3088 302.241 47.7589 297.451 39.3073C296.835 38.2174 295.382 37.603 294.168 38.1542C268.766 49.4556 247.931 68.789 227.158 88.0809C206.366 107.39 185.634 126.657 160.39 137.95L160.391 137.951C159.147 138.504 158.796 139.933 159.436 141.042C161.814 145.234 162.177 149.846 160.75 153.707C159.325 157.561 156.106 160.692 151.257 161.92C150.497 162.112 149.881 162.55 149.558 163.148C149.23 163.757 149.229 164.49 149.624 165.192L149.624 165.193L174.378 208.82L174.378 208.82Z" fill="#80E58A" stroke="black" stroke-width="0.754734" stroke-miterlimit="10" stroke-linecap="round" stroke-linejoin="round"/>
<path d="M204.62 181.292C199.997 180.045 196.443 177.641 194.465 174.148C192.415 170.533 192.258 166.148 193.598 161.198C194.853 156.561 197.402 151.367 200.916 145.711L201.631 144.573L201.633 144.571C209.458 132.455 221.371 117.658 235.999 103.924C250.638 90.1796 265.821 81.0608 278.945 78.1586C285.476 76.6599 291.437 76.5953 296.273 77.7985C301.109 79.0015 304.838 81.4556 306.879 85.0611L306.879 85.0618C308.928 88.6765 309.086 93.0616 307.746 98.0115C306.408 102.957 303.604 108.529 299.712 114.636L299.712 114.638C291.887 126.754 279.974 141.551 265.346 155.285C250.934 168.816 235.994 177.865 223.012 180.912L222.396 181.052C215.866 182.551 209.906 182.613 205.071 181.41L204.62 181.292Z" fill="#60D06F" stroke="#082422" stroke-width="0.754734" stroke-miterlimit="10" stroke-linecap="round" stroke-linejoin="round"/>
<mask id="path-14-inside-1_15015_18869" fill="white">
<path d="M182.464 418.7L221.518 655.739C222.148 659.338 220.753 663.004 217.855 665.245C209.71 671.573 187 680.156 152 680.16C123.5 680.16 103.034 676.416 86.2985 675.08C81.2352 674.669 77.3039 670.495 77.1879 665.426L71.7359 423.348C71.7359 423.348 49.6495 392.861 37.3952 352.469C29.7804 327.37 21.4013 283.385 19.449 270.323C17.721 258.746 17.95 237.475 20.2933 228.146C24.7479 210.437 31.218 199.63 43.0183 183.962C51.774 172.329 72.6002 149.9 90.7028 129.859C98.7294 120.971 114.749 116.196 126.329 119.266L231.596 147.15C238.605 149.001 242.265 156.718 239.286 163.325C233.088 177.096 218.381 174.608 208.318 174.528C186.048 174.341 163.986 167.907 163.986 167.907L210.911 243.906C214.426 249.595 212.489 257.214 206.523 260.209C202.502 262.223 197.566 262.299 191.86 261.501L208.843 301.468C210.736 305.844 206.832 312.982 200.91 315.376C194.789 317.857 190.302 316.521 185.514 313.595L188.715 341.878C189.368 347.652 185.342 352.92 179.597 353.808C173.006 354.835 168.747 352.529 164.263 346.317C158.81 338.771 147.438 300.071 143.17 299.487C138.912 298.901 106.941 291.433 106.941 291.433"/>
</mask>
<path d="M182.464 418.7L221.518 655.739C222.148 659.338 220.753 663.004 217.855 665.245C209.71 671.573 187 680.156 152 680.16C123.5 680.16 103.034 676.416 86.2985 675.08C81.2352 674.669 77.3039 670.495 77.1879 665.426L71.7359 423.348C71.7359 423.348 49.6495 392.861 37.3952 352.469C29.7804 327.37 21.4013 283.385 19.449 270.323C17.721 258.746 17.95 237.475 20.2933 228.146C24.7479 210.437 31.218 199.63 43.0183 183.962C51.774 172.329 72.6002 149.9 90.7028 129.859C98.7294 120.971 114.749 116.196 126.329 119.266L231.596 147.15C238.605 149.001 242.265 156.718 239.286 163.325C233.088 177.096 218.381 174.608 208.318 174.528C186.048 174.341 163.986 167.907 163.986 167.907L210.911 243.906C214.426 249.595 212.489 257.214 206.523 260.209C202.502 262.223 197.566 262.299 191.86 261.501L208.843 301.468C210.736 305.844 206.832 312.982 200.91 315.376C194.789 317.857 190.302 316.521 185.514 313.595L188.715 341.878C189.368 347.652 185.342 352.92 179.597 353.808C173.006 354.835 168.747 352.529 164.263 346.317C158.81 338.771 147.438 300.071 143.17 299.487C138.912 298.901 106.941 291.433 106.941 291.433" fill="#FFCE9B"/>
<path d="M183.612 418.511C183.508 417.877 182.909 417.448 182.275 417.552C181.641 417.657 181.211 418.256 181.316 418.89L182.464 418.7L183.612 418.511ZM221.518 655.739L220.37 655.928L220.372 655.939L221.518 655.739ZM217.855 665.245L217.144 664.325L217.141 664.326L217.855 665.245ZM152 680.16L152 681.324L152 681.324L152 680.16ZM86.2985 675.08L86.2044 676.24L86.2059 676.24L86.2985 675.08ZM77.1879 665.426L76.0247 665.452L76.0247 665.452L77.1879 665.426ZM71.7359 423.348L72.8991 423.322C72.8938 423.086 72.8167 422.857 72.6781 422.665L71.7359 423.348ZM37.3952 352.469L38.5086 352.131V352.131L37.3952 352.469ZM19.449 270.323L18.2983 270.495L18.2983 270.495L19.449 270.323ZM20.2933 228.146L19.165 227.862L19.1649 227.862L20.2933 228.146ZM43.0183 183.962L43.9478 184.662L43.9479 184.661L43.0183 183.962ZM90.7028 129.859L91.5662 130.639L91.5663 130.639L90.7028 129.859ZM126.329 119.266L126.031 120.39L126.031 120.391L126.329 119.266ZM231.596 147.15L231.298 148.275L231.299 148.275L231.596 147.15ZM239.286 163.325L238.226 162.847L238.225 162.848L239.286 163.325ZM208.318 174.528L208.308 175.691L208.308 175.691L208.318 174.528ZM163.986 167.907L164.312 166.79C163.85 166.655 163.352 166.819 163.06 167.202C162.769 167.585 162.743 168.108 162.996 168.518L163.986 167.907ZM210.911 243.906L209.921 244.517L209.921 244.518L210.911 243.906ZM206.523 260.209L207.044 261.249L207.045 261.249L206.523 260.209ZM191.86 261.501L192.021 260.349C191.606 260.291 191.192 260.461 190.937 260.794C190.682 261.126 190.625 261.571 190.789 261.956L191.86 261.501ZM208.843 301.468L207.772 301.923L207.775 301.93L208.843 301.468ZM200.91 315.376L200.474 314.297L200.473 314.297L200.91 315.376ZM185.514 313.595L186.12 312.603C185.741 312.371 185.263 312.376 184.888 312.614C184.514 312.853 184.308 313.285 184.358 313.726L185.514 313.595ZM188.715 341.878L189.871 341.747L189.871 341.747L188.715 341.878ZM179.597 353.808L179.419 352.658L179.418 352.658L179.597 353.808ZM164.263 346.317L165.206 345.636L165.206 345.636L164.263 346.317ZM143.17 299.487L143.011 300.64L143.012 300.64L143.17 299.487ZM107.206 290.3C106.58 290.154 105.954 290.543 105.808 291.169C105.662 291.795 106.051 292.42 106.677 292.566L106.941 291.433L107.206 290.3ZM182.464 418.7L181.316 418.89L220.37 655.928L221.518 655.739L222.666 655.55L183.612 418.511L182.464 418.7ZM221.518 655.739L220.372 655.939C220.928 659.119 219.696 662.352 217.144 664.325L217.855 665.245L218.567 666.166C221.811 663.657 223.367 659.557 222.665 655.538L221.518 655.739ZM217.855 665.245L217.141 664.326C213.24 667.358 205.692 671.033 194.7 673.95C183.733 676.859 169.406 678.995 152 678.997L152 680.16L152 681.324C169.594 681.322 184.122 679.164 195.297 676.199C206.446 673.241 214.326 669.461 218.569 666.164L217.855 665.245ZM152 680.16L152 678.997C123.552 678.997 103.267 675.267 86.3911 673.92L86.2985 675.08L86.2059 676.24C102.8 677.565 123.448 681.324 152 681.324L152 680.16ZM86.2985 675.08L86.3927 673.921C81.9237 673.558 78.4535 669.873 78.3511 665.399L77.1879 665.426L76.0247 665.452C76.1543 671.117 80.5467 675.781 86.2044 676.24L86.2985 675.08ZM77.1879 665.426L78.3511 665.4L72.8991 423.322L71.7359 423.348L70.5727 423.374L76.0247 665.452L77.1879 665.426ZM71.7359 423.348C72.6781 422.665 72.6782 422.665 72.6781 422.665C72.678 422.665 72.6779 422.665 72.6776 422.665C72.6771 422.664 72.6763 422.663 72.6751 422.661C72.6727 422.658 72.669 422.653 72.664 422.646C72.654 422.632 72.6388 422.611 72.6183 422.582C72.5775 422.525 72.5161 422.439 72.4351 422.324C72.273 422.095 72.0326 421.752 71.7215 421.3C71.0993 420.395 70.1946 419.055 69.0697 417.32C66.8198 413.85 63.6898 408.799 60.1775 402.49C53.1506 389.866 44.6046 372.225 38.5086 352.131L37.3952 352.469L36.2818 352.806C42.44 373.105 51.0644 390.903 58.1443 403.621C61.6853 409.983 64.8429 415.078 67.1171 418.586C68.2543 420.34 69.1709 421.698 69.8044 422.619C70.1212 423.079 70.3672 423.43 70.5347 423.667C70.6184 423.786 70.6825 423.876 70.726 423.936C70.7477 423.967 70.7643 423.99 70.7757 424.006C70.7813 424.013 70.7856 424.019 70.7887 424.024C70.7902 424.026 70.7913 424.027 70.7922 424.028C70.7926 424.029 70.793 424.03 70.7932 424.03C70.7935 424.03 70.7937 424.031 71.7359 423.348ZM37.3952 352.469L38.5086 352.131C30.9166 327.107 22.5476 283.184 20.5997 270.151L19.449 270.323L18.2983 270.495C20.255 283.587 28.6443 327.633 36.2818 352.806L37.3952 352.469ZM19.449 270.323L20.5998 270.151C19.7486 264.449 19.3742 256.306 19.5078 248.411C19.6416 240.498 20.2841 232.958 21.4218 228.429L20.2933 228.146L19.1649 227.862C17.9593 232.662 17.3156 240.422 17.1811 248.372C17.0463 256.338 17.4213 264.62 18.2983 270.495L19.449 270.323ZM20.2933 228.146L21.4217 228.43C25.8238 210.929 32.1966 200.265 43.9478 184.662L43.0183 183.962L42.0889 183.262C30.2394 198.996 23.672 209.945 19.165 227.862L20.2933 228.146ZM43.0183 183.962L43.9479 184.661C52.6621 173.084 73.4262 150.721 91.5662 130.639L90.7028 129.859L89.8394 129.079C71.7742 149.079 50.8859 171.575 42.0887 183.262L43.0183 183.962ZM90.7028 129.859L91.5663 130.639C95.4038 126.39 101.212 123.069 107.515 121.193C113.819 119.318 120.495 118.923 126.031 120.39L126.329 119.266L126.627 118.141C120.583 116.539 113.459 116.997 106.852 118.963C100.244 120.929 94.0284 124.441 89.8393 129.08L90.7028 129.859ZM126.329 119.266L126.031 120.391L231.298 148.275L231.596 147.15L231.894 146.025L126.627 118.141L126.329 119.266ZM231.596 147.15L231.299 148.275C237.61 149.941 240.91 156.893 238.226 162.847L239.286 163.325L240.347 163.803C243.62 156.542 239.599 148.06 231.893 146.025L231.596 147.15ZM239.286 163.325L238.225 162.848C235.318 169.307 230.466 171.941 225.034 172.978C219.474 174.038 213.519 173.406 208.327 173.364L208.318 174.528L208.308 175.691C213.181 175.73 219.61 176.382 225.47 175.264C231.457 174.121 237.057 171.114 240.347 163.803L239.286 163.325ZM208.318 174.528L208.327 173.364C197.291 173.272 186.286 171.63 178.025 170.006C173.898 169.194 170.464 168.389 168.064 167.787C166.864 167.486 165.923 167.236 165.284 167.061C164.964 166.974 164.719 166.906 164.556 166.86C164.474 166.836 164.412 166.819 164.371 166.807C164.351 166.801 164.336 166.797 164.326 166.794C164.321 166.793 164.317 166.791 164.315 166.791C164.314 166.79 164.313 166.79 164.312 166.79C164.312 166.79 164.312 166.79 164.312 166.79C164.312 166.79 164.312 166.79 163.986 167.907C163.66 169.024 163.661 169.024 163.661 169.024C163.661 169.024 163.662 169.024 163.662 169.024C163.663 169.025 163.664 169.025 163.666 169.025C163.669 169.026 163.673 169.028 163.679 169.029C163.69 169.033 163.707 169.037 163.729 169.044C163.773 169.056 163.838 169.075 163.923 169.099C164.093 169.147 164.345 169.217 164.672 169.306C165.325 169.484 166.282 169.739 167.498 170.044C169.93 170.654 173.404 171.468 177.576 172.289C185.914 173.928 197.074 175.597 208.308 175.691L208.318 174.528ZM163.986 167.907L162.996 168.518L209.921 244.517L210.911 243.906L211.901 243.295L164.976 167.296L163.986 167.907ZM210.911 243.906L209.921 244.518C213.099 249.66 211.321 256.498 206.001 259.169L206.523 260.209L207.045 261.249C213.657 257.929 215.754 249.53 211.901 243.294L210.911 243.906ZM206.523 260.209L206.002 259.169C202.306 261.019 197.666 261.138 192.021 260.349L191.86 261.501L191.699 262.654C197.467 263.46 202.697 263.426 207.044 261.249L206.523 260.209ZM191.86 261.501L190.789 261.956L207.772 301.923L208.843 301.468L209.914 301.013L192.931 261.046L191.86 261.501ZM208.843 301.468L207.775 301.93C208.52 303.652 208.18 306.129 206.793 308.595C205.425 311.028 203.158 313.212 200.474 314.297L200.91 315.376L201.346 316.454C204.584 315.145 207.23 312.564 208.821 309.736C210.393 306.941 211.059 303.661 209.91 301.006L208.843 301.468ZM200.91 315.376L200.473 314.297C197.584 315.468 195.145 315.717 192.892 315.363C190.619 315.007 188.451 314.026 186.12 312.603L185.514 313.595L184.907 314.588C187.365 316.09 189.834 317.24 192.532 317.662C195.25 318.088 198.115 317.764 201.347 316.454L200.91 315.376ZM185.514 313.595L184.358 313.726L187.559 342.009L188.715 341.878L189.871 341.747L186.67 313.465L185.514 313.595ZM188.715 341.878L187.559 342.008C188.142 347.162 184.548 351.866 179.419 352.658L179.597 353.808L179.775 354.958C186.136 353.975 190.594 348.142 189.871 341.747L188.715 341.878ZM179.597 353.808L179.418 352.658C176.303 353.144 173.846 352.83 171.66 351.737C169.447 350.63 167.394 348.668 165.206 345.636L164.263 346.317L163.319 346.998C165.615 350.179 167.934 352.475 170.619 353.818C173.332 355.174 176.3 355.499 179.776 354.957L179.597 353.808ZM164.263 346.317L165.206 345.636C163.941 343.885 162.257 340.191 160.345 335.462C158.452 330.779 156.394 325.237 154.36 319.878C152.332 314.537 150.328 309.374 148.558 305.505C147.675 303.576 146.831 301.926 146.055 300.726C145.668 300.128 145.273 299.601 144.871 299.201C144.496 298.828 143.975 298.423 143.328 298.334L143.17 299.487L143.012 300.64C142.898 300.624 142.967 300.59 143.23 300.851C143.466 301.086 143.758 301.458 144.101 301.989C144.785 303.047 145.573 304.575 146.441 306.473C148.175 310.261 150.154 315.354 152.184 320.704C154.208 326.037 156.282 331.621 158.188 336.335C160.076 341.003 161.858 344.976 163.32 346.999L164.263 346.317ZM143.17 299.487L143.329 298.334C141.265 298.05 132.281 296.055 123.717 294.106C119.456 293.136 115.329 292.185 112.266 291.476C110.734 291.121 109.469 290.827 108.587 290.622C108.146 290.52 107.8 290.439 107.565 290.384C107.448 290.357 107.358 290.336 107.297 290.322C107.267 290.315 107.244 290.309 107.229 290.306C107.221 290.304 107.215 290.303 107.212 290.302C107.21 290.301 107.208 290.301 107.207 290.301C107.207 290.301 107.206 290.301 107.206 290.301C107.206 290.3 107.206 290.3 106.941 291.433C106.677 292.566 106.677 292.567 106.677 292.567C106.677 292.567 106.678 292.567 106.678 292.567C106.679 292.567 106.68 292.567 106.682 292.568C106.686 292.569 106.692 292.57 106.7 292.572C106.715 292.576 106.738 292.581 106.769 292.588C106.829 292.602 106.919 292.623 107.037 292.651C107.272 292.705 107.618 292.786 108.06 292.889C108.942 293.094 110.208 293.388 111.741 293.743C114.805 294.452 118.936 295.404 123.201 296.375C131.687 298.306 140.817 300.338 143.011 300.64L143.17 299.487Z" fill="#082422" mask="url(#path-14-inside-1_15015_18869)"/>
<g opacity="0.15">
<path d="M182.638 354.757L182.638 354.758C183.255 360.222 179.446 365.208 174.009 366.047L174.008 366.048C170.809 366.546 168.224 366.229 165.905 365.071C163.573 363.906 161.45 361.86 159.235 358.792L159.235 358.791C157.921 356.975 156.213 353.212 154.306 348.499C152.409 343.81 150.346 338.257 148.314 332.905C146.285 327.561 144.286 322.414 142.526 318.565C141.647 316.643 140.817 315.023 140.064 313.858C139.689 313.277 139.32 312.788 138.96 312.429C138.614 312.084 138.207 311.789 137.75 311.726C133.632 311.159 97.0804 306.894 71.3536 297.545L83.0109 297.759L83.0249 297.759C83.3864 297.757 83.7742 297.753 84.1612 297.726L84.1619 297.725C89.8379 297.352 91.7141 297.241 102.259 294.554L102.26 294.553L102.704 294.43C103.736 294.119 104.722 293.66 105.625 293.058L105.626 293.057L107.09 292.077C107.124 292.085 107.162 292.095 107.204 292.104C107.439 292.159 107.785 292.24 108.226 292.343C109.109 292.548 110.374 292.842 111.906 293.197C114.971 293.906 119.101 294.858 123.365 295.828C131.87 297.764 140.963 299.786 143.125 300.084L143.126 300.084C143.203 300.094 143.384 300.17 143.674 300.459C143.952 300.735 144.27 301.146 144.624 301.694C145.331 302.787 146.133 304.346 147.005 306.252C148.748 310.06 150.733 315.17 152.763 320.518C154.79 325.857 156.859 331.431 158.762 336.137C160.656 340.82 162.414 344.724 163.826 346.679L163.827 346.678C166.096 349.821 168.346 352.032 170.913 353.315C173.494 354.604 176.334 354.926 179.721 354.403C180.704 354.252 181.637 353.973 182.507 353.592L182.638 354.757Z" fill="black" stroke="#082422" stroke-width="1.16351" stroke-linecap="round" stroke-linejoin="round"/>
<path d="M202.975 315.003C203.556 316.895 203.094 319.336 201.78 321.671C200.445 324.044 198.287 326.203 195.697 327.408L195.173 327.635C192.431 328.751 190.05 329.063 187.843 328.81L186.239 314.691C188.323 315.872 190.407 316.743 192.638 317.092C195.211 317.496 197.937 317.2 201.04 315.961C201.076 315.953 201.112 315.944 201.147 315.93C201.78 315.673 202.391 315.359 202.975 315.003Z" fill="black" stroke="#082422" stroke-width="1.16351" stroke-linecap="round" stroke-linejoin="round"/>
</g>
<mask id="path-18-inside-2_15015_18869" fill="white">
<path d="M191.814 261.428C191.814 261.428 180.225 235.035 168.14 212.858C165.37 207.774 159.974 201.246 151.278 201.208C135.998 201.122 75.4023 205.816 75.4023 205.816"/>
</mask>
<path d="M190.748 261.896C191.007 262.484 191.693 262.752 192.281 262.493C192.87 262.235 193.137 261.549 192.879 260.96L191.814 261.428L190.748 261.896ZM168.14 212.858L169.162 212.301L169.162 212.301L168.14 212.858ZM151.278 201.208L151.271 202.371L151.272 202.371L151.278 201.208ZM75.3125 204.656C74.6718 204.706 74.1927 205.265 74.2423 205.906C74.2919 206.547 74.8515 207.026 75.4922 206.976L75.4023 205.816L75.3125 204.656ZM191.814 261.428C192.879 260.96 192.879 260.96 192.879 260.96C192.879 260.96 192.879 260.959 192.878 260.959C192.878 260.958 192.877 260.957 192.877 260.955C192.875 260.952 192.873 260.947 192.87 260.94C192.865 260.927 192.856 260.908 192.845 260.883C192.822 260.831 192.789 260.756 192.745 260.656C192.657 260.456 192.526 260.161 192.355 259.777C192.014 259.011 191.513 257.891 190.874 256.478C189.597 253.653 187.768 249.655 185.562 244.964C181.15 235.584 175.22 223.418 169.162 212.301L168.14 212.858L167.119 213.415C173.146 224.474 179.053 236.594 183.456 245.955C185.657 250.633 187.481 254.62 188.754 257.437C189.391 258.845 189.889 259.961 190.229 260.724C190.399 261.105 190.529 261.399 190.616 261.596C190.66 261.695 190.693 261.77 190.715 261.821C190.726 261.846 190.735 261.865 190.74 261.877C190.743 261.883 190.745 261.888 190.746 261.891C190.747 261.893 190.747 261.894 190.748 261.895C190.748 261.895 190.748 261.895 190.748 261.895C190.748 261.896 190.748 261.896 191.814 261.428ZM168.14 212.858L169.162 212.301C166.33 207.105 160.634 200.085 151.283 200.044L151.278 201.208L151.272 202.371C159.314 202.406 164.409 208.443 167.119 213.415L168.14 212.858ZM151.278 201.208L151.284 200.044C143.591 200.001 124.57 201.158 107.531 202.319C98.9984 202.901 90.9441 203.485 85.0231 203.924C82.0625 204.143 79.6351 204.326 77.9477 204.454C77.104 204.519 76.4453 204.569 75.9975 204.603C75.7736 204.62 75.6024 204.634 75.4871 204.643C75.4295 204.647 75.3859 204.65 75.3566 204.653C75.342 204.654 75.331 204.655 75.3236 204.655C75.3199 204.655 75.3171 204.656 75.3153 204.656C75.3143 204.656 75.3136 204.656 75.3132 204.656C75.3127 204.656 75.3125 204.656 75.4023 205.816C75.4922 206.976 75.4924 206.976 75.4928 206.976C75.4933 206.976 75.494 206.976 75.4949 206.976C75.4967 206.976 75.4995 206.976 75.5031 206.975C75.5104 206.975 75.5214 206.974 75.536 206.973C75.5651 206.97 75.6086 206.967 75.6661 206.963C75.7811 206.954 75.952 206.941 76.1756 206.923C76.6229 206.889 77.281 206.839 78.124 206.775C79.8101 206.647 82.2361 206.464 85.1951 206.244C91.1131 205.806 99.1626 205.222 107.689 204.641C124.767 203.477 143.684 202.329 151.271 202.371L151.278 201.208Z" fill="#082422" mask="url(#path-18-inside-2_15015_18869)"/>
<mask id="path-20-inside-3_15015_18869" fill="white">
<path d="M185.519 313.612C185.519 313.612 181.737 281.347 178.195 263.996C177.248 259.393 176.407 254.766 169.629 252.766C144.869 245.462 67.0797 238.644 67.0797 238.644"/>
</mask>
<path d="M184.363 313.747C184.438 314.385 185.016 314.842 185.654 314.767C186.293 314.692 186.749 314.114 186.674 313.476L185.519 313.612L184.363 313.747ZM178.195 263.996L179.335 263.764L179.334 263.762L178.195 263.996ZM169.629 252.766L169.3 253.882L169.3 253.882L169.629 252.766ZM67.1813 237.484C66.5412 237.428 65.9767 237.902 65.9206 238.542C65.8645 239.182 66.338 239.746 66.9781 239.803L67.0797 238.644L67.1813 237.484ZM185.519 313.612C186.674 313.476 186.674 313.476 186.674 313.476C186.674 313.476 186.674 313.475 186.674 313.475C186.674 313.474 186.674 313.472 186.674 313.47C186.673 313.466 186.673 313.46 186.672 313.452C186.67 313.437 186.667 313.413 186.663 313.382C186.656 313.32 186.645 313.228 186.631 313.108C186.602 312.867 186.56 312.511 186.505 312.052C186.394 311.135 186.232 309.805 186.027 308.156C185.617 304.857 185.033 300.277 184.338 295.154C182.949 284.918 181.114 272.481 179.335 263.764L178.195 263.996L177.055 264.229C178.817 272.863 180.644 285.233 182.032 295.467C182.725 300.579 183.308 305.15 183.718 308.443C183.923 310.089 184.084 311.416 184.194 312.331C184.249 312.788 184.292 313.142 184.32 313.382C184.334 313.502 184.345 313.594 184.352 313.655C184.356 313.686 184.359 313.709 184.361 313.724C184.361 313.732 184.362 313.738 184.363 313.741C184.363 313.743 184.363 313.745 184.363 313.746C184.363 313.746 184.363 313.747 184.363 313.747C184.363 313.747 184.363 313.747 185.519 313.612ZM178.195 263.996L179.334 263.762C178.872 261.511 178.394 258.994 177.099 256.811C175.76 254.553 173.602 252.725 169.958 251.651L169.629 252.766L169.3 253.882C172.434 254.807 174.086 256.292 175.098 257.998C176.155 259.78 176.571 261.878 177.055 264.231L178.195 263.996ZM169.629 252.766L169.958 251.651C157.463 247.964 131.718 244.425 109.204 241.81C97.9237 240.5 87.4191 239.419 79.7348 238.665C75.8925 238.288 72.7548 237.993 70.5775 237.792C69.4888 237.692 68.6401 237.615 68.0635 237.563C67.7751 237.537 67.5548 237.518 67.4064 237.504C67.3322 237.498 67.2761 237.493 67.2384 237.489C67.2195 237.488 67.2053 237.487 67.1958 237.486C67.191 237.485 67.1874 237.485 67.185 237.485C67.1838 237.485 67.1829 237.485 67.1823 237.485C67.1816 237.484 67.1813 237.484 67.0797 238.644C66.9781 239.803 66.9784 239.803 66.9789 239.803C66.9795 239.803 66.9803 239.803 66.9815 239.803C66.9838 239.803 66.9873 239.803 66.992 239.804C67.0013 239.805 67.0153 239.806 67.034 239.808C67.0713 239.811 67.127 239.816 67.2008 239.822C67.3483 239.835 67.5678 239.855 67.8553 239.881C68.4302 239.932 69.277 240.009 70.3637 240.109C72.5372 240.31 75.6703 240.605 79.5076 240.981C87.1827 241.734 97.6729 242.814 108.935 244.122C131.506 246.743 157.035 250.264 169.3 253.882L169.629 252.766Z" fill="#082422" mask="url(#path-20-inside-3_15015_18869)"/>
<path d="M185.631 319.839L188.141 341.965C188.276 343.196 188.185 344.396 187.907 345.536C186.07 345.959 183.33 345.865 180.927 345.635C179.67 345.515 178.532 345.361 177.708 345.237C177.32 345.179 177.003 345.125 176.776 345.087C176.763 345.017 176.749 344.939 176.734 344.852C176.662 344.444 176.561 343.853 176.443 343.124C176.206 341.667 175.902 339.662 175.633 337.465C175.094 333.062 174.71 327.994 175.238 325.009C175.241 324.998 175.244 324.987 175.247 324.975C175.639 322.814 177.504 321.522 179.833 320.762C181.881 320.094 184.14 319.892 185.631 319.839Z" fill="#FFCE9B" stroke="#082422" stroke-width="1.16351" stroke-miterlimit="10" stroke-linecap="round" stroke-linejoin="round"/>
<path d="M208.358 301.798C208.536 302.25 208.649 302.747 208.702 303.271C207.149 304.263 204.559 305.061 202.228 305.623C201.008 305.916 199.888 306.14 199.071 306.289C198.689 306.359 198.374 306.41 198.148 306.448C198.115 306.389 198.077 306.323 198.037 306.25C197.84 305.893 197.558 305.376 197.217 304.736C196.533 303.457 195.613 301.688 194.664 299.732C192.872 296.036 191.019 291.751 190.425 288.809L190.323 288.238C189.96 285.867 191.651 283.912 193.914 282.403C195.8 281.144 197.925 280.308 199.052 279.913L208.31 301.712C208.323 301.743 208.34 301.771 208.358 301.798Z" fill="#FFCE9B" stroke="#082422" stroke-width="1.16351" stroke-miterlimit="10" stroke-linecap="round" stroke-linejoin="round"/>
<path d="M211.715 247.272C211.078 247.839 210.179 248.407 209.137 248.946C207.975 249.548 206.674 250.098 205.452 250.565C204.231 251.031 203.095 251.41 202.265 251.673C201.864 251.801 201.534 251.9 201.301 251.969C201.259 251.912 201.212 251.848 201.16 251.778C200.916 251.443 200.565 250.956 200.138 250.355C199.285 249.151 198.13 247.485 196.922 245.632C194.489 241.9 191.9 237.497 191.071 234.587C190.431 232.318 191.765 230.196 193.742 228.415C195.435 226.889 197.465 225.741 198.637 225.144L210.416 244.225C211.012 245.189 211.443 246.223 211.715 247.272Z" fill="#FFCE9B" stroke="#082422" stroke-width="1.16351" stroke-miterlimit="10" stroke-linecap="round" stroke-linejoin="round"/>
<path d="M232.544 148.736C232.538 149.577 232.296 150.653 231.893 151.851C231.443 153.189 230.814 154.619 230.169 155.937C229.524 157.254 228.87 158.448 228.377 159.314C228.131 159.746 227.925 160.096 227.781 160.337C227.775 160.347 227.77 160.356 227.764 160.366C227.685 160.35 227.594 160.333 227.493 160.313C227.064 160.227 226.444 160.101 225.682 159.939C224.157 159.614 222.067 159.145 219.802 158.569C215.243 157.409 210.078 155.837 207.352 154.163C205.281 152.891 204.767 150.394 204.977 147.687C205.162 145.316 205.893 142.962 206.396 141.574L230.438 147.944C231.182 148.146 231.888 148.41 232.544 148.736Z" fill="#FFCE9B" stroke="#082422" stroke-width="1.16351" stroke-miterlimit="10" stroke-linecap="round" stroke-linejoin="round"/>
<mask id="path-26-inside-4_15015_18869" fill="white">
<path d="M67.9764 296.889C68.2666 296.914 94.7659 298.866 106.953 291.428C96.3391 287.557 84.3706 276.902 83.8121 276.399"/>
</mask>
<path d="M68.0745 295.73C67.4342 295.675 66.8712 296.151 66.817 296.791C66.7629 297.431 67.238 297.994 67.8783 298.048L67.9764 296.889L68.0745 295.73ZM106.953 291.428L107.559 292.421C107.941 292.189 108.155 291.758 108.111 291.313C108.067 290.868 107.772 290.488 107.352 290.335L106.953 291.428ZM84.5907 275.534C84.1133 275.104 83.3776 275.143 82.9475 275.62C82.5175 276.098 82.556 276.834 83.0334 277.264L83.8121 276.399L84.5907 275.534ZM67.9764 296.889L67.8783 298.048C68.0594 298.064 74.8127 298.561 83.0656 298.119C91.2552 297.68 101.193 296.306 107.559 292.421L106.953 291.428L106.347 290.435C100.526 293.987 91.1206 295.357 82.9411 295.795C78.8873 296.012 75.1988 295.999 72.5052 295.929C71.1591 295.894 70.0631 295.845 69.2963 295.805C68.9129 295.784 68.612 295.766 68.4035 295.752C68.2992 295.746 68.2181 295.74 68.1615 295.736C68.1332 295.734 68.1112 295.732 68.0956 295.731C68.0782 295.73 68.0726 295.729 68.0745 295.73L67.9764 296.889ZM106.953 291.428L107.352 290.335C102.202 288.457 96.6622 284.903 92.2988 281.711C87.9518 278.531 84.8516 275.769 84.5907 275.534L83.8121 276.399L83.0334 277.264C83.3312 277.532 86.4944 280.349 90.9249 283.59C95.3388 286.818 101.091 290.528 106.555 292.521L106.953 291.428Z" fill="#082422" mask="url(#path-26-inside-4_15015_18869)"/>
<mask id="path-28-inside-5_15015_18869" fill="white">
<path d="M164.005 167.908C164.005 167.908 161.34 163.207 160.315 161.819C156.853 157.182 154.853 155.491 142.758 155.995C127.494 156.64 83.4413 170.753 83.4413 170.753"/>
</mask>
<path d="M162.993 168.482C163.31 169.041 164.02 169.237 164.579 168.92C165.138 168.603 165.335 167.893 165.018 167.334L164.005 167.908L162.993 168.482ZM160.315 161.819L161.251 161.128L161.248 161.123L160.315 161.819ZM142.758 155.995L142.709 154.832L142.709 154.832L142.758 155.995ZM83.0863 169.645C82.4744 169.841 82.1372 170.496 82.3333 171.108C82.5293 171.72 83.1843 172.057 83.7963 171.861L83.4413 170.753L83.0863 169.645ZM164.005 167.908C165.018 167.334 165.018 167.334 165.018 167.334C165.018 167.334 165.017 167.334 165.017 167.334C165.017 167.334 165.017 167.333 165.017 167.333C165.017 167.332 165.016 167.332 165.015 167.33C165.014 167.328 165.012 167.325 165.01 167.32C165.004 167.311 164.997 167.297 164.987 167.28C164.967 167.244 164.937 167.193 164.9 167.127C164.824 166.994 164.715 166.804 164.582 166.572C164.314 166.107 163.947 165.472 163.547 164.793C162.762 163.461 161.807 161.881 161.251 161.128L160.315 161.819L159.379 162.51C159.848 163.145 160.738 164.61 161.542 165.974C161.937 166.644 162.3 167.272 162.564 167.732C162.697 167.962 162.804 168.15 162.878 168.28C162.915 168.345 162.944 168.396 162.964 168.43C162.974 168.447 162.981 168.46 162.986 168.469C162.988 168.473 162.99 168.477 162.992 168.479C162.992 168.48 162.993 168.481 162.993 168.481C162.993 168.481 162.993 168.482 162.993 168.482C162.993 168.482 162.993 168.482 162.993 168.482C162.993 168.482 162.993 168.482 164.005 167.908ZM160.315 161.819L161.248 161.123C159.499 158.781 157.966 156.959 155.191 155.893C152.502 154.86 148.764 154.58 142.709 154.832L142.758 155.995L142.806 157.157C148.847 156.906 152.156 157.219 154.357 158.065C156.471 158.877 157.669 160.219 159.383 162.515L160.315 161.819ZM142.758 155.995L142.709 154.832C134.915 155.162 119.946 158.897 107.063 162.495C100.591 164.303 94.5978 166.09 90.2234 167.425C88.036 168.092 86.2527 168.647 85.0158 169.035C84.3973 169.229 83.9155 169.381 83.588 169.485C83.4242 169.537 83.2991 169.577 83.2147 169.604C83.1725 169.617 83.1406 169.627 83.1191 169.634C83.1083 169.638 83.1002 169.64 83.0947 169.642C83.092 169.643 83.0899 169.644 83.0885 169.644C83.0878 169.644 83.0873 169.644 83.0869 169.645C83.0865 169.645 83.0863 169.645 83.4413 170.753C83.7963 171.861 83.7964 171.861 83.7967 171.861C83.797 171.861 83.7974 171.86 83.7981 171.86C83.7993 171.86 83.8013 171.859 83.8039 171.858C83.8091 171.857 83.817 171.854 83.8275 171.851C83.8485 171.844 83.8799 171.834 83.9215 171.821C84.0048 171.794 84.1289 171.755 84.2915 171.703C84.6168 171.6 85.0963 171.448 85.7122 171.255C86.9441 170.869 88.7216 170.316 90.9026 169.65C95.2652 168.319 101.239 166.538 107.689 164.736C120.647 161.117 135.337 157.473 142.807 157.157L142.758 155.995Z" fill="#082422" mask="url(#path-28-inside-5_15015_18869)"/>
<mask id="path-30-inside-6_15015_18869" fill="white">
<path d="M143.794 299.473C143.794 299.473 146.861 292.013 153.031 286.125L143.794 299.473Z"/>
</mask>
<path d="M142.718 299.03C142.474 299.624 142.757 300.304 143.352 300.549C143.946 300.793 144.626 300.509 144.87 299.915L143.794 299.473L142.718 299.03ZM153.835 286.967C154.299 286.523 154.317 285.787 153.873 285.322C153.429 284.857 152.693 284.84 152.228 285.283L153.031 286.125L153.835 286.967ZM143.794 299.473C144.87 299.915 144.87 299.915 144.87 299.915C144.87 299.915 144.87 299.916 144.87 299.916C144.87 299.916 144.87 299.916 144.87 299.915C144.87 299.915 144.87 299.914 144.871 299.913C144.872 299.911 144.874 299.907 144.876 299.901C144.881 299.889 144.889 299.87 144.9 299.845C144.922 299.794 144.955 299.716 145.001 299.614C145.092 299.409 145.23 299.106 145.416 298.723C145.789 297.956 146.35 296.868 147.1 295.599C148.605 293.055 150.851 289.813 153.835 286.967L153.031 286.125L152.228 285.283C149.041 288.325 146.669 291.757 145.097 294.415C144.31 295.746 143.719 296.892 143.323 297.707C143.125 298.115 142.976 298.441 142.875 298.667C142.825 298.781 142.786 298.869 142.76 298.93C142.747 298.961 142.737 298.984 142.73 299.001C142.726 299.01 142.724 299.016 142.722 299.021C142.721 299.023 142.72 299.025 142.719 299.027C142.719 299.028 142.719 299.028 142.718 299.029C142.718 299.029 142.718 299.029 142.718 299.03C142.718 299.03 142.718 299.03 143.794 299.473Z" fill="#082422" mask="url(#path-30-inside-6_15015_18869)"/>
<mask id="path-32-inside-7_15015_18869" fill="white">
<path d="M116.474 293.68C123.756 301.223 145.031 323.944 146.489 373.738L116.474 293.68Z"/>
</mask>
<path d="M117.311 292.872C116.865 292.409 116.129 292.396 115.666 292.843C115.204 293.289 115.191 294.026 115.637 294.488L116.474 293.68L117.311 292.872ZM145.326 373.772C145.345 374.415 145.881 374.92 146.523 374.901C147.166 374.883 147.671 374.347 147.652 373.704L146.489 373.738L145.326 373.772ZM116.474 293.68L115.637 294.488C122.799 301.906 143.879 324.365 145.326 373.772L146.489 373.738L147.652 373.704C146.183 323.522 124.714 300.54 117.311 292.872L116.474 293.68Z" fill="#082422" mask="url(#path-32-inside-7_15015_18869)"/>
</g>
<defs>
<clipPath id="clip0_15015_18869">
<rect width="407.556" height="689.323" fill="white"/>
</clipPath>
</defs>
</svg>
