<svg width="545" height="385" viewBox="0 0 545 385" fill="none" xmlns="http://www.w3.org/2000/svg">
<g clip-path="url(#clip0_14997_18405)">
<g opacity="0.25">
<path d="M431 213.254C430.377 213.171 429.712 213.088 429.089 213.046C428.483 213.001 427.876 212.959 427.266 212.926C428.72 213.009 430.132 213.163 431.511 213.374L431.557 213.349C431.37 213.32 431.191 213.283 431.004 213.254H431Z" fill="black"/>
<path d="M495.609 115.756C492.888 113.06 489.959 110.51 486.844 108.098L488.343 127.267L494.412 138.077C495.368 132.504 495.837 126.781 495.792 120.963C495.779 119.219 495.717 117.483 495.613 115.756H495.609Z" fill="black"/>
<path d="M494.415 138.078C489.791 165.105 473.761 188.676 449.526 203.104L431.559 213.336C432.735 213.527 433.881 213.739 434.995 213.988C435.286 214.071 435.618 214.113 435.909 214.196C437.363 214.591 438.775 215.093 440.121 215.641L440.158 215.737C437.5 214.632 434.608 213.839 431.518 213.361L415.874 222.269C415.874 222.269 382.645 192.784 379.334 193.93C374.848 195.383 370.403 197.335 365.958 199.578C364.504 200.284 363.133 201.197 361.679 201.986C359.519 203.191 357.318 204.271 355.158 205.641C354.202 206.264 353.288 206.97 352.333 207.593C351.502 208.174 350.63 208.756 349.799 209.337C348.802 210.043 347.805 210.666 346.849 211.414C344.689 213.033 342.612 214.736 340.535 216.48C339.829 217.061 339.164 217.726 338.458 218.307C338.084 218.64 337.752 218.93 337.378 219.263C336.672 219.885 335.924 220.508 335.218 221.173C333.598 222.668 332.061 224.204 330.482 225.783C329.028 227.278 327.575 228.773 326.204 230.351C326.079 230.475 325.996 230.6 325.913 230.683C325.83 230.766 325.747 230.891 325.664 230.974C324.5 232.261 323.337 233.59 322.257 234.919C320.97 236.455 319.723 238.034 318.477 239.612C317.397 241.024 316.317 242.477 315.32 243.889C315.237 243.972 315.195 244.055 315.112 244.18C315.029 244.263 314.988 244.387 314.905 244.471C313.7 246.132 312.578 247.834 311.457 249.537C310.294 251.323 309.214 253.109 308.133 254.936C307.593 255.849 307.137 256.763 306.638 257.677C306.43 258.05 306.223 258.466 305.973 258.84C305.599 259.504 305.226 260.168 304.852 260.833C303.689 263.075 302.609 265.318 301.612 267.561C300.988 268.931 300.532 270.301 299.991 271.672C299.701 272.378 299.41 273.125 299.119 273.831C298.87 274.496 298.579 275.16 298.33 275.825C296.917 279.812 295.796 283.798 294.965 287.785C290.894 307.345 293.436 329.272 303.198 338.077L325.672 357.059C350.675 376.204 375.915 386.861 406.219 370.822C435.302 355.432 465.24 323.787 471.929 291.643C473.187 285.559 473.486 279.994 472.934 275.04L484.021 268.441C522.55 245.5 545.343 205.035 544.999 160.192C544.654 115.324 521.217 75.1864 482.31 52.8231C468.456 44.8579 453.925 38.2049 438.929 32.9183L430.429 26.6516L372.193 8.61561L294.334 7.98438L235.707 29.4506L190.872 54.5964L175.739 49.8704C175.614 49.8704 175.49 49.7873 175.365 49.7458C174.244 49.4136 173.08 49.1229 171.917 48.9568C171.71 48.9568 171.46 48.9152 171.253 48.8737C170.879 48.8322 170.505 48.7906 170.131 48.7491C169.549 48.6661 168.968 48.583 168.386 48.5415H164.772C163.526 48.6245 162.238 48.7491 160.95 48.9568C160.867 48.9568 160.784 48.9568 160.701 48.9983C160.41 49.0398 160.078 49.1229 159.787 49.2059C158.832 49.4136 157.835 49.5797 156.88 49.8289C156.547 49.9119 156.215 50.078 155.883 50.1611C155.259 50.3272 154.678 50.5764 154.055 50.784C153.473 50.9917 152.933 51.1163 152.393 51.3654C151.895 51.5731 151.396 51.8223 150.939 52.0299C150.15 52.3621 149.319 52.7359 148.53 53.1512C148.114 53.3588 147.657 53.5249 147.242 53.7326C146.827 53.9402 146.411 54.2725 145.954 54.5216C144.625 55.2691 143.296 56.0997 141.925 57.0134C141.468 57.3456 140.969 57.5532 140.512 57.8855C140.263 58.0516 139.972 58.3423 139.723 58.5084C139.403 58.741 139.083 58.9777 138.759 59.2185L138.352 59.0898C138.228 59.0898 138.145 59.0067 138.02 59.0067C137.065 58.716 136.151 58.5084 135.154 58.3423C134.988 58.3423 134.78 58.3423 134.614 58.2592C134.281 58.2177 133.991 58.1762 133.658 58.1346C133.201 58.0931 132.703 58.01 132.246 57.9685H129.213C128.175 58.01 127.095 58.1346 126.056 58.3008C125.973 58.3008 125.932 58.3007 125.849 58.3423C125.599 58.3838 125.35 58.4669 125.101 58.5084C124.312 58.6745 123.481 58.7991 122.691 59.0483C122.401 59.1313 122.151 59.2559 121.861 59.339C121.362 59.5051 120.864 59.6712 120.365 59.8373C119.908 60.0034 119.451 60.128 118.953 60.2941C118.537 60.4603 118.122 60.6679 117.748 60.8755C117.083 61.1662 116.419 61.4569 115.754 61.7892C115.38 61.9553 115.048 62.0799 114.674 62.2875C114.342 62.4536 113.968 62.7443 113.636 62.952C112.514 63.5749 111.434 64.2809 110.312 65.0284C109.938 65.2776 109.523 65.4852 109.149 65.7344C108.941 65.9005 108.734 66.1082 108.485 66.2743C106.574 67.6863 104.663 69.1813 102.793 70.9255C99.9271 73.5834 97.227 76.5734 94.693 79.8127C93.8622 80.8509 93.1145 82.0137 92.3252 83.0935C91.1205 84.7546 89.8328 86.3327 88.7112 88.1185C88.2127 88.9075 87.7557 89.7796 87.2572 90.5687C86.8003 91.3162 86.3849 92.0222 85.9695 92.7697C85.471 93.6418 84.9309 94.4724 84.474 95.3445C83.4355 97.2964 82.4385 99.3313 81.4831 101.366C81.1507 102.072 80.8599 102.778 80.5692 103.484C80.403 103.858 80.2368 104.232 80.0707 104.605C79.7384 105.353 79.406 106.059 79.1152 106.765C78.409 108.426 77.7859 110.129 77.1628 111.873C76.5813 113.493 76.0412 115.154 75.5012 116.815C75.5012 116.94 75.4181 117.064 75.3766 117.189C75.3766 117.313 75.335 117.396 75.2935 117.521C74.8781 118.891 74.4627 120.303 74.0888 121.674C73.6319 123.293 73.258 124.913 72.8841 126.533C72.5518 127.986 72.261 129.44 71.9702 130.852C71.9702 130.935 71.9702 131.018 71.9287 131.142C71.9287 131.225 71.9287 131.35 71.8872 131.433C71.5548 133.094 71.3056 134.755 71.0563 136.458C70.8071 138.202 70.5994 139.947 70.4332 141.691C70.3501 142.563 70.3086 143.393 70.2255 144.266C70.2255 144.639 70.184 145.013 70.1424 145.387C70.1424 146.01 70.0178 146.633 70.0178 147.256C69.9431 149.087 69.9098 150.914 69.9015 152.717L47.1413 165.848C24.2649 179.046 10.4318 202.688 10.1452 229.092C9.85853 255.496 23.1682 279.434 45.7497 293.13L93.642 322.167C91 331.897 95.0918 342.558 104.239 347.836L151.122 374.896C162.014 381.184 175.943 377.45 182.228 366.565C188.517 355.677 184.782 341.752 173.89 335.469L127.008 308.408C118.114 303.275 107.197 304.824 100.064 311.494L52.2093 282.478C33.4287 271.091 22.3623 251.186 22.6032 229.229C22.8442 207.273 34.3426 187.613 53.3683 176.641L71.048 166.442C71.3014 167.974 71.5922 169.486 71.9287 170.973C75.6258 187.086 83.934 197.177 94.3192 200.417L102.449 202.954C107.608 211.854 111.654 218.374 119.626 220.853L148.148 229.761C161.449 235.671 181.073 231.003 197.303 215.986C222.514 192.659 238.366 149.959 236.912 113.609L262.646 99.2067C328.821 62.1629 409.451 62.5782 475.21 100.286C479.356 102.679 483.232 105.295 486.854 108.106L494.419 138.082L494.415 138.078ZM185.916 60.7925C186.54 60.5848 187.121 60.3772 187.744 60.1696C187.852 60.1363 187.956 60.1073 188.064 60.074L188.081 60.1031C187.262 60.3398 186.44 60.6098 185.617 60.9046C185.717 60.8672 185.821 60.8257 185.921 60.7925H185.916ZM319.802 310.298C318.789 315.186 318.278 319.796 318.232 324.106C318.265 319.758 318.776 315.107 319.802 310.173C320.284 307.852 320.891 305.51 321.597 303.163C320.895 305.547 320.292 307.927 319.802 310.298ZM404.13 216.401C403.586 216.58 403.042 216.762 402.497 216.954C403.071 216.75 403.64 216.551 404.213 216.36C404.753 216.185 405.285 216.027 405.817 215.87C405.256 216.04 404.695 216.218 404.13 216.401Z" fill="black"/>
</g>
<path d="M151.674 362.226L35.6092 291.851C13.0235 278.159 -0.286117 254.217 0.00466816 227.813C0.291299 201.409 14.1244 177.767 37.0008 164.569L213.192 62.9355L219.419 73.7248L43.2278 175.358C24.2063 186.33 12.7037 205.99 12.4627 227.946C12.2218 249.903 23.2924 269.807 42.0688 281.195L158.134 351.569L151.67 362.222L151.674 362.226Z" fill="white" stroke="black" stroke-width="0.188304" stroke-miterlimit="10"/>
<path d="M490.783 120.187C483.804 112.006 475.205 104.863 465.069 99.0076C399.31 61.2994 318.68 60.8841 252.505 97.9278L203.155 125.545L178.688 60.3442L228.038 32.6029C260.855 14.2887 297.079 5.15234 333.427 5.15234C369.775 5.15234 407.369 14.704 440.602 33.7242C473.959 52.9936 490.783 86.4659 490.783 120.229V120.187Z" fill="#082422" stroke="black" stroke-width="0.188304" stroke-miterlimit="10"/>
<path d="M515.246 185.649C515.246 218.872 498.962 252.053 466.435 271.489L454.139 278.881L429.672 213.556L441.968 206.33C474.494 186.77 499.734 143.065 479.479 63.9609C495.763 82.5659 516.297 144.855 515.246 185.69V185.649Z" fill="#082422" stroke="black" stroke-width="0.188304" stroke-miterlimit="10"/>
<path d="M432.423 217.913L427.176 209.101L439.389 201.833C468.621 184.428 485.919 153.722 485.657 119.693C485.396 85.6437 467.612 55.1864 438.085 38.2177C374.278 1.52698 294.774 1.10755 230.589 37.1214L181.28 64.7796L176.258 55.8343L225.567 28.1761C258.77 9.54621 296.435 -0.192308 334.524 0.00287737C372.608 0.202216 410.186 10.3436 443.199 29.3264C475.916 48.1307 495.627 81.8854 495.914 119.614C496.205 157.327 477.033 191.355 444.636 210.646L432.423 217.913Z" fill="white" stroke="black" stroke-width="0.188304" stroke-miterlimit="10"/>
<path d="M314.676 292.9C316.38 288.581 318.374 284.304 320.658 280.068C320.866 279.694 321.074 279.279 321.323 278.905C323.857 274.337 326.682 269.81 329.797 265.45C329.88 265.367 329.922 265.284 330.005 265.159C333.204 260.674 336.693 256.355 340.39 252.244C340.473 252.161 340.556 252.036 340.639 251.953C344.253 247.925 348.117 244.145 352.105 240.532C352.478 240.2 352.852 239.868 353.226 239.536C356.882 236.338 360.662 233.348 364.567 230.566C365.398 229.943 366.27 229.361 367.101 228.78C370.133 226.703 373.29 224.918 376.406 223.132C377.818 222.343 379.231 221.429 380.685 220.723C385.088 218.522 389.574 216.57 394.061 215.075C397.01 214.12 399.876 213.414 402.66 212.833C403.532 212.667 404.404 212.5 405.277 212.376C406.855 212.127 408.434 211.919 409.971 211.794C410.968 211.711 411.923 211.628 412.879 211.587H415.537C416.7 211.587 417.822 211.67 418.944 211.753C419.567 211.794 420.231 211.878 420.855 211.961C422.225 212.168 423.555 212.417 424.842 212.708C425.133 212.791 425.466 212.833 425.756 212.916C427.293 213.331 428.789 213.871 430.201 214.452C430.534 214.618 430.907 214.785 431.24 214.909C432.361 215.408 433.4 215.989 434.438 216.612C434.771 216.819 435.103 216.986 435.394 217.193C436.682 218.024 437.928 218.937 439.049 219.976L414.208 197.592C405.111 189.498 392.1 187.974 380.435 189.95C379.895 190.033 379.355 190.033 378.774 190.158C375.617 190.905 372.489 191.503 369.178 192.65C364.691 194.103 360.247 196.055 355.802 198.298C354.348 199.004 352.977 199.917 351.523 200.706C349.363 201.911 347.161 202.99 345.001 204.361C344.046 204.984 343.132 205.69 342.176 206.313C341.346 206.894 340.473 207.475 339.642 208.057C338.645 208.763 337.648 209.386 336.693 210.133C334.533 211.753 332.456 213.456 330.379 215.2C329.673 215.781 329.008 216.446 328.302 217.027C327.928 217.359 327.596 217.65 327.222 217.982C326.516 218.605 325.768 219.228 325.062 219.893C323.441 221.388 321.905 222.924 320.326 224.502C318.872 225.997 317.418 227.492 316.047 229.07C315.923 229.195 315.84 229.32 315.756 229.403C315.673 229.486 315.59 229.61 315.507 229.693C314.344 230.981 313.181 232.31 312.101 233.639C310.813 235.175 309.567 236.753 308.321 238.331C307.241 239.743 306.161 241.197 305.164 242.609C305.081 242.692 305.039 242.775 304.956 242.9C304.873 242.983 304.831 243.107 304.748 243.19C303.544 244.851 302.422 246.554 301.3 248.257C300.137 250.043 299.057 251.828 297.977 253.656C297.437 254.569 296.98 255.483 296.482 256.396C296.274 256.77 296.066 257.186 295.817 257.559C295.443 258.224 295.069 258.888 294.695 259.553C293.532 261.795 292.452 264.038 291.455 266.28C290.832 267.651 290.375 269.021 289.835 270.392C289.544 271.098 289.253 271.845 288.963 272.551C288.713 273.216 288.423 273.88 288.173 274.545C286.761 278.531 285.639 282.518 284.809 286.505C280.738 306.065 284.767 321.265 294.529 330.069L319.371 352.453C309.608 343.649 305.579 328.449 309.65 308.889C310.605 304.279 312.059 299.587 313.804 294.935C314.053 294.229 314.386 293.482 314.676 292.776V292.9Z" fill="#2BF2F1" stroke="black" stroke-width="0.188304" stroke-miterlimit="10"/>
<path d="M393.989 215.127C432.289 202.585 456.84 224.222 448.656 263.591C440.473 302.961 402.712 345.029 364.412 357.571C325.987 370.113 301.478 348.393 309.661 309.024C317.845 269.654 355.564 227.669 393.989 215.127Z" fill="#50929D" stroke="black" stroke-width="0.188304" stroke-miterlimit="10"/>
<path d="M352.369 314.345C353.781 310.815 355.36 307.327 357.229 303.839C357.395 303.506 357.561 303.216 357.769 302.883C359.846 299.146 362.131 295.45 364.706 291.878C364.748 291.795 364.831 291.712 364.873 291.671C367.49 288.016 370.314 284.486 373.347 281.122C373.43 281.039 373.472 280.956 373.555 280.873C376.504 277.592 379.661 274.478 382.901 271.571C383.192 271.28 383.524 271.031 383.815 270.782C386.806 268.165 389.88 265.715 393.079 263.472C393.785 262.974 394.45 262.476 395.156 262.019C397.648 260.316 400.182 258.863 402.758 257.409C403.921 256.745 405.084 256.039 406.247 255.457C409.861 253.63 413.517 252.052 417.172 250.848C419.582 250.059 421.908 249.477 424.193 249.02C424.941 248.854 425.647 248.771 426.353 248.647C427.641 248.439 428.928 248.273 430.175 248.148C430.964 248.065 431.795 248.024 432.584 247.982H434.744C435.7 247.982 436.613 248.065 437.527 248.148C438.067 248.19 438.566 248.231 439.106 248.314C440.227 248.481 441.308 248.688 442.346 248.937C442.595 248.979 442.845 249.02 443.094 249.103C444.382 249.436 445.586 249.893 446.749 250.349C447.04 250.474 447.289 250.599 447.58 250.723C448.494 251.138 449.366 251.595 450.197 252.094C450.447 252.26 450.737 252.426 450.987 252.592C452.025 253.298 453.064 254.045 453.977 254.876L433.706 236.603C433.622 236.52 433.539 236.479 433.456 236.396C432.75 235.773 431.961 235.15 431.172 234.61C431.005 234.527 430.839 234.444 430.715 234.319C430.465 234.153 430.175 233.987 429.925 233.821C429.51 233.572 429.136 233.323 428.721 233.073C428.264 232.824 427.807 232.658 427.308 232.409C427.018 232.284 426.768 232.16 426.478 232.035C426.311 231.952 426.187 231.869 426.021 231.827C425.065 231.454 424.068 231.121 423.03 230.831C421.991 230.54 422.905 230.831 422.822 230.789C422.573 230.706 422.323 230.665 422.074 230.623C421.285 230.415 420.496 230.249 419.706 230.083C419.416 230.042 419.125 230.042 418.834 230C418.336 229.917 417.795 229.876 417.255 229.834C416.757 229.793 416.3 229.709 415.802 229.668H411.149C410.775 229.668 410.318 229.793 409.944 229.834C408.698 229.959 407.41 230.083 406.123 230.332C405.666 230.415 405.25 230.415 404.793 230.499C404.544 230.54 404.253 230.665 404.004 230.706C401.719 231.163 399.393 231.744 396.984 232.533C393.328 233.738 389.672 235.316 386.058 237.143C384.895 237.725 383.732 238.472 382.569 239.095C380.783 240.092 378.996 240.964 377.252 242.085C376.462 242.583 375.715 243.165 374.925 243.705C374.219 244.162 373.555 244.66 372.848 245.158C372.059 245.74 371.228 246.238 370.439 246.861C368.694 248.19 366.95 249.56 365.288 251.014C364.706 251.512 364.166 252.011 363.585 252.509C363.294 252.758 363.003 253.049 362.713 253.298C362.131 253.838 361.549 254.336 360.968 254.834C359.68 256.039 358.392 257.326 357.105 258.572C355.9 259.776 354.737 261.022 353.574 262.31C353.49 262.393 353.407 262.517 353.324 262.6C353.241 262.683 353.2 262.766 353.117 262.85C352.161 263.929 351.247 264.967 350.333 266.047C349.295 267.293 348.256 268.581 347.259 269.868C346.387 271.031 345.515 272.194 344.684 273.356C344.642 273.439 344.559 273.522 344.518 273.564C344.476 273.606 344.393 273.73 344.351 273.813C343.396 275.184 342.441 276.554 341.527 277.966C340.571 279.42 339.699 280.873 338.827 282.368C338.411 283.116 337.996 283.863 337.58 284.611C337.414 284.943 337.206 285.234 337.04 285.566C336.75 286.106 336.417 286.646 336.126 287.185C335.171 289.013 334.299 290.84 333.468 292.667C332.969 293.789 332.595 294.91 332.138 296.031C331.889 296.612 331.64 297.194 331.432 297.817C331.225 298.357 330.975 298.897 330.809 299.436C329.688 302.676 328.732 305.956 328.068 309.196C324.744 325.184 328.026 337.602 336.002 344.786L356.274 363.059C348.298 355.874 345.016 343.457 348.339 327.468C349.129 323.689 350.292 319.869 351.704 316.09C351.912 315.508 352.161 314.927 352.41 314.304L352.369 314.345Z" fill="#2BF2F1" stroke="black" stroke-width="0.188304" stroke-miterlimit="10"/>
<path d="M417.137 250.804C448.417 240.588 468.439 258.237 461.793 290.381C455.105 322.524 424.281 356.91 393.001 367.126C361.638 377.384 341.615 359.651 348.304 327.507C354.992 295.364 385.815 261.061 417.178 250.804H417.137Z" fill="#50929D" stroke="black" stroke-width="0.188304" stroke-miterlimit="10"/>
<path d="M376.257 362.312C371.189 362.312 364.21 361.108 359.599 355.46C354.864 349.646 353.534 340.302 355.861 329.089C362.009 299.479 390.589 267.668 419.543 258.199C424.652 256.538 429.471 255.666 433.833 255.666C438.194 255.666 445.879 256.87 450.49 262.518C455.184 268.291 456.514 277.635 454.229 288.806C448.164 318.001 419.044 350.476 390.589 359.779C385.479 361.44 380.66 362.312 376.257 362.312Z" fill="#2C6E79" stroke="black" stroke-width="0.188304" stroke-miterlimit="10"/>
<path d="M86.3854 164.045C86.1777 160.183 86.1777 156.28 86.427 152.293C86.427 151.919 86.4685 151.545 86.5101 151.172C86.8424 146.853 87.3824 142.45 88.2132 138.09C88.2132 138.007 88.2132 137.924 88.2547 137.799C89.1271 133.314 90.2487 128.871 91.578 124.468C91.578 124.344 91.6195 124.261 91.6611 124.136C92.9904 119.859 94.5689 115.664 96.3137 111.595C96.4798 111.221 96.646 110.847 96.8122 110.473C98.4322 106.777 100.26 103.247 102.254 99.8003C102.669 99.0528 103.126 98.3053 103.542 97.5578C105.12 94.9414 106.865 92.4912 108.61 90.0826C109.399 89.0028 110.147 87.84 110.978 86.8018C113.553 83.6041 116.212 80.5724 119.078 77.9146C120.989 76.1704 122.858 74.6338 124.769 73.2634C125.392 72.8065 125.974 72.4328 126.597 72.0175C127.718 71.27 128.799 70.564 129.92 69.9411C130.626 69.5258 131.332 69.152 132.039 68.7783C132.703 68.446 133.368 68.1553 134.033 67.8646C134.905 67.4909 135.777 67.1171 136.65 66.8264C137.148 66.6603 137.647 66.4526 138.145 66.328C139.225 65.9958 140.347 65.7051 141.427 65.4975C141.676 65.4559 141.925 65.3729 142.175 65.3314C143.504 65.1237 144.792 64.9991 146.079 64.9576H147.035C148.032 64.9576 149.07 64.9991 150.026 65.1237C150.358 65.1237 150.649 65.1653 150.981 65.2483C152.227 65.456 153.474 65.7051 154.678 66.0789L128.217 57.8146C128.092 57.8146 128.009 57.7316 127.885 57.7316C126.929 57.4409 126.015 57.2332 125.018 57.0671C124.852 57.0671 124.644 57.0671 124.478 56.9841C124.146 56.9425 123.855 56.901 123.523 56.8595C123.066 56.8179 122.567 56.7349 122.11 56.6934H119.078C118.039 56.7349 116.959 56.8595 115.921 57.0256C115.838 57.0256 115.796 57.0256 115.713 57.0671C115.464 57.1086 115.215 57.1917 114.965 57.2332C114.176 57.3993 113.345 57.5239 112.556 57.7731C112.265 57.8562 112.016 57.9807 111.725 58.0638C111.227 58.2299 110.728 58.396 110.23 58.5622C109.773 58.7283 109.316 58.8529 108.817 59.019C108.402 59.1851 107.987 59.3927 107.613 59.6004C106.948 59.8911 106.283 60.1818 105.619 60.514C105.245 60.6801 104.913 60.8047 104.539 61.0124C104.206 61.1785 103.833 61.4692 103.5 61.6768C102.379 62.2998 101.299 63.0057 100.177 63.7533C99.8031 64.0024 99.3877 64.2101 99.0138 64.4593C98.8061 64.6254 98.5984 64.833 98.3492 64.9991C96.4383 66.4111 94.5274 67.9061 92.6581 69.6504C89.7918 72.3082 87.0916 75.2983 84.5576 78.5375C83.7268 79.5758 82.9791 80.7386 82.1898 81.8183C80.9851 83.4795 79.6974 85.0576 78.5758 86.8433C78.0773 87.6324 77.6203 88.5045 77.1218 89.2935C76.6649 90.041 76.2495 90.747 75.8341 91.4945C75.3356 92.3667 74.7955 93.1972 74.3386 94.0693C73.3001 96.0212 72.3031 98.0561 71.3477 100.091C71.0154 100.797 70.7246 101.503 70.4338 102.209C70.2676 102.583 70.1015 102.957 69.9353 103.33C69.603 104.078 69.2706 104.784 68.9799 105.49C68.2737 107.151 67.6506 108.854 67.0274 110.598C66.4459 112.217 65.9058 113.879 65.3658 115.54C65.3658 115.664 65.2827 115.789 65.2412 115.914C65.2412 116.038 65.1996 116.121 65.1581 116.246C64.7427 117.616 64.3273 119.028 63.9534 120.399C63.4965 122.018 63.1226 123.638 62.7488 125.258C62.4164 126.711 62.1256 128.165 61.8348 129.577C61.8348 129.66 61.8349 129.743 61.7933 129.867C61.7933 129.95 61.7933 130.075 61.7518 130.158C61.4194 131.819 61.1702 133.48 60.9209 135.183C60.6717 136.927 60.464 138.671 60.2978 140.416C60.2148 141.288 60.1732 142.118 60.0901 142.99C60.0901 143.364 60.0486 143.738 60.007 144.112C60.007 144.735 59.8824 145.357 59.8824 145.98C59.7993 148.057 59.7578 150.133 59.7578 152.168C59.7578 153.414 59.8824 154.618 59.9655 155.823C59.9655 156.487 60.0071 157.11 60.0901 157.733C60.1317 158.314 60.0901 158.937 60.1732 159.519C60.5055 163.007 61.0456 166.413 61.7933 169.693C65.4904 185.807 73.7986 195.898 84.1838 199.137L110.645 207.402C100.26 204.162 91.9519 194.071 88.2547 177.958C87.3824 174.137 86.8424 170.109 86.5516 166.039C86.51 165.416 86.4685 164.751 86.427 164.129L86.3854 164.045Z" fill="#2BF2F1" stroke="black" stroke-width="0.188304" stroke-miterlimit="10"/>
<path d="M119.208 78.0005C143.717 55.2842 169.68 63.0916 177.157 95.5672C184.634 128.043 170.801 172.811 146.292 195.486C121.7 218.243 95.737 210.353 88.2597 177.877C80.7824 145.402 94.657 100.717 119.208 77.9589V78.0005Z" fill="#2BF2F1" stroke="black" stroke-width="0.188304" stroke-miterlimit="10"/>
<path d="M114.968 176.788C114.719 172.137 114.719 167.403 115.009 162.627C115.009 162.17 115.092 161.755 115.092 161.298C115.466 156.065 116.173 150.791 117.169 145.517C117.169 145.392 117.211 145.309 117.253 145.185C118.291 139.786 119.62 134.387 121.282 129.113C121.282 128.989 121.365 128.864 121.407 128.739C123.027 123.59 124.938 118.523 127.056 113.581C127.264 113.125 127.43 112.668 127.638 112.211C129.59 107.767 131.833 103.49 134.201 99.337C134.7 98.4233 135.24 97.5512 135.78 96.6376C137.691 93.4814 139.768 90.5329 141.886 87.6258C142.842 86.2969 143.756 84.9264 144.753 83.639C147.827 79.7769 151.067 76.1639 154.556 72.9246C156.841 70.8066 159.126 68.9794 161.452 67.3182C162.2 66.7783 162.906 66.28 163.654 65.7816C164.983 64.868 166.312 64.0374 167.641 63.2899C168.514 62.7916 169.345 62.3348 170.217 61.8779C171.006 61.4626 171.796 61.1304 172.626 60.7566C173.665 60.2998 174.745 59.8845 175.783 59.5108C176.407 59.3031 176.988 59.0955 177.611 58.8878C178.941 58.4726 180.27 58.1403 181.558 57.8912C181.848 57.8496 182.139 57.725 182.472 57.6835C184.05 57.4343 185.629 57.2682 187.166 57.2267H188.287C189.492 57.2267 190.738 57.3098 191.901 57.4343C192.275 57.4759 192.649 57.5174 193.023 57.5589C194.56 57.8081 196.055 58.0988 197.509 58.5556L165.606 48.5887C165.481 48.5887 165.357 48.5056 165.232 48.4641C164.111 48.1319 162.947 47.8412 161.784 47.6751C161.577 47.6751 161.327 47.6335 161.12 47.592C160.746 47.5505 160.372 47.5089 159.998 47.4674C159.416 47.3844 158.835 47.3013 158.253 47.2598H154.639C153.393 47.3428 152.105 47.4674 150.817 47.6751C150.734 47.6751 150.651 47.6751 150.568 47.7166C150.277 47.7581 149.945 47.8412 149.654 47.9242C148.699 48.1319 147.702 48.298 146.746 48.5472C146.414 48.6302 146.082 48.7963 145.75 48.8794C145.126 49.0455 144.545 49.2947 143.922 49.5023C143.34 49.71 142.8 49.8346 142.26 50.0837C141.762 50.2914 141.263 50.5405 140.806 50.7482C140.017 51.0804 139.186 51.4542 138.397 51.8695C137.981 52.0771 137.524 52.2432 137.109 52.4509C136.694 52.6585 136.278 52.9907 135.821 53.2399C134.492 53.9874 133.163 54.818 131.792 55.7317C131.335 56.0639 130.836 56.2715 130.379 56.6038C130.13 56.7699 129.839 57.0606 129.59 57.2267C127.305 58.8878 124.979 60.7151 122.694 62.8331C119.247 66.0308 116.006 69.6853 112.891 73.5475C111.894 74.7934 110.98 76.2054 110.024 77.4928C108.571 79.4862 106.992 81.3965 105.621 83.556C104.998 84.5112 104.458 85.5494 103.876 86.5461C103.336 87.4182 102.838 88.2903 102.298 89.2039C101.716 90.2421 101.052 91.2388 100.47 92.3186C99.1824 94.6857 97.9777 97.0944 96.8561 99.5446C96.4822 100.375 96.1083 101.247 95.7345 102.078C95.5268 102.535 95.3606 102.95 95.1529 103.407C94.779 104.279 94.3636 105.151 93.9898 106.023C93.159 108.058 92.3697 110.093 91.6219 112.169C90.9158 114.121 90.2511 116.115 89.628 118.108C89.5865 118.274 89.5449 118.399 89.5034 118.565C89.5034 118.689 89.4203 118.814 89.3787 118.939C88.8802 120.6 88.3818 122.261 87.9248 123.964C87.3848 125.915 86.9278 127.867 86.4709 129.819C86.0555 131.563 85.7232 133.308 85.3908 135.052C85.3908 135.176 85.3493 135.259 85.3077 135.384C85.3077 135.509 85.2662 135.633 85.2247 135.716C84.8508 137.751 84.5185 139.745 84.2277 141.738C83.9369 143.856 83.6876 145.932 83.4799 148.009C83.3969 149.047 83.3138 150.085 83.2722 151.123C83.2722 151.58 83.1892 151.996 83.1892 152.452C83.1476 153.2 83.0645 153.989 83.023 154.736C82.8984 157.228 82.8569 159.72 82.8984 162.212C82.8984 163.707 83.0645 165.16 83.1476 166.655C83.1892 167.444 83.2307 168.192 83.2722 168.981C83.3138 169.687 83.3138 170.434 83.3969 171.099C83.8123 175.293 84.4354 179.405 85.3493 183.35C89.8357 202.827 99.847 214.953 112.392 218.857L144.296 228.824C131.75 224.92 121.739 212.752 117.253 193.317C116.173 188.707 115.549 183.848 115.176 178.906C115.134 178.117 115.092 177.37 115.051 176.581L114.968 176.788Z" fill="#2BF2F1" stroke="black" stroke-width="0.188304" stroke-miterlimit="10"/>
<path d="M154.514 72.9752C184.091 45.6077 215.413 54.9932 224.427 94.155C233.442 133.317 216.742 187.346 187.165 214.713C157.505 242.164 126.184 232.654 117.128 193.492C108.113 154.33 124.854 100.384 154.473 72.9337L154.514 72.9752Z" fill="#50929D" stroke="black" stroke-width="0.188304" stroke-miterlimit="10"/>
<path d="M153.435 222.687C139.685 222.687 129.217 211.432 124.689 191.789C116.257 155.161 132 104.412 159.75 78.6644C169.346 69.7772 179.191 65.043 188.164 65.043C201.872 65.043 212.34 76.2973 216.868 95.8989C225.342 132.61 209.64 183.359 181.891 209.024C172.253 217.952 162.408 222.645 153.435 222.645V222.687Z" fill="#082422" stroke="black" stroke-width="0.188304" stroke-miterlimit="10"/>
<path d="M156.908 200.679C145.775 200.679 141.372 186.766 139.959 180.786C133.77 153.917 145.775 115.254 166.171 96.3581C172.61 90.4195 179.174 87.1387 184.657 87.1387C195.79 87.1387 200.193 101.009 201.564 106.989C207.754 133.9 195.79 172.605 175.435 191.459C168.996 197.398 162.433 200.679 156.908 200.679Z" fill="#50929D" stroke="black" stroke-width="0.188304" stroke-miterlimit="10"/>
<path d="M163.761 334.185L116.878 307.125C105.986 300.839 92.0584 304.569 85.7699 315.458C79.4814 326.347 83.2133 340.271 94.1053 346.557L140.988 373.618C151.88 379.904 165.808 376.173 172.096 365.285C178.385 354.396 174.653 340.472 163.761 334.185Z" fill="#082422" stroke="black" stroke-width="0.188304" stroke-miterlimit="10"/>
</g>
<defs>
<clipPath id="clip0_14997_18405">
<rect width="545" height="385" fill="white"/>
</clipPath>
</defs>
</svg>
