<svg width="362" height="324" viewBox="0 0 362 324" fill="none" xmlns="http://www.w3.org/2000/svg">
<g clip-path="url(#clip0_15015_18826)">
<path d="M43.5586 78.4521C55.2527 34.809 98.4605 8.42362 140.101 19.5811C145.188 20.9442 150.016 22.8046 154.551 25.1006C159.621 25.3783 164.726 26.1795 169.808 27.541C185.544 31.7576 198.792 40.7458 208.547 52.6523C222.962 47.2216 238.945 46.0658 254.699 50.2871C259.764 51.6442 264.571 53.4953 269.089 55.7773C274.137 56.0583 279.222 56.8581 284.281 58.2139C325.876 69.3594 350.065 113.805 338.371 157.447C331.951 181.409 316.046 200.167 296.124 210.371L162.274 286.795C162.16 286.86 162.024 286.878 161.896 286.844L132.317 278.918C132.307 278.915 132.297 278.909 132.287 278.905C132.151 278.879 132.026 278.799 131.95 278.671L49.834 139.283C49.7373 139.119 49.7433 138.916 49.8457 138.758C40.6786 121.078 37.8727 99.6722 43.5586 78.4521Z" fill="#8DFDFA" stroke="#082422" stroke-linejoin="round"/>
<path d="M284.026 59.1807C325.044 70.1713 348.972 114.035 337.409 157.189C331.06 180.883 315.335 199.418 295.653 209.492L295.642 209.498L295.632 209.503L161.961 285.825L132.823 278.018L80.8694 147.748L81.3448 147.875L80.8097 146.861C71.5265 129.292 68.6347 107.905 74.318 86.6943C85.8813 43.5396 128.536 17.5173 169.553 28.5079C192.363 34.6198 209.883 50.8915 218.96 71.558L219.211 72.1289L219.714 71.76C237.907 58.4005 261.216 53.069 284.026 59.1807Z" fill="#2BF2F1" stroke="#082422"/>
<path d="M254.437 51.2519C295.5 62.2548 319.465 106.128 307.902 149.283C301.553 172.976 285.816 191.508 266.116 201.578L266.106 201.583L266.096 201.588L132.558 277.737L51.314 139.828L51.5724 139.897L51.0364 138.883C41.7388 121.31 38.8378 99.9206 44.5211 78.7099C56.0843 35.5557 98.7755 9.54263 139.839 20.5455C162.673 26.6642 180.216 42.9419 189.307 63.6123L189.559 64.1832L190.061 63.8143C208.27 50.4587 231.602 45.1334 254.437 51.2519Z" fill="#8DFDFA" stroke="#082422"/>
<path d="M196.035 154.357L195.78 154.899L182.935 182.085L182.757 182.463L159.486 176.236L146.74 213.188L146.587 213.628L113.212 204.697L113.387 204.189L122.032 179.298C129.98 153.262 155.767 143.581 180.618 150.232L196.035 154.357Z" fill="#082422" stroke="#082422"/>
<path d="M233.134 113.079L232.878 113.621L221.535 137.542L221.356 137.919L175.767 125.719L168.935 145.785L168.782 146.235L168.325 146.104L166.983 145.721L166.977 145.719C157.301 142.824 149.991 136.942 145.966 129.363C141.939 121.781 141.22 112.539 144.655 102.967C145.476 100.679 146.786 97.7362 147.885 95.3764C148.435 94.1945 148.935 93.1547 149.297 92.4102C149.478 92.0379 149.625 91.739 149.727 91.5334C149.778 91.4306 149.817 91.3508 149.844 91.2969C149.857 91.27 149.868 91.2492 149.875 91.2353C149.878 91.2287 149.88 91.2235 149.882 91.22C149.883 91.2183 149.883 91.2165 149.884 91.2156L149.884 91.2146L149.885 91.2149L150.067 90.8491L233.134 113.079Z" fill="#082422" stroke="#082422"/>
</g>
<defs>
<clipPath id="clip0_15015_18826">
<rect width="362" height="324" fill="white"/>
</clipPath>
</defs>
</svg>
