<svg width="605" height="636" viewBox="0 0 605 636" fill="none" xmlns="http://www.w3.org/2000/svg">
<path d="M585.348 475.017L585.312 486.496C585.276 488.332 584.104 490.168 581.683 491.587L348.435 628.285C343.593 631.09 335.71 631.09 330.832 628.285L7.29837 441.196C4.84132 439.777 3.63281 437.906 3.63281 436.034L3.66883 424.555C3.66883 426.426 4.91335 428.294 7.37039 429.717L330.868 616.805C335.778 619.611 343.629 619.611 348.471 616.805L581.719 480.108C584.14 478.689 585.348 476.853 585.348 475.017Z" fill="#B4B4B4" stroke="#082422" stroke-width="0.6" stroke-linecap="round" stroke-linejoin="round"/>
<path d="M581.663 469.886C586.542 472.708 586.57 477.281 581.719 480.103L348.456 616.821C343.63 619.63 335.751 619.63 330.869 616.809L7.34324 429.72C2.46517 426.899 2.43715 422.325 7.2632 419.52L240.526 282.802C245.376 279.98 253.256 279.98 258.134 282.802L581.663 469.886Z" fill="#D6D6D6" stroke="#082422" stroke-width="0.6" stroke-linecap="round" stroke-linejoin="round"/>
<path d="M258.562 9.80824C253.66 6.97448 249.662 9.25912 249.646 14.9226L248.93 267.44C248.914 273.079 252.887 279.977 257.789 282.811L584.212 471.575C589.134 474.42 593.136 472.14 593.152 466.496L593.868 213.979C593.884 208.312 589.911 201.418 584.989 198.572L258.562 9.80824Z" fill="#D6D6D6" stroke="#082422" stroke-width="0.6" stroke-linecap="round" stroke-linejoin="round"/>
<path d="M576.43 217.86C576.438 215.632 574.865 212.902 572.941 211.788L277.487 40.933C272.841 38.2475 267.035 41.5943 267.019 46.9652L266.406 263.565C266.398 265.794 267.971 268.523 269.896 269.638L565.353 440.493C569.999 443.178 575.806 439.832 575.822 434.461L576.43 217.86Z" fill="#2BF2F1" stroke="#082422" stroke-width="0.6" stroke-linecap="round" stroke-linejoin="round"/>
<path d="M252.297 9.19992C253.902 8.25801 256.135 8.39428 258.612 9.79312L585.018 198.577C589.936 201.407 593.914 208.293 593.914 213.988L593.182 466.481C593.182 469.279 592.205 471.267 590.601 472.177L599 467.255C600.569 466.313 602.384 464.353 602.384 461.523V209.94C602.42 204.276 599.244 197.358 594.322 194.529L267.879 6.68695C265.438 5.25604 263.205 5.11575 261.565 6.05766L252.297 9.19992Z" fill="#B4B4B4" stroke="#082422" stroke-width="0.6" stroke-linecap="round" stroke-linejoin="round"/>
<path d="M252.709 8.97357C252.745 8.9375 252.813 8.9375 252.849 8.9375C252.641 9.00564 252.469 9.10985 252.297 9.21406C252.433 9.11385 252.569 9.04171 252.709 8.97357Z" fill="#D6D6D6" stroke="#082422" stroke-width="0.6" stroke-linecap="round" stroke-linejoin="round"/>
<path d="M252.709 8.97357C252.745 8.9375 252.813 8.9375 252.849 8.9375C252.641 9.00564 252.469 9.10985 252.297 9.21406C252.433 9.11385 252.569 9.04171 252.709 8.97357Z" fill="#FEFCF9" stroke="#082422" stroke-width="0.6" stroke-linecap="round" stroke-linejoin="round"/>
<path d="M559.585 473.049C562.255 474.593 562.267 477.094 559.617 478.637L436.701 550.182C434.052 551.725 429.738 551.725 427.069 550.182L119.67 372.421C117.001 370.878 116.997 368.381 119.646 366.838L242.563 295.292C245.212 293.749 249.518 293.745 252.187 295.288L559.585 473.049Z" fill="#B4B4B4" stroke="#082422" stroke-width="0.6" stroke-linecap="round" stroke-linejoin="round"/>
<path d="M283.836 324.809C285.909 326.007 285.921 327.947 283.86 329.145C281.808 330.34 278.458 330.344 276.385 329.145L266.317 323.322C264.244 322.123 264.24 320.179 266.293 318.985C268.354 317.786 271.695 317.786 273.768 318.985L283.836 324.809Z" fill="#D6D6D6" stroke="#082422" stroke-width="0.6" stroke-linecap="round" stroke-linejoin="round"/>
<path d="M262.498 312.477C264.563 313.672 264.583 315.615 262.522 316.814C260.469 318.008 257.111 318.008 255.047 316.814L244.97 310.986C242.905 309.792 242.893 307.844 244.946 306.649C247.007 305.451 250.357 305.455 252.421 306.649L262.498 312.477Z" fill="#D6D6D6" stroke="#082422" stroke-width="0.6" stroke-linecap="round" stroke-linejoin="round"/>
<path d="M250.861 322.224C252.774 323.331 252.79 325.122 250.893 326.229L236.219 334.77C234.318 335.876 231.221 335.876 229.312 334.77L214.558 326.237C212.645 325.13 212.637 323.335 214.534 322.228L229.208 313.687C231.109 312.581 234.198 312.585 236.107 313.691L250.861 322.224Z" fill="#D6D6D6" stroke="#082422" stroke-width="0.6" stroke-linecap="round" stroke-linejoin="round"/>
<path d="M224.51 337.582C226.423 338.688 226.431 340.484 224.534 341.59L209.867 350.127C207.967 351.234 204.869 351.234 202.961 350.127L188.206 341.594C186.293 340.488 186.285 338.692 188.182 337.586L202.848 329.048C204.749 327.942 207.847 327.942 209.755 329.048L224.51 337.582Z" fill="#D6D6D6" stroke="#082422" stroke-width="0.6" stroke-linecap="round" stroke-linejoin="round"/>
<path d="M443.264 464.096C445.177 465.202 445.177 466.993 443.28 468.1L428.613 476.637C426.713 477.743 423.627 477.747 421.715 476.641L406.952 468.104C405.039 466.997 405.039 465.206 406.936 464.1L421.602 455.562C423.503 454.456 426.593 454.452 428.501 455.558L443.264 464.096Z" fill="#D6D6D6" stroke="#082422" stroke-width="0.6" stroke-linecap="round" stroke-linejoin="round"/>
<path d="M416.885 479.428C418.797 480.534 418.806 482.321 416.909 483.428L402.234 491.969C400.334 493.075 397.256 493.075 395.344 491.969L380.581 483.432C378.668 482.325 378.66 480.538 380.557 479.432L395.231 470.89C397.132 469.784 400.21 469.784 402.122 470.89L416.885 479.428Z" fill="#D6D6D6" stroke="#082422" stroke-width="0.6" stroke-linecap="round" stroke-linejoin="round"/>
<path d="M497.955 495.695C499.868 496.801 499.876 498.597 497.979 499.703L483.313 508.241C481.412 509.347 478.315 509.347 476.406 508.241L461.652 499.707C459.739 498.601 459.731 496.805 461.628 495.699L476.294 487.162C478.195 486.055 481.292 486.055 483.201 487.162L497.955 495.695Z" fill="#D6D6D6" stroke="#082422" stroke-width="0.6" stroke-linecap="round" stroke-linejoin="round"/>
<path d="M417.893 510.601C419.805 511.707 419.805 513.499 417.909 514.605L403.242 523.143C401.342 524.249 398.256 524.253 396.343 523.147L354.233 498.793C352.321 497.687 352.321 495.895 354.218 494.789L368.884 486.252C370.785 485.145 373.874 485.141 375.783 486.248L417.893 510.601Z" fill="#D6D6D6" stroke="#082422" stroke-width="0.6" stroke-linecap="round" stroke-linejoin="round"/>
<path d="M471.584 511.056C473.497 512.162 473.513 513.954 471.616 515.06L456.941 523.602C455.041 524.708 451.951 524.704 450.043 523.598L407.941 499.252C406.028 498.146 406.02 496.358 407.917 495.252L422.591 486.711C424.492 485.604 427.569 485.604 429.482 486.711L471.584 511.056Z" fill="#D6D6D6" stroke="#082422" stroke-width="0.6" stroke-linecap="round" stroke-linejoin="round"/>
<path d="M445.221 526.398C447.133 527.504 447.141 529.3 445.245 530.406L430.578 538.944C428.678 540.05 425.58 540.05 423.671 538.944L408.917 530.41C407.004 529.304 406.996 527.508 408.893 526.402L423.559 517.865C425.46 516.759 428.558 516.759 430.466 517.865L445.221 526.398Z" fill="#D6D6D6" stroke="#082422" stroke-width="0.6" stroke-linecap="round" stroke-linejoin="round"/>
<path d="M363.189 478.959C365.102 480.065 365.11 481.861 363.213 482.967L348.547 491.504C346.646 492.611 343.549 492.611 341.64 491.504L326.886 482.971C324.973 481.865 324.965 480.069 326.862 478.963L341.528 470.425C343.429 469.319 346.526 469.319 348.435 470.425L363.189 478.959Z" fill="#D6D6D6" stroke="#082422" stroke-width="0.6" stroke-linecap="round" stroke-linejoin="round"/>
<path d="M389.537 463.615C391.45 464.721 391.466 466.513 389.569 467.619L374.895 476.161C372.994 477.267 369.905 477.263 367.996 476.157L353.242 467.623C351.329 466.517 351.313 464.725 353.21 463.619L367.884 455.078C369.785 453.971 372.87 453.975 374.783 455.082L389.537 463.615Z" fill="#D6D6D6" stroke="#082422" stroke-width="0.6" stroke-linecap="round" stroke-linejoin="round"/>
<path d="M362.205 447.808C364.118 448.915 364.126 450.702 362.229 451.809L347.555 460.35C345.654 461.456 342.577 461.456 340.664 460.35L325.902 451.813C323.989 450.706 323.981 448.919 325.878 447.812L340.552 439.271C342.453 438.165 345.53 438.165 347.443 439.271L362.205 447.808Z" fill="#D6D6D6" stroke="#082422" stroke-width="0.6" stroke-linecap="round" stroke-linejoin="round"/>
<path d="M251.862 353.377C253.775 354.483 253.783 356.279 251.886 357.385L237.22 365.923C235.319 367.029 232.222 367.029 230.313 365.923L215.551 357.385C213.646 356.283 213.638 354.487 215.535 353.381L230.201 344.844C232.102 343.738 235.199 343.738 237.1 344.84L251.862 353.377Z" fill="#D6D6D6" stroke="#082422" stroke-width="0.6" stroke-linecap="round" stroke-linejoin="round"/>
<path d="M203.814 360.211C205.715 359.105 208.805 359.109 210.705 360.211L225.468 368.748C227.38 369.855 227.396 371.646 225.5 372.752L210.825 381.294C208.925 382.4 205.835 382.396 203.926 381.29L189.164 372.752C187.259 371.65 187.243 369.859 189.14 368.752L203.814 360.211Z" fill="#D6D6D6" stroke="#082422" stroke-width="0.6" stroke-linecap="round" stroke-linejoin="round"/>
<path d="M279.193 369.199C281.106 370.305 281.106 372.097 279.209 373.203L264.543 381.74C262.642 382.847 259.557 382.851 257.644 381.745L242.882 373.207C240.969 372.101 240.969 370.309 242.866 369.203L257.532 360.666C259.433 359.559 262.522 359.555 264.431 360.662L279.193 369.199Z" fill="#D6D6D6" stroke="#082422" stroke-width="0.6" stroke-linecap="round" stroke-linejoin="round"/>
<path d="M199.128 384.08C201.041 385.187 201.049 386.982 199.152 388.088L184.486 396.626C182.585 397.732 179.488 397.732 177.579 396.626L162.816 388.088C160.912 386.986 160.904 385.191 162.8 384.084L177.467 375.547C179.367 374.441 182.465 374.441 184.366 375.543L199.128 384.08Z" fill="#D6D6D6" stroke="#082422" stroke-width="0.6" stroke-linecap="round" stroke-linejoin="round"/>
<path d="M252.807 384.558C254.719 385.665 254.727 387.452 252.831 388.559L238.156 397.1C236.256 398.206 233.178 398.206 231.265 397.1L216.503 388.563C214.59 387.456 214.582 385.669 216.479 384.562L231.153 376.021C233.054 374.915 236.131 374.915 238.044 376.021L252.807 384.558Z" fill="#D6D6D6" stroke="#082422" stroke-width="0.6" stroke-linecap="round" stroke-linejoin="round"/>
<path d="M306.541 385.023C308.454 386.129 308.462 387.925 306.565 389.031L291.899 397.569C289.998 398.675 286.901 398.675 284.992 397.569L270.238 389.035C268.325 387.929 268.317 386.133 270.214 385.027L284.88 376.49C286.781 375.384 289.878 375.384 291.787 376.49L306.541 385.023Z" fill="#D6D6D6" stroke="#082422" stroke-width="0.6" stroke-linecap="round" stroke-linejoin="round"/>
<path d="M226.467 399.888C228.38 400.995 228.38 402.786 226.483 403.893L211.817 412.43C209.916 413.536 206.83 413.54 204.918 412.434L190.155 403.897C188.243 402.79 188.243 400.999 190.139 399.892L204.806 391.355C206.706 390.249 209.796 390.245 211.705 391.351L226.467 399.888Z" fill="#D6D6D6" stroke="#082422" stroke-width="0.6" stroke-linecap="round" stroke-linejoin="round"/>
<path d="M280.154 400.367C282.067 401.473 282.083 403.265 280.186 404.371L265.512 412.912C263.611 414.019 260.522 414.015 258.613 412.908L243.859 404.375C241.946 403.269 241.93 401.477 243.827 400.371L258.501 391.83C260.402 390.723 263.491 390.727 265.4 391.834L280.154 400.367Z" fill="#D6D6D6" stroke="#082422" stroke-width="0.6" stroke-linecap="round" stroke-linejoin="round"/>
<path d="M253.807 415.726C255.719 416.833 255.727 418.628 253.831 419.734L239.164 428.272C237.264 429.378 234.166 429.378 232.257 428.272L217.503 419.738C215.59 418.632 215.582 416.837 217.479 415.73L232.145 407.193C234.046 406.087 237.143 406.087 239.052 407.193L253.807 415.726Z" fill="#D6D6D6" stroke="#082422" stroke-width="0.6" stroke-linecap="round" stroke-linejoin="round"/>
<path d="M307.506 416.176C309.419 417.282 309.435 419.073 307.538 420.18L292.863 428.721C290.963 429.827 287.873 429.823 285.965 428.717L271.21 420.184C269.297 419.077 269.281 417.286 271.178 416.18L285.853 407.638C287.753 406.532 290.843 406.536 292.751 407.642L307.506 416.176Z" fill="#D6D6D6" stroke="#082422" stroke-width="0.6" stroke-linecap="round" stroke-linejoin="round"/>
<path d="M335.846 463.163C337.758 464.269 337.758 466.061 335.862 467.167L321.195 475.705C319.295 476.811 316.205 476.815 314.296 475.709L244.847 435.547C242.934 434.441 242.926 432.645 244.823 431.539L259.489 423.002C261.39 421.895 264.487 421.895 266.396 423.002L335.846 463.163Z" fill="#D6D6D6" stroke="#082422" stroke-width="0.6" stroke-linecap="round" stroke-linejoin="round"/>
<path d="M524.299 480.353C526.212 481.46 526.228 483.251 524.331 484.357L509.657 492.899C507.756 494.005 504.658 494.005 502.75 492.899L487.995 484.365C486.083 483.259 486.074 481.464 487.971 480.357L502.646 471.816C504.546 470.71 507.636 470.714 509.544 471.82L524.299 480.353Z" fill="#D6D6D6" stroke="#082422" stroke-width="0.6" stroke-linecap="round" stroke-linejoin="round"/>
<path d="M470.615 479.888C472.528 480.995 472.528 482.786 470.631 483.893L455.965 492.43C454.064 493.536 450.979 493.54 449.066 492.434L434.304 483.897C432.391 482.79 432.391 480.999 434.288 479.892L448.954 471.355C450.855 470.249 453.94 470.245 455.853 471.351L470.615 479.888Z" fill="#D6D6D6" stroke="#082422" stroke-width="0.6" stroke-linecap="round" stroke-linejoin="round"/>
<path d="M451.021 423.6C453.086 424.795 453.106 426.739 451.045 427.937C448.992 429.131 445.635 429.131 443.57 427.937L433.494 422.109C431.429 420.915 431.417 418.967 433.47 417.772C435.531 416.574 438.88 416.578 440.945 417.772L451.021 423.6Z" fill="#D6D6D6" stroke="#082422" stroke-width="0.6" stroke-linecap="round" stroke-linejoin="round"/>
<path d="M472.365 435.95C474.43 437.144 474.45 439.088 472.389 440.287C470.336 441.481 466.979 441.481 464.914 440.287L454.837 434.459C452.773 433.264 452.761 431.316 454.813 430.122C456.874 428.923 460.224 428.928 462.289 430.122L472.365 435.95Z" fill="#D6D6D6" stroke="#082422" stroke-width="0.6" stroke-linecap="round" stroke-linejoin="round"/>
<path d="M515.055 460.613C517.128 461.812 517.14 463.752 515.079 464.95C513.026 466.145 509.677 466.149 507.604 464.95L497.536 459.126C495.463 457.928 495.459 455.984 497.512 454.789C499.573 453.591 502.914 453.591 504.987 454.789L515.055 460.613Z" fill="#D6D6D6" stroke="#082422" stroke-width="0.6" stroke-linecap="round" stroke-linejoin="round"/>
<path d="M536.438 472.975C538.511 474.173 538.523 476.113 536.462 477.311C534.409 478.506 531.06 478.51 528.987 477.311L518.919 471.488C516.846 470.289 516.842 468.345 518.895 467.151C520.955 465.952 524.297 465.952 526.37 467.151L536.438 472.975Z" fill="#D6D6D6" stroke="#082422" stroke-width="0.6" stroke-linecap="round" stroke-linejoin="round"/>
<path d="M493.711 448.281C495.784 449.48 495.796 451.42 493.735 452.618C491.683 453.812 488.333 453.816 486.26 452.618L476.192 446.794C474.119 445.596 474.115 443.652 476.168 442.457C478.229 441.259 481.57 441.259 483.643 442.457L493.711 448.281Z" fill="#D6D6D6" stroke="#082422" stroke-width="0.6" stroke-linecap="round" stroke-linejoin="round"/>
<path d="M496.975 464.545C498.887 465.651 498.895 467.439 496.999 468.545L482.324 477.086C480.424 478.192 477.338 478.197 475.425 477.09L460.663 468.553C458.75 467.447 458.75 465.655 460.647 464.549L475.321 456.007C477.222 454.901 480.3 454.901 482.212 456.007L496.975 464.545Z" fill="#D6D6D6" stroke="#082422" stroke-width="0.6" stroke-linecap="round" stroke-linejoin="round"/>
<path d="M469.615 448.711C471.528 449.817 471.536 451.605 469.639 452.711L454.965 461.252C453.064 462.359 449.979 462.363 448.066 461.256L433.304 452.719C431.391 451.613 431.391 449.821 433.288 448.715L447.962 440.173C449.863 439.067 452.94 439.067 454.853 440.173L469.615 448.711Z" fill="#D6D6D6" stroke="#082422" stroke-width="0.6" stroke-linecap="round" stroke-linejoin="round"/>
<path d="M442.268 432.912C444.18 434.018 444.196 435.81 442.3 436.916L427.625 445.457C425.724 446.564 422.627 446.564 420.718 445.457L405.964 436.924C404.051 435.818 404.043 434.022 405.94 432.916L420.614 424.375C422.515 423.268 425.6 423.272 427.513 424.379L442.268 432.912Z" fill="#D6D6D6" stroke="#082422" stroke-width="0.6" stroke-linecap="round" stroke-linejoin="round"/>
<path d="M388.561 432.435C390.473 433.542 390.473 435.333 388.577 436.439L373.91 444.977C372.01 446.083 368.92 446.087 367.011 444.981L352.249 436.443C350.336 435.337 350.336 433.546 352.233 432.439L366.899 423.902C368.8 422.796 371.889 422.792 373.798 423.898L388.561 432.435Z" fill="#D6D6D6" stroke="#082422" stroke-width="0.6" stroke-linecap="round" stroke-linejoin="round"/>
<path d="M414.928 417.119C416.841 418.225 416.849 420.013 414.952 421.119L400.278 429.66C398.377 430.767 395.287 430.771 393.379 429.664L378.616 421.127C376.703 420.021 376.704 418.229 378.6 417.123L393.275 408.582C395.175 407.475 398.253 407.475 400.165 408.582L414.928 417.119Z" fill="#D6D6D6" stroke="#082422" stroke-width="0.6" stroke-linecap="round" stroke-linejoin="round"/>
<path d="M333.893 400.828C335.805 401.934 335.813 403.73 333.917 404.836L319.25 413.373C317.35 414.48 314.252 414.48 312.343 413.373L297.589 404.84C295.676 403.734 295.668 401.938 297.565 400.832L312.231 392.295C314.132 391.188 317.229 391.188 319.138 392.295L333.893 400.828Z" fill="#D6D6D6" stroke="#082422" stroke-width="0.6" stroke-linecap="round" stroke-linejoin="round"/>
<path d="M334.869 431.988C336.782 433.094 336.79 434.882 334.893 435.988L320.219 444.53C318.318 445.636 315.241 445.636 313.328 444.53L298.566 435.992C296.653 434.886 296.645 433.098 298.542 431.992L313.216 423.451C315.117 422.345 318.194 422.345 320.107 423.451L334.869 431.988Z" fill="#D6D6D6" stroke="#082422" stroke-width="0.6" stroke-linecap="round" stroke-linejoin="round"/>
<path d="M361.225 416.64C363.137 417.747 363.137 419.538 361.241 420.645L346.574 429.182C344.674 430.288 341.584 430.292 339.675 429.186L324.913 420.649C323 419.542 323 417.751 324.897 416.644L339.563 408.107C341.464 407.001 344.554 406.997 346.462 408.103L361.225 416.64Z" fill="#D6D6D6" stroke="#082422" stroke-width="0.6" stroke-linecap="round" stroke-linejoin="round"/>
<path d="M386.954 386.559C389.027 387.757 389.039 389.697 386.978 390.895C384.925 392.09 381.575 392.094 379.502 390.895L369.434 385.072C367.361 383.873 367.357 381.929 369.41 380.735C371.471 379.536 374.812 379.536 376.885 380.735L386.954 386.559Z" fill="#D6D6D6" stroke="#082422" stroke-width="0.6" stroke-linecap="round" stroke-linejoin="round"/>
<path d="M387.584 401.297C389.497 402.403 389.505 404.191 387.608 405.297L372.934 413.838C371.033 414.944 367.948 414.948 366.035 413.842L351.273 405.305C349.36 404.199 349.36 402.407 351.257 401.301L365.931 392.759C367.832 391.653 370.909 391.653 372.822 392.759L387.584 401.297Z" fill="#D6D6D6" stroke="#082422" stroke-width="0.6" stroke-linecap="round" stroke-linejoin="round"/>
<path d="M301.571 337.17C303.644 338.368 303.656 340.308 301.595 341.507C299.542 342.701 296.193 342.705 294.12 341.507L284.051 335.683C281.978 334.484 281.974 332.541 284.027 331.346C286.088 330.148 289.43 330.148 291.503 331.346L301.571 337.17Z" fill="#D6D6D6" stroke="#082422" stroke-width="0.6" stroke-linecap="round" stroke-linejoin="round"/>
<path d="M278.222 338.047C280.134 339.153 280.15 340.945 278.254 342.051L263.579 350.593C261.679 351.699 258.581 351.699 256.672 350.593L241.91 342.055C240.005 340.953 239.997 339.157 241.894 338.051L256.568 329.51C258.469 328.404 261.559 328.408 263.459 329.51L278.222 338.047Z" fill="#D6D6D6" stroke="#082422" stroke-width="0.6" stroke-linecap="round" stroke-linejoin="round"/>
<path d="M322.915 349.529C324.987 350.728 324.999 352.668 322.939 353.866C320.886 355.061 317.536 355.065 315.463 353.866L305.395 348.042C303.322 346.844 303.318 344.9 305.371 343.705C307.432 342.507 310.773 342.507 312.846 343.705L322.915 349.529Z" fill="#D6D6D6" stroke="#082422" stroke-width="0.6" stroke-linecap="round" stroke-linejoin="round"/>
<path d="M344.263 361.868C346.328 363.062 346.348 365.006 344.287 366.205C342.234 367.399 338.877 367.399 336.812 366.205L326.736 360.377C324.671 359.182 324.659 357.234 326.712 356.04C328.773 354.841 332.122 354.845 334.187 356.04L344.263 361.868Z" fill="#D6D6D6" stroke="#082422" stroke-width="0.6" stroke-linecap="round" stroke-linejoin="round"/>
<path d="M305.576 353.869C307.489 354.975 307.497 356.763 305.6 357.869L290.926 366.41C289.025 367.517 285.94 367.521 284.027 366.415L269.265 357.877C267.352 356.771 267.352 354.979 269.249 353.873L283.923 345.332C285.824 344.225 288.901 344.225 290.814 345.332L305.576 353.869Z" fill="#D6D6D6" stroke="#082422" stroke-width="0.6" stroke-linecap="round" stroke-linejoin="round"/>
<path d="M365.631 374.212C367.695 375.406 367.715 377.35 365.655 378.548C363.602 379.743 360.244 379.743 358.179 378.548L348.103 372.72C346.038 371.526 346.026 369.578 348.079 368.384C350.14 367.185 353.489 367.189 355.554 368.384L365.631 374.212Z" fill="#D6D6D6" stroke="#082422" stroke-width="0.6" stroke-linecap="round" stroke-linejoin="round"/>
<path d="M332.9 369.666C334.813 370.772 334.829 372.564 332.932 373.67L318.258 382.211C316.357 383.318 313.26 383.318 311.351 382.211L296.597 373.678C294.684 372.572 294.676 370.776 296.573 369.67L311.247 361.128C313.148 360.022 316.237 360.026 318.146 361.132L332.9 369.666Z" fill="#D6D6D6" stroke="#082422" stroke-width="0.6" stroke-linecap="round" stroke-linejoin="round"/>
<path d="M360.244 385.474C362.157 386.581 362.173 388.372 360.276 389.479L345.602 398.02C343.701 399.126 340.604 399.126 338.695 398.02L323.941 389.487C322.028 388.38 322.02 386.585 323.917 385.478L338.591 376.937C340.492 375.831 343.581 375.835 345.49 376.941L360.244 385.474Z" fill="#D6D6D6" stroke="#082422" stroke-width="0.6" stroke-linecap="round" stroke-linejoin="round"/>
<path d="M415.908 448.269C417.821 449.376 417.829 451.171 415.932 452.277L401.266 460.815C399.365 461.921 396.268 461.921 394.359 460.815L379.605 452.281C377.692 451.175 377.684 449.38 379.581 448.273L394.247 439.736C396.148 438.63 399.245 438.63 401.154 439.736L415.908 448.269Z" fill="#D6D6D6" stroke="#082422" stroke-width="0.6" stroke-linecap="round" stroke-linejoin="round"/>
<path d="M225.475 368.732C227.387 369.838 227.403 371.63 225.507 372.736L210.832 381.277C208.932 382.384 205.842 382.38 203.933 381.273L161.827 356.924C159.915 355.818 159.899 354.026 161.795 352.92L176.47 344.378C178.371 343.272 181.46 343.276 183.369 344.382L225.475 368.732Z" fill="#D6D6D6" stroke="#082422" stroke-width="0.6" stroke-linecap="round" stroke-linejoin="round"/>
<path d="M171.768 368.267C173.68 369.374 173.688 371.169 171.792 372.275L157.125 380.813C155.224 381.919 152.127 381.919 150.218 380.813L135.464 372.279C133.551 371.173 133.543 369.378 135.44 368.271L150.106 359.734C152.007 358.628 155.104 358.628 157.013 359.734L171.768 368.267Z" fill="#D6D6D6" stroke="#082422" stroke-width="0.6" stroke-linecap="round" stroke-linejoin="round"/>
<path d="M429.665 411.25C431.737 412.448 431.749 414.388 429.689 415.587C427.636 416.781 424.286 416.785 422.213 415.587L412.145 409.763C410.072 408.565 410.068 406.621 412.121 405.426C414.182 404.228 417.523 404.228 419.596 405.426L429.665 411.25Z" fill="#D6D6D6" stroke="#082422" stroke-width="0.6" stroke-linecap="round" stroke-linejoin="round"/>
<path d="M408.321 398.891C410.394 400.089 410.406 402.029 408.345 403.227C406.292 404.422 402.943 404.426 400.87 403.227L390.801 397.404C388.728 396.205 388.724 394.261 390.777 393.067C392.838 391.868 396.18 391.868 398.253 393.067L408.321 398.891Z" fill="#D6D6D6" stroke="#082422" stroke-width="0.6" stroke-linecap="round" stroke-linejoin="round"/>
<path d="M306.68 496.192C308.253 497.102 308.261 498.577 306.7 499.487L231.492 543.569C229.936 544.474 227.395 544.474 225.822 543.565L121.514 483.246C119.941 482.336 119.933 480.861 121.49 479.955L196.698 435.874C198.262 434.964 200.799 434.964 202.376 435.874L306.68 496.192Z" fill="#B4B4B4" stroke="#082422" stroke-width="0.6" stroke-linecap="round" stroke-linejoin="round"/>
<path d="M458.277 198.716L454.184 232.35L408.411 205.934L406.06 231.269L405.357 230.828C384.811 218.167 372.018 193.007 374.513 166.807C375.11 160.524 376.944 152.286 377.04 151.852L458.277 198.716Z" fill="#00201D"/>
<path d="M432.846 248.156L428.538 283.288L403.292 268.555L399.451 309.561L367.055 290.867L368.431 270.086C370.424 234.079 393.83 225.638 420.14 240.822L432.846 248.156Z" fill="#00201D"/>
<path d="M205.859 211.432L206.92 227.978L223.255 221.188L222.194 204.643L205.859 211.432Z" fill="#DCFF00" stroke="#082422" stroke-width="0.6" stroke-linejoin="round"/>
<path d="M259.693 105.18L219.38 81.8684C209.011 75.8722 199.323 74.9143 191.46 78.1849L175.125 84.9787C182.988 81.7081 192.676 82.666 203.045 88.6622L243.358 111.974C268.409 126.459 287.945 164.877 286.989 197.78C286.432 217.067 278.957 230.178 267.824 234.807L284.159 228.013C295.292 223.384 302.767 210.273 303.324 190.986C304.28 158.083 284.744 119.665 259.693 105.18Z" fill="#B3D000" stroke="#082422" stroke-width="0.6" stroke-linejoin="round"/>
<path d="M243.353 111.98C268.403 126.466 287.94 164.884 286.983 197.787C286.031 230.69 264.958 245.62 239.903 231.131L205.853 211.443L206.913 227.988C205.308 226.445 174.783 197.093 161.746 157.036C157.768 145.517 155.623 133.432 155.955 122.017C156.908 89.114 177.989 74.1836 203.044 88.6691L243.357 111.98H243.353Z" fill="#DCFF00" stroke="#082422" stroke-width="0.6" stroke-linejoin="round"/>
<path d="M205.324 147.994C207.865 149.465 209.846 153.361 209.75 156.7C209.654 160.038 207.513 161.553 204.976 160.082C202.439 158.611 200.454 154.716 200.55 151.377C200.646 148.038 202.787 146.523 205.324 147.994Z" fill="#082422"/>
<path d="M222.797 158.103C225.342 159.574 227.327 163.474 227.227 166.809C227.127 170.144 224.99 171.663 222.445 170.188C219.9 168.713 217.923 164.821 218.019 161.482C218.115 158.143 220.256 156.628 222.793 158.099L222.797 158.103Z" fill="#517C3C"/>
<path d="M240.321 168.228C242.862 169.699 244.843 173.595 244.747 176.934C244.651 180.272 242.51 181.788 239.973 180.317C237.427 178.846 235.443 174.946 235.543 171.611C235.643 168.276 237.78 166.757 240.325 168.232L240.321 168.228Z" fill="#8DBD50"/>
</svg>
