<svg width="605" height="636" viewBox="0 0 605 636" fill="none" xmlns="http://www.w3.org/2000/svg">
<g clip-path="url(#clip0_14997_18412)">
<path d="M581.715 475.131L581.679 492.073C581.643 493.909 580.471 495.746 578.05 497.165L344.803 633.895C339.961 636.702 332.077 636.702 327.199 633.895L3.66555 446.762C1.20851 445.343 0 443.471 0 441.599L0.0360138 424.656C0.0360138 426.529 1.28054 428.397 3.73758 429.82L327.235 616.953C332.145 619.759 339.997 619.759 344.839 616.953L578.086 480.222C580.507 478.803 581.715 476.967 581.715 475.131Z" fill="#082422" stroke="#082422" stroke-width="0.267759" stroke-linecap="round" stroke-linejoin="round"/>
<path d="M578.031 469.996C582.909 472.818 582.937 477.392 578.087 480.215L344.823 616.965C339.997 619.776 332.118 619.776 327.236 616.953L3.71043 429.82C-1.16764 426.998 -1.19566 422.424 3.63039 419.617L236.894 282.867C241.744 280.044 249.623 280.044 254.501 282.867L578.031 469.996Z" fill="#35605F" stroke="#082422" stroke-width="0.267759" stroke-linecap="round" stroke-linejoin="round"/>
<path d="M254.929 9.81244C250.027 6.978 246.029 9.26319 246.013 14.928L245.297 267.505C245.281 273.146 249.255 280.046 254.157 282.88L580.579 471.689C585.502 474.535 589.503 472.254 589.519 466.609L590.236 214.032C590.252 208.363 586.278 201.468 581.356 198.621L254.929 9.81244Z" fill="#35605F" stroke="#082422" stroke-width="0.267759" stroke-linecap="round" stroke-linejoin="round"/>
<path d="M572.797 217.913C572.805 215.684 571.233 212.953 569.308 211.839L273.854 40.9429C269.208 38.2569 263.402 41.6044 263.386 46.9766L262.773 263.628C262.765 265.857 264.338 268.588 266.263 269.702L561.721 440.598C566.367 443.284 572.173 439.937 572.189 434.564L572.797 217.913Z" fill="#2BF2F1" stroke="#082422" stroke-width="0.267759" stroke-linecap="round" stroke-linejoin="round"/>
<path d="M248.664 9.20235C250.269 8.26022 252.502 8.39652 254.979 9.7957L581.386 198.624C586.304 201.455 590.281 208.342 590.281 214.039L589.549 466.593C589.549 469.391 588.573 471.379 586.968 472.29L601.726 463.726C603.295 462.784 604.307 460.824 604.307 457.993L605.004 205.44C605.04 199.775 601.062 192.855 596.14 190.025L269.697 1.22825C267.256 -0.202996 265.023 -0.343317 263.382 0.598822L248.664 9.20235Z" fill="#082422" stroke="#082422" stroke-width="0.267759" stroke-linecap="round" stroke-linejoin="round"/>
<path d="M249.076 8.97553C249.112 8.93945 249.18 8.93945 249.216 8.93945C249.008 9.00761 248.836 9.11184 248.664 9.21608C248.8 9.11585 248.936 9.04369 249.076 8.97553Z" fill="white" stroke="#082422" stroke-width="0.267759" stroke-linecap="round" stroke-linejoin="round"/>
<path d="M249.076 8.97553C249.112 8.93945 249.18 8.93945 249.216 8.93945C249.008 9.00761 248.836 9.11184 248.664 9.21608C248.8 9.11585 248.936 9.04369 249.076 8.97553Z" fill="#FEFCF9" stroke="#082422" stroke-width="0.267759" stroke-linecap="round" stroke-linejoin="round"/>
<path d="M555.953 473.162C558.622 474.706 558.634 477.208 555.985 478.751L433.068 550.314C430.419 551.857 426.105 551.857 423.436 550.314L116.038 372.51C113.368 370.966 113.364 368.469 116.014 366.925L238.93 295.363C241.579 293.819 245.885 293.815 248.554 295.359L555.953 473.162Z" fill="#082422" stroke="#082422" stroke-width="0.267759" stroke-linecap="round" stroke-linejoin="round"/>
<path d="M280.204 324.884C282.277 326.083 282.289 328.024 280.228 329.222C278.175 330.417 274.825 330.421 272.752 329.222L262.684 323.397C260.611 322.198 260.607 320.254 262.66 319.059C264.721 317.86 268.062 317.86 270.135 319.059L280.204 324.884Z" fill="#35605F" stroke="#082422" stroke-width="0.267759" stroke-linecap="round" stroke-linejoin="round"/>
<path d="M258.865 312.551C260.93 313.746 260.95 315.69 258.889 316.889C256.836 318.084 253.479 318.084 251.414 316.889L241.337 311.06C239.273 309.865 239.261 307.916 241.313 306.722C243.374 305.523 246.724 305.527 248.789 306.722L258.865 312.551Z" fill="#35605F" stroke="#082422" stroke-width="0.267759" stroke-linecap="round" stroke-linejoin="round"/>
<path d="M250.861 322.301C252.774 323.407 252.79 325.199 250.893 326.306L236.219 334.849C234.318 335.956 231.221 335.956 229.312 334.849L214.558 326.314C212.645 325.207 212.637 323.411 214.534 322.305L229.208 313.761C231.109 312.655 234.198 312.659 236.107 313.765L250.861 322.301Z" fill="#35605F" stroke="#082422" stroke-width="0.267759" stroke-linecap="round" stroke-linejoin="round"/>
<path d="M224.51 337.662C226.423 338.769 226.431 340.565 224.534 341.671L209.867 350.211C207.967 351.317 204.869 351.317 202.961 350.211L188.206 341.675C186.293 340.569 186.285 338.773 188.182 337.666L202.848 329.127C204.749 328.02 207.847 328.02 209.755 329.127L224.51 337.662Z" fill="#35605F" stroke="#082422" stroke-width="0.267759" stroke-linecap="round" stroke-linejoin="round"/>
<path d="M443.272 464.205C445.184 465.312 445.184 467.104 443.288 468.21L428.621 476.75C426.72 477.856 423.635 477.86 421.722 476.754L406.96 468.214C405.047 467.108 405.047 465.316 406.944 464.209L421.61 455.67C423.511 454.563 426.6 454.559 428.509 455.666L443.272 464.205Z" fill="#35605F" stroke="#082422" stroke-width="0.267759" stroke-linecap="round" stroke-linejoin="round"/>
<path d="M416.885 479.541C418.797 480.648 418.806 482.436 416.909 483.542L402.234 492.086C400.334 493.192 397.256 493.192 395.344 492.086L380.581 483.546C378.668 482.44 378.66 480.652 380.557 479.545L395.231 471.002C397.132 469.895 400.21 469.895 402.122 471.002L416.885 479.541Z" fill="#35605F" stroke="#082422" stroke-width="0.267759" stroke-linecap="round" stroke-linejoin="round"/>
<path d="M497.947 495.813C499.86 496.919 499.868 498.715 497.971 499.822L483.305 508.361C481.404 509.468 478.307 509.468 476.398 508.361L461.644 499.826C459.731 498.719 459.723 496.923 461.62 495.817L476.286 487.277C478.187 486.171 481.284 486.171 483.193 487.277L497.947 495.813Z" fill="#35605F" stroke="#082422" stroke-width="0.267759" stroke-linecap="round" stroke-linejoin="round"/>
<path d="M417.893 510.722C419.805 511.829 419.805 513.621 417.909 514.727L403.242 523.267C401.342 524.373 398.256 524.377 396.343 523.271L354.233 498.911C352.321 497.805 352.321 496.013 354.218 494.906L368.884 486.367C370.785 485.261 373.874 485.257 375.783 486.363L417.893 510.722Z" fill="#35605F" stroke="#082422" stroke-width="0.267759" stroke-linecap="round" stroke-linejoin="round"/>
<path d="M471.584 511.177C473.497 512.284 473.513 514.076 471.616 515.182L456.941 523.726C455.041 524.832 451.951 524.828 450.043 523.722L407.941 499.37C406.028 498.264 406.02 496.476 407.917 495.369L422.591 486.826C424.492 485.719 427.569 485.719 429.482 486.826L471.584 511.177Z" fill="#35605F" stroke="#082422" stroke-width="0.267759" stroke-linecap="round" stroke-linejoin="round"/>
<path d="M445.221 526.521C447.133 527.628 447.141 529.424 445.245 530.531L430.578 539.07C428.678 540.176 425.58 540.176 423.671 539.07L408.917 530.535C407.004 529.428 406.996 527.632 408.893 526.525L423.559 517.986C425.46 516.88 428.558 516.88 430.466 517.986L445.221 526.521Z" fill="#35605F" stroke="#082422" stroke-width="0.267759" stroke-linecap="round" stroke-linejoin="round"/>
<path d="M363.189 479.072C365.102 480.179 365.11 481.975 363.213 483.081L348.547 491.621C346.646 492.727 343.549 492.727 341.64 491.621L326.886 483.085C324.973 481.979 324.965 480.183 326.862 479.076L341.528 470.537C343.429 469.43 346.526 469.43 348.435 470.537L363.189 479.072Z" fill="#35605F" stroke="#082422" stroke-width="0.267759" stroke-linecap="round" stroke-linejoin="round"/>
<path d="M389.537 463.725C391.45 464.831 391.466 466.623 389.569 467.73L374.895 476.273C372.994 477.38 369.905 477.376 367.996 476.269L353.242 467.734C351.329 466.627 351.313 464.835 353.21 463.729L367.884 455.185C369.785 454.079 372.87 454.083 374.783 455.189L389.537 463.725Z" fill="#35605F" stroke="#082422" stroke-width="0.267759" stroke-linecap="round" stroke-linejoin="round"/>
<path d="M362.197 447.916C364.11 449.023 364.118 450.811 362.221 451.917L347.547 460.461C345.646 461.567 342.569 461.567 340.656 460.461L325.894 451.921C323.981 450.815 323.973 449.027 325.87 447.92L340.544 439.377C342.445 438.27 345.522 438.27 347.435 439.377L362.197 447.916Z" fill="#35605F" stroke="#082422" stroke-width="0.267759" stroke-linecap="round" stroke-linejoin="round"/>
<path d="M251.862 353.459C253.775 354.566 253.783 356.362 251.886 357.469L237.22 366.008C235.319 367.115 232.222 367.115 230.313 366.008L215.551 357.469C213.646 356.366 213.638 354.57 215.535 353.464L230.201 344.924C232.102 343.818 235.199 343.818 237.1 344.92L251.862 353.459Z" fill="#35605F" stroke="#082422" stroke-width="0.267759" stroke-linecap="round" stroke-linejoin="round"/>
<path d="M203.814 360.297C205.715 359.191 208.805 359.195 210.705 360.297L225.468 368.837C227.38 369.943 227.396 371.735 225.5 372.842L210.825 381.385C208.925 382.492 205.835 382.488 203.926 381.381L189.164 372.842C187.259 371.739 187.243 369.947 189.14 368.841L203.814 360.297Z" fill="#35605F" stroke="#082422" stroke-width="0.267759" stroke-linecap="round" stroke-linejoin="round"/>
<path d="M279.193 369.287C281.106 370.394 281.106 372.186 279.209 373.292L264.543 381.832C262.642 382.938 259.557 382.942 257.644 381.836L242.882 373.296C240.969 372.19 240.969 370.398 242.866 369.291L257.532 360.752C259.433 359.645 262.522 359.641 264.431 360.748L279.193 369.287Z" fill="#35605F" stroke="#082422" stroke-width="0.267759" stroke-linecap="round" stroke-linejoin="round"/>
<path d="M199.128 384.17C201.041 385.277 201.049 387.073 199.152 388.18L184.486 396.719C182.585 397.825 179.488 397.825 177.579 396.719L162.816 388.18C160.912 387.077 160.904 385.281 162.8 384.174L177.467 375.635C179.367 374.529 182.465 374.529 184.366 375.631L199.128 384.17Z" fill="#35605F" stroke="#082422" stroke-width="0.267759" stroke-linecap="round" stroke-linejoin="round"/>
<path d="M252.807 384.65C254.719 385.757 254.727 387.545 252.831 388.652L238.156 397.195C236.256 398.301 233.178 398.301 231.265 397.195L216.503 388.656C214.59 387.549 214.582 385.761 216.479 384.655L231.153 376.111C233.054 375.005 236.131 375.005 238.044 376.111L252.807 384.65Z" fill="#35605F" stroke="#082422" stroke-width="0.267759" stroke-linecap="round" stroke-linejoin="round"/>
<path d="M306.541 385.113C308.454 386.22 308.462 388.016 306.565 389.122L291.899 397.662C289.998 398.768 286.901 398.768 284.992 397.662L270.238 389.126C268.325 388.02 268.317 386.224 270.214 385.117L284.88 376.578C286.781 375.471 289.878 375.471 291.787 376.578L306.541 385.113Z" fill="#35605F" stroke="#082422" stroke-width="0.267759" stroke-linecap="round" stroke-linejoin="round"/>
<path d="M226.467 399.984C228.38 401.091 228.38 402.883 226.483 403.99L211.817 412.529C209.916 413.635 206.83 413.639 204.918 412.533L190.155 403.994C188.243 402.887 188.243 401.095 190.139 399.988L204.806 391.449C206.706 390.343 209.796 390.339 211.705 391.445L226.467 399.984Z" fill="#35605F" stroke="#082422" stroke-width="0.267759" stroke-linecap="round" stroke-linejoin="round"/>
<path d="M280.154 400.461C282.067 401.568 282.083 403.36 280.186 404.466L265.512 413.009C263.611 414.116 260.522 414.112 258.613 413.005L243.859 404.47C241.946 403.364 241.93 401.572 243.827 400.465L258.501 391.922C260.402 390.815 263.491 390.819 265.4 391.926L280.154 400.461Z" fill="#35605F" stroke="#082422" stroke-width="0.267759" stroke-linecap="round" stroke-linejoin="round"/>
<path d="M253.807 415.824C255.719 416.931 255.727 418.727 253.831 419.833L239.164 428.373C237.264 429.479 234.166 429.479 232.257 428.373L217.503 419.837C215.59 418.731 215.582 416.935 217.479 415.828L232.145 407.289C234.046 406.182 237.143 406.182 239.052 407.289L253.807 415.824Z" fill="#35605F" stroke="#082422" stroke-width="0.267759" stroke-linecap="round" stroke-linejoin="round"/>
<path d="M307.514 416.275C309.426 417.382 309.442 419.174 307.546 420.281L292.871 428.824C290.971 429.93 287.881 429.926 285.972 428.82L271.218 420.285C269.305 419.178 269.289 417.386 271.186 416.279L285.86 407.736C287.761 406.63 290.85 406.634 292.759 407.74L307.514 416.275Z" fill="#35605F" stroke="#082422" stroke-width="0.267759" stroke-linecap="round" stroke-linejoin="round"/>
<path d="M335.846 463.275C337.758 464.381 337.758 466.173 335.862 467.28L321.195 475.819C319.295 476.925 316.205 476.93 314.296 475.823L244.847 435.652C242.934 434.545 242.926 432.749 244.823 431.643L259.489 423.103C261.39 421.997 264.487 421.997 266.396 423.103L335.846 463.275Z" fill="#35605F" stroke="#082422" stroke-width="0.267759" stroke-linecap="round" stroke-linejoin="round"/>
<path d="M524.291 480.467C526.204 481.573 526.22 483.365 524.323 484.472L509.649 493.015C507.748 494.122 504.651 494.122 502.742 493.015L487.988 484.48C486.075 483.373 486.067 481.577 487.963 480.471L502.638 471.928C504.539 470.821 507.628 470.825 509.537 471.931L524.291 480.467Z" fill="#35605F" stroke="#082422" stroke-width="0.267759" stroke-linecap="round" stroke-linejoin="round"/>
<path d="M470.615 480.004C472.528 481.11 472.528 482.903 470.631 484.009L455.965 492.548C454.064 493.655 450.979 493.659 449.066 492.552L434.304 484.013C432.391 482.907 432.391 481.114 434.288 480.008L448.954 471.469C450.855 470.362 453.94 470.358 455.853 471.465L470.615 480.004Z" fill="#35605F" stroke="#082422" stroke-width="0.267759" stroke-linecap="round" stroke-linejoin="round"/>
<path d="M451.021 423.701C453.086 424.896 453.106 426.841 451.045 428.039C448.992 429.234 445.635 429.234 443.57 428.039L433.494 422.21C431.429 421.015 431.417 419.067 433.47 417.872C435.531 416.673 438.88 416.677 440.945 417.872L451.021 423.701Z" fill="#35605F" stroke="#082422" stroke-width="0.267759" stroke-linecap="round" stroke-linejoin="round"/>
<path d="M472.365 436.053C474.43 437.248 474.45 439.192 472.389 440.391C470.336 441.585 466.979 441.585 464.914 440.391L454.837 434.562C452.773 433.367 452.761 431.418 454.813 430.224C456.874 429.025 460.224 429.029 462.289 430.224L472.365 436.053Z" fill="#35605F" stroke="#082422" stroke-width="0.267759" stroke-linecap="round" stroke-linejoin="round"/>
<path d="M515.055 460.724C517.128 461.923 517.14 463.863 515.079 465.062C513.026 466.257 509.677 466.261 507.604 465.062L497.536 459.237C495.463 458.038 495.459 456.094 497.512 454.899C499.573 453.7 502.914 453.7 504.987 454.899L515.055 460.724Z" fill="#35605F" stroke="#082422" stroke-width="0.267759" stroke-linecap="round" stroke-linejoin="round"/>
<path d="M536.438 473.088C538.511 474.286 538.523 476.227 536.462 477.425C534.409 478.62 531.06 478.624 528.987 477.425L518.919 471.6C516.846 470.401 516.842 468.457 518.895 467.262C520.955 466.064 524.297 466.064 526.37 467.262L536.438 473.088Z" fill="#35605F" stroke="#082422" stroke-width="0.267759" stroke-linecap="round" stroke-linejoin="round"/>
<path d="M493.719 448.386C495.792 449.585 495.804 451.525 493.743 452.724C491.69 453.919 488.341 453.923 486.268 452.724L476.2 446.899C474.127 445.7 474.123 443.756 476.176 442.561C478.237 441.362 481.578 441.362 483.651 442.561L493.719 448.386Z" fill="#35605F" stroke="#082422" stroke-width="0.267759" stroke-linecap="round" stroke-linejoin="round"/>
<path d="M496.975 464.654C498.887 465.761 498.895 467.549 496.999 468.656L482.324 477.199C480.424 478.305 477.338 478.309 475.425 477.203L460.663 468.664C458.75 467.557 458.75 465.765 460.647 464.658L475.321 456.115C477.222 455.009 480.3 455.009 482.212 456.115L496.975 464.654Z" fill="#35605F" stroke="#082422" stroke-width="0.267759" stroke-linecap="round" stroke-linejoin="round"/>
<path d="M469.615 448.817C471.528 449.923 471.536 451.711 469.639 452.818L454.965 461.361C453.064 462.468 449.979 462.472 448.066 461.365L433.304 452.826C431.391 451.719 431.391 449.927 433.288 448.821L447.962 440.277C449.863 439.171 452.94 439.171 454.853 440.277L469.615 448.817Z" fill="#35605F" stroke="#082422" stroke-width="0.267759" stroke-linecap="round" stroke-linejoin="round"/>
<path d="M442.275 433.016C444.188 434.122 444.204 435.914 442.307 437.021L427.633 445.564C425.732 446.671 422.635 446.671 420.726 445.564L405.972 437.029C404.059 435.922 404.051 434.126 405.948 433.02L420.622 424.476C422.523 423.37 425.608 423.374 427.521 424.48L442.275 433.016Z" fill="#35605F" stroke="#082422" stroke-width="0.267759" stroke-linecap="round" stroke-linejoin="round"/>
<path d="M388.561 432.537C390.473 433.644 390.473 435.436 388.577 436.542L373.91 445.082C372.01 446.188 368.92 446.192 367.011 445.086L352.249 436.546C350.336 435.44 350.336 433.648 352.233 432.541L366.899 424.002C368.8 422.895 371.889 422.891 373.798 423.998L388.561 432.537Z" fill="#35605F" stroke="#082422" stroke-width="0.267759" stroke-linecap="round" stroke-linejoin="round"/>
<path d="M414.928 417.217C416.841 418.323 416.849 420.112 414.952 421.218L400.278 429.761C398.377 430.868 395.287 430.872 393.379 429.765L378.616 421.226C376.703 420.119 376.704 418.327 378.6 417.221L393.275 408.678C395.175 407.571 398.253 407.571 400.165 408.678L414.928 417.217Z" fill="#35605F" stroke="#082422" stroke-width="0.267759" stroke-linecap="round" stroke-linejoin="round"/>
<path d="M333.893 400.924C335.805 402.03 335.813 403.826 333.917 404.933L319.25 413.472C317.35 414.579 314.252 414.579 312.343 413.472L297.589 404.937C295.676 403.83 295.668 402.034 297.565 400.928L312.231 392.388C314.132 391.282 317.229 391.282 319.138 392.388L333.893 400.924Z" fill="#35605F" stroke="#082422" stroke-width="0.267759" stroke-linecap="round" stroke-linejoin="round"/>
<path d="M334.869 432.09C336.782 433.196 336.79 434.985 334.893 436.091L320.219 444.634C318.318 445.741 315.241 445.741 313.328 444.634L298.566 436.095C296.653 434.989 296.645 433.2 298.542 432.094L313.216 423.551C315.117 422.444 318.194 422.444 320.107 423.551L334.869 432.09Z" fill="#35605F" stroke="#082422" stroke-width="0.267759" stroke-linecap="round" stroke-linejoin="round"/>
<path d="M361.225 416.74C363.137 417.847 363.137 419.639 361.241 420.745L346.574 429.285C344.674 430.391 341.584 430.395 339.675 429.289L324.913 420.749C323 419.643 323 417.851 324.897 416.744L339.563 408.205C341.464 407.098 344.554 407.094 346.462 408.201L361.225 416.74Z" fill="#35605F" stroke="#082422" stroke-width="0.267759" stroke-linecap="round" stroke-linejoin="round"/>
<path d="M386.954 386.65C389.027 387.849 389.039 389.789 386.978 390.988C384.925 392.183 381.575 392.187 379.502 390.988L369.434 385.163C367.361 383.964 367.357 382.02 369.41 380.825C371.471 379.626 374.812 379.626 376.885 380.825L386.954 386.65Z" fill="#35605F" stroke="#082422" stroke-width="0.267759" stroke-linecap="round" stroke-linejoin="round"/>
<path d="M387.584 401.391C389.497 402.497 389.505 404.285 387.608 405.392L372.934 413.935C371.033 415.042 367.948 415.046 366.035 413.939L351.273 405.4C349.36 404.293 349.36 402.501 351.257 401.395L365.931 392.851C367.832 391.745 370.909 391.745 372.822 392.851L387.584 401.391Z" fill="#35605F" stroke="#082422" stroke-width="0.267759" stroke-linecap="round" stroke-linejoin="round"/>
<path d="M301.571 337.25C303.644 338.448 303.656 340.389 301.595 341.587C299.542 342.782 296.193 342.786 294.12 341.587L284.051 335.762C281.978 334.564 281.974 332.619 284.027 331.424C286.088 330.226 289.43 330.226 291.503 331.424L301.571 337.25Z" fill="#35605F" stroke="#082422" stroke-width="0.267759" stroke-linecap="round" stroke-linejoin="round"/>
<path d="M278.214 338.128C280.127 339.234 280.143 341.026 278.246 342.133L263.572 350.676C261.671 351.783 258.573 351.783 256.665 350.676L241.902 342.137C239.998 341.034 239.99 339.238 241.886 338.132L256.561 329.588C258.461 328.482 261.551 328.486 263.452 329.588L278.214 338.128Z" fill="#35605F" stroke="#082422" stroke-width="0.267759" stroke-linecap="round" stroke-linejoin="round"/>
<path d="M322.915 349.613C324.987 350.812 324.999 352.752 322.939 353.951C320.886 355.145 317.536 355.149 315.463 353.951L305.395 348.126C303.322 346.927 303.318 344.982 305.371 343.788C307.432 342.589 310.773 342.589 312.846 343.788L322.915 349.613Z" fill="#35605F" stroke="#082422" stroke-width="0.267759" stroke-linecap="round" stroke-linejoin="round"/>
<path d="M344.263 361.953C346.328 363.148 346.348 365.092 344.287 366.291C342.234 367.486 338.877 367.486 336.812 366.291L326.736 360.462C324.671 359.267 324.659 357.319 326.712 356.124C328.773 354.925 332.122 354.929 334.187 356.124L344.263 361.953Z" fill="#35605F" stroke="#082422" stroke-width="0.267759" stroke-linecap="round" stroke-linejoin="round"/>
<path d="M305.568 353.953C307.481 355.06 307.489 356.848 305.592 357.954L290.918 366.498C289.017 367.604 285.932 367.608 284.019 366.502L269.257 357.962C267.344 356.856 267.344 355.064 269.241 353.957L283.915 345.414C285.816 344.307 288.893 344.307 290.806 345.414L305.568 353.953Z" fill="#35605F" stroke="#082422" stroke-width="0.267759" stroke-linecap="round" stroke-linejoin="round"/>
<path d="M365.631 374.301C367.695 375.496 367.715 377.44 365.655 378.639C363.602 379.834 360.244 379.834 358.179 378.639L348.103 372.81C346.038 371.615 346.026 369.666 348.079 368.472C350.14 367.273 353.489 367.277 355.554 368.472L365.631 374.301Z" fill="#35605F" stroke="#082422" stroke-width="0.267759" stroke-linecap="round" stroke-linejoin="round"/>
<path d="M332.9 369.754C334.813 370.86 334.829 372.653 332.932 373.759L318.258 382.302C316.357 383.409 313.26 383.409 311.351 382.302L296.597 373.767C294.684 372.661 294.676 370.864 296.573 369.758L311.247 361.215C313.148 360.108 316.237 360.112 318.146 361.219L332.9 369.754Z" fill="#35605F" stroke="#082422" stroke-width="0.267759" stroke-linecap="round" stroke-linejoin="round"/>
<path d="M360.244 385.567C362.157 386.673 362.173 388.465 360.276 389.572L345.602 398.115C343.701 399.221 340.604 399.221 338.695 398.115L323.941 389.58C322.028 388.473 322.02 386.677 323.917 385.571L338.591 377.027C340.492 375.921 343.581 375.925 345.49 377.031L360.244 385.567Z" fill="#35605F" stroke="#082422" stroke-width="0.267759" stroke-linecap="round" stroke-linejoin="round"/>
<path d="M415.908 448.377C417.821 449.484 417.829 451.28 415.932 452.386L401.266 460.925C399.365 462.032 396.268 462.032 394.359 460.925L379.605 452.39C377.692 451.284 377.684 449.488 379.581 448.381L394.247 439.842C396.148 438.735 399.245 438.735 401.154 439.842L415.908 448.377Z" fill="#35605F" stroke="#082422" stroke-width="0.267759" stroke-linecap="round" stroke-linejoin="round"/>
<path d="M225.475 368.82C227.387 369.927 227.403 371.719 225.507 372.825L210.832 381.369C208.932 382.475 205.842 382.471 203.933 381.364L161.827 357.009C159.915 355.903 159.899 354.111 161.795 353.004L176.47 344.461C178.371 343.354 181.46 343.358 183.369 344.465L225.475 368.82Z" fill="#35605F" stroke="#082422" stroke-width="0.267759" stroke-linecap="round" stroke-linejoin="round"/>
<path d="M171.775 368.355C173.688 369.462 173.696 371.258 171.799 372.365L157.133 380.904C155.232 382.01 152.135 382.01 150.226 380.904L135.472 372.369C133.559 371.262 133.551 369.466 135.448 368.359L150.114 359.82C152.015 358.714 155.112 358.714 157.021 359.82L171.775 368.355Z" fill="#35605F" stroke="#082422" stroke-width="0.267759" stroke-linecap="round" stroke-linejoin="round"/>
<path d="M429.665 411.347C431.737 412.546 431.749 414.486 429.689 415.685C427.636 416.88 424.286 416.884 422.213 415.685L412.145 409.86C410.072 408.661 410.068 406.717 412.121 405.522C414.182 404.323 417.523 404.323 419.596 405.522L429.665 411.347Z" fill="#35605F" stroke="#082422" stroke-width="0.267759" stroke-linecap="round" stroke-linejoin="round"/>
<path d="M408.321 398.986C410.394 400.185 410.406 402.125 408.345 403.324C406.292 404.519 402.943 404.523 400.87 403.324L390.801 397.499C388.728 396.3 388.724 394.355 390.777 393.161C392.838 391.962 396.18 391.962 398.253 393.161L408.321 398.986Z" fill="#35605F" stroke="#082422" stroke-width="0.267759" stroke-linecap="round" stroke-linejoin="round"/>
<path d="M306.68 496.312C308.253 497.222 308.261 498.698 306.7 499.608L231.492 543.7C229.936 544.606 227.395 544.606 225.822 543.696L121.514 483.363C119.941 482.453 119.933 480.978 121.49 480.072L196.698 435.979C198.262 435.069 200.799 435.069 202.376 435.979L306.68 496.312Z" fill="#082422" stroke="#082422" stroke-width="0.267759" stroke-linecap="round" stroke-linejoin="round"/>
<path d="M458.277 198.765L454.184 232.406L408.411 205.984L406.06 231.325L405.357 230.884C384.811 218.22 372.018 193.054 374.513 166.847C375.11 160.564 376.944 152.323 377.04 151.889L458.277 198.765Z" fill="#00201D"/>
<path d="M432.846 248.214L428.538 283.354L403.292 268.618L399.451 309.634L367.055 290.935L368.431 270.15C370.424 234.134 393.83 225.691 420.14 240.879L432.846 248.214Z" fill="#00201D"/>
<path d="M205.859 211.483L206.92 228.032L223.255 221.241L222.194 204.691L205.859 211.483Z" fill="#DCFF00" stroke="#082422" stroke-width="0.267759" stroke-linejoin="round"/>
<path d="M259.693 105.204L219.38 81.8873C209.011 75.8897 199.323 74.9315 191.46 78.2029L175.125 84.9984C182.988 81.7269 192.676 82.6851 203.045 88.6827L243.358 112C268.409 126.489 287.945 164.916 286.989 197.826C286.432 217.118 278.957 230.232 267.824 234.863L284.159 228.067C295.292 223.437 302.767 210.323 303.324 191.031C304.28 158.12 284.744 119.693 259.693 105.204Z" fill="#B3D000" stroke="#082422" stroke-width="0.267759" stroke-linejoin="round"/>
<path d="M243.353 112.007C268.403 126.496 287.94 164.923 286.983 197.834C286.031 230.744 264.958 245.678 239.903 231.185L205.853 211.493L206.913 228.042C205.308 226.499 174.783 197.14 161.746 157.073C157.768 145.551 155.623 133.464 155.955 122.046C156.908 89.1349 177.989 74.201 203.044 88.6899L243.357 112.007H243.353Z" fill="#DCFF00" stroke="#082422" stroke-width="0.267759" stroke-linejoin="round"/>
<path d="M205.324 148.027C207.865 149.499 209.846 153.395 209.75 156.735C209.654 160.075 207.513 161.59 204.976 160.119C202.439 158.647 200.454 154.75 200.55 151.411C200.646 148.071 202.787 146.556 205.324 148.027Z" fill="#082422"/>
<path d="M222.797 158.141C225.342 159.612 227.327 163.513 227.227 166.848C227.127 170.184 224.99 171.703 222.445 170.228C219.9 168.753 217.923 164.86 218.019 161.52C218.115 158.181 220.256 156.665 222.793 158.137L222.797 158.141Z" fill="#517C3C"/>
<path d="M240.321 168.267C242.862 169.739 244.843 173.635 244.747 176.975C244.651 180.315 242.51 181.83 239.973 180.359C237.427 178.887 235.443 174.986 235.543 171.651C235.643 168.315 237.78 166.796 240.325 168.271L240.321 168.267Z" fill="#8DBD50"/>
</g>
<defs>
<clipPath id="clip0_14997_18412">
<rect width="605" height="636" fill="white"/>
</clipPath>
</defs>
</svg>
