<svg width="429" height="490" viewBox="0 0 429 490" fill="none" xmlns="http://www.w3.org/2000/svg">
<g clip-path="url(#clip0_14997_18380)">
<path d="M170.452 0.0517099C170.477 -2.10622e-06 170.526 0 170.552 0C170.403 0.0976782 170.28 0.247061 170.156 0.396451C170.254 0.252807 170.351 0.149388 170.452 0.0517099Z" fill="white" stroke="#082422" stroke-width="0.217603" stroke-linecap="round" stroke-linejoin="round"/>
<path d="M170.452 0.0517099C170.477 -2.10622e-06 170.526 0 170.552 0C170.403 0.0976782 170.28 0.247061 170.156 0.396451C170.254 0.252807 170.351 0.149388 170.452 0.0517099Z" fill="#FEFCF9" stroke="#082422" stroke-width="0.217603" stroke-linecap="round" stroke-linejoin="round"/>
<path d="M290.193 80.5078L429.004 267.417L428.686 479.476L149.898 318.248L150.216 106.189L290.193 80.5078Z" fill="#FFB05A" stroke="#082422" stroke-width="0.217603" stroke-linecap="round" stroke-linejoin="round"/>
<path d="M131.869 328.967C131.83 328.967 131.794 328.958 131.759 328.936C131.688 328.896 131.648 328.821 131.648 328.746L132.245 116.523C132.245 116.443 132.289 116.372 132.355 116.332L150.106 105.98C150.141 105.958 150.176 105.949 150.216 105.949C150.256 105.949 150.291 105.958 150.326 105.98C150.397 106.02 150.437 106.091 150.437 106.17L150.114 318.225C150.114 318.305 150.075 318.376 150.004 318.416L131.98 328.931C131.944 328.954 131.909 328.962 131.869 328.962V328.967Z" fill="#FFB05A"/>
<path d="M150.206 106.169L149.883 318.224L131.859 328.74L132.455 116.517L150.206 106.165M150.21 105.727C150.126 105.727 150.047 105.749 149.981 105.789L132.239 116.136C132.102 116.216 132.018 116.362 132.018 116.517L131.422 328.74C131.422 328.899 131.506 329.045 131.643 329.125C131.709 329.164 131.788 329.182 131.864 329.182C131.939 329.182 132.018 329.16 132.084 329.12L150.109 318.604C150.246 318.525 150.33 318.379 150.33 318.224L150.652 106.2C150.652 106.2 150.652 106.178 150.652 106.169C150.652 105.926 150.453 105.727 150.21 105.727Z" fill="#082422"/>
<path d="M391.689 440.636C387.109 440.636 382.18 439.127 377.035 436.15L181.585 322.962C163.64 312.588 149.087 287.318 149.149 266.636L150.2 74.0379C150.24 59.6732 157.227 50.75 168.436 50.75C173.012 50.75 177.936 52.2542 183.068 55.2227L378.518 168.41C396.463 178.785 411.016 204.054 410.954 224.737L409.903 417.335C409.863 431.704 402.885 440.631 391.693 440.631L391.689 440.636Z" fill="white" stroke="#082422" stroke-width="0.217603" stroke-linejoin="round"/>
<path d="M328.167 190.109L323.912 225.076L276.328 197.612L273.884 223.952L273.153 223.494C251.793 210.331 238.494 184.174 241.087 156.935C241.708 150.403 243.615 141.838 243.715 141.387L328.167 190.109Z" fill="#00201D"/>
<path d="M301.731 241.509L297.253 278.033L271.007 262.716L267.015 305.348L233.336 285.912L234.767 264.309C236.839 226.874 261.171 218.099 288.523 233.885L301.731 241.509Z" fill="#00201D"/>
<path d="M411.26 277.779L410.655 490.002L131.867 328.77L132.463 116.547L271.579 303.283L411.26 277.779Z" fill="#FFCD9C" stroke="#082422" stroke-width="0.217603" stroke-linecap="round" stroke-linejoin="round"/>
<path d="M271.561 303.234L410.655 489.984L131.867 328.752L271.561 303.234Z" fill="#FFCD9C" stroke="#082422" stroke-width="0.217603" stroke-linecap="round" stroke-linejoin="round"/>
<path fill-rule="evenodd" clip-rule="evenodd" d="M132.27 192.137L132.326 172.309L134.966 173.836C161.008 188.895 181.318 228.836 180.324 263.043C179.746 283.095 171.974 296.725 160.401 301.538L143.816 308.436C140.202 310.015 136.208 310.725 131.938 310.489L132.27 192.15C151.05 211.13 164.138 242.49 163.335 270.112C162.897 285.25 158.362 296.729 151.185 303.517C158.366 296.73 162.906 285.249 163.342 270.106C164.145 242.481 151.054 211.117 132.27 192.137Z" fill="black" fill-opacity="0.15"/>
<path d="M428.972 267.418L411.23 277.775L410.625 489.998L428.654 479.477L428.972 267.418Z" fill="#FFB05A" stroke="#082422" stroke-width="0.217603" stroke-linecap="round" stroke-linejoin="round"/>
<path d="M51.8984 262.192L53.0009 279.393L69.9824 272.334L68.88 255.133L51.8984 262.192Z" fill="#DCFF00" stroke="#082422" stroke-width="0.217603" stroke-linejoin="round"/>
<path d="M107.876 151.714L65.9675 127.478C55.1887 121.245 45.1171 120.249 36.9425 123.649L19.9609 130.712C28.1355 127.312 38.2071 128.308 48.986 134.542L90.8948 158.777C116.937 173.836 137.247 213.777 136.252 247.984C135.674 268.036 127.903 281.666 116.33 286.479L133.311 279.416C144.885 274.603 152.656 260.973 153.234 240.921C154.228 206.714 133.919 166.773 107.876 151.714Z" fill="#B3D000" stroke="#082422" stroke-width="0.217603" stroke-linejoin="round"/>
<path d="M90.8915 158.782C116.934 173.842 137.243 213.782 136.249 247.989C135.259 282.196 113.352 297.718 87.3055 282.655L51.9072 262.186L53.0097 279.388C51.3415 277.783 19.6082 247.268 6.05459 205.623C1.91945 193.647 -0.31036 181.084 0.0349286 169.216C1.02503 135.009 22.9404 119.487 48.9868 134.547L90.8957 158.782H90.8915Z" fill="#DCFF00" stroke="#082422" stroke-width="0.217603" stroke-linejoin="round"/>
<path d="M51.3649 196.225C54.0066 197.754 56.0658 201.805 55.966 205.276C55.8661 208.747 53.6405 210.322 51.003 208.793C48.3655 207.264 46.3021 203.213 46.4019 199.742C46.5018 196.271 48.7274 194.696 51.3649 196.225Z" fill="#082422"/>
<path d="M69.5253 206.729C72.1712 208.259 74.2346 212.313 74.1306 215.78C74.0266 219.247 71.8051 220.826 69.1592 219.293C66.5134 217.759 64.4583 213.713 64.5582 210.242C64.658 206.771 66.8837 205.196 69.5212 206.725L69.5253 206.729Z" fill="#517C3C"/>
<path d="M87.7209 217.258C90.3626 218.787 92.4218 222.838 92.322 226.309C92.2222 229.78 89.9965 231.355 87.359 229.826C84.7132 228.296 82.6498 224.242 82.7538 220.775C82.8578 217.308 85.0793 215.729 87.7251 217.262L87.7209 217.258Z" fill="#8DBD50"/>
</g>
<defs>
<clipPath id="clip0_14997_18380">
<rect width="429" height="490" fill="white"/>
</clipPath>
</defs>
</svg>
