<svg width="267" height="348" viewBox="0 0 267 348" fill="none" xmlns="http://www.w3.org/2000/svg">
<g clip-path="url(#clip0_14997_18488)">
<mask id="path-1-outside-1_14997_18488" maskUnits="userSpaceOnUse" x="57.0084" y="-1.2083" width="187.945" height="206.439" fill="black">
<rect fill="white" x="57.0084" y="-1.2083" width="187.945" height="206.439"/>
<path d="M166.82 13.9238C167.837 14.1076 168.854 14.3108 169.869 14.5352C173.13 15.2606 176.292 16.1909 179.346 17.3082C194.403 22.7451 207.41 32.6752 216.724 46.0719C228.571 63.1933 233.04 83.8415 229.313 104.23C229.275 104.44 229.23 104.647 229.181 104.852C229.081 105.486 228.973 106.12 228.857 106.754L213.777 189.237C212.563 195.878 206.925 201.163 200.215 201.037C191.662 200.849 185.581 193.152 187.05 185.116L202.409 101.107C206.244 80.1307 197.227 58.7636 180.108 47.6416C174.669 44.1695 168.562 41.7516 162.053 40.5435C155.459 39.3355 148.807 39.432 142.415 40.7811C122.484 45.155 106.508 61.9519 102.676 82.9136L87.3165 166.923C85.8474 174.959 77.4352 180.013 69.3674 177.169C63.0461 174.918 59.6423 167.983 60.8565 161.342L75.9359 78.8594C76.0515 78.2273 76.1737 77.5977 76.3036 76.9709C76.3307 76.7603 76.3637 76.5492 76.4023 76.3377C80.1297 55.9495 91.6167 38.2112 108.757 26.3774C122.208 17.1348 137.887 12.4376 153.893 12.6661C157.149 12.699 160.438 12.9453 163.748 13.4183C164.778 13.567 165.802 13.7364 166.82 13.9238Z"/>
</mask>
<path d="M166.82 13.9238C167.837 14.1076 168.854 14.3108 169.869 14.5352C173.13 15.2606 176.292 16.1909 179.346 17.3082C194.403 22.7451 207.41 32.6752 216.724 46.0719C228.571 63.1933 233.04 83.8415 229.313 104.23C229.275 104.44 229.23 104.647 229.181 104.852C229.081 105.486 228.973 106.12 228.857 106.754L213.777 189.237C212.563 195.878 206.925 201.163 200.215 201.037C191.662 200.849 185.581 193.152 187.05 185.116L202.409 101.107C206.244 80.1307 197.227 58.7636 180.108 47.6416C174.669 44.1695 168.562 41.7516 162.053 40.5435C155.459 39.3355 148.807 39.432 142.415 40.7811C122.484 45.155 106.508 61.9519 102.676 82.9136L87.3165 166.923C85.8474 174.959 77.4352 180.013 69.3674 177.169C63.0461 174.918 59.6423 167.983 60.8565 161.342L75.9359 78.8594C76.0515 78.2273 76.1737 77.5977 76.3036 76.9709C76.3307 76.7603 76.3637 76.5492 76.4023 76.3377C80.1297 55.9495 91.6167 38.2112 108.757 26.3774C122.208 17.1348 137.887 12.4376 153.893 12.6661C157.149 12.699 160.438 12.9453 163.748 13.4183C164.778 13.567 165.802 13.7364 166.82 13.9238Z" fill="white"/>
<path d="M166.82 13.9238L166.66 14.7902L166.663 14.7907L166.82 13.9238ZM169.869 14.5352L170.06 13.6753L170.059 13.675L169.869 14.5352ZM179.346 17.3082L179.044 18.1356L179.047 18.1368L179.346 17.3082ZM216.724 46.0719L217.448 45.5706L217.447 45.569L216.724 46.0719ZM229.313 104.23L230.179 104.388L230.179 104.388L229.313 104.23ZM229.181 104.852L228.324 104.648L228.317 104.681L228.311 104.714L229.181 104.852ZM228.857 106.754L229.723 106.913V106.913L228.857 106.754ZM213.777 189.237L212.911 189.078V189.078L213.777 189.237ZM200.215 201.037L200.196 201.918L200.199 201.918L200.215 201.037ZM187.05 185.116L186.183 184.958V184.958L187.05 185.116ZM202.409 101.107L203.276 101.265L203.276 101.265L202.409 101.107ZM180.108 47.6416L180.588 46.9029L180.582 46.8991L180.108 47.6416ZM162.053 40.5435L162.214 39.6773L162.212 39.6769L162.053 40.5435ZM142.415 40.7811L142.233 39.9191L142.226 39.9206L142.415 40.7811ZM102.676 82.9136L103.542 83.0721V83.0721L102.676 82.9136ZM87.3165 166.923L86.4499 166.765V166.765L87.3165 166.923ZM69.3674 177.169L69.0719 177.999L69.0745 178L69.3674 177.169ZM60.8565 161.342L59.9899 161.184V161.184L60.8565 161.342ZM75.9359 78.8594L75.0693 78.701L75.0693 78.701L75.9359 78.8594ZM76.3036 76.9709L77.1662 77.1497L77.173 77.1167L77.1773 77.0833L76.3036 76.9709ZM76.4023 76.3377L75.5357 76.1793L75.5357 76.1793L76.4023 76.3377ZM108.757 26.3774L108.258 25.6513L108.257 25.6524L108.757 26.3774ZM153.893 12.6661L153.881 13.5469L153.884 13.547L153.893 12.6661ZM163.748 13.4183L163.873 12.5464L163.872 12.5462L163.748 13.4183ZM166.82 13.9238L166.663 14.7907C167.67 14.9726 168.675 15.1736 169.679 15.3954L169.869 14.5352L170.059 13.675C169.032 13.4481 168.004 13.2427 166.977 13.0569L166.82 13.9238ZM169.869 14.5352L169.678 15.3951C172.9 16.112 176.025 17.0314 179.044 18.1356L179.346 17.3082L179.649 16.4809C176.558 15.3503 173.359 14.4091 170.06 13.6753L169.869 14.5352ZM179.346 17.3082L179.047 18.1368C193.932 23.5117 206.791 33.3279 216 46.5747L216.724 46.0719L217.447 45.569C208.03 32.0224 194.874 21.9785 179.646 16.4796L179.346 17.3082ZM216.724 46.0719L215.999 46.5731C227.714 63.5033 232.131 83.9143 228.446 104.071L229.313 104.23L230.179 104.388C233.949 83.7687 229.428 62.8834 217.448 45.5706L216.724 46.0719ZM229.313 104.23L228.446 104.071C228.411 104.264 228.37 104.456 228.324 104.648L229.181 104.852L230.038 105.056C230.09 104.838 230.138 104.615 230.179 104.388L229.313 104.23ZM229.181 104.852L228.311 104.714C228.212 105.341 228.105 105.969 227.99 106.596L228.857 106.754L229.723 106.913C229.841 106.272 229.95 105.631 230.051 104.99L229.181 104.852ZM228.857 106.754L227.99 106.596L212.911 189.078L213.777 189.237L214.644 189.395L229.723 106.913L228.857 106.754ZM213.777 189.237L212.911 189.078C211.763 195.359 206.447 200.273 200.232 200.157L200.215 201.037L200.199 201.918C207.403 202.053 213.364 196.396 214.644 189.395L213.777 189.237ZM200.215 201.037L200.235 200.157C192.224 199.981 186.545 192.778 187.916 185.275L187.05 185.116L186.183 184.958C184.617 193.526 191.1 201.718 200.196 201.918L200.215 201.037ZM187.05 185.116L187.916 185.275L203.276 101.265L202.409 101.107L201.542 100.948L186.183 184.958L187.05 185.116ZM202.409 101.107L203.276 101.265C207.171 79.9542 198.017 58.2266 180.588 46.9029L180.108 47.6416L179.628 48.3804C196.437 59.3006 205.316 80.3072 201.542 100.948L202.409 101.107ZM180.108 47.6416L180.582 46.8991C175.046 43.3656 168.833 40.906 162.214 39.6773L162.053 40.5435L161.892 41.4096C168.29 42.5972 174.291 44.9735 179.634 48.3842L180.108 47.6416ZM162.053 40.5435L162.212 39.6769C155.506 38.4484 148.738 38.5462 142.233 39.9191L142.415 40.7811L142.596 41.6431C148.876 40.3178 155.412 40.2225 161.894 41.41L162.053 40.5435ZM142.415 40.7811L142.226 39.9206C121.934 44.3737 105.703 61.4588 101.809 82.7552L102.676 82.9136L103.542 83.0721C107.313 62.4449 123.033 45.9362 142.603 41.6416L142.415 40.7811ZM102.676 82.9136L101.809 82.7552L86.4499 166.765L87.3165 166.923L88.1831 167.082L103.542 83.0721L102.676 82.9136ZM87.3165 166.923L86.4499 166.765C85.0781 174.268 77.2165 179.002 69.6603 176.339L69.3674 177.169L69.0745 178C77.654 181.025 86.6166 175.65 88.1831 167.082L87.3165 166.923ZM69.3674 177.169L69.663 176.339C63.8077 174.254 60.5748 167.781 61.7231 161.5L60.8565 161.342L59.9899 161.184C58.7099 168.185 62.2846 175.582 69.0719 177.999L69.3674 177.169ZM60.8565 161.342L61.7231 161.5L76.8025 79.0179L75.9359 78.8594L75.0693 78.701L59.9899 161.184L60.8565 161.342ZM75.9359 78.8594L76.8025 79.0179C76.9169 78.392 77.0378 77.7692 77.1662 77.1497L76.3036 76.9709L75.441 76.7922C75.3096 77.4261 75.186 78.0625 75.0693 78.701L75.9359 78.8594ZM76.3036 76.9709L77.1773 77.0833C77.2024 76.8886 77.233 76.6929 77.2689 76.4961L76.4023 76.3377L75.5357 76.1793C75.4944 76.4055 75.459 76.632 75.4298 76.8585L76.3036 76.9709ZM76.4023 76.3377L77.2689 76.4962C80.954 56.3391 92.3085 38.8041 109.258 27.1024L108.757 26.3774L108.257 25.6524C90.9249 37.6183 79.3054 55.5599 75.5357 76.1793L76.4023 76.3377ZM108.757 26.3774L109.256 27.1035C122.556 17.9642 138.057 13.3211 153.881 13.5469L153.893 12.6661L153.906 11.7852C137.717 11.5542 121.859 16.3054 108.258 25.6513L108.757 26.3774ZM153.893 12.6661L153.884 13.547C157.101 13.5795 160.352 13.8229 163.623 14.2904L163.748 13.4183L163.872 12.5462C160.524 12.0677 157.196 11.8185 153.902 11.7851L153.893 12.6661ZM163.748 13.4183L163.622 14.2902C164.64 14.4372 165.653 14.6047 166.66 14.7902L166.82 13.9238L166.979 13.0574C165.951 12.868 164.916 12.6968 163.873 12.5464L163.748 13.4183Z" fill="#082422" mask="url(#path-1-outside-1_14997_18488)"/>
<mask id="path-3-outside-2_14997_18488" maskUnits="userSpaceOnUse" x="0.360826" y="110.032" width="268.09" height="239.142" fill="black">
<rect fill="white" x="0.360826" y="110.032" width="268.09" height="239.142"/>
<path d="M222.012 144.964C246.811 149.488 263.277 173.285 258.748 198.056L239.553 303.052C235.012 327.89 211.189 344.338 186.39 339.815L46.3713 314.273C21.6389 309.762 5.17322 285.965 9.70187 261.193L28.9087 156.131C33.4374 131.359 57.2612 114.911 81.9937 119.423L222.012 144.964Z"/>
</mask>
<path d="M222.012 144.964C246.811 149.488 263.277 173.285 258.748 198.056L239.553 303.052C235.012 327.89 211.189 344.338 186.39 339.815L46.3713 314.273C21.6389 309.762 5.17322 285.965 9.70187 261.193L28.9087 156.131C33.4374 131.359 57.2612 114.911 81.9937 119.423L222.012 144.964Z" fill="#0DADAD"/>
<path d="M222.012 144.964L222.17 144.098V144.098L222.012 144.964ZM258.748 198.056L257.881 197.898L257.881 197.898L258.748 198.056ZM239.553 303.052L240.42 303.211V303.211L239.553 303.052ZM186.39 339.815L186.232 340.681L186.232 340.681L186.39 339.815ZM46.3713 314.273L46.2132 315.14L46.2132 315.14L46.3713 314.273ZM9.70187 261.193L10.5685 261.352V261.352L9.70187 261.193ZM28.9087 156.131L28.0421 155.972L28.0421 155.972L28.9087 156.131ZM81.9937 119.423L82.1518 118.556L82.1518 118.556L81.9937 119.423ZM222.012 144.964L221.854 145.831C246.175 150.267 262.322 173.606 257.881 197.898L258.748 198.056L259.615 198.215C264.231 172.964 247.447 148.709 222.17 144.098L222.012 144.964ZM258.748 198.056L257.881 197.898L238.687 302.894L239.553 303.052L240.42 303.211L259.615 198.215L258.748 198.056ZM239.553 303.052L238.687 302.894C234.233 327.253 210.868 343.384 186.548 338.948L186.39 339.815L186.232 340.681C211.509 345.292 235.792 328.527 240.42 303.211L239.553 303.052ZM186.39 339.815L186.548 338.948L46.5294 313.406L46.3713 314.273L46.2132 315.14L186.232 340.681L186.39 339.815ZM46.3713 314.273L46.5294 313.406C22.2758 308.982 6.12733 285.644 10.5685 261.352L9.70187 261.193L8.83528 261.035C4.2191 286.285 21.0021 310.541 46.2132 315.14L46.3713 314.273ZM9.70187 261.193L10.5685 261.352L29.7753 156.289L28.9087 156.131L28.0421 155.972L8.83528 261.035L9.70187 261.193ZM28.9087 156.131L29.7753 156.289C34.2165 131.996 57.5817 115.865 81.8356 120.289L81.9937 119.423L82.1518 118.556C56.9408 113.957 32.6583 130.723 28.0421 155.972L28.9087 156.131ZM81.9937 119.423L81.8356 120.289L221.854 145.831L222.012 144.964L222.17 144.098L82.1518 118.556L81.9937 119.423Z" fill="#082422" mask="url(#path-3-outside-2_14997_18488)"/>
<path d="M216.057 139.998C239.3 144.238 254.675 166.458 250.43 189.676L231.223 294.738C226.978 317.956 204.733 333.314 181.49 329.074L41.4724 303.533C18.2956 299.306 2.92058 277.085 7.16517 253.868L26.3725 148.805C30.6171 125.588 52.8623 110.229 76.039 114.457L216.057 139.998Z" fill="#2BF2F1" stroke="#082422" stroke-width="0.880957"/>
<path d="M175.962 185.168C182.295 180.794 191.012 182.383 195.376 188.776L195.576 189.074C199.701 195.373 198.058 203.883 191.756 208.177L191.755 208.175L110.908 263.725C108.472 265.407 105.627 266.233 102.665 266.188C101.89 266.188 101.173 266.133 100.405 265.92C96.78 265.251 93.552 263.177 91.4921 260.112L91.4923 260.111L67.617 225.425C63.2414 219.099 64.8358 210.386 71.2378 206.025C77.5705 201.653 86.2853 203.242 90.6483 209.634L106.63 232.821L175.962 185.168Z" fill="white" stroke="#082422" stroke-width="0.880957"/>
</g>
<defs>
<clipPath id="clip0_14997_18488">
<rect width="267" height="348" fill="white"/>
</clipPath>
</defs>
</svg>
