<svg width="473" height="696" viewBox="0 0 473 696" fill="none" xmlns="http://www.w3.org/2000/svg">
<g clip-path="url(#clip0_14989_18366)">
<path d="M175.356 361.901L175.394 361.701C207.951 393.99 249.337 426.102 292.225 454.455C293.059 455.006 293.891 455.55 294.723 456.095L297.412 457.847L299.368 459.113C299.886 459.446 300.401 459.782 300.919 460.114L304.819 462.607C305.604 463.104 306.388 463.601 307.169 464.095L311.273 466.668C311.988 467.112 312.7 467.559 313.415 468.003L315.377 469.212C315.47 469.271 315.565 469.327 315.657 469.386L317.271 470.375L317.302 470.397C317.873 470.74 318.441 471.087 319.009 471.435L319.049 471.463C319.262 471.59 319.475 471.716 319.685 471.847L322.757 473.702C323.549 474.179 324.341 474.656 325.126 475.123L325.231 475.185C325.457 475.321 325.683 475.457 325.916 475.593L328.015 476.837C329.038 477.443 330.064 478.046 331.082 478.639C331.182 478.698 331.282 478.757 331.386 478.819C331.61 478.948 331.832 479.081 332.056 479.211L334.963 480.898C335.411 481.157 335.855 481.413 336.306 481.669L340.794 484.227L340.876 484.274C341.404 484.573 341.938 484.872 342.461 485.168L342.507 485.199C342.731 485.319 342.957 485.445 343.177 485.572L346.002 487.146C346.745 487.559 347.488 487.971 348.224 488.374L349.348 488.99C349.556 489.104 349.76 489.214 349.969 489.328L352.03 490.451C352.706 490.817 353.381 491.182 354.054 491.542L356.936 493.081C357.625 493.446 358.31 493.808 358.992 494.164L362.619 496.056C363.308 496.411 363.997 496.766 364.682 497.119L368.268 498.943C368.926 499.276 369.586 499.607 370.241 499.934L373.017 501.308C373.924 501.754 374.831 502.199 375.732 502.635L378.497 503.967C379.139 504.275 379.776 504.58 380.416 504.881L383.756 506.444C384.43 506.753 385.101 507.067 385.771 507.373L387.196 508.026L387.022 508.132C376.697 514.477 309.525 636.272 309.525 636.272L309.466 636.357L308.63 637.364L308.567 637.436L308.27 637.779C308.179 637.882 308.09 637.981 307.994 638.091L307.333 638.816C307.242 638.919 307.149 639.016 307.053 639.116L307 639.154C306.61 639.68 306.107 640.127 305.501 640.493C292.707 649.232 233.464 626.404 176.251 586.878C119.038 547.351 75.6718 498.924 80.538 484.381C80.67 483.929 80.854 483.508 81.0968 483.128L81.1352 483.034C81.1947 482.909 81.2543 482.784 81.3207 482.659L81.5679 482.166C81.632 482.044 81.696 481.922 81.7601 481.801L81.9593 481.425L83.1445 479.352C83.1445 479.352 173.077 373.78 175.356 361.891L175.356 361.901Z" fill="#9191F6" stroke="#082422" stroke-width="0.583536" stroke-miterlimit="10"/>
<path fill-rule="evenodd" clip-rule="evenodd" d="M83.7987 478.591C91.9114 469.046 173.195 373.191 175.359 361.895L175.359 361.905L175.397 361.705C207.955 393.995 249.34 426.107 292.228 454.459C293.063 455.01 293.895 455.555 294.727 456.099L297.415 457.851L299.371 459.117C299.631 459.284 299.889 459.451 300.148 459.618C300.406 459.785 300.664 459.952 300.923 460.118L304.822 462.611C305.607 463.108 306.392 463.605 307.172 464.099L311.276 466.673C311.633 466.894 311.99 467.117 312.347 467.34C312.704 467.562 313.061 467.785 313.419 468.007L315.38 469.216C315.427 469.246 315.474 469.275 315.521 469.303C315.568 469.332 315.615 469.361 315.661 469.39L317.274 470.379L317.306 470.401C317.873 470.743 318.438 471.088 319.002 471.433L319.012 471.439L319.053 471.467L319.054 471.468C319.267 471.594 319.479 471.721 319.689 471.851L322.76 473.706L322.765 473.709C323.556 474.185 324.346 474.661 325.13 475.127L325.234 475.189L325.235 475.189C325.461 475.325 325.687 475.462 325.92 475.597L328.018 476.841C329.042 477.447 330.067 478.05 331.086 478.643C331.186 478.702 331.285 478.761 331.389 478.823C331.501 478.888 331.613 478.953 331.724 479.019C331.836 479.085 331.947 479.15 332.059 479.215L334.967 480.902C335.415 481.161 335.859 481.418 336.309 481.674L340.798 484.231L340.88 484.278C341.163 484.438 341.448 484.599 341.733 484.759C341.978 484.897 342.223 485.035 342.465 485.172L342.51 485.203C342.734 485.323 342.961 485.449 343.181 485.576L346.005 487.15L346.008 487.152C346.75 487.564 347.492 487.976 348.228 488.379L349.351 488.994C349.456 489.051 349.559 489.107 349.662 489.163C349.765 489.219 349.868 489.275 349.972 489.332L352.034 490.455C352.709 490.821 353.384 491.187 354.057 491.546L356.94 493.085C357.629 493.45 358.313 493.812 358.996 494.168L362.622 496.06C363.311 496.415 364 496.771 364.685 497.123L368.272 498.947C368.929 499.281 369.589 499.611 370.244 499.938L373.02 501.312L373.028 501.316C373.932 501.76 374.837 502.205 375.735 502.64L378.5 503.971C379.051 504.236 379.599 504.498 380.148 504.757C348.978 509.695 316.656 512.292 283.524 512.292C212.03 512.292 144.306 500.198 83.7987 478.591Z" fill="#6060BF"/>
<path d="M154.381 292.901C154.231 293.099 150.763 298.111 150.622 298.315C133.66 322.867 188.132 389.904 272.294 448.047C356.455 506.19 438.425 533.416 455.387 508.864C455.574 508.593 458.938 503.706 459.108 503.424L154.381 292.901Z" fill="#6060BF" stroke="#082422" stroke-width="0.583536" stroke-miterlimit="10"/>
<path d="M277.237 440.879C193.077 382.736 138.603 315.699 155.565 291.147C172.527 266.594 254.503 293.824 338.662 351.966C422.822 410.109 477.296 477.146 460.334 501.698C443.372 526.251 361.396 499.021 277.237 440.879Z" fill="#9191F6" stroke="#082422" stroke-width="0.583536" stroke-miterlimit="10"/>
<path d="M290.843 421.184C237.253 384.161 202.567 341.473 213.368 325.838C224.17 310.203 276.37 327.541 329.959 364.564C383.549 401.587 418.236 444.274 407.434 459.91C396.632 475.545 344.433 458.207 290.843 421.184Z" fill="#6060BF" stroke="#082422" stroke-width="0.583536" stroke-miterlimit="10"/>
<mask id="mask0_14989_18366" style="mask-type:luminance" maskUnits="userSpaceOnUse" x="186" y="-5" width="341" height="471">
<path d="M508.778 84.8408C485.034 40.8406 435.075 7.73565 344.244 -2.63076C280.264 -9.93267 240.848 5.97163 217.494 34.1005C194.123 62.2492 186.778 102.706 187.099 144.627C187.421 186.54 195.405 229.863 202.638 263.697C206.252 280.604 209.683 295.162 211.869 305.962C212.963 311.364 213.748 315.841 214.09 319.215C214.261 320.902 214.323 322.323 214.254 323.45C214.186 324.567 213.988 325.443 213.603 326C210.986 329.789 211.09 335.27 213.649 342.019C216.204 348.757 221.181 356.688 228.181 365.304C242.18 382.531 264.226 402.441 291.004 420.94C317.781 439.44 344.204 453.016 365.27 460.013C375.805 463.512 384.984 465.36 392.191 465.366C399.408 465.371 404.571 463.53 407.189 459.74C412.594 451.917 487.661 346.623 515.951 238.115C530.097 183.86 532.532 128.858 508.778 84.8408Z" fill="white" stroke="white" stroke-width="0.583536"/>
</mask>
<g mask="url(#mask0_14989_18366)">
<path d="M307.077 241.036C307.077 241.036 288.692 243.289 283.445 246.194C278.196 249.105 268.724 311.187 268.724 311.187C268.724 311.187 279.661 309.939 283.998 302.708C288.339 295.483 300.354 260.484 300.354 260.484L307.078 241.031L307.077 241.036Z" fill="#FFCE9B" stroke="#082422" stroke-width="0.583536" stroke-miterlimit="10" stroke-linecap="round"/>
<path opacity="0.25" d="M299.067 263.286C290.947 271.547 280.793 281.878 272.517 289.942C271.522 295.37 270.568 301.247 269.862 305.777C269.507 308.054 269.214 309.991 269.01 311.358C268.908 312.041 268.829 312.582 268.775 312.952C268.77 312.986 268.765 313.019 268.761 313.05C268.773 313.046 268.786 313.042 268.799 313.038C269.112 312.928 269.565 312.763 270.122 312.542C271.237 312.1 272.77 311.436 274.435 310.548C277.776 308.767 281.617 306.106 283.743 302.562C284.674 301.012 285.971 298.15 287.438 294.6C288.902 291.056 290.526 286.844 292.11 282.607C294.953 275.002 297.66 267.321 299.067 263.286Z" fill="#082422" stroke="#082422" stroke-width="0.583536"/>
<path d="M369.469 234.425C369.469 234.425 341.899 228.734 329.051 228.739C316.204 228.74 306.356 230.138 302.507 234.331C299.122 238.016 285.612 277.976 282.392 287.593C282.008 288.75 282.69 289.98 283.871 290.266C287.668 291.19 295.415 292.491 298.646 288.801C303.009 283.822 314.177 260.009 314.177 260.009L352.446 257.965L377.951 245.828L369.463 234.429L369.469 234.425Z" fill="#FFCE9B" stroke="#082422" stroke-width="0.583536" stroke-miterlimit="10" stroke-linecap="round"/>
<path d="M289.965 269.543C289.589 269.479 289.193 269.429 288.775 269.396L283.506 284.606L283.506 284.607C283.419 284.861 283.564 285.132 283.822 285.201L283.829 285.204L288.191 286.483L297.102 277.592C297.102 277.547 297.101 277.491 297.098 277.423C297.091 277.237 297.073 276.969 297.028 276.641C296.939 275.985 296.746 275.098 296.332 274.169C295.51 272.322 293.809 270.296 290.25 269.603L289.964 269.548L289.965 269.543Z" stroke="#082422" stroke-width="0.583536"/>
<path d="M369.973 141.454C377.2 154.247 392.101 191.895 396.231 199.159C401.586 208.574 414.227 241.577 420.486 260.2C423.092 267.962 427.451 282.949 419.746 291.338C412.047 299.724 347.706 366.49 345.356 377.807C343.005 389.124 330.823 523.445 328.934 540.705C328.613 543.631 328.07 546.498 325.425 547.787C316.183 552.292 302.72 558.026 274.327 560.78C253.998 562.752 239.282 558.828 233.53 557.2C229.742 556.128 228.612 553.724 229.097 550.809L263.376 375.39C263.77 373.122 263.656 370.797 263.047 368.576C261.234 361.953 259.31 345.626 262.702 328.844C265.406 315.468 269.817 302.351 284.98 287.657C297.663 275.367 311.01 264.612 317.516 257.566C318.788 256.19 327.692 245.735 329.566 245.796L360.829 246.826C362.047 246.867 363.255 246.561 364.307 245.946L374.84 239.781C377.287 238.351 378.518 235.493 377.875 232.73C375.684 223.338 370.814 202.662 369.481 198.79C367.741 193.748 354.859 158.353 354.845 149.395C354.834 143.359 365.852 134.145 369.978 141.455L369.973 141.454Z" fill="#FFCE9B" stroke="#082422" stroke-width="0.583536" stroke-miterlimit="10" stroke-linecap="round"/>
<path d="M380.324 243.625C346.317 185.371 394.17 116.89 360.156 58.6409C329.783 62.4358 299.416 66.2318 269.044 70.0267C303.051 128.28 255.198 196.762 289.212 255.011C319.584 251.216 349.952 247.42 380.324 243.625Z" fill="#60D06F" stroke="#082422" stroke-width="0.583536" stroke-miterlimit="10" stroke-linejoin="round"/>
<path d="M340.81 75.1626C343.594 82.4933 350.493 87.8583 357.621 86.9677C358.306 86.8818 359.033 87.3683 359.179 88.1064C367.712 130.047 349.612 175.317 358.225 217.251C358.377 217.99 357.901 218.623 357.217 218.709C350.14 219.593 345.538 226.393 348.34 233.721C348.686 234.627 348.334 235.508 347.447 235.623C335.324 237.14 323.203 238.65 311.08 240.166C310.188 240.275 309.188 239.564 308.847 238.66C306.045 231.331 299.135 225.97 292.006 226.86C291.224 226.956 290.397 226.407 290.224 225.567C281.709 183.744 299.683 138.61 291.249 96.7731C291.081 95.9347 291.629 95.2145 292.412 95.1131C299.489 94.2296 304.103 87.4258 301.318 80.0951C300.939 79.0928 301.315 78.1092 302.299 77.9835C314.313 76.4807 326.326 74.9836 338.345 73.4818C339.329 73.3561 340.436 74.1614 340.811 75.1568L340.81 75.1626Z" fill="#80E58A" stroke="#082422" stroke-width="0.583536" stroke-miterlimit="10"/>
<path d="M326.689 101.806C323.795 102.165 321.232 104.015 318.943 107.067C316.655 110.119 314.617 114.386 312.721 119.576C309.006 129.955 305.472 144.096 303.718 159.446C301.965 174.796 303.136 188.353 307.028 197.779C308.934 202.498 311.425 206.194 314.154 208.619C316.888 211.045 319.837 212.203 322.72 211.841C325.613 211.481 328.177 209.632 330.465 206.58C332.755 203.522 334.791 199.261 336.688 194.07C340.402 183.691 343.937 169.55 345.69 154.2C347.445 138.845 346.273 125.293 342.381 115.868C340.475 111.148 337.983 107.453 335.255 105.028C332.52 102.601 329.572 101.444 326.689 101.806Z" fill="#60D06F" stroke="#082422" stroke-width="0.583536" stroke-miterlimit="10"/>
<path opacity="0.25" d="M367.757 76.3402C364.026 104.542 347.883 127.835 333.228 151.609C318.37 175.712 305.028 200.326 307.444 231.159C314.242 233.847 321.04 236.535 327.839 239.222C334.673 241.922 341.507 244.623 348.34 247.325C353.655 246.66 358.969 245.997 364.282 245.334C369.477 244.685 374.673 244.035 379.87 243.385C364.617 216.964 366.054 188.471 369.021 159.874C371.961 131.54 376.395 103.122 367.757 76.3402Z" fill="#082422" stroke="#082422" stroke-width="0.583536"/>
<path d="M371.949 282.675C378.986 214.455 456.285 192.186 463.316 123.971C437.25 106.924 411.178 89.8758 385.112 72.8347C378.074 141.054 300.776 163.324 293.745 231.539C319.811 248.586 345.882 265.634 371.949 282.675Z" fill="#60D06F" stroke="#082422" stroke-width="0.583536" stroke-miterlimit="10" stroke-linejoin="round"/>
<path d="M404.778 102.119C402.687 109.824 394.998 112.152 388.839 108.128C388.24 107.74 387.503 107.929 387.202 108.592C369.581 147.041 329.302 170.66 311.752 209.153C311.451 209.816 311.728 210.671 312.326 211.059C318.535 215.118 320.878 224.006 318.802 231.726C318.574 232.573 318.912 233.65 319.575 234.082C329.978 240.887 340.387 247.688 350.79 254.494C351.453 254.931 352.155 254.531 352.388 253.685C354.464 245.971 362.143 243.635 368.302 247.66C368.815 247.994 369.447 247.825 369.708 247.256C387.241 208.615 427.705 184.968 445.308 146.372C445.569 145.803 445.333 145.064 444.82 144.73C438.611 140.671 436.278 131.791 438.37 124.08C438.626 123.137 438.257 121.921 437.508 121.436C427.195 114.691 416.883 107.947 406.569 101.207C405.825 100.723 405.039 101.178 404.783 102.121L404.778 102.119Z" fill="#80E58A" stroke="#082422" stroke-width="0.583536" stroke-miterlimit="10" stroke-linejoin="round"/>
<path d="M411.983 135.811C409.502 134.187 406.419 133.949 402.85 134.84C399.28 135.731 395.209 137.736 390.706 140.569C381.771 146.278 370.797 155.062 360.521 165.969C350.243 176.883 343.308 188.303 340.904 198.282C339.666 203.249 339.478 207.798 340.219 211.503C340.959 215.213 342.609 218.068 345.08 219.684C347.562 221.308 350.65 221.547 354.214 220.654C357.784 219.763 361.854 217.759 366.357 214.926C375.292 209.216 386.267 200.433 396.543 189.525C406.821 178.612 413.755 167.192 416.16 157.213C417.397 152.246 417.585 147.702 416.845 143.992C416.104 140.282 414.455 137.427 411.983 135.811Z" fill="#60D06F" stroke="#082422" stroke-width="0.583536" stroke-miterlimit="10" stroke-linejoin="round"/>
<path d="M263.161 369.09C263.161 369.09 264.956 379.327 278.857 390.542" stroke="#082422" stroke-width="0.583536" stroke-miterlimit="10" stroke-linecap="round"/>
<path d="M307.782 266.901C307.782 266.901 323.137 253.131 324.403 230.731C325.475 211.709 334.182 177.607 340.348 171.572C342.886 169.087 346.464 168.279 349.795 168.179C354.7 168.041 358.702 172.07 358.522 176.972C358.152 187.086 357.576 204.932 357.729 215.591C357.952 231.103 360.762 278.188 360.762 278.188" fill="#FFCE9B"/>
<path d="M307.782 266.901C307.782 266.901 323.137 253.131 324.403 230.731C325.475 211.709 334.182 177.607 340.348 171.572C342.886 169.087 346.464 168.279 349.795 168.179C354.7 168.041 358.702 172.07 358.522 176.972C358.152 187.086 357.576 204.932 357.729 215.591C357.952 231.103 360.762 278.188 360.762 278.188" stroke="#082422" stroke-width="0.583536" stroke-miterlimit="10"/>
<path d="M358.532 176.978C358.339 182.232 358.09 189.578 357.92 196.918C356.62 196.82 347.896 196.015 346.643 192.205C345.286 188.087 348.56 172.972 348.56 172.972C348.56 172.972 354.635 171.057 358.253 174.517C358.457 175.299 358.558 176.128 358.531 176.983L358.532 176.978Z" fill="#FFCE9B" stroke="#082422" stroke-width="0.583536" stroke-miterlimit="10"/>
</g>
<path d="M393.626 27.6098C393.587 27.581 393.465 27.4944 393.264 27.3701C393.187 27.3257 393.101 27.2703 393.002 27.2103C392.793 27.0816 392.535 26.9196 392.231 26.762C391.704 26.4757 391.122 26.1938 390.502 25.9208C390.384 25.8698 390.263 25.8165 390.138 25.7655C389.615 25.5457 389.075 25.3371 388.532 25.1507C387.764 24.8821 386.933 24.6335 386.065 24.4138C385.185 24.1896 384.257 23.9943 383.312 23.8345C382.692 23.7302 382.018 23.6414 381.202 23.5571C381.124 22.6782 381.043 21.9502 380.946 21.2755C380.868 20.7584 380.786 20.2479 380.696 19.7574C380.629 19.3867 380.558 19.0183 380.483 18.661C380.257 17.5801 380.001 16.5658 379.723 15.6425C379.572 15.1387 379.413 14.646 379.251 14.1821C379.204 14.0445 379.155 13.9091 379.107 13.7781C378.832 13.0235 378.528 12.2889 378.233 11.6563L377.105 9.32812C376.578 10.6753 375.23 14.1887 374.81 15.6048C374.306 17.2782 373.882 19.2336 373.583 21.2577C373.488 21.9103 373.408 22.6227 373.335 23.4284C372.565 23.5083 371.923 23.5926 371.322 23.6925C369.458 24.0077 367.645 24.4649 366.08 25.0153C364.403 25.5968 363.135 26.2205 362.366 26.6399C362.061 26.7997 361.802 26.9618 361.57 27.106L361.32 27.2592C361.068 27.4167 360.935 27.5166 360.935 27.5166L360.648 27.7341L360.935 27.9516C360.935 27.9516 361.068 28.0515 361.324 28.2135L361.535 28.3423L361.585 28.3733C361.796 28.5043 362.056 28.6663 362.362 28.8261C363.133 29.2456 364.401 29.8693 366.078 30.4508C367.645 31.0012 369.458 31.4584 371.32 31.7736C371.917 31.8734 372.556 31.9578 373.325 32.0354C373.396 32.8367 373.475 33.5491 373.57 34.2083C373.863 36.2191 374.285 38.1723 374.795 39.8613C375.337 41.6768 376.726 45.2879 377.111 46.1135L377.469 45.3256L377.613 45.0282L377.632 44.9949L377.669 44.9261C377.708 44.8462 377.759 44.753 377.815 44.6487C377.897 44.4933 377.994 44.3157 378.093 44.1115C378.138 44.0161 378.188 43.914 378.235 43.8097L378.317 43.6299C378.681 42.8331 379.223 41.5281 379.729 39.8213C379.917 39.1999 380.093 38.5385 380.255 37.8571C380.532 36.6874 380.765 35.4534 380.95 34.1883C381.017 33.72 381.079 33.2184 381.129 32.7035C381.157 32.4394 381.183 32.1731 381.204 31.9067C381.447 31.8823 381.691 31.8557 381.934 31.8268C382.119 31.8046 382.304 31.7802 382.487 31.7558C382.763 31.7181 383.036 31.6759 383.305 31.6315C384.601 31.4096 385.852 31.1277 387.021 30.7903C387.538 30.6416 388.044 30.4818 388.526 30.3131C390.192 29.7361 391.456 29.1191 392.222 28.704L392.386 28.6153C392.504 28.5509 392.614 28.4865 392.715 28.4244L392.926 28.2957L393.032 28.2313L393.271 28.0848L393.314 28.0582L393.534 27.9139L393.755 27.7119L393.62 27.6143L393.626 27.6098Z" fill="white"/>
<path d="M460.126 342.731C460.087 342.702 459.965 342.616 459.764 342.491C459.687 342.447 459.601 342.391 459.502 342.331C459.293 342.203 459.035 342.041 458.731 341.883C458.204 341.597 457.622 341.315 457.002 341.042C456.884 340.991 456.763 340.938 456.638 340.887C456.115 340.667 455.575 340.458 455.032 340.272C454.264 340.003 453.433 339.755 452.565 339.535C451.685 339.311 450.757 339.115 449.812 338.956C449.192 338.851 448.518 338.763 447.702 338.678C447.624 337.799 447.543 337.071 447.446 336.397C447.368 335.879 447.286 335.369 447.196 334.878C447.129 334.508 447.058 334.139 446.983 333.782C446.757 332.701 446.501 331.687 446.223 330.764C446.072 330.26 445.913 329.767 445.751 329.303C445.704 329.166 445.655 329.03 445.607 328.899C445.332 328.145 445.028 327.41 444.733 326.777L443.605 324.449C443.078 325.796 441.73 329.31 441.31 330.726C440.806 332.399 440.382 334.355 440.083 336.379C439.988 337.031 439.908 337.744 439.835 338.549C439.065 338.629 438.423 338.714 437.822 338.814C435.958 339.129 434.145 339.586 432.58 340.136C430.903 340.718 429.635 341.342 428.866 341.761C428.561 341.921 428.302 342.083 428.07 342.227L427.82 342.38C427.568 342.538 427.435 342.638 427.435 342.638L427.148 342.855L427.435 343.073C427.435 343.073 427.568 343.173 427.824 343.335L428.035 343.463L428.085 343.494C428.296 343.625 428.556 343.787 428.862 343.947C429.633 344.367 430.901 344.99 432.578 345.572C434.145 346.122 435.958 346.579 437.82 346.895C438.417 346.995 439.056 347.079 439.825 347.157C439.896 347.958 439.975 348.67 440.07 349.329C440.363 351.34 440.785 353.293 441.295 354.982C441.837 356.798 443.226 360.409 443.611 361.235L443.969 360.447L444.113 360.149L444.132 360.116L444.169 360.047C444.208 359.967 444.259 359.874 444.315 359.77C444.397 359.614 444.494 359.437 444.593 359.233C444.638 359.137 444.688 359.035 444.735 358.931L444.817 358.751C445.181 357.954 445.723 356.649 446.229 354.942C446.417 354.321 446.593 353.66 446.755 352.978C447.032 351.809 447.265 350.575 447.45 349.309C447.517 348.841 447.579 348.34 447.629 347.825C447.657 347.56 447.683 347.294 447.704 347.028C447.947 347.003 448.191 346.977 448.434 346.948C448.619 346.926 448.804 346.901 448.987 346.877C449.263 346.839 449.536 346.797 449.805 346.753C451.101 346.531 452.352 346.249 453.521 345.911C454.038 345.763 454.544 345.603 455.026 345.434C456.692 344.857 457.956 344.24 458.722 343.825L458.886 343.736C459.004 343.672 459.114 343.608 459.215 343.545L459.426 343.417L459.532 343.352L459.771 343.206L459.814 343.179L460.034 343.035L460.255 342.833L460.12 342.735L460.126 342.731Z" fill="white"/>
<path d="M417.768 56.4162C417.747 56.4018 417.682 56.3585 417.575 56.2964C417.534 56.2742 417.488 56.2465 417.435 56.2165C417.323 56.1521 417.186 56.0711 417.024 55.9923C416.742 55.8492 416.432 55.7082 416.102 55.5717C416.039 55.5462 415.974 55.5196 415.908 55.4941C415.629 55.3842 415.34 55.2799 415.051 55.1867C414.641 55.0524 414.198 54.9281 413.735 54.8182C413.266 54.7062 412.771 54.6085 412.267 54.5286C411.936 54.4764 411.577 54.432 411.142 54.3899C411.1 53.9504 411.057 53.5864 411.005 53.2491C410.964 52.9905 410.92 52.7353 410.872 52.49C410.836 52.3047 410.798 52.1205 410.758 51.9418C410.637 51.4014 410.501 50.8942 410.353 50.4326C410.272 50.1807 410.187 49.9343 410.101 49.7024C410.076 49.6336 410.05 49.5659 410.024 49.5004C409.877 49.1231 409.715 48.7558 409.558 48.4395L408.957 47.2754C408.675 47.949 407.956 49.7057 407.733 50.4137C407.464 51.2504 407.238 52.2281 407.078 53.2402C407.028 53.5665 406.985 53.9227 406.946 54.3255C406.535 54.3655 406.193 54.4076 405.872 54.4576C404.878 54.6152 403.911 54.8438 403.077 55.119C402.182 55.4097 401.506 55.7216 401.096 55.9313C400.933 56.0112 400.795 56.0922 400.671 56.1643L400.538 56.2409C400.404 56.3197 400.332 56.3696 400.332 56.3696L400.18 56.4784L400.332 56.5871C400.332 56.5871 400.404 56.6371 400.54 56.7181L400.653 56.7825L400.679 56.798C400.792 56.8635 400.931 56.9445 401.094 57.0244C401.505 57.2341 402.181 57.546 403.075 57.8367C403.911 58.1119 404.878 58.3405 405.871 58.4981C406.189 58.548 406.53 58.5902 406.94 58.6291C406.978 59.0297 407.021 59.3859 407.071 59.7155C407.227 60.7209 407.452 61.6975 407.724 62.542C408.014 63.4497 408.754 65.2553 408.96 65.6681L409.151 65.2741L409.227 65.1254L409.238 65.1088L409.257 65.0744C409.278 65.0344 409.306 64.9878 409.335 64.9357C409.379 64.858 409.431 64.7692 409.484 64.6671C409.508 64.6194 409.534 64.5683 409.559 64.5162L409.603 64.4263C409.797 64.0279 410.086 63.3754 410.356 62.522C410.456 62.2113 410.55 61.8806 410.636 61.5399C410.784 60.955 410.908 60.338 411.007 59.7055C411.043 59.4713 411.076 59.2205 411.102 58.9631C411.117 58.831 411.131 58.6979 411.143 58.5647C411.272 58.5525 411.402 58.5392 411.532 58.5247C411.631 58.5136 411.729 58.5014 411.827 58.4892C411.974 58.4704 412.12 58.4493 412.263 58.4271C412.955 58.3161 413.622 58.1752 414.245 58.0065C414.521 57.9321 414.791 57.8522 415.048 57.7679C415.936 57.4794 416.61 57.1709 417.019 56.9633L417.106 56.919C417.17 56.8868 417.228 56.8546 417.282 56.8235L417.395 56.7592L417.451 56.727L417.578 56.6537L417.601 56.6404L417.718 56.5683L417.837 56.4673L417.764 56.4185L417.768 56.4162Z" fill="white"/>
<path d="M111.407 356.369C111.446 356.341 111.572 356.256 111.776 356.134C111.856 356.091 111.944 356.036 112.045 355.978C112.258 355.852 112.522 355.693 112.833 355.538C113.372 355.258 113.966 354.982 114.6 354.714C114.721 354.664 114.844 354.612 114.972 354.562C115.507 354.346 116.059 354.142 116.614 353.959C117.399 353.696 118.249 353.452 119.136 353.237C120.036 353.017 120.984 352.826 121.95 352.669C122.584 352.567 123.273 352.48 124.107 352.398C124.186 351.536 124.27 350.823 124.369 350.162C124.448 349.655 124.532 349.154 124.624 348.674C124.692 348.311 124.765 347.949 124.842 347.599C125.073 346.54 125.335 345.546 125.619 344.641C125.773 344.147 125.936 343.665 126.101 343.21C126.149 343.075 126.2 342.942 126.248 342.814C126.53 342.075 126.84 341.355 127.142 340.735L128.295 338.453C128.834 339.773 130.212 343.217 130.641 344.604C131.156 346.244 131.589 348.16 131.895 350.144C131.992 350.784 132.074 351.482 132.148 352.271C132.936 352.35 133.592 352.432 134.206 352.53C136.112 352.839 137.965 353.287 139.565 353.827C141.279 354.396 142.575 355.008 143.361 355.419C143.674 355.575 143.938 355.734 144.175 355.875L144.431 356.026C144.688 356.18 144.824 356.278 144.824 356.278L145.117 356.491L144.824 356.704C144.824 356.704 144.688 356.802 144.426 356.961L144.21 357.087L144.16 357.117C143.944 357.246 143.678 357.405 143.365 357.561C142.578 357.972 141.281 358.583 139.567 359.153C137.965 359.693 136.112 360.141 134.208 360.45C133.599 360.548 132.945 360.63 132.159 360.706C132.087 361.492 132.005 362.19 131.909 362.836C131.609 364.806 131.178 366.72 130.656 368.376C130.102 370.155 128.682 373.694 128.288 374.503L127.923 373.731L127.776 373.439L127.756 373.407L127.718 373.339C127.679 373.261 127.626 373.169 127.569 373.067C127.485 372.915 127.386 372.741 127.285 372.541C127.239 372.447 127.188 372.347 127.14 372.245L127.056 372.069C126.684 371.288 126.129 370.009 125.612 368.336C125.421 367.727 125.24 367.079 125.075 366.412C124.791 365.265 124.554 364.056 124.364 362.816C124.296 362.357 124.232 361.866 124.182 361.361C124.153 361.102 124.127 360.841 124.105 360.58C123.856 360.556 123.607 360.53 123.359 360.502C123.169 360.48 122.98 360.456 122.793 360.432C122.511 360.395 122.232 360.354 121.957 360.31C120.632 360.093 119.353 359.817 118.158 359.486C117.63 359.34 117.113 359.184 116.62 359.018C114.917 358.453 113.625 357.848 112.842 357.442L112.674 357.355C112.553 357.291 112.441 357.228 112.338 357.167L112.122 357.041L112.014 356.978L111.77 356.835L111.726 356.809L111.501 356.667L111.275 356.469L111.413 356.374L111.407 356.369Z" fill="white"/>
<path d="M98.0979 383.643C98.1177 383.628 98.1804 383.585 98.2827 383.523C98.3223 383.501 98.3664 383.473 98.417 383.443C98.5237 383.379 98.6558 383.298 98.8109 383.219C99.0805 383.076 99.3776 382.935 99.6945 382.798C99.755 382.773 99.8166 382.746 99.8804 382.721C100.148 382.611 100.424 382.506 100.701 382.413C101.094 382.279 101.519 382.155 101.962 382.045C102.412 381.933 102.887 381.835 103.37 381.755C103.687 381.703 104.031 381.659 104.448 381.616C104.488 381.177 104.529 380.813 104.579 380.476C104.619 380.217 104.66 379.962 104.707 379.717C104.741 379.531 104.777 379.347 104.816 379.168C104.931 378.628 105.062 378.121 105.204 377.659C105.281 377.407 105.362 377.161 105.445 376.929C105.469 376.86 105.494 376.792 105.519 376.727C105.66 376.35 105.815 375.982 105.965 375.666L106.542 374.502C106.812 375.176 107.5 376.932 107.715 377.64C107.972 378.477 108.189 379.455 108.342 380.467C108.391 380.793 108.431 381.149 108.469 381.552C108.863 381.592 109.191 381.634 109.498 381.684C110.45 381.842 111.377 382.07 112.177 382.346C113.034 382.636 113.682 382.948 114.075 383.158C114.231 383.238 114.363 383.319 114.482 383.391L114.61 383.467C114.739 383.546 114.807 383.596 114.807 383.596L114.953 383.705L114.807 383.814C114.807 383.814 114.739 383.864 114.608 383.945L114.5 384.009L114.474 384.025C114.367 384.09 114.233 384.171 114.077 384.251C113.683 384.461 113.035 384.773 112.178 385.063C111.377 385.338 110.45 385.567 109.499 385.725C109.194 385.775 108.867 385.817 108.474 385.856C108.438 386.256 108.397 386.612 108.349 386.942C108.199 387.947 107.983 388.924 107.723 389.769C107.445 390.676 106.736 392.482 106.539 392.895L106.356 392.501L106.282 392.352L106.272 392.335L106.254 392.301C106.234 392.261 106.207 392.214 106.179 392.162C106.137 392.085 106.088 391.996 106.037 391.894C106.014 391.846 105.989 391.795 105.964 391.743L105.923 391.653C105.737 391.254 105.459 390.602 105.201 389.749C105.105 389.438 105.015 389.107 104.932 388.766C104.79 388.182 104.671 387.565 104.577 386.932C104.543 386.698 104.511 386.447 104.485 386.19C104.471 386.058 104.458 385.924 104.447 385.791C104.323 385.779 104.198 385.766 104.074 385.751C103.979 385.74 103.885 385.728 103.791 385.716C103.65 385.697 103.511 385.676 103.373 385.654C102.711 385.543 102.071 385.402 101.474 385.233C101.21 385.159 100.951 385.079 100.705 384.994C99.8529 384.706 99.207 384.397 98.8153 384.19L98.7317 384.146C98.6712 384.113 98.615 384.081 98.5633 384.05L98.4555 383.986L98.4016 383.954L98.2794 383.88L98.2574 383.867L98.1452 383.795L98.0319 383.694L98.1012 383.645L98.0979 383.643Z" fill="white"/>
<path d="M251.296 264.177C251.269 264.158 251.185 264.101 251.047 264.019C250.994 263.99 250.934 263.953 250.866 263.914C250.722 263.829 250.544 263.722 250.335 263.618C249.972 263.429 249.571 263.243 249.144 263.063C249.063 263.029 248.979 262.994 248.893 262.96C248.533 262.815 248.161 262.677 247.787 262.554C247.258 262.377 246.685 262.213 246.087 262.068C245.481 261.92 244.842 261.791 244.191 261.686C243.763 261.617 243.299 261.558 242.737 261.502C242.684 260.922 242.627 260.442 242.561 259.997C242.507 259.655 242.451 259.318 242.389 258.995C242.343 258.75 242.294 258.507 242.242 258.271C242.086 257.558 241.91 256.888 241.718 256.279C241.614 255.946 241.505 255.621 241.393 255.315C241.361 255.224 241.327 255.135 241.294 255.048C241.104 254.55 240.895 254.065 240.692 253.648L239.915 252.111C239.551 253 238.623 255.319 238.334 256.254C237.987 257.358 237.695 258.649 237.489 259.985C237.423 260.416 237.368 260.886 237.318 261.417C236.787 261.47 236.345 261.526 235.931 261.592C234.647 261.8 233.398 262.102 232.32 262.465C231.165 262.849 230.291 263.26 229.762 263.537C229.551 263.643 229.373 263.75 229.213 263.845L229.041 263.946C228.867 264.05 228.775 264.116 228.775 264.116L228.578 264.259L228.775 264.403C228.775 264.403 228.867 264.469 229.044 264.576L229.189 264.661L229.223 264.681C229.369 264.768 229.548 264.875 229.759 264.98C230.29 265.257 231.163 265.668 232.318 266.052C233.398 266.416 234.647 266.717 235.93 266.925C236.341 266.991 236.781 267.047 237.311 267.098C237.359 267.627 237.414 268.097 237.48 268.532C237.681 269.859 237.972 271.148 238.323 272.263C238.697 273.461 239.654 275.845 239.919 276.39L240.165 275.87L240.265 275.673L240.278 275.651L240.303 275.606C240.33 275.553 240.366 275.492 240.404 275.423C240.461 275.32 240.527 275.203 240.596 275.068C240.627 275.005 240.661 274.938 240.693 274.869L240.75 274.751C241 274.225 241.374 273.363 241.723 272.237C241.852 271.827 241.973 271.39 242.085 270.94C242.276 270.168 242.436 269.354 242.564 268.519C242.61 268.21 242.653 267.879 242.687 267.539C242.706 267.365 242.724 267.189 242.739 267.013C242.906 266.997 243.074 266.98 243.241 266.96C243.369 266.946 243.497 266.93 243.623 266.914C243.812 266.889 244.001 266.861 244.186 266.832C245.079 266.685 245.941 266.499 246.746 266.276C247.102 266.178 247.45 266.073 247.783 265.961C248.931 265.581 249.801 265.173 250.329 264.899L250.442 264.841C250.523 264.798 250.599 264.756 250.669 264.715L250.814 264.63L250.887 264.587L251.051 264.491L251.081 264.473L251.232 264.378L251.385 264.245L251.292 264.18L251.296 264.177Z" fill="white"/>
<path d="M426.43 377.87C426.413 377.857 426.358 377.819 426.269 377.765C426.235 377.745 426.197 377.721 426.153 377.694C426.06 377.638 425.945 377.566 425.81 377.497C425.576 377.371 425.317 377.247 425.042 377.127C424.989 377.105 424.936 377.081 424.88 377.059C424.648 376.962 424.407 376.87 424.166 376.788C423.825 376.67 423.455 376.561 423.07 376.464C422.678 376.365 422.266 376.279 421.846 376.209C421.57 376.163 421.271 376.124 420.908 376.087C420.874 375.7 420.837 375.38 420.794 375.083C420.76 374.855 420.724 374.631 420.683 374.415C420.654 374.252 420.622 374.09 420.589 373.933C420.488 373.457 420.374 373.011 420.251 372.604C420.184 372.383 420.113 372.166 420.041 371.962C420.02 371.901 419.998 371.842 419.977 371.784C419.855 371.452 419.72 371.129 419.589 370.851L419.087 369.826C418.853 370.419 418.254 371.965 418.067 372.588C417.844 373.324 417.655 374.185 417.522 375.075C417.48 375.362 417.445 375.676 417.412 376.03C417.069 376.065 416.784 376.103 416.517 376.146C415.689 376.285 414.883 376.486 414.188 376.729C413.442 376.984 412.879 377.259 412.537 377.443C412.401 377.514 412.286 377.585 412.183 377.648L412.072 377.716C411.96 377.785 411.901 377.829 411.901 377.829L411.773 377.925L411.901 378.021C411.901 378.021 411.96 378.064 412.074 378.136L412.168 378.192L412.19 378.206C412.283 378.264 412.399 378.335 412.535 378.405C412.878 378.59 413.441 378.864 414.187 379.12C414.883 379.362 415.689 379.563 416.516 379.702C416.781 379.746 417.066 379.783 417.407 379.817C417.439 380.17 417.474 380.483 417.516 380.773C417.646 381.658 417.834 382.518 418.061 383.261C418.302 384.06 418.919 385.648 419.09 386.012L419.249 385.665L419.313 385.534L419.322 385.52L419.338 385.489C419.355 385.454 419.378 385.413 419.403 385.367C419.44 385.299 419.483 385.221 419.527 385.131C419.547 385.089 419.569 385.044 419.59 384.998L419.626 384.919C419.788 384.568 420.029 383.994 420.254 383.243C420.337 382.97 420.416 382.679 420.487 382.379C420.611 381.864 420.714 381.321 420.796 380.765C420.826 380.559 420.854 380.338 420.876 380.111C420.888 379.995 420.9 379.878 420.909 379.761C421.017 379.75 421.126 379.738 421.234 379.726C421.316 379.716 421.398 379.705 421.48 379.694C421.602 379.678 421.724 379.659 421.843 379.64C422.419 379.542 422.975 379.418 423.495 379.27C423.724 379.204 423.949 379.134 424.163 379.06C424.904 378.806 425.466 378.534 425.806 378.352L425.879 378.313C425.932 378.284 425.98 378.256 426.025 378.229L426.119 378.172L426.166 378.144L426.272 378.079L426.291 378.067L426.389 378.004L426.488 377.915L426.427 377.872L426.43 377.87Z" fill="white"/>
<path d="M97.5161 179.605C97.4989 179.592 97.4444 179.554 97.3554 179.499C97.3209 179.48 97.2826 179.455 97.2386 179.429C97.1458 179.372 97.031 179.301 96.8961 179.231C96.6617 179.105 96.4033 178.981 96.1278 178.861C96.0751 178.839 96.0215 178.815 95.9661 178.793C95.7335 178.696 95.4934 178.605 95.2523 178.522C94.9107 178.404 94.5413 178.295 94.1557 178.198C93.7644 178.1 93.352 178.014 92.9319 177.943C92.6564 177.897 92.3569 177.858 91.9942 177.821C91.9598 177.435 91.9234 177.114 91.8804 176.817C91.8459 176.59 91.8096 176.365 91.7694 176.149C91.7397 175.986 91.7081 175.824 91.6747 175.667C91.5742 175.191 91.4603 174.745 91.3369 174.339C91.2699 174.117 91.1991 173.9 91.1274 173.696C91.1063 173.636 91.0843 173.576 91.0632 173.519C90.9408 173.187 90.8059 172.863 90.6748 172.585L90.1734 171.561C89.939 172.153 89.34 173.699 89.1534 174.322C88.9295 175.059 88.741 175.919 88.608 176.81C88.5659 177.097 88.5305 177.41 88.498 177.765C88.1554 177.8 87.8703 177.837 87.6033 177.881C86.7747 178.02 85.9691 178.221 85.2735 178.463C84.5281 178.719 83.9645 178.993 83.6229 179.178C83.4871 179.248 83.3722 179.319 83.2689 179.383L83.1579 179.45C83.046 179.52 82.9866 179.563 82.9866 179.563L82.8594 179.659L82.9866 179.755C82.9866 179.755 83.046 179.799 83.1598 179.87L83.2536 179.927L83.2756 179.94C83.3694 179.998 83.4851 180.069 83.621 180.14C83.9636 180.324 84.5271 180.599 85.2725 180.855C85.9691 181.097 86.7747 181.298 87.6024 181.437C87.8674 181.48 88.1516 181.518 88.4932 181.552C88.5248 181.904 88.5602 182.218 88.6023 182.508C88.7324 183.393 88.9199 184.252 89.1467 184.995C89.3878 185.794 90.005 187.383 90.1763 187.746L90.3351 187.399L90.3992 187.269L90.4078 187.254L90.4241 187.224C90.4413 187.188 90.4643 187.147 90.4891 187.102C90.5255 187.033 90.5686 186.955 90.6126 186.865C90.6327 186.823 90.6547 186.778 90.6757 186.732L90.7121 186.653C90.8738 186.303 91.1149 185.729 91.3398 184.978C91.423 184.704 91.5015 184.413 91.5732 184.113C91.6967 183.599 91.8 183.056 91.8823 182.499C91.912 182.293 91.9397 182.072 91.9617 181.846C91.9741 181.73 91.9856 181.612 91.9952 181.495C92.1033 181.484 92.2114 181.473 92.3196 181.46C92.4019 181.45 92.4841 181.439 92.5655 181.429C92.6879 181.412 92.8095 181.394 92.9291 181.374C93.5051 181.276 94.061 181.152 94.5806 181.004C94.8102 180.938 95.0351 180.868 95.2494 180.794C95.99 180.54 96.5516 180.269 96.8923 180.086L96.965 180.047C97.0176 180.019 97.0664 179.99 97.1114 179.963L97.2051 179.906L97.252 179.878L97.3582 179.813L97.3774 179.802L97.475 179.738L97.5735 179.649L97.5132 179.606L97.5161 179.605Z" fill="white"/>
<rect x="3.84375" y="205.998" width="23.7903" height="495.228" rx="11.8952" transform="rotate(-13.9504 3.84375 205.998)" fill="#082422"/>
<rect x="40.0703" y="290.527" width="3.66656" height="281.14" rx="1.83328" transform="rotate(-13.9504 40.0703 290.527)" fill="white"/>
<path d="M15.4729 203.866C21.4816 202.367 27.5644 206.042 29.0574 212.08L40.3414 257.71C32.6905 258.26 25.3288 259.913 18.4185 262.517L7.29066 217.514C5.79743 211.476 9.46318 205.366 15.4729 203.866Z" fill="white" stroke="#082422" stroke-width="1.16707"/>
</g>
<defs>
<clipPath id="clip0_14989_18366">
<rect width="472.664" height="695.575" fill="white"/>
</clipPath>
</defs>
</svg>
