<svg width="409" height="530" viewBox="0 0 409 530" fill="none" xmlns="http://www.w3.org/2000/svg">
<path d="M192.67 312.356L154.644 309.047C136.654 307.482 119.608 294.01 107.988 268.921C84.8921 219.185 91.8064 142.544 123.241 98.0049C138.968 75.8037 157.818 65.7396 175.602 67.2718L213.63 70.5764C195.769 68.9908 176.863 79.1326 161.265 101.313C129.755 145.798 122.918 222.494 145.96 272.304C157.558 297.265 174.604 310.737 192.67 312.356Z" fill="#B2CE00" stroke="#082422" stroke-width="0.556186"/>
<path d="M239.551 111.075C262.875 161.357 256.016 238.681 224.159 283.711C192.23 328.842 147.477 324.473 124.153 274.191C100.83 223.909 107.688 146.585 139.617 101.453C171.474 56.4223 216.227 60.7929 239.551 111.075Z" fill="#8BFFFE" stroke="#082422" stroke-width="0.556186"/>
<path d="M254.544 302.466C235.263 329.72 212.127 342.139 190.175 340.194L152.227 336.939C174.099 338.835 197.314 326.465 216.592 299.215C255.417 244.329 263.864 149.901 235.476 88.6731C221.119 57.8851 200.234 41.256 178.025 39.3517L215.973 42.606C238.185 44.5066 259.145 61.1927 273.449 92.0548C301.837 153.283 293.313 247.657 254.544 302.466Z" fill="#B2CE00" stroke="#082422" stroke-width="0.556186"/>
<path d="M235.472 88.7524C263.871 149.975 255.383 244.39 216.595 299.217C177.806 354.044 123.182 348.841 94.7826 287.618C66.3551 226.333 74.8011 131.979 113.589 77.1523C152.377 22.3259 207.045 27.4677 235.472 88.7524ZM107.974 268.972C131.035 318.688 175.438 322.913 206.935 278.393C238.472 233.814 245.34 157.118 222.279 107.403C199.189 57.6237 154.786 53.3983 123.249 97.9765C91.7512 142.497 84.8847 219.193 107.974 268.972Z" fill="#DCFF00" stroke="#082422" stroke-width="0.556186"/>
<path d="M220.899 300.284C218.555 303.617 218.085 306.747 219.201 309.195L240.454 355.355C239.336 352.91 239.794 349.7 242.138 346.366C246.828 339.697 257.35 334.773 265.563 335.497C269.199 335.839 271.88 337.242 273.18 339.332L252.351 293.948C251.233 291.503 248.45 289.751 244.327 289.414C236.112 288.692 225.576 293.534 220.899 300.284Z" fill="#009191" stroke="#082422" stroke-width="0.556186"/>
<path d="M265.525 335.516C257.334 334.784 246.809 339.667 242.12 346.373C237.409 353.114 240.295 359.16 248.485 359.893C256.717 360.63 267.177 355.779 271.889 349.038C276.576 342.331 273.757 336.253 265.525 335.516Z" fill="#2BF2F1" stroke="#082422" stroke-width="0.556186"/>
<path d="M225.588 332.118C221.566 337.838 220.758 343.209 222.675 347.411L295.311 506.261C293.393 502.064 294.178 496.555 298.201 490.835C306.248 479.391 324.305 470.942 338.399 472.183C344.637 472.771 349.239 475.178 351.469 478.765L279.556 321.247C277.637 317.05 272.861 314.046 265.786 313.465C251.693 312.225 233.614 320.536 225.588 332.118Z" fill="#2BF2F1" stroke="#082422" stroke-width="0.556186"/>
<path d="M338.342 472.178C324.287 470.919 306.225 479.299 298.18 490.808C290.095 502.374 295.048 512.75 309.103 514.009C323.23 515.274 341.179 506.948 349.263 495.381C357.308 483.872 352.468 473.443 338.342 472.178Z" fill="#009191" stroke="#082422" stroke-width="0.556186"/>
</svg>
