<svg width="570" height="321" viewBox="0 0 570 321" fill="none" xmlns="http://www.w3.org/2000/svg">
<g clip-path="url(#clip0_14997_18409)">
<path d="M175.38 328.468L0 352.88L175.38 231.463L496.589 243.669L627 351.595L457.401 328.468L316.712 345.813L175.38 328.468Z" fill="#082422" fill-opacity="0.5"/>
<path d="M397.886 7.43457L532.88 58.0693L533.082 58.1455L533.112 58.3594L570.359 319.783L570.442 320.362L569.886 320.181L415.122 269.583L286.286 313.772L286.168 313.813L286.05 313.772L157.212 269.583L2.44922 320.181L1.89258 320.362L1.97559 319.783L39.2227 58.3594L39.2539 58.1455L39.4561 58.0693L174.45 7.43457L174.581 7.38477L174.712 7.43652L286.167 51.6123L397.623 7.43652L397.754 7.38477L397.886 7.43457Z" fill="white" stroke="#082422" stroke-width="0.72845" stroke-miterlimit="10"/>
<path d="M174.146 24.9688L214.712 41.2529L214.886 41.3223L214.931 41.5039L229.293 99.8115L229.458 100.479L228.812 100.24L170.604 78.6367L49.1777 119.153L48.625 119.337L48.7012 118.76L55.1572 69.752L55.1855 69.5352L55.3896 69.459L173.882 24.9658L174.015 24.916L174.146 24.9688Z" fill="#60D06F" stroke="#082422" stroke-width="0.72845" stroke-miterlimit="10"/>
<path d="M168.047 96.2744L168.107 96.3066L216.222 114.076L217.098 114.399L216.234 114.755L165.579 135.595L165.577 135.596L161.648 137.184L161.642 137.187L142.787 144.39L102.419 201.357L102.353 201.452L102.243 201.491L34.0039 225.507L33.4443 225.704L33.5215 225.116L45.041 137.187L45.0703 136.96L45.2871 136.888L167.768 96.2539L167.911 96.2061L168.047 96.2744Z" fill="#DCFF00" stroke="#082422" stroke-width="0.72845" stroke-miterlimit="10"/>
<path d="M235.469 126.914L246.354 176.694L286.142 190.392L286.151 190.395V190.396L286.321 190.459L344.067 166.869L344.553 166.672L344.569 167.195L346.092 215.022L346.101 215.275L345.865 215.371L286.167 239.628L286.035 239.695L285.892 239.768L285.742 239.711L242.595 223.407L216.435 272.528L216.287 272.805L215.991 272.7L158.802 252.519L25.8027 296.808L25.25 296.992L25.3262 296.415L32.2188 244.282L32.248 244.06L32.46 243.985L115.624 215.112L155.844 158.461L155.908 158.37L156.013 158.331L165.037 154.947L168.872 153.49L234.977 126.654L235.377 126.492L235.469 126.914Z" fill="#008BD6" stroke="#082422" stroke-width="0.72845" stroke-miterlimit="10"/>
<path d="M399.051 24.9658L474.353 53.4473L474.884 53.6484L474.479 54.0469L435.42 92.5596L435.256 92.7217L435.039 92.6426L402.542 80.7607L343.255 104.152L344.618 147.521L344.626 147.773L344.393 147.87L286.842 171.58L286.552 171.727L286.414 171.796L286.269 171.746L263.617 163.905L263.427 163.839L263.381 163.643L250.554 107.65L235.593 49.9199L235.414 49.2305L236.078 49.4893L286.69 69.2314L398.788 24.9678L398.919 24.916L399.051 24.9658Z" fill="#CFCABF" stroke="#082422" stroke-width="0.72845" stroke-miterlimit="10"/>
<path d="M494.68 61.1953L517.301 69.6006L517.507 69.6768L517.535 69.8945L532.979 187.716L533.059 188.327L532.485 188.103L464.924 161.665L464.754 161.599L464.705 161.424L449.337 106.257L449.279 106.052L449.431 105.901L494.297 61.2793L494.462 61.1143L494.68 61.1953Z" fill="#008BD6" stroke="#082422" stroke-width="0.72845" stroke-miterlimit="10"/>
<path d="M403.715 99.7646L430.009 109.281L430.188 109.346L430.237 109.528L445.74 166.818L445.771 166.937L445.726 167.051L424.675 219.125L460.501 267.771L461.187 268.702L460.091 268.332L413.548 252.601L286.716 296.803L286.597 296.845L286.478 296.804L235.827 279.383L235.425 279.244L235.623 278.868L252.76 246.443L252.91 246.16L253.21 246.272L286.706 258.774L286.722 258.778L366.396 226.609L363.558 159.486L363.292 153.615L363.291 153.614L361.733 116.393L361.723 116.133L361.965 116.038L403.363 99.8145L403.427 99.7822L403.567 99.7119L403.715 99.7646Z" fill="#DCFF00" stroke="#082422" stroke-width="0.72845" stroke-miterlimit="10"/>
<path d="M462.693 179.24L536.184 207.458L536.386 207.536L536.414 207.75L548.171 296.408L548.247 296.982L547.697 296.803L493.201 278.979L493.093 278.943L493.024 278.852L447.068 218.027L446.945 217.863L447.021 217.673L462.225 179.445L462.357 179.111L462.693 179.24Z" fill="#60D06F" stroke="#082422" stroke-width="0.72845" stroke-miterlimit="10"/>
<path opacity="0.2" d="M285.011 52.0692L174.837 7.77539L157.695 269.697L285.011 313.991V52.0692Z" fill="#082422"/>
<path opacity="0.2" d="M532.58 58.2572L397.133 7.77539L414.558 269.353L570.001 319.835L532.58 58.2572Z" fill="#082422"/>
<path d="M285.039 2.39355C295.527 2.39355 305.585 6.57328 313.001 14.0127C320.417 21.4521 324.583 31.5421 324.583 42.0625C324.583 58.1197 314.62 74.0202 304.721 85.8672C299.764 91.7991 294.808 96.7324 291.092 100.183C289.233 101.908 287.685 103.263 286.6 104.188C286.057 104.65 285.63 105.004 285.339 105.243C285.193 105.363 285.081 105.454 285.006 105.515C284.968 105.545 284.939 105.568 284.92 105.584C284.91 105.592 284.903 105.598 284.898 105.602C284.896 105.603 284.894 105.604 284.893 105.605L284.891 105.607C284.773 105.701 284.612 105.711 284.485 105.64L284.433 105.604L284.431 105.602C284.429 105.601 284.427 105.6 284.425 105.598C284.42 105.594 284.413 105.587 284.403 105.579C284.384 105.563 284.356 105.54 284.319 105.51C284.245 105.448 284.135 105.356 283.992 105.234C283.706 104.992 283.288 104.632 282.756 104.164C281.691 103.228 280.172 101.855 278.349 100.111C274.703 96.6238 269.842 91.646 264.979 85.6846C255.269 73.7783 245.495 57.8777 245.495 42.0625C245.495 31.5421 249.661 21.4521 257.077 14.0127C264.493 6.57327 274.551 2.39356 285.039 2.39355Z" fill="#A8A8A8" stroke="#231F20" stroke-width="0.72845" stroke-linejoin="round"/>
<path d="M281.867 -0.364258C292.355 -0.364258 302.413 3.81547 309.829 11.2549C317.245 18.6943 321.411 28.7843 321.411 39.3047C321.411 55.3619 311.448 71.2624 301.549 83.1094C296.592 89.0413 291.636 93.9746 287.92 97.4248C286.062 99.1501 284.513 100.506 283.428 101.43C282.885 101.892 282.458 102.246 282.167 102.485C282.021 102.605 281.91 102.696 281.834 102.757C281.796 102.787 281.767 102.811 281.748 102.826C281.739 102.834 281.731 102.84 281.727 102.844C281.724 102.846 281.722 102.847 281.721 102.848L281.719 102.85C281.601 102.943 281.441 102.953 281.313 102.882L281.261 102.846L281.259 102.844C281.258 102.843 281.255 102.842 281.253 102.84C281.248 102.836 281.241 102.829 281.231 102.821C281.212 102.806 281.184 102.783 281.147 102.752C281.073 102.69 280.963 102.598 280.82 102.477C280.535 102.234 280.116 101.874 279.584 101.406C278.52 100.47 277 99.0975 275.177 97.3535C271.531 93.8659 266.67 88.8882 261.808 82.9268C252.097 71.0205 242.323 55.1199 242.323 39.3047C242.323 28.7843 246.49 18.6943 253.905 11.2549C261.321 3.81546 271.379 -0.36425 281.867 -0.364258Z" fill="#EFEBE7" stroke="#231F20" stroke-width="0.72845" stroke-linejoin="round"/>
<g opacity="0.35">
<path d="M280.45 41.7455L280.71 41.7546L281.295 34.427H298.159L299.288 24.5469L269.36 24.5514C269.36 24.5514 268.752 27.2381 268.601 29.0572C267.973 36.6447 272.872 41.524 280.45 41.7455Z" fill="#082422"/>
<path d="M267.5 58.3571L267.219 64.28H279.153L280.114 52.415L289.417 52.4592L290.609 42.1328H285.929C276.236 42.1328 267.843 48.1579 267.499 58.3583L267.5 58.3571Z" fill="#082422"/>
</g>
<path d="M62.2031 55.7451C72.6911 55.7451 82.7492 59.9248 90.165 67.3643C97.5807 74.8037 101.747 84.8936 101.747 95.4141C101.747 111.471 91.784 127.372 81.8848 139.219C76.9281 145.151 71.9721 150.084 68.2559 153.534C66.3975 155.259 64.8487 156.615 63.7637 157.539C63.2212 158.001 62.7942 158.356 62.5029 158.595C62.3574 158.714 62.2455 158.805 62.1699 158.866C62.1322 158.897 62.1033 158.92 62.084 158.936C62.0745 158.943 62.0674 158.949 62.0625 158.953C62.0601 158.955 62.0579 158.956 62.0566 158.957L62.0547 158.959C61.9372 159.052 61.7766 159.063 61.6494 158.991L61.5967 158.955L61.5947 158.953C61.5935 158.952 61.5912 158.951 61.5889 158.949C61.584 158.945 61.5769 158.939 61.5674 158.931C61.5484 158.915 61.5201 158.892 61.4834 158.861C61.4092 158.799 61.2991 158.707 61.1562 158.586C60.8705 158.343 60.4521 157.984 59.9199 157.516C58.8555 156.579 57.3357 155.207 55.5127 153.463C51.8672 149.975 47.0058 144.998 42.1436 139.036C32.4327 127.13 22.6592 111.229 22.6592 95.4141C22.6593 84.8936 26.8255 74.8037 34.2412 67.3643C41.657 59.9248 51.7152 55.7451 62.2031 55.7451Z" fill="#00AEAD" stroke="#231F20" stroke-width="0.72845" stroke-linejoin="round"/>
<path d="M59.0312 52.9873C69.5192 52.9873 79.5773 57.167 86.9932 64.6064C94.4089 72.0459 98.5751 82.1358 98.5752 92.6562C98.5752 108.713 88.6122 124.614 78.7129 136.461C73.7562 142.393 68.8002 147.326 65.084 150.776C63.2256 152.502 61.6768 153.857 60.5918 154.781C60.0493 155.243 59.6223 155.598 59.3311 155.837C59.1855 155.956 59.0736 156.047 58.998 156.108C58.9604 156.139 58.9315 156.162 58.9121 156.178C58.9026 156.185 58.8955 156.191 58.8906 156.195C58.8883 156.197 58.8861 156.198 58.8848 156.199L58.8828 156.201C58.7653 156.295 58.6047 156.305 58.4775 156.233L58.4248 156.197L58.4229 156.195C58.4216 156.194 58.4193 156.193 58.417 156.191C58.4121 156.187 58.405 156.181 58.3955 156.173C58.3765 156.157 58.3483 156.134 58.3115 156.104C58.2374 156.042 58.1273 155.949 57.9844 155.828C57.6986 155.586 57.2803 155.226 56.748 154.758C55.6836 153.821 54.1638 152.449 52.3408 150.705C48.6953 147.218 43.8339 142.24 38.9717 136.278C29.2608 124.372 19.4873 108.471 19.4873 92.6562C19.4874 82.1358 23.6536 72.0459 31.0693 64.6064C38.4851 57.167 48.5433 52.9873 59.0312 52.9873Z" fill="#2BF2F1" stroke="#231F20" stroke-width="0.72845" stroke-linejoin="round"/>
<path d="M57.6222 95.1009L57.8818 95.11L58.4672 87.7825H75.3306L76.4603 77.9023L46.532 77.9069C46.532 77.9069 45.9237 80.5935 45.7728 82.4126C45.145 90.0002 50.0435 94.8795 57.6222 95.1009Z" fill="#082422"/>
<path d="M44.6719 111.711L44.3906 117.634H56.3247L57.2863 105.768L66.5893 105.813L67.7808 95.4863H63.1007C53.4078 95.4863 45.0149 101.511 44.6708 111.712L44.6719 111.711Z" fill="#082422"/>
<path d="M409.117 83.7998C419.605 83.7998 429.663 87.9795 437.079 95.4189C444.495 102.858 448.661 112.948 448.661 123.469C448.661 139.526 438.698 155.426 428.799 167.273C423.842 173.205 418.886 178.139 415.17 181.589C413.312 183.314 411.763 184.67 410.678 185.594C410.135 186.056 409.708 186.41 409.417 186.649C409.271 186.769 409.16 186.86 409.084 186.921C409.046 186.951 409.017 186.975 408.998 186.99C408.989 186.998 408.981 187.004 408.977 187.008C408.974 187.01 408.972 187.011 408.971 187.012L408.969 187.014C408.851 187.107 408.691 187.118 408.563 187.046L408.511 187.01L408.509 187.008C408.508 187.007 408.505 187.006 408.503 187.004C408.498 187 408.491 186.993 408.481 186.985C408.462 186.97 408.434 186.947 408.397 186.916C408.323 186.854 408.213 186.762 408.07 186.641C407.785 186.398 407.366 186.038 406.834 185.57C405.77 184.634 404.25 183.262 402.427 181.518C398.781 178.03 393.92 173.052 389.058 167.091C379.347 155.185 369.573 139.284 369.573 123.469C369.573 112.948 373.74 102.858 381.155 95.4189C388.571 87.9795 398.629 83.7998 409.117 83.7998Z" fill="#00AEAD" stroke="#231F20" stroke-width="0.72845" stroke-linejoin="round"/>
<path d="M405.945 81.0381C416.433 81.0381 426.491 85.2178 433.907 92.6572C441.323 100.097 445.489 110.187 445.489 120.707C445.489 136.764 435.526 152.665 425.627 164.512C420.67 170.444 415.714 175.377 411.998 178.827C410.14 180.552 408.591 181.908 407.506 182.832C406.963 183.294 406.536 183.649 406.245 183.888C406.1 184.007 405.988 184.098 405.912 184.159C405.874 184.19 405.846 184.213 405.826 184.229C405.817 184.236 405.81 184.242 405.805 184.246C405.802 184.248 405.8 184.249 405.799 184.25L405.797 184.252C405.679 184.345 405.519 184.356 405.392 184.284L405.339 184.248L405.337 184.246C405.336 184.245 405.333 184.244 405.331 184.242C405.326 184.238 405.319 184.231 405.31 184.224C405.291 184.208 405.262 184.185 405.226 184.154C405.151 184.092 405.041 184 404.898 183.879C404.613 183.636 404.194 183.277 403.662 182.809C402.598 181.872 401.078 180.5 399.255 178.756C395.609 175.268 390.748 170.291 385.886 164.329C376.175 152.423 366.401 136.522 366.401 120.707C366.401 110.187 370.568 100.097 377.983 92.6572C385.399 85.2178 395.457 81.0381 405.945 81.0381Z" fill="#2BF2F1" stroke="#231F20" stroke-width="0.72845" stroke-linejoin="round"/>
<path d="M404.521 123.148L404.78 123.157L405.366 115.829H422.229L423.359 105.949L393.43 105.954C393.43 105.954 392.822 108.64 392.671 110.46C392.043 118.047 396.942 122.926 404.521 123.148Z" fill="#082422"/>
<path d="M391.563 139.759L391.281 145.682H403.215L404.177 133.817L413.48 133.862L414.671 123.535H409.991C400.298 123.535 391.906 129.56 391.561 139.761L391.563 139.759Z" fill="#082422"/>
<path d="M160.328 132.884C170.816 132.884 180.874 137.064 188.29 144.503C195.706 151.942 199.872 162.032 199.872 172.553C199.872 188.61 189.909 204.51 180.01 216.357C175.053 222.289 170.097 227.223 166.381 230.673C164.523 232.398 162.974 233.754 161.889 234.678C161.346 235.14 160.919 235.494 160.628 235.733C160.482 235.853 160.37 235.944 160.295 236.005C160.257 236.035 160.228 236.059 160.209 236.074C160.199 236.082 160.192 236.088 160.188 236.092C160.185 236.094 160.183 236.095 160.182 236.096L160.18 236.098C160.062 236.191 159.902 236.202 159.774 236.13L159.722 236.094L159.72 236.092C159.718 236.091 159.716 236.09 159.714 236.088C159.709 236.084 159.702 236.077 159.692 236.069C159.673 236.054 159.645 236.031 159.608 236C159.534 235.938 159.424 235.846 159.281 235.725C158.995 235.482 158.577 235.122 158.045 234.654C156.981 233.718 155.461 232.346 153.638 230.602C149.992 227.114 145.131 222.136 140.269 216.175C130.558 204.269 120.784 188.368 120.784 172.553C120.784 162.032 124.951 151.942 132.366 144.503C139.782 137.064 149.84 132.884 160.328 132.884Z" fill="#00AEAD" stroke="#231F20" stroke-width="0.72845" stroke-linejoin="round"/>
<path d="M157.156 130.136C167.644 130.136 177.702 134.315 185.118 141.755C192.534 149.194 196.7 159.284 196.7 169.805C196.7 185.862 186.737 201.762 176.838 213.609C171.881 219.541 166.925 224.475 163.209 227.925C161.351 229.65 159.802 231.006 158.717 231.93C158.174 232.392 157.747 232.746 157.456 232.985C157.311 233.105 157.199 233.196 157.123 233.257C157.085 233.287 157.056 233.311 157.037 233.326C157.028 233.334 157.021 233.34 157.016 233.344C157.013 233.346 157.011 233.347 157.01 233.348L157.008 233.35C156.89 233.443 156.73 233.453 156.603 233.382L156.55 233.346L156.548 233.344C156.547 233.343 156.544 233.342 156.542 233.34C156.537 233.336 156.53 233.329 156.521 233.321C156.502 233.306 156.473 233.283 156.437 233.252C156.362 233.19 156.252 233.098 156.109 232.977C155.824 232.734 155.405 232.374 154.873 231.906C153.809 230.97 152.289 229.598 150.466 227.854C146.82 224.366 141.959 219.388 137.097 213.427C127.386 201.521 117.612 185.62 117.612 169.805C117.612 159.284 121.779 149.194 129.194 141.755C136.61 134.315 146.668 130.136 157.156 130.136Z" fill="#2BF2F1" stroke="#231F20" stroke-width="0.72845" stroke-linejoin="round"/>
<path d="M155.739 172.24L155.999 172.249L156.584 164.921H173.448L174.578 155.041L144.649 155.046C144.649 155.046 144.041 157.732 143.89 159.551C143.262 167.139 148.161 172.018 155.739 172.24Z" fill="#082422"/>
<path d="M142.789 188.853L142.508 194.776H154.442L155.403 182.911L164.706 182.955L165.898 172.629H161.218C151.525 172.629 143.132 178.654 142.788 188.854L142.789 188.853Z" fill="#082422"/>
</g>
<defs>
<clipPath id="clip0_14997_18409">
<rect width="570" height="321" fill="white"/>
</clipPath>
</defs>
</svg>
