<svg width="213" height="275" viewBox="0 0 213 275" fill="none" xmlns="http://www.w3.org/2000/svg">
<g clip-path="url(#clip0_14997_18411)">
<mask id="path-1-outside-1_14997_18411" maskUnits="userSpaceOnUse" x="7.35938" y="6.15234" width="207" height="270" fill="black">
<rect fill="white" x="7.35938" y="6.15234" width="207" height="270"/>
<path d="M110.224 274.917C109.987 275.105 109.651 275.102 109.417 274.91L109.824 274.415L110.224 274.917ZM110.799 7.15234C137.968 7.15236 164.025 17.9856 183.235 37.2676C202.446 56.5495 213.238 82.702 213.238 109.97C213.238 151.597 187.414 192.859 161.702 223.646C148.834 239.053 135.967 251.868 126.318 260.831C121.494 265.313 117.473 268.833 114.656 271.232C113.248 272.432 112.141 273.352 111.386 273.973C111.008 274.283 110.717 274.519 110.521 274.677C110.424 274.756 110.35 274.815 110.3 274.855C110.275 274.875 110.256 274.891 110.243 274.901C110.237 274.906 110.232 274.91 110.229 274.913C110.227 274.914 110.225 274.915 110.225 274.916L109.824 274.415C109.798 274.393 107.1 272.173 102.604 268.119L102.602 268.117C107.095 272.168 109.792 274.388 109.824 274.415C109.417 274.91 109.416 274.91 109.415 274.909C109.414 274.909 109.413 274.907 109.412 274.906C109.409 274.904 109.404 274.9 109.397 274.895C109.385 274.884 109.366 274.869 109.342 274.849C109.293 274.808 109.22 274.747 109.124 274.667C108.932 274.507 108.647 274.268 108.276 273.953C107.535 273.324 106.449 272.39 105.068 271.175C102.306 268.743 98.36 265.179 93.627 260.648C84.1613 251.588 71.5385 238.657 58.915 223.172C33.6923 192.231 8.35951 150.97 8.35938 109.97C8.3595 82.702 19.1516 56.5495 38.3623 37.2676C57.5731 17.9856 83.6296 7.15237 110.799 7.15234ZM114.267 270.722C113.339 271.513 112.539 272.18 111.887 272.723C112.539 272.18 113.339 271.513 114.267 270.722ZM110.312 52.9238C79.211 52.924 53.9982 78.1367 53.998 109.238C53.998 140.34 79.2109 165.554 110.312 165.554C141.414 165.554 166.628 140.34 166.628 109.238C166.628 78.1366 141.414 52.9238 110.312 52.9238ZM39.6748 36.8691C39.3872 37.1511 39.1011 37.435 38.8164 37.7207H38.8174C39.1019 37.4352 39.3873 37.1509 39.6748 36.8691ZM41.5449 35.082H41.5459H41.5449ZM47.2578 30.1416C46.6049 30.6652 45.9584 31.1978 45.3174 31.7383L46.2842 30.9336C46.6075 30.6677 46.9316 30.4032 47.2578 30.1416ZM40.5801 35.9941C40.3155 36.2472 40.0522 36.5017 39.79 36.7578C40.0522 36.5017 40.3155 36.2471 40.5801 35.9941ZM40.5801 35.9941C40.5969 35.9781 40.6131 35.9614 40.6299 35.9453C40.6131 35.9614 40.5969 35.9781 40.5801 35.9941Z"/>
</mask>
<path d="M110.224 274.917C109.987 275.105 109.651 275.102 109.417 274.91L109.824 274.415L110.224 274.917ZM110.799 7.15234C137.968 7.15236 164.025 17.9856 183.235 37.2676C202.446 56.5495 213.238 82.702 213.238 109.97C213.238 151.597 187.414 192.859 161.702 223.646C148.834 239.053 135.967 251.868 126.318 260.831C121.494 265.313 117.473 268.833 114.656 271.232C113.248 272.432 112.141 273.352 111.386 273.973C111.008 274.283 110.717 274.519 110.521 274.677C110.424 274.756 110.35 274.815 110.3 274.855C110.275 274.875 110.256 274.891 110.243 274.901C110.237 274.906 110.232 274.91 110.229 274.913C110.227 274.914 110.225 274.915 110.225 274.916L109.824 274.415C109.798 274.393 107.1 272.173 102.604 268.119L102.602 268.117C107.095 272.168 109.792 274.388 109.824 274.415C109.417 274.91 109.416 274.91 109.415 274.909C109.414 274.909 109.413 274.907 109.412 274.906C109.409 274.904 109.404 274.9 109.397 274.895C109.385 274.884 109.366 274.869 109.342 274.849C109.293 274.808 109.22 274.747 109.124 274.667C108.932 274.507 108.647 274.268 108.276 273.953C107.535 273.324 106.449 272.39 105.068 271.175C102.306 268.743 98.36 265.179 93.627 260.648C84.1613 251.588 71.5385 238.657 58.915 223.172C33.6923 192.231 8.35951 150.97 8.35938 109.97C8.3595 82.702 19.1516 56.5495 38.3623 37.2676C57.5731 17.9856 83.6296 7.15237 110.799 7.15234ZM114.267 270.722C113.339 271.513 112.539 272.18 111.887 272.723C112.539 272.18 113.339 271.513 114.267 270.722ZM110.312 52.9238C79.211 52.924 53.9982 78.1367 53.998 109.238C53.998 140.34 79.2109 165.554 110.312 165.554C141.414 165.554 166.628 140.34 166.628 109.238C166.628 78.1366 141.414 52.9238 110.312 52.9238ZM39.6748 36.8691C39.3872 37.1511 39.1011 37.435 38.8164 37.7207H38.8174C39.1019 37.4352 39.3873 37.1509 39.6748 36.8691ZM41.5449 35.082H41.5459H41.5449ZM47.2578 30.1416C46.6049 30.6652 45.9584 31.1978 45.3174 31.7383L46.2842 30.9336C46.6075 30.6677 46.9316 30.4032 47.2578 30.1416ZM40.5801 35.9941C40.3155 36.2472 40.0522 36.5017 39.79 36.7578C40.0522 36.5017 40.3155 36.2471 40.5801 35.9941ZM40.5801 35.9941C40.5969 35.9781 40.6131 35.9614 40.6299 35.9453C40.6131 35.9614 40.5969 35.9781 40.5801 35.9941Z" fill="#0A9D9C"/>
<path d="M110.224 274.917L110.623 275.419C110.756 275.313 110.842 275.159 110.861 274.99C110.88 274.821 110.831 274.651 110.725 274.518L110.224 274.917ZM109.417 274.91L108.922 274.503C108.814 274.634 108.762 274.803 108.779 274.972C108.795 275.142 108.878 275.298 109.01 275.406L109.417 274.91ZM109.824 274.415L110.325 274.015C110.297 273.98 110.266 273.948 110.232 273.92L109.824 274.415ZM110.799 7.15234V6.51103V6.51103V7.15234ZM183.235 37.2676L183.69 36.8149V36.8149L183.235 37.2676ZM213.238 109.97H213.88V109.97H213.238ZM161.702 223.646L162.194 224.057V224.057L161.702 223.646ZM126.318 260.831L126.755 261.301V261.301L126.318 260.831ZM114.656 271.232L114.24 270.744V270.744L114.656 271.232ZM111.386 273.973L111.793 274.468H111.793L111.386 273.973ZM110.521 274.677L110.119 274.178L110.119 274.178L110.521 274.677ZM110.3 274.855L110.701 275.356L110.701 275.356L110.3 274.855ZM110.243 274.901L110.643 275.403L110.643 275.403L110.243 274.901ZM110.229 274.913L109.828 274.412L109.828 274.412L110.229 274.913ZM110.225 274.916L109.724 275.316C109.941 275.589 110.337 275.637 110.614 275.426L110.225 274.916ZM102.604 268.119L102.15 268.573C102.158 268.58 102.166 268.588 102.174 268.595L102.604 268.119ZM102.602 268.117L103.031 267.641C102.773 267.408 102.376 267.423 102.137 267.676C101.897 267.928 101.902 268.325 102.148 268.571L102.602 268.117ZM109.415 274.909L108.967 275.368C108.979 275.38 108.993 275.392 109.006 275.403L109.415 274.909ZM109.412 274.906L109.006 275.403L109.007 275.403L109.412 274.906ZM109.397 274.895L108.989 275.389L108.99 275.39L109.397 274.895ZM109.342 274.849L109.751 274.355L109.751 274.355L109.342 274.849ZM109.124 274.667L109.535 274.175H109.535L109.124 274.667ZM108.276 273.953L107.861 274.442L107.861 274.442L108.276 273.953ZM105.068 271.175L104.645 271.656H104.645L105.068 271.175ZM93.627 260.648L93.1835 261.112V261.112L93.627 260.648ZM58.915 223.172L58.418 223.577H58.418L58.915 223.172ZM8.35938 109.97H7.71806V109.97H8.35938ZM38.3623 37.2676L37.908 36.8149H37.908L38.3623 37.2676ZM114.683 271.21C114.952 270.98 114.984 270.575 114.755 270.306C114.525 270.036 114.12 270.004 113.851 270.234L114.267 270.722L114.683 271.21ZM111.477 272.23C111.204 272.456 111.167 272.86 111.394 273.133C111.62 273.405 112.024 273.442 112.297 273.216L111.887 272.723L111.477 272.23ZM110.312 52.9238V52.2825V52.2825V52.9238ZM53.998 109.238H53.3567V109.238H53.998ZM110.312 165.554V166.195V166.195V165.554ZM166.628 109.238H167.269V109.238H166.628ZM39.6748 36.8691L40.1237 37.3271C40.3767 37.0792 40.3807 36.6732 40.1328 36.4202C39.8849 36.1673 39.4788 36.1632 39.2259 36.4111L39.6748 36.8691ZM38.8164 37.7207L38.3621 37.2681C38.1792 37.4517 38.1247 37.7273 38.2241 37.9667C38.3235 38.206 38.5572 38.362 38.8164 38.362V37.7207ZM38.8174 37.7207V38.362C38.9879 38.362 39.1514 38.2941 39.2717 38.1733L38.8174 37.7207ZM41.5449 34.4407C41.1907 34.4407 40.9036 34.7278 40.9036 35.082C40.9036 35.4362 41.1907 35.7233 41.5449 35.7233V35.082V34.4407ZM41.5459 35.7233C41.9001 35.7233 42.1872 35.4362 42.1872 35.082C42.1872 34.7278 41.9001 34.4407 41.5459 34.4407V35.082V35.7233ZM47.659 30.6419C47.9353 30.4203 47.9797 30.0167 47.7581 29.7404C47.5365 29.4641 47.1329 29.4197 46.8566 29.6413L47.2578 30.1416L47.659 30.6419ZM45.3174 31.7383L44.9039 31.248C44.6338 31.4758 44.5988 31.8793 44.8258 32.1501C45.0527 32.421 45.456 32.4573 45.7276 32.2312L45.3174 31.7383ZM46.2842 30.9336L45.8768 30.4383L45.8739 30.4407L46.2842 30.9336ZM39.79 36.7578L39.3418 36.2991C39.0885 36.5467 39.0838 36.9527 39.3313 37.206C39.5789 37.4593 39.9849 37.464 40.2382 37.2165L39.79 36.7578ZM40.6299 35.9453L41.0728 36.4091C41.329 36.1645 41.3383 35.7585 41.0937 35.5024C40.8491 35.2462 40.4431 35.2369 40.187 35.4815L40.6299 35.9453ZM110.224 274.917L109.825 274.415L109.824 274.415L109.417 274.91L109.01 275.406C109.477 275.789 110.149 275.796 110.623 275.419L110.224 274.917ZM109.417 274.91L109.912 275.318L110.32 274.822L109.824 274.415L109.329 274.008L108.922 274.503L109.417 274.91ZM109.824 274.415L109.322 274.814L109.722 275.316L110.224 274.917L110.725 274.518L110.326 274.016L109.824 274.415ZM110.799 7.15234V7.79366C137.797 7.79368 163.69 18.5588 182.781 37.7202L183.235 37.2676L183.69 36.8149C164.359 17.4125 138.139 6.51104 110.799 6.51103V7.15234ZM183.235 37.2676L182.781 37.7202C201.872 56.8817 212.597 82.8713 212.597 109.97H213.238H213.88C213.879 82.5327 203.02 56.2173 183.69 36.8149L183.235 37.2676ZM213.238 109.97H212.597C212.597 151.359 186.903 192.471 161.21 223.234L161.702 223.646L162.194 224.057C187.925 193.248 213.879 151.836 213.88 109.97H213.238ZM161.702 223.646L161.21 223.234C148.364 238.616 135.517 251.412 125.882 260.361L126.318 260.831L126.755 261.301C136.418 252.325 149.305 239.49 162.194 224.057L161.702 223.646ZM126.318 260.831L125.882 260.361C121.065 264.836 117.05 268.35 114.24 270.744L114.656 271.232L115.072 271.721C117.895 269.315 121.923 265.789 126.755 261.301L126.318 260.831ZM114.656 271.232L114.24 270.744C112.836 271.941 111.731 272.859 110.979 273.477L111.386 273.973L111.793 274.468C112.551 273.845 113.661 272.923 115.072 271.721L114.656 271.232ZM111.386 273.973L110.979 273.477C110.603 273.786 110.313 274.021 110.119 274.178L110.521 274.677L110.924 275.176C111.121 275.017 111.413 274.78 111.793 274.468L111.386 273.973ZM110.521 274.677L110.119 274.178C110.021 274.257 109.948 274.316 109.899 274.355L110.3 274.855L110.701 275.356C110.752 275.315 110.827 275.254 110.924 275.176L110.521 274.677ZM110.3 274.855L109.899 274.355C109.884 274.367 109.871 274.377 109.862 274.385C109.851 274.394 109.846 274.398 109.843 274.4L110.243 274.901L110.643 275.403C110.653 275.395 110.664 275.385 110.672 275.379C110.681 275.372 110.691 275.364 110.701 275.356L110.3 274.855ZM110.243 274.901L109.843 274.4C109.84 274.403 109.836 274.405 109.834 274.408C109.831 274.41 109.83 274.411 109.828 274.412L110.229 274.913L110.629 275.414C110.642 275.404 110.629 275.414 110.643 275.403L110.243 274.901ZM110.229 274.913L109.828 274.412C109.837 274.405 109.845 274.399 109.847 274.398C109.847 274.397 109.848 274.397 109.848 274.397C109.848 274.397 109.848 274.397 109.848 274.397C109.848 274.397 109.847 274.397 109.847 274.398C109.846 274.398 109.845 274.399 109.843 274.4C109.841 274.402 109.839 274.404 109.835 274.406L110.225 274.916L110.614 275.426C110.611 275.428 110.608 275.43 110.607 275.431C110.605 275.432 110.604 275.433 110.604 275.433C110.604 275.433 110.603 275.434 110.604 275.433C110.604 275.433 110.605 275.433 110.606 275.432C110.609 275.429 110.618 275.423 110.629 275.414L110.229 274.913ZM110.225 274.916L110.726 274.516L110.325 274.015L109.824 274.415L109.323 274.815L109.724 275.316L110.225 274.916ZM109.824 274.415L110.232 273.92C110.212 273.903 107.522 271.689 103.033 267.643L102.604 268.119L102.174 268.595C106.679 272.657 109.384 274.883 109.417 274.91L109.824 274.415ZM102.604 268.119L103.057 267.666L103.055 267.664L102.602 268.117L102.148 268.571L102.15 268.573L102.604 268.119ZM102.602 268.117L102.172 268.594C106.674 272.652 109.378 274.878 109.417 274.91L109.824 274.415L110.232 273.92C110.206 273.899 107.516 271.684 103.031 267.641L102.602 268.117ZM109.824 274.415L109.329 274.008C109.125 274.255 109.024 274.378 108.974 274.438C108.961 274.453 108.953 274.464 108.946 274.471C108.943 274.475 108.941 274.478 108.939 274.48C108.938 274.482 108.937 274.482 108.937 274.482C108.937 274.482 108.938 274.481 108.939 274.48C108.939 274.48 108.941 274.478 108.943 274.476C108.945 274.474 108.954 274.463 108.968 274.45C108.975 274.443 108.989 274.43 109.008 274.414C109.023 274.402 109.065 274.367 109.128 274.336C109.19 274.305 109.336 274.244 109.526 274.278C109.621 274.294 109.695 274.329 109.748 274.361C109.773 274.376 109.793 274.391 109.805 274.4C109.811 274.404 109.815 274.408 109.819 274.411C109.821 274.413 109.824 274.415 109.824 274.415L109.415 274.909L109.006 275.403C109.006 275.403 109.009 275.405 109.012 275.408C109.015 275.41 109.02 275.414 109.026 275.419C109.038 275.428 109.057 275.442 109.082 275.457C109.135 275.49 109.21 275.524 109.304 275.541C109.494 275.574 109.64 275.514 109.703 275.483C109.765 275.451 109.808 275.416 109.823 275.404C109.843 275.388 109.857 275.374 109.864 275.367C109.887 275.345 109.906 275.323 109.907 275.322C109.918 275.308 109.935 275.288 109.961 275.258C110.013 275.195 110.116 275.07 110.32 274.822L109.824 274.415ZM109.415 274.909L109.863 274.451C109.87 274.457 109.876 274.463 109.878 274.466C109.881 274.469 109.883 274.471 109.884 274.472C109.887 274.475 109.882 274.47 109.88 274.467C109.876 274.463 109.868 274.455 109.859 274.446C109.849 274.437 109.835 274.424 109.817 274.409L109.412 274.906L109.007 275.403C108.989 275.389 108.976 275.376 108.967 275.368C108.958 275.359 108.951 275.352 108.948 275.348C108.946 275.347 108.945 275.345 108.944 275.345C108.944 275.344 108.944 275.344 108.944 275.344C108.944 275.344 108.944 275.345 108.945 275.345C108.946 275.346 108.948 275.349 108.951 275.352C108.954 275.355 108.96 275.361 108.967 275.368L109.415 274.909ZM109.412 274.906L109.818 274.41C109.813 274.406 109.809 274.403 109.807 274.401C109.806 274.4 109.805 274.4 109.805 274.399C109.804 274.399 109.804 274.398 109.803 274.398C109.802 274.397 109.803 274.398 109.805 274.399L109.397 274.895L108.99 275.39C108.998 275.396 109.005 275.402 109.008 275.404C109.009 275.405 109.01 275.406 109.01 275.406C109.011 275.406 109.011 275.406 109.011 275.407C109.011 275.407 109.011 275.407 109.011 275.407C109.011 275.407 109.011 275.407 109.011 275.407C109.011 275.406 109.01 275.406 109.01 275.406C109.009 275.405 109.008 275.404 109.006 275.403L109.412 274.906ZM109.397 274.895L109.806 274.4C109.79 274.387 109.776 274.375 109.751 274.355L109.342 274.849L108.932 275.342C108.957 275.362 108.98 275.382 108.989 275.389L109.397 274.895ZM109.342 274.849L109.751 274.355C109.703 274.315 109.632 274.255 109.535 274.175L109.124 274.667L108.713 275.159C108.808 275.239 108.882 275.301 108.933 275.342L109.342 274.849ZM109.124 274.667L109.535 274.175C109.344 274.015 109.06 273.777 108.692 273.464L108.276 273.953L107.861 274.442C108.233 274.758 108.52 274.998 108.713 275.159L109.124 274.667ZM108.276 273.953L108.692 273.464C107.953 272.837 106.87 271.906 105.492 270.693L105.068 271.175L104.645 271.656C106.029 272.874 107.117 273.81 107.861 274.442L108.276 273.953ZM105.068 271.175L105.492 270.693C102.735 268.267 98.7963 264.709 94.0704 260.185L93.627 260.648L93.1835 261.112C97.9238 265.649 101.876 269.219 104.645 271.656L105.068 271.175ZM93.627 260.648L94.0704 260.185C84.6183 251.138 72.0147 238.226 59.4121 222.767L58.915 223.172L58.418 223.577C71.0623 239.088 83.7043 252.039 93.1835 261.112L93.627 260.648ZM58.915 223.172L59.4121 222.767C34.2065 191.847 9.00082 150.735 9.00069 109.97H8.35938H7.71806C7.71819 151.205 33.1782 192.615 58.418 223.577L58.915 223.172ZM8.35938 109.97H9.00069C9.00082 82.8713 19.7259 56.8817 38.8166 37.7202L38.3623 37.2676L37.908 36.8149C18.5773 56.2174 7.71818 82.5326 7.71806 109.97H8.35938ZM38.3623 37.2676L38.8166 37.7202C57.9074 18.5587 83.8005 7.79369 110.799 7.79366V7.15234V6.51103C83.4588 6.51105 57.2389 17.4124 37.908 36.8149L38.3623 37.2676ZM114.267 270.722L113.851 270.234C112.926 271.022 112.128 271.687 111.477 272.23L111.887 272.723L112.297 273.216C112.95 272.672 113.752 272.003 114.683 271.21L114.267 270.722ZM111.887 272.723L112.297 273.216C112.95 272.672 113.752 272.003 114.683 271.21L114.267 270.722L113.851 270.234C112.926 271.022 112.128 271.687 111.477 272.23L111.887 272.723ZM110.312 52.9238V52.2825C78.8568 52.2827 53.3569 77.7826 53.3567 109.238H53.998H54.6394C54.6395 78.4909 79.5652 53.5653 110.312 53.5651V52.9238ZM53.998 109.238H53.3567C53.3567 140.694 78.8567 166.195 110.312 166.195V165.554V164.912C79.5651 164.912 54.6394 139.986 54.6394 109.238H53.998ZM110.312 165.554V166.195C141.768 166.195 167.269 140.694 167.269 109.238H166.628H165.987C165.987 139.986 141.06 164.912 110.312 164.912V165.554ZM166.628 109.238H167.269C167.269 77.7824 141.768 52.2825 110.312 52.2825V52.9238V53.5651C141.06 53.5651 165.986 78.4908 165.987 109.238H166.628ZM39.6748 36.8691L39.2259 36.4112C38.9364 36.695 38.6485 36.9806 38.3621 37.2681L38.8164 37.7207L39.2707 38.1733C39.5536 37.8894 39.838 37.6073 40.1237 37.3271L39.6748 36.8691ZM38.8164 37.7207V38.362H38.8174V37.7207V37.0794H38.8164V37.7207ZM38.8174 37.7207L39.2717 38.1733C39.555 37.889 39.8386 37.6066 40.1237 37.3271L39.6748 36.8691L39.2259 36.4111C38.936 36.6953 38.6487 36.9814 38.3631 37.2681L38.8174 37.7207ZM41.5449 35.082V35.7233H41.5459V35.082V34.4407H41.5449V35.082ZM41.5459 35.082V34.4407H41.5449V35.082V35.7233H41.5459V35.082ZM47.2578 30.1416L46.8566 29.6413C46.1994 30.1683 45.5487 30.7043 44.9039 31.248L45.3174 31.7383L45.7308 32.2285C46.368 31.6912 47.0105 31.162 47.659 30.6419L47.2578 30.1416ZM45.3174 31.7383L45.7276 32.2312L46.6944 31.4265L46.2842 30.9336L45.8739 30.4407L44.9071 31.2454L45.3174 31.7383ZM46.2842 30.9336L46.6915 31.4289C47.0136 31.164 47.3356 30.9013 47.659 30.6419L47.2578 30.1416L46.8566 29.6413C46.5276 29.9051 46.2013 30.1714 45.8768 30.4383L46.2842 30.9336ZM40.5801 35.9941L40.1368 35.5307C39.8706 35.7852 39.6056 36.0414 39.3418 36.2991L39.79 36.7578L40.2382 37.2165C40.4987 36.962 40.7604 36.7091 41.0233 36.4576L40.5801 35.9941ZM39.79 36.7578L40.2382 37.2165C40.4987 36.962 40.7604 36.7091 41.0233 36.4576L40.5801 35.9941L40.1368 35.5306C39.8706 35.7852 39.6056 36.0414 39.3418 36.2991L39.79 36.7578ZM40.5801 35.9941L41.0233 36.4576C41.0368 36.4447 41.0494 36.4322 41.0569 36.4248C41.0658 36.4159 41.0696 36.4121 41.0728 36.4091L40.6299 35.9453L40.187 35.4815C40.1733 35.4946 40.1607 35.5071 40.1531 35.5147C40.1441 35.5236 40.1401 35.5275 40.1368 35.5306L40.5801 35.9941ZM40.6299 35.9453L40.187 35.4815C40.1733 35.4946 40.1607 35.5071 40.1531 35.5146C40.1441 35.5236 40.1401 35.5275 40.1368 35.5307L40.5801 35.9941L41.0233 36.4576C41.0368 36.4447 41.0494 36.4322 41.0569 36.4248C41.0658 36.4159 41.0697 36.4121 41.0728 36.4091L40.6299 35.9453Z" fill="#082422" mask="url(#path-1-outside-1_14997_18411)"/>
<mask id="path-3-outside-2_14997_18411" maskUnits="userSpaceOnUse" x="-0.640625" y="-1.05859" width="207" height="270" fill="black">
<rect fill="white" x="-0.640625" y="-1.05859" width="207" height="270"/>
<path d="M102.224 267.706C101.987 267.894 101.65 267.891 101.417 267.699L101.824 267.204L102.224 267.706ZM102.799 -0.0585938C129.968 -0.0585796 156.024 10.7745 175.235 30.0566C194.446 49.3387 205.238 75.4909 205.238 102.759C205.238 144.386 179.414 185.648 153.702 216.435C140.834 231.842 127.967 244.657 118.318 253.62C113.494 258.102 109.472 261.622 106.656 264.021C105.248 265.221 104.141 266.141 103.386 266.762C103.008 267.072 102.717 267.308 102.521 267.466C102.424 267.545 102.35 267.604 102.3 267.645C102.275 267.664 102.256 267.68 102.243 267.69C102.237 267.695 102.232 267.7 102.229 267.702C102.227 267.703 102.225 267.704 102.225 267.705L101.824 267.204L100.954 266.473C101.524 266.955 101.824 267.204 101.824 267.204C101.426 267.688 101.416 267.699 101.415 267.698C101.414 267.698 101.413 267.696 101.412 267.695C101.409 267.693 101.404 267.689 101.397 267.684C101.385 267.673 101.366 267.658 101.342 267.638C101.293 267.597 101.22 267.536 101.124 267.456C100.932 267.296 100.647 267.057 100.276 266.742C99.5353 266.113 98.4496 265.18 97.0684 263.964C94.3056 261.532 90.3602 257.968 85.627 253.438C76.1613 244.377 63.5386 231.446 50.915 215.961C25.6923 185.02 0.359635 143.759 0.359375 102.759C0.359375 75.4909 11.1516 49.3387 30.3623 30.0566C49.5732 10.7745 75.6295 -0.0585823 102.799 -0.0585938ZM97.7061 263.668C98.2964 264.187 98.8289 264.652 99.3008 265.06C98.8289 264.652 98.2964 264.187 97.7061 263.668ZM95.5332 261.739C96.136 262.279 96.7007 262.781 97.2256 263.244C96.7007 262.781 96.136 262.279 95.5332 261.739ZM94.2842 260.617C94.5188 260.829 94.7485 261.037 94.9736 261.239C94.7485 261.037 94.5188 260.829 94.2842 260.617ZM102.314 45C71.2129 45.0002 46.0002 70.2129 46 101.314C46 132.416 71.2128 157.63 102.314 157.63C133.416 157.63 158.63 132.416 158.63 101.314C158.63 70.2128 133.416 45 102.314 45ZM47.3623 17.0615C47.2704 17.1214 47.1796 17.183 47.0879 17.2432C47.5275 16.9546 47.9684 16.6682 48.4121 16.3867L47.3623 17.0615Z"/>
</mask>
<path d="M102.224 267.706C101.987 267.894 101.65 267.891 101.417 267.699L101.824 267.204L102.224 267.706ZM102.799 -0.0585938C129.968 -0.0585796 156.024 10.7745 175.235 30.0566C194.446 49.3387 205.238 75.4909 205.238 102.759C205.238 144.386 179.414 185.648 153.702 216.435C140.834 231.842 127.967 244.657 118.318 253.62C113.494 258.102 109.472 261.622 106.656 264.021C105.248 265.221 104.141 266.141 103.386 266.762C103.008 267.072 102.717 267.308 102.521 267.466C102.424 267.545 102.35 267.604 102.3 267.645C102.275 267.664 102.256 267.68 102.243 267.69C102.237 267.695 102.232 267.7 102.229 267.702C102.227 267.703 102.225 267.704 102.225 267.705L101.824 267.204L100.954 266.473C101.524 266.955 101.824 267.204 101.824 267.204C101.426 267.688 101.416 267.699 101.415 267.698C101.414 267.698 101.413 267.696 101.412 267.695C101.409 267.693 101.404 267.689 101.397 267.684C101.385 267.673 101.366 267.658 101.342 267.638C101.293 267.597 101.22 267.536 101.124 267.456C100.932 267.296 100.647 267.057 100.276 266.742C99.5353 266.113 98.4496 265.18 97.0684 263.964C94.3056 261.532 90.3602 257.968 85.627 253.438C76.1613 244.377 63.5386 231.446 50.915 215.961C25.6923 185.02 0.359635 143.759 0.359375 102.759C0.359375 75.4909 11.1516 49.3387 30.3623 30.0566C49.5732 10.7745 75.6295 -0.0585823 102.799 -0.0585938ZM97.7061 263.668C98.2964 264.187 98.8289 264.652 99.3008 265.06C98.8289 264.652 98.2964 264.187 97.7061 263.668ZM95.5332 261.739C96.136 262.279 96.7007 262.781 97.2256 263.244C96.7007 262.781 96.136 262.279 95.5332 261.739ZM94.2842 260.617C94.5188 260.829 94.7485 261.037 94.9736 261.239C94.7485 261.037 94.5188 260.829 94.2842 260.617ZM102.314 45C71.2129 45.0002 46.0002 70.2129 46 101.314C46 132.416 71.2128 157.63 102.314 157.63C133.416 157.63 158.63 132.416 158.63 101.314C158.63 70.2128 133.416 45 102.314 45ZM47.3623 17.0615C47.2704 17.1214 47.1796 17.183 47.0879 17.2432C47.5275 16.9546 47.9684 16.6682 48.4121 16.3867L47.3623 17.0615Z" fill="#2BF2F1"/>
<path d="M102.224 267.706L102.622 268.208C102.756 268.102 102.841 267.948 102.861 267.779C102.88 267.61 102.831 267.44 102.725 267.307L102.224 267.706ZM101.417 267.699L100.922 267.292C100.814 267.423 100.762 267.592 100.779 267.762C100.795 267.931 100.878 268.087 101.01 268.195L101.417 267.699ZM101.824 267.204L102.325 266.804C102.299 266.771 102.269 266.74 102.237 266.713L101.824 267.204ZM102.799 -0.0585938V-0.699912V-0.699912V-0.0585938ZM175.235 30.0566L175.69 29.604V29.604L175.235 30.0566ZM205.238 102.759L205.88 102.759V102.759H205.238ZM153.702 216.435L154.194 216.846V216.846L153.702 216.435ZM118.318 253.62L118.755 254.09V254.09L118.318 253.62ZM106.656 264.021L106.24 263.533V263.533L106.656 264.021ZM103.386 266.762L103.793 267.257H103.793L103.386 266.762ZM102.521 267.466L102.119 266.967L102.119 266.967L102.521 267.466ZM102.3 267.645L102.701 268.145H102.701L102.3 267.645ZM102.243 267.69L101.843 267.189L101.843 267.189L102.243 267.69ZM102.229 267.702L102.627 268.205L102.629 268.203L102.229 267.702ZM102.225 267.705L101.724 268.105C101.943 268.38 102.344 268.427 102.621 268.21L102.225 267.705ZM100.954 266.473L101.367 265.982C101.096 265.754 100.692 265.789 100.464 266.059C100.236 266.33 100.27 266.734 100.54 266.962L100.954 266.473ZM101.415 267.698L101.006 268.192C101.056 268.234 101.112 268.267 101.172 268.292L101.415 267.698ZM101.412 267.695L101.825 267.204L101.82 267.2L101.412 267.695ZM101.397 267.684L100.989 268.178L100.99 268.179L101.397 267.684ZM101.342 267.638L101.751 267.144L101.751 267.144L101.342 267.638ZM101.124 267.456L101.535 266.964H101.535L101.124 267.456ZM100.276 266.742L99.8612 267.231L99.8612 267.231L100.276 266.742ZM97.0684 263.964L96.6446 264.445H96.6447L97.0684 263.964ZM85.627 253.438L85.1835 253.901V253.901L85.627 253.438ZM50.915 215.961L50.418 216.366V216.366L50.915 215.961ZM0.359375 102.759H-0.281943V102.759L0.359375 102.759ZM30.3623 30.0566L29.908 29.604L29.908 29.604L30.3623 30.0566ZM97.7061 263.668L98.1293 263.186C97.8632 262.952 97.458 262.979 97.2243 263.245C96.9905 263.511 97.0167 263.916 97.2828 264.15L97.7061 263.668ZM99.3008 265.06L98.8813 265.545C99.1493 265.776 99.5543 265.747 99.7859 265.479C100.018 265.211 99.9882 264.806 99.7202 264.574L99.3008 265.06ZM95.5332 261.739L95.9609 261.261C95.697 261.025 95.2915 261.048 95.0553 261.312C94.8191 261.576 94.8416 261.981 95.1055 262.217L95.5332 261.739ZM97.2256 263.244L96.8013 263.725C97.0669 263.959 97.4721 263.934 97.7065 263.668C97.9408 263.403 97.9155 262.998 97.6499 262.763L97.2256 263.244ZM94.7142 260.141C94.4514 259.904 94.0459 259.924 93.8084 260.187C93.5709 260.45 93.5914 260.855 93.8542 261.093L94.2842 260.617L94.7142 260.141ZM94.5449 261.716C94.8083 261.953 95.2138 261.931 95.4506 261.668C95.6874 261.405 95.6658 260.999 95.4024 260.762L94.9736 261.239L94.5449 261.716ZM102.314 45V44.3587V44.3587V45ZM46 101.314H45.3587V101.314H46ZM102.314 157.63V158.271V158.271V157.63ZM158.63 101.314H159.271V101.314H158.63ZM47.3623 17.0615L47.0155 16.522L47.0122 16.5242L47.3623 17.0615ZM46.736 16.707C46.4399 16.9013 46.3574 17.2989 46.5517 17.595C46.7461 17.8912 47.1437 17.9737 47.4398 17.7793L47.0879 17.2432L46.736 16.707ZM48.4121 16.3867L48.7589 16.9262C49.0562 16.7351 49.1428 16.3395 48.9526 16.0416C48.7624 15.7437 48.367 15.6558 48.0686 15.8452L48.4121 16.3867ZM102.224 267.706L101.825 267.204L101.824 267.204L101.417 267.699L101.01 268.195C101.477 268.578 102.149 268.584 102.622 268.208L102.224 267.706ZM101.417 267.699L101.912 268.107L102.32 267.611L101.824 267.204L101.329 266.797L100.922 267.292L101.417 267.699ZM101.824 267.204L101.322 267.603L101.722 268.105L102.224 267.706L102.725 267.307L102.326 266.805L101.824 267.204ZM102.799 -0.0585938V0.582724C129.797 0.582738 155.69 11.3477 174.781 30.5093L175.235 30.0566L175.69 29.604C156.359 10.2013 130.139 -0.699897 102.799 -0.699912V-0.0585938ZM175.235 30.0566L174.781 30.5093C193.872 49.6709 204.597 75.6603 204.597 102.759H205.238H205.88C205.88 75.3216 195.02 49.0065 175.69 29.604L175.235 30.0566ZM205.238 102.759L204.597 102.759C204.597 144.148 178.903 185.26 153.21 216.023L153.702 216.435L154.194 216.846C179.925 186.037 205.879 144.625 205.88 102.759L205.238 102.759ZM153.702 216.435L153.21 216.023C140.363 231.405 127.517 244.201 117.882 253.15L118.318 253.62L118.755 254.09C128.418 245.114 141.305 232.279 154.194 216.846L153.702 216.435ZM118.318 253.62L117.882 253.15C113.065 257.625 109.05 261.139 106.24 263.533L106.656 264.021L107.072 264.51C109.895 262.104 113.923 258.578 118.755 254.09L118.318 253.62ZM106.656 264.021L106.24 263.533C104.836 264.73 103.731 265.648 102.979 266.266L103.386 266.762L103.793 267.257C104.551 266.634 105.661 265.712 107.072 264.51L106.656 264.021ZM103.386 266.762L102.979 266.266C102.603 266.575 102.313 266.81 102.119 266.967L102.521 267.466L102.924 267.965C103.121 267.806 103.413 267.569 103.793 267.257L103.386 266.762ZM102.521 267.466L102.119 266.967C102.021 267.046 101.948 267.105 101.899 267.144L102.3 267.645L102.701 268.145C102.752 268.104 102.827 268.043 102.924 267.965L102.521 267.466ZM102.3 267.645L101.899 267.144C101.834 267.196 101.883 267.157 101.843 267.189L102.243 267.69L102.643 268.192C102.653 268.184 102.664 268.174 102.672 268.168C102.681 268.161 102.691 268.153 102.701 268.145L102.3 267.645ZM102.243 267.69L101.843 267.189C101.84 267.192 101.836 267.195 101.834 267.197C101.831 267.199 101.83 267.2 101.828 267.201L102.229 267.702L102.629 268.203C102.631 268.202 102.633 268.199 102.636 268.198C102.638 268.196 102.641 268.194 102.643 268.192L102.243 267.69ZM102.229 267.702L101.83 267.199C101.835 267.196 101.839 267.193 101.842 267.191C101.844 267.189 101.847 267.187 101.847 267.187C101.847 267.186 101.848 267.186 101.847 267.186C101.847 267.187 101.846 267.187 101.845 267.188C101.844 267.189 101.842 267.19 101.84 267.192C101.837 267.194 101.833 267.197 101.829 267.201L102.225 267.705L102.621 268.21C102.616 268.213 102.612 268.216 102.61 268.217C102.608 268.219 102.606 268.22 102.606 268.221C102.605 268.222 102.604 268.222 102.604 268.222C102.604 268.222 102.604 268.222 102.604 268.222C102.604 268.222 102.604 268.222 102.605 268.222C102.605 268.222 102.605 268.221 102.605 268.221C102.607 268.22 102.609 268.218 102.613 268.215C102.616 268.213 102.621 268.209 102.627 268.205L102.229 267.702ZM102.225 267.705L102.726 267.305L102.325 266.804L101.824 267.204L101.323 267.604L101.724 268.105L102.225 267.705ZM101.824 267.204L102.237 266.713L101.367 265.982L100.954 266.473L100.541 266.964L101.412 267.695L101.824 267.204ZM100.954 266.473L100.54 266.962C100.826 267.204 101.044 267.387 101.191 267.511C101.264 267.572 101.32 267.619 101.358 267.65C101.376 267.666 101.39 267.677 101.4 267.685C101.405 267.689 101.408 267.692 101.411 267.694C101.412 267.695 101.413 267.696 101.413 267.697C101.414 267.697 101.414 267.697 101.414 267.697C101.414 267.697 101.414 267.697 101.414 267.697C101.414 267.697 101.414 267.697 101.414 267.697C101.414 267.697 101.414 267.697 101.414 267.697C101.414 267.697 101.414 267.697 101.824 267.204C102.234 266.711 102.234 266.711 102.234 266.711C102.234 266.711 102.234 266.711 102.234 266.711C102.234 266.711 102.234 266.711 102.234 266.711C102.234 266.711 102.234 266.711 102.234 266.711C102.234 266.711 102.233 266.71 102.233 266.71C102.233 266.71 102.232 266.709 102.231 266.708C102.228 266.706 102.225 266.703 102.22 266.7C102.211 266.692 102.198 266.68 102.179 266.665C102.143 266.635 102.088 266.589 102.015 266.528C101.869 266.406 101.652 266.223 101.368 265.983L100.954 266.473ZM101.824 267.204L101.329 266.797C101.13 267.039 101.029 267.161 100.978 267.223C100.951 267.255 100.941 267.267 100.938 267.271C100.934 267.275 100.943 267.265 100.956 267.251C100.958 267.249 100.987 267.217 101.031 267.185C101.051 267.17 101.111 267.126 101.201 267.094C101.25 267.076 101.32 267.059 101.404 267.057C101.492 267.055 101.579 267.072 101.658 267.105L101.415 267.698L101.172 268.292C101.352 268.365 101.519 268.342 101.63 268.303C101.719 268.271 101.78 268.226 101.8 268.211C101.844 268.178 101.874 268.146 101.877 268.143C101.893 268.127 101.906 268.112 101.909 268.108C101.921 268.094 101.938 268.074 101.964 268.042C102.018 267.978 102.121 267.853 102.32 267.611L101.824 267.204ZM101.415 267.698L101.824 267.204C101.84 267.217 101.852 267.229 101.86 267.236C101.868 267.244 101.875 267.251 101.878 267.255C101.882 267.259 101.885 267.262 101.886 267.263C101.886 267.263 101.886 267.264 101.886 267.263C101.886 267.263 101.886 267.263 101.886 267.263C101.886 267.263 101.886 267.263 101.885 267.262C101.883 267.26 101.876 267.252 101.867 267.243C101.857 267.233 101.843 267.22 101.825 267.204L101.412 267.695L100.999 268.186C100.982 268.172 100.968 268.159 100.959 268.149C100.95 268.14 100.944 268.133 100.942 268.132C100.942 268.131 100.941 268.131 100.942 268.131C100.942 268.131 100.942 268.131 100.942 268.131C100.942 268.131 100.942 268.132 100.943 268.132C100.944 268.133 100.947 268.136 100.951 268.141C100.955 268.145 100.961 268.151 100.97 268.16C100.978 268.168 100.99 268.179 101.006 268.192L101.415 267.698ZM101.412 267.695L101.82 267.2C101.814 267.196 101.81 267.192 101.808 267.191C101.807 267.19 101.806 267.189 101.805 267.188C101.804 267.188 101.804 267.187 101.803 267.187C101.802 267.186 101.803 267.187 101.805 267.188L101.397 267.684L100.99 268.179C100.998 268.186 101.005 268.191 101.009 268.194C101.009 268.194 101.01 268.195 101.011 268.195C101.011 268.196 101.011 268.196 101.011 268.196C101.011 268.196 101.01 268.195 101.009 268.194C101.008 268.194 101.007 268.192 101.005 268.191L101.412 267.695ZM101.397 267.684L101.806 267.189C101.789 267.175 101.776 267.165 101.751 267.144L101.342 267.638L100.932 268.131C100.956 268.151 100.981 268.171 100.989 268.178L101.397 267.684ZM101.342 267.638L101.751 267.144C101.703 267.104 101.632 267.045 101.535 266.964L101.124 267.456L100.713 267.948C100.808 268.028 100.882 268.09 100.933 268.132L101.342 267.638ZM101.124 267.456L101.535 266.964C101.344 266.804 101.06 266.567 100.692 266.253L100.276 266.742L99.8612 267.231C100.234 267.547 100.52 267.787 100.713 267.948L101.124 267.456ZM100.276 266.742L100.692 266.253C99.9532 265.626 98.8704 264.696 97.4921 263.482L97.0684 263.964L96.6447 264.445C98.0288 265.663 99.1173 266.599 99.8612 267.231L100.276 266.742ZM97.0684 263.964L97.4921 263.482C94.7352 261.056 90.7964 257.498 86.0704 252.974L85.627 253.438L85.1835 253.901C89.9239 258.438 93.8759 262.008 96.6446 264.445L97.0684 263.964ZM85.627 253.438L86.0704 252.974C76.6183 243.927 64.0148 231.015 51.4121 215.556L50.915 215.961L50.418 216.366C63.0624 231.877 75.7043 244.828 85.1835 253.901L85.627 253.438ZM50.915 215.961L51.4121 215.556C26.2065 184.636 1.00095 143.524 1.00069 102.759L0.359375 102.759L-0.281943 102.759C-0.281681 143.994 25.1782 185.404 50.418 216.366L50.915 215.961ZM0.359375 102.759H1.00069C1.00069 75.6603 11.7259 49.6709 30.8166 30.5093L30.3623 30.0566L29.908 29.604C10.5773 49.0065 -0.281943 75.3216 -0.281943 102.759H0.359375ZM30.3623 30.0566L30.8166 30.5093C49.9074 11.3477 75.8004 0.582735 102.799 0.582724V-0.0585938V-0.699912C75.4587 -0.6999 49.2389 10.2013 29.908 29.604L30.3623 30.0566ZM97.7061 263.668L97.2828 264.15C97.8739 264.669 98.4078 265.135 98.8813 265.545L99.3008 265.06L99.7202 264.574C99.2501 264.168 98.7189 263.704 98.1293 263.186L97.7061 263.668ZM99.3008 265.06L99.7202 264.574C99.2501 264.168 98.719 263.704 98.1293 263.186L97.7061 263.668L97.2828 264.15C97.8739 264.669 98.4078 265.135 98.8813 265.545L99.3008 265.06ZM95.5332 261.739L95.1055 262.217C95.7092 262.757 96.275 263.261 96.8013 263.725L97.2256 263.244L97.6499 262.763C97.1263 262.301 96.5628 261.8 95.9609 261.261L95.5332 261.739ZM97.2256 263.244L97.6499 262.763C97.1263 262.301 96.5628 261.8 95.9609 261.261L95.5332 261.739L95.1055 262.217C95.7092 262.757 96.275 263.261 96.8013 263.725L97.2256 263.244ZM94.2842 260.617L93.8542 261.093C94.0886 261.305 94.319 261.513 94.5449 261.716L94.9736 261.239L95.4024 260.762C95.178 260.561 94.949 260.354 94.7142 260.141L94.2842 260.617ZM94.9736 261.239L95.4024 260.762C95.178 260.561 94.949 260.354 94.7142 260.141L94.2842 260.617L93.8542 261.093C94.0886 261.305 94.319 261.513 94.5449 261.716L94.9736 261.239ZM102.314 45V44.3587C70.8587 44.3589 45.3589 69.8587 45.3587 101.314H46H46.6413C46.6415 70.5671 71.5671 45.6415 102.314 45.6413V45ZM46 101.314H45.3587C45.3587 132.77 70.8586 158.271 102.314 158.271V157.63V156.989C71.567 156.988 46.6413 132.062 46.6413 101.314H46ZM102.314 157.63V158.271C133.77 158.271 159.271 132.77 159.271 101.314H158.63H157.989C157.989 132.062 133.062 156.989 102.314 156.989V157.63ZM158.63 101.314H159.271C159.271 69.8586 133.77 44.3587 102.314 44.3587V45V45.6413C133.062 45.6413 157.988 70.567 157.989 101.314H158.63ZM47.3623 17.0615L47.0122 16.5242C46.9291 16.5784 46.8071 16.6604 46.736 16.707L47.0879 17.2432L47.4398 17.7793C47.5521 17.7056 47.6118 17.6644 47.7124 17.5988L47.3623 17.0615ZM47.0879 17.2432L47.4398 17.7793C47.8779 17.4918 48.3157 17.2073 48.7556 16.9283L48.4121 16.3867L48.0686 15.8452C47.621 16.1291 47.1772 16.4175 46.736 16.707L47.0879 17.2432ZM48.4121 16.3867L48.0653 15.8472L47.0155 16.522L47.3623 17.0615L47.7091 17.601L48.7589 16.9262L48.4121 16.3867Z" fill="#082422" mask="url(#path-3-outside-2_14997_18411)"/>
</g>
<defs>
<clipPath id="clip0_14997_18411">
<rect width="213" height="275" fill="white"/>
</clipPath>
</defs>
</svg>
