<svg width="570" height="313" viewBox="0 0 570 313" fill="none" xmlns="http://www.w3.org/2000/svg">
<g clip-path="url(#clip0_14997_18410)">
<path d="M153.366 281.91L0 302.028L53.0038 224.908L435.282 208.143L549.74 302.028L400.888 281.91L277.409 296.999L153.366 281.91Z" fill="#082422" fill-opacity="0.5"/>
<path d="M532.308 51.0195L569.609 312.524L414.582 261.898L414.48 261.865L414.379 261.899L285 306.225L155.621 261.899L155.52 261.865L155.418 261.898L0.389648 312.524L37.6914 51.0195L172.947 0.342773L284.882 44.6592L285 44.7061L285.118 44.6592L397.052 0.342773L532.308 51.0195Z" fill="white" stroke="#082422" stroke-width="0.641318" stroke-miterlimit="10"/>
<path d="M172.479 17.2861L213.213 33.6191L213.366 33.6807L213.405 33.8398L227.827 92.3223L227.972 92.9102L227.404 92.6992L168.94 71.0254L168.934 71.0283H168.933L47 111.668L46.5137 111.83L46.5801 111.321L53.0625 62.168L53.0879 61.9766L53.2676 61.9092L172.247 17.2842L172.364 17.2402L172.479 17.2861Z" fill="#60D06F" stroke="#082422" stroke-width="0.641318" stroke-miterlimit="10"/>
<path d="M166.359 88.8096L166.421 88.8418L214.738 106.666L215.51 106.951L214.749 107.264L163.886 128.166H163.884L159.938 129.76L159.933 129.762L140.989 136.991L100.445 194.141L100.387 194.224L100.291 194.258L31.7705 218.345L31.2783 218.519L31.3457 218.001L42.9131 129.809L42.9395 129.609L43.1299 129.546L166.114 88.791L166.24 88.749L166.359 88.8096Z" fill="#2BF2F1" stroke="#082422" stroke-width="0.641318" stroke-miterlimit="10"/>
<path d="M234.054 119.504L244.988 169.455L284.964 183.202L284.974 183.206L285.161 183.276L343.16 159.609L343.588 159.436L343.603 159.896L345.132 207.866L345.139 208.089L344.932 208.173L284.996 232.498L284.852 232.571L284.726 232.635L284.594 232.585L241.232 216.219L214.945 265.521L214.815 265.765L214.556 265.673L157.116 245.426L23.5547 289.852L23.0684 290.014L23.1348 289.506L30.0557 237.218L30.082 237.021L30.2686 236.956L113.789 207.992L154.182 151.16L154.239 151.08L154.331 151.046L163.393 147.652L167.253 146.188L233.62 119.275L233.973 119.132L234.054 119.504Z" fill="#008BD6" stroke="#082422" stroke-width="0.641318" stroke-miterlimit="10"/>
<path d="M398.331 17.2842L473.943 45.8496L474.411 46.0273L474.055 46.3779L434.834 85.0059L434.689 85.1484L434.499 85.0791L401.852 73.1543L342.275 96.6348L343.646 140.164L343.652 140.387L343.446 140.471L285.664 164.25L285.364 164.4L285.244 164.462L285.115 164.418L262.371 156.554L262.203 156.495L262.163 156.322L249.28 100.153V100.152L234.26 42.2598L234.103 41.6523L234.687 41.8809L285.524 61.6875L398.1 17.2861L398.215 17.2402L398.331 17.2842Z" fill="#60D06F" stroke="#082422" stroke-width="0.641318" stroke-miterlimit="10"/>
<path d="M494.35 53.6289L517.063 62.0586L517.244 62.126L517.27 62.3184L532.777 180.49L532.848 181.028L532.343 180.831L464.503 154.314L464.354 154.257L464.311 154.103L448.879 98.7715L448.828 98.5898L448.962 98.457L494.012 53.7021L494.157 53.5576L494.35 53.6289Z" fill="#008BD6" stroke="#082422" stroke-width="0.641318" stroke-miterlimit="10"/>
<path d="M403.015 92.3135L429.418 101.858L429.574 101.915L429.618 102.076L445.185 159.537L445.213 159.641L445.173 159.741L424.025 211.993L460.014 260.805L460.618 261.625L459.653 261.299L412.903 245.516L285.535 289.855L285.431 289.892L285.325 289.855L234.466 272.383L234.111 272.261L234.287 271.93L251.494 239.408L251.626 239.159L251.89 239.258L285.531 251.8L285.559 251.806L365.604 219.523L362.753 152.169L362.485 146.28V146.279L360.921 108.947L360.912 108.719L361.125 108.635L402.694 92.3633L402.762 92.3291L402.885 92.2666L403.015 92.3135Z" fill="#2BF2F1" stroke="#082422" stroke-width="0.641318" stroke-miterlimit="10"/>
<path d="M462.232 172.024L536.025 200.327L536.203 200.396L536.229 200.584L548.033 289.507L548.101 290.012L547.616 289.854L492.896 271.977L492.801 271.945L492.74 271.865L446.596 210.858L446.486 210.715L446.554 210.547L461.819 172.206L461.937 171.911L462.232 172.024Z" fill="#60D06F" stroke="#082422" stroke-width="0.641318" stroke-miterlimit="10"/>
<path opacity="0.2" d="M283.824 44.4259L173.196 0L155.984 262.702L283.824 307.128V44.4259Z" fill="#082422"/>
<path opacity="0.2" d="M532.426 50.6323L396.422 0L413.919 262.357L570.002 312.989L532.426 50.6323Z" fill="#082422"/>
<mask id="mask0_14997_18410" style="mask-type:alpha" maskUnits="userSpaceOnUse" x="0" y="0" width="570" height="313">
<path d="M532.308 51.0254L569.609 312.53L414.582 261.904L414.48 261.871L414.379 261.905L285 306.23L155.621 261.905L155.52 261.871L155.418 261.904L0.389648 312.53L37.6914 51.0254L172.947 0.348633L284.882 44.665L285 44.7119L285.118 44.665L397.052 0.348633L532.308 51.0254Z" fill="white" stroke="#082422" stroke-width="0.641318" stroke-miterlimit="10"/>
</mask>
<g mask="url(#mask0_14997_18410)">
<path opacity="0.2" d="M297.188 101.321C296.952 101.509 296.616 101.507 296.383 101.315L296.789 100.819L297.188 101.321ZM297.901 -203.434C328.866 -203.434 358.563 -191.107 380.458 -169.167C402.353 -147.227 414.653 -117.469 414.653 -86.4414C414.653 -39.071 385.217 7.89496 355.893 42.9492C341.218 60.4911 326.546 75.0818 315.542 85.2861C310.04 90.3886 305.454 94.3958 302.242 97.1279C300.637 98.494 299.374 99.5416 298.513 100.248C298.082 100.601 297.751 100.869 297.528 101.049C297.417 101.138 297.332 101.206 297.275 101.252C297.247 101.275 297.224 101.292 297.21 101.304C297.203 101.309 297.198 101.314 297.194 101.317C297.193 101.319 297.19 101.32 297.189 101.32L296.789 100.819C296.382 101.315 296.382 101.314 296.381 101.313C296.38 101.313 296.379 101.312 296.377 101.311C296.373 101.308 296.367 101.303 296.36 101.297C296.346 101.285 296.325 101.267 296.297 101.244C296.241 101.198 296.158 101.129 296.049 101.038C295.83 100.856 295.505 100.584 295.083 100.226C294.238 99.5091 293 98.4466 291.425 97.0625C288.274 94.2943 283.776 90.2371 278.378 85.0791C267.583 74.7639 253.189 60.0414 238.793 42.4111C210.026 7.18063 181.148 -39.785 181.148 -86.4414C181.149 -117.469 193.45 -147.227 215.345 -169.167C237.24 -191.107 266.937 -203.434 297.901 -203.434ZM287.311 -164.012C249.203 -164.012 218.31 -133.119 218.31 -95.0107C218.31 -56.903 249.203 -26.0107 287.311 -26.0107C325.418 -26.0109 356.31 -56.9031 356.311 -95.0107C356.311 -133.118 325.418 -164.012 287.311 -164.012ZM412.284 -106.442C412.366 -105.974 412.446 -105.505 412.521 -105.035C412.37 -105.975 412.206 -106.912 412.031 -107.847L412.284 -106.442ZM411.169 -112.033C411.273 -111.57 411.375 -111.106 411.474 -110.642L411.17 -112.033C411.066 -112.496 410.958 -112.958 410.849 -113.42L411.169 -112.033ZM186.405 -118.919C186.141 -118.009 185.888 -117.096 185.646 -116.18V-116.179C185.888 -117.095 186.141 -118.008 186.405 -118.918V-118.919ZM192.325 -134.869C192.129 -134.439 191.935 -134.008 191.744 -133.575L192.326 -134.869C192.523 -135.299 192.721 -135.729 192.923 -136.156L192.325 -134.869ZM196.144 -142.479C195.688 -141.649 195.243 -140.813 194.809 -139.973L195.469 -141.229C195.736 -141.731 196.007 -142.23 196.281 -142.728C196.236 -142.645 196.189 -142.562 196.144 -142.479ZM197.091 -144.169C196.858 -143.76 196.627 -143.349 196.398 -142.938C196.627 -143.349 196.858 -143.76 197.091 -144.169ZM197.54 -144.954C197.454 -144.806 197.37 -144.657 197.285 -144.509C197.504 -144.889 197.724 -145.268 197.947 -145.646C197.811 -145.415 197.674 -145.185 197.54 -144.954ZM198.998 -147.396C198.711 -146.927 198.428 -146.456 198.147 -145.984C198.428 -146.456 198.711 -146.927 198.998 -147.396ZM380.004 -168.714L378.994 -169.714L378.978 -169.729C379.322 -169.393 379.664 -169.055 380.004 -168.714ZM221.04 -173.651C220.832 -173.468 220.626 -173.282 220.42 -173.097C220.747 -173.39 221.075 -173.681 221.404 -173.971C221.283 -173.864 221.161 -173.758 221.04 -173.651ZM222.121 -174.597C221.997 -174.49 221.875 -174.382 221.752 -174.274C222.08 -174.56 222.409 -174.843 222.74 -175.125C222.534 -174.949 222.327 -174.774 222.121 -174.597ZM224.314 -176.443C223.884 -176.09 223.456 -175.733 223.03 -175.373C223.456 -175.733 223.884 -176.09 224.314 -176.443ZM229.973 -180.805C229.905 -180.756 229.837 -180.706 229.77 -180.657C229.964 -180.798 230.159 -180.938 230.354 -181.078C230.227 -180.987 230.1 -180.896 229.973 -180.805ZM231.134 -181.633C231.01 -181.546 230.887 -181.457 230.764 -181.369C230.949 -181.501 231.134 -181.632 231.319 -181.763L231.134 -181.633Z" fill="#082422"/>
</g>
</g>
<defs>
<clipPath id="clip0_14997_18410">
<rect width="570" height="313" fill="white"/>
</clipPath>
</defs>
</svg>
