<svg width="645" height="653" viewBox="0 0 645 653" fill="none" xmlns="http://www.w3.org/2000/svg">
<g clip-path="url(#clip0_14902_12310)">
<path d="M423.568 247.022C423.775 246.917 424.026 246.945 424.205 247.093C424.384 247.242 424.458 247.482 424.393 247.705L351.291 499.975C351.225 500.205 351.025 500.371 350.787 500.394C350.549 500.416 350.321 500.291 350.212 500.078L274.815 352.804C274.719 352.618 274.731 352.394 274.845 352.219L303.583 308.081L303.629 308.021C303.678 307.963 303.739 307.914 303.808 307.879L423.568 247.022Z" fill="#EFEBE7" stroke="#002522" stroke-width="1.16707" stroke-linecap="round" stroke-linejoin="round"/>
<path d="M501.565 68.4959C501.748 68.3444 502.005 68.3197 502.214 68.4331C502.423 68.5466 502.543 68.7753 502.516 69.0116L465.053 398.09C465.018 398.397 464.75 398.623 464.442 398.607L125.213 380.46C124.973 380.448 124.765 380.289 124.69 380.06C124.615 379.832 124.688 379.58 124.873 379.427L501.565 68.4959Z" fill="#EFEBE7" stroke="#002522" stroke-width="1.16707" stroke-linecap="round" stroke-linejoin="round"/>
<path d="M501.435 68.6438C501.62 68.4078 501.954 68.3514 502.207 68.513C502.46 68.6747 502.55 69.0018 502.413 69.2694L338.15 391.392L351.311 499.741C351.342 499.995 351.203 500.241 350.968 500.346C350.735 500.449 350.46 500.388 350.292 500.195L251.821 387.155C251.637 386.944 251.629 386.632 251.802 386.412L501.435 68.6438Z" fill="#CFCABF" stroke="#002522" stroke-width="1.16707" stroke-linecap="round" stroke-linejoin="round"/>
<mask id="mask0_14902_12310" style="mask-type:luminance" maskUnits="userSpaceOnUse" x="215" y="68" width="287" height="432">
<path d="M501.491 68.2076L337.148 390.489L350.329 499.015L251.858 385.975L215.787 275.052L283.106 93.3612L501.491 68.2076Z" fill="white"/>
</mask>
<g mask="url(#mask0_14902_12310)">
<path d="M345.246 162.27C345.244 161.953 345.495 161.693 345.812 161.683C345.888 161.681 345.961 161.695 346.029 161.72L369.412 163.848C369.7 163.874 369.925 164.108 369.942 164.397L370.911 181.809C383.407 187.099 391.185 198.533 393.282 215.696C393.303 215.871 393.244 216.047 393.121 216.173C392.998 216.3 392.825 216.364 392.649 216.348L368.491 214.146C368.231 214.122 368.017 213.927 367.97 213.67C367.302 210.02 366.233 207.277 364.773 205.402C363.329 203.548 361.489 202.524 359.198 202.316L359.197 202.315C358.282 202.231 357.487 202.275 356.807 202.421L356.806 202.422C355.506 202.698 354.581 203.333 353.991 204.189C353.434 204.999 353.148 206.048 353.173 207.261L353.183 207.506C353.252 208.76 353.535 209.777 354.03 210.66C354.525 211.545 355.251 212.326 356.25 213.082C358.021 214.422 360.575 215.631 364.061 217.185L365.613 217.873L365.621 217.877L369.891 219.838L369.891 219.839C379.159 224.119 385.709 228.426 390.052 233.821C394.409 239.232 396.503 245.682 396.972 254.152C397.418 262.168 395.869 268.788 392.453 273.778C389.032 278.777 383.779 282.079 376.945 283.525L376.943 283.525C376.81 283.552 376.677 283.576 376.545 283.602L377.608 302.875C377.617 303.044 377.553 303.209 377.431 303.327C377.309 303.445 377.142 303.503 376.973 303.488L353.444 301.346C353.156 301.32 352.93 301.086 352.914 300.797L351.827 281.245C337.349 275.762 329.504 263.184 327.595 245.736C327.576 245.562 327.637 245.389 327.76 245.264C327.882 245.139 328.054 245.075 328.228 245.091L353.851 247.428C354.122 247.452 354.34 247.661 354.376 247.931C354.899 251.841 356.007 254.79 357.636 256.813C359.149 258.694 361.14 259.81 363.629 260.145L364.134 260.202L364.137 260.202C365.378 260.32 366.487 260.264 367.443 260.068C368.851 259.769 369.907 259.138 370.595 258.195C371.286 257.248 371.655 255.919 371.559 254.134C371.44 252.079 370.685 250.759 369.306 249.616C367.877 248.43 365.796 247.446 362.991 246.111L362.991 246.11L353.939 242.015L353.078 241.633C344.26 237.654 338.116 233.178 334.047 227.682C329.842 222.001 327.896 215.286 327.441 207.038C327.033 199.64 328.39 193.4 331.554 188.645C334.706 183.908 339.609 180.707 346.184 179.29L345.247 162.299C345.247 162.296 345.246 162.293 345.246 162.291L345.246 162.27Z" fill="#EFEBE7" stroke="#002522" stroke-width="1.16707" stroke-linecap="round" stroke-linejoin="round"/>
<path d="M355.023 118.651C400.922 122.836 440.958 177.235 444.438 240.163C447.458 294.724 422.02 337.774 385.284 345.536C379.643 346.726 373.741 347.09 367.631 346.533C321.732 342.348 281.696 287.949 278.208 225.025C275.18 170.468 300.631 127.422 337.362 119.653C343.004 118.462 348.905 118.098 355.015 118.655L355.023 118.651ZM392.699 215.767C390.602 198.603 382.799 187.332 370.346 182.206L369.355 164.43L345.827 162.287L346.792 179.777C346.664 179.802 346.537 179.826 346.422 179.855C333.404 182.609 327.206 192.404 328.021 207.026C328.923 223.371 335.723 233.395 354.171 241.502L363.24 245.604C368.794 248.249 371.883 249.673 372.138 254.123C372.342 257.881 370.593 260.017 367.558 260.661C366.541 260.879 365.368 260.926 364.078 260.803C358.327 260.284 354.865 255.966 353.795 248.029L328.173 245.693C330.076 263.125 337.942 275.541 352.386 280.854L353.494 300.785L377.023 302.927L375.931 283.147C376.233 283.093 376.531 283.032 376.821 282.974C390.245 280.134 397.269 270.059 396.386 254.204C395.453 237.426 388.118 228.921 369.644 220.389L365.374 218.427C356.844 214.66 352.89 212.868 352.597 207.559C352.444 204.723 353.813 202.471 356.682 201.871C357.436 201.707 358.292 201.662 359.247 201.755C364.163 202.2 367.188 206.191 368.541 213.585L392.699 215.787" fill="#2BF2F1"/>
<path d="M392.699 215.767C390.602 198.603 382.799 187.332 370.346 182.206L369.355 164.43L345.827 162.287L346.792 179.777C346.664 179.802 346.537 179.826 346.422 179.855C333.404 182.609 327.206 192.404 328.021 207.026C328.923 223.371 335.723 233.395 354.171 241.502L363.24 245.604C368.794 248.249 371.883 249.673 372.138 254.123C372.342 257.881 370.593 260.017 367.558 260.661C366.541 260.879 365.368 260.926 364.078 260.803C358.327 260.284 354.865 255.966 353.795 248.029L328.173 245.693C330.076 263.125 337.942 275.541 352.386 280.854L353.494 300.785L377.023 302.927L375.931 283.147C376.233 283.093 376.531 283.032 376.821 282.974C390.245 280.134 397.269 270.059 396.386 254.204C395.453 237.426 388.118 228.921 369.644 220.389L365.374 218.427C356.844 214.66 352.89 212.868 352.597 207.559C352.444 204.723 353.813 202.471 356.682 201.871C357.436 201.707 358.292 201.662 359.247 201.755C364.163 202.2 367.188 206.191 368.541 213.585L392.699 215.787M355.023 118.651C400.922 122.836 440.958 177.235 444.438 240.163C447.458 294.724 422.02 337.774 385.284 345.536C379.643 346.726 373.741 347.09 367.631 346.533C321.732 342.348 281.696 287.949 278.208 225.025C275.18 170.468 300.631 127.422 337.362 119.653C343.004 118.462 348.905 118.098 355.015 118.655L355.023 118.651Z" stroke="#002522" stroke-width="1.16707" stroke-miterlimit="10" stroke-linejoin="round"/>
<path d="M385.284 345.539L369.893 348.789C364.252 349.98 358.351 350.344 352.241 349.787C306.341 345.602 266.305 291.203 262.817 228.279C259.789 173.722 285.24 130.676 321.972 122.907L337.362 119.656C300.63 127.425 275.183 170.479 278.207 225.028C281.696 287.952 321.732 342.352 367.631 346.537C373.741 347.094 379.642 346.729 385.284 345.539Z" fill="#0CBAB5" stroke="#002522" stroke-width="1.16707" stroke-miterlimit="10" stroke-linejoin="round"/>
</g>
<path d="M440.098 458.073C420.037 517.42 384.685 589.523 341.916 652.393" stroke="#002522" stroke-width="1.16707" stroke-miterlimit="10" stroke-linecap="round" stroke-linejoin="round"/>
<path d="M174.449 439.986C131.239 486.542 71.0226 537.859 6.36112 580.884" stroke="#002522" stroke-width="1.16707" stroke-miterlimit="10" stroke-linecap="round" stroke-linejoin="round"/>
<path d="M307.944 388.648C290.02 419.726 258.752 461.73 227.274 491.64" stroke="#002522" stroke-width="1.16707" stroke-miterlimit="10" stroke-linecap="round" stroke-linejoin="round"/>
</g>
<defs>
<clipPath id="clip0_14902_12310">
<rect width="644.856" height="652.392" fill="white"/>
</clipPath>
</defs>
</svg>
