<svg width="645" height="653" viewBox="0 0 645 653" fill="none" xmlns="http://www.w3.org/2000/svg">
<g clip-path="url(#clip0_14989_18244)">
<path d="M304.072 323.568L275.334 367.706L350.731 514.98L423.833 262.711L304.072 323.568Z" fill="#EFEBE7" stroke="#002522" stroke-width="1.16707" stroke-linecap="round" stroke-linejoin="round"/>
<path d="M501.936 84.1157L460.415 411.393L125.245 395.048L501.936 84.1157Z" fill="#EFEBE7" stroke="#002522" stroke-width="1.16707" stroke-linecap="round" stroke-linejoin="round"/>
<path d="M501.893 84.1724L337.55 406.454L350.731 514.98L252.261 401.94L501.893 84.1724Z" fill="#CFCABF" stroke="#002522" stroke-width="1.16707" stroke-linecap="round" stroke-linejoin="round"/>
<mask id="mask0_14989_18244" style="mask-type:alpha" maskUnits="userSpaceOnUse" x="130" y="-12" width="348" height="534">
<path d="M477.915 160.474L420.145 -11.0859L233.997 22.1756L130.711 321.53L224.66 479.668L350.704 521.099L369.377 399.14L477.915 160.474Z" fill="#D9D9D9"/>
</mask>
<g mask="url(#mask0_14989_18244)">
<path d="M420.333 75.5915L415.632 74.8769C400.713 83.6511 387.599 95.8779 375.526 110.096C359.033 129.52 344.491 152.664 329.944 175.806C315.398 198.949 300.852 222.095 284.359 241.519C272.285 255.737 259.176 267.965 244.256 276.739L248.957 277.454C263.876 268.679 276.985 256.456 289.06 242.234C305.548 222.809 320.099 199.663 334.645 176.521C349.192 153.375 363.733 130.235 380.226 110.811C392.296 96.5919 405.414 84.3657 420.333 75.5915Z" fill="#84ED92" stroke="#082422" stroke-width="1.16707" stroke-miterlimit="10" stroke-linejoin="round"/>
<path d="M248.97 277.436L244.269 276.722C266.723 319.673 289.177 362.621 311.635 405.573L316.336 406.287C293.882 363.336 271.428 320.388 248.97 277.436Z" fill="#84ED92" stroke="#082422" stroke-width="1.16707" stroke-miterlimit="10" stroke-linejoin="round"/>
<path d="M356.423 371.082C372.916 351.658 387.458 328.515 402.004 305.372C416.55 282.229 431.097 259.083 447.586 239.658C459.66 225.44 472.773 213.213 487.693 204.439C465.239 161.488 442.785 118.54 420.327 75.5885C405.407 84.3627 392.294 96.5895 380.22 110.808C363.727 130.232 349.185 153.375 334.639 176.518C320.093 199.66 305.546 222.806 289.053 242.231C276.98 256.449 263.87 268.676 248.951 277.451C271.404 320.402 293.858 363.349 316.316 406.301C331.232 397.526 344.349 385.3 356.419 371.081L356.423 371.082Z" fill="#60D06F" stroke="#082422" stroke-width="1.16707" stroke-miterlimit="10" stroke-linejoin="round"/>
<path d="M352.025 347.42C366.387 330.506 379.297 310.815 392.207 291.125C405.116 271.438 418.022 251.75 432.383 234.836C437.647 228.637 443.109 222.806 448.834 217.486C449.598 216.603 449.689 215.354 449.215 214.444C444.686 205.782 445.481 194.148 451.173 187.444C452.061 186.396 453.07 185.471 454.198 184.693C454.389 184.563 454.559 184.405 454.709 184.226C455.46 183.342 455.695 181.951 455.087 180.791C446.205 163.799 437.319 146.81 428.438 129.818C427.711 128.424 426.131 128.054 424.994 128.842C416.656 134.587 406.264 132.294 401.001 122.222C400.425 121.117 399.259 120.737 398.404 121.531C392.742 126.806 387.344 132.575 382.132 138.713C367.771 155.627 354.865 175.315 341.955 195.002C329.045 214.693 316.135 234.38 301.778 251.294C296.509 257.5 291.043 263.334 285.314 268.657C284.443 269.66 284.351 271.09 284.888 272.12C289.409 280.771 288.622 292.381 282.939 299.071C282.043 300.125 281.028 301.06 279.892 301.837C279.722 301.955 279.567 302.094 279.431 302.254C278.755 303.052 278.55 304.311 279.094 305.36C288.056 322.505 297.019 339.646 305.982 356.79C306.639 358.048 308.062 358.394 309.092 357.688C317.44 351.961 327.836 354.267 333.102 364.339C333.612 365.311 334.634 365.633 335.383 364.939C341.179 359.572 346.701 353.686 352.026 347.417L352.025 347.42Z" fill="#80E58A" stroke="#082422" stroke-width="1.16707" stroke-miterlimit="10" stroke-linejoin="round"/>
<path d="M409.367 133.466L404.612 133.482C391.216 144.442 380.134 158.536 370.385 174.439C357.069 196.164 346.251 221.265 335.429 246.366C324.607 271.467 313.785 296.572 300.469 318.297C290.72 334.2 279.643 348.294 266.247 359.254L271.001 359.239C284.398 348.279 295.475 334.188 305.224 318.282C318.536 296.556 329.362 271.452 340.184 246.351C351.006 221.246 361.824 196.149 375.14 174.424C384.885 158.521 395.97 144.426 409.367 133.466Z" fill="#84ED92" stroke="#082422" stroke-width="1.16707" stroke-miterlimit="10" stroke-linejoin="round"/>
<path d="M271.001 359.22L266.246 359.235C295.026 398.232 323.805 437.224 352.589 476.22L357.344 476.205C328.564 437.209 299.785 398.216 271.001 359.22Z" fill="#84ED92" stroke="#082422" stroke-width="1.16707" stroke-miterlimit="10" stroke-linejoin="round"/>
<path d="M391.564 435.264C404.88 413.539 415.698 388.438 426.52 363.337C437.342 338.236 448.164 313.132 461.476 291.406C471.225 275.503 482.306 261.409 495.703 250.449C466.923 211.452 438.143 172.46 409.36 133.464C395.963 144.424 384.882 158.518 375.133 174.421C361.817 196.146 350.999 221.247 340.177 246.348C329.355 271.449 318.533 296.553 305.217 318.279C295.468 334.182 284.391 348.276 270.994 359.236C299.774 398.232 328.554 437.225 357.337 476.221C370.729 465.261 381.815 451.167 391.56 435.264L391.564 435.264Z" fill="#60D06F" stroke="#082422" stroke-width="1.16707" stroke-miterlimit="10" stroke-linejoin="round"/>
<path d="M383.593 412.555C395.188 393.637 404.923 372.199 414.658 350.76C424.394 329.325 434.125 307.89 445.72 288.972C449.97 282.038 454.473 275.438 459.313 269.303C459.932 268.313 459.831 267.064 459.223 266.238C453.418 258.374 452.418 246.755 457.013 239.258C457.73 238.086 458.585 237.017 459.58 236.075C459.75 235.917 459.893 235.735 460.014 235.535C460.621 234.546 460.638 233.136 459.86 232.083C448.475 216.655 437.087 201.231 425.703 185.803C424.771 184.538 423.154 184.415 422.151 185.367C414.793 192.325 404.172 191.653 397.426 182.509C396.687 181.505 395.477 181.309 394.754 182.224C389.968 188.306 385.52 194.835 381.311 201.7C369.716 220.618 359.985 242.053 350.25 263.488C340.515 284.927 330.779 306.362 319.188 325.28C314.934 332.22 310.428 338.824 305.584 344.963C304.877 346.088 305.005 347.515 305.694 348.451C311.49 356.305 312.493 367.899 307.905 375.382C307.181 376.561 306.322 377.641 305.318 378.582C305.169 378.726 305.037 378.887 304.927 379.065C304.381 379.958 304.372 381.233 305.07 382.187C316.558 397.752 328.045 413.315 339.533 428.881C340.375 430.022 341.835 430.146 342.744 429.29C350.115 422.351 360.74 423.033 367.491 432.177C368.143 433.06 369.203 433.222 369.837 432.421C374.74 426.228 379.293 419.563 383.593 412.551L383.593 412.555Z" fill="#80E58A" stroke="#082422" stroke-width="1.16707" stroke-miterlimit="10" stroke-linejoin="round"/>
<path d="M383.461 83.5404C383.636 83.3802 383.67 83.1156 383.547 82.8854C383.423 82.6554 383.169 82.511 382.917 82.5281L377.703 82.8821C377.579 82.8905 377.466 82.9377 377.38 83.0163C364.09 95.1794 353.782 110.371 345.194 127.29C333.464 150.398 324.936 176.762 316.418 203.081C307.894 229.415 299.386 255.707 287.698 278.733C279.144 295.584 268.904 310.669 255.726 322.729C255.551 322.89 255.517 323.153 255.64 323.383C255.764 323.614 256.018 323.758 256.269 323.741L261.485 323.388C261.608 323.379 261.721 323.332 261.807 323.253C275.097 311.09 285.402 295.902 293.99 278.98C305.714 255.873 314.25 229.503 322.768 203.184C331.291 176.847 339.796 150.563 351.484 127.537L352.291 125.962C360.677 109.746 370.695 95.2238 383.461 83.5404Z" fill="#84ED92" stroke="#082422" stroke-width="1.16707" stroke-miterlimit="10" stroke-linejoin="round"/>
<path d="M372.311 435.993C372.374 435.795 372.311 435.566 372.15 435.4C335.363 397.741 298.578 360.086 261.787 322.428C261.649 322.286 261.456 322.21 261.269 322.223L256.054 322.576C255.835 322.591 255.658 322.725 255.595 322.924C255.533 323.122 255.595 323.351 255.757 323.517C292.543 361.175 329.329 398.831 366.12 436.489C366.258 436.631 366.451 436.707 366.638 436.694L371.853 436.341C372.071 436.326 372.249 436.191 372.311 435.993Z" fill="#84ED92" stroke="#082422" stroke-width="1.16707" stroke-miterlimit="10" stroke-linejoin="round"/>
<path d="M493.812 196.513C494.035 196.309 494.024 195.949 493.787 195.706C457.001 158.048 420.215 120.392 383.424 82.7341C383.31 82.6168 383.156 82.543 382.998 82.5297C382.841 82.5164 382.692 82.5642 382.584 82.6627C369.294 94.8257 358.986 110.018 350.397 126.936C338.668 150.044 330.14 176.409 321.622 202.728C313.098 229.062 304.59 255.353 292.902 278.379C284.347 295.231 274.108 310.315 260.93 322.376C260.707 322.579 260.719 322.94 260.955 323.182C297.742 360.841 334.527 398.496 371.318 436.155C371.433 436.272 371.586 436.346 371.744 436.359C371.902 436.372 372.051 436.325 372.159 436.226C385.431 424.075 395.737 408.901 404.316 392.002C404.327 391.986 404.336 391.97 404.345 391.952C416.074 368.845 424.603 342.479 433.121 316.161C441.644 289.827 450.152 263.535 461.836 240.51L462.643 238.935C471.034 222.719 481.046 208.197 493.812 196.513Z" fill="#60D06F" stroke="#082422" stroke-width="1.16707" stroke-miterlimit="10" stroke-linejoin="round"/>
<path d="M392.037 369.098C402.232 349.012 410.049 326.492 417.866 303.971C425.685 281.454 433.498 258.938 443.693 238.852C447.431 231.491 451.489 224.45 455.98 217.859C456.527 216.808 456.249 215.543 455.471 214.745C448.052 207.15 445.402 195.392 449.443 187.431C450.073 186.188 450.868 185.038 451.834 184.009C451.999 183.836 452.132 183.64 452.238 183.428C452.771 182.377 452.603 180.941 451.608 179.924C437.056 165.025 422.501 150.131 407.949 135.232C406.757 134.009 404.966 133.999 403.993 135.04C396.85 142.647 385.107 142.719 376.483 133.888C375.539 132.918 374.184 132.805 373.513 133.788C369.075 140.321 365.067 147.284 361.366 154.574C351.171 174.66 343.357 197.176 335.539 219.693C327.722 242.213 319.904 264.73 309.713 284.816C305.973 292.185 301.911 299.229 297.416 305.824C296.791 307.02 297.122 308.464 298.003 309.368C305.411 316.953 308.061 328.685 304.026 336.631C303.389 337.883 302.591 339.043 301.616 340.073C301.471 340.23 301.348 340.403 301.251 340.593C300.771 341.541 300.931 342.839 301.825 343.761C316.509 358.793 331.191 373.821 345.875 388.853C346.951 389.956 348.569 389.978 349.453 389.042C356.613 381.452 368.363 381.391 376.99 390.222C377.825 391.074 379.008 391.164 379.597 390.303C384.15 383.649 388.255 376.54 392.036 369.095L392.037 369.098Z" fill="#80E58A" stroke="black" stroke-width="1.27731" stroke-miterlimit="10"/>
<path d="M394.72 305.399C397.411 300.1 399.884 294.228 402.108 287.858C409.675 266.203 414.429 244.457 417.095 227.93C418.35 219.586 418.902 212.367 418.258 206.328C417.615 200.294 415.733 195.399 412.223 191.815C408.734 188.24 403.945 186.299 398.504 186.109C393.069 185.922 387.032 187.526 381.167 191.155C372.786 196.164 365.106 205.564 358.66 218.273C355.969 223.571 353.496 229.444 351.271 235.814C343.705 257.468 338.95 279.211 336.285 295.742C335.03 304.086 334.478 311.305 335.122 317.343C335.765 323.378 337.647 328.269 341.153 331.861C344.641 335.432 349.436 337.376 354.876 337.566C360.311 337.753 366.348 336.146 372.209 332.521C380.594 327.512 388.27 318.112 394.721 305.402L394.72 305.399Z" fill="#60D06F" stroke="black" stroke-width="1.27731" stroke-miterlimit="10"/>
</g>
<path fill-rule="evenodd" clip-rule="evenodd" d="M350.723 514.98L350.718 514.971L337.539 406.454L397.431 289.003L423.824 262.711L350.723 514.98Z" fill="#EFEBE7"/>
<path d="M350.723 514.98L350.201 515.241C350.308 515.456 350.536 515.583 350.776 515.562C351.015 515.54 351.216 515.374 351.283 515.143L350.723 514.98ZM350.718 514.971L350.138 515.041C350.147 515.107 350.166 515.172 350.196 515.232L350.718 514.971ZM337.539 406.454L337.019 406.189C336.966 406.292 336.946 406.409 336.96 406.524L337.539 406.454ZM397.431 289.003L397.019 288.59C396.975 288.633 396.939 288.683 396.911 288.738L397.431 289.003ZM423.824 262.711L424.385 262.873C424.459 262.618 424.351 262.344 424.122 262.209C423.893 262.073 423.601 262.11 423.412 262.298L423.824 262.711ZM350.723 514.98L351.245 514.719L351.24 514.71L350.718 514.971L350.196 515.232L350.201 515.241L350.723 514.98ZM350.718 514.971L351.297 514.9L338.118 406.384L337.539 406.454L336.96 406.524L350.138 515.041L350.718 514.971ZM337.539 406.454L338.059 406.719L397.951 289.268L397.431 289.003L396.911 288.738L337.019 406.189L337.539 406.454ZM397.431 289.003L397.842 289.416L424.236 263.124L423.824 262.711L423.412 262.298L397.019 288.59L397.431 289.003ZM423.824 262.711L423.264 262.549L350.162 514.818L350.723 514.98L351.283 515.143L424.385 262.873L423.824 262.711Z" fill="#082422"/>
<path fill-rule="evenodd" clip-rule="evenodd" d="M463.309 413.195L337.625 406.587L501.681 84.8701L501.846 84.6152L463.309 413.195Z" fill="#EFEBE7"/>
<path d="M463.309 413.195L463.278 413.778C463.585 413.794 463.852 413.569 463.888 413.263L463.309 413.195ZM337.625 406.587L337.105 406.322C337.015 406.498 337.021 406.707 337.12 406.879C337.218 407.05 337.397 407.159 337.594 407.17L337.625 406.587ZM501.681 84.8701L501.191 84.553C501.18 84.5698 501.17 84.5872 501.161 84.605L501.681 84.8701ZM501.846 84.6152L502.425 84.6832C502.457 84.4138 502.299 84.1581 502.043 84.0662C501.788 83.9743 501.503 84.0704 501.356 84.2981L501.846 84.6152ZM463.309 413.195L463.339 412.613L337.656 406.004L337.625 406.587L337.594 407.17L463.278 413.778L463.309 413.195ZM337.625 406.587L338.145 406.852L502.201 85.1352L501.681 84.8701L501.161 84.605L337.105 406.322L337.625 406.587ZM501.681 84.8701L502.17 85.1873L502.336 84.9324L501.846 84.6152L501.356 84.2981L501.191 84.553L501.681 84.8701ZM501.846 84.6152L501.266 84.5473L462.729 413.127L463.309 413.195L463.888 413.263L502.425 84.6832L501.846 84.6152Z" fill="#082422"/>
<path d="M440.098 473.169C420.037 532.516 384.685 604.619 341.916 667.489" stroke="#002522" stroke-width="1.16707" stroke-miterlimit="10" stroke-linecap="round" stroke-linejoin="round"/>
<path d="M174.449 455.08C131.239 501.635 71.0226 552.953 6.36112 595.978" stroke="#002522" stroke-width="1.16707" stroke-miterlimit="10" stroke-linecap="round" stroke-linejoin="round"/>
<path d="M307.944 403.744C290.02 434.821 258.752 476.826 227.274 506.736" stroke="#002522" stroke-width="1.16707" stroke-miterlimit="10" stroke-linecap="round" stroke-linejoin="round"/>
</g>
<defs>
<clipPath id="clip0_14989_18244">
<rect width="644.856" height="652.392" fill="white"/>
</clipPath>
</defs>
</svg>
