<svg width="347" height="332" viewBox="0 0 347 332" fill="none" xmlns="http://www.w3.org/2000/svg">
<g clip-path="url(#clip0_14997_18494)">
<path d="M68.5445 243.729L331.403 331.386C337.603 333.454 344.321 330.126 346.393 323.922C347.202 321.483 347.202 318.85 346.393 316.41L258.558 54.0859L68.5445 243.713L68.5445 243.729Z" fill="#2BF2F1" stroke="#082422" stroke-width="0.884319" stroke-miterlimit="10" stroke-linecap="round"/>
<path d="M68.5572 243.736C68.5572 243.736 107.279 234.98 178.505 163.834C247.838 94.7064 258.085 56.1284 258.57 54.1252L258.57 54.0605C258.57 54.0605 219.784 62.8165 148.525 133.931C77.2663 205.045 68.5572 243.752 68.5572 243.752L68.5572 243.736Z" fill="#0A9D9C" stroke="#082422" stroke-width="0.884319" stroke-miterlimit="10" stroke-linecap="round"/>
<path d="M238.413 300.373L277.361 313.346C285.536 306.06 294.245 297.902 303.553 288.629C312.861 279.356 321.036 270.664 328.32 262.49L315.321 223.621C305.431 235.543 293.371 248.871 278.543 263.669C263.715 278.467 250.36 290.503 238.413 300.373Z" fill="#DCFF00" stroke="#082422" stroke-width="0.884319" stroke-miterlimit="10" stroke-linecap="round"/>
<path d="M132.385 265.009L174.231 278.935C197.234 262.441 218.764 243.975 238.545 223.733C258.829 203.992 277.332 182.506 293.859 159.55L279.905 117.789C261.111 147.336 238.821 174.525 213.535 198.774C189.237 224.024 161.993 246.253 132.385 265.009Z" fill="#F26629" stroke="#082422" stroke-width="0.884319" stroke-miterlimit="10" stroke-linecap="round"/>
<path d="M202.686 105.38C205.94 105.38 208.562 102.746 208.562 99.4993C208.562 97.9484 207.947 96.446 206.847 95.3475C183.196 73.0698 177.498 37.7227 192.957 9.1769C194.787 6.49518 194.091 2.84416 191.403 1.01865C188.716 -0.806863 185.058 -0.1122 183.228 2.56952C183.099 2.76338 182.986 2.95724 182.872 3.1511C164.726 36.3334 171.152 77.5447 198.526 103.667C199.627 104.766 201.132 105.364 202.686 105.364L202.686 105.38Z" fill="#DCFF00" stroke="#082422" stroke-width="0.884319" stroke-miterlimit="10" stroke-linecap="round"/>
<path d="M212.523 46.4128C214.077 46.4128 215.582 45.7989 216.683 44.6843L226.542 34.862C228.84 32.568 228.84 28.8524 226.542 26.5584C224.243 24.2644 220.52 24.2644 218.221 26.5584L208.379 36.3806C206.08 38.6746 206.08 42.3903 208.379 44.6843C209.48 45.7828 210.985 46.3967 212.539 46.3967L212.523 46.4128Z" fill="#2BF2F1" stroke="#082422" stroke-width="0.884319" stroke-miterlimit="10" stroke-linecap="round"/>
<path d="M143.6 36.5928C146.854 36.5928 149.492 33.9595 149.492 30.7124L149.492 20.8902C149.492 17.643 146.854 15.0098 143.6 15.0098C140.346 15.0098 137.707 17.643 137.707 20.8902L137.707 30.7124C137.707 33.9595 140.346 36.5928 143.6 36.5928Z" fill="#F26629" stroke="#082422" stroke-width="0.884319" stroke-miterlimit="10" stroke-linecap="round"/>
<path d="M133.741 75.8975L143.6 75.8975C146.854 75.8975 149.492 73.2643 149.492 70.0171C149.492 66.77 146.854 64.1367 143.6 64.1367L133.741 64.1367C130.488 64.1367 127.849 66.77 127.849 70.0171C127.849 73.2643 130.488 75.8975 133.741 75.8975Z" fill="#2BF2F1" stroke="#082422" stroke-width="0.884319" stroke-miterlimit="10" stroke-linecap="round"/>
<path d="M114.046 193.829C117.299 193.829 119.922 191.196 119.922 187.949C119.922 186.398 119.307 184.896 118.206 183.797C92.014 156.479 50.735 150.066 17.4689 168.175C14.7332 169.936 13.94 173.555 15.7044 176.285C17.388 178.886 20.8036 179.742 23.507 178.24C52.0624 162.505 87.6919 168.224 109.885 192.101C110.986 193.199 112.492 193.813 114.046 193.829Z" fill="#DCFF00" stroke="#082422" stroke-width="0.884319" stroke-miterlimit="10" stroke-linecap="round"/>
<path d="M45.1244 213.475C46.6784 213.475 48.1839 212.861 49.2847 211.762L59.1431 201.924C61.3932 199.598 61.3284 195.866 58.9974 193.62C56.7149 191.423 53.105 191.423 50.8225 193.62L40.9641 203.443C38.6654 205.737 38.6654 209.452 40.9641 211.746C42.0649 212.845 43.5703 213.459 45.1244 213.459L45.1244 213.475Z" fill="#2BF2F1" stroke="#082422" stroke-width="0.884319" stroke-miterlimit="10" stroke-linecap="round"/>
<path d="M35.2866 134.869L45.1288 134.869C48.3826 134.869 51.0212 132.235 51.0212 128.988C51.0212 125.741 48.3826 123.108 45.1288 123.108L35.2866 123.108C32.0328 123.108 29.3942 125.741 29.3942 128.988C29.3942 132.235 32.0328 134.869 35.2866 134.869ZM84.5139 134.869C87.7676 134.869 90.4062 132.235 90.4062 128.988L90.4062 119.15C90.4062 115.903 87.7676 113.27 84.5139 113.27C81.2601 113.27 78.6215 115.903 78.6215 119.15L78.6215 128.988C78.6215 132.235 81.2601 134.869 84.5139 134.869Z" fill="#2BF2F1" stroke="#082422" stroke-width="0.884319" stroke-miterlimit="10" stroke-linecap="round"/>
<path d="M133.741 115.201C136.995 115.201 139.617 112.568 139.617 109.321C139.617 107.77 139.002 106.268 137.901 105.169C132.867 100.307 125.955 97.8833 118.978 98.5457L118.848 98.5457C115.06 99.1757 111.175 97.9964 108.375 95.3632C105.72 92.536 104.538 88.6266 105.186 84.7978C106.594 72.1 97.3992 60.6623 84.6756 59.273C82.992 59.0953 81.2923 59.0953 79.6088 59.273C73.2308 60.5492 67.0308 56.4297 65.752 50.0808C65.4444 48.5461 65.4444 46.9791 65.752 45.4443C66.4157 38.4816 63.9875 31.5672 59.0988 26.543C56.8648 24.1844 53.1416 24.0875 50.7782 26.3007C48.4148 28.5301 48.3177 32.2457 50.5354 34.6044C50.6163 34.7013 50.7134 34.7821 50.7944 34.8628C53.4492 37.7061 54.6309 41.5995 53.9996 45.4282C52.6074 58.1421 61.7859 69.5637 74.5258 70.9692C76.2093 71.1469 77.9091 71.1469 79.5926 70.9692C85.9382 69.6929 92.122 73.7963 93.4008 80.129C93.7084 81.6638 93.7084 83.2308 93.4008 84.7655C92.7209 91.7283 95.1491 98.6426 100.038 103.651C105.088 108.497 111.984 110.904 118.961 110.274L119.091 110.274C122.879 109.644 126.748 110.823 129.548 113.457C130.649 114.555 132.155 115.185 133.709 115.185L133.741 115.201Z" fill="#60D06F" stroke="#082422" stroke-width="0.884319" stroke-miterlimit="10" stroke-linecap="round"/>
<path d="M55.131 109.286C58.3848 109.286 61.0234 106.669 61.0234 103.422C61.0234 101.031 59.5827 98.8822 57.3812 97.9775C40.0763 90.3362 20.3433 90.4332 3.11945 98.236C0.254195 99.7707 -0.830401 103.325 0.707446 106.184C2.24529 109.044 5.80662 110.126 8.67187 108.591C22.7877 102.436 38.8461 102.533 52.8971 108.834C53.6094 109.124 54.3702 109.27 55.131 109.27L55.131 109.286Z" fill="#F26629" stroke="#082422" stroke-width="0.884319" stroke-miterlimit="10" stroke-linecap="round"/>
</g>
<defs>
<clipPath id="clip0_14997_18494">
<rect width="347" height="332" fill="white"/>
</clipPath>
</defs>
</svg>
