<svg width="528" height="334" viewBox="0 0 528 334" fill="none" xmlns="http://www.w3.org/2000/svg">
<g clip-path="url(#clip0_14997_18408)">
<path opacity="0.15" d="M379.904 180.475L174.803 61.7982C169.508 58.7339 160.956 58.7339 155.694 61.7982L23.7895 138.165C23.297 138.449 22.8612 138.784 22.4732 139.149L11.2533 145.646C6.66263 148.303 6.65368 154.94 11.2354 157.61L220.96 279.799C223.097 281.044 225.733 281.047 227.873 279.808L367.413 199.04L367.425 199.049C368.09 198.66 368.672 198.241 369.168 197.798L379.946 191.559L379.958 191.568C385.217 188.503 385.19 183.536 379.898 180.475H379.904Z" fill="black"/>
<path d="M361.773 178.808L161.531 62.9416C156.454 60.0031 148.32 59.9582 143.165 62.789L142.891 62.9476L361.82 189.629L362.05 189.497C366.957 186.496 366.865 181.75 361.776 178.805L361.773 178.808Z" fill="#C72200" stroke="black" stroke-width="0.217603" stroke-miterlimit="10"/>
<path d="M361.791 186.17L161.549 70.3068C156.379 67.3144 148.031 67.3144 142.894 70.3068L4.04948 150.686H4.04351C3.39282 151.057 2.80183 151.093 2.375 150.845L220.556 277.96C220.983 278.208 221.571 278.175 222.218 277.801H222.227L361.839 196.994L361.851 197C366.988 194.008 366.961 189.16 361.794 186.17H361.791Z" fill="#21504F" stroke="black" stroke-width="0.217603" stroke-miterlimit="10"/>
<path d="M218.914 275.96L361.039 193.698L361.027 189.742L218.914 272.001V275.96Z" fill="#CCCCCC" stroke="black" stroke-width="0.217603" stroke-miterlimit="10"/>
<path d="M361.768 178.808L161.526 62.9416C156.356 59.9492 148.008 59.9492 142.871 62.9416L4.02344 143.327L222.201 270.442L361.813 189.632L361.825 189.638C366.961 186.645 366.935 181.798 361.768 178.808Z" fill="#21504F" stroke="black" stroke-width="0.217603" stroke-miterlimit="10"/>
<path d="M361.852 196.994L222.229 277.799C220.937 278.547 219.88 277.943 219.877 276.455C219.874 274.962 220.922 273.14 222.214 272.392L361.829 191.587C364.381 190.1 365.658 188.155 365.664 186.207L365.67 184.262C365.664 186.21 364.387 188.155 361.835 189.642L222.211 270.446C219.984 271.736 218.182 274.866 218.188 277.437C218.193 280.004 220.011 281.04 222.238 279.75L361.852 198.946C364.404 197.458 365.682 195.513 365.688 193.565L365.694 191.62C365.688 193.565 364.41 195.51 361.858 196.997L361.852 196.994Z" fill="#35605F" stroke="black" stroke-width="0.217603" stroke-miterlimit="10"/>
<path d="M219.357 280.028L1.17901 152.913C0.453706 152.491 0.00299959 151.593 1.47825e-05 150.318C-0.00595484 147.748 1.79687 144.618 4.02354 143.328L222.201 270.443C219.975 271.733 218.172 274.863 218.178 277.434C218.181 278.708 218.631 279.606 219.357 280.028Z" fill="#35605F" stroke="black" stroke-width="0.217603" stroke-miterlimit="10"/>
<path d="M242.943 193.019C231.902 199.453 217.357 203.508 201.836 204.504L200.257 204.597L198.019 204.708C179.065 205.288 160.598 201.362 146.778 193.785L145.42 193.019L144.08 192.244C131.004 184.234 124.186 173.521 125.162 162.512L125.309 161.216L125.44 160.3C127.126 151.284 134.06 142.824 145.101 136.391C156.139 129.96 170.687 125.902 186.205 124.909L187.784 124.816L190.025 124.702C208.976 124.125 227.443 128.048 241.263 135.625L242.621 136.391L243.961 137.166C257.037 145.176 263.855 155.889 262.882 166.895L262.732 168.194L262.601 169.11C260.918 178.126 253.981 186.586 242.94 193.019H242.943ZM241.283 138.725L221.828 150.06C232.732 156.652 238.845 163.903 242.224 169.463C242.373 169.433 242.522 169.4 242.668 169.367C242.883 169.322 243.095 169.274 243.31 169.23C243.561 169.179 243.812 169.128 244.062 169.077C244.277 169.035 244.489 168.99 244.701 168.948C244.955 168.897 245.208 168.85 245.465 168.802C245.68 168.763 245.892 168.721 246.107 168.679C246.364 168.634 246.623 168.589 246.883 168.544C247.098 168.505 247.307 168.469 247.522 168.434C247.784 168.392 248.044 168.347 248.31 168.305C248.522 168.272 248.731 168.236 248.945 168.203C249.211 168.161 249.48 168.122 249.748 168.083C249.96 168.054 250.169 168.021 250.378 167.991C250.653 167.952 250.93 167.916 251.205 167.877C251.408 167.85 251.614 167.82 251.817 167.793C252.106 167.754 252.396 167.721 252.685 167.688C252.879 167.665 253.073 167.641 253.267 167.62C253.587 167.581 253.903 167.548 254.223 167.512C254.39 167.494 254.557 167.473 254.724 167.458C255.142 167.416 255.563 167.374 255.984 167.335C256.052 167.329 256.121 167.323 256.187 167.317C256.676 167.273 257.163 167.234 257.655 167.195C257.81 167.183 257.972 167.174 258.127 167.162C258.449 167.141 258.765 167.114 259.088 167.096C260.171 156.593 253.745 146.358 241.286 138.722L241.283 138.725ZM219.151 148.507L238.606 137.172C225.416 129.963 207.77 126.264 189.688 126.929C189.655 127.117 189.613 127.303 189.575 127.488C189.557 127.578 189.539 127.668 189.518 127.758C189.455 128.045 189.387 128.326 189.312 128.61C189.306 128.646 189.294 128.679 189.285 128.712C189.219 128.964 189.151 129.212 189.079 129.46C189.049 129.556 189.016 129.652 188.987 129.748C188.927 129.933 188.87 130.122 188.807 130.307C188.772 130.421 188.73 130.532 188.691 130.642C188.631 130.81 188.572 130.98 188.509 131.148C188.464 131.268 188.416 131.384 188.369 131.501C188.306 131.663 188.246 131.824 188.178 131.986C188.127 132.109 188.073 132.228 188.022 132.348C187.957 132.504 187.888 132.662 187.82 132.818C187.766 132.94 187.703 133.066 187.646 133.189C187.575 133.341 187.5 133.494 187.429 133.647C187.366 133.769 187.303 133.895 187.237 134.018C187.163 134.167 187.085 134.32 187.005 134.47C186.939 134.592 186.87 134.718 186.802 134.838C186.718 134.987 186.638 135.134 186.551 135.284C186.479 135.406 186.405 135.532 186.333 135.655C186.247 135.801 186.16 135.945 186.07 136.091C185.996 136.217 185.915 136.34 185.838 136.466C185.784 136.549 185.727 136.639 185.676 136.726C195.264 138.668 207.77 142.196 219.157 148.504L219.151 148.507ZM146.763 190.682L166.218 179.347C155.315 172.755 149.199 165.504 145.823 159.944C145.674 159.974 145.525 160.007 145.376 160.04C145.161 160.085 144.949 160.133 144.734 160.177C144.483 160.231 144.235 160.279 143.982 160.333C143.767 160.375 143.558 160.417 143.343 160.462C143.089 160.513 142.835 160.561 142.576 160.608C142.364 160.647 142.152 160.686 141.94 160.728C141.68 160.776 141.421 160.821 141.161 160.866C140.946 160.905 140.737 160.941 140.522 160.976C140.26 161.018 140 161.063 139.734 161.105C139.522 161.138 139.313 161.174 139.098 161.207C138.833 161.249 138.564 161.288 138.293 161.327C138.087 161.356 137.878 161.389 137.669 161.419C137.394 161.458 137.114 161.497 136.836 161.533C136.633 161.56 136.433 161.59 136.23 161.617C135.941 161.656 135.648 161.689 135.358 161.725C135.167 161.745 134.973 161.772 134.779 161.793C134.46 161.832 134.138 161.865 133.818 161.898C133.654 161.916 133.487 161.934 133.323 161.952C132.899 161.994 132.469 162.036 132.036 162.075C131.98 162.081 131.92 162.087 131.857 162.093C131.368 162.137 130.881 162.176 130.389 162.215C130.234 162.227 130.078 162.236 129.923 162.248C129.601 162.269 129.278 162.296 128.959 162.314C127.876 172.817 134.305 183.052 146.76 190.688L146.763 190.682ZM149.444 192.232C162.634 199.441 180.28 203.14 198.362 202.475C198.395 202.287 198.436 202.104 198.475 201.916C198.496 201.826 198.511 201.733 198.532 201.643C198.595 201.356 198.663 201.075 198.738 200.791C198.747 200.752 198.759 200.713 198.771 200.671C198.833 200.426 198.902 200.183 198.974 199.941C199.001 199.842 199.036 199.746 199.066 199.648C199.126 199.462 199.183 199.279 199.245 199.094C199.281 198.98 199.323 198.869 199.365 198.756C199.424 198.588 199.481 198.421 199.544 198.25C199.589 198.13 199.639 198.014 199.684 197.894C199.747 197.735 199.81 197.571 199.875 197.412C199.926 197.29 199.98 197.17 200.03 197.047C200.099 196.891 200.165 196.736 200.233 196.58C200.287 196.458 200.35 196.332 200.406 196.212C200.478 196.06 200.553 195.907 200.624 195.754C200.687 195.629 200.75 195.506 200.815 195.383C200.89 195.234 200.968 195.081 201.045 194.934C201.114 194.812 201.183 194.686 201.251 194.56C201.332 194.414 201.412 194.264 201.499 194.118C201.571 193.995 201.645 193.869 201.717 193.746C201.803 193.6 201.89 193.456 201.979 193.31C202.057 193.187 202.138 193.061 202.215 192.936C202.269 192.852 202.326 192.762 202.376 192.675C192.786 190.73 180.283 187.205 168.896 180.894L149.444 192.229V192.232ZM194.016 163.152L216.495 150.057C205.516 143.985 193.452 140.61 184.244 138.755C184.22 138.785 184.196 138.818 184.172 138.847C184.068 138.985 183.96 139.126 183.85 139.263C183.754 139.383 183.656 139.506 183.56 139.626C183.447 139.763 183.333 139.901 183.22 140.038C183.118 140.158 183.017 140.278 182.915 140.398C182.799 140.532 182.68 140.67 182.563 140.805C182.462 140.924 182.354 141.041 182.247 141.158C182.125 141.292 182.002 141.427 181.877 141.562C181.769 141.681 181.659 141.798 181.548 141.915C181.423 142.049 181.295 142.178 181.166 142.313C181.053 142.429 180.943 142.543 180.826 142.66C180.698 142.791 180.563 142.923 180.429 143.052C180.31 143.166 180.196 143.279 180.074 143.396C179.937 143.525 179.796 143.656 179.662 143.785C179.54 143.899 179.417 144.012 179.295 144.123C179.155 144.252 179.011 144.38 178.865 144.509C178.74 144.62 178.617 144.734 178.489 144.841C178.343 144.967 178.194 145.096 178.044 145.221C177.913 145.332 177.788 145.443 177.653 145.551C177.504 145.676 177.346 145.802 177.194 145.928C177.059 146.032 176.928 146.14 176.797 146.248C176.635 146.37 176.474 146.496 176.313 146.622C176.179 146.727 176.044 146.831 175.91 146.936C175.746 147.059 175.576 147.184 175.409 147.31C175.268 147.412 175.137 147.511 174.997 147.612C174.824 147.738 174.648 147.864 174.474 147.986C174.334 148.085 174.203 148.181 174.06 148.28C173.877 148.405 173.692 148.531 173.504 148.657C173.367 148.749 173.233 148.842 173.095 148.935C172.898 149.067 172.698 149.195 172.498 149.324C172.367 149.408 172.239 149.495 172.105 149.578C171.881 149.719 171.657 149.86 171.433 149.997L194.016 163.155V163.152ZM219.172 151.607L196.693 164.702L219.348 177.815C219.664 177.641 219.9 177.51 220.145 177.381C220.288 177.303 220.438 177.228 220.587 177.15C220.808 177.037 221.029 176.92 221.252 176.803C221.411 176.723 221.572 176.642 221.727 176.564C221.945 176.456 222.16 176.349 222.378 176.241C222.542 176.157 222.712 176.079 222.879 175.998C223.091 175.897 223.309 175.795 223.521 175.69C223.694 175.609 223.87 175.532 224.04 175.451C224.255 175.352 224.47 175.253 224.682 175.158C224.861 175.077 225.037 174.999 225.222 174.921C225.434 174.828 225.649 174.733 225.864 174.64C226.046 174.562 226.231 174.484 226.413 174.409C226.631 174.32 226.846 174.227 227.064 174.14C227.249 174.062 227.437 173.99 227.625 173.916C227.843 173.829 228.061 173.739 228.279 173.655C228.467 173.581 228.661 173.509 228.852 173.437C229.07 173.353 229.29 173.269 229.514 173.186C229.705 173.114 229.899 173.042 230.093 172.97C230.317 172.892 230.538 172.808 230.762 172.728C230.959 172.659 231.156 172.59 231.35 172.521C231.577 172.443 231.804 172.363 232.031 172.288C232.228 172.222 232.428 172.156 232.625 172.09C232.851 172.013 233.081 171.941 233.308 171.866C233.511 171.803 233.711 171.737 233.914 171.674C234.144 171.603 234.374 171.528 234.606 171.459C234.809 171.396 235.012 171.336 235.215 171.276C235.451 171.208 235.684 171.139 235.917 171.07C236.123 171.01 236.326 170.95 236.535 170.893C236.773 170.828 237.006 170.762 237.245 170.696C237.451 170.639 237.66 170.582 237.866 170.528C238.105 170.465 238.343 170.403 238.582 170.34C238.636 170.325 238.687 170.313 238.74 170.298C235.517 164.956 229.667 157.96 219.172 151.607ZM168.878 177.8L191.357 164.705L168.702 151.592C168.385 151.766 168.147 151.897 167.905 152.026C167.762 152.104 167.612 152.179 167.466 152.257C167.242 152.373 167.021 152.49 166.797 152.604C166.639 152.684 166.481 152.762 166.32 152.843C166.105 152.951 165.89 153.059 165.672 153.166C165.508 153.25 165.341 153.328 165.171 153.409C164.959 153.51 164.741 153.615 164.526 153.714C164.353 153.795 164.183 153.872 164.01 153.953C163.795 154.052 163.583 154.148 163.368 154.246C163.189 154.324 163.01 154.405 162.828 154.483C162.616 154.576 162.398 154.671 162.186 154.764C162.001 154.842 161.816 154.917 161.634 154.995C161.419 155.084 161.204 155.174 160.983 155.264C160.798 155.342 160.61 155.414 160.419 155.491C160.204 155.578 159.986 155.665 159.768 155.752C159.58 155.826 159.386 155.898 159.195 155.97C158.977 156.057 158.756 156.138 158.533 156.221C158.342 156.293 158.148 156.365 157.954 156.437C157.73 156.515 157.509 156.599 157.285 156.679C157.088 156.748 156.891 156.817 156.697 156.886C156.47 156.964 156.246 157.041 156.019 157.116C155.819 157.185 155.622 157.251 155.422 157.317C155.193 157.392 154.966 157.466 154.736 157.541C154.536 157.607 154.336 157.67 154.13 157.733C153.9 157.804 153.67 157.876 153.44 157.948C153.238 158.011 153.032 158.074 152.829 158.134C152.596 158.202 152.36 158.271 152.127 158.34C151.921 158.4 151.718 158.46 151.509 158.517C151.271 158.583 151.038 158.648 150.802 158.714C150.593 158.771 150.384 158.828 150.178 158.885C149.939 158.948 149.701 159.01 149.462 159.073C149.408 159.088 149.357 159.1 149.304 159.115C152.524 164.457 158.377 171.453 168.869 177.809L168.878 177.8ZM194.034 166.255L171.555 179.35C182.533 185.422 194.598 188.797 203.806 190.652C203.83 190.622 203.854 190.589 203.878 190.56C203.982 190.419 204.09 190.281 204.2 190.144C204.296 190.024 204.394 189.901 204.493 189.782C204.603 189.644 204.717 189.509 204.83 189.369C204.931 189.249 205.033 189.129 205.134 189.009C205.251 188.875 205.37 188.737 205.487 188.602C205.588 188.483 205.696 188.366 205.803 188.249C205.925 188.115 206.048 187.98 206.173 187.845C206.281 187.726 206.391 187.609 206.501 187.492C206.627 187.361 206.755 187.226 206.886 187.094C207 186.978 207.11 186.864 207.227 186.747C207.358 186.616 207.492 186.484 207.627 186.352C207.743 186.238 207.86 186.125 207.979 186.011C208.116 185.882 208.257 185.751 208.391 185.622C208.513 185.508 208.636 185.395 208.758 185.284C208.898 185.155 209.042 185.027 209.188 184.898C209.313 184.787 209.436 184.673 209.564 184.566C209.713 184.437 209.859 184.311 210.012 184.186C210.14 184.078 210.268 183.967 210.4 183.86C210.549 183.734 210.707 183.608 210.862 183.479C210.991 183.372 211.122 183.267 211.256 183.159C211.414 183.034 211.579 182.911 211.74 182.785C211.874 182.677 212.008 182.576 212.143 182.471C212.307 182.348 212.477 182.223 212.644 182.097C212.784 181.995 212.916 181.893 213.053 181.795C213.229 181.672 213.405 181.546 213.578 181.421C213.719 181.322 213.85 181.226 213.993 181.13C214.178 181.005 214.36 180.879 214.546 180.753C214.686 180.661 214.817 180.571 214.957 180.478C215.154 180.346 215.354 180.218 215.554 180.089C215.686 180.005 215.814 179.918 215.948 179.835C216.169 179.691 216.396 179.553 216.62 179.416L194.037 166.258L194.034 166.255ZM255.061 169.654C254.814 169.681 254.563 169.708 254.315 169.738C254.109 169.759 253.9 169.783 253.697 169.807C253.447 169.837 253.199 169.87 252.954 169.9C252.748 169.924 252.545 169.951 252.339 169.978C252.088 170.011 251.841 170.043 251.593 170.079C251.39 170.106 251.19 170.136 250.993 170.163C250.742 170.202 250.492 170.238 250.241 170.277C250.041 170.307 249.844 170.337 249.647 170.367C249.396 170.409 249.142 170.447 248.892 170.489C248.701 170.519 248.507 170.552 248.316 170.585C248.059 170.627 247.799 170.675 247.543 170.723C247.358 170.756 247.178 170.786 246.993 170.822C246.725 170.869 246.456 170.923 246.19 170.974C246.023 171.007 245.85 171.037 245.68 171.073C245.388 171.133 245.098 171.193 244.806 171.252C244.665 171.282 244.519 171.309 244.379 171.339C244.056 171.408 243.737 171.48 243.418 171.549C244.083 172.8 244.6 173.931 244.997 174.903C246.841 179.434 247.411 183.686 246.778 187.031C253.276 181.843 257.422 175.741 258.745 169.328C258.643 169.337 258.545 169.34 258.446 169.349C258.234 169.364 258.028 169.379 257.816 169.397C257.566 169.418 257.315 169.439 257.064 169.46C256.855 169.478 256.643 169.499 256.434 169.517C256.184 169.541 255.936 169.565 255.685 169.589C255.476 169.61 255.267 169.631 255.061 169.651V169.654ZM185.847 127.135C174.806 127.922 164.317 130.352 155.401 134.143C161.162 133.766 168.487 134.081 176.292 135.14C177.97 135.367 179.919 135.664 182.074 136.047C182.196 135.861 182.316 135.673 182.435 135.487C182.486 135.403 182.536 135.316 182.59 135.233C182.692 135.065 182.793 134.9 182.889 134.73C182.948 134.628 183.002 134.526 183.059 134.425C183.145 134.272 183.232 134.119 183.318 133.967C183.375 133.859 183.429 133.748 183.486 133.638C183.563 133.491 183.644 133.344 183.712 133.198C183.772 133.084 183.823 132.97 183.88 132.857C183.948 132.713 184.02 132.569 184.086 132.423C184.136 132.309 184.19 132.192 184.241 132.076C184.303 131.932 184.369 131.788 184.432 131.642C184.485 131.525 184.53 131.405 184.578 131.289C184.635 131.145 184.691 131.004 184.745 130.861C184.793 130.741 184.838 130.618 184.879 130.499C184.93 130.355 184.984 130.214 185.032 130.071C185.074 129.951 185.115 129.828 185.154 129.709C185.202 129.565 185.247 129.421 185.291 129.275C185.33 129.155 185.366 129.032 185.399 128.913C185.441 128.769 185.482 128.625 185.518 128.479C185.551 128.356 185.584 128.233 185.614 128.111C185.653 127.967 185.685 127.82 185.718 127.674C185.745 127.551 185.772 127.428 185.799 127.309C185.814 127.252 185.823 127.195 185.835 127.135H185.847ZM202.206 202.269C213.244 201.482 223.733 199.052 232.648 195.264C226.888 195.641 219.563 195.326 211.758 194.267C210.083 194.04 208.131 193.743 205.976 193.36C205.854 193.546 205.734 193.732 205.615 193.92C205.564 194.004 205.516 194.088 205.469 194.168C205.364 194.339 205.263 194.507 205.161 194.677C205.102 194.776 205.051 194.878 204.991 194.973C204.905 195.129 204.812 195.285 204.731 195.44C204.675 195.545 204.618 195.653 204.564 195.76C204.487 195.91 204.406 196.06 204.331 196.209C204.275 196.32 204.221 196.434 204.167 196.541C204.096 196.688 204.027 196.835 203.958 196.981C203.908 197.095 203.854 197.209 203.803 197.322C203.74 197.469 203.675 197.616 203.612 197.759C203.561 197.876 203.514 197.993 203.469 198.109C203.409 198.253 203.352 198.397 203.296 198.543C203.251 198.663 203.206 198.78 203.164 198.899C203.111 199.043 203.057 199.187 203.006 199.333C202.964 199.453 202.926 199.573 202.887 199.692C202.836 199.836 202.791 199.983 202.747 200.126C202.708 200.246 202.672 200.369 202.639 200.488C202.597 200.632 202.556 200.776 202.517 200.922C202.487 201.045 202.457 201.165 202.421 201.287C202.382 201.431 202.35 201.578 202.314 201.724C202.287 201.847 202.257 201.967 202.233 202.089C202.221 202.143 202.212 202.203 202.2 202.26L202.206 202.269ZM132.986 159.753C133.233 159.726 133.481 159.699 133.729 159.672C133.938 159.648 134.147 159.624 134.353 159.6C134.6 159.57 134.845 159.54 135.09 159.51C135.299 159.483 135.505 159.459 135.711 159.429C135.958 159.396 136.203 159.364 136.448 159.331C136.651 159.301 136.857 159.274 137.057 159.244C137.308 159.208 137.552 159.169 137.8 159.133C138 159.103 138.2 159.073 138.4 159.04C138.648 159.001 138.895 158.96 139.143 158.921C139.34 158.888 139.537 158.858 139.731 158.822C139.985 158.78 140.239 158.735 140.489 158.687C140.677 158.654 140.865 158.621 141.054 158.588C141.316 158.538 141.582 158.487 141.844 158.436C142.018 158.403 142.194 158.37 142.367 158.334C142.656 158.277 142.943 158.217 143.229 158.158C143.376 158.125 143.522 158.095 143.668 158.068C143.991 157.999 144.31 157.927 144.629 157.858C143.967 156.608 143.45 155.476 143.05 154.504C141.206 149.973 140.636 145.721 141.268 142.376C134.77 147.564 130.622 153.663 129.302 160.076C129.401 160.07 129.496 160.064 129.598 160.055C129.807 160.04 130.019 160.022 130.228 160.007C130.478 159.986 130.729 159.965 130.98 159.944C131.192 159.923 131.401 159.905 131.613 159.887C131.863 159.866 132.108 159.842 132.359 159.815C132.568 159.794 132.777 159.773 132.983 159.75L132.986 159.753ZM222.028 179.368L241.361 190.56C243.585 188.07 244.226 182.534 241.322 175.403C240.964 174.526 240.501 173.515 239.916 172.399C239.702 172.455 239.49 172.509 239.275 172.566C239.099 172.614 238.925 172.665 238.752 172.713C238.514 172.779 238.269 172.844 238.03 172.916C237.848 172.967 237.669 173.018 237.487 173.072C237.257 173.138 237.027 173.206 236.797 173.275C236.615 173.332 236.433 173.386 236.248 173.443C236.024 173.512 235.803 173.581 235.579 173.649C235.394 173.706 235.212 173.769 235.03 173.826C234.809 173.895 234.589 173.97 234.374 174.041C234.189 174.101 234.006 174.164 233.824 174.227C233.61 174.299 233.395 174.374 233.183 174.448C233.001 174.511 232.819 174.577 232.636 174.64C232.425 174.715 232.213 174.792 232.004 174.867C231.825 174.933 231.646 175.002 231.463 175.068C231.254 175.149 231.049 175.226 230.84 175.304C230.661 175.373 230.484 175.442 230.308 175.511C230.102 175.591 229.896 175.672 229.693 175.756C229.517 175.828 229.344 175.9 229.168 175.968C228.965 176.052 228.759 176.136 228.559 176.223C228.386 176.295 228.213 176.366 228.043 176.438C227.84 176.525 227.64 176.615 227.443 176.702C227.273 176.776 227.106 176.851 226.938 176.923C226.738 177.016 226.538 177.106 226.338 177.195C226.174 177.27 226.01 177.348 225.846 177.423C225.646 177.519 225.446 177.614 225.249 177.71C225.091 177.785 224.933 177.86 224.774 177.937C224.571 178.036 224.369 178.138 224.172 178.24C224.022 178.315 223.873 178.389 223.724 178.464C223.512 178.572 223.306 178.68 223.097 178.79C222.96 178.862 222.825 178.934 222.688 179.006C222.464 179.122 222.246 179.242 222.028 179.365V179.368ZM175.447 137.27C163.159 135.607 153.629 135.996 149.348 137.297L168.681 148.489C168.89 148.363 169.096 148.235 169.302 148.103C169.427 148.025 169.549 147.944 169.669 147.867C169.857 147.744 170.042 147.624 170.23 147.502C170.358 147.415 170.487 147.331 170.612 147.241C170.788 147.125 170.961 147.008 171.134 146.888C171.263 146.798 171.394 146.706 171.522 146.616C171.687 146.499 171.854 146.385 172.015 146.269C172.143 146.173 172.275 146.08 172.4 145.981C172.561 145.865 172.716 145.751 172.872 145.631C172.997 145.536 173.128 145.437 173.251 145.341C173.403 145.224 173.555 145.108 173.704 144.988C173.83 144.889 173.952 144.79 174.077 144.689C174.224 144.569 174.373 144.452 174.513 144.336C174.636 144.234 174.758 144.132 174.877 144.03C175.021 143.911 175.158 143.791 175.298 143.671C175.418 143.57 175.534 143.468 175.65 143.363C175.788 143.24 175.922 143.121 176.053 142.998C176.167 142.896 176.286 142.791 176.397 142.687C176.531 142.564 176.662 142.438 176.791 142.313C176.901 142.211 177.009 142.103 177.119 141.999C177.247 141.873 177.376 141.75 177.501 141.621C177.605 141.517 177.713 141.412 177.817 141.304C177.943 141.179 178.062 141.05 178.185 140.921C178.286 140.814 178.39 140.709 178.489 140.601C178.608 140.472 178.728 140.341 178.847 140.212C178.943 140.107 179.038 140 179.134 139.895C179.253 139.76 179.367 139.626 179.48 139.491C179.572 139.386 179.662 139.281 179.749 139.177C179.865 139.039 179.978 138.898 180.092 138.758C180.175 138.656 180.259 138.554 180.343 138.452C180.441 138.33 180.534 138.204 180.629 138.078C178.71 137.746 176.964 137.48 175.453 137.273L175.447 137.27ZM238.702 192.11L219.369 180.918C219.16 181.044 218.954 181.172 218.751 181.304C218.626 181.385 218.503 181.463 218.381 181.543C218.193 181.666 218.005 181.786 217.82 181.908C217.692 181.995 217.56 182.082 217.435 182.169C217.259 182.285 217.089 182.402 216.918 182.522C216.784 182.615 216.659 182.704 216.527 182.797C216.363 182.914 216.196 183.028 216.035 183.144C215.907 183.24 215.775 183.333 215.644 183.432C215.489 183.548 215.334 183.662 215.178 183.779C215.053 183.877 214.922 183.976 214.796 184.075C214.647 184.192 214.495 184.305 214.346 184.422C214.22 184.524 214.098 184.623 213.972 184.724C213.823 184.841 213.677 184.961 213.537 185.077C213.414 185.179 213.292 185.281 213.173 185.383C213.029 185.502 212.889 185.622 212.752 185.742C212.632 185.843 212.516 185.945 212.399 186.05C212.262 186.173 212.128 186.292 211.993 186.412C211.88 186.517 211.764 186.622 211.653 186.726C211.522 186.849 211.391 186.972 211.262 187.094C211.152 187.199 211.041 187.307 210.934 187.412C210.809 187.534 210.68 187.66 210.558 187.786C210.447 187.893 210.343 187.998 210.241 188.106C210.116 188.231 209.997 188.357 209.874 188.489C209.773 188.594 209.668 188.701 209.57 188.809C209.45 188.938 209.331 189.069 209.215 189.198C209.119 189.303 209.021 189.41 208.925 189.518C208.806 189.653 208.692 189.788 208.576 189.919C208.486 190.024 208.394 190.129 208.307 190.233C208.191 190.371 208.077 190.512 207.961 190.652C207.88 190.754 207.797 190.856 207.713 190.958C207.615 191.08 207.522 191.206 207.424 191.329C209.346 191.664 211.089 191.93 212.605 192.134C224.894 193.797 234.421 193.408 238.705 192.107L238.702 192.11ZM166.018 150.039L146.686 138.847C144.462 141.337 143.82 146.873 146.728 154.004C147.083 154.884 147.545 155.895 148.128 157.008C148.342 156.952 148.557 156.898 148.769 156.841C148.945 156.793 149.118 156.742 149.295 156.694C149.533 156.628 149.778 156.563 150.014 156.494C150.193 156.443 150.375 156.389 150.554 156.335C150.787 156.269 151.02 156.201 151.247 156.132C151.429 156.075 151.611 156.021 151.793 155.964C152.02 155.895 152.244 155.823 152.464 155.755C152.649 155.698 152.832 155.635 153.014 155.578C153.232 155.506 153.455 155.434 153.67 155.363C153.855 155.303 154.034 155.24 154.217 155.18C154.434 155.105 154.649 155.033 154.864 154.956C155.043 154.893 155.225 154.83 155.404 154.764C155.619 154.689 155.834 154.612 156.043 154.534C156.222 154.468 156.401 154.402 156.578 154.333C156.789 154.255 156.995 154.178 157.204 154.097C157.383 154.028 157.56 153.959 157.736 153.89C157.942 153.81 158.148 153.729 158.353 153.645C158.527 153.576 158.7 153.504 158.876 153.433C159.079 153.349 159.282 153.265 159.485 153.178C159.658 153.106 159.828 153.035 159.998 152.96C160.204 152.873 160.404 152.786 160.604 152.696C160.771 152.625 160.938 152.55 161.105 152.475C161.308 152.385 161.508 152.292 161.705 152.2C161.87 152.125 162.034 152.05 162.198 151.975C162.398 151.879 162.598 151.784 162.798 151.688C162.956 151.613 163.114 151.538 163.266 151.461C163.472 151.359 163.672 151.26 163.875 151.155C164.025 151.08 164.174 151.006 164.32 150.931C164.532 150.823 164.741 150.712 164.947 150.605C165.084 150.533 165.219 150.461 165.356 150.389C165.58 150.27 165.798 150.15 166.015 150.027L166.018 150.039Z" fill="#DCFF00" stroke="black" stroke-width="0.217603" stroke-miterlimit="10"/>
<path d="M301.424 212.239C301.938 212.535 301.941 213.017 301.43 213.313L277.244 227.405C276.737 227.701 275.904 227.701 275.394 227.405L269.469 223.975L278.214 218.879C280.62 219.926 284.038 219.819 286.217 218.55C288.392 217.281 288.566 215.297 286.754 213.903L295.499 208.807L301.424 212.236V212.239Z" fill="#DCFF00" stroke="black" stroke-width="0.217603" stroke-miterlimit="10"/>
<path d="M284.731 214.374C286.319 215.292 286.328 216.786 284.749 217.704C283.167 218.626 280.6 218.626 279.009 217.704C277.421 216.786 277.412 215.292 278.991 214.371C280.57 213.452 283.14 213.452 284.728 214.371L284.731 214.374Z" fill="#DCFF00" stroke="black" stroke-width="0.217603" stroke-miterlimit="10"/>
<path d="M294.272 208.102L285.526 213.198C283.121 212.151 279.703 212.258 277.527 213.524C275.348 214.793 275.175 216.78 276.987 218.171L268.241 223.267L262.317 219.838C261.803 219.542 261.8 219.06 262.311 218.764L286.497 204.673C287.007 204.373 287.837 204.376 288.347 204.673L294.272 208.102Z" fill="#DCFF00" stroke="black" stroke-width="0.217603" stroke-miterlimit="10"/>
<path d="M140.628 105.818L148.192 107.021L145.902 108.347L138.951 107.21L136.823 108.443L141.533 110.876L139.491 112.058L126.656 105.426L130.916 102.961C131.787 102.455 132.695 102.12 133.635 101.952C134.575 101.785 135.509 101.773 136.434 101.913C137.357 102.054 138.228 102.335 139.043 102.757C139.858 103.179 140.413 103.634 140.709 104.125C141.001 104.615 141.016 105.118 140.739 105.639C140.706 105.699 140.67 105.762 140.628 105.821V105.818ZM137.864 104.693C137.706 104.439 137.402 104.197 136.957 103.966C136.512 103.736 136.026 103.571 135.545 103.496C135.058 103.419 134.569 103.43 134.068 103.535C133.563 103.637 133.056 103.837 132.536 104.14L130.632 105.244L134.921 107.461L136.843 106.348C137.36 106.049 137.7 105.765 137.858 105.492C138.022 105.22 138.025 104.957 137.867 104.699" fill="#DCFF00"/>
<path d="M137.864 104.693C137.706 104.439 137.402 104.197 136.957 103.966C136.512 103.736 136.026 103.571 135.545 103.496C135.058 103.419 134.569 103.43 134.068 103.535C133.563 103.637 133.056 103.837 132.536 104.14L130.632 105.244L134.921 107.461L136.843 106.348C137.36 106.049 137.7 105.765 137.858 105.492C138.022 105.22 138.025 104.957 137.867 104.699M140.628 105.818L148.192 107.021L145.902 108.347L138.951 107.21L136.823 108.443L141.533 110.876L139.491 112.058L126.656 105.426L130.916 102.961C131.787 102.455 132.695 102.12 133.635 101.952C134.575 101.785 135.509 101.773 136.434 101.913C137.357 102.054 138.228 102.335 139.043 102.757C139.858 103.179 140.413 103.634 140.709 104.125C141.001 104.615 141.016 105.118 140.739 105.639C140.706 105.699 140.67 105.762 140.628 105.821V105.818Z" stroke="black" stroke-width="0.217603" stroke-miterlimit="10"/>
<path d="M126.911 108.423C128.356 108.668 129.764 109.147 131.149 109.862C132.534 110.577 133.487 111.316 134.012 112.088C134.543 112.86 134.672 113.612 134.406 114.336C134.137 115.06 133.507 115.709 132.511 116.287C131.514 116.864 130.355 117.247 129.039 117.436C127.729 117.624 126.35 117.597 124.911 117.352C123.47 117.11 122.064 116.631 120.685 115.919C119.306 115.207 118.342 114.461 117.813 113.686C117.285 112.914 117.157 112.163 117.425 111.436C117.691 110.709 118.324 110.057 119.324 109.476C120.324 108.896 121.47 108.518 122.783 108.333C124.093 108.147 125.469 108.177 126.908 108.42L126.911 108.423ZM131.155 112.564C130.749 112.062 130.063 111.556 129.09 111.053C128.117 110.55 127.144 110.197 126.201 110.003C125.254 109.811 124.371 109.763 123.547 109.859C122.72 109.958 122.001 110.182 121.383 110.541C120.765 110.9 120.386 111.31 120.258 111.771C120.13 112.229 120.264 112.714 120.667 113.22C121.067 113.725 121.759 114.234 122.732 114.737C123.705 115.239 124.66 115.584 125.61 115.775C126.553 115.964 127.439 116.009 128.269 115.913C129.099 115.817 129.827 115.59 130.448 115.227C131.069 114.865 131.436 114.464 131.567 114.007C131.696 113.552 131.555 113.07 131.152 112.564" fill="#DCFF00"/>
<path d="M131.155 112.564C130.749 112.062 130.063 111.556 129.09 111.053C128.117 110.55 127.144 110.197 126.201 110.003C125.254 109.811 124.371 109.763 123.547 109.859C122.72 109.958 122.001 110.182 121.383 110.541C120.765 110.9 120.386 111.31 120.258 111.771C120.13 112.229 120.264 112.714 120.667 113.22C121.067 113.725 121.759 114.234 122.732 114.737C123.705 115.239 124.66 115.584 125.61 115.775C126.553 115.964 127.439 116.009 128.269 115.913C129.099 115.817 129.827 115.59 130.448 115.227C131.069 114.865 131.436 114.464 131.567 114.007C131.696 113.552 131.555 113.07 131.152 112.564M126.911 108.423C128.356 108.668 129.764 109.147 131.149 109.862C132.534 110.577 133.487 111.316 134.012 112.088C134.543 112.86 134.672 113.612 134.406 114.336C134.137 115.06 133.507 115.709 132.511 116.287C131.514 116.864 130.355 117.247 129.039 117.436C127.729 117.624 126.35 117.597 124.911 117.352C123.47 117.11 122.064 116.631 120.685 115.919C119.306 115.207 118.342 114.461 117.813 113.686C117.285 112.914 117.157 112.163 117.425 111.436C117.691 110.709 118.324 110.057 119.324 109.476C120.324 108.896 121.47 108.518 122.783 108.333C124.093 108.147 125.469 108.177 126.908 108.42L126.911 108.423Z" stroke="black" stroke-width="0.217603" stroke-miterlimit="10"/>
<path d="M98.9219 121.479L115.828 125.755L113.586 127.05L109.44 125.967L105.172 128.436L107.417 130.62L105.184 131.913L96.3281 122.978L98.9189 121.479H98.9219ZM103.865 127.167L107.026 125.339L104.892 124.782C104.002 124.543 103.017 124.258 101.934 123.932C101.158 123.699 100.313 123.442 99.3935 123.16C99.9726 123.648 100.504 124.1 100.981 124.51C101.653 125.081 102.229 125.593 102.71 126.045L103.865 127.167Z" fill="#DCFF00" stroke="black" stroke-width="0.217603" stroke-miterlimit="10"/>
<path d="M86.9641 128.208C87.776 127.738 88.6445 127.409 89.5728 127.217C90.5011 127.026 91.4144 126.975 92.3159 127.064C93.2173 127.154 94.0321 127.379 94.7604 127.738L92.7785 128.884C92.1756 128.629 91.5309 128.534 90.8444 128.603C90.1578 128.668 89.5072 128.881 88.8893 129.24C88.4595 129.488 88.167 129.737 88.0028 129.991C87.8387 130.245 87.8058 130.488 87.8924 130.712C87.976 130.94 88.1849 131.137 88.5102 131.305C88.8654 131.49 89.2594 131.583 89.6862 131.589C90.1101 131.592 90.5399 131.544 90.9787 131.445C91.4145 131.344 91.8264 131.227 92.2204 131.095L93.5934 130.637C94.1306 130.452 94.6918 130.293 95.2828 130.162C95.8678 130.03 96.4677 129.946 97.0766 129.91C97.6826 129.874 98.2915 129.91 98.8914 130.015C99.4943 130.12 100.073 130.317 100.629 130.604C101.381 130.994 101.873 131.433 102.1 131.924C102.33 132.418 102.282 132.936 101.96 133.468C101.634 134.004 101.02 134.537 100.112 135.06C99.2048 135.584 98.3094 135.937 97.3483 136.149C96.3901 136.365 95.426 136.428 94.4709 136.335C93.5098 136.242 92.5964 135.985 91.7189 135.566L93.7307 134.402C94.2172 134.611 94.7127 134.731 95.2261 134.764C95.7424 134.794 96.2439 134.746 96.7423 134.617C97.2408 134.489 97.7035 134.3 98.1333 134.052C98.584 133.791 98.9004 133.522 99.0884 133.244C99.2794 132.966 99.3302 132.696 99.2436 132.442C99.16 132.184 98.9362 131.963 98.569 131.772C98.2377 131.601 97.8766 131.505 97.4826 131.493C97.0945 131.478 96.6677 131.52 96.2081 131.622C95.7484 131.724 95.2559 131.861 94.7276 132.044L93.0531 132.594C91.8264 133.004 90.6653 133.217 89.5728 133.241C88.4834 133.262 87.4864 133.037 86.5791 132.568C85.8209 132.176 85.3404 131.73 85.1314 131.224C84.9225 130.721 84.9792 130.207 85.2956 129.683C85.609 129.156 86.1642 128.665 86.9581 128.205L86.9641 128.208Z" fill="#DCFF00" stroke="black" stroke-width="0.217603" stroke-miterlimit="10"/>
<path d="M72.8797 138.811C73.8259 138.967 74.7064 139.254 75.5213 139.676C76.3361 140.098 76.9152 140.565 77.2465 141.074C77.5748 141.582 77.6256 142.106 77.3898 142.642C77.157 143.18 76.5988 143.704 75.7213 144.21L73.5334 145.475L77.8763 147.72L75.8347 148.902L63 142.271L67.2593 139.805C68.1309 139.299 69.0502 138.97 70.0143 138.814C70.9754 138.659 71.9335 138.659 72.8797 138.811ZM74.4169 141.645C74.2169 141.373 73.8886 141.119 73.4349 140.885C72.9812 140.652 72.5007 140.487 71.9992 140.397C71.4918 140.308 70.9754 140.308 70.4471 140.397C69.9218 140.487 69.3994 140.685 68.8801 140.987L66.9758 142.091L71.644 144.503L73.5662 143.39C74.0796 143.094 74.402 142.794 74.5303 142.501C74.6557 142.208 74.6199 141.923 74.4199 141.648" fill="#DCFF00"/>
<path d="M74.4169 141.645C74.2169 141.373 73.8886 141.119 73.4349 140.885C72.9812 140.652 72.5007 140.487 71.9992 140.397C71.4918 140.308 70.9754 140.308 70.4471 140.397C69.9218 140.487 69.3994 140.685 68.8801 140.987L66.9758 142.091L71.644 144.503L73.5662 143.39C74.0796 143.094 74.402 142.794 74.5303 142.501C74.6557 142.208 74.6199 141.923 74.4199 141.648M72.8797 138.811C73.8259 138.967 74.7064 139.254 75.5213 139.676C76.3361 140.098 76.9152 140.565 77.2465 141.074C77.5748 141.582 77.6256 142.106 77.3898 142.642C77.157 143.18 76.5988 143.704 75.7213 144.21L73.5334 145.475L77.8763 147.72L75.8347 148.902L63 142.271L67.2593 139.805C68.1309 139.299 69.0502 138.97 70.0143 138.814C70.9754 138.659 71.9335 138.659 72.8797 138.811Z" stroke="black" stroke-width="0.217603" stroke-miterlimit="10"/>
<path d="M77.6593 133.786L94.5623 138.062L92.3207 139.358L88.1748 138.275L83.9095 140.744L86.1541 142.928L83.9184 144.221L75.0625 135.285L77.6563 133.783L77.6593 133.786ZM82.6021 139.475L85.7601 137.646L83.6259 137.09C82.7394 136.847 81.7544 136.566 80.668 136.24C79.8919 136.007 79.0472 135.749 78.1249 135.468C78.707 135.959 79.2353 136.408 79.7158 136.818C80.3844 137.389 80.9635 137.901 81.444 138.353L82.5992 139.475" fill="#DCFF00"/>
<path d="M82.6021 139.475L85.7601 137.646L83.6259 137.09C82.7394 136.847 81.7544 136.566 80.668 136.24C79.8919 136.007 79.0472 135.749 78.1249 135.468C78.707 135.959 79.2353 136.408 79.7158 136.818C80.3844 137.389 80.9635 137.901 81.444 138.353L82.5992 139.475M77.6593 133.786L94.5623 138.062L92.3207 139.358L88.1748 138.275L83.9095 140.744L86.1541 142.928L83.9184 144.221L75.0625 135.285L77.6563 133.783L77.6593 133.786Z" stroke="black" stroke-width="0.217603" stroke-miterlimit="10"/>
<path d="M114.395 114.781C115.342 114.937 116.225 115.221 117.04 115.643C117.855 116.065 118.434 116.532 118.765 117.04C119.093 117.549 119.144 118.073 118.905 118.611C118.673 119.15 118.114 119.674 117.24 120.179L115.049 121.448L119.392 123.692L117.35 124.874L104.516 118.243L108.775 115.777C109.647 115.272 110.566 114.943 111.53 114.787C112.491 114.631 113.449 114.631 114.395 114.784V114.781ZM115.93 117.615C115.733 117.343 115.401 117.085 114.951 116.852C114.5 116.618 114.016 116.454 113.512 116.364C113.007 116.271 112.488 116.274 111.96 116.364C111.434 116.454 110.912 116.651 110.393 116.954L108.488 118.058L113.157 120.47L115.079 119.356C115.595 119.057 115.915 118.761 116.043 118.468C116.171 118.174 116.135 117.89 115.933 117.615" fill="#DCFF00"/>
<path d="M115.93 117.615C115.733 117.343 115.401 117.085 114.951 116.852C114.5 116.618 114.016 116.454 113.512 116.364C113.007 116.271 112.488 116.274 111.96 116.364C111.434 116.454 110.912 116.651 110.393 116.954L108.488 118.058L113.157 120.47L115.079 119.356C115.595 119.057 115.915 118.761 116.043 118.468C116.171 118.174 116.135 117.89 115.933 117.615M114.395 114.781C115.342 114.937 116.225 115.221 117.04 115.643C117.855 116.065 118.434 116.532 118.765 117.04C119.093 117.549 119.144 118.073 118.905 118.611C118.673 119.15 118.114 119.674 117.24 120.179L115.049 121.448L119.392 123.692L117.35 124.874L104.516 118.243L108.775 115.777C109.647 115.272 110.566 114.943 111.53 114.787C112.491 114.631 113.449 114.631 114.395 114.784V114.781Z" stroke="black" stroke-width="0.217603" stroke-miterlimit="10"/>
<path d="M145.441 94.5508L147.378 95.5532L143.868 97.5851L154.763 103.217L152.724 104.399L141.826 98.7671L138.307 100.805L136.367 99.8025L145.441 94.5508Z" fill="#DCFF00" stroke="black" stroke-width="0.217603" stroke-miterlimit="10"/>
<path d="M154.624 89.2344L156.564 90.2368L151.198 93.34L154.66 95.1294L159.627 92.2567L161.537 93.2442L156.573 96.1169L160.155 97.9693L165.548 94.8482L167.489 95.8506L160.053 100.154L147.219 93.5195L154.624 89.2344Z" fill="#DCFF00" stroke="black" stroke-width="0.217603" stroke-miterlimit="10"/>
<path opacity="0.25" d="M329.545 261.32C325.017 258.699 317.994 258.806 313.212 261.574L293.035 273.254C292.498 273.565 292.313 274.253 292.623 274.795C292.934 275.333 293.62 275.519 294.16 275.208L314.338 263.528C318.415 261.17 324.597 261.057 328.426 263.265C330.017 264.187 330.891 265.318 330.891 266.452C330.891 267.712 329.832 269.052 327.981 270.121L301.178 285.639C297.859 287.558 293.038 287.665 289.967 285.894L289.797 285.78C288.567 285.023 287.889 284.101 287.889 283.174C287.889 282.246 288.597 281.226 289.973 280.448L307.932 270.058C310.693 268.675 313.941 268.675 316.699 270.058C317.645 270.602 318.188 271.291 318.188 271.943C318.188 272.595 317.645 273.281 316.699 273.828L305.395 280.388C304.831 280.657 304.595 281.336 304.864 281.899C305.133 282.464 305.81 282.701 306.371 282.431C306.425 282.405 306.476 282.378 306.523 282.342L317.827 275.782C319.507 274.804 320.433 273.445 320.433 271.943C320.433 270.441 319.507 269.109 317.827 268.104C314.371 266.314 310.263 266.314 306.807 268.104L288.847 278.502C286.779 279.699 285.633 281.336 285.633 283.177C285.701 284.801 286.54 286.295 287.886 287.198C288.191 287.435 288.507 287.65 288.841 287.842C290.788 288.91 292.981 289.452 295.199 289.413C297.688 289.428 300.139 288.799 302.312 287.584L329.116 272.066C331.721 270.564 333.148 268.568 333.148 266.449C333.133 264.465 331.862 262.646 329.545 261.314V261.32Z" fill="black"/>
<path d="M328.14 260.123C323.612 257.501 316.588 257.609 311.807 260.377L291.629 272.056C291.092 272.371 290.91 273.059 291.223 273.598C291.537 274.136 292.223 274.319 292.761 274.005L312.938 262.331C317.006 259.973 323.197 259.859 327.017 262.077C328.608 262.989 329.483 264.124 329.483 265.258C329.483 266.517 328.423 267.858 326.578 268.926L299.769 284.436C296.45 286.363 291.629 286.477 288.558 284.699L287.848 284.191C287.57 283.993 287.307 283.766 287.092 283.502C286.695 283.015 286.484 282.497 286.484 281.979C286.484 281.001 287.191 280.031 288.567 279.253L306.527 268.855C309.29 267.484 312.535 267.484 315.302 268.855C316.242 269.408 316.785 270.093 316.785 270.746C316.785 271.398 316.242 272.083 315.302 272.631L303.963 279.196C303.425 279.511 303.243 280.199 303.557 280.737C303.87 281.276 304.557 281.459 305.094 281.144L316.397 274.585C318.078 273.607 319.003 272.248 319.003 270.746C319.003 269.244 318.078 267.912 316.397 266.906C312.941 265.117 308.834 265.117 305.377 266.906L287.412 277.305C285.349 278.502 284.203 280.139 284.203 281.979C284.266 283.431 284.94 284.777 286.045 285.693L286.051 285.699L286.06 285.705C286.185 285.81 286.316 285.908 286.454 286.001C286.454 286.001 286.901 286.306 287.119 286.447L287.188 286.495H287.191C287.272 286.543 287.352 286.597 287.436 286.645C289.382 287.713 291.576 288.254 293.793 288.216C296.283 288.231 298.733 287.602 300.906 286.387L327.752 270.868C330.345 269.366 331.778 267.37 331.778 265.252C331.727 263.283 330.456 261.454 328.14 260.117V260.123Z" fill="#DCFF00" stroke="black" stroke-width="0.217603" stroke-miterlimit="10"/>
<g opacity="0.25" style="mix-blend-mode:multiply">
<path d="M240.48 15.4919C246.709 11.889 252.723 9.19581 260.036 8.46267C248.7 7.4243 240.695 10.6412 232.313 15.4919C225.929 19.1875 217.037 26.5578 215.195 35.1611C216.306 40.0626 220.171 45.1528 228.299 50.0484C214.643 35.7655 230.588 21.2164 240.48 15.4919Z" fill="black"/>
</g>
<g opacity="0.25" style="mix-blend-mode:multiply">
<path d="M341.707 115.647C324.756 98.9822 335.519 78.1101 348.912 70.3537C352.154 68.5642 355.739 67.484 359.425 67.1877C352.357 66.5713 345.874 67.3942 340.761 70.3537C333.078 74.8005 326.272 83.5653 325.055 93.3714C326.055 100.954 330.762 108.738 341.194 115.348L341.704 115.647H341.707Z" fill="black"/>
</g>
<path opacity="0.15" d="M328.55 46.759C329.012 48.1984 329.162 49.7215 328.986 51.2207C331.564 51.7115 334.06 52.5733 336.394 53.7823C340.017 45.9301 331.17 35.9085 318.398 27.0898C326.141 33.8767 330.666 40.864 328.55 46.759Z" fill="black"/>
<path opacity="0.25" d="M320.457 60.6798C311.72 65.0517 295.996 68.9269 278.586 69.4506C298.33 70.091 316.983 66.0662 327.364 61.2693C325.098 60.7546 322.776 60.5571 320.457 60.6798Z" fill="black"/>
<path opacity="0.15" d="M431.872 95.0237C428.779 92.0672 425.436 89.383 421.888 86.998C422.544 87.5756 423.159 88.1501 423.717 88.7277C429.964 94.9489 431.636 99.8804 430.084 104.222C432.448 111.488 426.777 116.856 417.109 122.449C409.384 126.923 395.367 132.252 379.438 133.042C398.648 134.039 416.246 127.674 425.266 122.449C438.593 114.735 444.345 107.451 431.875 95.0267L431.872 95.0237Z" fill="black"/>
<g opacity="0.15" style="mix-blend-mode:multiply">
<path d="M193.418 27.5292C200.143 34.2712 212.727 36.3 213.348 34.4836C213.969 32.6672 220.577 23.0795 214.879 22.8251C209.178 22.5708 191.213 25.2999 193.421 27.5292H193.418Z" fill="black"/>
</g>
<g opacity="0.15" style="mix-blend-mode:multiply">
<path d="M402.156 147.314C407.01 149.777 424.686 154.942 430.81 150.866C436.935 146.791 427.473 131.532 428.509 130.3C429.545 129.067 433.443 123.172 424.53 120.077C415.615 116.98 412.296 119.641 411.227 121.547C410.159 123.456 402.156 147.314 402.156 147.314Z" fill="black"/>
</g>
<path d="M192.921 20.1592C192.804 21.82 194.923 23.2624 197.786 23.4509C249.366 26.9101 276.221 35.9173 307.14 54.1262C310.486 56.0982 313.886 58.1061 317.39 60.129L420.951 120.097L424.545 118.014L426.846 119.34L420.951 122.742L317.39 62.7743C313.889 60.7514 310.489 58.7375 307.14 56.7715C276.221 38.5567 248.429 31.6382 197.654 28.9959C194.78 28.8462 192.306 27.347 192.443 25.6743L192.921 20.1562V20.1592Z" fill="#082422" stroke="black" stroke-width="0.217603" stroke-miterlimit="10"/>
<path d="M192.921 20.106C192.778 21.7847 194.912 23.236 197.786 23.4275C249.367 26.8868 276.221 35.894 307.141 54.1029C310.487 56.0749 313.886 58.0828 317.39 60.1057L420.951 120.074L426.835 116.665L323.274 56.6973C319.787 54.6864 316.405 52.6605 313.077 50.7304C282.42 32.6891 255.838 15.6592 199.917 10.201C196.667 9.88384 193.664 11.2903 193.503 13.1935L192.921 20.106Z" fill="#11564F" stroke="black" stroke-width="0.217603" stroke-miterlimit="10"/>
<path d="M337.668 70.1105C341.172 72.1394 344.634 74.1054 348.019 76.0445C379.479 93.9182 395.066 109.488 401.014 139.34C401.349 141.007 403.862 142.222 406.766 142.159L418.711 141.818C422.001 141.725 424.433 139.99 423.887 138.11C424.433 140.046 424.514 142.913 423.83 144.765C423.806 144.849 423.776 144.93 423.744 145.008V145.044C423.093 146.295 421.15 147.252 418.735 147.351L404.93 147.686C402.056 147.773 399.525 146.534 399.179 144.873C392.681 111.786 379.521 96.6323 348.058 78.7347C344.652 76.7986 341.19 74.8295 337.706 72.8007L234.148 12.8295L236.45 11.5039L337.671 70.1105H337.668Z" fill="#082422" stroke="black" stroke-width="0.217603" stroke-miterlimit="10"/>
<path d="M406.772 142.159C403.898 142.24 401.367 141.007 401.021 139.341C395.084 109.482 379.497 93.9425 348.037 76.0389C344.632 74.1028 341.169 72.1338 337.686 70.1049L234.125 10.1368L240.008 6.73438L343.569 66.7025C347.055 68.7134 350.494 70.6794 353.888 72.6006C385.061 90.3486 414.473 105.733 423.905 138.105C424.481 139.984 422.025 141.72 418.73 141.812L406.772 142.159Z" fill="#11564F" stroke="black" stroke-width="0.217603" stroke-miterlimit="10"/>
<g opacity="0.25" style="mix-blend-mode:multiply">
<path d="M275.674 11.9696C298.135 19.5164 341.489 45.8587 319.96 58.3192C310.695 63.6816 290.563 68.3169 269.502 67.4191C286.503 66.7219 301.711 62.8048 309.406 58.3192C330.932 45.8587 287.578 19.5194 265.12 11.9696C260.458 10.3387 255.64 9.20157 250.742 8.57316C257.518 7.68441 265.404 8.51032 275.674 11.9696Z" fill="black"/>
</g>
<g opacity="0.25" style="mix-blend-mode:multiply">
<path d="M404.202 121.082C415.974 114.265 422.257 107.906 410.288 95.9811C400.51 86.2707 372.668 69.8094 350.219 67.3048C373.542 64.2016 409.458 84.6668 420.842 95.9811C432.805 107.906 426.525 114.265 414.756 121.082C406.888 125.63 389.391 132.384 370.154 130.992C385.046 129.936 397.815 124.783 404.202 121.082Z" fill="black"/>
</g>
<path opacity="0.5" d="M319.961 52.018C304.903 60.732 261.163 67.5457 231.342 51.7637C200.225 35.2964 220.558 16.0132 232.327 9.18748C244.093 2.36176 255.08 -1.26206 275.675 5.6654C298.136 13.2183 341.49 39.5576 319.961 52.021V52.018ZM340.759 64.0506C325.695 72.7705 313.929 98.0714 341.195 115.371C369.625 133.355 402.984 121.592 414.75 114.781C426.516 107.97 432.799 101.605 420.836 89.6806C407.786 76.6846 362.286 51.5901 340.756 64.0506H340.759Z" fill="white" stroke="black" stroke-width="0.217603" stroke-miterlimit="10"/>
<path d="M238.25 6.54549C238.25 7.57788 237.895 8.27511 237.307 8.63719L229.427 13.1917C230.098 12.7218 230.462 11.9199 230.376 11.1029C230.256 8.84966 229.071 6.79087 227.185 5.56098C226.531 5.08519 225.669 5.0014 224.938 5.34254L232.817 0.788069C233.552 0.446932 234.408 0.53072 235.065 1.00053C236.948 2.23042 238.133 4.2892 238.253 6.5425L238.25 6.54549Z" fill="#DCFF00" stroke="black" stroke-width="0.217603" stroke-miterlimit="10"/>
<path d="M230.374 11.1063C230.374 13.1471 228.941 13.988 227.183 12.9736C225.297 11.7467 224.109 9.68491 223.992 7.43161C223.992 5.38479 225.419 4.54991 227.183 5.56434C229.069 6.79423 230.257 8.85301 230.374 11.1063Z" fill="#BBD900" stroke="black" stroke-width="0.217603" stroke-miterlimit="10"/>
<path d="M228.636 10.1043C228.636 11.032 227.985 11.412 227.185 10.9512C226.328 10.3946 225.791 9.45794 225.734 8.43753C225.734 7.50988 226.385 7.12984 227.185 7.58469C228.042 8.14427 228.579 9.0809 228.636 10.1043Z" fill="#6B67E9" stroke="black" stroke-width="0.217603" stroke-miterlimit="10"/>
<path d="M275.674 11.9697C255.079 5.05122 244.092 8.67803 232.326 15.4858C225.947 19.1814 217.073 26.5518 215.226 35.143C212.695 23.9514 224.428 13.7562 232.326 9.19572C244.092 2.38497 255.079 -1.25382 275.674 5.67963C295.281 12.2689 330.804 33.174 325.189 46.6728C320.778 33.6827 292.422 17.5984 275.674 11.9727V11.9697Z" fill="#BBD900" stroke="black" stroke-width="0.217603" stroke-miterlimit="10"/>
<path d="M420.819 89.681C426.836 95.6838 428.239 100.274 426.645 104.224C425.771 101.779 423.914 99.0682 420.819 95.983C407.769 82.9869 362.269 57.8925 340.739 70.3529C333.089 74.7997 326.293 83.5346 325.048 93.3377C323.448 81.1197 331.472 69.4253 340.76 64.0449C362.287 51.5905 407.787 76.6849 420.816 89.681H420.819Z" fill="#BBD900" stroke="black" stroke-width="0.217603" stroke-miterlimit="10"/>
<path d="M329.065 43.8633V50.0905C329.053 50.4586 329.014 50.8266 328.954 51.1917C327.954 50.9912 326.925 50.8296 325.883 50.7129C328.041 48.6422 329.029 46.326 329.065 43.8633Z" fill="#CED3F8" stroke="black" stroke-width="0.217603" stroke-miterlimit="10"/>
<path d="M211.508 32.2178C211.6 38.6486 215.707 45.4802 226.829 51.9259C227.554 52.3419 228.309 52.7548 229.094 53.1708C259.981 69.5244 303.437 62.8752 320.444 54.3648V60.6668C303.437 69.1772 259.978 75.8264 229.094 59.4728C228.303 59.0569 227.548 58.6439 226.829 58.228C215.684 51.7703 211.576 44.9147 211.508 38.472V32.2148V32.2178Z" fill="#BBD900" stroke="black" stroke-width="0.217603" stroke-miterlimit="10"/>
<path d="M332.371 56.873C335.547 58.7073 337.087 61.227 336.685 63.7915C336.07 64.2014 335.464 64.6443 334.867 65.1051C334.13 64.3541 333.288 63.7077 332.371 63.19C329.196 61.3497 324.85 60.4579 320.453 60.6943V54.3743C324.847 54.126 329.196 55.0327 332.371 56.87V56.873Z" fill="#BBD900" stroke="black" stroke-width="0.217603" stroke-miterlimit="10"/>
<path d="M338.744 116.652C339.463 117.107 340.183 117.541 340.908 117.96C369.804 134.681 403.392 124.082 417.11 116.137C425.289 111.409 430.605 106.837 430.62 101.145V107.402C430.62 113.118 425.328 117.699 417.125 122.439C403.407 130.384 369.819 140.989 340.923 124.262C340.198 123.84 339.478 123.409 338.759 122.954C326.106 114.949 321.453 105.499 321.453 96.6086V90.3574C321.447 99.2329 326.13 108.665 338.741 116.652H338.744Z" fill="#BBD900" stroke="black" stroke-width="0.217603" stroke-miterlimit="10"/>
<path d="M226.832 51.9376C227.557 52.3536 228.313 52.7665 229.098 53.1825C259.984 69.5361 303.44 62.8869 320.448 54.3764C324.841 54.14 329.19 55.0348 332.366 56.8721C335.542 58.7125 337.082 61.2261 336.679 63.7906C321.973 73.6327 310.493 98.787 338.739 116.667C339.458 117.122 340.177 117.555 340.903 117.974C369.799 134.696 403.387 124.097 417.105 116.152C430.438 108.444 436.19 101.16 423.713 88.7324C419.561 84.5909 412.574 79.5517 404.545 74.8925C385.29 63.7457 359.889 54.7685 342.974 60.6216C342.186 58.2127 340.189 55.9505 337.073 54.146C333.611 52.2608 329.802 51.1027 325.88 50.7377C336.007 40.9345 320.495 26.2417 301.234 15.0979C293.181 10.4507 284.499 6.40192 277.347 3.99901C255.871 -3.22171 243.299 0.111848 229.972 7.82631C216.248 15.7592 197.936 35.204 226.832 51.9316V51.9376ZM340.759 64.045C362.286 51.5905 407.786 76.6849 420.815 89.681C432.778 101.606 426.498 107.965 414.729 114.781C402.963 121.598 369.625 133.355 341.168 115.359C313.929 98.0897 325.698 72.7709 340.759 64.0509V64.045ZM232.327 9.18487C244.093 2.37412 255.08 -1.26467 275.676 5.66279C298.136 13.2157 341.491 39.555 319.961 52.0184C304.903 60.7323 261.163 67.5461 231.342 51.7641C200.225 35.2968 220.558 16.0016 232.327 9.18787V9.18487Z" fill="#F6F6FB" stroke="black" stroke-width="0.217603" stroke-miterlimit="10"/>
<path d="M319.961 52.018C304.903 60.732 261.163 67.5457 231.342 51.7637C200.225 35.2964 220.558 16.0132 232.327 9.18748C244.093 2.36176 255.08 -1.26206 275.675 5.6654C298.136 13.2183 341.49 39.5576 319.961 52.021V52.018Z" fill="url(#paint0_linear_14997_18408)" style="mix-blend-mode:multiply"/>
<path d="M319.961 52.018C304.903 60.732 261.163 67.5457 231.342 51.7637C200.225 35.2964 220.558 16.0132 232.327 9.18748C244.093 2.36176 255.08 -1.26206 275.675 5.6654C298.136 13.2183 341.49 39.5576 319.961 52.021V52.018Z" stroke="black" stroke-width="0.217603" stroke-miterlimit="10"/>
<path d="M254.404 12.7468C256.947 11.2776 256.941 8.8896 254.404 7.42032C251.867 5.95104 247.745 5.95104 245.202 7.42032C242.659 8.8896 242.665 11.2656 245.202 12.7379C247.739 14.2071 251.867 14.2131 254.404 12.7498V12.7468ZM420.876 99.551C423.413 98.0817 423.413 95.6938 420.876 94.2245C417.984 92.7492 414.566 92.7492 411.674 94.2245C409.137 95.6938 409.137 98.0758 411.674 99.548C414.211 101.017 418.333 101.017 420.876 99.554V99.551Z" fill="#A5ABCC"/>
<path d="M254.404 12.7468C256.947 11.2776 256.941 8.8896 254.404 7.42032C251.867 5.95104 247.745 5.95104 245.202 7.42032C242.659 8.8896 242.665 11.2656 245.202 12.7379C247.739 14.2071 251.867 14.2131 254.404 12.7498V12.7468ZM420.876 99.551C423.413 98.0817 423.413 95.6938 420.876 94.2245C417.984 92.7492 414.566 92.7492 411.674 94.2245C409.137 95.6938 409.137 98.0758 411.674 99.548C414.211 101.017 418.333 101.017 420.876 99.554V99.551Z" stroke="black" stroke-width="0.217603" stroke-miterlimit="10"/>
<path d="M340.766 64.0516C325.702 72.7715 313.936 98.0725 341.202 115.372C369.633 133.356 402.991 121.593 414.757 114.782C426.523 107.971 432.806 101.607 420.843 89.6817C407.793 76.6856 362.293 51.5912 340.763 64.0516H340.766Z" fill="url(#paint1_linear_14997_18408)" style="mix-blend-mode:multiply"/>
<path d="M340.766 64.0516C325.702 72.7715 313.936 98.0725 341.202 115.372C369.633 133.356 402.991 121.593 414.757 114.782C426.523 107.971 432.806 101.607 420.843 89.6817C407.793 76.6856 362.293 51.5912 340.763 64.0516H340.766Z" stroke="black" stroke-width="0.217603" stroke-miterlimit="10"/>
<path d="M226.832 51.9376C227.557 52.3536 228.313 52.7665 229.098 53.1825C259.984 69.5361 303.44 62.8869 320.448 54.3764C324.841 54.14 329.19 55.0348 332.366 56.8721C335.542 58.7125 337.082 61.2261 336.679 63.7906C321.973 73.6327 310.493 98.787 338.739 116.667C339.458 117.122 340.177 117.555 340.903 117.974C369.799 134.696 403.387 124.097 417.105 116.152C430.438 108.444 436.19 101.16 423.713 88.7324C419.561 84.5909 412.574 79.5517 404.545 74.8925C385.29 63.7457 359.889 54.7685 342.974 60.6216C342.186 58.2127 340.189 55.9505 337.073 54.146C333.611 52.2608 329.802 51.1027 325.88 50.7377C336.007 40.9345 320.495 26.2417 301.234 15.0979C293.181 10.4507 284.499 6.40192 277.347 3.99901C255.871 -3.22171 243.299 0.111848 229.972 7.82631C216.248 15.7592 197.936 35.204 226.832 51.9316V51.9376ZM340.759 64.045C362.286 51.5905 407.786 76.6849 420.815 89.681C432.778 101.606 426.498 107.965 414.729 114.781C402.963 121.598 369.625 133.355 341.168 115.359C313.929 98.0897 325.698 72.7709 340.759 64.0509V64.045ZM232.327 9.18487C244.093 2.37412 255.08 -1.26467 275.676 5.66279C298.136 13.2157 341.491 39.555 319.961 52.0184C304.903 60.7323 261.163 67.5461 231.342 51.7641C200.225 35.2968 220.558 16.0016 232.327 9.18787V9.18487Z" fill="#DCFF00" stroke="black" stroke-width="0.217603" stroke-miterlimit="10"/>
<path d="M432.404 118.825C432.491 119.642 432.127 120.441 431.455 120.914L423.575 125.469C424.247 124.999 424.611 124.197 424.524 123.38C424.405 121.127 423.217 119.068 421.334 117.838C420.677 117.365 419.82 117.281 419.086 117.619L426.966 113.065C427.7 112.724 428.56 112.808 429.213 113.283C431.1 114.513 432.288 116.572 432.404 118.825Z" fill="#DCFF00" stroke="black" stroke-width="0.217603" stroke-miterlimit="10"/>
<path d="M424.522 123.38C424.522 125.427 423.089 126.261 421.331 125.247C419.442 124.02 418.254 121.958 418.141 119.705C418.141 117.658 419.567 116.823 421.331 117.838C423.218 119.068 424.403 121.126 424.522 123.38Z" fill="#BBD900" stroke="black" stroke-width="0.217603" stroke-miterlimit="10"/>
<path d="M422.776 122.376C422.776 123.303 422.126 123.683 421.326 123.222C420.469 122.666 419.929 121.732 419.875 120.709C419.875 119.781 420.526 119.401 421.326 119.862C422.182 120.419 422.723 121.352 422.776 122.376Z" fill="#11564F" stroke="black" stroke-width="0.217603" stroke-miterlimit="10"/>
<path opacity="0.15" d="M401.12 268.022C427.201 252.928 469.487 252.928 495.592 268.022C508.594 275.562 515.155 285.452 515.155 295.348C515.155 305.244 508.636 315.134 495.592 322.684C469.52 337.769 427.234 337.778 401.12 322.684C375.006 307.59 375.039 283.112 401.12 268.019V268.022Z" fill="black"/>
<path d="M353.173 179.379C353.173 179.379 374.828 298.175 375.13 299.609C376.78 307.455 382.825 315.056 393.277 321.076C418.084 335.392 458.331 335.392 483.153 321.076C493.322 315.214 499.328 307.847 501.16 300.213C501.554 298.576 523.257 179.322 523.257 179.322C523.424 178.425 522.732 177.593 521.818 177.596L354.612 177.653C353.699 177.653 353.006 178.481 353.173 179.379Z" fill="#EFEBE7" stroke="black" stroke-width="0.217603" stroke-miterlimit="10"/>
<path d="M353.18 177.65C353.18 165.052 361.477 152.484 378.091 142.845C411.3 123.601 465.215 123.601 498.394 142.845C515.007 152.454 523.305 165.052 523.305 177.65C523.305 190.248 515.007 202.816 498.394 212.47C465.17 231.714 411.27 231.714 378.091 212.47C361.477 202.861 353.18 190.263 353.18 177.65Z" fill="#EFEBE7" stroke="black" stroke-width="0.217603" stroke-miterlimit="10"/>
<path d="M391.123 161.925C417.142 146.871 459.329 146.871 485.347 161.925C495.803 167.964 501.991 175.544 504.041 183.405C504.552 181.517 504.823 179.572 504.853 177.618C504.853 167.758 498.355 157.883 485.347 150.348C459.329 135.293 417.142 135.293 391.123 150.348C378.112 157.883 371.602 167.758 371.617 177.618C371.638 179.575 371.916 181.523 372.444 183.405C374.483 175.559 380.655 167.994 391.123 161.925Z" fill="#CFCABF" stroke="black" stroke-width="0.217603" stroke-miterlimit="10"/>
<path d="M391.132 204.859C417.151 219.929 459.338 219.929 485.357 204.859C495.812 198.821 502 191.241 504.05 183.38C501.997 175.519 495.809 167.939 485.357 161.9C459.338 146.83 417.151 146.83 391.132 161.9C380.661 167.954 374.489 175.519 372.453 183.395C374.492 191.301 380.664 198.94 391.132 204.862V204.859Z" fill="#C1BEB8" stroke="black" stroke-width="0.217603" stroke-miterlimit="10"/>
<path opacity="0.15" d="M436.636 207.822C445.731 207.822 460.557 208.223 477.257 208.932C480.035 207.795 482.74 206.481 485.348 204.994C495.804 198.955 501.992 191.375 504.042 183.514C501.989 175.653 495.801 168.073 485.348 162.035C475.308 156.217 462.846 152.662 449.835 151.346C449.835 151.346 449.835 151.346 449.832 151.346C439.326 154.111 432.329 156.155 432.32 156.158L436.633 207.825L436.636 207.822Z" fill="black"/>
<path opacity="0.15" d="M498.394 142.845C491.571 138.976 484.306 135.938 476.764 133.799C467.669 135.888 459.046 138.063 451.867 139.942C463.612 141.163 474.996 144.715 485.357 150.395C498.368 157.93 504.862 167.805 504.862 177.665C504.833 179.622 504.561 181.564 504.051 183.452C502.257 189.488 498.711 194.847 493.86 198.848C500.579 199.189 507.373 199.572 514.077 199.988C520.219 193.001 523.306 185.331 523.306 177.665C523.306 165.052 515.008 152.454 498.394 142.845Z" fill="black"/>
<path d="M521.019 86.7507C498.764 64.2178 467.149 111.594 458.852 124.294C458.852 124.294 459.81 126.469 461.804 129.931C482.196 109.341 510.769 92.4782 521.016 86.7477L521.019 86.7507Z" fill="#60D06F" stroke="black" stroke-width="0.217603" stroke-miterlimit="10"/>
<path d="M523.251 89.2816C522.555 88.3958 521.812 87.549 521.021 86.75C510.774 92.4805 482.201 109.343 461.82 129.934C464.304 134.216 467.092 138.312 470.163 142.191C509.339 132.893 540.184 110.746 523.248 89.2816H523.251Z" fill="#3FA048" stroke="black" stroke-width="0.217603" stroke-miterlimit="10"/>
<path d="M436.641 59.2003C411.819 68.8239 387.616 92.3623 408.865 199.44C409.676 200.063 417.723 201.616 421.505 202.681C410.297 96.0011 421.165 72.8188 436.641 59.1973V59.2003Z" fill="#3FA048" stroke="black" stroke-width="0.217603" stroke-miterlimit="10"/>
<path d="M421.509 202.685C426.199 205.297 431.329 207.012 436.642 207.748V59.2012C421.166 72.8197 410.298 96.005 421.506 202.682C421.506 202.682 421.506 202.682 421.506 202.685H421.509Z" fill="#60D06F" stroke="black" stroke-width="0.217603" stroke-miterlimit="10"/>
<path d="M436.638 59.2012C369.656 59.2012 394.436 163.601 401.671 189.79C403.029 193.669 405.54 197.035 408.862 199.441C387.613 92.3482 411.817 68.8248 436.638 59.2012Z" fill="#60D06F" stroke="black" stroke-width="0.217603" stroke-miterlimit="10"/>
<path d="M436.641 59.2012C462.214 68.0827 485.663 92.3632 464.414 199.441C467.605 197.122 470.05 193.914 471.444 190.218C471.461 190.144 471.485 190.069 471.518 189.997C471.524 189.922 471.524 189.847 471.518 189.776C479.329 168.96 503.193 59.2042 436.641 59.2012Z" fill="#3FA048" stroke="black" stroke-width="0.217603" stroke-miterlimit="10"/>
<path d="M436.641 59.2012C452.117 72.8197 462.644 96.7142 451.406 203.409C455.173 202.344 463.576 200.063 464.387 199.441C485.666 92.3482 462.217 68.0677 436.641 59.2012Z" fill="#60D06F" stroke="black" stroke-width="0.217603" stroke-miterlimit="10"/>
<path d="M436.641 59.2003V207.819C442.177 206.338 446.756 204.859 451.406 203.48C462.644 96.7851 452.114 72.8188 436.641 59.1973V59.2003Z" fill="#3FA048" stroke="black" stroke-width="0.217603" stroke-miterlimit="10"/>
<path opacity="0.15" d="M116.302 259.812L101.339 241.011C98.6076 237.569 92.4082 236.079 86.9311 237.542C83.6388 238.416 81.439 240.089 80.7256 242.253C80.2152 243.946 80.6152 245.784 81.7852 247.109L93.0559 261.26C93.423 261.718 94.0916 261.79 94.5483 261.422C95.005 261.054 95.0766 260.384 94.7095 259.926L83.4537 245.775C82.7434 245.006 82.4777 243.925 82.7463 242.914C83.2209 241.477 84.9402 240.242 87.4713 239.574C92.1366 238.332 97.4674 239.541 99.6792 242.312L114.642 261.114C115.191 261.697 115.406 262.52 115.209 263.298C114.857 264.381 113.529 265.303 111.565 265.824L111.192 265.911C107.434 266.772 103.007 265.83 101.369 263.765L91.3396 251.17C90.9964 250.817 90.877 250.302 91.0262 249.832C91.2471 249.165 92.1515 248.27 94.02 247.768C96.9063 246.998 100.41 247.687 101.67 249.279L107.995 257.224C108.362 257.684 109.034 257.756 109.49 257.388C109.95 257.02 110.022 256.347 109.654 255.889L103.33 247.938C101.536 245.694 97.2107 244.712 93.4738 245.706C91.1605 246.319 89.5338 247.576 89.0145 249.153C88.6354 250.308 88.8891 251.574 89.6801 252.493L99.6762 265.094C101.315 267.158 104.688 268.367 108.234 268.367C109.532 268.367 110.824 268.203 112.078 267.874L112.499 267.748C114.964 267 116.639 265.671 117.197 263.966C117.633 262.517 117.296 260.949 116.305 259.809L116.302 259.812Z" fill="black"/>
<path d="M114.976 258.69L100.022 239.889C97.2818 236.453 91.0854 234.957 85.6082 236.42C82.322 237.294 80.1162 238.967 79.4028 241.098C78.8954 242.791 79.2984 244.629 80.4684 245.954L91.7301 260.105C92.0972 260.563 92.7658 260.635 93.2225 260.267C93.6792 259.899 93.7508 259.229 93.3837 258.771L82.128 244.62C81.4176 243.848 81.1519 242.767 81.4206 241.753C81.8951 240.323 83.6144 239.114 86.1515 238.413C90.8167 237.172 96.1476 238.375 98.3534 241.151L113.322 259.953C113.865 260.542 114.08 261.365 113.889 262.143C113.579 263.071 112.552 263.888 111.015 264.427C110.833 264.489 110.191 264.69 109.875 264.789C109.755 264.825 109.639 264.857 109.517 264.881C105.836 265.618 101.631 264.675 100.04 262.673L90.0437 250.078C89.7004 249.725 89.581 249.21 89.7303 248.74C89.9511 248.073 90.8555 247.178 92.724 246.675C95.6103 245.906 99.1145 246.595 100.374 248.187L106.699 256.138C107.066 256.598 107.738 256.67 108.194 256.302C108.654 255.934 108.726 255.261 108.358 254.803L102.001 246.879C100.207 244.635 95.876 243.653 92.151 244.647C89.8318 245.26 88.205 246.517 87.6857 248.094C87.3185 249.237 87.5693 250.491 88.3513 251.401L98.3803 264.002C100.025 266.066 103.398 267.275 106.938 267.275C108.108 267.275 109.269 267.135 110.406 266.868C110.445 266.859 110.484 266.847 110.519 266.838L111.122 266.656C111.161 266.644 111.2 266.632 111.239 266.617C113.424 265.794 115.397 264.337 115.901 262.808C116.313 261.368 115.964 259.815 114.976 258.693V258.69Z" fill="#21504F" stroke="black" stroke-width="0.217603" stroke-miterlimit="10"/>
</g>
<defs>
<linearGradient id="paint0_linear_14997_18408" x1="300.43" y1="106.087" x2="317.436" y2="45.4828" gradientUnits="userSpaceOnUse">
<stop stop-color="#E8ECF7"/>
<stop offset="0.44" stop-color="#EFF1F9"/>
<stop offset="1" stop-color="white"/>
</linearGradient>
<linearGradient id="paint1_linear_14997_18408" x1="402.395" y1="164.631" x2="420.106" y2="101.497" gradientUnits="userSpaceOnUse">
<stop stop-color="#E8ECF7"/>
<stop offset="0.44" stop-color="#EFF1F9"/>
<stop offset="1" stop-color="white"/>
</linearGradient>
<clipPath id="clip0_14997_18408">
<rect width="528" height="334" fill="white"/>
</clipPath>
</defs>
</svg>
