<svg width="713" height="650" viewBox="0 0 713 650" fill="none" xmlns="http://www.w3.org/2000/svg">
<g clip-path="url(#clip0_14997_18379)">
<path opacity="0.25" d="M349.973 502.473L508.479 493.413L514.429 488.06L494.594 417.121L286.199 287.59L31.8984 313.44L349.973 502.473Z" fill="#082422"/>
<path d="M424.89 204.065L494.864 414.335L488.997 418.564L174.766 230.314L98.6875 23.5652L104.554 19.3359L424.89 204.065Z" fill="#0096A1" stroke="#082422" stroke-width="0.435206" stroke-miterlimit="10"/>
<path d="M419.024 208.295L488.997 418.565L168.661 233.833L98.6875 23.5664L419.024 208.295Z" fill="#009FAA" stroke="#082422" stroke-width="0.435206" stroke-miterlimit="10"/>
<path d="M98.6854 23.5664L419.022 208.295L359.094 497.88L351.235 501.215L38.7578 313.151L90.83 26.8976L98.6854 23.5664Z" fill="#0096A1" stroke="#082422" stroke-width="0.435206" stroke-miterlimit="10"/>
<path d="M419.02 208.295L411.16 211.63L90.8281 26.8976L98.6835 23.5664L419.02 208.295Z" fill="#0096A1" stroke="#082422" stroke-width="0.435206" stroke-miterlimit="10"/>
<path d="M90.83 26.8945L411.162 211.627L351.235 501.212L30.8984 316.479L90.83 26.8945Z" fill="#29F5FF" stroke="#082422" stroke-width="0.435206" stroke-miterlimit="10"/>
<path d="M104.941 93.6875L60.3281 309.271L328.188 467.619L336.887 466.515L381.5 250.932L372.801 252.036L104.941 93.6875Z" fill="#D0DDDF" stroke="#082422" stroke-width="0.435206" stroke-miterlimit="10"/>
<path d="M113.41 47.0039L390.627 206.848L381.504 250.932L372.805 252.036L104.945 93.6875L104.711 48.1037L113.41 47.0039Z" fill="#D0DDDF" stroke="#082422" stroke-width="0.435206" stroke-miterlimit="10"/>
<path d="M51.2734 307.779L328.494 467.622L373.107 252.039L95.8903 92.1953L51.2734 307.779Z" fill="white" stroke="#082422" stroke-width="0.435206" stroke-miterlimit="10"/>
<path d="M95.5859 92.1899L372.803 252.034L381.926 207.945L104.709 48.1016L95.5859 92.1899Z" fill="white" stroke="#082422" stroke-width="0.435206" stroke-miterlimit="10"/>
<path d="M367.117 209.287C370.445 211.206 372.441 216.159 371.578 220.345C370.71 224.535 367.307 226.374 363.98 224.456C360.648 222.537 358.656 217.584 359.523 213.394C360.391 209.208 363.79 207.369 367.121 209.287H367.117Z" fill="#383838" stroke="#082422" stroke-width="0.435206" stroke-miterlimit="10"/>
<path d="M335.703 191.174C339.034 193.093 341.027 198.046 340.163 202.232C339.296 206.421 335.897 208.261 332.566 206.342C329.238 204.424 327.241 199.47 328.109 195.281C328.977 191.095 332.379 189.255 335.707 191.174H335.703Z" fill="#383838" stroke="#082422" stroke-width="0.435206" stroke-miterlimit="10"/>
<path d="M304.305 173.069C307.636 174.987 309.629 179.941 308.765 184.126C307.897 188.316 304.499 190.156 301.167 188.237C297.84 186.318 295.843 181.365 296.711 177.175C297.578 172.99 300.981 171.15 304.308 173.069H304.305Z" fill="#383838" stroke="#082422" stroke-width="0.435206" stroke-miterlimit="10"/>
<path d="M272.899 154.959C276.226 156.878 278.223 161.831 277.359 166.017C276.491 170.207 273.089 172.046 269.761 170.127C266.43 168.209 264.437 163.256 265.305 159.066C266.172 154.88 269.571 153.04 272.902 154.959H272.899Z" fill="#383838" stroke="#082422" stroke-width="0.435206" stroke-miterlimit="10"/>
<path d="M241.488 136.854C244.82 138.773 246.816 143.726 245.949 147.912C245.081 152.101 241.678 153.941 238.347 152.018C235.019 150.099 233.023 145.146 233.89 140.956C234.758 136.771 238.157 134.931 241.488 136.85V136.854Z" fill="#383838" stroke="#082422" stroke-width="0.435206" stroke-miterlimit="10"/>
<path d="M210.086 118.744C213.417 120.667 215.41 125.616 214.546 129.802C213.679 133.992 210.28 135.831 206.948 133.913C203.621 131.994 201.624 127.041 202.492 122.851C203.359 118.665 206.762 116.826 210.09 118.744H210.086Z" fill="#383838" stroke="#082422" stroke-width="0.435206" stroke-miterlimit="10"/>
<path d="M178.68 100.635C182.007 102.554 184.004 107.507 183.14 111.693C182.272 115.882 178.87 117.722 175.542 115.803C172.215 113.884 170.218 108.931 171.086 104.742C171.953 100.556 175.356 98.7163 178.683 100.635H178.68Z" fill="#383838" stroke="#082422" stroke-width="0.435206" stroke-miterlimit="10"/>
<path d="M147.277 82.528C150.605 84.4468 152.601 89.4 151.738 93.5857C150.87 97.7754 147.467 99.615 144.14 97.6962C140.808 95.7775 138.812 90.8243 139.679 86.6346C140.547 82.4489 143.946 80.6093 147.277 82.532V82.528Z" fill="#383838" stroke="#082422" stroke-width="0.435206" stroke-miterlimit="10"/>
<path d="M115.867 64.4202C119.199 66.339 121.191 71.2922 120.328 75.4779C119.46 79.6675 116.061 81.5072 112.73 79.5884C109.402 77.6696 107.406 72.7164 108.273 68.5268C109.141 64.3411 112.543 62.5014 115.871 64.4202H115.867Z" fill="#383838" stroke="#082422" stroke-width="0.435206" stroke-miterlimit="10"/>
<path d="M314.732 292.174L342.315 308.078C344.184 309.158 346.565 308.09 347.001 305.978L354.333 270.545C354.611 269.208 353.997 267.847 352.816 267.163L325.233 251.259C323.363 250.179 320.983 251.247 320.547 253.36L313.214 288.792C312.937 290.129 313.551 291.49 314.732 292.174Z" fill="#2BF2F1" stroke="#082422" stroke-width="0.435206" stroke-miterlimit="10"/>
<path d="M357.339 256.293C356.911 258.358 354.586 259.403 352.756 258.346L328.362 244.282C326.773 243.368 325.953 241.536 326.322 239.744C326.749 237.679 329.075 236.635 330.905 237.691L355.299 251.755C356.888 252.673 357.708 254.501 357.339 256.293Z" fill="#35605F" stroke="#082422" stroke-width="0.435206" stroke-miterlimit="10"/>
<path d="M321.058 235.371C320.63 237.436 318.305 238.481 316.475 237.425L292.081 223.36C290.492 222.446 289.672 220.614 290.04 218.822C290.468 216.757 292.794 215.713 294.624 216.769L319.018 230.833C320.606 231.751 321.426 233.579 321.058 235.371Z" fill="#35605F" stroke="#082422" stroke-width="0.435206" stroke-miterlimit="10"/>
<path d="M284.777 214.453C284.349 216.518 282.024 217.563 280.193 216.507L255.799 202.442C254.211 201.528 253.391 199.696 253.759 197.904C254.187 195.839 256.512 194.795 258.342 195.851L282.737 209.915C284.325 210.833 285.145 212.661 284.777 214.453Z" fill="#35605F" stroke="#082422" stroke-width="0.435206" stroke-miterlimit="10"/>
<path d="M248.495 193.531C248.068 195.597 245.742 196.641 243.912 195.585L219.518 181.52C217.93 180.606 217.11 178.775 217.478 176.982C217.906 174.917 220.231 173.873 222.061 174.929L246.455 188.994C248.044 189.911 248.864 191.739 248.495 193.531Z" fill="#35605F" stroke="#082422" stroke-width="0.435206" stroke-miterlimit="10"/>
<path d="M212.214 172.613C211.786 174.679 209.461 175.723 207.631 174.667L183.237 160.602C181.648 159.688 180.828 157.857 181.197 156.064C181.624 153.999 183.95 152.955 185.78 154.011L210.174 168.076C211.763 168.993 212.583 170.821 212.214 172.613Z" fill="#35605F" stroke="#082422" stroke-width="0.435206" stroke-miterlimit="10"/>
<path d="M175.933 151.692C175.505 153.757 173.18 154.801 171.35 153.745L146.956 139.68C145.367 138.767 144.547 136.935 144.915 135.143C145.343 133.077 147.669 132.033 149.499 133.089L173.893 147.154C175.481 148.072 176.301 149.899 175.933 151.692Z" fill="#35605F" stroke="#082422" stroke-width="0.435206" stroke-miterlimit="10"/>
<path d="M139.644 130.586C139.216 132.651 136.891 133.696 135.061 132.639L110.666 118.575C109.078 117.661 108.258 115.829 108.626 114.037C109.054 111.972 111.38 110.928 113.21 111.984L137.604 126.048C139.192 126.966 140.012 128.794 139.644 130.586Z" fill="#35605F" stroke="#082422" stroke-width="0.435206" stroke-miterlimit="10"/>
<path d="M278.45 271.256L306.033 287.16C307.903 288.24 310.284 287.172 310.72 285.06L318.052 249.627C318.329 248.29 317.715 246.929 316.535 246.245L288.952 230.341C287.082 229.261 284.701 230.329 284.266 232.442L276.933 267.874C276.656 269.211 277.27 270.572 278.45 271.256Z" fill="white" stroke="#082422" stroke-width="0.435206" stroke-miterlimit="10"/>
<path d="M242.169 250.334L269.752 266.238C271.622 267.318 274.003 266.25 274.438 264.138L281.771 228.706C282.048 227.368 281.434 226.007 280.254 225.323L252.671 209.419C250.801 208.339 248.42 209.407 247.984 211.52L240.652 246.952C240.375 248.289 240.989 249.65 242.169 250.334Z" fill="white" stroke="#082422" stroke-width="0.435206" stroke-miterlimit="10"/>
<path d="M205.888 229.42L233.471 245.324C235.341 246.404 237.721 245.336 238.157 243.224L245.49 207.792C245.767 206.454 245.153 205.093 243.972 204.409L216.389 188.505C214.52 187.425 212.139 188.493 211.703 190.606L204.371 226.038C204.093 227.375 204.707 228.736 205.888 229.42Z" fill="white" stroke="#082422" stroke-width="0.435206" stroke-miterlimit="10"/>
<path d="M169.607 208.498L197.19 224.402C199.059 225.483 201.44 224.414 201.876 222.302L209.208 186.87C209.486 185.532 208.872 184.172 207.691 183.487L180.108 167.583C178.238 166.503 175.858 167.571 175.422 169.684L168.089 205.116C167.812 206.453 168.426 207.814 169.607 208.498Z" fill="white" stroke="#082422" stroke-width="0.435206" stroke-miterlimit="10"/>
<path d="M133.325 187.577L160.908 203.481C162.778 204.561 165.159 203.492 165.595 201.38L172.927 165.948C173.204 164.611 172.59 163.25 171.41 162.565L143.827 146.661C141.957 145.581 139.576 146.649 139.141 148.762L131.808 184.194C131.531 185.531 132.145 186.892 133.325 187.577Z" fill="white" stroke="#082422" stroke-width="0.435206" stroke-miterlimit="10"/>
<path d="M97.0441 166.659L124.627 182.563C126.497 183.643 128.878 182.575 129.313 180.462L136.646 145.03C136.923 143.693 136.309 142.332 135.129 141.647L107.546 125.743C105.676 124.663 103.295 125.731 102.859 127.844L95.5269 163.276C95.2496 164.613 95.8636 165.974 97.0441 166.659Z" fill="#2BF2F1" stroke="#082422" stroke-width="0.435206" stroke-miterlimit="10"/>
<path d="M305.56 336.514L333.143 352.418C335.013 353.498 337.393 352.43 337.829 350.317L345.162 314.881C345.439 313.544 344.825 312.183 343.644 311.499L316.061 295.595C314.192 294.515 311.811 295.583 311.375 297.695L304.043 333.132C303.765 334.469 304.379 335.83 305.56 336.514Z" fill="#2BF2F1" stroke="#082422" stroke-width="0.435206" stroke-miterlimit="10"/>
<path d="M269.279 315.596L296.862 331.5C298.731 332.58 301.112 331.512 301.548 329.399L308.88 293.963C309.158 292.626 308.544 291.265 307.363 290.581L279.78 274.677C277.91 273.597 275.53 274.665 275.094 276.778L267.761 312.214C267.484 313.551 268.098 314.912 269.279 315.596Z" fill="#35605F" stroke="#082422" stroke-width="0.435206" stroke-miterlimit="10"/>
<path d="M232.997 294.674L260.58 310.578C262.45 311.658 264.831 310.59 265.267 308.478L272.599 273.042C272.876 271.704 272.262 270.343 271.082 269.659L243.499 253.755C241.629 252.675 239.248 253.743 238.813 255.856L231.48 291.292C231.203 292.629 231.817 293.99 232.997 294.674Z" fill="white" stroke="#082422" stroke-width="0.435206" stroke-miterlimit="10"/>
<path d="M196.708 273.752L224.291 289.656C226.161 290.736 228.542 289.668 228.978 287.556L236.31 252.12C236.587 250.782 235.973 249.421 234.793 248.737L207.21 232.833C205.34 231.753 202.959 232.821 202.523 234.934L195.191 270.37C194.914 271.707 195.528 273.068 196.708 273.752Z" fill="white" stroke="#082422" stroke-width="0.435206" stroke-miterlimit="10"/>
<path d="M160.435 252.834L188.018 268.738C189.888 269.819 192.268 268.75 192.704 266.638L200.037 231.202C200.314 229.864 199.7 228.504 198.519 227.819L170.936 211.915C169.067 210.835 166.686 211.903 166.25 214.016L158.918 249.452C158.64 250.789 159.254 252.15 160.435 252.834Z" fill="white" stroke="#082422" stroke-width="0.435206" stroke-miterlimit="10"/>
<path d="M124.153 231.913L151.737 247.817C153.606 248.897 155.987 247.828 156.423 245.716L163.755 210.28C164.033 208.943 163.419 207.582 162.238 206.897L134.655 190.993C132.785 189.913 130.405 190.981 129.969 193.094L122.636 228.53C122.359 229.867 122.973 231.228 124.153 231.913Z" fill="white" stroke="#082422" stroke-width="0.435206" stroke-miterlimit="10"/>
<path d="M87.8644 210.995L115.447 226.899C117.317 227.979 119.698 226.911 120.134 224.798L127.466 189.362C127.744 188.025 127.13 186.664 125.949 185.979L98.366 170.075C96.4963 168.995 94.1155 170.063 93.6797 172.176L86.3472 207.612C86.0699 208.949 86.6839 210.31 87.8644 210.995Z" fill="#2BF2F1" stroke="#082422" stroke-width="0.435206" stroke-miterlimit="10"/>
<path d="M296.38 380.85L323.963 396.754C325.833 397.834 328.214 396.766 328.649 394.653L335.982 359.221C336.259 357.884 335.645 356.523 334.465 355.839L306.882 339.935C305.012 338.855 302.631 339.923 302.195 342.035L294.863 377.467C294.586 378.805 295.2 380.166 296.38 380.85Z" fill="#2BF2F1" stroke="#082422" stroke-width="0.435206" stroke-miterlimit="10"/>
<path d="M260.099 359.932L287.682 375.836C289.552 376.916 291.932 375.848 292.368 373.735L299.701 338.303C299.978 336.966 299.364 335.605 298.183 334.921L270.6 319.017C268.731 317.937 266.35 319.005 265.914 321.117L258.582 356.549C258.304 357.887 258.918 359.248 260.099 359.932Z" fill="white" stroke="#082422" stroke-width="0.435206" stroke-miterlimit="10"/>
<path d="M223.818 339.01L251.401 354.914C253.27 355.994 255.651 354.926 256.087 352.813L263.419 317.381C263.697 316.044 263.083 314.683 261.902 313.999L234.319 298.095C232.449 297.015 230.069 298.083 229.633 300.195L222.3 335.628C222.023 336.965 222.637 338.326 223.818 339.01Z" fill="white" stroke="#082422" stroke-width="0.435206" stroke-miterlimit="10"/>
<path d="M187.536 318.088L215.119 333.992C216.989 335.072 219.37 334.004 219.806 331.892L227.138 296.46C227.415 295.122 226.801 293.761 225.621 293.077L198.038 277.173C196.168 276.093 193.787 277.161 193.352 279.274L186.019 314.706C185.742 316.043 186.356 317.404 187.536 318.088Z" fill="white" stroke="#082422" stroke-width="0.435206" stroke-miterlimit="10"/>
<path d="M151.255 297.17L178.838 313.074C180.708 314.154 183.089 313.086 183.524 310.974L190.857 275.542C191.134 274.204 190.52 272.843 189.34 272.159L161.757 256.255C159.887 255.175 157.506 256.243 157.07 258.356L149.738 293.788C149.461 295.125 150.075 296.486 151.255 297.17Z" fill="white" stroke="#082422" stroke-width="0.435206" stroke-miterlimit="10"/>
<path d="M114.982 276.248L142.565 292.152C144.434 293.233 146.815 292.164 147.251 290.052L154.583 254.62C154.861 253.282 154.247 251.922 153.066 251.237L125.483 235.333C123.613 234.253 121.233 235.321 120.797 237.434L113.464 272.866C113.187 274.203 113.801 275.564 114.982 276.248Z" fill="white" stroke="#082422" stroke-width="0.435206" stroke-miterlimit="10"/>
<path d="M78.6926 255.327L106.276 271.231C108.145 272.311 110.526 271.242 110.962 269.13L118.294 233.698C118.572 232.361 117.958 231 116.777 230.315L89.1942 214.411C87.3244 213.331 84.9436 214.399 84.5079 216.512L77.1754 251.944C76.8981 253.281 77.5121 254.642 78.6926 255.327Z" fill="#2BF2F1" stroke="#082422" stroke-width="0.435206" stroke-miterlimit="10"/>
<path d="M287.208 425.182L314.791 441.086C316.661 442.166 319.042 441.098 319.477 438.985L326.81 403.553C327.087 402.216 326.473 400.855 325.293 400.171L297.71 384.267C295.84 383.187 293.459 384.255 293.023 386.367L285.691 421.799C285.414 423.137 286.028 424.498 287.208 425.182Z" fill="#2BF2F1" stroke="#082422" stroke-width="0.435206" stroke-miterlimit="10"/>
<path d="M250.927 404.264L278.51 420.168C280.38 421.248 282.761 420.18 283.196 418.067L290.529 382.635C290.806 381.298 290.192 379.937 289.012 379.253L261.429 363.349C259.559 362.269 257.178 363.337 256.742 365.449L249.41 400.881C249.132 402.219 249.746 403.58 250.927 404.264Z" fill="white" stroke="#082422" stroke-width="0.435206" stroke-miterlimit="10"/>
<path d="M214.646 383.342L242.229 399.246C244.098 400.326 246.479 399.258 246.915 397.145L254.248 361.713C254.525 360.376 253.911 359.015 252.73 358.331L225.147 342.427C223.278 341.347 220.897 342.415 220.461 344.528L213.128 379.96C212.851 381.297 213.465 382.658 214.646 383.342Z" fill="white" stroke="#082422" stroke-width="0.435206" stroke-miterlimit="10"/>
<path d="M178.364 362.424L205.947 378.328C207.817 379.408 210.198 378.34 210.634 376.227L217.966 340.795C218.244 339.458 217.63 338.097 216.449 337.413L188.866 321.509C186.996 320.429 184.615 321.497 184.18 323.61L176.847 359.042C176.57 360.379 177.184 361.74 178.364 362.424Z" fill="white" stroke="#082422" stroke-width="0.435206" stroke-miterlimit="10"/>
<path d="M142.083 341.506L169.666 357.41C171.536 358.49 173.917 357.422 174.353 355.31L181.685 319.877C181.962 318.54 181.348 317.179 180.168 316.495L152.585 300.591C150.715 299.511 148.334 300.579 147.898 302.692L140.566 338.124C140.289 339.461 140.903 340.822 142.083 341.506Z" fill="white" stroke="#082422" stroke-width="0.435206" stroke-miterlimit="10"/>
<path d="M105.802 320.584L133.385 336.488C135.255 337.568 137.636 336.5 138.071 334.388L145.404 298.956C145.681 297.618 145.067 296.257 143.887 295.573L116.304 279.669C114.434 278.589 112.053 279.657 111.617 281.77L104.285 317.202C104.007 318.539 104.621 319.9 105.802 320.584Z" fill="white" stroke="#082422" stroke-width="0.435206" stroke-miterlimit="10"/>
<path d="M69.5129 299.659L97.0959 315.563C98.9657 316.643 101.346 315.575 101.782 313.462L109.115 278.03C109.392 276.693 108.778 275.332 107.597 274.647L80.0145 258.743C78.1447 257.663 75.7639 258.731 75.3282 260.844L67.9957 296.276C67.7184 297.613 68.3324 298.974 69.5129 299.659Z" fill="#2BF2F1" stroke="#082422" stroke-width="0.435206" stroke-miterlimit="10"/>
<path d="M94.4141 52.5413C94.4141 61.8227 97.7258 68.849 103.747 72.3146C105.276 73.2008 106.92 73.814 108.655 74.1661C109.824 74.4075 111.028 74.5222 112.268 74.5222C114.89 74.5222 117.659 73.9921 120.512 72.9358C120.468 71.9981 120.302 71.0526 120.036 70.1506C119.802 69.3633 119.486 68.6037 119.105 67.8955C118.891 67.5038 118.662 67.1359 118.404 66.7838C114.72 68.1724 111.357 68.394 108.58 67.4049C108.029 67.215 107.502 66.9697 106.999 66.6809C103.082 64.4219 100.923 59.3975 100.923 52.5374C100.923 44.8979 103.561 36.4355 107.847 28.8474C108.929 26.9247 110.117 25.0653 111.396 23.285C115.461 17.6275 120.432 12.8128 125.792 9.71903C129.488 7.59058 132.978 6.50657 136.044 6.50657C138.001 6.50657 139.784 6.94966 141.329 7.83982C145.242 10.0988 147.401 15.1233 147.401 21.9873C147.401 23.8784 147.239 25.8209 146.93 27.7872C146.835 28.4043 146.724 29.0215 146.597 29.6466C146.292 31.1697 145.9 32.7048 145.433 34.2398C144.704 36.6254 143.785 39.0031 142.707 41.3373L143.198 41.6221L143.638 41.8753L145.73 43.082L148.336 44.5854C150.436 40.1623 151.977 35.6601 152.904 31.2647C153.189 29.8919 153.415 28.527 153.585 27.1819C153.716 26.1453 153.807 25.1246 153.858 24.1118C153.882 23.6292 153.898 23.1505 153.906 22.6718C153.914 22.4423 153.914 22.2168 153.914 21.9873C153.914 12.702 150.602 5.67576 144.585 2.21009C138.524 -1.28327 130.696 -0.618617 122.536 4.08535C116.392 7.63014 110.569 13.1887 105.767 20.0369C104.662 21.6154 103.604 23.2612 102.618 24.9624C102.491 25.1761 102.365 25.3976 102.242 25.6112C97.191 34.5365 94.418 44.071 94.418 52.5374L94.4141 52.5413Z" fill="#DCFF00" stroke="#082422" stroke-width="0.435206" stroke-miterlimit="10"/>
<path d="M126.219 70.873C126.219 80.1583 129.53 87.1846 135.544 90.6503C136.978 91.4771 138.507 92.0666 140.119 92.4306C141.391 92.7194 142.706 92.8618 144.065 92.8618C146.572 92.8618 149.218 92.3791 151.94 91.4059C151.924 90.4683 151.789 89.5188 151.544 88.6049C151.334 87.8136 151.045 87.0461 150.676 86.3261C150.482 85.9305 150.256 85.5507 150.019 85.1867C146.224 86.5832 142.773 86.7257 139.969 85.5863C139.565 85.4241 139.176 85.2342 138.8 85.0166C134.886 82.7615 132.727 77.7371 132.727 70.873C132.727 68.978 132.89 67.0355 133.199 65.0692C133.468 63.3483 133.848 61.6115 134.336 59.8707C134.918 57.7779 135.647 55.6771 136.514 53.608C137.418 51.4242 138.471 49.272 139.652 47.187C140.733 45.2643 141.922 43.4049 143.205 41.6246C143.649 41.0034 144.104 40.3902 144.572 39.7928C145.946 38.0283 147.408 36.3628 148.941 34.8277C150.221 33.5459 151.548 32.3511 152.91 31.2711C154.428 30.0565 155.996 28.9804 157.593 28.0586C161.285 25.9302 164.779 24.8501 167.841 24.8501C169.802 24.8501 171.584 25.2932 173.129 26.1834C177.043 28.4384 179.202 33.4628 179.202 40.3269C179.202 42.218 179.04 44.1605 178.731 46.1268C178.636 46.7439 178.525 47.3611 178.398 47.9822C178.093 49.5054 177.701 51.0444 177.233 52.5754C176.5 54.961 175.585 57.3427 174.504 59.6769L174.995 59.9578L175.435 60.2149L177.53 61.4216L180.137 62.921C182.24 58.4979 183.777 53.9878 184.708 49.5924C184.998 48.2236 185.223 46.8626 185.39 45.5175C185.52 44.4849 185.608 43.4603 185.663 42.4514C185.687 41.9688 185.707 41.4861 185.711 41.0034C185.719 40.774 185.719 40.5485 185.719 40.323C185.719 31.0416 182.407 24.0154 176.389 20.5457C170.325 17.0524 162.497 17.717 154.341 22.4249C154.198 22.508 154.055 22.5911 153.913 22.6781C152.914 23.2676 151.924 23.9125 150.946 24.6088C150.042 25.2497 149.151 25.9341 148.272 26.6581C147.824 27.026 147.376 27.4098 146.937 27.7975C143.554 30.7845 140.385 34.3609 137.564 38.3765C136.463 39.955 135.405 41.6008 134.419 43.306C134.292 43.5196 134.169 43.7372 134.046 43.9548C130.77 49.7309 128.457 55.7642 127.225 61.5996C127.106 62.1772 126.999 62.7509 126.896 63.3245C126.702 64.4481 126.548 65.5598 126.437 66.6596C126.314 67.8544 126.243 69.0334 126.227 70.1926C126.219 70.4181 126.219 70.6475 126.219 70.877V70.873Z" fill="#DCFF00" stroke="#082422" stroke-width="0.435206" stroke-miterlimit="10"/>
<path d="M158.008 89.2053C158.008 98.4866 161.32 105.513 167.341 108.983C168.672 109.75 170.086 110.316 171.576 110.68C172.946 111.02 174.38 111.19 175.862 111.19C178.246 111.19 180.758 110.751 183.341 109.877C183.361 108.939 183.254 107.982 183.036 107.056C182.85 106.261 182.58 105.477 182.24 104.749C182.057 104.35 181.843 103.966 181.618 103.594C177.72 104.987 174.19 105.054 171.358 103.744C171.096 103.622 170.847 103.491 170.597 103.349C166.679 101.09 164.52 96.0654 164.52 89.2053C164.52 87.3142 164.683 85.3717 164.992 83.4055C165.261 81.6845 165.641 79.9477 166.129 78.203C166.707 76.1141 167.436 74.0252 168.295 71.9601C169.207 69.7683 170.264 67.6082 171.445 65.5154C172.526 63.5926 173.715 61.7332 174.998 59.9529C175.446 59.3278 175.905 58.7146 176.377 58.1093C177.747 56.3488 179.209 54.6871 180.738 53.1521C182.018 51.8703 183.345 50.6755 184.707 49.5915C186.225 48.3848 187.789 47.3127 189.386 46.3909C193.082 44.2625 196.572 43.1784 199.638 43.1784C201.595 43.1784 203.377 43.6215 204.922 44.5117C208.836 46.7707 210.995 51.7951 210.995 58.6592C210.995 60.5542 210.833 62.4967 210.524 64.463C209.819 68.9494 208.353 73.5663 206.297 78.0052L206.788 78.29L207.232 78.5432L209.323 79.7499L211.934 81.2533C214.033 76.8302 215.574 72.328 216.501 67.9366C217.115 65.001 217.456 62.1209 217.504 59.3436C217.512 59.1142 217.512 58.8887 217.512 58.6592C217.512 49.3739 214.2 42.3476 208.186 38.882C202.126 35.3886 194.298 36.0533 186.138 40.7572C185.995 40.8363 185.856 40.9194 185.714 41.0065C184.715 41.5999 183.725 42.2408 182.747 42.9411C181.843 43.582 180.952 44.2664 180.073 44.9904C179.625 45.3623 179.181 45.7381 178.738 46.1298C175.355 49.1168 172.186 52.6932 169.365 56.7127C168.256 58.2873 167.206 59.9371 166.216 61.6382C166.089 61.8519 165.962 62.0734 165.843 62.291C162.567 68.0671 160.254 74.1043 159.022 79.9438C158.903 80.5253 158.788 81.099 158.693 81.6726C158.499 82.7962 158.345 83.9039 158.234 84.9998C158.111 86.1946 158.04 87.3775 158.024 88.5367C158.016 88.7622 158.016 88.9917 158.016 89.2172L158.008 89.2053Z" fill="#DCFF00" stroke="#082422" stroke-width="0.435206" stroke-miterlimit="10"/>
<path d="M189.797 107.533C189.797 116.818 193.109 123.841 199.126 127.31C200.358 128.023 201.661 128.557 203.024 128.925C204.498 129.324 206.042 129.522 207.647 129.522C209.909 129.522 212.286 129.126 214.726 128.335C214.773 127.397 214.698 126.44 214.512 125.51C214.349 124.707 214.1 123.916 213.783 123.172C213.609 122.765 213.415 122.373 213.193 121.997C209.192 123.378 205.591 123.354 202.747 121.875C202.624 121.807 202.501 121.744 202.382 121.677C198.468 119.422 196.309 114.397 196.309 107.533C196.309 105.638 196.472 103.696 196.781 101.729C197.05 100.008 197.43 98.2716 197.918 96.5309C198.5 94.438 199.229 92.3452 200.092 90.2761C201 88.0883 202.053 85.9361 203.234 83.8472C204.315 81.9284 205.504 80.065 206.783 78.2847C207.231 77.6636 207.686 77.0543 208.154 76.453C209.528 74.6885 210.99 73.0229 212.523 71.4879C213.799 70.2061 215.122 69.0113 216.493 67.9312C218.01 66.7167 219.574 65.6406 221.175 64.7148C224.867 62.5864 228.361 61.5063 231.423 61.5063C233.384 61.5063 235.166 61.9494 236.711 62.8396C240.625 65.0946 242.784 70.119 242.784 76.9831C242.784 78.8742 242.622 80.8167 242.313 82.783C242.218 83.4001 242.111 84.0173 241.98 84.6384C241.675 86.1616 241.283 87.6966 240.815 89.2277C240.086 91.6172 239.167 93.9989 238.086 96.3331L238.573 96.614L239.021 96.8711L241.112 98.0778L243.719 99.5811C245.823 95.1581 247.36 90.6519 248.29 86.2565C248.576 84.8837 248.805 83.5188 248.972 82.1737C249.103 81.1411 249.19 80.1204 249.245 79.1116C249.269 78.6289 249.289 78.1463 249.293 77.6636C249.301 77.4341 249.301 77.2086 249.301 76.9831C249.301 67.7018 245.989 60.6755 239.972 57.2059C233.907 53.7125 226.079 54.3772 217.923 59.0851C217.78 59.1642 217.637 59.2513 217.495 59.3383C216.497 59.9317 215.506 60.5726 214.528 61.2729C213.625 61.9138 212.733 62.5982 211.854 63.3262C211.406 63.6902 210.962 64.0739 210.519 64.4616C207.136 67.4446 203.967 71.0211 201.146 75.0367C200.045 76.6152 198.991 78.261 198.001 79.9661C197.874 80.1798 197.747 80.4013 197.625 80.6149C194.352 86.395 192.035 92.4243 190.807 98.2637C190.688 98.8413 190.581 99.4229 190.478 99.9966C190.284 101.116 190.13 102.232 190.019 103.328C189.896 104.522 189.825 105.697 189.809 106.857C189.801 107.086 189.801 107.312 189.801 107.541L189.797 107.533Z" fill="#DCFF00" stroke="#082422" stroke-width="0.435206" stroke-miterlimit="10"/>
<path d="M221.59 125.869C221.59 135.151 224.902 142.177 230.923 145.647C232.052 146.292 233.244 146.802 234.484 147.166C236.065 147.625 237.721 147.854 239.444 147.854C241.579 147.854 243.813 147.506 246.115 146.802C246.198 145.864 246.146 144.903 245.984 143.961C245.845 143.154 245.624 142.359 245.326 141.603C245.164 141.192 244.978 140.792 244.768 140.409C240.688 141.774 237.027 141.655 234.179 140.013L234.151 139.997C230.249 137.73 228.102 132.714 228.102 125.869C228.102 123.978 228.265 122.036 228.574 120.07C229.509 114.096 231.798 107.888 235.023 102.18C236.104 100.257 237.293 98.3974 238.572 96.617C241.424 92.645 244.72 89.0923 248.286 86.2557C249.799 85.049 251.368 83.9729 252.964 83.0472C256.66 80.9187 260.15 79.8347 263.216 79.8347C265.173 79.8347 266.956 80.2778 268.5 81.1679C272.414 83.427 274.573 88.4514 274.573 95.3154C274.573 97.2105 274.411 99.153 274.102 101.119C274.007 101.736 273.896 102.354 273.769 102.975C273.464 104.498 273.072 106.037 272.6 107.568C271.872 109.95 270.957 112.331 269.879 114.661L270.37 114.946L270.81 115.203L272.902 116.41L275.508 117.913C277.608 113.486 279.149 108.984 280.076 104.593C280.361 103.22 280.587 101.859 280.757 100.514C280.888 99.4774 280.979 98.4527 281.03 97.4399C281.054 96.9573 281.07 96.4746 281.078 95.9999C281.086 95.7744 281.086 95.5449 281.086 95.3154C281.086 86.0302 277.774 79.0039 271.757 75.5382C265.696 72.0449 257.868 72.7095 249.708 77.4135C249.565 77.4926 249.426 77.5757 249.284 77.6627C246.895 79.083 244.554 80.804 242.308 82.7821C238.925 85.769 235.756 89.3455 232.935 93.365C231.83 94.9436 230.772 96.5854 229.786 98.2945C229.659 98.5081 229.532 98.7297 229.418 98.9433C226.142 104.723 223.824 110.757 222.596 116.596C221.982 119.532 221.641 122.412 221.594 125.189C221.586 125.418 221.586 125.644 221.586 125.869H221.59Z" fill="#DCFF00" stroke="#082422" stroke-width="0.435206" stroke-miterlimit="10"/>
<path d="M253.391 144.197C253.391 153.482 256.702 160.505 262.72 163.974C263.742 164.564 264.815 165.035 265.94 165.387C267.616 165.921 269.391 166.182 271.245 166.182C273.245 166.182 275.345 165.873 277.488 165.252C277.606 164.319 277.591 163.357 277.456 162.408C277.341 161.601 277.139 160.794 276.858 160.03C276.707 159.611 276.537 159.207 276.339 158.812C272.346 160.101 268.773 159.959 265.98 158.345C265.841 158.262 265.707 158.182 265.572 158.095C261.912 155.726 259.907 150.816 259.907 144.197C259.907 142.302 260.069 140.36 260.378 138.393C260.648 136.676 261.028 134.936 261.515 133.195C262.098 131.098 262.831 129.001 263.694 126.928C264.601 124.744 265.655 122.596 266.832 120.511C267.913 118.588 269.101 116.729 270.385 114.949C270.829 114.328 271.284 113.718 271.752 113.117C273.126 111.356 274.588 109.691 276.121 108.156C277.397 106.87 278.72 105.675 280.09 104.595C281.607 103.381 283.176 102.305 284.773 101.379C288.465 99.2504 291.959 98.1743 295.021 98.1743C296.982 98.1743 298.764 98.6174 300.309 99.5075C304.223 101.767 306.382 106.791 306.382 113.651C306.382 115.542 306.219 117.485 305.91 119.451C305.815 120.068 305.704 120.685 305.578 121.306C305.273 122.83 304.881 124.369 304.413 125.9C303.68 128.285 302.765 130.667 301.684 133.001L302.175 133.286L302.615 133.539L304.71 134.746L307.317 136.249C309.42 131.826 310.957 127.316 311.888 122.917C312.177 121.548 312.403 120.187 312.57 118.842C312.7 117.809 312.787 116.784 312.843 115.776C312.867 115.293 312.886 114.806 312.89 114.328C312.898 114.102 312.898 113.873 312.898 113.651C312.898 104.37 309.587 97.3435 303.569 93.8739C297.504 90.3805 289.677 91.0451 281.52 95.7531C281.378 95.8361 281.235 95.9192 281.092 96.0063C280.094 96.5957 279.104 97.2406 278.125 97.9409C277.222 98.5778 276.331 99.2662 275.451 99.9902C275.004 100.358 274.556 100.738 274.117 101.13C270.734 104.113 267.564 107.689 264.744 111.705C263.643 113.283 262.585 114.929 261.599 116.634C261.472 116.848 261.345 117.069 261.226 117.287C257.95 123.067 255.633 129.1 254.405 134.94C254.286 135.513 254.179 136.087 254.076 136.653C253.882 137.78 253.727 138.892 253.616 139.992C253.494 141.186 253.422 142.362 253.406 143.521C253.399 143.75 253.399 143.976 253.399 144.205L253.391 144.197Z" fill="#DCFF00" stroke="#082422" stroke-width="0.435206" stroke-miterlimit="10"/>
<path d="M285.18 162.533C285.18 171.815 288.491 178.837 294.513 182.311C295.432 182.841 296.39 183.276 297.385 183.612C299.159 184.218 301.057 184.522 303.034 184.522C304.899 184.522 306.844 184.253 308.837 183.719C308.991 182.785 309.003 181.816 308.892 180.863C308.801 180.048 308.623 179.241 308.37 178.465C308.231 178.038 308.065 177.622 307.882 177.227C303.992 178.43 300.506 178.263 297.769 176.681C297.5 176.527 297.234 176.356 296.985 176.174C293.562 173.722 291.696 168.927 291.696 162.537C291.696 160.646 291.859 158.704 292.168 156.737C292.437 155.017 292.817 153.28 293.304 151.535C293.883 149.446 294.612 147.357 295.471 145.292C296.382 143.1 297.44 140.94 298.621 138.847C299.702 136.929 300.89 135.069 302.174 133.289C302.618 132.664 303.081 132.047 303.553 131.441C304.923 129.681 306.385 128.019 307.914 126.484C309.193 125.202 310.521 124.008 311.883 122.924C313.4 121.717 314.965 120.645 316.562 119.723C320.258 117.594 323.748 116.51 326.814 116.51C328.771 116.51 330.553 116.954 332.098 117.848C336.012 120.103 338.171 125.127 338.171 131.991C338.171 133.886 338.009 135.829 337.7 137.795C337.604 138.412 337.494 139.025 337.367 139.647C337.062 141.17 336.67 142.709 336.198 144.244C335.469 146.629 334.554 149.011 333.473 151.341L333.964 151.622L334.408 151.879L336.499 153.086L339.106 154.589C341.205 150.166 342.746 145.66 343.673 141.269C343.958 139.896 344.184 138.531 344.355 137.186C344.485 136.153 344.576 135.129 344.628 134.12C344.652 133.637 344.668 133.154 344.676 132.676C344.683 132.446 344.683 132.221 344.683 131.991C344.683 122.706 341.372 115.684 335.358 112.214C329.297 108.721 321.47 109.385 313.309 114.089C313.167 114.172 313.028 114.251 312.886 114.338C311.887 114.932 310.897 115.573 309.918 116.273C309.015 116.914 308.124 117.598 307.245 118.322C306.797 118.69 306.353 119.07 305.91 119.462C302.527 122.449 299.357 126.025 296.537 130.045C295.432 131.623 294.378 133.269 293.388 134.974C293.261 135.188 293.138 135.409 293.015 135.623C289.739 141.403 287.426 147.436 286.194 153.276C286.075 153.857 285.96 154.431 285.865 155.005C285.671 156.128 285.516 157.236 285.405 158.332C285.283 159.527 285.211 160.71 285.196 161.869C285.188 162.094 285.188 162.324 285.188 162.549L285.18 162.533Z" fill="#DCFF00" stroke="#082422" stroke-width="0.435206" stroke-miterlimit="10"/>
<path d="M316.969 180.864C316.969 190.149 320.28 197.175 326.298 200.641C327.114 201.112 327.958 201.507 328.829 201.824C330.703 202.512 332.715 202.852 334.819 202.852C336.55 202.852 338.344 202.619 340.182 202.156C340.365 201.23 340.412 200.265 340.325 199.308C340.262 198.489 340.107 197.678 339.869 196.894C339.739 196.463 339.588 196.04 339.41 195.632C335.623 196.752 332.232 196.558 329.554 195.015C329.15 194.782 328.766 194.52 328.401 194.228C325.216 191.704 323.481 187.027 323.481 180.868C323.481 178.976 323.644 177.034 323.953 175.068C324.222 173.347 324.602 171.61 325.086 169.869C325.668 167.78 326.397 165.687 327.26 163.622C328.168 161.431 329.221 159.274 330.406 157.182C331.487 155.263 332.676 153.399 333.955 151.619C334.403 150.998 334.858 150.389 335.326 149.787C336.7 148.023 338.162 146.357 339.695 144.822C340.971 143.54 342.294 142.346 343.664 141.266C345.182 140.051 346.746 138.975 348.347 138.049C352.039 135.925 355.533 134.841 358.595 134.841C360.556 134.841 362.338 135.284 363.887 136.174C367.801 138.433 369.96 143.457 369.96 150.317C369.96 152.209 369.798 154.151 369.489 156.117C369.394 156.734 369.287 157.352 369.156 157.973C368.851 159.5 368.459 161.039 367.987 162.57C367.258 164.956 366.343 167.337 365.262 169.667L365.749 169.952L366.197 170.209L368.288 171.416L370.891 172.915C372.994 168.488 374.531 163.986 375.462 159.591C375.748 158.218 375.973 156.853 376.144 155.508C376.274 154.475 376.362 153.451 376.417 152.442C376.441 151.959 376.461 151.477 376.465 150.994C376.472 150.764 376.472 150.539 376.472 150.313C376.472 141.032 373.161 134.006 367.143 130.536C361.079 127.047 353.251 127.708 345.094 132.415C344.952 132.499 344.809 132.582 344.667 132.669C343.668 133.262 342.678 133.903 341.7 134.603C340.796 135.244 339.905 135.929 339.026 136.657C338.578 137.021 338.134 137.404 337.691 137.792C334.308 140.775 331.139 144.351 328.318 148.367C327.217 149.946 326.159 151.591 325.173 153.296C325.046 153.514 324.919 153.732 324.796 153.949C321.524 159.729 319.207 165.759 317.979 171.594C317.86 172.172 317.745 172.749 317.65 173.327C317.456 174.45 317.302 175.562 317.191 176.658C317.068 177.853 316.996 179.028 316.981 180.187C316.973 180.416 316.973 180.642 316.973 180.871L316.969 180.864Z" fill="#DCFF00" stroke="#082422" stroke-width="0.435206" stroke-miterlimit="10"/>
<path d="M348.758 199.197C348.758 208.479 352.07 215.505 358.091 218.975C358.796 219.382 359.521 219.726 360.274 220.019C362.25 220.799 364.374 221.186 366.616 221.186C368.2 221.186 369.84 220.996 371.516 220.605C371.536 220.518 371.556 220.435 371.571 220.348C371.746 219.501 371.805 218.627 371.758 217.752C371.718 216.937 371.583 216.114 371.369 215.323C371.25 214.888 371.108 214.457 370.941 214.041C367.257 215.074 363.962 214.848 361.347 213.341C360.808 213.032 360.305 212.672 359.834 212.261C356.875 209.674 355.27 205.12 355.27 199.197C355.27 197.306 355.433 195.364 355.742 193.398C356.011 191.677 356.391 189.94 356.879 188.195C357.461 186.102 358.19 184.009 359.053 181.94C359.961 179.753 361.014 177.596 362.195 175.508C363.276 173.589 364.465 171.725 365.744 169.949C366.196 169.324 366.655 168.707 367.123 168.105C368.497 166.341 369.959 164.679 371.488 163.144C372.768 161.862 374.087 160.672 375.457 159.592C376.971 158.381 378.539 157.305 380.136 156.383C383.832 154.255 387.322 153.175 390.388 153.175C392.345 153.175 394.127 153.614 395.672 154.508C399.586 156.763 401.745 161.787 401.745 168.651C401.745 174.859 400.002 181.612 397.047 188.001L397.978 188.539L400.073 189.746L402.68 191.249C406.297 183.626 408.254 175.765 408.254 168.651C408.254 159.37 404.942 152.344 398.929 148.874C392.868 145.381 385.04 146.045 376.88 150.749C376.737 150.832 376.598 150.912 376.456 150.999C375.457 151.592 374.467 152.237 373.489 152.933C372.585 153.574 371.694 154.259 370.815 154.987C370.367 155.351 369.923 155.734 369.48 156.122C366.097 159.109 362.928 162.685 360.107 166.705C359.002 168.283 357.948 169.929 356.958 171.634C356.831 171.848 356.708 172.066 356.589 172.283C353.317 178.063 351 184.097 349.768 189.932C349.649 190.51 349.542 191.083 349.439 191.657C349.245 192.777 349.091 193.892 348.98 194.988C348.857 196.183 348.786 197.366 348.77 198.525C348.762 198.754 348.762 198.98 348.762 199.205L348.758 199.197Z" fill="#DCFF00" stroke="#082422" stroke-width="0.435206" stroke-miterlimit="10"/>
<path d="M276.648 290.886C280.878 285.799 287.037 284.209 292.455 286.166C294.555 286.925 296.542 288.213 298.268 290.039L298.609 290.411C304.776 297.343 304.926 308.802 298.947 316.004C294.718 321.09 288.557 322.681 283.14 320.724C280.9 319.915 278.789 318.502 276.986 316.479C270.815 309.546 270.664 298.083 276.648 290.886Z" fill="#DCFF00" stroke="#082422" stroke-width="0.217603"/>
<path d="M294.648 302.813C294.958 302.925 295.252 303.122 295.501 303.403C296.359 304.376 296.379 305.976 295.55 306.977C294.962 307.688 294.109 307.913 293.356 307.64C293.046 307.527 292.749 307.326 292.499 307.045C291.646 306.08 291.622 304.477 292.451 303.472C293.038 302.76 293.896 302.539 294.648 302.813Z" fill="#082422"/>
<path d="M286.9 294.047C287.21 294.16 287.503 294.357 287.753 294.638C288.606 295.603 288.63 297.206 287.801 298.211C287.214 298.923 286.356 299.144 285.604 298.87C285.294 298.758 285 298.561 284.751 298.279C283.893 297.311 283.873 295.711 284.702 294.706C285.29 293.995 286.143 293.774 286.9 294.047Z" fill="#082422"/>
<path d="M279.833 298.155C279.869 298.167 279.901 298.183 279.937 298.203C280.34 298.42 280.517 298.987 280.328 299.461L280.304 299.513C278.819 302.954 279.607 307.428 282.235 310.394C283.266 311.559 284.481 312.387 285.757 312.85C287.729 313.565 289.834 313.408 291.589 312.283C291.794 312.138 292.031 312.114 292.241 312.191C292.426 312.259 292.591 312.404 292.695 312.613C292.921 313.063 292.792 313.646 292.406 313.911L292.361 313.939C290.216 315.318 287.649 315.519 285.262 314.65C283.753 314.1 282.316 313.127 281.105 311.756C277.977 308.219 277.056 302.833 278.863 298.661C279.036 298.227 279.454 298.018 279.833 298.155Z" fill="#082422"/>
<path opacity="0.2" fill-rule="evenodd" clip-rule="evenodd" d="M67.0223 141.914L67.8056 138.129C69.232 138.664 70.6448 139.33 72.0359 140.132L100.348 156.459V156.455C117.932 166.595 125.415 194.613 117.049 219.023C110.433 238.341 95.8834 249.62 81.3848 248.465L72.4481 247.751C68.4648 247.508 64.4786 246.33 60.6554 244.126L47.4453 236.508L67.0216 141.917L90.9401 155.708C101.251 161.653 108.088 173.745 110.294 187.652C108.089 173.743 101.251 161.649 90.9396 155.703L67.0223 141.914Z" fill="#002522"/>
<path d="M21.6094 223.971L31.0176 224.723L33.9372 212.482L24.5289 211.734L21.6094 223.971Z" fill="#B3D000" stroke="black" stroke-width="0.435206" stroke-miterlimit="10"/>
<path d="M88.1355 137.855L59.8236 121.528C56.1514 119.411 52.3287 118.24 48.502 117.935L39.0938 117.184C42.9204 117.488 46.7432 118.659 50.4153 120.776L78.7273 137.099C96.3118 147.239 103.795 175.257 95.4284 199.667C88.8129 218.985 74.2628 230.265 59.7642 229.109L69.1724 229.861C83.671 231.016 98.2212 219.737 104.837 200.419C113.203 176.009 105.72 147.991 88.1355 137.851V137.855Z" fill="#B3D000" stroke="black" stroke-width="0.435206" stroke-miterlimit="10"/>
<path d="M78.7227 137.101C96.3072 147.241 103.79 175.259 95.4238 199.669C87.0613 224.087 66.0265 235.659 48.438 225.519L24.5272 211.731L21.6076 223.972C20.6212 222.864 1.88396 201.833 0.204343 172.45C-0.473051 164.003 0.517292 155.094 3.42098 146.619C11.7834 122.206 32.8223 110.634 50.4107 120.777L78.7227 137.101Z" fill="#DCFF00" stroke="black" stroke-width="0.435206" stroke-miterlimit="10"/>
<path d="M41.3935 164.302C43.1801 165.331 43.9367 168.171 43.089 170.652C42.2412 173.132 40.1061 174.304 38.3234 173.275C36.5408 172.246 35.7802 169.402 36.628 166.925C37.4757 164.449 39.6109 163.274 41.3935 164.302Z" fill="#002522"/>
<path opacity="0.3" d="M65.9528 178.466C67.7394 179.495 68.5 182.335 67.6483 184.816C66.7966 187.297 64.6654 188.468 62.8788 187.435C61.0922 186.403 60.3356 183.562 61.1833 181.085C62.031 178.609 64.1662 177.434 65.9488 178.462L65.9528 178.466Z" fill="#002522"/>
<path opacity="0.6" d="M53.6747 171.384C55.4613 172.413 56.2179 175.253 55.3702 177.734C54.5225 180.215 52.3873 181.386 50.6047 180.357C48.8221 179.328 48.0615 176.484 48.9092 174.007C49.7569 171.531 51.8921 170.356 53.6747 171.384Z" fill="#002522"/>
<path opacity="0.2" d="M712.975 480.102V480.026C712.699 475.848 710.157 471.981 706.198 469.704L688.159 459L600.257 406.773C594.956 403.668 588.629 401.957 582.44 401.957C576.252 401.957 570.153 403.565 564.9 406.608L529.816 426.899L301.459 558.777C297.335 561.098 294.82 565.365 294.727 570.225C294.727 574.983 297.17 579.286 301.263 581.736L408.706 645.519C413.597 648.45 419.215 650.001 424.962 650.001C430.71 650.001 435.931 648.562 440.924 645.724L493.701 615.231L670.819 512.947L706.497 492.321C710.924 489.84 713.341 485.278 712.966 480.106L712.975 480.102Z" fill="black"/>
<path d="M426.601 635.076L685.071 485.847C690.452 482.756 693.261 477.406 693.471 471.975C693.729 466.131 695.473 451.346 689.725 447.915L581.76 395.359C569.851 388.293 555.08 388.213 543.095 395.127L281.491 535.023C276.265 538.039 277.862 552.281 278.147 556.566C278.606 563.52 280.407 569.169 286.493 572.777L391.101 634.845C402.02 641.313 415.597 641.42 426.596 635.054V635.081L426.601 635.076Z" fill="#BFBBB8" stroke="#082422" stroke-width="0.174082" stroke-miterlimit="10"/>
<path d="M426.597 620.503L685.067 471.274C696.222 464.833 696.325 448.774 685.25 442.203L581.783 380.808C569.874 373.743 555.103 373.662 543.118 380.576L286.677 528.638C275.312 535.186 275.236 551.526 286.494 558.231L391.102 620.298C402.021 626.767 415.598 626.873 426.597 620.508V620.503Z" fill="white" stroke="#082422" stroke-width="0.174082" stroke-miterlimit="10"/>
<path d="M689.239 455.696V455.62C688.972 451.553 686.497 447.793 682.645 445.574L665.092 435.155L579.558 384.331C574.399 381.306 568.242 379.645 562.218 379.645C556.195 379.645 550.26 381.208 545.151 384.171L511.011 403.914L288.812 532.25C284.799 534.509 282.351 538.66 282.258 543.391C282.258 548.024 284.634 552.207 288.62 554.59L393.17 616.654C397.927 619.505 403.398 621.015 408.989 621.015C414.58 621.015 419.659 619.616 424.523 616.854L475.877 587.186L648.225 487.654L682.944 467.585C687.255 465.171 689.605 460.734 689.239 455.7V455.696Z" fill="#35605F"/>
<path d="M593.77 406.765C595.52 406.771 597.286 407.166 598.669 407.949V407.95L631.31 426.748V426.754L631.364 426.785C632.691 427.542 633.329 428.527 633.329 429.49C633.329 430.453 632.691 431.438 631.364 432.195H631.363C630.01 432.979 628.258 433.374 626.507 433.381C624.865 433.387 623.234 433.052 621.943 432.387L621.69 432.249L588.995 413.419C587.641 412.635 586.975 411.635 586.968 410.659C586.961 409.684 587.612 408.683 588.995 407.896H588.996C590.295 407.14 592.019 406.758 593.77 406.765Z" fill="white" stroke="#082422" stroke-width="0.217603"/>
<path d="M629.67 506.245L601.233 522.402C599.097 523.614 597.367 526.327 597.367 528.461C597.367 530.595 599.097 531.339 601.233 530.127L629.67 513.97C631.805 512.758 633.535 510.045 633.535 507.911C633.535 505.777 631.805 505.034 629.67 506.245Z" fill="#BFBBB8" stroke="#082422" stroke-width="0.174082" stroke-miterlimit="10"/>
<path d="M355.48 609.661L355.19 609.492C354.981 609.367 354.852 609.145 354.852 608.9V603.198C354.852 602.663 355.431 602.333 355.89 602.605L356.18 602.774C356.39 602.899 356.519 603.122 356.519 603.367V609.069C356.519 609.603 355.939 609.933 355.48 609.661Z" fill="#082422"/>
<path d="M358.612 611.541L358.322 611.367C358.117 611.242 357.992 611.019 357.992 610.779V605.09C357.992 604.556 358.581 604.226 359.04 604.502L359.33 604.676C359.535 604.801 359.66 605.023 359.66 605.264V610.953C359.66 611.487 359.071 611.817 358.612 611.541Z" fill="#082422"/>
<path d="M361.795 613.421L361.483 613.234C361.278 613.109 361.148 612.886 361.148 612.646V606.957C361.148 606.427 361.724 606.097 362.183 606.364L362.495 606.547C362.704 606.672 362.834 606.894 362.834 607.139V612.833C362.834 613.367 362.25 613.697 361.79 613.421H361.795Z" fill="#082422"/>
<path d="M364.948 615.313L364.636 615.131C364.426 615.006 364.297 614.783 364.297 614.538V608.832C364.297 608.302 364.872 607.972 365.331 608.239L365.643 608.422C365.853 608.547 365.982 608.769 365.982 609.014V614.721C365.982 615.251 365.407 615.581 364.948 615.313Z" fill="#082422"/>
<path d="M368.081 617.177L367.791 617.004C367.586 616.879 367.461 616.656 367.461 616.416V610.727C367.461 610.192 368.049 609.863 368.509 610.139L368.799 610.313C369.004 610.437 369.128 610.66 369.128 610.901V616.589C369.128 617.124 368.54 617.454 368.081 617.177Z" fill="#082422"/>
<path d="M371.238 619.072L370.948 618.902C370.739 618.778 370.609 618.555 370.609 618.31V612.608C370.609 612.073 371.189 611.743 371.648 612.015L371.938 612.185C372.148 612.309 372.277 612.532 372.277 612.777V618.479C372.277 619.014 371.697 619.343 371.238 619.072Z" fill="#082422"/>
<path d="M374.404 620.957L374.092 620.77C373.887 620.646 373.758 620.423 373.758 620.182V614.485C373.758 613.95 374.342 613.62 374.801 613.897L375.113 614.084C375.318 614.209 375.448 614.431 375.448 614.672V620.369C375.448 620.904 374.864 621.234 374.404 620.957Z" fill="#082422"/>
<path d="M377.558 622.833L377.269 622.664C377.059 622.539 376.93 622.316 376.93 622.071V616.369C376.93 615.835 377.509 615.505 377.969 615.777L378.258 615.946C378.468 616.071 378.597 616.294 378.597 616.539V622.241C378.597 622.775 378.018 623.105 377.558 622.833Z" fill="#082422"/>
<path d="M380.69 624.709L380.4 624.535C380.195 624.41 380.07 624.187 380.07 623.947V618.258C380.07 617.724 380.659 617.394 381.118 617.67L381.408 617.844C381.613 617.969 381.738 618.191 381.738 618.432V624.121C381.738 624.655 381.149 624.985 380.69 624.709Z" fill="#082422"/>
<path d="M327.023 592.477C325.387 591.514 324.031 589.385 324.031 587.75C324.031 586.115 325.382 585.541 327.023 586.503L344.238 596.584C345.874 597.546 347.229 599.675 347.229 601.31C347.229 602.945 345.878 603.52 344.238 602.558" fill="#082422"/>
<path d="M292.232 572.149L291.92 571.962C291.715 571.837 291.586 571.614 291.586 571.374V565.676C291.586 565.142 292.17 564.812 292.629 565.088L292.941 565.275C293.146 565.4 293.276 565.623 293.276 565.863V571.561C293.276 572.095 292.692 572.425 292.232 572.149Z" fill="#082422"/>
<path d="M295.379 574.025L295.089 573.855C294.879 573.731 294.75 573.508 294.75 573.263V567.561C294.75 567.026 295.33 566.697 295.789 566.968L296.079 567.138C296.288 567.262 296.418 567.485 296.418 567.73V573.432C296.418 573.967 295.838 574.296 295.379 574.025Z" fill="#082422"/>
<path d="M298.518 575.904L298.228 575.73C298.023 575.605 297.898 575.383 297.898 575.142V569.453C297.898 568.919 298.487 568.589 298.946 568.865L299.236 569.039C299.441 569.164 299.566 569.387 299.566 569.627V575.316C299.566 575.85 298.977 576.18 298.518 575.904Z" fill="#082422"/>
<path d="M301.698 577.806L301.386 577.623C301.176 577.498 301.047 577.276 301.047 577.031V571.324C301.047 570.794 301.622 570.464 302.081 570.732L302.393 570.914C302.603 571.039 302.732 571.262 302.732 571.507V577.213C302.732 577.743 302.157 578.073 301.698 577.806Z" fill="#082422"/>
<path d="M304.842 579.684L304.53 579.497C304.325 579.372 304.195 579.149 304.195 578.909V573.211C304.195 572.677 304.779 572.347 305.239 572.623L305.551 572.81C305.756 572.935 305.885 573.158 305.885 573.398V579.096C305.885 579.631 305.301 579.96 304.842 579.684Z" fill="#082422"/>
<path d="M307.988 581.56L307.698 581.391C307.489 581.266 307.359 581.043 307.359 580.798V575.096C307.359 574.561 307.939 574.232 308.398 574.504L308.688 574.673C308.898 574.798 309.027 575.02 309.027 575.265V580.967C309.027 581.502 308.447 581.832 307.988 581.56Z" fill="#082422"/>
<path d="M311.136 583.431L310.847 583.261C310.637 583.137 310.508 582.914 310.508 582.669V576.985C310.508 576.45 311.096 576.12 311.556 576.397L311.845 576.57C312.05 576.695 312.175 576.918 312.175 577.158V582.838C312.175 583.373 311.596 583.702 311.136 583.431Z" fill="#082422"/>
<path d="M314.311 585.321L313.998 585.134C313.793 585.009 313.664 584.786 313.664 584.546V578.848C313.664 578.313 314.248 577.984 314.707 578.26L315.019 578.447C315.225 578.572 315.354 578.795 315.354 579.035V584.733C315.354 585.267 314.77 585.597 314.311 585.321Z" fill="#082422"/>
<path d="M317.457 587.2L317.167 587.031C316.957 586.906 316.828 586.684 316.828 586.439V580.737C316.828 580.202 317.408 579.872 317.867 580.144L318.157 580.313C318.366 580.438 318.496 580.661 318.496 580.906V586.608C318.496 587.143 317.916 587.472 317.457 587.2Z" fill="#082422"/>
<path opacity="0.2" fill-rule="evenodd" clip-rule="evenodd" d="M420.93 451.138L529.064 513.487L527.633 520.762C528.951 521.211 553.979 529.689 574.864 525.189C580.983 524.027 586.454 521.664 590.529 518.11C594.03 515.057 596.111 511.469 596.86 507.678L598.595 498.853C597.849 502.638 595.769 506.221 592.268 509.27C588.187 512.824 582.716 515.187 576.603 516.349C575.54 516.578 574.467 516.774 573.386 516.938C574.465 516.774 575.537 516.578 576.599 516.35C582.712 515.187 588.183 512.824 592.263 509.27C604.012 499.027 599.768 482.789 582.784 472.994L482.864 415.379L420.93 451.138Z" fill="black"/>
<path d="M419.543 419.657C407.625 412.785 401.98 402.739 403.733 393.812L401.995 402.652C400.237 411.574 405.882 421.625 417.804 428.497L532.659 494.721L534.398 485.881L419.543 419.657Z" fill="#B3D000" stroke="black" stroke-width="0.435206" stroke-miterlimit="10"/>
<path d="M590.681 487.513C586.601 491.068 581.13 493.431 575.017 494.593C554.132 499.092 529.104 490.609 527.785 490.166L526.047 499.006C527.365 499.454 552.393 507.932 573.278 503.433C579.396 502.271 584.867 499.908 588.943 496.353C592.444 493.301 594.525 489.712 595.274 485.922L597.012 477.082C596.268 480.873 594.187 484.461 590.681 487.513Z" fill="#B3D000" stroke="black" stroke-width="0.435206" stroke-miterlimit="10"/>
<path d="M581.188 451.237C598.171 461.031 602.415 477.269 590.667 487.512C586.586 491.067 581.115 493.43 575.002 494.592C554.117 499.092 529.089 490.609 527.771 490.165L534.391 485.878L419.536 419.653C402.553 409.859 398.308 393.621 410.062 383.378C421.81 373.134 445.1 372.768 462.088 382.562L581.188 451.237Z" fill="#DCFF00" stroke="black" stroke-width="0.435206" stroke-miterlimit="10"/>
<path d="M449.539 399.16L452.397 400.809L450.437 402.512L447.578 400.867L449.539 399.16Z" fill="black"/>
<path d="M503.207 430.107L484.466 436.733C480.748 438.04 478.425 438.04 476.093 436.695C475.378 436.285 474.837 435.812 474.625 435.634L475.852 434.563C476.325 434.959 476.75 435.267 477.339 435.61C479.169 436.666 480.613 436.222 483.201 435.316L483.824 435.084L488.643 421.711L490.724 422.912L486.485 434.163L501.194 428.945L503.207 430.107Z" fill="black"/>
<path d="M469.782 404.551C474.128 407.058 475.127 409.966 472.399 412.344C469.671 414.722 465.426 414.644 461.08 412.137L454.493 408.341L447.704 414.259L445.594 413.043L461.085 399.535L469.782 404.551ZM462.316 410.921C465.363 412.677 468.333 412.74 470.226 411.09C472.119 409.441 471.399 407.411 468.357 405.655L461.867 401.913L455.826 407.179L462.316 410.921Z" fill="black"/>
<path d="M446.069 403.043L447.779 404.027L436.595 414.135L434.359 412.847L446.069 403.043Z" fill="black"/>
<path d="M477.835 430.011C478.023 430.117 478.231 430.208 478.376 430.261L477.217 431.274C476.922 431.168 476.599 431.043 476.289 430.869C474.643 429.919 474.073 428.747 475.618 427.402C473.334 428.043 470.205 427.488 467.752 426.075C464.584 424.248 463.551 421.909 465.482 420.226C467.414 418.542 470.543 418.692 474.199 420.365L478.603 422.376C479.824 422.931 480.708 422.97 481.355 422.405C482.688 421.243 482.041 419.473 479.336 417.911C476.821 416.459 474.329 416.203 472.562 417.428L470.514 416.247C473.015 414.516 476.922 414.708 480.582 416.821C484.31 418.972 485.329 421.769 483.311 423.529L477.506 428.588C476.753 429.244 477.178 429.644 477.83 430.015L477.835 430.011ZM478.694 424.715L479.317 424.175L473.271 421.528C470.688 420.409 468.785 420.308 467.54 421.397C466.294 422.487 467.144 423.905 469.162 425.067C472.639 427.074 476.14 426.943 478.699 424.715" fill="black"/>
<path d="M549.783 467.233L548.078 466.249L559.262 456.141L561.498 457.428L549.783 467.233Z" fill="black"/>
<path d="M552.254 458.387L533.508 465.014C529.79 466.321 527.472 466.325 525.14 464.98C524.425 464.57 523.884 464.097 523.672 463.919L524.898 462.848C525.372 463.244 525.797 463.552 526.386 463.895C528.216 464.951 529.66 464.507 532.248 463.601L532.871 463.369L537.69 449.996L539.771 451.197L535.532 462.448L550.24 457.23L552.254 458.392V458.387Z" fill="black"/>
<path d="M545.417 467.766L548.275 469.41L546.32 471.117L543.461 469.468L545.417 467.766Z" fill="black"/>
<path d="M526.875 458.29C527.064 458.396 527.267 458.483 527.416 458.541L526.257 459.553C525.963 459.447 525.639 459.322 525.33 459.148C523.683 458.198 523.114 457.026 524.664 455.681C522.38 456.322 519.251 455.768 516.798 454.355C513.63 452.527 512.596 450.188 514.533 448.505C516.469 446.822 519.593 446.971 523.249 448.645L527.653 450.656C528.875 451.21 529.758 451.249 530.405 450.685C531.738 449.522 531.086 447.748 528.382 446.19C525.866 444.738 523.374 444.483 521.607 445.708L519.56 444.526C522.061 442.79 525.963 442.988 529.628 445.1C533.293 447.212 534.375 450.048 532.356 451.808L526.552 456.867C525.799 457.523 526.223 457.923 526.875 458.295V458.29ZM527.735 452.995L528.358 452.455L522.312 449.807C519.729 448.688 517.826 448.587 516.58 449.677C515.334 450.767 516.184 452.185 518.203 453.347C521.68 455.353 525.18 455.223 527.74 452.995" fill="black"/>
<path d="M521.981 434.393L523.937 435.522L508.272 449.179L506.316 448.051L508.117 446.479C506.355 447.019 503.187 446.498 500.642 445.032C495.639 442.148 495.548 438.362 498.73 435.589C501.912 432.816 507.171 432.146 512.14 435.011C514.284 436.245 515.795 438.304 515.66 439.906L521.976 434.398L521.981 434.393ZM501.956 443.981C505.341 445.934 509.392 445.683 512.12 443.306C514.825 440.947 514.342 438.083 510.957 436.134C507.572 434.186 503.486 434.408 500.777 436.771C498.068 439.134 498.537 442.013 501.951 443.986" fill="black"/>
</g>
<defs>
<clipPath id="clip0_14997_18379">
<rect width="713" height="650" fill="white"/>
</clipPath>
</defs>
</svg>
