<svg width="300" height="277" viewBox="0 0 300 277" fill="none" xmlns="http://www.w3.org/2000/svg">
<g clip-path="url(#clip0_14902_18022)">
<path fill-rule="evenodd" clip-rule="evenodd" d="M196.494 32.5945C190.262 31.41 183.688 30.8047 176.952 30.8047C146.864 30.8047 115.191 42.5592 87.7735 63.9048C60.3559 85.2557 40.4721 113.639 31.7893 143.834C24.9117 167.742 25.6562 190.392 33.9077 209.636L33.9069 209.637L33.9089 209.639L24.5721 216.897L24.5703 216.896L24.5713 216.897L24.5703 216.898L24.5725 216.899L29.1137 222.16L65.4397 232.778L60.8963 227.514L37.691 220.731L60.8963 227.51L61.7462 187.988L55.1786 193.098C53.7312 187.405 52.9916 181.433 52.9632 175.249C77.8763 189.832 102.788 204.413 127.701 218.994C135.701 210.086 146.014 202.534 157.661 195.76C173.565 186.511 191.96 178.72 210.353 170.93L210.377 170.919L211.187 170.577L212.107 170.187L213.578 169.565L213.578 169.565C230.967 162.209 248.689 154.712 263.679 145.995C265.568 142.204 266.455 139.083 267.758 134.499C268.296 132.604 268.906 130.458 269.687 127.912C270.02 126.351 270.391 124.53 270.761 122.6C272.296 133.872 271.264 146.048 267.635 158.66V158.661C260.309 184.129 243.338 207.228 221.846 223.961C200.353 240.694 174.351 251.051 148.974 251.051C143.459 251.051 138.082 250.556 132.993 249.59C132.405 249.477 131.801 249.424 131.189 249.424C126.265 249.424 120.896 252.946 118.558 257.963C117.238 260.783 117.119 263.559 118.014 265.765C118.305 266.483 118.704 267.138 119.201 267.714C119.202 267.715 119.202 267.716 119.203 267.717L123.747 272.981C124.78 274.18 126.236 275.029 128.049 275.373C134.287 276.559 140.871 277.166 147.617 277.166C177.748 277.166 209.456 265.39 236.897 244.025C264.34 222.661 284.246 194.248 292.944 164.021C299.831 140.083 299.089 117.391 290.818 98.0994C290.815 98.0908 290.81 98.0824 290.805 98.0744C290.801 98.0692 290.797 98.0642 290.794 98.0594L299.999 90.9L295.565 85.7634C295.599 85.7321 295.619 85.6878 295.619 85.6414V85.6365C295.619 85.563 295.57 85.4981 295.499 85.4774L259.179 74.8651C259.129 74.8506 259.076 74.86 259.034 74.8904C259.003 74.9134 258.981 74.9464 258.972 74.9832L258.967 75.0203L258.374 102.548C241.163 92.4735 223.951 82.3996 206.738 72.3257C198.738 81.234 188.426 88.7879 176.779 95.5619C160.875 104.809 142.48 112.599 124.087 120.39L124.087 120.39L124.087 120.39L124.087 120.39L124.087 120.39L124.062 120.4L124.005 120.425L124.004 120.425C105.622 128.21 87.2428 135.995 71.3486 145.238V145.241C65.5394 148.618 60.062 152.191 55.0381 156.029C55.5316 153.733 56.1132 151.419 56.7832 149.091C71.4574 98.0824 124.755 56.5808 175.598 56.5808C181.123 56.5808 186.511 57.0704 191.615 58.0442C192.192 58.1548 192.785 58.2074 193.383 58.2074C198.231 58.2074 203.546 54.7279 205.865 49.7639C207.591 46.0686 207.223 42.4785 205.245 40.1887L200.705 34.9285C202.68 37.2185 203.046 40.8066 201.321 44.4999C199.561 48.2676 196.075 51.1801 192.378 52.3651C196.073 51.179 199.557 48.2675 201.316 44.5017C203.918 38.9271 201.762 33.5946 196.489 32.5892L196.494 32.5945ZM48.8562 161.1C49.425 155.467 50.5519 149.693 52.2399 143.827C63.2575 105.529 96.0486 72.5896 133.226 58.5522C96.0465 72.5885 63.2527 105.528 52.2345 143.828C50.5462 149.696 49.4192 155.471 48.8505 161.105L48.8562 161.1ZM48.4722 172.62C48.7688 180.46 50.2306 187.938 52.8483 194.91L52.853 194.907C50.2363 187.936 48.7748 180.461 48.4777 172.624L48.4722 172.62ZM61.756 187.987L66.2994 193.251L65.4495 232.778L60.9061 227.514L61.756 187.987Z" fill="black" fill-opacity="0.1"/>
<path d="M242.624 76.8223L247.168 82.0863L238.27 89.0032L233.727 83.7392L242.624 76.8223Z" fill="#97B000" stroke="#002522" stroke-width="0.554713" stroke-linejoin="round"/>
<path d="M261.557 62.0898L266.1 67.3539L247.161 82.0878L242.617 76.8238L261.557 62.0898Z" fill="#97B000" stroke="#002522" stroke-width="0.554713" stroke-linejoin="round"/>
<path d="M270.888 54.8281L275.431 60.0921L266.098 67.3512L261.555 62.0872L270.888 54.8281Z" fill="#97B000" stroke="#002522" stroke-width="0.554713" stroke-linejoin="round"/>
<path d="M99.309 242.065L94.7656 236.801C95.7729 237.97 97.1947 238.796 98.9732 239.138C105.206 240.323 111.774 240.928 118.511 240.928C148.599 240.928 180.271 229.168 207.689 207.823C235.106 186.477 254.99 158.094 263.678 127.904C270.556 103.995 269.811 81.3443 261.559 62.0938L266.102 67.3578C274.355 86.6083 275.1 109.259 268.222 133.168C259.534 163.358 239.65 191.741 212.232 213.087C184.815 234.432 153.142 246.192 123.054 246.192C116.318 246.192 109.744 245.587 103.517 244.402C101.738 244.066 100.316 243.234 99.309 242.065Z" fill="#97B000" stroke="#002522" stroke-width="0.554713" stroke-linejoin="round"/>
<path d="M270.889 54.8291L234.569 44.2168L233.719 83.739L242.617 76.8168C248.304 91.9509 248.535 109.464 243.23 127.899C228.556 178.912 175.253 220.409 124.41 220.409C118.886 220.409 113.498 219.914 108.398 218.945C107.821 218.835 107.228 218.782 106.625 218.782C101.772 218.782 96.4576 222.262 94.1439 227.226C91.5365 232.8 93.7032 238.133 98.9706 239.138C105.203 240.322 111.772 240.928 118.508 240.928C148.596 240.928 180.269 229.168 207.686 207.822C235.104 186.477 254.988 158.093 263.676 127.904C270.554 103.995 269.809 81.3439 261.556 62.0934L270.889 54.8343V54.8291Z" fill="#DCFF00" stroke="#002522" stroke-width="0.554713" stroke-linejoin="round"/>
<path d="M275.682 93.0898L275.69 96.1078C267.68 105.012 257.356 112.562 245.695 119.332C229.766 128.581 211.343 136.368 192.92 144.158C174.497 151.948 156.072 159.737 140.143 168.986C128.482 175.757 118.158 183.304 110.148 192.208L110.141 189.19C118.15 180.286 128.472 172.739 140.135 165.968C156.064 156.722 174.49 148.93 192.912 141.14C211.338 133.35 229.758 125.563 245.688 116.314C257.348 109.546 267.672 101.994 275.682 93.0898Z" fill="#38A543" stroke="#082422" stroke-width="0.554713" stroke-miterlimit="10"/>
<path d="M110.128 189.187L110.136 192.208C81.4333 175.357 52.7336 158.506 24.0313 141.653L24.0234 138.631C52.7257 155.482 81.4254 172.333 110.128 189.187Z" fill="#38A543" stroke="#082422" stroke-width="0.554713" stroke-miterlimit="10"/>
<path d="M53.9827 115.776C69.8937 106.522 88.2951 98.7313 106.697 90.9376C125.098 83.1439 143.502 75.3502 159.413 66.0995C171.06 59.3254 181.372 51.7715 189.372 42.8633C218.144 59.7022 246.913 76.5411 275.684 93.3827C267.685 102.291 257.372 109.845 245.725 116.619C229.814 125.872 211.413 133.663 193.011 141.457C174.61 149.251 156.206 157.044 140.295 166.298C128.648 173.072 118.336 180.623 110.336 189.531C81.564 172.692 52.795 155.853 24.0234 139.012C32.0234 130.106 42.336 122.55 53.9827 115.778V115.776Z" fill="#60D06F" stroke="#082422" stroke-width="0.554713" stroke-miterlimit="10"/>
<path d="M70.9645 120.025C84.7953 112.013 100.483 105.083 116.171 98.1535C131.856 91.2237 147.541 84.2966 161.372 76.2849C166.441 73.3479 171.264 70.2642 175.746 66.9841C176.469 66.557 177.386 66.5754 177.994 66.9291C183.787 70.3062 192.313 70.5131 197.795 67.3378C198.652 66.8426 199.433 66.2636 200.119 65.6007C200.234 65.4881 200.368 65.3912 200.514 65.3073C201.237 64.8881 202.271 64.8253 203.047 65.2785C214.41 71.9017 225.77 78.5275 237.133 85.1507C238.065 85.6931 238.162 86.7096 237.467 87.3777C232.393 92.277 232.928 98.9578 239.664 102.882C240.403 103.312 240.552 104.069 239.883 104.559C235.441 107.803 230.669 110.85 225.65 113.758C211.819 121.77 196.134 128.697 180.449 135.626C164.761 142.556 149.076 149.486 135.246 157.495C130.171 160.435 125.345 163.521 120.861 166.804C120.038 167.291 118.991 167.262 118.302 166.861C112.517 163.49 104.009 163.28 98.5374 166.45C97.6756 166.95 96.8869 167.532 96.2 168.2C96.0956 168.3 95.9781 168.389 95.8475 168.465C95.1946 168.842 94.2596 168.894 93.5571 168.488C82.0924 161.805 70.6302 155.121 59.1654 148.438C58.3245 147.948 58.2279 147.031 58.8521 146.426C63.9133 141.519 63.3701 134.835 56.6348 130.908C55.9846 130.528 55.8618 129.865 56.4468 129.436C60.97 126.113 65.8406 122.996 70.9671 120.025H70.9645Z" fill="#80E58A" stroke="#082422" stroke-width="0.554713" stroke-miterlimit="10"/>
<path d="M115.986 111.439C119.657 109.326 123.751 107.275 128.215 105.309C143.391 98.6244 158.774 93.5259 170.512 90.1889C176.443 88.5557 181.602 87.446 185.972 87.145C190.339 86.844 193.95 87.3727 196.701 88.9692C199.444 90.5553 201.079 93.06 201.489 96.1275C201.896 99.1923 201.047 102.796 198.735 106.526C195.558 111.836 189.191 117.233 180.385 122.295C176.714 124.407 172.62 126.459 168.155 128.425C152.98 135.109 137.599 140.208 125.858 143.545C119.927 145.178 114.769 146.288 110.399 146.589C106.032 146.89 102.424 146.361 99.6671 144.767C96.9263 143.181 95.2892 140.674 94.8793 137.606C94.472 134.541 95.3234 130.937 97.6332 127.21C100.81 121.897 107.177 116.503 115.983 111.439H115.986Z" fill="#60D06F" stroke="#082422" stroke-width="0.554713" stroke-miterlimit="10"/>
<path d="M176.117 4.12305L180.661 9.38706C182.638 11.6769 183.006 15.267 181.28 18.9623C178.961 23.9263 173.646 27.4058 168.798 27.4058C168.2 27.4058 167.608 27.3531 167.03 27.2426C161.926 26.2688 156.538 25.7792 151.013 25.7792C100.17 25.7792 46.8724 67.2807 32.1983 118.289C26.8942 136.724 27.125 154.237 32.8121 169.371L28.2687 164.107C22.5869 148.973 22.3508 131.46 27.6549 113.025C42.3291 62.0167 95.6271 20.5152 146.47 20.5152C151.994 20.5152 157.382 21.01 162.487 21.9786C163.064 22.0891 163.657 22.1418 164.255 22.1418C169.103 22.1418 174.417 18.6623 176.736 13.6983C178.462 10.003 178.095 6.41289 176.117 4.12305Z" fill="#97B000" stroke="#002522" stroke-width="0.554713" stroke-linejoin="round"/>
<path d="M28.2754 164.105L32.8188 169.369L13.8793 184.098L9.33594 178.834L28.2754 164.105Z" fill="#97B000" stroke="#002522" stroke-width="0.554713" stroke-linejoin="round"/>
<path d="M37.1702 157.182L41.7136 162.446L40.8637 201.973L36.3203 196.709L37.1702 157.182Z" fill="#97B000" stroke="#002522" stroke-width="0.554713" stroke-linejoin="round"/>
<path d="M36.326 196.711L40.8694 201.975L4.54337 191.358L0 186.094L36.326 196.711Z" fill="#97B000" stroke="#002522" stroke-width="0.554713" stroke-linejoin="round"/>
<path d="M171.924 1.78977C165.691 0.605362 159.118 0 152.381 0C122.293 0 90.6208 11.7545 63.2032 33.1001C35.7856 54.451 15.9018 82.8345 7.21903 113.029C0.341015 136.938 1.086 159.589 9.33857 178.834L0 186.093L36.326 196.706L37.1759 157.183L28.278 164.106C22.5962 148.972 22.3601 131.458 27.6642 113.024C42.3383 62.0154 95.6364 20.5139 146.479 20.5139C152.004 20.5139 157.392 21.0087 162.496 21.9773C163.073 22.0878 163.666 22.1404 164.264 22.1404C169.112 22.1404 174.427 18.6609 176.746 13.697C179.348 8.12238 177.191 2.78993 171.919 1.7845L171.924 1.78977Z" fill="#DCFF00" stroke="#002522" stroke-width="0.554713" stroke-linejoin="round"/>
</g>
<defs>
<clipPath id="clip0_14902_18022">
<rect width="300" height="277" fill="white"/>
</clipPath>
</defs>
</svg>
