<svg width="300" height="276" viewBox="0 0 300 276" fill="none" xmlns="http://www.w3.org/2000/svg">
<g clip-path="url(#clip0_14902_17936)">
<path fill-rule="evenodd" clip-rule="evenodd" d="M196.502 32.4786C190.269 31.2985 183.696 30.6953 176.959 30.6953C146.871 30.6953 115.199 42.4074 87.7813 63.6759C60.3637 84.9497 40.4799 113.231 31.7972 143.316C24.9191 167.139 25.6641 189.708 33.9167 208.884L24.5799 216.116L24.5781 216.115L24.5791 216.116L24.5781 216.117L24.5803 216.118L29.1215 221.36L65.4404 231.937L65.4427 231.94L65.4428 231.938L65.4475 231.939L65.4429 231.934L66.2926 192.555L61.7539 187.315L61.754 187.311L61.7518 187.313L61.7493 187.31L61.7492 187.315L55.1803 192.407C51.7685 179.039 52.287 164.127 56.7838 148.554C71.4579 97.7301 124.756 56.3784 175.599 56.3784C181.123 56.3784 186.511 56.8662 191.616 57.8365C192.193 57.9467 192.786 57.9991 193.384 57.9991C198.232 57.9991 203.546 54.5322 205.865 49.5861C207.591 45.9041 207.224 42.327 205.246 40.0455L200.777 34.8865C199.767 33.6796 198.318 32.8194 196.497 32.4734L196.502 32.4786ZM60.8994 226.693L37.5215 219.885L60.8995 226.69L60.8994 226.693ZM145.575 83.0617C183.207 66.3112 218.109 75.4506 227.681 103.096C226.145 98.6565 223.956 94.694 221.208 91.241L231.955 104.744C236.147 110.01 239.038 116.461 240.297 123.982C245.863 157.288 217.297 199.012 176.49 217.176C144.897 231.238 115.233 227.057 100.864 209.004L90.2666 195.69C85.9898 190.386 83.0425 183.87 81.7687 176.255C76.2023 142.949 104.758 101.225 145.575 83.0617ZM267.2 107.246L267.199 107.245L258.301 114.137L262.845 119.382L269.416 114.291C272.826 127.656 272.306 142.566 267.811 158.134C253.136 208.964 199.833 250.31 148.99 250.31C143.466 250.31 138.078 249.817 132.978 248.852C132.401 248.742 131.808 248.689 131.205 248.689C126.352 248.689 121.038 252.156 118.724 257.102C116.926 260.932 117.398 264.646 119.59 266.913L123.9 271.888C124.908 273.053 126.329 273.882 128.108 274.217C134.335 275.397 140.909 276.001 147.646 276.001C177.734 276.001 209.406 264.283 236.824 243.015C264.241 221.746 284.125 193.465 292.813 163.385C299.691 139.562 298.946 116.993 290.694 97.8118L286.15 92.5667L286.155 92.577L286.142 92.562L295.469 85.3334V85.3282L259.149 74.7542L258.299 114.134L267.197 107.237C267.198 107.24 267.199 107.243 267.2 107.246ZM288.696 99.3476C294.459 116.98 294.339 137.069 288.256 158.139C279.568 188.22 259.684 216.501 232.266 237.769C204.849 259.038 173.176 270.755 143.088 270.755C141.781 270.755 140.481 270.732 139.188 270.687C140.486 270.733 141.791 270.756 143.102 270.756C173.19 270.756 204.863 259.038 232.28 237.77C259.698 216.501 279.582 188.22 288.27 158.14C294.354 137.066 294.473 116.973 288.707 99.339L288.696 99.3476ZM300.028 90.5737L295.484 85.3287L286.151 92.5616L290.694 97.8066L300.028 90.5737Z" fill="black" fill-opacity="0.1"/>
<path d="M196.615 60.5449L207.365 74.0508C211.557 79.3168 214.447 85.7682 215.707 93.2895C221.273 126.595 192.706 168.319 151.9 186.483C120.306 200.545 90.6431 196.364 76.2733 178.311L65.5234 164.805C79.8933 182.859 109.556 187.044 141.15 172.977C181.956 154.814 210.523 113.089 204.957 79.7836C203.698 72.2623 200.807 65.8109 196.615 60.5449Z" fill="#12C6C1" stroke="#002522" stroke-width="0.554713" stroke-linejoin="round"/>
<path d="M120.984 52.3658C161.791 34.2024 199.386 46.4809 204.958 79.7868C210.524 113.093 181.958 154.817 141.151 172.98C100.335 191.149 62.7494 178.865 57.1778 145.559C51.6114 112.253 80.1674 70.5293 120.984 52.3658Z" fill="#2BF2F1" stroke="#002522" stroke-width="0.554713" stroke-linejoin="round"/>
<path d="M146.574 73.9482L161.389 79.0673C161.389 79.0673 161.395 79.0726 161.389 79.0778L155.445 87.5695C161.09 92.1327 161.757 98.5316 156.447 107.086L141.049 101.762C143.84 97.6609 143.043 95.7779 140.425 94.881C139.066 94.4142 137.844 94.4877 136.842 94.9335C136.097 95.2639 135.472 95.8042 135.005 96.4703C133.248 98.9826 135.142 100.483 138.625 103.289L140.467 104.773C149.234 111.686 150.472 117.256 145.042 125.014C142.377 128.827 139.003 131.659 135.079 133.411C131.223 135.126 126.831 135.797 122.042 135.31L115.426 144.766L100.516 139.61L107.121 130.159C99.9752 125.25 99.6814 118.221 105.431 109.142L121.753 114.775C119.03 118.982 119.093 121.374 122.446 122.533C123.951 123.052 125.399 123.104 126.664 122.543C127.451 122.192 128.159 121.604 128.762 120.744C130.236 118.641 128.914 117.498 126.811 115.761L122.734 112.499C113.915 105.66 113.427 99.6645 118.857 91.9071C121.328 88.3772 124.502 85.7075 128.227 84.0501C131.889 82.4189 136.091 81.7633 140.682 82.2143L146.427 74.0006C146.458 73.9534 146.521 73.9325 146.574 73.9534V73.9482Z" fill="white" stroke="#002522" stroke-width="0.554713" stroke-linejoin="round"/>
<path d="M176.125 4.10938L180.668 9.35439C182.646 11.636 183.013 15.2131 181.287 18.8951C178.969 23.8411 173.654 27.3081 168.806 27.3081C168.208 27.3081 167.615 27.2556 167.038 27.1455C161.934 26.1751 156.545 25.6874 151.021 25.6874C100.178 25.6874 46.8802 67.039 32.2061 117.863C26.902 136.231 27.1328 153.681 32.8199 168.761L28.2766 163.516C22.5947 148.436 22.3586 130.986 27.6627 112.618C42.3369 61.794 95.6349 20.4423 146.478 20.4423C152.002 20.4423 157.39 20.9354 162.495 21.9005C163.072 22.0106 163.665 22.0631 164.263 22.0631C169.111 22.0631 174.425 18.5961 176.744 13.6501C178.47 9.96805 178.103 6.39095 176.125 4.10938Z" fill="#97B000" stroke="#002522" stroke-width="0.554713" stroke-linejoin="round"/>
<path d="M28.2754 163.516L32.8188 168.761L13.8793 183.436L9.33594 178.191L28.2754 163.516Z" fill="#97B000" stroke="#002522" stroke-width="0.554713" stroke-linejoin="round"/>
<path d="M37.1859 156.615L41.7292 161.86L40.8793 201.245L36.3359 196L37.1859 156.615Z" fill="#97B000" stroke="#002522" stroke-width="0.554713" stroke-linejoin="round"/>
<path d="M36.326 196.003L40.8694 201.248L4.54337 190.669L0 185.424L36.326 196.003Z" fill="#97B000" stroke="#002522" stroke-width="0.554713" stroke-linejoin="round"/>
<path d="M171.924 1.7833C165.691 0.603176 159.118 0 152.381 0C122.293 0 90.6208 11.7121 63.2032 32.9806C35.7856 54.2544 15.9018 82.5355 7.21903 112.621C0.341015 136.444 1.086 159.013 9.33857 178.189L0 185.422L36.326 195.996L37.1759 156.616L28.278 163.513C22.5962 148.434 22.3601 130.984 27.6642 112.616C42.3383 61.7915 95.6364 20.4398 146.479 20.4398C152.004 20.4398 157.392 20.9328 162.496 21.8979C163.073 22.0081 163.666 22.0605 164.264 22.0605C169.112 22.0605 174.427 18.5936 176.746 13.6475C179.348 8.09305 177.191 2.77986 171.919 1.77806L171.924 1.7833Z" fill="#DCFF00" stroke="#002522" stroke-width="0.554713" stroke-linejoin="round"/>
<path d="M242.624 76.5469L247.168 81.7919L238.27 88.6838L233.727 83.4388L242.624 76.5469Z" fill="#97B000" stroke="#002522" stroke-width="0.554713" stroke-linejoin="round"/>
<path d="M261.549 61.8672L266.092 67.1122L247.153 81.793L242.609 76.548L261.549 61.8672Z" fill="#97B000" stroke="#002522" stroke-width="0.554713" stroke-linejoin="round"/>
<path d="M270.888 54.6328L275.431 59.8778L266.098 67.1107L261.555 61.8657L270.888 54.6328Z" fill="#97B000" stroke="#002522" stroke-width="0.554713" stroke-linejoin="round"/>
<path d="M99.3246 241.193L94.7812 235.948C95.7886 237.112 97.2103 237.936 98.9889 238.277C105.222 239.457 111.79 240.06 118.526 240.06C148.614 240.06 180.287 228.343 207.704 207.074C235.122 185.805 255.006 157.524 263.694 127.444C270.572 103.621 269.827 81.0521 261.574 61.8711L266.118 67.1161C274.37 86.2971 275.115 108.866 268.237 132.689C259.549 162.769 239.665 191.05 212.248 212.319C184.83 233.588 153.158 245.305 123.07 245.305C116.333 245.305 109.76 244.702 103.532 243.522C101.754 243.186 100.332 242.357 99.3246 241.193Z" fill="#97B000" stroke="#002522" stroke-width="0.554713" stroke-linejoin="round"/>
<path d="M270.889 54.6325L234.569 44.0586L233.719 83.4381L242.617 76.5409C248.304 91.6204 248.535 109.071 243.23 127.439C228.556 178.268 175.253 219.614 124.41 219.614C118.886 219.614 113.498 219.121 108.398 218.156C107.821 218.046 107.228 217.994 106.625 217.994C101.772 217.994 96.4576 221.461 94.1439 226.407C91.5365 231.961 93.7032 237.274 98.9706 238.276C105.203 239.456 111.772 240.059 118.508 240.059C148.596 240.059 180.269 228.342 207.686 207.074C235.104 185.805 254.988 157.524 263.676 127.444C270.554 103.621 269.809 81.0517 261.556 61.8707L270.889 54.6378V54.6325Z" fill="#DCFF00" stroke="#002522" stroke-width="0.554713" stroke-linejoin="round"/>
</g>
<defs>
<clipPath id="clip0_14902_17936">
<rect width="300" height="276" fill="white"/>
</clipPath>
</defs>
</svg>
