<svg width="599" height="585" viewBox="0 0 599 585" fill="none" xmlns="http://www.w3.org/2000/svg">
<g clip-path="url(#clip0_14902_12184)">
<path d="M591.248 571.594L557.105 563.31C570.867 549.993 579.692 530.594 579.797 508.992C580.007 468.411 549.856 435.485 512.457 435.275C505.628 435.275 498.8 436.324 492.286 438.526V435.275C492.496 412.101 475.162 393.331 453.836 393.226C442.49 393.226 431.669 398.574 424.316 408.011C426.207 396.582 419.168 385.676 408.662 383.684C399.523 381.901 390.593 387.459 387.231 396.791C380.613 394.484 373.784 393.331 366.956 393.331C366.325 393.331 365.8 393.436 365.17 393.436C342.898 364.18 338.801 309.967 338.801 278.089C338.801 272.322 334.599 267.498 329.241 267.498H269.465C264.107 267.603 259.905 272.427 259.905 278.194C259.905 310.072 255.807 364.284 233.641 393.541C226.077 393.331 218.513 394.275 211.264 396.791C207.377 385.991 196.136 380.643 186.261 384.837C177.647 388.507 172.604 398.154 174.18 408.116C160.313 390.5 135.94 388.507 119.761 403.502C110.411 412.206 105.474 425.209 106.314 438.526C70.5956 426.781 32.7758 448.593 21.9551 487.391C14.076 515.599 22.6905 544.96 41.6004 563.415L7.45753 571.699C4.83115 572.328 2.625 574.006 2.625 576.942C2.625 579.878 4.83115 582.185 7.45753 582.185H591.248C593.874 582.185 596.081 579.878 596.081 576.942C596.081 574.006 593.874 572.328 591.248 571.699V571.594Z" fill="white"/>
<path d="M329.238 267.498C334.596 267.498 338.903 272.322 338.798 278.089C338.798 309.967 342.895 364.285 365.167 393.436C365.797 393.436 366.322 393.331 366.953 393.331C373.886 393.331 380.715 394.485 387.228 396.792C390.17 388.613 397.419 383.37 405.298 383.37C406.453 383.37 407.504 383.474 408.66 383.684C419.165 385.677 426.204 396.582 424.313 408.012C431.667 398.679 442.382 393.226 453.728 393.226C475.054 393.226 492.283 412.101 492.283 435.171V438.421C498.587 436.219 505.31 435.171 512.034 435.171C512.139 435.171 512.244 435.171 512.349 435.171C549.748 435.381 579.794 468.412 579.689 508.888C579.689 530.489 570.864 549.888 556.997 563.206L591.14 571.49C593.766 572.119 595.972 573.797 595.972 576.733C595.972 579.669 593.766 581.976 591.14 581.976H7.45458C4.82821 581.976 2.62205 579.669 2.62205 576.733C2.62205 573.797 4.82821 572.119 7.45458 571.49L41.5974 563.206C22.5825 544.75 13.968 515.389 21.9522 487.182C30.7768 455.514 57.6709 435.066 86.666 435.066C93.1794 435.066 99.7979 436.115 106.311 438.212C105.366 424.894 110.408 411.892 119.758 403.188C127.007 396.477 135.937 393.122 144.866 393.122C155.792 393.122 166.613 398.05 174.282 407.802C172.706 397.945 177.749 388.193 186.363 384.523C188.674 383.579 190.986 383.055 193.402 383.055C201.176 383.055 208.425 388.193 211.471 396.477C217.985 394.275 224.813 393.226 231.642 393.226C232.377 393.226 233.113 393.226 233.848 393.226C256.12 363.97 260.112 309.862 260.112 277.88C260.112 272.112 264.314 267.289 269.672 267.184H329.448M329.238 264.877H269.462C262.633 265.087 257.275 271.064 257.275 278.194C257.275 301.893 254.859 359.986 232.272 390.815C231.957 390.815 231.642 390.815 231.327 390.815C224.813 390.815 218.51 391.654 212.627 393.436C208.845 385.677 201.281 380.643 193.087 380.643C190.355 380.643 187.624 381.167 185.103 382.321C177.539 385.467 172.391 392.912 171.34 401.196C163.986 394.485 154.532 390.71 144.656 390.71C134.781 390.71 125.221 394.485 117.762 401.51C108.728 409.899 103.58 422.168 103.37 434.856C97.8019 433.388 92.1289 432.549 86.4559 432.549C55.2546 432.549 28.2555 454.255 19.2207 486.553C11.7618 513.082 18.4854 542.129 36.3447 561.843L6.7192 568.973C2.62205 569.917 -0.109375 572.958 -0.109375 576.733C-0.109375 581.032 3.25238 584.597 7.34953 584.597H591.14C595.237 584.597 598.599 581.032 598.599 576.733C598.599 572.958 595.867 569.917 591.77 568.973L562.145 561.843C574.961 547.791 582.21 528.707 582.315 508.993C582.525 467.048 551.114 432.759 512.454 432.654C506.361 432.654 500.583 433.388 495.015 434.961C494.805 410.529 476.42 390.71 453.833 390.71C443.853 390.71 434.503 394.485 427.044 401.301C425.783 391.444 418.745 383.055 409.08 381.167C407.819 380.958 406.453 380.748 405.193 380.748C396.998 380.748 389.434 385.781 385.652 393.541C379.559 391.654 373.256 390.71 366.848 390.71C366.637 390.71 366.427 390.71 366.322 390.71C343.841 359.881 341.319 301.788 341.319 278.089C341.319 270.854 335.961 264.982 329.133 264.877H329.238Z" fill="#001F1D"/>
<path d="M368.956 561.738C362.443 561.738 356.034 560.06 350.256 556.704C340.486 551.042 333.237 541.185 330.401 529.65C327.984 520.003 328.825 509.832 332.502 500.814C320.946 495.675 314.958 481.519 319.16 468.621C320.631 463.903 323.362 459.813 327.039 456.772C327.564 456.353 328.405 456.353 328.93 456.982C329.35 457.506 329.35 458.345 328.72 458.869C325.463 461.596 323.047 465.266 321.681 469.565C318.004 481.205 323.257 493.893 333.657 498.507C340.381 485.714 352.147 477.115 365.069 475.647C365.699 475.437 366.435 476.067 366.54 476.801C366.54 477.535 366.119 478.164 365.384 478.269C353.303 479.632 342.272 487.706 335.969 499.765L335.548 500.604C331.556 509.412 330.716 519.479 333.027 528.916C335.654 539.822 342.482 549.05 351.622 554.293C359.921 559.116 369.586 560.27 378.726 557.648L379.987 557.229C380.722 556.914 381.457 557.229 381.668 558.068C381.878 558.697 381.563 559.536 380.827 559.745L379.566 560.165C376.1 561.213 372.528 561.633 369.061 561.633L368.956 561.738ZM490.505 544.436C490.505 544.436 489.979 544.436 489.769 544.226C489.139 543.807 489.034 542.968 489.454 542.443C490.925 540.346 491.765 537.829 491.975 535.103C492.396 528.077 487.878 521.786 481.575 520.632C479.159 529.546 473.065 536.886 465.081 540.346C464.451 540.661 463.61 540.346 463.4 539.717C463.19 539.088 463.4 538.249 464.031 537.934C471.279 534.789 476.952 528.077 479.054 519.898C479.054 519.898 479.054 519.898 479.054 519.793V519.059C480.209 513.292 479.264 507.315 476.637 502.177C473.591 496.41 468.548 492.32 462.56 490.747C456.992 489.279 451.109 490.118 446.171 493.264C445.541 493.683 444.701 493.473 444.385 492.844C443.965 492.215 444.175 491.376 444.806 491.062C450.374 487.601 456.992 486.553 463.295 488.23C469.914 490.013 475.482 494.522 478.948 500.919C481.68 506.162 482.836 512.243 481.995 518.116C489.559 519.479 495.127 526.924 494.497 535.313C494.286 538.459 493.236 541.395 491.45 543.911C491.24 544.331 490.82 544.436 490.399 544.436H490.505ZM132.372 462.435C132.372 462.435 131.532 462.225 131.322 461.805C125.544 453.207 116.404 442.092 105.163 438.002C104.533 437.792 104.112 436.953 104.427 436.324C104.638 435.59 105.373 435.276 106.108 435.59C117.98 439.994 127.54 451.529 133.528 460.442C133.948 461.071 133.738 461.805 133.213 462.225C133.002 462.33 132.687 462.435 132.477 462.435H132.372ZM198.662 405.915C198.662 405.915 198.137 405.915 197.821 405.6C197.296 405.181 197.086 404.342 197.611 403.817C200.448 400.042 204.86 396.792 210.533 394.17C211.163 393.856 212.004 394.17 212.319 394.799C212.634 395.429 212.319 396.267 211.689 396.582C206.436 398.994 202.444 401.93 199.817 405.39C199.607 405.705 199.187 405.915 198.767 405.915H198.662Z" fill="#001F1D"/>
<path d="M229.857 561.737C226.39 561.737 222.923 561.213 219.456 560.269L218.091 559.745C217.46 559.535 217.04 558.801 217.25 558.067C217.46 557.333 218.301 557.019 218.931 557.228L220.192 557.648C229.227 560.269 238.787 559.116 247.191 554.292C256.331 549.049 263.159 539.821 265.786 528.916C268.097 519.478 267.256 509.412 263.264 500.604L262.844 499.66C256.541 487.601 245.51 479.527 233.429 478.163C232.693 478.163 232.168 477.429 232.273 476.695C232.273 475.961 232.903 475.332 233.744 475.542C246.666 477.01 258.432 485.504 265.155 498.401C275.451 493.788 280.808 481.099 277.132 469.46C275.766 465.161 273.35 461.491 270.093 458.764C269.568 458.345 269.463 457.506 269.883 456.877C270.303 456.352 271.143 456.247 271.774 456.667C275.451 459.708 278.182 463.902 279.653 468.516C283.75 481.414 277.762 495.57 266.311 500.708C269.988 509.726 270.828 519.898 268.412 529.545C265.576 541.08 258.327 550.937 248.557 556.599C242.674 559.955 236.265 561.633 229.857 561.633V561.737ZM108.413 544.435C108.413 544.435 107.573 544.226 107.363 543.911C105.577 541.394 104.526 538.458 104.316 535.312C103.791 526.924 109.254 519.479 116.818 518.115C116.082 512.138 117.133 506.161 119.864 500.918C123.331 494.522 128.899 490.013 135.517 488.23C141.821 486.552 148.439 487.601 154.007 491.061C154.637 491.481 154.848 492.215 154.427 492.844C154.007 493.473 153.272 493.683 152.641 493.263C147.599 490.118 141.821 489.279 136.253 490.747C130.265 492.32 125.327 496.409 122.175 502.176C119.444 507.315 118.499 513.292 119.549 519.059V519.793C119.549 519.793 119.759 519.793 119.759 519.898C121.965 528.077 127.533 534.893 134.782 537.934C135.412 538.249 135.728 538.983 135.412 539.717C135.097 540.346 134.362 540.66 133.732 540.346C125.747 536.885 119.549 529.545 117.238 520.632C110.935 521.785 106.417 527.972 106.837 535.103C107.048 537.724 107.888 540.241 109.359 542.443C109.779 543.072 109.674 543.806 109.044 544.226C108.834 544.331 108.518 544.435 108.308 544.435H108.413ZM466.546 462.434C466.546 462.434 466.02 462.434 465.81 462.225C465.18 461.805 465.075 460.966 465.495 460.442C471.483 451.529 481.043 439.994 492.914 435.59C493.545 435.38 494.385 435.59 494.595 436.324C494.806 436.953 494.595 437.792 493.86 438.002C482.619 442.091 473.479 453.207 467.701 461.805C467.491 462.225 467.071 462.434 466.651 462.434H466.546ZM398.365 405.914C398.365 405.914 397.525 405.705 397.314 405.285C395.108 401.825 391.747 398.889 387.229 396.477C386.599 396.162 386.389 395.323 386.704 394.694C387.019 394.065 387.86 393.855 388.49 394.17C393.322 396.791 397.104 400.042 399.521 403.817C399.941 404.446 399.731 405.18 399.1 405.6C398.89 405.705 398.68 405.809 398.365 405.809V405.914Z" fill="#001F1D"/>
<path d="M36.875 560.166C42.0227 565.724 52.108 573.169 52.108 573.169L36.875 560.166Z" fill="white"/>
<path d="M51.9994 574.425C51.9994 574.425 51.4741 574.425 51.264 574.215C50.8438 573.901 41.0737 566.665 35.926 561.108C35.4007 560.583 35.5057 559.745 35.926 559.22C36.3462 558.696 37.2917 558.801 37.8169 559.22C42.8596 564.673 52.7348 571.908 52.8398 572.013C53.4701 572.433 53.5752 573.272 53.155 573.796C52.9449 574.11 52.5246 574.32 52.1044 574.32L51.9994 574.425Z" fill="#001F1D"/>
<path d="M559.517 562.895C555.945 566.774 548.906 572.017 548.906 572.017L559.517 562.895Z" fill="white"/>
<path d="M548.904 573.273C548.904 573.273 548.064 573.064 547.854 572.749C547.433 572.12 547.539 571.386 548.169 570.967C548.169 570.967 555.102 565.828 558.569 562.053C559.095 561.529 559.935 561.529 560.46 562.053C560.986 562.578 560.986 563.417 560.46 563.941C556.783 567.926 549.955 572.959 549.64 573.169C549.43 573.378 549.114 573.378 548.904 573.378V573.273Z" fill="#001F1D"/>
<path d="M253.502 394.275C246.043 392.492 233.227 392.178 233.227 392.178L253.502 394.275Z" fill="white"/>
<path d="M253.501 395.639C253.501 395.639 253.291 395.639 253.186 395.639C245.937 393.961 233.33 393.541 233.12 393.541C232.385 393.541 231.859 392.912 231.859 392.178C231.859 391.444 232.49 390.92 233.12 390.92C233.645 390.92 246.147 391.235 253.711 393.017C254.446 393.227 254.866 393.856 254.656 394.59C254.551 395.219 254.026 395.639 253.396 395.639H253.501Z" fill="#001F1D"/>
<path d="M319.68 321.082C321.361 344.676 331.026 382.635 331.026 382.635L319.68 321.082Z" fill="white"/>
<path d="M331.024 383.894C330.394 383.894 329.869 383.475 329.763 382.95C329.763 382.531 320.098 344.676 318.312 321.187C318.312 320.453 318.838 319.824 319.573 319.824C320.414 319.824 320.939 320.349 320.939 321.083C322.62 344.257 332.18 382.007 332.285 382.426C332.495 383.16 332.075 383.789 331.339 383.999C331.234 383.999 331.129 383.999 331.024 383.999V383.894Z" fill="#001F1D"/>
<path d="M283.641 303.361C283.641 320.663 278.703 348.871 278.703 348.871L283.641 303.361Z" fill="white"/>
<path d="M278.706 350.13C278.706 350.13 278.601 350.13 278.496 350.13C277.761 350.025 277.341 349.291 277.446 348.662C277.446 348.347 282.383 320.349 282.383 303.362C282.383 302.628 283.014 302.104 283.644 302.104C284.379 302.104 284.905 302.733 284.905 303.362C284.905 320.559 280.072 348.767 279.967 349.081C279.862 349.71 279.337 350.13 278.706 350.13Z" fill="#001F1D"/>
<path d="M230.136 367.746C230.136 367.746 229.716 367.746 229.506 367.536C228.876 367.221 228.666 366.383 228.981 365.753C228.981 365.649 236.44 352.436 238.436 337.231C238.436 336.497 239.066 335.973 239.906 336.078C240.642 336.078 241.167 336.812 241.062 337.546C238.961 353.275 231.607 366.487 231.292 367.012C231.082 367.431 230.557 367.641 230.136 367.641V367.746Z" fill="white"/>
<path d="M360.964 337.231C360.964 337.231 359.914 336.917 359.704 336.392C359.389 335.658 352.245 318.461 351.93 298.642C351.93 297.908 352.455 297.279 353.19 297.279C353.926 297.279 354.451 297.804 354.451 298.538C354.766 317.832 361.91 335.134 362.015 335.344C362.33 335.973 362.015 336.812 361.28 337.022C361.069 337.022 360.964 337.022 360.754 337.022L360.964 337.231Z" fill="white"/>
<path d="M364.931 9.54556L391.752 25.1504C402.187 31.2301 411.266 40.1415 418.311 51.9182C449.396 104.116 428.715 192.66 372.239 249.656C328.499 293.786 276.064 306.119 240.21 285.272L213.388 269.667C249.269 290.581 301.704 278.248 345.417 234.051C401.961 177.029 422.575 88.5116 391.49 36.3133C384.445 24.5366 375.433 15.5993 364.931 9.54556Z" fill="#A0B710" stroke="#082422" stroke-width="1.40049"/>
<path d="M232.858 45.184C289.401 -11.8383 360.387 -15.7956 391.471 36.4026C422.556 88.6007 401.875 177.144 345.399 234.14C288.923 291.137 217.87 295.12 186.785 242.922C155.701 190.723 176.315 102.206 232.858 45.184Z" fill="#DCFF00" stroke="#082422" stroke-width="1.40049"/>
<path d="M291.691 55.2536L322.315 54.1114L317.523 73.7613C331.07 78.0937 336.749 89.2445 333.174 108.588L301.32 109.791C303.489 100.347 300.711 97.5028 295.274 97.6972C292.469 97.7864 290.277 98.8061 288.775 100.309C287.622 101.425 286.93 102.864 286.54 104.435C285.127 110.245 289.61 111.674 297.969 114.267L302.35 115.652C323.221 122.062 329.423 131.34 325.038 149.245C322.889 158.097 318.729 165.644 312.864 171.599C306.998 177.555 299.544 181.791 290.501 184.307L285.182 206.249L254.384 207.375L259.731 185.506C243.274 181.637 237.696 169.028 241.774 148.403L275.494 147.059C273.555 156.664 275.322 160.987 282.234 160.719C285.357 160.59 287.997 159.647 289.922 157.729C291.119 156.512 292.001 154.916 292.496 152.97C293.682 148.083 290.47 146.911 285.411 145.288L275.698 142.22C254.811 135.984 249.632 125.473 254.062 107.467C256.045 99.2641 259.956 92.1484 265.543 86.5512C271.131 80.954 278.222 76.8592 286.947 74.3838L291.574 55.3826C291.574 55.3826 291.662 55.1812 291.836 55.1972L291.691 55.2536Z" fill="white" stroke="#082422" stroke-width="1.40049"/>
<path d="M148.24 309.596L144.077 314.272C141.223 317.48 137.492 320.002 132.901 321.608C112.577 328.728 83.2482 315.336 67.3917 291.706C55.1145 273.403 54.5053 254.326 64.2969 243.329L68.4596 238.653C58.6824 249.651 59.2772 268.726 71.5544 287.03C87.4099 310.674 116.738 324.066 137.064 316.932C141.655 315.326 145.386 312.804 148.24 309.596Z" fill="#A0B710" stroke="#082422" stroke-width="0.933658"/>
<path d="M145.144 261.219C161 284.863 157.388 309.813 137.063 316.932C116.739 324.052 87.4104 310.66 71.5538 287.031C55.6973 263.401 59.31 238.437 79.6347 231.317C99.9595 224.198 129.288 237.589 145.143 261.233L145.144 261.219Z" fill="#D5F412" stroke="#082422" stroke-width="0.933658"/>
<path d="M120.918 263.755C121.31 264.333 121.686 264.939 122.029 265.587L110.175 266.939C109.948 266.474 109.702 266.066 109.468 265.701C108.137 263.708 106.598 263.162 104.905 263.358C103.079 263.572 102.674 264.57 103.227 265.725C103.302 265.875 103.379 266.011 103.471 266.148C104.463 267.639 106.497 267.931 110.021 268.448L112.042 268.739C120.311 269.905 124.915 272.092 127.788 276.382C128.232 277.037 128.629 277.746 128.994 278.511C131.672 284.075 130.161 288.336 124.416 290.48L127.774 297.454L116.299 298.762L112.941 291.788C106.543 291.164 101.722 288.179 98.2486 282.991C97.7783 282.292 97.339 281.565 96.9316 280.797L109.487 279.365C109.742 279.847 110 280.271 110.261 280.666C111.671 282.78 113.258 283.648 115.433 283.401C117.302 283.19 118.232 282.345 117.441 280.681C117.365 280.531 117.302 280.411 117.21 280.274C116.4 279.072 114.969 278.837 112.837 278.494L108.368 277.836C100.225 276.724 95.7119 274.282 92.8523 270.008C92.3698 269.278 91.9336 268.508 91.5303 267.683C89.0403 262.508 90.4378 258.427 95.9293 256.381L92.9868 250.262L104.462 248.954L107.48 255.223C113.051 256.062 117.616 258.796 120.932 263.756L120.918 263.755Z" fill="white" stroke="#082422" stroke-width="0.933658"/>
<path d="M401.929 389.803C402.062 389.582 402.349 389.51 402.57 389.643C409.42 393.767 419.539 392.207 429.023 384.278L429.023 384.279C435.768 378.639 440.852 370.883 443.614 362.906C446.29 355.173 446.768 347.28 444.514 340.928L444.287 340.318C442.793 336.476 440.432 333.677 437.518 331.922C437.298 331.789 437.227 331.502 437.36 331.282C437.493 331.061 437.78 330.99 438.001 331.123L442.55 333.86C445.658 335.732 448.146 338.703 449.708 342.717C452.322 349.438 451.856 357.831 449.046 365.95C446.233 374.074 441.056 381.975 434.172 387.732C424.524 395.801 413.962 397.59 406.637 393.181L402.087 390.443C401.867 390.31 401.796 390.023 401.929 389.803Z" fill="#A0B710" stroke="#082422" stroke-width="0.933658" stroke-miterlimit="10" stroke-linejoin="round"/>
<path d="M395.593 358.366C398.405 350.241 403.584 342.339 410.469 336.582C417.351 330.828 424.678 328.274 430.98 328.871C437.306 329.471 442.536 333.245 445.161 339.992C447.776 346.714 447.311 355.106 444.5 363.225C441.775 371.096 436.831 378.758 430.265 384.462L429.625 385.008C422.743 390.761 415.415 393.316 409.113 392.718C402.787 392.119 397.557 388.345 394.933 381.599C392.318 374.878 392.782 366.485 395.593 358.366Z" fill="#D5F412" stroke="#082422" stroke-width="0.933658" stroke-miterlimit="10" stroke-linejoin="round"/>
<path d="M410.47 349.26C410.434 349.093 410.492 348.916 410.627 348.803L417.614 342.962C417.803 342.804 418.083 342.82 418.252 342.998L418.255 343.001C418.297 343.045 418.33 343.097 418.352 343.154L419.609 346.387C421.449 345.443 423.14 345.041 424.625 345.288C426.263 345.561 427.558 346.605 428.475 348.346C428.577 348.541 428.529 348.781 428.361 348.922L421.187 354.918C421.086 355.002 420.954 355.041 420.823 355.022C420.692 355.004 420.575 354.93 420.501 354.821C420.113 354.245 419.725 354.023 419.345 354.004C418.939 353.983 418.402 354.182 417.71 354.761C417.065 355.301 416.651 355.834 416.433 356.295C416.211 356.762 416.207 357.11 416.291 357.325C416.362 357.508 416.435 357.548 416.49 357.566C416.578 357.594 416.752 357.601 417.077 357.506C417.567 357.363 418.222 357.049 419.104 356.591L420.064 356.087L420.068 356.084L421.438 355.376L421.439 355.375C424.402 353.851 426.655 353.016 428.373 353.061C429.254 353.084 430.008 353.338 430.636 353.853C431.256 354.361 431.719 355.095 432.078 356.018C433.472 359.602 431.925 363.958 428.119 368.27L429.627 372.147C429.7 372.333 429.645 372.546 429.492 372.674L422.504 378.515C422.389 378.612 422.234 378.647 422.089 378.609C421.943 378.572 421.824 378.467 421.769 378.327L420.342 374.658C418.223 375.829 416.356 376.302 414.764 376.04C413.023 375.754 411.716 374.61 410.822 372.814L410.793 372.74C410.74 372.564 410.796 372.37 410.941 372.248L418.549 365.888C418.655 365.798 418.797 365.761 418.933 365.787C419.07 365.812 419.189 365.898 419.256 366.019C419.62 366.676 420.023 366.915 420.443 366.927C420.911 366.939 421.549 366.68 422.374 365.99C423.108 365.376 423.641 364.768 423.941 364.212C424.24 363.658 424.284 363.207 424.147 362.853C424.089 362.706 424.037 362.682 424.016 362.674C423.974 362.657 423.872 362.64 423.653 362.692C423.202 362.801 422.566 363.121 421.645 363.584L421.644 363.583L418.743 365.097L418.742 365.097C415.787 366.669 413.549 367.412 411.841 367.258C410.966 367.179 410.231 366.866 409.625 366.322C409.027 365.786 408.579 365.045 408.23 364.148C406.955 360.869 408.223 356.861 411.812 352.731L410.492 349.331L410.47 349.26Z" fill="white" stroke="#082422" stroke-width="0.933658" stroke-miterlimit="10" stroke-linejoin="round"/>
<path d="M113.082 108.432C113.044 108.404 112.922 108.322 112.725 108.204C112.648 108.161 112.563 108.109 112.466 108.051C112.259 107.929 112.004 107.775 111.705 107.625C111.184 107.352 110.61 107.084 109.998 106.824C109.882 106.776 109.763 106.725 109.639 106.676C109.123 106.467 108.59 106.269 108.054 106.091C107.295 105.835 106.475 105.599 105.619 105.39C104.75 105.176 103.834 104.99 102.901 104.838C102.289 104.739 101.624 104.655 100.818 104.574C100.742 103.738 100.661 103.045 100.566 102.403C100.489 101.911 100.408 101.425 100.319 100.958C100.253 100.605 100.183 100.254 100.109 99.9142C99.8856 98.8854 99.6327 97.92 99.3586 97.0412C99.2099 96.5617 99.0526 96.0927 98.8933 95.6512C98.8465 95.5203 98.7976 95.3914 98.7509 95.2668C98.4789 94.5485 98.1793 93.8493 97.8881 93.2472L96.7746 91.0312C96.254 92.3135 94.9238 95.6576 94.5094 97.0053C94.0122 98.5981 93.5935 100.459 93.2982 102.386C93.2047 103.007 93.126 103.685 93.0538 104.452C92.293 104.528 91.6598 104.608 91.0669 104.703C89.2267 105.003 87.4375 105.438 85.8926 105.962C84.2372 106.516 82.9856 107.109 82.227 107.509C81.9252 107.661 81.6702 107.815 81.4407 107.952L81.1942 108.098C80.9456 108.248 80.8139 108.343 80.8139 108.343L80.5312 108.55L80.8139 108.757C80.8139 108.757 80.9456 108.852 81.1985 109.006L81.4067 109.129L81.4556 109.158C81.6639 109.283 81.921 109.437 82.2227 109.589C82.9835 109.989 84.2351 110.582 85.8905 111.136C87.4375 111.66 89.2267 112.095 91.0648 112.395C91.6534 112.49 92.2845 112.57 93.0432 112.644C93.1133 113.407 93.1919 114.085 93.2854 114.712C93.5744 116.626 93.9909 118.485 94.4945 120.093C95.03 121.821 96.4006 125.258 96.781 126.043L97.1338 125.294L97.2761 125.01L97.2953 124.979L97.3314 124.913C97.3696 124.837 97.4206 124.748 97.4759 124.649C97.5566 124.501 97.6523 124.332 97.75 124.138C97.7946 124.047 97.8435 123.95 97.8903 123.851L97.971 123.68C98.3301 122.921 98.8656 121.679 99.365 120.055C99.5499 119.463 99.7241 118.834 99.8835 118.185C100.158 117.072 100.387 115.897 100.57 114.693C100.636 114.247 100.697 113.77 100.746 113.28C100.774 113.028 100.799 112.775 100.821 112.521C101.061 112.498 101.301 112.473 101.541 112.445C101.724 112.424 101.906 112.401 102.087 112.378C102.359 112.342 102.629 112.302 102.895 112.26C104.174 112.048 105.408 111.78 106.562 111.459C107.072 111.317 107.572 111.165 108.048 111.005C109.692 110.455 110.94 109.868 111.696 109.473L111.858 109.389C111.975 109.327 112.083 109.266 112.183 109.207L112.391 109.084L112.495 109.023L112.731 108.884L112.774 108.858L112.99 108.721L113.209 108.529L113.075 108.436L113.082 108.432Z" fill="white"/>
<path d="M136.486 67.6338C136.467 67.6191 136.407 67.5752 136.308 67.5121C136.269 67.4896 136.227 67.4614 136.178 67.431C136.075 67.3656 135.948 67.2834 135.798 67.2034C135.537 67.058 135.251 66.915 134.945 66.7764C134.886 66.7505 134.827 66.7234 134.765 66.6975C134.507 66.586 134.24 66.4801 133.972 66.3854C133.593 66.2491 133.183 66.1229 132.755 66.0114C132.32 65.8976 131.862 65.7984 131.396 65.7173C131.09 65.6644 130.757 65.6193 130.355 65.5765C130.316 65.1303 130.276 64.7608 130.228 64.4183C130.19 64.1558 130.149 63.8967 130.105 63.6477C130.072 63.4595 130.037 63.2725 130 63.0911C129.888 62.5424 129.762 62.0275 129.625 61.5588C129.55 61.3031 129.472 61.053 129.392 60.8175C129.369 60.7477 129.344 60.6789 129.321 60.6125C129.185 60.2294 129.035 59.8565 128.889 59.5354L128.333 58.3535C128.072 59.0374 127.407 60.8209 127.2 61.5397C126.951 62.3892 126.742 63.3818 126.594 64.4093C126.548 64.7405 126.508 65.1022 126.472 65.5111C126.092 65.5517 125.775 65.5945 125.479 65.6452C124.559 65.8052 123.664 66.0373 122.892 66.3167C122.064 66.6119 121.438 66.9285 121.059 67.1414C120.908 67.2225 120.78 67.3048 120.666 67.378L120.542 67.4558C120.418 67.5357 120.352 67.5864 120.352 67.5864L120.211 67.6969L120.352 67.8073C120.352 67.8073 120.418 67.858 120.545 67.9402L120.649 68.0056L120.673 68.0213C120.777 68.0878 120.906 68.1701 121.057 68.2512C121.437 68.4641 122.063 68.7807 122.891 69.0759C123.664 69.3553 124.559 69.5874 125.478 69.7474C125.772 69.7981 126.088 69.8409 126.467 69.8803C126.502 70.287 126.541 70.6487 126.588 70.9833C126.733 72.0041 126.941 72.9955 127.193 73.8529C127.46 74.7745 128.146 76.6076 128.336 77.0267L128.512 76.6267L128.583 76.4757L128.593 76.4588L128.611 76.4239C128.63 76.3834 128.656 76.336 128.683 76.2831C128.724 76.2042 128.771 76.1141 128.82 76.0104C128.843 75.962 128.867 75.9102 128.89 75.8572L128.931 75.766C129.11 75.3615 129.378 74.699 129.628 73.8326C129.72 73.5172 129.807 73.1814 129.887 72.8355C130.024 72.2418 130.139 71.6154 130.23 70.9732C130.263 70.7354 130.294 70.4808 130.318 70.2194C130.332 70.0854 130.345 69.9502 130.356 69.815C130.476 69.8026 130.596 69.7891 130.716 69.7744C130.807 69.7631 130.899 69.7507 130.989 69.7384C131.125 69.7192 131.26 69.6978 131.393 69.6753C132.032 69.5626 132.65 69.4195 133.226 69.2483C133.481 69.1728 133.731 69.0917 133.969 69.006C134.792 68.7131 135.415 68.3999 135.793 68.1892L135.874 68.1441C135.933 68.1115 135.987 68.0788 136.037 68.0472L136.141 67.9819L136.193 67.9492L136.311 67.8749L136.332 67.8613L136.441 67.7881L136.55 67.6856L136.483 67.636L136.486 67.6338Z" fill="white"/>
<path d="M494.715 202.965C494.676 202.937 494.555 202.855 494.358 202.737C494.281 202.695 494.196 202.642 494.098 202.585C493.892 202.462 493.637 202.308 493.338 202.158C492.817 201.885 492.243 201.617 491.631 201.357C491.514 201.309 491.395 201.258 491.272 201.209C490.756 201 490.222 200.802 489.687 200.624C488.928 200.369 488.108 200.132 487.252 199.923C486.383 199.71 485.467 199.524 484.534 199.372C483.922 199.272 483.257 199.188 482.451 199.108C482.375 198.271 482.294 197.578 482.198 196.936C482.122 196.444 482.041 195.958 481.952 195.491C481.886 195.138 481.816 194.788 481.742 194.447C481.518 193.419 481.266 192.453 480.991 191.574C480.843 191.095 480.685 190.626 480.526 190.184C480.479 190.053 480.43 189.925 480.384 189.8C480.112 189.082 479.812 188.382 479.521 187.78L478.407 185.564C477.887 186.847 476.557 190.191 476.142 191.539C475.645 193.131 475.226 194.992 474.931 196.919C474.837 197.54 474.759 198.218 474.687 198.985C473.926 199.061 473.293 199.141 472.7 199.236C470.86 199.536 469.07 199.972 467.525 200.495C465.87 201.049 464.618 201.643 463.86 202.042C463.558 202.194 463.303 202.348 463.074 202.485L462.827 202.631C462.578 202.781 462.447 202.876 462.447 202.876L462.164 203.083L462.447 203.29C462.447 203.29 462.578 203.385 462.831 203.54L463.04 203.662L463.088 203.692C463.297 203.816 463.554 203.97 463.856 204.123C464.616 204.522 465.868 205.115 467.523 205.669C469.07 206.193 470.86 206.628 472.698 206.928C473.286 207.023 473.917 207.103 474.676 207.177C474.746 207.94 474.825 208.618 474.918 209.245C475.207 211.159 475.624 213.018 476.127 214.626C476.663 216.354 478.033 219.791 478.414 220.577L478.767 219.827L478.909 219.544L478.928 219.512L478.964 219.446C479.002 219.37 479.053 219.282 479.109 219.182C479.189 219.035 479.285 218.866 479.383 218.671C479.427 218.58 479.476 218.483 479.523 218.384L479.604 218.213C479.963 217.454 480.498 216.212 480.998 214.588C481.183 213.996 481.357 213.367 481.516 212.718C481.79 211.605 482.02 210.43 482.203 209.226C482.269 208.781 482.33 208.303 482.379 207.813C482.407 207.562 482.432 207.308 482.453 207.055C482.694 207.031 482.934 207.006 483.174 206.979C483.357 206.958 483.539 206.934 483.72 206.911C483.992 206.875 484.262 206.835 484.527 206.793C485.807 206.581 487.041 206.313 488.195 205.992C488.705 205.851 489.205 205.698 489.681 205.538C491.325 204.989 492.573 204.401 493.329 204.006L493.491 203.922C493.607 203.861 493.716 203.799 493.816 203.74L494.024 203.618L494.128 203.556L494.364 203.417L494.406 203.392L494.623 203.254L494.842 203.062L494.708 202.969L494.715 202.965Z" fill="white"/>
<path d="M446.924 267.204C446.905 267.189 446.844 267.145 446.745 267.082C446.707 267.06 446.664 267.032 446.616 267.001C446.513 266.936 446.385 266.854 446.235 266.774C445.975 266.628 445.688 266.485 445.382 266.347C445.324 266.321 445.264 266.294 445.202 266.268C444.944 266.156 444.678 266.05 444.41 265.956C444.031 265.819 443.62 265.693 443.192 265.582C442.758 265.468 442.3 265.369 441.833 265.288C441.527 265.235 441.195 265.19 440.792 265.147C440.754 264.701 440.713 264.331 440.666 263.989C440.627 263.726 440.587 263.467 440.542 263.218C440.509 263.03 440.474 262.843 440.437 262.661C440.326 262.113 440.199 261.598 440.062 261.129C439.988 260.873 439.909 260.623 439.829 260.388C439.806 260.318 439.782 260.249 439.758 260.183C439.622 259.8 439.472 259.427 439.327 259.106L438.77 257.924C438.51 258.608 437.845 260.391 437.638 261.11C437.389 261.96 437.18 262.952 437.032 263.98C436.985 264.311 436.946 264.672 436.91 265.081C436.529 265.122 436.213 265.165 435.916 265.216C434.996 265.376 434.102 265.608 433.329 265.887C432.501 266.182 431.876 266.499 431.496 266.712C431.345 266.793 431.218 266.875 431.103 266.948L430.98 267.026C430.856 267.106 430.79 267.157 430.79 267.157L430.648 267.267L430.79 267.378C430.79 267.378 430.856 267.428 430.982 267.511L431.086 267.576L431.111 267.592C431.215 267.658 431.343 267.74 431.494 267.821C431.875 268.034 432.5 268.351 433.328 268.646C434.102 268.926 434.996 269.158 435.915 269.318C436.21 269.368 436.525 269.411 436.904 269.451C436.939 269.857 436.979 270.219 437.026 270.554C437.17 271.574 437.378 272.566 437.63 273.423C437.898 274.345 438.583 276.178 438.773 276.597L438.95 276.197L439.021 276.046L439.03 276.029L439.049 275.994C439.068 275.954 439.093 275.906 439.121 275.853C439.161 275.775 439.209 275.684 439.258 275.581C439.28 275.532 439.305 275.48 439.328 275.428L439.368 275.336C439.548 274.932 439.816 274.269 440.065 273.403C440.158 273.087 440.245 272.752 440.325 272.406C440.462 271.812 440.576 271.186 440.668 270.543C440.701 270.306 440.731 270.051 440.756 269.79C440.77 269.656 440.782 269.52 440.793 269.385C440.913 269.373 441.033 269.359 441.153 269.345C441.245 269.333 441.336 269.321 441.426 269.309C441.562 269.29 441.697 269.268 441.83 269.246C442.47 269.133 443.087 268.99 443.664 268.819C443.919 268.743 444.169 268.662 444.407 268.576C445.229 268.283 445.853 267.97 446.231 267.76L446.312 267.714C446.37 267.682 446.424 267.649 446.474 267.618L446.578 267.552L446.63 267.52L446.748 267.445L446.77 267.432L446.878 267.358L446.987 267.256L446.921 267.206L446.924 267.204Z" fill="white"/>
<path d="M62.941 359.967C62.9164 359.948 62.8385 359.891 62.7115 359.808C62.6623 359.778 62.6077 359.741 62.5448 359.701C62.4123 359.615 62.2484 359.508 62.0558 359.403C61.7211 359.212 61.3522 359.024 60.9588 358.842C60.8837 358.808 60.8072 358.773 60.728 358.739C60.396 358.592 60.0531 358.453 59.7089 358.329C59.2212 358.15 58.6939 357.984 58.1434 357.838C57.5846 357.689 56.9959 357.559 56.3962 357.452C56.0027 357.383 55.5752 357.323 55.0574 357.267C55.0082 356.682 54.9563 356.197 54.8949 355.747C54.8457 355.403 54.7938 355.062 54.7364 354.736C54.694 354.489 54.649 354.243 54.6012 354.005C54.4577 353.285 54.2952 352.609 54.1189 351.994C54.0233 351.658 53.9222 351.33 53.8198 351.021C53.7897 350.929 53.7583 350.839 53.7282 350.752C53.5534 350.249 53.3608 349.76 53.1736 349.338L52.4578 347.787C52.1231 348.685 51.268 351.026 51.0016 351.969C50.6819 353.084 50.4128 354.387 50.2229 355.735C50.1628 356.17 50.1123 356.645 50.0658 357.182C49.5768 357.235 49.1697 357.291 48.7886 357.357C47.6056 357.567 46.4553 357.872 45.4622 358.239C44.398 358.626 43.5934 359.042 43.1057 359.321C42.9118 359.428 42.7478 359.536 42.6003 359.632L42.4418 359.734C42.282 359.839 42.1973 359.905 42.1973 359.905L42.0156 360.05L42.1973 360.195C42.1973 360.195 42.282 360.262 42.4446 360.37L42.5784 360.455L42.6099 360.476C42.7437 360.563 42.909 360.671 43.103 360.778C43.5921 361.057 44.3967 361.473 45.4608 361.86C46.4553 362.227 47.6056 362.532 48.7872 362.742C49.1656 362.808 49.5713 362.864 50.059 362.916C50.1041 363.45 50.1546 363.925 50.2147 364.364C50.4005 365.703 50.6683 367.005 50.992 368.13C51.3363 369.34 52.2174 371.746 52.4619 372.296L52.6887 371.771L52.7802 371.573L52.7925 371.55L52.8157 371.505C52.8403 371.451 52.8731 371.389 52.9086 371.32C52.9605 371.216 53.022 371.098 53.0848 370.962C53.1135 370.898 53.1449 370.83 53.175 370.761L53.2269 370.641C53.4578 370.11 53.802 369.241 54.123 368.103C54.2419 367.689 54.3539 367.249 54.4564 366.795C54.6326 366.015 54.7801 365.193 54.8976 364.35C54.9399 364.038 54.9796 363.704 55.011 363.361C55.0287 363.185 55.0451 363.008 55.0588 362.83C55.2132 362.814 55.3675 362.796 55.5219 362.777C55.6394 362.762 55.7568 362.746 55.873 362.73C56.0478 362.705 56.2213 362.676 56.3921 362.647C57.2144 362.499 58.0081 362.311 58.7499 362.086C59.0777 361.987 59.3988 361.881 59.7048 361.769C60.7621 361.384 61.564 360.973 62.0503 360.696L62.1541 360.637C62.2293 360.594 62.2989 360.552 62.3631 360.51L62.497 360.424L62.5639 360.381L62.7156 360.284L62.7429 360.266L62.8822 360.17L63.0229 360.035L62.9369 359.97L62.941 359.967Z" fill="white"/>
<path d="M519.249 346.536C519.22 346.514 519.129 346.448 518.981 346.353C518.924 346.319 518.86 346.277 518.787 346.231C518.632 346.133 518.441 346.01 518.216 345.89C517.826 345.672 517.395 345.457 516.936 345.25C516.849 345.211 516.759 345.17 516.667 345.131C516.28 344.964 515.88 344.805 515.478 344.663C514.909 344.459 514.294 344.269 513.652 344.102C513 343.931 512.313 343.783 511.613 343.661C511.154 343.582 510.655 343.514 510.051 343.45C509.994 342.78 509.933 342.226 509.862 341.712C509.804 341.319 509.744 340.93 509.677 340.556C509.627 340.274 509.575 339.994 509.519 339.722C509.352 338.899 509.162 338.126 508.956 337.423C508.845 337.04 508.727 336.664 508.607 336.311C508.572 336.206 508.536 336.103 508.501 336.004C508.297 335.429 508.072 334.87 507.854 334.388L507.018 332.615C506.628 333.641 505.63 336.316 505.32 337.395C504.947 338.669 504.633 340.158 504.411 341.699C504.341 342.196 504.282 342.738 504.228 343.352C503.657 343.413 503.182 343.477 502.738 343.553C501.358 343.793 500.016 344.141 498.857 344.56C497.615 345.003 496.677 345.478 496.108 345.797C495.881 345.919 495.69 346.042 495.518 346.152L495.333 346.269C495.147 346.389 495.048 346.465 495.048 346.465L494.836 346.63L495.048 346.796C495.048 346.796 495.147 346.872 495.336 346.995L495.493 347.093L495.529 347.117C495.685 347.217 495.878 347.34 496.105 347.462C496.675 347.781 497.614 348.256 498.855 348.699C500.016 349.118 501.358 349.466 502.736 349.706C503.178 349.782 503.651 349.846 504.22 349.905C504.272 350.516 504.331 351.058 504.402 351.56C504.618 353.091 504.931 354.578 505.308 355.864C505.71 357.247 506.738 359.996 507.023 360.625L507.288 360.025L507.395 359.799L507.409 359.773L507.436 359.721C507.465 359.66 507.503 359.589 507.544 359.51C507.605 359.391 507.677 359.256 507.75 359.101C507.783 359.028 507.82 358.95 507.855 358.871L507.916 358.734C508.185 358.127 508.587 357.133 508.961 355.834C509.1 355.361 509.231 354.857 509.35 354.338C509.556 353.448 509.728 352.508 509.865 351.545C509.914 351.188 509.961 350.806 509.997 350.414C510.018 350.213 510.037 350.01 510.053 349.807C510.233 349.789 510.413 349.769 510.593 349.747C510.73 349.73 510.867 349.711 511.003 349.692C511.207 349.664 511.409 349.632 511.608 349.598C512.568 349.429 513.494 349.214 514.359 348.957C514.742 348.844 515.116 348.722 515.473 348.594C516.707 348.155 517.642 347.685 518.21 347.369L518.331 347.301C518.419 347.252 518.5 347.203 518.575 347.156L518.731 347.058L518.809 347.009L518.986 346.897L519.018 346.877L519.18 346.767L519.344 346.613L519.244 346.539L519.249 346.536Z" fill="white"/>
</g>
<defs>
<clipPath id="clip0_14902_12184">
<rect width="598.708" height="584.703" fill="white"/>
</clipPath>
</defs>
</svg>
