<svg width="606" height="615" viewBox="0 0 606 615" fill="none" xmlns="http://www.w3.org/2000/svg">
<g clip-path="url(#clip0_14997_18491)">
<path d="M375.589 513.272L288.465 348.314L217.147 365.104C222.113 372.015 226.854 379.552 231.336 387.403L257.665 379.019L344.788 543.977C347.079 548.319 346.783 552.25 344.453 555.181C344.453 555.181 374.91 524.935 375.533 524.057C377.56 521.183 377.749 517.403 375.566 513.278L375.589 513.272Z" fill="#12C6C1" stroke="#002522" stroke-width="2" stroke-miterlimit="10"/>
<path d="M344.823 543.945L264.565 391.988L257.692 378.963L211.013 396.262C211.365 396.658 211.716 397.054 212.074 397.474C212.185 397.616 212.297 397.757 212.402 397.876C212.654 398.177 212.884 398.483 213.142 398.807C213.26 398.971 213.406 399.153 213.524 399.318C213.753 399.624 213.982 399.931 214.195 400.266C214.319 400.454 214.466 400.635 214.589 400.823C214.825 401.152 215.043 401.511 215.285 401.863C215.409 402.051 215.533 402.238 215.656 402.426C215.916 402.847 216.176 403.268 216.442 403.712C216.531 403.86 216.613 403.985 216.702 404.133C217.057 404.724 217.412 405.316 217.756 405.96C217.803 406.045 217.857 406.154 217.904 406.239C218.195 406.775 218.514 407.327 218.811 407.885C218.912 408.079 219.019 408.295 219.126 408.512C219.369 408.962 219.618 409.435 219.845 409.914C237.056 443.866 252.489 514.775 260.578 541.776C263.561 551.722 279.112 560.703 293.161 560.592L330.843 560.253C343.301 560.152 349.541 552.861 344.817 543.922L344.823 543.945Z" fill="#2BF2F1" stroke="#002522" stroke-width="2" stroke-miterlimit="10"/>
<path d="M318.512 411.712L283.468 417.771L259.795 372.967L282.858 368.968L318.512 411.712Z" fill="white" stroke="#002522" stroke-width="2" stroke-miterlimit="10"/>
<path d="M342.99 387.37L318.532 411.714L282.877 368.969L307.336 344.626L342.99 387.37Z" fill="#D3D3D3" stroke="#002522" stroke-width="2" stroke-miterlimit="10"/>
<path d="M221.028 299.211C244.28 340.52 229.658 392.892 188.363 416.18C147.061 439.446 94.7067 424.829 71.4316 383.525C48.1794 342.215 62.8013 289.844 104.097 266.555C145.399 243.29 197.753 257.907 221.028 299.211Z" fill="white" stroke="#002522" stroke-width="2" stroke-miterlimit="10"/>
<path d="M172.329 395.945C138.991 376.694 111.985 329.888 111.979 291.398C111.981 272.261 118.651 258.795 129.458 252.439L112.571 262.192C101.625 268.487 94.875 282.024 94.8583 301.287C94.8646 339.777 121.877 386.606 155.208 405.834C171.572 415.284 186.416 416.309 197.31 410.371L197.628 410.187C197.799 410.092 197.97 409.997 198.135 409.879L213.758 400.809C202.938 406.384 188.373 405.21 172.306 395.951L172.329 395.945Z" fill="#2BF2F1" stroke="#002522" stroke-width="2" stroke-miterlimit="10"/>
<path d="M132.812 250.758C120.059 256.165 111.987 270.35 111.977 291.377C111.983 329.866 138.994 376.694 172.324 395.921C188.368 405.186 202.955 406.353 213.774 400.779C213.774 400.779 332.198 334.782 437.76 345.315C437.76 345.315 292.201 87.1552 289.261 72.8805C189.811 215.679 132.806 250.736 132.806 250.736L132.812 250.758Z" fill="white" stroke="#002522" stroke-width="2" stroke-miterlimit="10"/>
<path d="M420.181 46.3499C483.432 82.8742 534.726 171.743 534.718 244.804C534.717 317.888 483.418 347.514 420.162 310.967C356.912 274.443 305.618 185.573 305.625 112.513C305.626 39.4289 356.925 9.8028 420.181 46.3499Z" fill="#2BF2F1" stroke="#002522" stroke-width="2" stroke-miterlimit="10"/>
<path d="M340.274 37.7581L339.585 38.1146C339.818 37.9785 340.057 37.8652 340.297 37.752L340.274 37.7581Z" fill="#FFCE9B" stroke="#002522" stroke-width="2" stroke-miterlimit="10" stroke-linecap="round"/>
<path d="M420.171 310.983C356.891 274.442 305.625 185.589 305.632 112.528C305.645 76.2158 318.32 50.6399 338.829 38.5665L306.773 57.0721C286.015 69.0404 273.169 94.7112 273.155 131.294C273.154 204.378 324.42 293.231 387.694 329.749C418.768 347.693 446.954 349.631 467.58 338.36L468.201 338.022C468.519 337.838 468.861 337.649 469.18 337.465L498.832 320.242C478.315 330.821 450.619 328.605 420.154 311.013L420.171 310.983Z" fill="#2BF2F1" stroke="#002522" stroke-width="2" stroke-miterlimit="10"/>
<path d="M420.165 67.8233C473.174 98.4336 516.142 172.878 516.132 234.115C516.144 275.009 496.966 299.654 468.422 302.425C479.45 290.759 485.96 272.478 485.947 248.709C485.934 187.478 442.989 113.027 389.98 82.4172C372.368 72.2472 355.881 68.2032 341.715 69.5235C359.084 51.1283 387.726 49.0919 420.165 67.8233Z" fill="#12C6C1" stroke="#002522" stroke-width="2" stroke-miterlimit="10"/>
<path d="M389.974 82.3878C442.984 112.998 485.951 187.442 485.941 248.679C485.954 272.449 479.445 290.729 468.416 302.395C454.25 303.715 437.763 299.671 420.152 289.501C367.143 258.891 324.175 184.447 324.168 123.239C324.155 99.4696 330.665 81.1891 341.71 69.4941C355.877 68.1739 372.363 72.2179 389.974 82.3878Z" fill="#D3D3D3" stroke="#002522" stroke-width="2" stroke-miterlimit="10"/>
<path d="M420.955 176.782C440.446 211.373 433.345 253.732 406.256 280.253C328.399 219.137 324.757 135.745 324.757 135.745C325.878 135.444 327.034 135.183 328.168 134.928C363.957 127.247 402.049 143.187 420.948 176.759L420.955 176.782Z" fill="white" stroke="#002522" stroke-width="2" stroke-miterlimit="10"/>
<path d="M409.932 172.785C415.125 175.784 419.356 183.064 419.348 189.077C419.373 194.026 416.49 196.541 412.555 195.584C412.777 194.764 412.939 193.813 412.921 192.738C412.929 186.725 408.699 179.445 403.534 176.463C402.635 175.943 401.749 175.567 400.913 175.375C402.067 171.532 405.667 170.322 409.909 172.791L409.932 172.785Z" fill="#EFEBE7" stroke="#002522" stroke-width="2" stroke-miterlimit="10"/>
<path d="M403.559 176.462C408.723 179.444 412.954 186.724 412.946 192.737C412.964 193.812 412.801 194.763 412.579 195.583C411.766 195.384 410.886 195.031 409.958 194.495C404.764 191.496 400.579 184.203 400.542 178.203C400.553 177.145 400.686 176.177 400.937 175.373C401.751 175.572 402.63 175.925 403.559 176.462Z" fill="#12C6C1" stroke="#002522" stroke-width="2" stroke-miterlimit="10"/>
</g>
<defs>
<clipPath id="clip0_14997_18491">
<rect width="606" height="615" fill="white"/>
</clipPath>
</defs>
</svg>
