<svg width="895" height="606" viewBox="0 0 895 606" fill="none" xmlns="http://www.w3.org/2000/svg">
<g clip-path="url(#clip0_14997_18376)">
<path d="M218.01 576.383L183.616 425.608L122.902 423.742C125.396 430.342 127.577 437.394 129.482 444.642L152.365 443.581L186.759 594.355C187.663 598.323 186.582 601.407 184.088 603.253C184.088 603.253 214.965 585.575 215.653 585.006C217.892 583.14 218.855 580.154 217.99 576.383H218.01Z" fill="#12C6C1" stroke="#002522" stroke-width="0.700244" stroke-miterlimit="10"/>
<path d="M186.777 594.333L155.094 455.442L152.383 443.539L111.291 447.369C111.488 447.762 111.684 448.155 111.881 448.567C111.939 448.705 111.998 448.842 112.057 448.96C112.195 449.255 112.313 449.55 112.45 449.864C112.509 450.021 112.588 450.198 112.647 450.355C112.764 450.65 112.882 450.944 112.981 451.258C113.039 451.435 113.118 451.612 113.177 451.789C113.295 452.103 113.393 452.437 113.511 452.771C113.57 452.948 113.629 453.125 113.688 453.301C113.806 453.694 113.923 454.087 114.041 454.499C114.08 454.637 114.12 454.755 114.159 454.892C114.316 455.442 114.473 455.992 114.611 456.582C114.63 456.66 114.65 456.758 114.67 456.837C114.788 457.328 114.925 457.839 115.043 458.349C115.082 458.526 115.122 458.723 115.161 458.919C115.259 459.331 115.357 459.764 115.436 460.196C121.937 491.073 119.089 551.159 119.777 574.514C120.032 583.117 130.56 593.646 141.835 596.572L172.084 604.39C182.082 606.983 188.643 602.485 186.777 594.313V594.333Z" fill="#2BF2F1" stroke="#002522" stroke-width="0.700244" stroke-miterlimit="10"/>
<path d="M194.094 482.819L164.728 480.148L155.379 439.193L174.707 440.942L194.094 482.819Z" fill="white" stroke="#002522" stroke-width="0.700244" stroke-miterlimit="10"/>
<path d="M218.906 468.583L194.098 482.823L174.711 440.946L199.519 426.705L218.906 468.583Z" fill="#D3D3D3" stroke="#002522" stroke-width="0.700244" stroke-miterlimit="10"/>
<path d="M140.135 371.827C149.897 409.893 126.955 448.687 88.8882 458.469C50.8214 468.231 12.0279 445.289 2.246 407.222C-7.51622 369.155 15.426 330.362 53.4928 320.58C91.5596 310.818 130.353 333.76 140.135 371.827Z" fill="white" stroke="#002522" stroke-width="0.700244" stroke-miterlimit="10"/>
<path d="M80.3808 438.829C57.8118 416.26 46.2228 372.988 54.4726 342.169C58.5778 326.848 66.808 317.498 76.8255 314.729L61.2099 318.912C51.0941 321.603 42.7854 330.992 38.6409 346.412C30.3911 377.23 41.9801 420.522 64.5491 443.071C75.6274 454.15 87.2949 458.157 97.2928 455.741L97.5875 455.662C97.7446 455.623 97.9017 455.584 98.0589 455.525L112.516 451.616C102.655 453.757 91.243 449.691 80.3612 438.829H80.3808Z" fill="#2BF2F1" stroke="#002522" stroke-width="0.700244" stroke-miterlimit="10"/>
<path d="M79.8861 314.098C68.5132 315.689 59.0063 325.314 54.4886 342.147C46.2388 372.966 57.8277 416.257 80.3967 438.807C91.259 449.669 102.691 453.735 112.551 451.594C112.551 451.594 221.546 424.173 303.828 455.267C303.828 455.267 242.623 217.32 243.33 205.26C133.058 298.246 79.8861 314.078 79.8861 314.078V314.098Z" fill="white" stroke="#002522" stroke-width="0.700244" stroke-miterlimit="10"/>
<path d="M353.877 212.114C396.697 254.934 418.716 337.098 403.042 395.593C387.367 454.108 339.931 466.816 297.111 423.976C254.29 381.156 232.271 298.992 247.946 240.497C263.62 181.983 311.057 169.274 353.877 212.114Z" fill="#2BF2F1" stroke="#002522" stroke-width="0.700244" stroke-miterlimit="10"/>
<path d="M291.73 188.092L291.102 188.229C291.318 188.17 291.534 188.131 291.75 188.092H291.73Z" fill="#FFCE9B" stroke="#002522" stroke-width="0.700244" stroke-miterlimit="10" stroke-linecap="round"/>
<path d="M297.108 423.994C254.268 381.154 232.269 299.01 247.943 240.515C255.741 211.445 271.377 193.688 290.39 188.424L260.75 196.359C241.56 201.486 225.767 219.282 217.91 248.569C202.236 307.083 224.235 389.227 267.075 432.047C288.112 453.084 310.268 460.686 329.204 456.09L329.773 455.952C330.068 455.874 330.382 455.795 330.677 455.716L358.117 448.292C339.418 452.358 317.713 444.638 297.089 424.014L297.108 423.994Z" fill="#2BF2F1" stroke="#002522" stroke-width="0.700244" stroke-miterlimit="10"/>
<path d="M349.252 229.304C385.139 265.19 403.583 334.017 390.442 383.044C381.682 415.788 361.038 431.403 337.585 427.495C348.918 420.522 358.052 407.283 363.139 388.249C376.26 339.222 357.836 270.395 321.949 234.509C310.027 222.586 297.691 215.809 286.063 213.825C303.918 202.826 327.292 207.344 349.252 229.304Z" fill="#12C6C1" stroke="#002522" stroke-width="0.700244" stroke-miterlimit="10"/>
<path d="M321.955 234.488C357.842 270.375 376.286 339.201 363.145 388.228C358.058 407.262 348.924 420.501 337.591 427.474C325.962 425.49 313.627 418.713 301.704 406.79C265.818 370.904 247.374 302.077 260.495 253.07C265.582 234.036 274.716 220.797 286.069 213.805C297.697 215.789 310.033 222.565 321.955 234.488Z" fill="#D3D3D3" stroke="#002522" stroke-width="0.700244" stroke-miterlimit="10"/>
<path d="M326.527 316.715C334.718 348.594 319.947 380.984 292.566 396.404C243.322 330.759 258.29 263.209 258.29 263.209C259.252 263.209 260.234 263.248 261.197 263.288C291.505 264.82 318.592 285.758 326.527 316.695V316.715Z" fill="white" stroke="#002522" stroke-width="0.700244" stroke-miterlimit="10"/>
<path d="M318.56 311.147C322.076 314.663 323.902 321.4 322.606 326.213C321.565 330.18 318.717 331.575 315.77 329.964C316.124 329.355 316.458 328.629 316.674 327.764C317.97 322.952 316.144 316.215 312.647 312.718C312.038 312.109 311.41 311.618 310.781 311.284C312.53 308.456 315.672 308.259 318.54 311.147H318.56Z" fill="#EFEBE7" stroke="#002522" stroke-width="0.700244" stroke-miterlimit="10"/>
<path d="M312.657 312.723C316.154 316.219 317.98 322.957 316.684 327.769C316.468 328.633 316.134 329.36 315.78 329.969C315.171 329.635 314.543 329.164 313.914 328.535C310.398 325.019 308.611 318.282 309.868 313.469C310.104 312.625 310.418 311.878 310.791 311.289C311.4 311.623 312.029 312.094 312.657 312.723Z" fill="#12C6C1" stroke="#002522" stroke-width="0.700244" stroke-miterlimit="10"/>
<path d="M468.691 195.261L469.348 197.426C477.073 202.037 486.168 205.168 496.054 207.445C509.559 210.556 524.54 212.068 539.52 213.583C554.501 215.097 569.484 216.611 582.989 219.721C592.875 221.999 601.97 225.127 609.694 229.739L609.037 227.575C601.312 222.963 592.22 219.834 582.332 217.557C568.827 214.449 553.844 212.933 538.863 211.418C523.88 209.905 508.902 208.391 495.397 205.281C485.511 203.006 476.416 199.873 468.691 195.261Z" fill="#60D06F" stroke="#082422" stroke-width="0.700244" stroke-miterlimit="10"/>
<path d="M609.028 227.575L609.685 229.739C626.736 211.319 643.786 192.9 660.837 174.479L660.18 172.314C643.128 190.734 626.079 209.153 609.028 227.575Z" fill="#60D06F" stroke="#082422" stroke-width="0.700244" stroke-miterlimit="10"/>
<path d="M633.48 162.295C619.975 159.185 604.994 157.673 590.013 156.158C575.033 154.644 560.05 153.13 546.545 150.021C536.659 147.744 527.564 144.613 519.84 140.002C502.788 158.421 485.739 176.84 468.688 195.262C476.412 199.874 485.507 203.005 495.393 205.282C508.898 208.392 523.879 209.905 538.86 211.419C553.84 212.934 568.823 214.447 582.328 217.558C592.214 219.835 601.309 222.964 609.033 227.576C626.085 209.156 643.134 190.737 660.185 172.315C652.461 167.705 643.366 164.573 633.48 162.297L633.48 162.295Z" fill="#60D06F" stroke="#082422" stroke-width="0.700244" stroke-miterlimit="10"/>
<path d="M622.357 169.022C610.598 166.314 597.735 164.796 584.873 163.278C572.012 161.76 559.153 160.244 547.393 157.536C543.083 156.543 538.917 155.39 534.956 154.019C534.339 153.872 533.681 154.088 533.319 154.478C529.881 158.193 523.767 160.23 519.106 159.156C518.378 158.989 517.686 158.745 517.044 158.42C516.936 158.364 516.818 158.324 516.694 158.296C516.079 158.154 515.318 158.338 514.858 158.836C508.111 166.122 501.368 173.41 494.622 180.696C494.068 181.294 494.223 182.047 494.872 182.374C499.619 184.78 500.707 189.71 496.708 194.028C496.269 194.501 496.329 195.08 496.92 195.285C500.845 196.637 504.965 197.775 509.232 198.759C520.992 201.467 533.852 202.983 546.713 204.501C559.575 206.019 572.435 207.537 584.195 210.244C588.509 211.237 592.677 212.392 596.641 213.763C597.343 213.932 598.093 213.679 598.502 213.238C601.937 209.529 608.037 207.494 612.689 208.566C613.422 208.735 614.12 208.979 614.764 209.309C614.861 209.357 614.966 209.395 615.077 209.421C615.632 209.548 616.319 209.379 616.736 208.931C623.543 201.579 630.347 194.227 637.154 186.874C637.653 186.335 637.52 185.653 636.936 185.356C632.196 182.942 631.113 178.008 635.112 173.688C635.497 173.27 635.44 172.766 634.922 172.586C630.921 171.194 626.715 170.027 622.356 169.022L622.357 169.022Z" fill="#80E58A" stroke="#082422" stroke-width="0.700244" stroke-miterlimit="10"/>
<path d="M587.703 172.888C584.6 172.173 581.208 171.595 577.568 171.16C565.196 169.68 553.026 169.389 543.861 169.566C539.242 169.694 535.294 170.029 532.09 170.773C528.888 171.517 526.413 172.693 524.79 174.449C523.171 176.197 522.551 178.362 522.935 180.664C523.32 182.963 524.726 185.375 527.21 187.555C530.664 190.685 536.428 193.175 543.869 194.887C546.971 195.602 550.363 196.18 554.003 196.615C566.375 198.095 578.544 198.387 587.71 198.209C592.329 198.081 596.278 197.746 599.481 197.002C602.683 196.258 605.157 195.083 606.783 193.327C608.401 191.58 609.022 189.412 608.638 187.11C608.253 184.811 606.846 182.4 604.364 180.221C600.909 177.089 595.145 174.601 587.704 172.888L587.703 172.888Z" fill="#60D06F" stroke="#082422" stroke-width="0.700244" stroke-miterlimit="10"/>
<path d="M317.729 342.875L317.789 344.569C329.447 347.604 339.405 351.718 348.375 356.456C360.632 362.929 371.047 370.561 381.465 378.195C391.882 385.829 402.301 393.464 414.554 399.934C423.524 404.672 433.48 408.785 445.138 411.819L445.078 410.125C433.417 407.09 423.464 402.976 414.493 398.24C402.239 391.769 391.822 384.135 381.405 376.501C370.986 368.867 360.572 361.232 348.315 354.762C339.345 350.026 329.387 345.909 317.729 342.875Z" fill="#60D06F" stroke="#082422" stroke-width="0.700244" stroke-miterlimit="10"/>
<path d="M445.087 410.125L445.147 411.819C466.355 398.393 487.563 384.964 508.771 371.538L508.711 369.844C487.503 383.27 466.295 396.698 445.087 410.125Z" fill="#60D06F" stroke="#082422" stroke-width="0.700244" stroke-miterlimit="10"/>
<path d="M411.938 314.481C402.968 309.742 393.014 305.63 381.354 302.595C360.146 316.022 338.938 329.45 317.73 342.876C329.389 345.911 339.346 350.025 348.317 354.763C360.573 361.236 370.988 368.868 381.407 376.502C391.823 384.137 402.242 391.771 414.495 398.241C423.465 402.98 433.421 407.092 445.079 410.127C466.287 396.7 487.495 383.272 508.703 369.846C497.044 366.811 487.087 362.697 478.116 357.959C465.862 351.486 455.445 343.854 445.026 336.22C434.609 328.585 424.189 320.951 411.936 314.479L411.938 314.481Z" fill="#60D06F" stroke="#082422" stroke-width="0.700244" stroke-miterlimit="10"/>
<path d="M408.938 322.862C405.027 320.796 400.931 318.848 396.584 317.059C396.014 316.824 395.155 316.912 394.675 317.216C389.701 320.365 381.031 320.945 374.571 318.979C373.69 318.71 372.371 318.806 371.684 319.241C363.294 324.552 354.906 329.864 346.515 335.175C345.943 335.539 346.045 335.987 346.603 336.282C346.716 336.341 346.846 336.395 346.994 336.439C347.867 336.704 348.631 337.017 349.292 337.365C353.521 339.599 353.414 343.34 349.139 346.046C348.63 346.367 348.612 346.828 349.137 347.106C353.557 348.938 357.607 350.868 361.477 352.912C372.148 358.548 381.45 365.051 390.75 371.552C400.051 378.054 409.351 384.557 420.022 390.191C423.939 392.259 428.039 394.211 432.392 396.001C433.04 396.269 434.021 396.163 434.567 395.818C439.54 392.669 448.216 392.086 454.686 394.047C455.483 394.289 456.672 394.199 457.295 393.806C465.758 388.447 474.224 383.087 482.689 377.728C483.208 377.4 483.121 376.995 482.618 376.728C482.517 376.674 482.399 376.627 482.267 376.587C481.386 376.32 480.614 376.006 479.949 375.655C475.728 373.425 475.833 369.694 480.104 366.991C480.55 366.709 480.562 366.306 480.101 366.064C475.584 364.205 471.441 362.235 467.482 360.145C456.813 354.511 447.51 348.008 438.21 341.505C428.908 335.001 419.608 328.5 408.936 322.864L408.938 322.862Z" fill="#80E58A" stroke="#082422" stroke-width="0.700244" stroke-miterlimit="10"/>
<path d="M420.93 342.253C414.178 338.687 407.042 336.2 400.073 335.093C395.181 334.281 390.479 334.098 386.501 334.434C382.519 334.772 379.293 335.612 377.28 336.887C375.259 338.166 374.638 339.762 375.112 341.644C375.584 343.528 377.126 345.713 379.363 348.206C383.925 353.137 390.845 359.559 399.825 365.81C402.465 367.647 405.214 369.321 408.027 370.808C414.781 374.374 421.917 376.863 428.885 377.968C433.778 378.78 438.482 378.963 442.46 378.627C446.44 378.288 449.668 377.449 451.679 376.176C453.7 374.897 454.321 373.301 453.849 371.417C453.376 369.533 451.834 367.347 449.598 364.855C445.037 359.926 438.116 353.502 429.136 347.253C426.493 345.414 423.746 343.74 420.932 342.255L420.93 342.253Z" fill="#60D06F" stroke="#082422" stroke-width="0.700244" stroke-miterlimit="10"/>
<path d="M692.349 269.671L693.122 271.18C704.967 268.983 715.73 268.485 725.863 268.971C739.708 269.633 752.377 272.127 765.05 274.621C777.721 277.116 790.395 279.611 804.235 280.273C814.368 280.759 825.128 280.26 836.973 278.063L836.2 276.554C824.353 278.752 813.594 279.248 803.462 278.764C789.62 278.103 776.948 275.608 764.277 273.113C751.603 270.619 738.934 268.123 725.09 267.462C714.958 266.978 704.194 267.474 692.349 269.671Z" fill="#60D06F" stroke="#082422" stroke-width="0.700244" stroke-miterlimit="10"/>
<path d="M836.196 276.555L836.969 278.064C850.48 256.909 863.989 235.753 877.5 214.599L876.727 213.09C863.216 234.244 849.706 255.4 836.196 276.555Z" fill="#60D06F" stroke="#082422" stroke-width="0.700244" stroke-miterlimit="10"/>
<path d="M765.618 204C755.485 203.514 744.727 204.012 732.88 206.21C719.37 227.364 705.86 248.521 692.35 269.675C704.195 267.478 714.957 266.98 725.09 267.466C738.935 268.128 751.604 270.622 764.277 273.117C776.949 275.612 789.622 278.106 803.462 278.768C813.596 279.254 824.355 278.755 836.2 276.558C849.711 255.404 863.22 234.248 876.731 213.093C864.886 215.29 854.123 215.788 843.99 215.302C830.147 214.639 817.477 212.146 804.803 209.652C792.132 207.157 779.457 204.664 765.616 203.999L765.618 204Z" fill="#60D06F" stroke="#082422" stroke-width="0.700244" stroke-miterlimit="10"/>
<path d="M766.456 212.86C762.038 212.648 757.502 212.621 752.807 212.845C752.191 212.874 751.45 213.318 751.145 213.797C747.977 218.759 740.371 222.961 733.687 223.921C732.775 224.051 731.621 224.697 731.183 225.382C725.838 233.751 720.495 242.12 715.15 250.488C714.786 251.06 715.068 251.423 715.699 251.453C715.826 251.459 715.967 251.453 716.119 251.43C717.022 251.3 717.847 251.259 718.593 251.294C723.371 251.523 724.86 254.956 722.137 259.22C721.812 259.727 721.991 260.152 722.585 260.181C727.364 259.965 731.851 259.995 736.223 260.204C748.277 260.781 759.459 262.725 770.638 264.668C781.819 266.61 792.999 268.555 805.052 269.13C809.476 269.341 814.017 269.37 818.719 269.145C819.419 269.113 820.262 268.6 820.611 268.057C823.778 263.096 831.388 258.887 838.079 257.919C838.903 257.8 839.942 257.214 840.339 256.594C845.73 248.151 851.123 239.707 856.516 231.263C856.847 230.746 856.597 230.415 856.027 230.387C855.913 230.381 855.786 230.389 855.65 230.408C854.739 230.54 853.906 230.583 853.156 230.548C848.387 230.319 846.9 226.896 849.621 222.635C849.905 222.192 849.745 221.821 849.225 221.798C844.346 222.03 839.759 222.003 835.287 221.79C823.236 221.214 812.052 219.271 800.872 217.326C789.69 215.382 778.51 213.439 766.455 212.863L766.456 212.86Z" fill="#80E58A" stroke="#082422" stroke-width="0.700244" stroke-miterlimit="10"/>
<path d="M785.545 225.331C777.918 224.965 770.401 225.74 763.621 227.693C758.846 229.033 754.51 230.862 751.05 232.854C747.588 234.849 745.022 236.977 743.74 238.986C742.453 241.002 742.567 242.71 743.795 244.214C745.022 245.72 747.345 247.044 750.428 248.353C756.651 250.883 765.641 253.764 776.425 255.615C779.596 256.159 782.795 256.509 785.973 256.662C793.602 257.027 801.12 256.254 807.899 254.299C812.674 252.959 817.012 251.13 820.471 249.138C823.932 247.143 826.499 245.014 827.781 243.008C829.068 240.992 828.953 239.284 827.727 237.778C826.5 236.272 824.176 234.947 821.093 233.638C814.873 231.109 805.88 228.228 795.097 226.378C791.924 225.833 788.727 225.483 785.548 225.331L785.545 225.331Z" fill="#60D06F" stroke="#082422" stroke-width="0.700244" stroke-miterlimit="10"/>
<path d="M519.467 348.119L518.392 349.43C525.137 359.412 529.891 369.08 533.492 378.565C538.413 391.522 541.186 404.133 543.96 416.748C546.733 429.361 549.507 441.976 554.427 454.93C558.028 464.414 562.782 474.079 569.526 484.061L570.601 482.75C563.855 472.767 559.104 463.101 555.501 453.618C550.58 440.664 547.807 428.05 545.035 415.436C542.26 402.821 539.489 390.209 534.567 377.253C530.964 367.77 526.211 358.101 519.467 348.119Z" fill="#60D06F" stroke="#082422" stroke-width="0.700244" stroke-miterlimit="10"/>
<path d="M570.599 482.75L569.524 484.061C594.314 488 619.105 491.937 643.894 495.876L644.969 494.564C620.179 490.626 595.388 486.688 570.599 482.75Z" fill="#60D06F" stroke="#082422" stroke-width="0.700244" stroke-miterlimit="10"/>
<path d="M608.941 389.069C605.34 379.585 600.588 369.92 593.842 359.937C569.052 355.998 544.261 352.061 519.472 348.122C526.216 358.104 530.97 367.772 534.571 377.257C539.493 390.214 542.265 402.825 545.04 415.44C547.812 428.053 550.587 440.668 555.506 453.622C559.107 463.106 563.861 472.772 570.606 482.754C595.395 486.692 620.186 490.63 644.976 494.568C638.232 484.586 633.477 474.918 629.876 465.434C624.956 452.478 622.182 439.866 619.408 427.251C616.635 414.637 613.859 402.021 608.941 389.066L608.941 389.069Z" fill="#60D06F" stroke="#082422" stroke-width="0.700244" stroke-miterlimit="10"/>
<path d="M601.168 393.38C599.598 389.245 597.811 385.076 595.731 380.861C595.459 380.308 594.756 379.806 594.194 379.717C588.381 378.794 581.491 373.499 577.941 367.755C577.458 366.971 576.404 366.171 575.602 366.043C565.795 364.484 555.989 362.928 546.182 361.369C545.512 361.264 545.292 361.668 545.516 362.258C545.562 362.377 545.624 362.503 545.706 362.634C546.186 363.41 546.552 364.15 546.818 364.848C548.516 369.319 545.964 372.056 540.967 371.261C540.372 371.166 540.054 371.5 540.265 372.057C542.371 376.352 544.135 380.477 545.69 384.569C549.974 395.85 552.657 406.878 555.34 417.903C558.025 428.93 560.707 439.956 564.992 451.237C566.565 455.377 568.352 459.552 570.436 463.772C570.745 464.401 571.552 464.97 572.189 465.072C578.003 465.995 584.9 471.291 588.459 477.038C588.897 477.747 589.85 478.465 590.577 478.582C600.47 480.153 610.365 481.725 620.26 483.297C620.866 483.394 621.07 483.033 620.868 482.499C620.828 482.392 620.77 482.279 620.698 482.161C620.213 481.379 619.841 480.633 619.574 479.931C617.879 475.467 620.424 472.737 625.417 473.53C625.937 473.614 626.213 473.319 626.026 472.833C623.865 468.452 622.058 464.236 620.468 460.051C616.184 448.772 613.499 437.743 610.817 426.717C608.134 415.689 605.451 404.664 601.165 393.381L601.168 393.38Z" fill="#80E58A" stroke="#082422" stroke-width="0.700244" stroke-miterlimit="10"/>
<path d="M597.345 415.857C594.635 408.718 590.923 402.136 586.424 396.7C583.289 392.858 579.881 389.612 576.673 387.236C573.461 384.859 570.485 383.356 568.132 382.983C565.77 382.608 564.249 383.395 563.361 385.121C562.47 386.847 562.184 389.506 562.215 392.855C562.381 399.571 563.33 408.963 565.939 419.589C566.706 422.713 567.663 425.786 568.791 428.761C571.503 435.901 575.214 442.484 579.714 447.919C582.849 451.761 586.259 455.008 589.466 457.384C592.677 459.76 595.654 461.264 598.005 461.638C600.367 462.013 601.888 461.226 602.778 459.5C603.669 457.773 603.956 455.114 603.925 451.765C603.759 445.052 602.81 435.657 600.2 425.033C599.432 421.906 598.477 418.834 597.346 415.86L597.345 415.857Z" fill="#60D06F" stroke="#082422" stroke-width="0.700244" stroke-miterlimit="10"/>
<path d="M462.88 368.963L464.566 369.15C469.263 358.057 474.781 348.803 480.773 340.617C488.959 329.432 498.024 320.237 507.092 311.039C516.159 301.843 525.227 292.645 533.41 281.463C539.402 273.277 544.918 264.025 549.616 252.931L547.931 252.745C543.233 263.84 537.715 273.09 531.725 281.276C523.542 292.46 514.474 301.656 505.407 310.852C496.339 320.05 487.271 329.245 479.088 340.43C473.098 348.617 467.578 357.87 462.88 368.963Z" fill="#60D06F" stroke="#082422" stroke-width="0.700244" stroke-miterlimit="10"/>
<path d="M547.939 252.747L549.624 252.934C539.424 229.999 529.221 207.065 519.021 184.13L517.336 183.943C527.536 206.878 537.739 229.813 547.939 252.747Z" fill="#60D06F" stroke="#082422" stroke-width="0.700244" stroke-miterlimit="10"/>
<path d="M448.492 271.633C442.5 279.819 436.984 289.069 432.287 300.165C442.487 323.099 452.689 346.034 462.89 368.968C467.587 357.875 473.105 348.621 479.097 340.435C487.283 329.25 496.348 320.055 505.416 310.857C514.484 301.661 523.551 292.463 531.735 281.281C537.727 273.095 543.243 263.843 547.94 252.75C537.74 229.815 527.537 206.88 517.337 183.946C512.639 195.039 507.121 204.293 501.129 212.479C492.944 223.662 483.878 232.859 474.811 242.057C465.743 251.253 456.675 260.453 448.49 271.635L448.492 271.633Z" fill="#60D06F" stroke="#082422" stroke-width="0.700244" stroke-miterlimit="10"/>
<path d="M456.342 275.809C453.729 279.378 451.206 283.147 448.804 287.188C448.489 287.717 448.451 288.58 448.682 289.1C451.075 294.478 450.387 303.14 447.504 309.246C447.11 310.078 447.012 311.398 447.343 312.14C451.377 321.213 455.414 330.285 459.449 339.358C459.725 339.977 460.184 339.942 460.557 339.432C460.631 339.329 460.704 339.208 460.769 339.068C461.158 338.243 461.579 337.533 462.019 336.93C464.844 333.07 468.53 333.72 470.585 338.343C470.829 338.893 471.283 338.978 471.634 338.498C474.089 334.392 476.588 330.666 479.172 327.134C486.3 317.395 494.086 309.138 501.87 300.882C509.655 292.625 517.441 284.369 524.567 274.631C527.182 271.056 529.709 267.283 532.113 263.237C532.473 262.635 532.51 261.649 532.249 261.059C529.856 255.68 530.54 247.012 533.421 240.896C533.777 240.142 533.86 238.953 533.562 238.279C529.49 229.127 525.419 219.972 521.347 210.817C521.098 210.257 520.684 210.283 520.347 210.743C520.279 210.835 520.216 210.945 520.156 211.069C519.764 211.902 519.341 212.62 518.898 213.227C516.078 217.079 512.402 216.433 510.348 211.814C510.134 211.332 509.737 211.261 509.431 211.682C506.935 215.881 504.383 219.693 501.74 223.306C494.615 233.043 486.828 241.302 479.042 249.558C471.255 257.815 463.471 266.071 456.343 275.811L456.342 275.809Z" fill="#80E58A" stroke="#082422" stroke-width="0.700244" stroke-miterlimit="10"/>
<path d="M477.272 266.76C472.762 272.922 469.264 279.62 467.156 286.354C465.641 291.076 464.776 295.702 464.53 299.686C464.286 303.675 464.648 306.989 465.616 309.166C466.588 311.351 468.077 312.198 470.008 312.002C471.941 311.809 474.327 310.601 477.119 308.75C482.66 304.953 490.02 299.041 497.51 291.065C499.712 288.72 501.767 286.243 503.648 283.677C508.158 277.513 511.657 270.815 513.764 264.081C515.278 259.359 516.144 254.731 516.389 250.746C516.633 246.76 516.272 243.444 515.305 241.269C514.333 239.083 512.844 238.237 510.912 238.43C508.979 238.624 506.592 239.832 503.801 241.682C498.261 245.478 490.9 251.391 483.412 259.368C481.208 261.715 479.153 264.189 477.274 266.758L477.272 266.76Z" fill="#60D06F" stroke="#082422" stroke-width="0.700244" stroke-miterlimit="10"/>
<path d="M701.066 533.511L702.375 534.588C712.37 527.863 722.048 523.128 731.539 519.546C744.506 514.65 757.122 511.902 769.743 509.152C782.362 506.404 794.982 503.655 807.945 498.761C817.436 495.178 827.111 490.443 837.107 483.719L835.797 482.642C825.801 489.368 816.126 494.1 806.636 497.684C793.671 502.579 781.052 505.327 768.433 508.075C755.813 510.825 743.195 513.571 730.23 518.468C720.74 522.052 711.061 526.786 701.066 533.511Z" fill="#60D06F" stroke="#082422" stroke-width="0.700244" stroke-miterlimit="10"/>
<path d="M835.789 482.646L837.098 483.723C841.086 458.941 845.072 434.158 849.059 409.376L847.75 408.299C843.762 433.081 839.777 457.864 835.789 482.646Z" fill="#60D06F" stroke="#082422" stroke-width="0.700244" stroke-miterlimit="10"/>
<path d="M742.188 444.129C732.697 447.711 723.023 452.445 713.026 459.171C709.039 483.953 705.053 508.736 701.065 533.518C711.061 526.793 720.738 522.058 730.23 518.475C743.197 513.58 755.813 510.832 768.433 508.082C781.052 505.334 793.673 502.585 806.636 497.691C816.127 494.108 825.802 489.373 835.797 482.649C839.785 457.867 843.771 433.084 847.758 408.302C837.763 415.026 828.085 419.762 818.594 423.344C805.628 428.239 793.011 430.988 780.39 433.737C767.771 436.485 755.15 439.236 742.185 444.129L742.188 444.129Z" fill="#60D06F" stroke="#082422" stroke-width="0.700244" stroke-miterlimit="10"/>
<path d="M746.48 451.919C742.341 453.48 738.169 455.259 733.95 457.331C733.396 457.602 732.893 458.304 732.803 458.865C731.868 464.677 726.56 471.556 720.808 475.095C720.024 475.577 719.221 476.628 719.092 477.431C717.514 487.234 715.939 497.038 714.361 506.841C714.254 507.511 714.657 507.732 715.248 507.509C715.367 507.463 715.494 507.402 715.624 507.32C716.401 506.842 717.142 506.476 717.84 506.212C722.315 504.523 725.047 507.081 724.242 512.076C724.146 512.67 724.479 512.989 725.036 512.779C729.335 510.681 733.464 508.926 737.559 507.379C748.849 503.117 759.882 500.456 770.913 497.794C781.944 495.131 792.976 492.471 804.265 488.208C808.408 486.643 812.586 484.864 816.811 482.789C817.44 482.481 818.011 481.675 818.114 481.038C819.049 475.226 824.358 468.34 830.112 464.791C830.822 464.355 831.542 463.404 831.66 462.677C833.25 452.786 834.842 442.895 836.434 433.003C836.532 432.397 836.171 432.193 835.637 432.393C835.53 432.433 835.417 432.491 835.299 432.563C834.516 433.046 833.769 433.416 833.066 433.683C828.599 435.368 825.874 432.818 826.677 427.827C826.761 427.307 826.467 427.031 825.981 427.216C821.596 429.369 817.376 431.168 813.188 432.75C801.901 437.012 790.867 439.675 779.835 442.335C768.802 444.997 757.771 447.658 746.48 451.921L746.48 451.919Z" fill="#80E58A" stroke="#082422" stroke-width="0.700244" stroke-miterlimit="10"/>
<path d="M768.951 455.773C761.807 458.47 755.218 462.169 749.773 466.657C745.924 469.784 742.672 473.186 740.29 476.389C737.906 479.596 736.398 482.569 736.02 484.922C735.64 487.284 736.424 488.806 738.148 489.697C739.873 490.591 742.531 490.883 745.881 490.859C752.597 490.706 761.991 489.775 772.622 487.188C775.748 486.426 778.822 485.475 781.799 484.353C788.944 481.655 795.535 477.957 800.979 473.468C804.827 470.34 808.08 466.937 810.463 463.734C812.846 460.528 814.355 457.554 814.733 455.204C815.113 452.842 814.329 451.32 812.604 450.426C810.88 449.532 808.221 449.24 804.872 449.265C798.159 449.417 788.762 450.348 778.133 452.937C775.004 453.699 771.931 454.648 768.954 455.773L768.951 455.773Z" fill="#60D06F" stroke="#082422" stroke-width="0.700244" stroke-miterlimit="10"/>
<path d="M323.029 278.34L324.832 279.705C333.792 278.9 342.992 276.092 352.33 272.128C365.087 266.713 378.099 259.138 391.113 251.564C404.127 243.99 417.142 236.415 429.899 231C439.237 227.036 448.435 224.226 457.396 223.421L455.593 222.056C446.632 222.861 437.435 225.669 428.096 229.634C415.34 235.051 402.324 242.625 389.31 250.198C376.295 257.774 363.284 265.347 350.527 270.762C341.19 274.727 331.989 277.535 323.029 278.34Z" fill="#60D06F" stroke="#082422" stroke-width="0.700244" stroke-miterlimit="10"/>
<path d="M455.592 222.056L457.395 223.421C460.376 198.498 463.355 173.577 466.334 148.653L464.531 147.287C461.55 172.21 458.571 197.132 455.592 222.056Z" fill="#60D06F" stroke="#082422" stroke-width="0.700244" stroke-miterlimit="10"/>
<path d="M437.032 154.863C424.275 160.279 411.263 167.854 398.249 175.427C385.235 183.001 372.22 190.576 359.465 195.993C350.126 199.957 340.927 202.765 331.966 203.57C328.985 228.493 326.006 253.414 323.027 278.339C331.987 277.534 341.187 274.725 350.525 270.761C363.282 265.346 376.294 257.771 389.308 250.198C402.322 242.624 415.337 235.049 428.094 229.633C437.432 225.669 446.63 222.86 455.591 222.055C458.572 197.132 461.551 172.211 464.53 147.286C455.571 148.092 446.37 150.9 437.033 154.865L437.032 154.863Z" fill="#60D06F" stroke="#082422" stroke-width="0.700244" stroke-miterlimit="10"/>
<path d="M431.986 166.843C420.878 171.558 409.577 177.885 398.276 184.212C386.976 190.537 375.678 196.863 364.569 201.579C360.498 203.307 356.45 204.82 352.439 206.038C351.853 206.281 351.447 206.843 351.383 207.37C350.782 212.397 347.031 217.637 342.628 219.506C341.941 219.798 341.238 220.007 340.527 220.121C340.407 220.139 340.288 220.176 340.171 220.226C339.59 220.473 339.082 221.068 339.002 221.742C337.822 231.601 336.645 241.46 335.465 251.32C335.368 252.128 335.935 252.647 336.653 252.531C341.908 251.689 345.685 255.04 344.985 260.884C344.907 261.525 345.295 261.958 345.894 261.776C349.865 260.565 353.867 259.067 357.899 257.356C369.007 252.64 380.305 246.314 391.605 239.989C402.906 233.662 414.206 227.337 425.313 222.62C429.388 220.89 433.439 219.376 437.453 218.158C438.12 217.882 438.579 217.237 438.651 216.639C439.252 211.62 442.993 206.39 447.388 204.525C448.081 204.232 448.789 204.019 449.504 203.908C449.611 203.89 449.718 203.859 449.823 203.815C450.347 203.592 450.804 203.051 450.879 202.443C452.068 192.495 453.257 182.548 454.447 172.6C454.534 171.871 454.027 171.397 453.379 171.499C448.125 172.329 444.35 168.972 445.049 163.127C445.116 162.563 444.773 162.188 444.248 162.347C440.193 163.571 436.103 165.097 431.985 166.844L431.986 166.843Z" fill="#80E58A" stroke="#082422" stroke-width="0.700244" stroke-miterlimit="10"/>
<path d="M406.212 190.327C403.281 191.571 400.195 193.095 396.994 194.881C386.112 200.951 376.092 207.864 368.779 213.39C365.115 216.206 362.117 218.797 359.961 221.281C357.807 223.764 356.494 226.17 356.213 228.544C355.929 230.909 356.699 233.026 358.361 234.664C360.024 236.298 362.578 237.424 365.869 237.73C370.503 238.234 376.63 236.863 383.658 233.878C386.588 232.635 389.674 231.11 392.875 229.324C403.757 223.255 413.776 216.343 421.091 210.815C424.754 207.999 427.753 205.409 429.908 202.924C432.062 200.441 433.374 198.038 433.659 195.661C433.942 193.298 433.171 191.178 431.509 189.541C429.847 187.906 427.291 186.781 424.003 186.476C419.367 185.971 413.242 187.342 406.213 190.326L406.212 190.327Z" fill="#60D06F" stroke="#082422" stroke-width="0.700244" stroke-miterlimit="10"/>
<path d="M568.751 285.77L568.265 287.979C572.748 295.779 579.151 302.957 586.661 309.778C596.921 319.095 609.248 327.74 621.575 336.386C633.902 345.033 646.231 353.679 656.491 362.997C664.001 369.817 670.404 376.993 674.887 384.793L675.372 382.584C670.889 374.784 664.488 367.608 656.976 360.787C646.716 351.472 634.387 342.823 622.06 334.177C609.731 325.53 597.406 316.886 587.146 307.569C579.636 300.75 573.234 293.57 568.751 285.77Z" fill="#60D06F" stroke="#082422" stroke-width="0.700244" stroke-miterlimit="10"/>
<path d="M675.367 382.581L674.882 384.79C698.762 377.061 722.641 369.331 746.523 361.6L747.008 359.391C723.127 367.12 699.248 374.85 675.367 382.581Z" fill="#60D06F" stroke="#082422" stroke-width="0.700244" stroke-miterlimit="10"/>
<path d="M728.617 337.598C718.357 328.281 706.03 319.636 693.703 310.99C681.376 302.343 669.047 293.696 658.787 284.381C651.277 277.561 644.874 270.382 640.391 262.582C616.51 270.312 592.631 278.041 568.75 285.773C573.233 293.573 579.636 300.751 587.145 307.571C597.405 316.889 609.733 325.533 622.06 334.18C634.387 342.826 646.716 351.473 656.975 360.79C664.485 367.611 670.888 374.787 675.371 382.587C699.252 374.858 723.131 367.128 747.012 359.397C742.529 351.599 736.127 344.418 728.616 337.6L728.617 337.598Z" fill="#60D06F" stroke="#082422" stroke-width="0.700244" stroke-miterlimit="10"/>
<path d="M715.62 338.022C706.686 329.909 696.208 322.295 685.731 314.682C675.255 307.069 664.779 299.458 655.845 291.345C652.571 288.372 649.502 285.329 646.716 282.197C646.25 281.766 645.571 281.633 645.065 281.796C640.249 283.355 633.919 282.142 630.379 278.927C629.825 278.425 629.341 277.874 628.94 277.276C628.873 277.175 628.79 277.082 628.695 276.997C628.228 276.572 627.475 276.361 626.829 276.57C617.382 279.627 607.936 282.687 598.488 285.744C597.713 285.994 597.48 286.727 597.886 287.33C600.851 291.749 599.389 296.582 593.789 298.393C593.175 298.591 592.944 299.125 593.36 299.593C596.122 302.692 599.159 305.699 602.401 308.644C611.335 316.756 621.811 324.367 632.286 331.98C642.764 339.594 653.239 347.207 662.174 355.318C665.451 358.294 668.522 361.339 671.309 364.474C671.839 364.964 672.617 365.111 673.19 364.926C677.999 363.37 684.315 364.577 687.849 367.787C688.406 368.294 688.895 368.848 689.296 369.45C689.357 369.54 689.43 369.624 689.514 369.701C689.936 370.083 690.618 370.272 691.201 370.085C700.734 367 710.264 363.914 719.796 360.829C720.496 360.603 720.713 359.944 720.349 359.398C717.395 354.975 718.863 350.141 724.463 348.328C725.004 348.153 725.201 347.684 724.837 347.274C722.028 344.104 718.929 341.029 715.618 338.021L715.62 338.022Z" fill="#80E58A" stroke="#082422" stroke-width="0.700244" stroke-miterlimit="10"/>
<path d="M683.506 324.459C681.149 322.318 678.473 320.154 675.511 317.995C665.442 310.655 654.968 304.45 646.888 300.123C642.796 297.975 639.188 296.337 636.029 295.42C632.873 294.503 630.138 294.318 627.864 295.057C625.598 295.789 623.998 297.375 623.207 299.571C622.418 301.765 622.465 304.556 623.567 307.672C625.049 312.092 628.859 317.082 634.513 322.214C636.869 324.354 639.546 326.518 642.508 328.677C652.576 336.018 663.048 342.222 671.131 346.55C675.222 348.697 678.83 350.335 681.989 351.252C685.146 352.169 687.878 352.354 690.155 351.617C692.42 350.885 694.022 349.297 694.813 347.102C695.602 344.908 695.553 342.116 694.453 339.002C692.971 334.581 689.16 329.593 683.508 324.459L683.506 324.459Z" fill="#60D06F" stroke="#082422" stroke-width="0.700244" stroke-miterlimit="10"/>
<path d="M683.316 190.98L684.902 191.581C692.216 182.008 699.866 174.422 707.709 167.988C718.424 159.196 729.495 152.551 740.57 145.903C751.643 139.257 762.717 132.609 773.429 123.82C781.273 117.386 788.921 109.801 796.235 100.228L794.649 99.6274C787.334 109.202 779.685 116.784 771.844 123.219C761.131 132.01 750.058 138.656 738.984 145.302C727.91 151.95 716.837 158.594 706.124 167.387C698.283 173.822 690.63 181.408 683.316 190.98Z" fill="#60D06F" stroke="#082422" stroke-width="0.700244" stroke-miterlimit="10"/>
<path d="M794.644 99.6273L796.23 100.228C792.068 75.475 787.904 50.7212 783.742 25.968L782.156 25.3672C786.318 50.1203 790.482 74.8741 794.644 99.6273Z" fill="#60D06F" stroke="#082422" stroke-width="0.700244" stroke-miterlimit="10"/>
<path d="M693.629 93.1342C685.786 99.5685 678.139 107.152 670.824 116.726C674.986 141.479 679.15 166.233 683.312 190.986C690.626 181.414 698.277 173.827 706.12 167.393C716.835 158.601 727.906 151.956 738.98 145.308C750.054 138.662 761.128 132.015 771.84 123.225C779.683 116.791 787.331 109.206 794.645 99.6336C790.483 74.8804 786.319 50.1266 782.157 25.3735C774.843 34.9459 767.192 42.5322 759.349 48.9666C748.635 57.7569 737.563 64.4035 726.489 71.0513C715.415 77.6973 704.34 84.3469 693.627 93.1354L693.629 93.1342Z" fill="#60D06F" stroke="#082422" stroke-width="0.700244" stroke-miterlimit="10"/>
<path d="M700.202 99.1401C696.782 101.945 693.399 104.967 690.066 108.281C689.628 108.715 689.376 109.542 689.471 110.102C690.448 115.907 687.623 124.125 683.308 129.319C682.719 130.027 682.296 131.28 682.431 132.082C684.077 141.874 685.725 151.666 687.371 161.458C687.485 162.127 687.937 162.207 688.425 161.806C688.524 161.725 688.624 161.626 688.722 161.507C689.304 160.805 689.889 160.221 690.466 159.747C694.163 156.713 697.571 158.261 698.409 163.251C698.508 163.845 698.926 164.04 699.387 163.663C702.787 160.298 706.136 157.312 709.519 154.535C718.849 146.881 728.448 140.825 738.044 134.77C747.641 128.713 757.239 122.659 766.567 115.004C769.991 112.194 773.379 109.17 776.715 105.851C777.213 105.357 777.495 104.411 777.389 103.775C776.413 97.9701 779.236 89.7456 783.55 84.5405C784.082 83.8996 784.46 82.7682 784.339 82.0417C782.677 72.1631 781.015 62.2826 779.354 52.4021C779.253 51.7969 778.846 51.7194 778.404 52.0803C778.316 52.1525 778.227 52.2434 778.138 52.3493C777.551 53.058 776.962 53.648 776.382 54.1254C772.691 57.1531 769.292 55.6105 768.454 50.6253C768.367 50.1055 768 49.9379 767.599 50.2697C764.134 53.7139 760.713 56.7694 757.253 59.6099C747.926 67.2631 738.326 73.3211 728.728 79.3754C719.129 85.4315 709.533 91.4864 700.203 99.1427L700.202 99.1401Z" fill="#80E58A" stroke="#082422" stroke-width="0.700244" stroke-miterlimit="10"/>
<path d="M722.723 95.5902C716.819 100.433 711.762 106.048 708.042 112.044C705.399 116.24 703.408 120.504 702.177 124.302C700.946 128.104 700.47 131.403 700.866 133.753C701.263 136.112 702.493 137.302 704.412 137.594C706.332 137.889 708.944 137.314 712.109 136.217C718.422 133.921 727.023 130.03 736.264 124.172C738.981 122.45 741.589 120.564 744.05 118.547C749.954 113.702 755.013 108.088 758.731 102.091C761.375 97.8957 763.366 93.6295 764.597 89.832C765.827 86.0318 766.304 82.7306 765.909 80.3832C765.513 78.0244 764.282 76.8339 762.362 76.5394C760.442 76.2448 757.83 76.8198 754.665 77.9163C748.355 80.2112 739.751 84.1036 730.512 89.9618C727.792 91.6854 725.185 93.5694 722.725 95.589L722.723 95.5902Z" fill="#60D06F" stroke="#082422" stroke-width="0.700244" stroke-miterlimit="10"/>
</g>
<defs>
<clipPath id="clip0_14997_18376">
<rect width="894.833" height="605.124" fill="white"/>
</clipPath>
</defs>
</svg>
