<svg width="323" height="255" viewBox="0 0 323 255" fill="none" xmlns="http://www.w3.org/2000/svg">
<path d="M210.521 0.637695C272.039 0.637695 321.923 50.5904 321.909 112.188C321.909 173.8 272.039 223.738 210.507 223.738H128.064L131.668 252.193L131.789 253.148L130.863 252.885L131.037 252.273L130.862 252.885C130.862 252.885 130.861 252.884 130.859 252.884C130.857 252.883 130.853 252.882 130.848 252.881C130.838 252.878 130.822 252.874 130.803 252.868C130.764 252.857 130.705 252.84 130.629 252.817C130.476 252.772 130.249 252.705 129.952 252.614C129.359 252.433 128.486 252.161 127.364 251.793C125.12 251.057 121.879 249.94 117.885 248.414C109.896 245.362 98.8897 240.671 86.8145 234.115C62.6806 221.013 34.2164 200.426 17.0811 170.522L16.5957 169.725C6.47286 152.92 0.637785 133.237 0.637695 112.188C0.637695 50.5905 50.5225 0.637695 112.055 0.637695H210.521Z" fill="#DBFF00" stroke="#082422" stroke-width="1.272" stroke-miterlimit="10"/>
<path d="M121.654 130.009C127.861 130.009 132.893 124.97 132.893 118.754C132.893 112.539 127.861 107.5 121.654 107.5C115.446 107.5 110.414 112.539 110.414 118.754C110.414 124.97 115.446 130.009 121.654 130.009Z" fill="#002522"/>
<path opacity="0.3" d="M207.068 130.009C213.275 130.009 218.307 124.97 218.307 118.754C218.307 112.539 213.275 107.5 207.068 107.5C200.86 107.5 195.828 112.539 195.828 118.754C195.828 124.97 200.86 130.009 207.068 130.009Z" fill="#002522"/>
<path opacity="0.6" d="M164.38 130.009C170.588 130.009 175.62 124.97 175.62 118.754C175.62 112.539 170.588 107.5 164.38 107.5C158.173 107.5 153.141 112.539 153.141 118.754C153.141 124.97 158.173 130.009 164.38 130.009Z" fill="#002522"/>
</svg>
