<svg width="320" height="268" viewBox="0 0 320 268" fill="none" xmlns="http://www.w3.org/2000/svg">
<g clip-path="url(#clip0_15015_18748)">
<path d="M144.09 267.666C144.543 267.847 144.845 267.938 145.026 267.998L91.2486 248.055C91.0976 247.995 90.7654 247.874 90.3125 247.723L144.09 267.666Z" fill="#B9CC00" stroke="#002522" stroke-miterlimit="10"/>
<path d="M266.354 24.4473L212.576 4.50391C248.78 17.9204 271.276 59.9224 265.237 109.63C257.869 170.155 210.945 219.228 160.398 219.228H91.7342L91.2812 248.055L145.059 267.999L145.512 239.172H214.176C264.723 239.172 311.647 190.099 319.015 129.573C325.084 79.8659 302.558 37.8638 266.354 24.4473Z" fill="#B9CC00" stroke="#002522" stroke-miterlimit="10"/>
<path d="M187.123 0C237.64 0 272.606 49.1031 265.238 109.628C257.87 170.154 210.947 219.227 160.4 219.227H91.7356L91.2827 248.054C88.1423 246.936 28.5065 225.754 7.52074 166.92C0.968348 150.24 -1.56806 130.629 0.968348 109.628C8.36621 49.1031 55.2898 0 105.807 0H187.123Z" fill="#DCFF00" stroke="#002522" stroke-miterlimit="10"/>
<path d="M100.979 105.004C106.082 105.004 109.645 109.96 108.89 116.124C108.135 122.288 103.394 127.244 98.261 127.244C93.1278 127.244 89.5648 122.288 90.3196 116.124C91.0745 109.96 95.8152 105.004 100.979 105.004Z" fill="#002522"/>
<path d="M136.244 105.004C141.347 105.004 144.91 109.96 144.155 116.124C143.401 122.288 138.66 127.244 133.527 127.244C128.393 127.244 124.83 122.288 125.585 116.124C126.34 109.96 131.081 105.004 136.244 105.004Z" fill="#587C14"/>
<path d="M171.489 105.004C176.622 105.004 180.185 109.96 179.43 116.124C178.675 122.288 173.935 127.244 168.771 127.244C163.608 127.244 160.105 122.288 160.86 116.124C161.615 109.96 166.356 105.004 171.489 105.004Z" fill="#9ABD0A"/>
</g>
<defs>
<clipPath id="clip0_15015_18748">
<rect width="320" height="268" fill="white"/>
</clipPath>
</defs>
</svg>
