<svg width="344" height="273" viewBox="0 0 344 273" fill="none" xmlns="http://www.w3.org/2000/svg">
<g clip-path="url(#clip0_15015_18747)">
<path d="M335.297 154.748C340.104 104.224 302.924 59.5349 252.249 54.9399C201.574 50.3448 156.61 87.5858 151.803 138.11C146.996 188.634 184.176 233.323 234.839 237.917C235.164 237.947 235.491 237.953 235.827 237.983L219.804 258.938L229.521 264.32C313.373 236.003 330.346 178.036 331.68 172.981C333.462 167.15 334.686 161.047 335.286 154.747L335.297 154.748Z" fill="#0CBAB5" stroke="#082422" stroke-miterlimit="10" stroke-linejoin="round"/>
<path d="M325.162 149.18C329.975 98.6633 292.795 53.9632 242.113 49.3478C191.431 44.7324 146.457 81.951 141.643 132.468C136.829 182.984 174.01 227.684 224.68 232.299C225.005 232.328 225.332 232.335 225.668 232.365L219.359 258.696C303.226 230.417 320.207 172.463 321.542 167.409C323.326 161.58 324.55 155.478 325.15 149.179L325.162 149.18Z" fill="#2BF2F1" stroke="#082422" stroke-miterlimit="10" stroke-linejoin="round"/>
<mask id="mask0_15015_18747" style="mask-type:alpha" maskUnits="userSpaceOnUse" x="140" y="48" width="187" height="212">
<path d="M325.174 149.198C329.979 98.6885 292.784 53.9875 242.092 49.3635C191.4 44.7394 146.425 81.9449 141.62 132.454C136.815 182.963 174.01 227.664 224.691 232.287C225.015 232.317 225.342 232.323 225.678 232.354L219.373 258.68C303.25 230.42 320.223 172.477 321.558 167.424C323.34 161.595 324.564 155.494 325.163 149.197L325.174 149.198Z" fill="#2BF2F1" stroke="#082422" stroke-miterlimit="10" stroke-linejoin="round"/>
</mask>
<g mask="url(#mask0_15015_18747)">
<path d="M49.3442 142.316C40.7038 92.3178 74.385 44.9231 124.578 36.4649C174.77 28.0067 222.451 61.6907 231.091 111.689C239.732 161.687 205.957 209.011 156.208 219.519C155.886 219.573 155.561 219.604 155.228 219.66L163.183 243.451C159.289 243.445 153.651 242.875 150.504 242.391C74.8598 218.607 55.9709 164.909 54.3395 160.215C52.118 154.538 50.433 148.548 49.3557 142.314L49.3442 142.316Z" fill="#082422" fill-opacity="0.2"/>
</g>
<path d="M28.1612 122.189C19.507 72.1787 53.164 24.7855 103.341 16.3415C153.517 7.89754 201.197 41.6031 209.851 91.6136C218.505 141.624 184.754 188.947 135.021 199.441C134.7 199.495 134.375 199.526 134.042 199.582L142.003 223.38C138.11 223.373 132.473 222.801 129.327 222.315C53.6948 198.503 34.7934 144.789 33.161 140.093C30.9382 134.415 29.2517 128.423 28.1727 122.187L28.1612 122.189Z" fill="#B9CC00" stroke="#082422" stroke-miterlimit="10" stroke-linejoin="round"/>
<path d="M15.669 121.256C7.01479 71.2451 40.6718 23.8519 90.8485 15.4079C141.025 6.96395 188.704 40.6695 197.359 90.6801C206.013 140.691 172.356 188.084 122.191 196.526C121.869 196.58 121.544 196.611 121.211 196.667L129.511 222.446C43.7385 200.603 22.3857 144.098 20.6688 139.159C18.4461 133.481 16.7595 127.489 15.6805 121.254L15.669 121.256Z" fill="#DCFF00" stroke="#082422" stroke-miterlimit="10" stroke-linejoin="round"/>
</g>
<defs>
<clipPath id="clip0_15015_18747">
<rect width="344" height="273" fill="white"/>
</clipPath>
</defs>
</svg>
