<svg width="344" height="273" viewBox="0 0 344 273" fill="none" xmlns="http://www.w3.org/2000/svg">
<g clip-path="url(#clip0_15015_18746)">
<path d="M335.297 154.744C340.104 104.22 302.924 59.5308 252.249 54.9358C201.574 50.3409 156.61 87.5817 151.803 138.105C146.996 188.629 184.176 233.318 234.839 237.912C235.164 237.941 235.49 237.948 235.827 237.978L219.804 258.933L229.521 264.314C313.373 235.998 330.345 178.031 331.68 172.976C333.462 167.145 334.686 161.042 335.285 154.743L335.297 154.744Z" fill="#0CBAB5" stroke="#082422" stroke-miterlimit="10" stroke-linejoin="round"/>
<path d="M325.162 149.179C329.975 98.6628 292.795 53.963 242.113 49.3477C191.431 44.7324 146.457 81.9507 141.643 132.467C136.829 182.983 174.01 227.683 224.68 232.297C225.005 232.327 225.332 232.333 225.668 232.364L219.358 258.695C303.226 230.416 320.207 172.462 321.542 167.408C323.325 161.579 324.55 155.477 325.15 149.178L325.162 149.179Z" fill="#2BF2F1" stroke="#082422" stroke-miterlimit="10" stroke-linejoin="round"/>
<path d="M222.338 107.403C230.539 109.661 235.985 120.173 235.985 120.173C235.985 120.173 243.311 110.843 251.76 110.127C272.684 108.378 279.469 127.404 274.767 140.663C267.817 160.247 241.711 175.959 233.03 180.759C231.313 181.709 229.199 181.514 227.657 180.262C219.983 173.948 197.229 153.713 194.049 133.192C191.908 119.3 202.096 101.844 222.338 107.403Z" fill="#F8312F"/>
<mask id="mask0_15015_18746" style="mask-type:alpha" maskUnits="userSpaceOnUse" x="140" y="48" width="187" height="212">
<path d="M325.174 149.197C329.979 98.6881 292.784 53.9874 242.092 49.3634C191.4 44.7394 146.425 81.9446 141.62 132.453C136.815 182.962 174.01 227.663 224.691 232.286C225.015 232.315 225.342 232.322 225.678 232.352L219.373 258.679C303.25 230.418 320.223 172.476 321.558 167.423C323.34 161.594 324.564 155.493 325.163 149.196L325.174 149.197Z" fill="#2BF2F1" stroke="#082422" stroke-miterlimit="10" stroke-linejoin="round"/>
</mask>
<g mask="url(#mask0_15015_18746)">
<path d="M49.3442 142.315C40.7038 92.3173 74.385 44.923 124.578 36.4648C174.77 28.0067 222.451 61.6904 231.091 111.688C239.732 161.686 205.957 209.01 156.208 219.517C155.886 219.572 155.561 219.603 155.228 219.659L163.183 243.449C159.289 243.444 153.651 242.873 150.504 242.389C74.8598 218.605 55.9709 164.908 54.3395 160.214C52.118 154.537 50.433 148.547 49.3557 142.313L49.3442 142.315Z" fill="#082422" fill-opacity="0.2"/>
</g>
<path d="M28.1537 122.184C19.4994 72.1741 53.1564 24.7812 103.333 16.3374C153.51 7.89354 201.189 41.599 209.843 91.6092C218.497 141.619 184.747 188.942 135.014 199.436C134.693 199.49 134.367 199.521 134.034 199.577L141.995 223.374C138.102 223.367 132.465 222.795 129.319 222.31C53.6873 198.498 34.7859 144.784 33.1535 140.088C30.9307 134.41 29.2442 128.418 28.1652 122.182L28.1537 122.184Z" fill="#B9CC00" stroke="#082422" stroke-miterlimit="10" stroke-linejoin="round"/>
<path d="M15.6693 121.255C7.01504 71.2444 40.672 23.8516 90.8486 15.4077C141.025 6.96386 188.704 40.6693 197.359 90.6795C206.013 140.69 172.356 188.083 122.191 196.524C121.869 196.579 121.544 196.61 121.211 196.666L129.511 222.445C43.7388 200.601 22.386 144.097 20.6691 139.158C18.4464 133.48 16.7598 127.488 15.6808 121.253L15.6693 121.255Z" fill="#DCFF00" stroke="#082422" stroke-miterlimit="10" stroke-linejoin="round"/>
<path d="M85.8832 76.7436C94.39 76.8126 102.377 85.5666 102.377 85.5666C102.377 85.5666 107.034 74.6655 115.009 71.7978C134.767 64.7195 146.255 81.3547 145.153 95.3757C143.519 116.086 122.378 137.989 115.237 144.862C113.825 146.223 111.732 146.578 109.918 145.766C100.868 141.642 73.6409 127.952 65.2465 108.945C59.576 96.0736 64.8885 76.5854 85.8832 76.7436Z" fill="#F8312F"/>
</g>
<defs>
<clipPath id="clip0_15015_18746">
<rect width="344" height="273" fill="white"/>
</clipPath>
</defs>
</svg>
