<svg width="382" height="281" viewBox="0 0 382 281" fill="none" xmlns="http://www.w3.org/2000/svg">
<g clip-path="url(#clip0_14997_18402)">
<path opacity="0.2" d="M268.339 64.115C353.852 73.7866 394.493 127.768 359.113 184.703C323.739 241.627 225.738 279.926 140.225 270.254C54.708 260.574 14.0674 206.593 49.441 149.67C84.8146 92.7463 182.813 54.4386 268.339 64.115Z" fill="black"/>
<path d="M261.007 193.403L257.384 211.962C254.983 224.246 248.283 235.871 237.012 245.769C199.207 278.962 124.259 280.14 69.6122 248.408C31.2542 226.14 13.096 193.569 18.7462 164.657L22.3692 146.098C16.719 175.01 34.8772 207.574 73.2353 229.849C127.882 261.581 202.83 260.395 240.635 227.21C251.906 217.312 258.606 205.687 261.007 193.403Z" fill="#9CAD00" stroke="#082422" stroke-width="0.620402" stroke-miterlimit="10"/>
<path d="M210.108 109.694C264.755 141.426 278.406 194.052 240.595 227.252C202.79 260.444 127.843 261.623 73.1953 229.891C18.548 198.152 4.89702 145.525 42.7015 112.333C80.506 79.1401 155.454 77.9544 210.108 109.694Z" fill="#9CAD00" stroke="#082422" stroke-width="0.620402" stroke-miterlimit="10"/>
<path d="M197.465 141.397L186.782 150.774C198.931 161.344 201.152 171.936 192.274 181.725L163.52 165.024C166.791 160.52 165.67 156.594 159.818 153.196C154.341 150.015 149.754 149.863 147.598 151.757C144.413 154.555 148.158 157.982 156.303 165.357L160.336 169.08C177.739 185.217 181.226 194.146 171.147 202.996C161.414 211.542 145.405 211.795 126.147 204.001L114.264 214.433L86.2508 198.166L98.2269 187.654C83.706 175.703 82.1749 164.518 91.484 154.714L121.985 172.428C117.995 177.019 119.44 181.378 126.291 185.355C132.387 188.897 137.836 189.924 140.855 187.278C143.522 184.935 140.603 182.231 135.42 177.337L126.816 169.449C109.153 153.536 107.363 144.209 117.19 135.591C126.061 127.805 140.567 127.053 158.948 134.341L169.458 125.115L197.472 141.383L197.465 141.397Z" fill="white" stroke="#082422" stroke-width="0.620402" stroke-miterlimit="10"/>
<path d="M263.507 158.456L259.884 177.015C257.483 189.298 250.783 200.924 239.512 210.822C201.707 244.014 126.759 245.193 72.1122 213.461C33.7542 191.193 15.596 158.622 21.2462 129.71L24.8692 111.15C19.219 140.063 37.3772 172.626 75.7353 194.902C130.382 226.634 205.33 225.448 243.135 192.263C254.406 182.365 261.106 170.739 263.507 158.456Z" fill="#9CAD00" stroke="#082422" stroke-width="0.620402" stroke-miterlimit="10"/>
<path d="M212.608 74.7464C267.255 106.478 280.906 159.105 243.095 192.305C205.29 225.497 130.343 226.676 75.6953 194.944C21.048 163.204 7.39702 110.578 45.2015 77.3853C83.006 44.1928 157.954 43.0071 212.608 74.7464Z" fill="#9CAD00" stroke="#082422" stroke-width="0.620402" stroke-miterlimit="10"/>
<path d="M199.965 106.452L189.282 115.829C201.431 126.399 203.652 136.991 194.774 146.78L166.02 130.079C169.291 125.575 168.17 121.649 162.318 118.251C156.841 115.07 152.254 114.918 150.098 116.812C146.913 119.61 150.658 123.037 158.803 130.412L162.836 134.135C180.239 150.272 183.726 159.201 173.647 168.05C163.914 176.596 147.905 176.849 128.647 169.055L116.764 179.488L88.7508 163.221L100.727 152.709C86.206 140.758 84.6749 129.573 93.984 119.769L124.485 137.482C120.495 142.073 121.94 146.433 128.791 150.41C134.887 153.952 140.336 154.979 143.355 152.333C146.022 149.99 143.103 147.286 137.92 142.392L129.316 134.504C111.653 118.591 109.863 109.264 119.69 100.646C128.561 92.8594 143.067 92.1075 161.448 99.3953L171.958 90.1699L199.972 106.437L199.965 106.452Z" fill="white" stroke="#082422" stroke-width="0.620402" stroke-miterlimit="10"/>
<path d="M253.53 133.501L249.907 152.06C247.506 164.343 240.807 175.969 229.535 185.867C191.731 219.059 116.783 220.238 62.1357 188.506C23.7776 166.238 5.61941 133.667 11.2696 104.754L14.8926 86.1953C9.24243 115.108 27.4007 147.671 65.7587 169.947C120.406 201.679 195.354 200.493 233.158 167.308C244.43 157.41 251.129 145.784 253.53 133.501Z" fill="#9CAD00" stroke="#082422" stroke-width="0.620402" stroke-miterlimit="10"/>
<path d="M202.639 49.7913C257.287 81.5234 270.938 134.15 233.126 167.35C195.321 200.542 120.374 201.721 65.7265 169.989C11.0793 138.249 -2.57173 85.6227 35.2328 52.4302C73.0373 19.2377 147.985 18.052 202.639 49.7913Z" fill="#DCFF00" stroke="#082422" stroke-width="0.620402" stroke-miterlimit="10"/>
<path d="M189.988 81.4966L179.306 90.8738C191.454 101.444 193.676 112.036 184.798 121.825L156.044 105.124C159.315 100.62 158.193 96.6939 152.342 93.2958C146.864 90.1146 142.278 89.9628 140.121 91.857C136.937 94.655 140.682 98.082 148.826 105.457L152.859 109.18C170.263 125.317 173.749 134.246 163.671 143.095C153.938 151.641 137.929 151.894 118.671 144.1L106.788 154.533L78.7742 138.266L90.7503 127.754C76.2295 115.803 74.6983 104.618 84.0074 94.8141L114.508 112.527C110.519 117.118 111.964 121.478 118.814 125.454C124.91 128.997 130.359 130.024 133.378 127.378C136.045 125.035 133.127 122.331 127.944 117.436L119.339 109.549C101.677 93.6356 99.8869 84.309 109.714 75.691C118.584 67.9044 133.091 67.1525 151.472 74.4402L161.981 65.2148L189.995 81.4821L189.988 81.4966Z" fill="white" stroke="#082422" stroke-width="0.620402" stroke-miterlimit="10"/>
<path d="M275.96 113.532L272.337 132.091C269.936 144.375 263.236 156 251.965 165.898C214.16 199.091 139.213 200.269 84.5654 168.537C46.2073 146.269 28.0491 113.698 33.6993 84.7857L37.3223 66.2266C31.6721 95.139 49.8304 127.702 88.1884 149.978C142.836 181.71 217.783 180.524 255.588 147.339C266.859 137.441 273.559 125.815 275.96 113.532Z" fill="#9CAD00" stroke="#082422" stroke-width="0.620402" stroke-miterlimit="10"/>
<path d="M225.069 29.8226C279.716 61.5546 293.367 114.181 255.556 147.381C217.751 180.573 142.803 181.752 88.1562 150.02C33.509 118.28 19.858 65.654 57.6625 32.4615C95.467 -0.731022 170.415 -1.91672 225.069 29.8226Z" fill="#DCFF00" stroke="#082422" stroke-width="0.620402" stroke-miterlimit="10"/>
<path d="M212.426 61.5259L201.743 70.9031C213.892 81.4732 216.113 92.065 207.235 101.854L178.481 85.1532C181.752 80.649 180.631 76.7232 174.779 73.3251C169.301 70.1439 164.715 69.9921 162.559 71.8863C159.374 74.6843 163.119 78.1113 171.264 85.4858L175.297 89.2092C192.7 105.346 196.187 114.275 186.108 123.125C176.375 131.67 160.366 131.923 141.108 124.13L129.225 134.562L101.212 118.295L113.188 107.783C98.667 95.8318 97.1358 84.6471 106.445 74.8434L136.946 92.5566C132.956 97.1476 134.401 101.507 141.252 105.484C147.348 109.026 152.797 110.053 155.816 107.407C158.483 105.064 155.564 102.36 150.381 97.4658L141.777 89.5779C124.114 73.6649 122.324 64.3383 132.151 55.7203C141.022 47.9337 155.528 47.1818 173.909 54.4695L184.419 45.2441L212.433 61.5114L212.426 61.5259Z" fill="white" stroke="#082422" stroke-width="0.620402" stroke-miterlimit="10"/>
</g>
<defs>
<clipPath id="clip0_14997_18402">
<rect width="382" height="281" fill="white"/>
</clipPath>
</defs>
</svg>
