<svg width="558" height="569" viewBox="0 0 558 569" fill="none" xmlns="http://www.w3.org/2000/svg">
<g clip-path="url(#clip0_14902_18207)">
<path d="M430.533 68.0505L402.977 68.7049C402.997 68.5894 403.016 68.4932 403.035 68.3777H286.999C286.768 68.9358 286.46 69.4362 286.344 70.0521L278.526 111.123C277.563 116.223 281.318 121.015 286.498 121.285L426.489 128.598C430.764 128.829 434.557 125.846 435.366 121.631L443.184 80.5411C444.147 75.4409 438.659 68.0312 430.552 68.0312L430.533 68.0505Z" fill="#082422" stroke="#082422" stroke-width="2.11401" stroke-linecap="round" stroke-linejoin="round"/>
<mask id="path-2-outside-1_14902_18207" maskUnits="userSpaceOnUse" x="86.4531" y="80.3809" width="444" height="489" fill="black">
<rect fill="white" x="86.4531" y="80.3809" width="444" height="489"/>
<path d="M239.727 83.4093L505.517 92.9552C515.741 101.616 530.029 112.605 527.642 121.304L407.869 556.608C406.772 560.839 403.828 564.09 400.134 565.746L400.138 565.748C399.389 566.092 398.615 566.37 397.82 566.582C397.572 566.649 397.322 566.707 397.069 566.76C397.001 566.774 396.933 566.79 396.864 566.804C395.409 567.089 393.891 567.154 392.33 566.981L118.472 531.973C109.884 530.876 96.6356 525.968 89.4531 513.4L95.6533 494.193L225.131 93.7823C226.979 87.335 233.045 82.9859 239.727 83.4093ZM400.164 565.765L400.138 565.748C400.14 565.747 400.142 565.747 400.145 565.746L400.164 565.765Z"/>
</mask>
<path d="M239.727 83.4093L505.517 92.9552C515.741 101.616 530.029 112.605 527.642 121.304L407.869 556.608C406.772 560.839 403.828 564.09 400.134 565.746L400.138 565.748C399.389 566.092 398.615 566.37 397.82 566.582C397.572 566.649 397.322 566.707 397.069 566.76C397.001 566.774 396.933 566.79 396.864 566.804C395.409 567.089 393.891 567.154 392.33 566.981L118.472 531.973C109.884 530.876 96.6356 525.968 89.4531 513.4L95.6533 494.193L225.131 93.7823C226.979 87.335 233.045 82.9859 239.727 83.4093ZM400.164 565.765L400.138 565.748C400.14 565.747 400.142 565.747 400.145 565.746L400.164 565.765Z" fill="#008C8C"/>
<path d="M239.727 83.4093L239.593 85.519C239.612 85.5203 239.631 85.5212 239.651 85.5219L239.727 83.4093ZM505.517 92.9552L506.883 91.342C506.521 91.0355 506.066 90.8595 505.592 90.8425L505.517 92.9552ZM527.642 121.304L529.68 121.865L529.68 121.863L527.642 121.304ZM407.869 556.608L405.831 556.047C405.828 556.057 405.825 556.067 405.823 556.077L407.869 556.608ZM400.134 565.746L399.269 563.817C398.524 564.151 398.038 564.885 398.02 565.701C398.003 566.518 398.458 567.272 399.188 567.637L400.134 565.746ZM397.82 566.582L397.275 564.54L397.273 564.54L397.82 566.582ZM397.069 566.76L397.504 568.829L397.506 568.828L397.069 566.76ZM396.864 566.804L396.46 564.729L396.458 564.729L396.864 566.804ZM392.33 566.981L392.062 569.078C392.074 569.079 392.085 569.08 392.097 569.082L392.33 566.981ZM118.472 531.973L118.74 529.876L118.74 529.876L118.472 531.973ZM89.4531 513.4L87.4413 512.751C87.2587 513.317 87.3227 513.933 87.6177 514.449L89.4531 513.4ZM95.6533 494.193L93.6419 493.543L93.6415 493.544L95.6533 494.193ZM225.131 93.7823L227.142 94.4327C227.15 94.4103 227.156 94.3877 227.163 94.365L225.131 93.7823ZM400.164 565.765L399.038 567.554C399.957 568.133 401.166 567.92 401.833 567.062C402.5 566.204 402.408 564.981 401.62 564.232L400.164 565.765ZM400.145 565.746L401.601 564.214C400.974 563.618 400.048 563.464 399.262 563.825L400.145 565.746ZM239.727 83.4093L239.651 85.5219L505.441 95.0678L505.517 92.9552L505.592 90.8425L239.802 81.2966L239.727 83.4093ZM505.517 92.9552L504.15 94.5683C509.339 98.9634 515.319 103.756 519.757 108.551C521.969 110.94 523.695 113.225 524.729 115.348C525.76 117.464 526.017 119.236 525.603 120.744L527.642 121.304L529.68 121.863C530.46 119.022 529.826 116.158 528.53 113.497C527.237 110.842 525.2 108.207 522.86 105.679C518.195 100.639 511.919 95.6075 506.883 91.342L505.517 92.9552ZM527.642 121.304L525.603 120.743L405.831 556.047L407.869 556.608L409.907 557.168L529.68 121.865L527.642 121.304ZM407.869 556.608L405.823 556.077C404.894 559.658 402.406 562.411 399.269 563.817L400.134 565.746L400.998 567.675C405.25 565.77 408.65 562.021 409.915 557.138L407.869 556.608ZM400.134 565.746L399.188 567.637L399.192 567.639L400.138 565.748L401.083 563.857L401.079 563.855L400.134 565.746ZM400.138 565.748L399.256 563.827C398.616 564.121 397.955 564.358 397.275 564.54L397.82 566.582L398.365 568.625C399.275 568.382 400.162 568.063 401.019 567.67L400.138 565.748ZM397.82 566.582L397.273 564.54C397.071 564.594 396.859 564.644 396.632 564.691L397.069 566.76L397.506 568.828C397.784 568.77 398.073 568.703 398.367 568.624L397.82 566.582ZM397.069 566.76L396.635 564.691C396.475 564.725 396.526 564.716 396.46 564.729L396.864 566.804L397.269 568.879C397.329 568.867 397.384 568.855 397.422 568.847C397.466 568.837 397.483 568.833 397.504 568.829L397.069 566.76ZM396.864 566.804L396.458 564.729C395.218 564.972 393.916 565.03 392.563 564.879L392.33 566.981L392.097 569.082C393.867 569.278 395.601 569.206 397.271 568.878L396.864 566.804ZM392.33 566.981L392.598 564.884L118.74 529.876L118.472 531.973L118.204 534.07L392.062 569.078L392.33 566.981ZM118.472 531.973L118.74 529.876C110.532 528.827 98.0241 524.137 91.2885 512.352L89.4531 513.4L87.6177 514.449C95.2471 527.799 109.236 532.924 118.204 534.07L118.472 531.973ZM89.4531 513.4L91.4649 514.05L97.6651 494.843L95.6533 494.193L93.6415 493.544L87.4413 512.751L89.4531 513.4ZM95.6533 494.193L97.6648 494.844L227.142 94.4327L225.131 93.7823L223.119 93.1319L93.6419 493.543L95.6533 494.193ZM225.131 93.7823L227.163 94.365C228.743 88.8549 233.92 85.1596 239.593 85.519L239.727 83.4093L239.86 81.2995C232.17 80.8122 225.216 85.8152 223.099 93.1996L225.131 93.7823ZM400.164 565.765L401.29 563.976L401.264 563.959L400.138 565.748L399.011 567.537L399.038 567.554L400.164 565.765ZM400.138 565.748L401.019 567.67C400.946 567.703 400.88 567.728 400.823 567.748C400.767 567.767 400.719 567.781 400.682 567.791C400.663 567.796 400.646 567.8 400.632 567.803C400.619 567.807 400.607 567.809 400.598 567.811C400.588 567.813 400.581 567.815 400.577 567.816C400.573 567.817 400.569 567.817 400.57 567.817C400.57 567.817 400.57 567.817 400.571 567.817C400.571 567.817 400.572 567.817 400.572 567.817C400.573 567.816 400.575 567.816 400.578 567.816C400.582 567.815 400.59 567.813 400.599 567.811C400.609 567.809 400.621 567.806 400.635 567.803C400.65 567.799 400.667 567.795 400.686 567.79C400.724 567.78 400.773 567.766 400.829 567.746C400.886 567.727 400.953 567.701 401.027 567.667L400.145 565.746L399.262 563.825C399.335 563.792 399.402 563.766 399.458 563.747C399.514 563.728 399.563 563.714 399.6 563.704C399.619 563.699 399.635 563.695 399.649 563.691C399.663 563.688 399.675 563.685 399.685 563.683C399.694 563.681 399.701 563.679 399.705 563.679C399.709 563.678 399.713 563.677 399.712 563.677C399.712 563.677 399.712 563.677 399.712 563.677C399.712 563.677 399.712 563.677 399.712 563.677C399.711 563.677 399.711 563.677 399.71 563.678C399.709 563.678 399.707 563.678 399.705 563.679C399.7 563.68 399.692 563.681 399.683 563.683C399.674 563.685 399.661 563.688 399.647 563.692C399.633 563.695 399.616 563.699 399.597 563.704C399.559 563.714 399.51 563.728 399.454 563.748C399.397 563.767 399.33 563.793 399.256 563.827L400.138 565.748ZM400.145 565.746L398.689 567.279L398.708 567.297L400.164 565.765L401.62 564.232L401.601 564.214L400.145 565.746Z" fill="#082422" mask="url(#path-2-outside-1_14902_18207)"/>
<path d="M88.1611 502.584L206.701 82.3697C208.53 75.903 214.615 71.6112 221.316 72.0346L497.061 89.4714C506.073 90.0488 512.293 98.7479 509.886 107.447L389.44 545.214C387.553 552.046 380.929 556.473 373.881 555.549L100.042 520.56C91.4154 519.444 85.7927 510.937 88.1611 502.584Z" fill="#2BF2F1" stroke="#082422" stroke-width="2.11401" stroke-linecap="round" stroke-linejoin="round"/>
<path d="M474.939 118.802L363.64 523.312L122.844 492.595L232.622 103.463L474.939 118.802Z" fill="white" stroke="#082422" stroke-width="2.11401" stroke-linecap="round" stroke-linejoin="round"/>
<path d="M354.778 428.814L180.242 409.51C177.488 409.202 174.908 410.915 174.119 413.552L158.791 464.669C157.77 468.076 160.062 471.578 163.586 472.002L339.489 493.557C342.339 493.903 345.015 492.094 345.728 489.323L359.688 435.935C360.574 432.548 358.244 429.18 354.778 428.795V428.814Z" fill="white" stroke="#082422" stroke-width="2.11401" stroke-linecap="round" stroke-linejoin="round"/>
<path d="M436.213 72.6308L404.036 70.9179L296.549 65.2019C292.274 64.9902 288.365 68.0118 287.345 72.2844L272.845 111.681C272.73 121.419 279.989 124.037 285.13 124.325L424.794 131.735C429.049 132.004 432.978 128.983 433.998 124.71L443.703 82.9466C444.916 77.7887 441.393 72.9387 436.213 72.6115V72.6308Z" fill="#2D993B" stroke="#082422" stroke-width="2.11401" stroke-linecap="round" stroke-linejoin="round"/>
<path d="M431.647 68.0702L399.47 66.3574L291.983 60.6413C287.709 60.4296 283.8 63.4512 282.779 67.7238L273.074 109.43C271.861 114.645 275.423 119.476 280.565 119.765L420.228 127.174C424.484 127.444 428.412 124.422 429.432 120.15L439.137 78.386C440.351 73.2281 436.827 68.3782 431.647 68.051V68.0702Z" fill="#60D06F" stroke="#082422" stroke-width="2.11401" stroke-linecap="round" stroke-linejoin="round"/>
<path d="M320.539 91.6271C319.673 97.4201 314.146 101.75 308.254 101.366C306.309 101.25 304.518 100.615 303.055 99.5179H302.997C300.186 97.5163 298.607 94.1098 299.203 90.2606C300.128 84.5254 305.596 80.0988 311.489 80.4645C314.627 80.6762 317.227 82.1389 318.845 84.4099C320.308 86.3537 320.963 88.8942 320.52 91.6078L320.539 91.6271ZM411.678 96.2846C410.811 102.078 405.285 106.446 399.392 106.081C397.505 105.965 395.772 105.369 394.366 104.349C391.44 102.405 389.764 98.825 390.361 94.9374C391.285 89.2021 396.793 84.8141 402.646 85.199C405.785 85.4107 408.385 86.8734 409.945 89.0866H410.002C411.466 91.0305 412.12 93.5709 411.678 96.2846Z" fill="#082422" stroke="#082422" stroke-width="2.11401" stroke-linecap="round" stroke-linejoin="round"/>
<path d="M320.537 91.6274C319.671 97.4204 314.144 101.751 308.252 101.366C306.307 101.25 304.516 100.615 303.053 99.5182H302.995C301.589 97.5744 300.935 95.0339 301.32 92.3203C302.244 86.6427 307.713 82.1969 313.605 82.5818C315.608 82.6973 317.399 83.3324 318.862 84.4294C320.325 86.3733 320.98 88.9137 320.537 91.6274ZM411.676 96.2849C410.809 102.078 405.283 106.447 399.39 106.081C397.503 105.966 395.77 105.369 394.365 104.349C392.747 102.347 392.035 99.8069 392.478 97.0547C393.402 91.3195 398.871 86.8929 404.763 87.2586C406.765 87.3741 408.499 88.0092 409.962 89.1062H410.02C411.483 91.05 412.138 93.5905 411.695 96.3041L411.676 96.2849Z" fill="white" stroke="#082422" stroke-width="2.11401" stroke-linecap="round" stroke-linejoin="round"/>
<path d="M249.794 147.383L294.526 151.559C298.878 151.963 301.42 155.755 300.226 160.027L287.863 203.927C286.67 208.2 282.164 211.318 277.812 210.914L233.08 206.737C228.728 206.333 226.187 202.542 227.38 198.269L239.743 154.369C240.937 150.097 245.443 146.979 249.794 147.383Z" fill="#60D06F" stroke="#082422" stroke-width="4.33372" stroke-linecap="round" stroke-linejoin="round"/>
<path d="M423.555 178.906L437.843 180.253" stroke="#082422" stroke-width="4.33372" stroke-linecap="round" stroke-linejoin="round"/>
<path d="M328.031 169.898L402.263 176.904" stroke="#082422" stroke-width="4.33372" stroke-linecap="round" stroke-linejoin="round"/>
<path d="M319.438 199.594L369.118 204.29" stroke="#082422" stroke-width="4.33372" stroke-linecap="round" stroke-linejoin="round"/>
<path d="M248.672 178.176L255.7 188.608L281.638 170.574" stroke="#082422" stroke-width="4.33372" stroke-linecap="round" stroke-linejoin="round"/>
<path d="M196.458 325.272L241.19 329.448C245.542 329.852 248.084 333.644 246.89 337.916L234.527 381.816C233.334 386.089 228.828 389.206 224.476 388.802L179.744 384.626C175.392 384.222 172.851 380.43 174.045 376.158L186.407 332.258C187.601 327.985 192.107 324.867 196.458 325.272Z" fill="#60D06F" stroke="#082422" stroke-width="4.33372" stroke-linecap="round" stroke-linejoin="round"/>
<path d="M370.211 356.797L384.499 358.144" stroke="#082422" stroke-width="4.33372" stroke-linecap="round" stroke-linejoin="round"/>
<path d="M274.68 347.789L348.911 354.795" stroke="#082422" stroke-width="4.33372" stroke-linecap="round" stroke-linejoin="round"/>
<path d="M266.094 377.484L315.774 382.18" stroke="#082422" stroke-width="4.33372" stroke-linecap="round" stroke-linejoin="round"/>
<path d="M195.328 356.065L202.357 366.496L228.294 348.463" stroke="#082422" stroke-width="4.33372" stroke-linecap="round" stroke-linejoin="round"/>
<path d="M222.716 238.512L267.448 242.688C271.8 243.092 274.342 246.884 273.148 251.156L260.785 295.056C259.591 299.329 255.086 302.447 250.734 302.042L206.002 297.866C201.65 297.462 199.108 293.671 200.302 289.398L212.665 245.498C213.859 241.225 218.364 238.108 222.716 238.512Z" fill="#60D06F" stroke="#082422" stroke-width="4.33372" stroke-linecap="round" stroke-linejoin="round"/>
<path d="M396.477 270.057L410.765 271.404" stroke="#082422" stroke-width="4.33372" stroke-linecap="round" stroke-linejoin="round"/>
<path d="M300.938 261.029L375.188 268.035" stroke="#082422" stroke-width="4.33372" stroke-linecap="round" stroke-linejoin="round"/>
<path d="M292.352 290.746L342.032 295.423" stroke="#082422" stroke-width="4.33372" stroke-linecap="round" stroke-linejoin="round"/>
<path d="M221.578 269.305L228.607 279.756L254.544 261.703" stroke="#082422" stroke-width="4.33372" stroke-linecap="round" stroke-linejoin="round"/>
<path d="M219.826 444.115L210.641 450.735L210.738 462.033C210.776 463.938 208.581 465.093 207.04 463.938L197.99 457.26L187.322 460.936C185.493 461.59 183.779 459.858 184.376 458.03L187.977 447.271L181.199 438.303C180.082 436.763 181.218 434.55 183.125 434.55L194.409 434.646L200.917 425.389C202.015 423.772 204.479 424.138 204.999 425.966L208.35 436.724L219.172 439.977C220.982 440.516 221.367 442.999 219.807 444.076L219.826 444.115ZM278.133 451.563L268.948 458.184L269.045 469.481C269.083 471.386 266.888 472.541 265.347 471.386L256.297 464.708L245.629 468.384C243.8 469.038 242.086 467.306 242.683 465.478L246.284 454.719L239.506 445.751C238.389 444.211 239.525 441.998 241.432 441.998L252.716 442.094L259.224 432.837C260.322 431.22 262.786 431.586 263.306 433.414L266.657 444.173L277.479 447.425C279.289 447.964 279.674 450.447 278.114 451.524L278.133 451.563ZM336.46 459.011L327.275 465.632L327.371 476.929C327.409 478.834 325.214 479.989 323.674 478.834L314.623 472.156L303.956 475.832C302.126 476.486 300.413 474.754 301.01 472.926L304.61 462.167L297.832 453.199C296.715 451.659 297.852 449.446 299.758 449.446L311.042 449.542L317.55 440.285C318.648 438.668 321.113 439.034 321.633 440.862L324.983 451.621L335.805 454.873C337.615 455.412 338 457.895 336.44 458.973L336.46 459.011Z" fill="#DCFF00" stroke="#082422" stroke-width="2.11401" stroke-linecap="round" stroke-linejoin="round"/>
<mask id="mask0_14902_18207" style="mask-type:alpha" maskUnits="userSpaceOnUse" x="87" y="60" width="442" height="509">
<path d="M291.993 60.14H291.995L399.483 65.8568L431.527 67.5619C431.571 67.5522 431.618 67.5472 431.664 67.5501C432.28 67.5891 432.872 67.6911 433.439 67.8441C436.371 68.4901 438.839 70.0732 440.624 72.0355C441.878 73.4143 442.81 74.9997 443.324 76.598C444.351 78.4651 444.719 80.7349 444.172 83.0599L443.584 85.5863L497.077 88.9701H497.078C500.114 89.1646 502.843 90.2501 505.059 91.9359L505.534 91.9535L505.7 91.973C505.863 92.0066 506.016 92.0813 506.145 92.1898C511.221 96.4892 517.419 101.458 522.025 106.433C524.33 108.924 526.285 111.467 527.51 113.982C528.736 116.499 529.271 119.076 528.588 121.566L528.587 121.567L408.815 556.87C407.66 561.308 404.609 564.735 400.772 566.54C400.64 566.646 400.486 566.716 400.324 566.745C399.59 567.069 398.835 567.34 398.06 567.546L398.059 567.545C397.79 567.617 397.521 567.68 397.258 567.736H397.257C397.231 567.741 397.107 567.768 397.037 567.782L397.038 567.783C395.482 568.088 393.861 568.156 392.201 567.972C392.196 567.971 392.19 567.971 392.185 567.97L118.326 532.962C109.558 531.842 95.9603 526.831 88.5666 513.894C88.4274 513.65 88.3974 513.358 88.4836 513.091L88.5666 512.835C87.0643 509.729 86.6357 506.074 87.6642 502.446L206.204 82.2318V82.2308C208.098 75.5372 214.397 71.0945 221.332 71.5326L280.493 75.2728L282.278 67.6087L282.278 67.6058C283.352 63.1105 287.467 59.916 291.993 60.14Z" fill="#DCFF00"/>
</mask>
<g mask="url(#mask0_14902_18207)">
<path opacity="0.3" d="M554.118 277.648L554.145 277.639L552.829 278.528L441.699 354.417L427.251 407.35L417.297 394.921L352.202 413.519L352.372 413.403L352.205 413.515L365.738 344.488L365.729 344.479L302.25 284.285L554.141 277.633L554.118 277.648Z" fill="#082422"/>
<path opacity="0.3" d="M214.21 50.2534C233.448 45.6012 252.738 47.4399 269.776 54.3589C309.701 58.8945 344.404 87.7654 354.39 129.079C367.182 181.948 334.689 235.17 281.809 247.964L252.13 255.145C252.111 255.15 252.092 255.154 252.073 255.159L209.926 265.357L220.705 290.67L193.234 297.317C191.956 297.092 190.645 296.821 189.307 296.507L189.476 296.954C189.31 296.947 116.165 294.028 74.3067 249.832C61.8255 237.429 52.5032 221.544 48.0635 203.195C47.7489 201.894 47.4624 200.594 47.2022 199.293C45.3146 194.82 43.7597 190.138 42.5802 185.267C30.7646 136.472 60.7739 87.3332 109.606 75.5278L187.123 56.7876C187.656 56.6588 188.188 56.5353 188.721 56.4165L214.21 50.2534ZM73.0753 95.3852C73.1601 95.3135 73.2441 95.2408 73.3292 95.1694L73.3321 95.1665C73.246 95.2388 73.1611 95.3126 73.0753 95.3852ZM109.898 76.7358C100.59 78.9861 91.9753 82.6126 84.2178 87.3452C91.9745 82.6135 100.588 78.9887 109.895 76.7387L122.428 73.7085C122.431 73.7069 122.435 73.7051 122.439 73.7036L109.898 76.7358Z" fill="#002522"/>
</g>
<path d="M369.586 307.915L306.113 247.722L557.996 241.057L464.82 410.036L408.307 342.316L369.586 307.915Z" fill="white" stroke="#082422" stroke-linecap="round" stroke-linejoin="round"/>
<path d="M558 241.069L408.318 342.323L356.059 376.958L369.598 307.923L558 241.069Z" fill="#A6A6A6" stroke="#082422" stroke-linecap="round" stroke-linejoin="round"/>
<path d="M356.058 376.956L420.638 357.091L408.318 342.32L356.058 376.956Z" fill="#A6A6A6" stroke="#082422" stroke-linecap="round" stroke-linejoin="round"/>
<path d="M193.321 22.5867L115.797 41.3339C67.6295 52.9821 38.0248 101.449 49.674 149.57C53.7179 166.275 62.2092 180.738 73.5781 192.029C98.2966 218.114 132.026 237.795 154.822 241.809C167.88 238.651 179.843 235.758 179.843 235.758L170.026 212.712L235.501 196.878C283.669 185.23 313.266 136.777 301.614 88.6447C289.976 40.5204 241.477 10.9412 193.321 22.5867Z" fill="#8EA400"/>
<path fill-rule="evenodd" clip-rule="evenodd" d="M154.831 241.817C132.036 237.803 98.3061 218.122 73.5876 192.037C62.2187 180.746 53.7274 166.283 49.6835 149.578C38.0343 101.457 67.639 52.99 115.807 41.3418L193.33 22.5946C241.487 10.9491 289.985 40.5283 301.623 88.6526C313.275 136.785 283.679 185.238 235.511 196.886L170.035 212.72L179.853 235.766L154.831 241.817ZM179.853 235.766L180.145 236.974L181.573 236.629L171.755 213.583L235.803 198.095C284.639 186.285 314.646 137.161 302.832 88.3602C291.033 39.5682 241.862 9.57916 193.038 21.3861L115.514 40.1333C66.679 51.9429 36.6635 101.081 48.4744 149.871C52.5725 166.799 61.1772 181.459 72.6973 192.905C97.5332 219.109 131.481 238.968 154.615 243.041L154.871 243.086L180.145 236.974C180.145 236.974 180.145 236.974 180.131 236.914C180.106 236.81 180.038 236.529 179.853 235.766Z" fill="black"/>
<path d="M166.23 29.1302L88.7128 47.8707C40.5485 59.5148 10.9503 107.982 22.6041 156.109C26.6496 172.816 35.1421 187.281 46.5116 198.574C84.6849 238.863 151.416 241.488 151.416 241.488L142.957 219.269L208.427 203.441C256.592 191.797 286.182 143.343 274.525 95.2052C262.882 47.0757 214.384 17.4888 166.23 29.1302Z" fill="#DCFF00"/>
<path fill-rule="evenodd" clip-rule="evenodd" d="M150.057 241.409C140.392 240.778 81.4752 235.472 46.5133 198.572C35.1438 187.279 26.6513 172.814 22.6058 156.107C10.952 107.981 40.5502 59.5132 88.7145 47.8691L166.232 29.1286C214.385 17.4872 262.884 47.074 274.527 95.2036C286.183 143.342 256.593 191.795 208.429 203.439L142.958 219.267L151.417 241.486C151.417 241.486 150.945 241.467 150.057 241.409ZM151.417 241.486L151.369 242.728L153.249 242.802L144.623 220.144L208.722 204.648C257.554 192.842 287.554 143.717 275.736 94.9113C263.932 46.114 214.76 16.1172 165.939 27.9199L88.4218 46.6604C39.5902 58.4659 9.58128 107.605 21.3968 156.4C25.4965 173.331 34.1024 187.993 45.6233 199.441C64.9361 219.816 91.4102 230.621 112.961 236.339C123.753 239.202 133.342 240.799 140.237 241.68C143.685 242.12 146.46 242.382 148.377 242.534C149.336 242.61 150.08 242.658 150.586 242.688C150.839 242.703 151.033 242.713 151.164 242.719C151.23 242.722 151.28 242.725 151.314 242.726L151.354 242.728L151.364 242.728L151.367 242.728C151.368 242.728 151.369 242.728 151.417 241.486Z" fill="black"/>
<path d="M120.756 147.193C125.643 146.012 128.645 141.095 127.462 136.211C126.28 131.326 121.359 128.324 116.473 129.506C111.586 130.687 108.584 135.604 109.767 140.488C110.95 145.372 115.87 148.374 120.756 147.193Z" fill="#002522"/>
<path d="M188.014 130.931C192.901 129.75 195.903 124.833 194.72 119.949C193.537 115.065 188.617 112.063 183.731 113.244C178.844 114.425 175.842 119.342 177.025 124.226C178.207 129.111 183.128 132.112 188.014 130.931Z" fill="#002522"/>
<path d="M154.397 139.056C159.283 137.875 162.286 132.958 161.103 128.074C159.92 123.19 155 120.188 150.113 121.369C145.227 122.55 142.224 127.467 143.407 132.351C144.59 137.236 149.51 140.237 154.397 139.056Z" fill="#002522"/>
</g>
<defs>
<clipPath id="clip0_14902_18207">
<rect width="558" height="569" fill="white"/>
</clipPath>
</defs>
</svg>
