<svg width="263" height="301" viewBox="0 0 263 301" fill="none" xmlns="http://www.w3.org/2000/svg">
<g clip-path="url(#clip0_15015_18742)">
<path d="M259.635 219.68L237.875 225.008C237.406 225.124 236.989 225.306 236.612 225.553L215.75 239.288C216.128 239.041 216.544 238.859 217.013 238.742L238.773 233.415C239.255 233.298 239.672 233.116 240.05 232.856L260.911 219.121C260.534 219.368 260.104 219.563 259.635 219.68Z" fill="#0CBAB5" stroke="black" stroke-width="0.323082" stroke-miterlimit="10"/>
<path d="M82.6536 26.4824L90.3107 3.09272C90.6623 2.0012 91.2744 1.19555 92.0557 0.675781L71.194 14.4107C70.4126 14.9305 69.8006 15.7232 69.449 16.8277L61.7919 40.2174C61.4403 41.2829 60.8412 42.0886 60.0469 42.6083L80.9086 28.8734C81.69 28.3536 82.302 27.548 82.6536 26.4824Z" fill="#0CBAB5" stroke="black" stroke-width="0.323082" stroke-miterlimit="10"/>
<path d="M233.706 268.696L207.805 258.262C206.946 257.911 206.112 257.742 205.344 257.742C204.445 257.742 203.625 257.976 202.948 258.418L182.086 272.153C182.763 271.711 183.583 271.477 184.482 271.477C185.25 271.477 186.084 271.646 186.943 271.997L212.845 282.431C213.73 282.782 214.564 282.951 215.332 282.951C216.243 282.951 217.064 282.717 217.728 282.262L238.59 268.527C237.913 268.969 237.105 269.216 236.194 269.216C235.425 269.216 234.592 269.047 233.706 268.696Z" fill="#0CBAB5" stroke="black" stroke-width="0.323082" stroke-miterlimit="10"/>
<path d="M28.2699 69.0509C28.8299 71.9746 28.0876 74.3655 26.3817 75.4831L47.2434 61.7481C48.9363 60.6306 49.6786 58.2396 49.1317 55.3159L43.3628 25.2212C42.7768 22.1935 43.5972 19.8545 45.264 18.75L24.4023 32.485C22.7354 33.5765 21.915 35.9155 22.501 38.9561L28.2699 69.0509Z" fill="#0CBAB5" stroke="black" stroke-width="0.323082" stroke-miterlimit="10"/>
<path d="M183.185 284.198L160.07 260.808C158.117 258.833 155.864 257.755 153.91 257.755C153.142 257.755 152.426 257.924 151.788 258.274L132.775 268.709C132.124 269.06 131.395 269.229 130.626 269.229C127.449 269.229 123.594 266.344 121.589 262.069L107.473 231.974C105.806 228.427 102.707 225.633 99.7245 225.009L74.4352 219.681C69.9816 218.733 65.6842 213.249 65.4498 208.194L64.1085 179.477C63.9522 176.086 61.8947 172.278 58.9647 169.965L34.1832 150.305C29.8077 146.835 27.7242 140.507 29.7947 137.038L41.5929 117.377C42.9863 115.051 42.5305 111.257 40.447 107.866L22.8017 79.1352C20.0801 74.7172 20.2494 69.9613 22.9059 68.207L2.07022 81.916C-0.586329 83.6572 -0.755619 88.4132 1.96604 92.8442L19.6113 121.575C21.6948 124.966 22.1506 128.76 20.7572 131.086L8.95903 150.747C6.87546 154.216 8.97205 160.544 13.3475 164.014L38.129 183.674C41.059 186 43.1165 189.795 43.2728 193.186L44.6141 221.903C44.8485 226.958 49.1459 232.455 53.5995 233.39L78.8888 238.718C81.8709 239.342 84.9703 242.136 86.6371 245.683L100.753 275.778C102.759 280.053 106.613 282.938 109.791 282.938C110.559 282.938 111.288 282.769 111.939 282.418L130.952 271.983C131.59 271.633 132.306 271.464 133.075 271.464C135.015 271.464 137.268 272.542 139.234 274.517L162.349 297.907C164.38 299.973 166.633 301 168.547 301C169.446 301 170.266 300.766 170.97 300.311L191.831 286.576C191.141 287.031 190.321 287.265 189.409 287.265C187.495 287.265 185.242 286.238 183.211 284.172L183.185 284.198Z" fill="#0CBAB5" stroke="black" stroke-width="0.323082" stroke-miterlimit="10"/>
<path d="M94.4612 0C96.3755 0 98.6284 1.02655 100.673 3.09264L123.774 26.4824C125.728 28.4705 127.994 29.549 129.934 29.549C130.702 29.549 131.419 29.3801 132.057 29.0292L151.069 18.5948C151.72 18.231 152.45 18.0621 153.218 18.0621C156.395 18.0621 160.25 20.9598 162.242 25.2089L176.359 55.3037C178.025 58.8641 181.125 61.6449 184.107 62.2816L209.396 67.6093C213.85 68.5449 218.134 74.0284 218.382 79.0832L219.723 107.814C219.879 111.205 221.937 114.999 224.854 117.325L249.648 136.986C254.011 140.455 256.107 146.796 254.037 150.253L242.238 169.913C240.845 172.239 241.314 176.034 243.397 179.425L261.043 208.142C264.142 213.197 263.478 218.694 259.649 219.629L237.889 224.957C235.324 225.581 234.06 228.375 234.751 231.922L240.52 262.017C241.34 266.292 239.387 269.177 236.209 269.177C235.441 269.177 234.607 269.008 233.722 268.657L207.82 258.222C206.961 257.872 206.128 257.703 205.359 257.703C203.406 257.703 201.869 258.781 201.218 260.756L193.574 284.146C192.897 286.212 191.321 287.239 189.407 287.239C187.493 287.239 185.24 286.212 183.208 284.146L160.094 260.756C158.14 258.781 155.887 257.703 153.934 257.703C153.166 257.703 152.45 257.872 151.811 258.222L132.799 268.657C132.148 269.008 131.419 269.177 130.65 269.177C127.473 269.177 123.618 266.292 121.613 262.017L107.497 231.922C105.83 228.375 102.73 225.581 99.7483 224.957L74.459 219.629C70.0053 218.681 65.708 213.197 65.4736 208.142L64.1323 179.425C63.976 176.034 61.9185 172.226 58.9885 169.913L34.207 150.253C29.8315 146.783 27.7479 140.455 29.8185 136.986L41.6167 117.325C43.0101 114.999 42.5543 111.205 40.4707 107.814L22.8255 79.0832C19.7262 74.0284 20.3903 68.5319 24.2189 67.6093L45.9792 62.2816C48.5446 61.6449 49.7947 58.8641 49.1175 55.3037L43.3487 25.2089C42.5282 20.9468 44.4686 18.0621 47.646 18.0621C48.4143 18.0621 49.2478 18.231 50.1463 18.5948L76.0477 29.0292C76.9072 29.3801 77.7406 29.549 78.5089 29.549C80.4492 29.549 81.9989 28.4705 82.637 26.4824L90.2941 3.09264C90.9582 1.02655 92.5339 0 94.4482 0H94.4612Z" fill="#2BF2F1" stroke="black" stroke-width="0.323082" stroke-miterlimit="10"/>
<path d="M152.711 105.474C152.216 105.799 151.799 106.28 151.513 106.903L124.648 164.858L113.878 155.177C110.896 152.5 109.464 148.147 110.675 145.47L114.556 136.868C114.842 136.218 115.272 135.725 115.78 135.387L94.9179 149.122C94.41 149.46 93.9933 149.953 93.6938 150.603L89.8131 159.205C88.602 161.882 90.0345 166.235 93.0166 168.912L129.036 201.307C130.534 202.645 132.123 203.321 133.503 203.321C134.219 203.321 134.87 203.139 135.417 202.775L156.279 189.04C155.732 189.404 155.081 189.586 154.365 189.586C152.984 189.586 151.396 188.91 149.898 187.572L126.067 166.144L143.712 154.527C143.921 154.397 144.09 154.202 144.207 153.943L172.375 93.1813C172.661 92.5576 173.078 92.0768 173.573 91.752L152.711 105.487V105.474Z" fill="#0CBAB5"/>
<path d="M159.875 100.925C159.38 101.25 158.963 101.731 158.677 102.354L131.812 160.309L121.042 150.628C118.06 147.951 116.628 143.598 117.839 140.922L121.72 132.319C122.006 131.67 122.436 131.176 122.944 130.838L102.082 144.573C101.574 144.911 101.157 145.405 100.858 146.054L96.9772 154.656C95.7661 157.333 97.1986 161.686 100.181 164.363L136.2 196.758C137.698 198.096 139.287 198.772 140.667 198.772C141.383 198.772 142.034 198.59 142.581 198.226L163.443 184.491C162.896 184.855 162.245 185.037 161.529 185.037C160.148 185.037 158.56 184.361 157.062 183.023L133.231 161.595L150.877 149.979C151.085 149.849 151.254 149.654 151.371 149.394L179.539 88.6325C179.825 88.0088 180.242 87.528 180.737 87.2031L159.875 100.938V100.925Z" fill="#D6D6D6" stroke="black" stroke-width="0.323082" stroke-miterlimit="10"/>
<path d="M182.649 86.6582C184.042 86.6582 185.644 87.3469 187.154 88.7113L196.7 97.3785C199.682 100.094 201.088 104.434 199.851 107.098L164.639 183.063C164.027 184.388 162.881 185.038 161.526 185.038C160.172 185.038 158.557 184.362 157.06 183.024L121.04 150.629C118.058 147.952 116.625 143.599 117.837 140.922L121.717 132.32C122.316 130.969 123.475 130.306 124.843 130.306C126.21 130.306 127.812 130.982 129.309 132.32L148.296 149.382C148.895 149.927 149.546 150.2 150.106 150.2C150.666 150.2 151.122 149.927 151.369 149.395L179.536 88.6333C180.148 87.3209 181.294 86.6582 182.649 86.6582Z" fill="white" stroke="black" stroke-width="0.323082" stroke-miterlimit="10"/>
</g>
<defs>
<clipPath id="clip0_15015_18742">
<rect width="263" height="301" fill="white"/>
</clipPath>
</defs>
</svg>
