<svg width="248" height="318" viewBox="0 0 248 318" fill="none" xmlns="http://www.w3.org/2000/svg">
<g clip-path="url(#clip0_15015_18744)">
<path d="M84.4334 32.1433C85.1898 32.5214 85.9592 32.7169 86.7286 32.7169H109.784C109.015 32.7169 108.246 32.5344 107.489 32.1433L84.9942 20.5944C84.2248 20.2033 83.4423 20.0078 82.6729 20.0078H59.6172C60.3866 20.0078 61.1691 20.1903 61.9384 20.5944L84.4334 32.1433Z" fill="#0CBAB5" stroke="black" stroke-width="0.323082" stroke-miterlimit="10"/>
<path d="M84.4334 285.868L61.9384 297.417C61.1691 297.808 60.3866 297.991 59.6172 297.991H82.6729C83.4423 297.991 84.2248 297.808 84.9942 297.417L107.489 285.868C108.246 285.477 109.015 285.295 109.784 285.295H86.7286C85.9592 285.295 85.1898 285.477 84.4334 285.868Z" fill="#0CBAB5" stroke="black" stroke-width="0.323082" stroke-miterlimit="10"/>
<path d="M133.068 288.684L117.667 314.571C116.31 316.852 114.394 318 112.477 318H135.532C137.449 318 139.366 316.852 140.722 314.571L156.123 288.684C157.427 286.494 159.331 285.295 161.274 285.295H138.219C136.263 285.295 134.372 286.494 133.068 288.684Z" fill="#0CBAB5" stroke="black" stroke-width="0.323082" stroke-miterlimit="10"/>
<path d="M156.123 29.3156L140.722 3.42819C139.366 1.14707 137.449 0 135.532 0H112.477C114.394 0 116.31 1.14707 117.667 3.42819L133.068 29.3156C134.372 31.5185 136.276 32.7177 138.232 32.7177H161.287C159.331 32.7177 157.427 31.5185 156.123 29.3156Z" fill="#0CBAB5" stroke="black" stroke-width="0.323082" stroke-miterlimit="10"/>
<path d="M245.577 166.337C248.811 162.504 248.811 155.492 245.577 151.646L227.255 129.891C225.104 127.323 224.295 123.126 225.26 119.372L233.423 87.5666C234.858 81.9746 232.38 75.8873 228.233 74.8575L204.669 68.9527C201.891 68.2488 199.701 65.1726 199.218 61.236L195.045 27.9317C194.445 23.2131 191.55 20.0195 188.368 20.0195H165.312C168.494 20.0195 171.389 23.2261 171.989 27.9317L176.162 61.236C176.658 65.1726 178.836 68.2488 181.613 68.9527L205.177 74.8575C209.324 75.8873 211.802 81.9616 210.368 87.5666L202.204 119.372C201.239 123.126 202.035 127.323 204.199 129.891L222.522 151.646C225.756 155.479 225.756 162.504 222.522 166.337L204.199 188.105C202.048 190.673 201.239 194.883 202.204 198.637L210.368 230.429C211.802 236.021 209.324 242.109 205.177 243.152L181.613 249.056C178.836 249.747 176.645 252.837 176.162 256.76L171.989 290.064C171.389 294.796 168.481 297.99 165.312 297.99H188.368C191.55 297.99 194.458 294.796 195.045 290.064L199.218 256.76C199.714 252.824 201.891 249.747 204.669 249.056L228.233 243.152C232.38 242.109 234.858 236.035 233.423 230.429L225.26 198.637C224.295 194.883 225.091 190.673 227.255 188.105L245.577 166.337Z" fill="#0CBAB5" stroke="black" stroke-width="0.323082" stroke-miterlimit="10"/>
<path d="M112.475 0.0117188C114.392 0.0117188 116.309 1.15879 117.665 3.43991L133.066 29.3273C134.37 31.5302 136.274 32.7294 138.23 32.7294C139 32.7294 139.769 32.5469 140.525 32.1559L163.02 20.6069C163.79 20.2159 164.572 20.0203 165.341 20.0203C168.523 20.0203 171.418 23.2269 172.018 27.9326L176.191 61.2368C176.687 65.1734 178.865 68.2496 181.642 68.9535L205.207 74.8583C209.353 75.8881 211.831 81.9624 210.397 87.5674L202.233 119.373C201.268 123.127 202.064 127.324 204.228 129.892L222.55 151.647C225.785 155.479 225.785 162.505 222.55 166.338L204.228 188.106C202.077 190.674 201.268 194.884 202.233 198.638L210.397 230.43C211.831 236.022 209.353 242.11 205.207 243.152L181.642 249.057C178.865 249.748 176.674 252.837 176.191 256.761L172.018 290.065C171.418 294.797 168.51 297.99 165.341 297.99C164.572 297.99 163.79 297.808 163.02 297.417L140.525 285.868C139.769 285.477 139 285.294 138.23 285.294C136.274 285.294 134.383 286.494 133.079 288.683L117.678 314.571C116.322 316.852 114.405 317.999 112.488 317.999C110.571 317.999 108.654 316.852 107.298 314.571L91.8969 288.683C90.5929 286.494 88.7021 285.294 86.746 285.294C85.9766 285.294 85.2072 285.477 84.4508 285.868L61.9558 297.417C61.1864 297.808 60.404 297.99 59.6476 297.99C56.4657 297.99 53.5577 294.797 52.9708 290.065L48.7848 256.761C48.2892 252.824 46.1245 249.748 43.3338 249.057L19.7695 243.152C15.6226 242.11 13.1449 236.035 14.5794 230.43L22.7428 198.638C23.7078 194.884 22.9123 190.674 20.7475 188.106L2.42555 166.338C-0.808516 162.505 -0.808516 155.492 2.42555 151.647L20.7475 129.892C22.9123 127.324 23.7078 123.127 22.7428 119.373L14.5794 87.5674C13.1319 81.9754 15.6226 75.8881 19.7695 74.8583L43.3338 68.9535C46.1245 68.2496 48.3023 65.1734 48.7848 61.2368L52.9708 27.9326C53.5577 23.2139 56.4657 20.0203 59.6346 20.0203C60.404 20.0203 61.1864 20.2028 61.9558 20.6069L84.4508 32.1559C85.2072 32.5339 85.9766 32.7294 86.746 32.7294C88.689 32.7294 90.5929 31.5302 91.8969 29.3273L107.298 3.43991C108.654 1.15879 110.571 0.0117188 112.488 0.0117188H112.475Z" fill="#2BF2F1" stroke="black" stroke-width="0.323082" stroke-miterlimit="10"/>
<path d="M159.868 110.066C161.342 110.066 162.815 110.862 163.924 112.465L170.992 122.606C173.196 125.787 173.17 130.87 170.927 133.986L107.067 222.884C105.959 224.422 104.511 225.204 103.077 225.204C101.642 225.204 100.168 224.422 99.06 222.845L72.2486 184.939C70.0317 181.798 70.0317 176.714 72.2486 173.573L79.3688 163.497C80.4772 161.919 81.9377 161.137 83.3983 161.137C84.8588 161.137 86.3064 161.919 87.4279 163.497L101.551 183.466C102.007 184.105 102.594 184.418 103.181 184.418C103.768 184.418 104.355 184.105 104.798 183.479L155.878 112.374C156.986 110.835 158.434 110.066 159.868 110.066Z" fill="#0CBAB5"/>
<path d="M102.454 174.889C101.893 174.889 101.332 174.589 100.902 173.99L87.5355 155.102C86.4923 153.616 85.1099 152.873 83.7276 152.873H60.6719C62.0542 152.873 63.4235 153.616 64.4798 155.102L77.8464 173.99C78.2767 174.589 78.8375 174.889 79.3982 174.889H102.454Z" fill="#D6D6D6" stroke="black" stroke-width="0.323082" stroke-miterlimit="10"/>
<path d="M166.591 116.416L159.901 106.823C158.844 105.311 157.462 104.555 156.067 104.555H133.011C134.406 104.555 135.789 105.311 136.845 106.823L143.535 116.416C145.621 119.415 145.595 124.224 143.483 127.17L83.0786 211.246C82.0353 212.706 80.6661 213.436 79.2969 213.436H102.353C103.722 213.436 105.078 212.706 106.134 211.246L166.538 127.17C168.651 124.224 168.677 119.415 166.591 116.416Z" fill="#D6D6D6" stroke="black" stroke-width="0.323082" stroke-miterlimit="10"/>
<path d="M133.01 104.552C134.405 104.552 135.788 105.308 136.844 106.82L143.534 116.414C145.62 119.412 145.594 124.222 143.482 127.168L83.0776 211.243C82.0343 212.703 80.6651 213.433 79.2959 213.433C77.9266 213.433 76.5443 212.69 75.501 211.204L50.1371 175.358C48.0376 172.386 48.0376 167.576 50.1371 164.617L56.8791 155.089C57.9354 153.603 59.3046 152.86 60.6869 152.86C62.0692 152.86 63.4385 153.603 64.4948 155.089L77.8614 173.976C78.2917 174.576 78.8524 174.876 79.4132 174.876C79.9739 174.876 80.5217 174.576 80.939 173.989L129.241 106.729C130.285 105.269 131.654 104.539 133.023 104.539L133.01 104.552Z" fill="white" stroke="black" stroke-width="0.323082" stroke-miterlimit="10"/>
</g>
<defs>
<clipPath id="clip0_15015_18744">
<rect width="248" height="318" fill="white"/>
</clipPath>
</defs>
</svg>
